<?xml version="1.0" encoding="UTF-8" standalone="no"?>
<svg
   version="1.1"
   width="2500"
   height="3686"
   id="svg175"
   sodipodi:docname="hurt_default_pants.svg"
   inkscape:version="1.4.2 (f4327f4, 2025-05-13)"
   xmlns:inkscape="http://www.inkscape.org/namespaces/inkscape"
   xmlns:sodipodi="http://sodipodi.sourceforge.net/DTD/sodipodi-0.dtd"
   xmlns="http://www.w3.org/2000/svg"
   xmlns:svg="http://www.w3.org/2000/svg">
  <defs
     id="defs175" />
  <sodipodi:namedview
     id="namedview175"
     pagecolor="#ffffff"
     bordercolor="#000000"
     borderopacity="0.25"
     inkscape:showpageshadow="2"
     inkscape:pageopacity="0.0"
     inkscape:pagecheckerboard="0"
     inkscape:deskcolor="#d1d1d1"
     inkscape:zoom="0.3328"
     inkscape:cx="1250"
     inkscape:cy="1843.4495"
     inkscape:window-width="1080"
     inkscape:window-height="1849"
     inkscape:window-x="-8"
     inkscape:window-y="-8"
     inkscape:window-maximized="1"
     inkscape:current-layer="svg175" />
  <path
     d="M0,0 L18,1 L22,2 L22,5 L11,7 L25,36 L37,65 L43,84 L45,85 L45,89 L54,95 L63,106 L74,124 L82,142 L96,183 L102,207 L107,232 L110,244 L115,279 L117,295 L118,313 L119,320 L120,365 L119,408 L118,429 L115,463 L113,478 L111,498 L107,531 L104,550 L102,568 L98,593 L96,609 L92,632 L90,649 L82,693 L81,703 L69,766 L57,824 L42,898 L22,992 L18,1007 L6,1064 L2,1088 L-4,1115 L-8,1131 L-9,1140 L-13,1163 L-16,1184 L-20,1206 L-28,1260 L-32,1277 L-37,1294 L-43,1311 L-48,1323 L-54,1334 L-60,1342 L-68,1349 L-72,1351 L-75,1351 L-74,1361 L-74,1382 L-78,1403 L-79,1411 L-86,1412 L-96,1411 L-106,1408 L-137,1404 L-147,1402 L-173,1400 L-196,1399 L-198,1398 L-217,1397 L-217,1399 L-221,1398 L-222,1384 L-221,1370 L-218,1354 L-217,1340 L-222,1336 L-230,1326 L-239,1313 L-244,1303 L-249,1291 L-252,1284 L-256,1263 L-258,1249 L-257,1218 L-254,1174 L-253,1134 L-253,1112 L-251,1081 L-248,1055 L-246,1045 L-244,1033 L-241,1020 L-238,1001 L-235,986 L-231,957 L-229,947 L-224,901 L-221,862 L-218,802 L-217,751 L-217,640 L-218,580 L-219,549 L-220,476 L-220,458 L-219,437 L-218,406 L-216,386 L-221,403 L-229,429 L-236,455 L-242,475 L-246,493 L-252,518 L-257,541 L-263,567 L-271,599 L-272,607 L-276,622 L-279,638 L-282,651 L-285,668 L-288,683 L-291,702 L-294,717 L-296,733 L-300,757 L-302,773 L-306,799 L-308,819 L-314,862 L-317,891 L-326,962 L-329,981 L-335,1029 L-338,1049 L-342,1079 L-345,1095 L-347,1114 L-349,1131 L-351,1143 L-354,1160 L-356,1169 L-358,1180 L-365,1203 L-373,1223 L-379,1239 L-383,1247 L-387,1257 L-390,1261 L-395,1273 L-399,1281 L-401,1281 L-403,1287 L-413,1306 L-424,1323 L-435,1335 L-440,1340 L-447,1345 L-456,1349 L-461,1351 L-462,1375 L-466,1396 L-473,1417 L-476,1425 L-504,1424 L-542,1420 L-568,1417 L-584,1414 L-605,1411 L-613,1410 L-621,1407 L-633,1401 L-635,1387 L-636,1383 L-635,1381 L-633,1365 L-625,1335 L-622,1327 L-623,1318 L-624,1297 L-624,1236 L-619,1198 L-614,1167 L-610,1147 L-600,1084 L-597,1064 L-595,1055 L-585,975 L-578,911 L-577,896 L-572,857 L-572,835 L-571,800 L-570,751 L-569,719 L-567,687 L-565,665 L-564,649 L-562,626 L-558,582 L-555,559 L-553,539 L-549,512 L-547,493 L-543,467 L-541,448 L-536,416 L-534,397 L-529,367 L-527,350 L-520,312 L-515,286 L-509,259 L-504,242 L-502,232 L-493,204 L-488,187 L-479,165 L-475,155 L-468,144 L-463,138 L-463,125 L-461,112 L-457,101 L-459,97 L-461,93 L-461,88 L-459,88 L-458,84 L-425,74 L-397,68 L-396,67 L-376,64 L-290,47 L-271,44 L-208,32 L-177,27 L-108,16 L-97,15 L-55,8 L-28,4 Z "
     fill="#151617"
     transform="translate(1498,1756)"
     id="path1" />
  <path
     d="M0,0 L4,0 L10,7 L9,11 L13,10 L17,14 L17,18 L21,15 L31,16 L34,19 L34,21 L36,21 L37,23 L48,26 L54,34 L56,35 L56,37 L61,39 L68,45 L73,47 L75,50 L75,55 L78,55 L79,59 L82,58 L86,62 L91,65 L95,69 L95,71 L98,71 L99,73 L102,74 L103,76 L106,77 L106,79 L113,81 L114,84 L118,84 L121,90 L123,91 L124,94 L128,95 L133,100 L136,103 L140,104 L141,107 L144,109 L146,114 L150,115 L154,121 L157,125 L157,128 L162,129 L165,132 L165,136 L169,137 L175,143 L175,145 L178,146 L185,154 L185,157 L189,158 L193,162 L193,165 L198,166 L201,169 L202,176 L206,177 L212,182 L217,185 L217,190 L222,189 L224,193 L226,194 L226,198 L231,198 L234,201 L234,203 L239,204 L241,205 L241,207 L247,209 L247,213 L249,213 L248,227 L241,251 L239,262 L236,273 L233,288 L229,303 L226,317 L224,325 L222,340 L218,355 L216,369 L214,378 L212,393 L207,419 L205,435 L202,459 L198,483 L196,503 L190,545 L187,567 L186,586 L183,607 L182,623 L179,649 L176,664 L173,689 L172,690 L164,751 L162,758 L153,762 L144,768 L137,772 L134,777 L127,780 L124,780 L124,782 L117,786 L115,786 L115,788 L109,791 L99,797 L94,800 L84,807 L68,815 L59,821 L53,824 L49,829 L42,832 L37,835 L32,840 L22,846 L19,849 L10,854 L4,857 L-1,860 L-5,862 L-9,866 L-12,868 L-15,868 L-17,872 L-20,874 L-29,876 L-29,878 L-35,880 L-41,884 L-44,884 L-46,888 L-54,894 L-63,899 L-68,902 L-70,905 L-75,908 L-82,911 L-84,913 L-87,913 L-87,915 L-102,924 L-103,924 L-103,908 L-100,892 L-98,892 L-98,885 L-90,837 L-84,798 L-77,751 L-76,750 L-74,728 L-72,728 L-71,711 L-65,658 L-62,615 L-58,568 L-57,532 L-56,522 L-55,498 L-54,488 L-53,464 L-52,456 L-51,430 L-50,420 L-49,396 L-47,380 L-46,356 L-43,330 L-41,303 L-39,280 L-37,257 L-32,224 L-31,208 L-27,184 L-25,164 L-20,133 L-18,111 L-15,96 L-13,75 L-8,44 L-6,28 L-1,4 Z "
     fill="#9CA5A9"
     transform="translate(987,2064)"
     id="path2" />
  <path
     d="M0,0 L1,0 L1,30 L0,59 L-4,111 L-7,131 L-9,151 L-12,171 L-15,197 L-18,223 L-21,243 L-23,263 L-27,289 L-29,308 L-36,350 L-37,364 L-41,379 L-55,444 L-58,458 L-59,467 L-61,473 L-65,492 L-68,508 L-75,538 L-80,562 L-82,575 L-84,575 L-85,585 L-96,636 L-111,707 L-118,739 L-122,759 L-124,768 L-127,783 L-129,798 L-132,810 L-135,836 L-140,867 L-145,867 L-146,868 L-154,868 L-160,860 L-164,856 L-168,855 L-168,852 L-173,851 L-179,848 L-181,843 L-188,839 L-191,838 L-192,836 L-198,834 L-198,831 L-202,831 L-202,827 L-210,826 L-210,823 L-215,822 L-218,819 L-218,816 L-222,815 L-236,808 L-250,796 L-251,793 L-256,791 L-260,787 L-263,786 L-263,784 L-268,782 L-275,773 L-283,769 L-288,763 L-293,758 L-298,755 L-303,750 L-308,747 L-310,743 L-314,743 L-321,734 L-323,728 L-326,726 L-333,724 L-335,718 L-340,714 L-344,713 L-344,708 L-350,707 L-350,698 L-346,672 L-343,660 L-340,639 L-337,625 L-334,602 L-331,586 L-326,541 L-322,482 L-321,460 L-320,416 L-320,264 L-321,191 L-318,191 L-318,187 L-310,184 L-309,181 L-301,178 L-298,174 L-290,171 L-286,170 L-286,168 L-282,167 L-280,163 L-277,161 L-273,161 L-273,159 L-266,157 L-264,156 L-263,153 L-254,149 L-250,146 L-246,145 L-245,142 L-240,140 L-236,140 L-235,136 L-228,134 L-225,131 L-220,129 L-217,129 L-216,125 L-209,124 L-209,121 L-204,119 L-200,119 L-199,115 L-191,111 L-186,108 L-182,107 L-179,104 L-173,102 L-171,98 L-158,92 L-154,92 L-154,88 L-149,86 L-145,86 L-144,83 L-136,80 L-133,77 L-131,77 L-131,75 L-127,75 L-127,73 L-118,70 L-117,68 L-111,67 L-111,65 L-106,61 L-99,58 L-97,55 L-94,55 L-94,53 L-90,53 L-90,51 L-83,49 L-80,48 L-80,45 L-71,40 L-66,37 L-62,37 L-60,33 L-53,32 L-51,28 L-47,26 L-43,26 L-43,24 L-34,22 L-33,19 L-24,15 L-23,13 L-20,13 L-19,10 L-15,10 L-14,7 L-6,4 L-5,2 Z "
     fill="#9CA5A9"
     transform="translate(1608,2115)"
     id="path3" />
  <path
     d="M0,0 L1,0 L1,8 L-4,39 L-6,59 L-8,69 L-10,85 L-15,109 L-22,133 L-28,152 L-30,152 L-32,162 L-36,172 L-42,185 L-47,195 L-49,201 L-51,201 L-54,210 L-62,226 L-63,228 L-65,228 L-68,237 L-70,237 L-72,242 L-81,257 L-83,257 L-85,262 L-96,273 L-112,283 L-117,285 L-125,284 L-139,282 L-152,279 L-158,278 L-158,276 L-167,275 L-182,273 L-191,270 L-212,266 L-224,264 L-230,262 L-240,260 L-258,258 L-269,256 L-269,222 L-267,188 L-266,160 L-265,160 L-264,167 L-251,159 L-249,159 L-249,157 L-242,153 L-236,150 L-232,148 L-228,144 L-220,139 L-215,136 L-207,130 L-206,128 L-197,123 L-196,122 L-191,122 L-191,120 L-188,118 L-181,116 L-177,112 L-169,108 L-166,104 L-159,101 L-157,99 L-150,96 L-143,92 L-141,92 L-139,88 L-128,82 L-124,77 L-117,73 L-112,71 L-107,66 L-97,60 L-88,55 L-73,47 L-68,43 L-63,40 L-53,34 L-47,32 L-47,30 L-40,26 L-38,26 L-38,24 L-31,21 L-28,21 L-26,16 L-21,12 L-10,6 L-8,4 L-3,2 L0,2 Z "
     fill="#1E1F20"
     transform="translate(1149,2820)"
     id="path4" />
  <path
     d="M0,0 L1,4 L-2,25 L4,26 L4,31 L9,32 L14,36 L15,42 L22,43 L26,46 L30,55 L34,59 L34,61 L38,61 L42,66 L46,68 L50,72 L55,75 L58,78 L58,80 L62,82 L66,87 L74,91 L81,100 L85,102 L85,104 L90,105 L95,110 L100,115 L113,126 L126,132 L130,134 L133,139 L138,141 L138,144 L146,145 L146,149 L150,149 L151,152 L157,154 L157,156 L163,157 L168,161 L170,166 L175,168 L180,170 L180,173 L185,174 L192,181 L194,186 L202,185 L204,184 L208,185 L203,214 L197,242 L191,263 L187,273 L182,285 L173,299 L167,305 L145,302 L78,302 L45,299 L26,297 L26,294 L24,294 L24,296 L20,294 L19,291 L17,291 L8,278 L8,275 L6,275 L-5,251 L-11,230 L-12,223 L-12,175 L-9,143 L-8,127 L-7,64 L-6,44 L-5,39 L-4,20 L-1,2 Z "
     fill="#1D1F20"
     transform="translate(1260,2797)"
     id="path5" />
  <path
     d="M0,0 L4,5 L13,14 L20,23 L28,32 L28,34 L24,32 L12,21 L6,15 L4,36 L1,48 L9,47 L9,48 L36,49 L36,50 L1,51 L-6,62 L-15,83 L-18,91 L-24,109 L-28,122 L-33,141 L-41,169 L-46,194 L-49,206 L-51,216 L-58,254 L-61,278 L-65,302 L-66,317 L-69,332 L-71,354 L-76,385 L-79,411 L-82,429 L-83,445 L-89,485 L-91,516 L-93,533 L-95,560 L-97,577 L-98,601 L-100,617 L-101,641 L-102,651 L-103,677 L-104,685 L-105,709 L-106,719 L-107,743 L-108,753 L-109,789 L-114,847 L-116,879 L-124,949 L-126,949 L-126,964 L-127,971 L-128,972 L-138,1038 L-150,1113 L-152,1113 L-153,1124 L-155,1137 L-156,1165 L-158,1199 L-159,1233 L-148,1234 L-130,1236 L-114,1240 L-90,1244 L-78,1247 L-67,1250 L-54,1252 L-48,1253 L-48,1255 L-38,1256 L-24,1259 L-12,1261 L-4,1260 L8,1253 L17,1246 L24,1239 L27,1234 L29,1234 L31,1229 L40,1214 L42,1214 L43,1209 L45,1205 L47,1205 L50,1196 L58,1180 L59,1178 L61,1178 L63,1171 L69,1157 L74,1147 L77,1139 L80,1129 L82,1129 L84,1120 L92,1094 L100,1057 L102,1042 L104,1030 L106,1010 L110,985 L112,965 L119,911 L120,910 L123,885 L126,870 L129,844 L131,821 L133,807 L134,788 L141,739 L144,718 L146,698 L150,675 L152,656 L156,629 L160,609 L162,595 L164,586 L166,572 L170,555 L172,542 L175,531 L178,516 L182,501 L185,487 L187,480 L189,469 L197,441 L200,427 L205,406 L212,381 L222,349 L226,336 L231,320 L236,307 L240,294 L244,284 L246,288 L247,289 L245,356 L245,373 L246,428 L247,444 L249,517 L250,536 L250,688 L249,732 L247,772 L244,813 L239,858 L235,882 L231,908 L228,924 L225,941 L220,962 L218,974 L217,993 L216,998 L215,1018 L214,1081 L211,1117 L210,1129 L210,1177 L213,1192 L218,1207 L227,1226 L227,1229 L229,1229 L234,1238 L238,1243 L238,1245 L240,1245 L245,1250 L245,1248 L247,1248 L247,1251 L258,1251 L287,1254 L299,1255 L366,1255 L380,1257 L384,1260 L297,1260 L265,1256 L253,1254 L247,1252 L248,1255 L245,1286 L243,1301 L240,1309 L238,1310 L237,1297 L238,1283 L241,1267 L242,1253 L237,1249 L229,1239 L220,1226 L215,1216 L210,1204 L207,1197 L203,1176 L201,1162 L202,1131 L205,1087 L206,1047 L206,1025 L208,994 L211,968 L213,958 L215,946 L218,933 L221,914 L224,899 L228,870 L230,860 L235,814 L238,775 L241,715 L242,664 L242,553 L241,493 L240,462 L239,389 L239,371 L240,350 L241,319 L243,299 L238,316 L230,342 L223,368 L217,388 L213,406 L207,431 L202,454 L196,480 L188,512 L187,520 L183,535 L180,551 L177,564 L174,581 L171,596 L168,615 L165,630 L163,646 L159,670 L157,686 L153,712 L151,732 L145,775 L142,804 L133,875 L130,894 L124,942 L121,962 L117,992 L114,1008 L112,1027 L110,1044 L108,1056 L105,1073 L103,1082 L101,1093 L94,1116 L86,1136 L80,1152 L76,1160 L72,1170 L69,1174 L64,1186 L60,1194 L58,1194 L56,1200 L46,1219 L35,1236 L24,1248 L19,1253 L12,1258 L3,1262 L-2,1264 L-3,1288 L-7,1309 L-14,1330 L-17,1338 L-45,1337 L-83,1333 L-109,1330 L-125,1327 L-146,1324 L-154,1323 L-162,1320 L-174,1314 L-176,1300 L-177,1296 L-176,1294 L-174,1278 L-166,1248 L-163,1240 L-164,1231 L-165,1210 L-165,1149 L-160,1111 L-155,1080 L-151,1060 L-141,997 L-138,977 L-136,968 L-126,888 L-119,824 L-118,809 L-113,770 L-113,748 L-112,713 L-111,664 L-110,632 L-108,600 L-106,578 L-105,562 L-103,539 L-99,495 L-96,472 L-94,452 L-90,425 L-88,406 L-84,380 L-82,361 L-77,329 L-75,310 L-70,280 L-68,263 L-61,225 L-56,199 L-50,172 L-45,155 L-43,145 L-34,117 L-29,100 L-20,78 L-16,68 L-9,57 L-4,51 L-4,38 L-2,25 L2,14 L0,10 L-2,6 L-2,1 Z "
     fill="#030303"
     transform="translate(1039,1843)"
     id="path6" />
  <path
     d="M0,0 L8,1 L18,3 L41,9 L50,11 L56,12 L56,14 L75,16 L79,18 L94,20 L104,23 L115,24 L118,25 L147,27 L147,40 L146,41 L141,71 L138,86 L136,94 L135,96 L125,95 L122,93 L110,91 L96,90 L84,88 L54,86 L47,84 L31,83 L15,80 L-3,78 L-13,76 L-14,75 L-13,63 L-6,19 L-5,11 L-2,4 L4,9 L4,11 L7,11 L0,2 Z "
     fill="#212121"
     transform="translate(884,3080)"
     id="path7" />
  <path
     d="M0,0 L8,1 L18,3 L19,7 L14,30 L9,53 L3,74 L2,77 L-3,78 L-13,76 L-14,75 L-13,63 L-6,19 L-5,11 L-2,4 L4,9 L4,11 L7,11 L0,2 Z "
     fill="#292929"
     transform="translate(884,3080)"
     id="path8" />
  <path
     d="M0,0 L4,1 L4,4 L7,5 L7,7 L12,9 L14,10 L14,12 L16,12 L21,17 L31,22 L31,25 L34,25 L35,29 L39,30 L43,37 L46,38 L46,41 L50,41 L50,44 L56,45 L59,48 L59,50 L63,48 L66,48 L66,51 L68,51 L69,54 L75,57 L75,59 L78,60 L78,64 L84,66 L90,69 L89,75 L92,77 L92,75 L97,77 L99,78 L99,80 L97,81 L99,86 L101,86 L101,88 L104,89 L107,94 L111,99 L119,106 L129,113 L135,117 L135,120 L138,121 L138,124 L136,124 L139,128 L144,131 L150,136 L153,141 L155,142 L158,149 L161,152 L164,150 L169,151 L173,155 L173,158 L176,159 L176,162 L181,162 L183,166 L185,167 L185,170 L189,170 L191,174 L193,175 L193,177 L198,178 L203,183 L202,194 L200,197 L201,187 L199,187 L199,183 L195,182 L193,181 L193,179 L186,177 L186,175 L183,174 L183,172 L178,172 L178,168 L174,166 L174,163 L169,164 L168,159 L160,154 L157,151 L154,150 L151,142 L145,139 L142,134 L137,131 L134,126 L129,120 L124,115 L120,111 L117,110 L115,105 L113,103 L109,102 L106,96 L102,91 L102,89 L97,88 L95,83 L92,81 L92,78 L87,77 L80,71 L80,69 L75,68 L75,65 L72,64 L70,61 L70,58 L66,58 L65,56 L58,53 L58,51 L54,50 L54,48 L50,47 L50,45 L47,45 L41,38 L37,36 L34,33 L31,33 L30,29 L27,29 L25,21 L20,20 L10,12 L8,11 L8,9 L5,8 Z "
     fill="#3A3E40"
     transform="translate(1035,2090)"
     id="path9" />
  <path
     d="M0,0 L2,1 L-1,3 L-4,3 L-5,6 L-13,9 L-14,11 L-18,12 L-19,14 L-22,14 L-24,18 L-32,20 L-33,24 L-42,25 L-42,27 L-50,30 L-52,33 L-60,36 L-61,38 L-69,41 L-74,44 L-79,46 L-79,49 L-84,52 L-89,52 L-89,54 L-93,54 L-93,56 L-96,56 L-98,60 L-105,63 L-107,63 L-108,66 L-110,66 L-110,68 L-116,69 L-117,72 L-121,74 L-126,74 L-126,76 L-130,76 L-130,78 L-134,79 L-135,82 L-143,85 L-144,87 L-148,86 L-143,81 L-136,78 L-131,75 L-127,75 L-126,71 L-121,69 L-118,69 L-117,66 L-112,65 L-112,63 L-108,61 L-101,57 L-97,54 L-88,49 L-81,48 L-80,44 L-72,40 L-70,38 L-63,37 L-61,33 L-56,32 L-56,30 L-44,24 L-42,22 L-38,22 L-37,20 L-35,19 L-34,17 L-29,15 L-25,13 L-24,11 L-15,10 L-15,6 L-10,4 L-6,4 L-5,1 Z M-37,19 Z "
     fill="#2D2F30"
     transform="translate(1607,2114)"
     id="path10" />
  <path
     d="M0,0 L2,1 L0,4 L-7,7 L-10,7 L-10,9 L-17,13 L-19,13 L-19,15 L-25,18 L-35,24 L-40,27 L-50,34 L-66,42 L-75,48 L-81,51 L-85,56 L-92,59 L-97,62 L-102,67 L-112,73 L-115,76 L-124,81 L-130,84 L-135,87 L-139,89 L-143,93 L-146,95 L-149,95 L-151,99 L-154,101 L-158,100 L-151,96 L-146,91 L-139,86 L-131,82 L-130,80 L-121,75 L-120,74 L-115,74 L-115,72 L-108,68 L-104,64 L-101,61 L-93,57 L-92,55 L-87,53 L-83,52 L-82,49 L-74,45 L-73,43 L-64,38 L-58,35 L-54,33 L-54,31 L-46,27 L-45,25 L-36,20 L-27,15 L-16,9 L-11,6 L-9,6 L-9,4 Z "
     fill="#737A7D"
     transform="translate(1121,2837)"
     id="path11" />
  <path
     d="M0,0 L8,4 L11,9 L20,17 L25,19 L28,23 L32,24 L32,27 L37,29 L41,33 L43,37 L49,40 L51,44 L56,46 L59,48 L62,53 L68,56 L68,59 L72,60 L72,62 L76,64 L81,67 L90,74 L91,78 L97,79 L98,81 L93,80 L85,76 L71,64 L70,61 L65,59 L61,55 L58,54 L58,52 L53,50 L46,41 L38,37 L33,31 L28,26 L23,23 L18,18 L13,15 L11,11 L7,11 L0,2 Z "
     fill="#555A5C"
     transform="translate(1287,2847)"
     id="path12" />
  <path
     d="M0,0 L4,1 L7,3 L7,5 L9,5 L9,8 L18,9 L21,12 L31,15 L31,19 L33,19 L33,21 L38,22 L42,25 L43,28 L47,29 L47,32 L52,32 L57,37 L58,40 L61,41 L61,44 L65,45 L66,48 L68,49 L68,47 L70,47 L70,45 L79,44 L78,50 L73,50 L72,51 L64,51 L58,43 L54,39 L50,38 L50,35 L45,34 L39,31 L37,26 L30,22 L27,21 L26,19 L20,17 L20,14 L16,14 L16,10 L8,9 L8,6 L3,5 L0,2 Z "
     fill="#82898C"
     transform="translate(1390,2932)"
     id="path13" />
  <path
     d="M0,0 L5,0 L4,2 L0,2 L0,6 L-9,9 L-17,13 L-19,17 L-27,19 L-28,22 L-36,25 L-41,28 L-45,30 L-46,33 L-55,35 L-55,38 L-62,39 L-63,43 L-73,46 L-74,49 L-81,51 L-82,54 L-87,56 L-91,56 L-92,60 L-99,63 L-101,65 L-109,67 L-110,71 L-113,73 L-117,72 L-113,69 L-111,69 L-109,65 L-102,61 L-93,56 L-92,54 L-84,53 L-82,49 L-77,48 L-76,46 L-73,43 L-66,42 L-65,39 L-57,35 L-54,32 L-47,31 L-46,27 L-41,26 L-40,24 L-32,20 L-29,20 L-28,17 L-24,15 L-20,15 L-18,11 L-11,8 L-8,5 L-2,3 Z "
     fill="#393D3F"
     transform="translate(1454,2201)"
     id="path14" />
  <path
     d="M0,0 L2,1 L-4,9 L-16,16 L-21,19 L-28,24 L-35,28 L-41,32 L-50,36 L-57,40 L-59,40 L-59,42 L-67,46 L-69,49 L-77,52 L-75,48 L-63,41 L-61,41 L-61,39 L-54,35 L-48,32 L-44,30 L-40,26 L-32,21 L-27,18 L-19,12 L-18,10 L-9,5 L-8,4 L-3,4 L-3,2 Z "
     fill="#373A3B"
     transform="translate(961,2938)"
     id="path15" />
  <path
     d="M0,0 L2,0 L2,2 L7,2 L8,6 L11,7 L11,10 L16,10 L18,14 L20,15 L20,18 L24,18 L26,22 L28,23 L28,25 L33,26 L38,31 L37,42 L35,45 L36,35 L34,35 L34,31 L30,30 L28,29 L28,27 L21,25 L21,23 L18,22 L18,20 L13,20 L13,16 L9,14 L9,11 L4,12 L3,7 L-4,3 Z "
     fill="#393D3E"
     transform="translate(1200,2242)"
     id="path16" />
  <path
     d="M0,0 L6,5 L5,9 L9,8 L13,12 L13,16 L17,13 L27,14 L30,17 L30,19 L32,19 L33,21 L44,24 L47,29 L45,31 L41,30 L40,28 L34,28 L36,24 L30,26 L29,27 L24,27 L25,25 L28,24 L28,22 L25,21 L22,18 L22,20 L24,21 L18,22 L19,16 L17,16 L15,18 L10,18 L8,14 L4,13 L2,4 L-1,3 Z "
     fill="#7D8487"
     transform="translate(991,2066)"
     id="path17" />
  <path
     d="M0,0 L3,0 L3,3 L5,3 L6,6 L12,9 L12,11 L15,12 L15,16 L21,18 L27,21 L26,27 L29,29 L29,27 L34,29 L36,30 L36,32 L34,33 L30,34 L29,30 L24,29 L17,23 L17,21 L12,20 L12,17 L9,16 L6,9 L4,8 L4,5 L0,5 L0,3 L-3,2 Z "
     fill="#2F3132"
     transform="translate(1098,2138)"
     id="path18" />
  <path
     d="M0,0 L1,4 L-2,25 L4,26 L4,31 L9,32 L14,36 L15,42 L22,43 L26,46 L27,50 L24,50 L24,48 L18,46 L16,44 L9,42 L-3,27 L-3,14 L-1,2 Z "
     fill="#565B5D"
     transform="translate(1260,2797)"
     id="path19" />
  <path
     d="M0,0 L2,0 L2,2 L-7,6 L-16,12 L-20,17 L-25,19 L-29,23 L-36,25 L-36,27 L-39,27 L-40,30 L-45,31 L-47,35 L-53,36 L-54,39 L-61,43 L-64,42 L-57,38 L-55,38 L-53,34 L-42,28 L-38,23 L-31,19 L-26,17 L-21,12 L-11,6 L-2,1 Z "
     fill="#404446"
     transform="translate(1063,2874)"
     id="path20" />
  <path
     d="M0,0 L7,2 L10,0 L13,0 L13,3 L16,3 L18,9 L21,10 L22,12 L26,10 L30,10 L30,12 L32,12 L32,17 L21,15 L20,12 L18,12 L15,8 L5,7 L0,10 L0,5 L-3,1 Z "
     fill="#353839"
     transform="translate(1003,2073)"
     id="path21" />
  <path
     d="M0,0 L2,1 L-3,5 L-9,6 L-10,9 L-12,9 L-12,11 L-18,12 L-19,15 L-23,17 L-28,17 L-28,19 L-32,19 L-32,21 L-36,22 L-37,25 L-45,28 L-46,30 L-50,29 L-45,24 L-38,21 L-33,18 L-29,18 L-28,14 L-23,12 L-20,12 L-19,9 L-14,8 L-14,6 L-10,4 Z "
     fill="#393C3D"
     transform="translate(1509,2171)"
     id="path22" />
  <path
     d="M0,0 L2,0 L4,5 L14,8 L21,15 L24,16 L24,19 L28,20 L29,23 L31,24 L31,22 L33,22 L33,20 L42,19 L41,25 L36,25 L35,26 L27,26 L21,18 L17,14 L13,13 L13,10 L8,9 L2,6 Z "
     fill="#767D80"
     transform="translate(1427,2957)"
     id="path23" />
  <path
     d="M0,0 L5,1 L5,4 L13,5 L13,9 L17,9 L18,12 L24,14 L24,16 L30,17 L35,21 L36,26 L33,25 L31,22 L18,17 L7,7 L4,5 L4,3 L0,2 Z "
     fill="#424648"
     transform="translate(1393,2937)"
     id="path24" />
  <path
     d="M0,0 L8,4 L11,9 L20,17 L25,19 L28,23 L32,24 L32,27 L37,29 L39,33 L35,31 L31,30 L26,24 L20,21 L18,18 L13,15 L11,11 L7,11 L0,2 Z "
     fill="#646A6D"
     transform="translate(1287,2847)"
     id="path25" />
  <path
     d="M0,0 L1,0 L1,8 L-2,29 L-3,45 L-6,71 L-9,86 L-10,86 L-8,60 L-6,50 L-2,12 Z "
     fill="#54595B"
     transform="translate(1172,2642)"
     id="path26" />
  <path
     d="M0,0 L6,0 L2,2 L-2,4 L-3,6 L-11,9 L-16,12 L-21,14 L-21,17 L-26,20 L-31,20 L-31,22 L-35,22 L-35,24 L-44,28 L-46,27 L-42,25 L-39,22 L-30,17 L-23,16 L-22,12 L-14,8 L-12,6 L-5,5 L-3,1 Z "
     fill="#333537"
     transform="translate(1549,2146)"
     id="path27" />
  <path
     d="M0,0 L6,1 L10,6 L15,9 L18,12 L18,14 L22,16 L27,22 L20,20 L20,18 L17,17 L17,15 L12,15 L12,11 L8,9 L8,6 L3,7 L2,2 Z "
     fill="#6F7578"
     transform="translate(1201,2247)"
     id="path28" />
  <path
     d="M0,0 L2,0 L1,4 L-7,6 L-7,10 L-10,10 L-9,26 L-9,64 L-10,64 L-11,32 L-11,8 L-10,5 L-8,5 L-8,3 Z "
     fill="#606568"
     transform="translate(1297,2296)"
     id="path29" />
  <path
     d="M0,0 L2,1 L-3,6 L-12,11 L-18,14 L-22,16 L-23,19 L-28,22 L-36,26 L-37,28 L-43,29 L-40,26 L-32,21 L-27,18 L-19,12 L-18,10 L-9,5 L-8,4 L-3,4 L-3,2 Z "
     fill="#696F71"
     transform="translate(961,2938)"
     id="path30" />
  <path
     d="M0,0 L2,0 L3,2 L8,4 L10,6 L10,9 L15,10 L15,12 L18,13 L18,15 L22,16 L25,19 L33,23 L33,25 L36,26 L36,28 L40,30 L43,33 L43,35 L39,33 L38,31 L32,29 L29,24 L21,18 L13,13 L12,11 L9,10 L8,7 L2,4 Z "
     fill="#81888B"
     transform="translate(1346,2896)"
     id="path31" />
  <path
     d="M0,0 L4,1 L4,4 L7,5 L7,7 L12,9 L14,10 L14,12 L16,12 L21,17 L31,22 L31,25 L33,25 L33,27 L28,26 L25,23 L25,21 L20,20 L10,12 L8,11 L8,9 L5,8 Z "
     fill="#393C3D"
     transform="translate(1035,2090)"
     id="path32" />
  <path
     d="M0,0 L2,1 L0,4 L-6,6 L-15,14 L-21,16 L-29,23 L-35,25 L-37,26 L-35,22 L-27,18 L-25,15 L-17,11 L-14,7 L-7,4 L-5,2 Z "
     fill="#404446"
     transform="translate(997,2917)"
     id="path33" />
  <path
     d="M0,0 L1,0 L1,16 L-1,48 L-4,69 L-5,69 L-5,58 Z "
     fill="#656B6E"
     transform="translate(929,2632)"
     id="path34" />
  <path
     d="M0,0 L2,1 L0,4 L-7,7 L-10,7 L-10,9 L-17,13 L-19,13 L-19,15 L-25,18 L-35,24 L-40,27 L-42,26 L-34,20 L-26,16 L-23,15 L-22,12 L-11,6 L-9,6 L-9,4 Z "
     fill="#5C6163"
     transform="translate(1121,2837)"
     id="path35" />
  <path
     d="M0,0 L6,2 L12,5 L11,11 L14,13 L14,11 L19,13 L21,14 L21,16 L19,17 L15,18 L14,14 L9,13 L4,9 L5,6 L0,1 Z "
     fill="#2E3132"
     transform="translate(1113,2154)"
     id="path36" />
  <path
     d="M0,0 L7,6 L7,8 L10,9 L17,17 L17,20 L21,21 L25,25 L25,28 L28,29 L23,29 L23,25 L19,25 L18,21 L15,21 L15,17 L11,17 L10,13 L6,12 L6,10 L3,9 L1,3 Z "
     fill="#767D80"
     transform="translate(1155,2201)"
     id="path37" />
  <path
     d="M0,0 L0,3 L-4,4 L-5,7 L-15,13 L-24,19 L-30,21 L-34,20 L-29,18 L-26,18 L-25,14 L-18,13 L-18,10 L-13,8 L-9,8 L-8,4 Z "
     fill="#777E81"
     transform="translate(1417,2226)"
     id="path38" />
  <path
     d="M0,0 L6,4 L8,6 L12,7 L13,10 L16,12 L18,17 L22,18 L23,22 L19,21 L19,19 L15,18 L15,16 L12,16 L10,11 L6,10 L6,8 L4,8 L4,5 L0,3 Z "
     fill="#777D80"
     transform="translate(1115,2161)"
     id="path39" />
  <path
     d="M0,0 L2,3 L2,6 L6,7 L6,9 L10,10 L12,15 L17,18 L20,22 L20,26 L22,27 L17,26 L15,20 L10,16 L6,15 L6,10 L0,9 Z "
     fill="#80878B"
     transform="translate(1258,2813)"
     id="path40" />
  <path
     d="M0,0 L4,1 L7,3 L7,5 L9,5 L9,8 L18,9 L23,15 L28,18 L28,20 L32,21 L30,22 L27,21 L26,19 L20,17 L20,14 L16,14 L16,10 L8,9 L8,6 L3,5 L0,2 Z "
     fill="#676D70"
     transform="translate(1390,2932)"
     id="path41" />
  <path
     d="M0,0 L4,2 L11,8 L24,14 L28,16 L31,22 L25,20 L25,18 L23,18 L23,15 L15,15 L14,13 L10,11 L5,6 Z "
     fill="#424648"
     transform="translate(1362,2915)"
     id="path42" />
  <path
     d="M0,0 L2,1 L-1,3 L-4,3 L-5,6 L-13,9 L-14,11 L-18,12 L-19,14 L-22,14 L-24,18 L-32,20 L-33,24 L-37,23 L-34,22 L-33,19 L-28,18 L-28,16 L-24,16 L-23,13 L-19,10 L-15,10 L-15,6 L-10,4 L-6,4 L-5,1 Z "
     fill="#4E5255"
     transform="translate(1607,2114)"
     id="path43" />
  <path
     d="M0,0 L1,4 L-1,16 L-1,26 L3,27 L5,33 L11,40 L14,43 L9,42 L-3,27 L-3,14 L-1,2 Z "
     fill="#414547"
     transform="translate(1260,2797)"
     id="path44" />
  <path
     d="M0,0 L6,5 L5,9 L9,8 L13,12 L13,16 L17,13 L20,14 L15,18 L10,18 L8,14 L4,13 L2,4 L-1,3 Z "
     fill="#868E91"
     transform="translate(991,2066)"
     id="path45" />
  <path
     d="M0,0 L8,1 L16,2 L16,3 L11,3 L10,10 L7,11 L0,2 Z M6,11 Z "
     fill="#1F1F1F"
     transform="translate(884,3080)"
     id="path46" />
  <path
     d="M0,0 L6,2 L11,4 L11,7 L16,8 L23,15 L25,20 L30,20 L30,21 L23,21 L19,14 L10,8 L10,6 L6,6 L5,4 L0,2 Z "
     fill="#393C3E"
     transform="translate(1429,2963)"
     id="path47" />
  <path
     d="M0,0 L1,3 L-5,8 L-7,8 L-13,13 L-21,14 L-21,16 L-27,18 L-27,15 L-22,13 L-18,13 L-17,10 L-9,7 L-6,4 L-4,4 L-4,2 L0,2 Z "
     fill="#7E8588"
     transform="translate(1481,2188)"
     id="path48" />
  <path
     d="M0,0 L2,1 L0,5 L-7,8 L-10,9 L-10,11 L-15,13 L-17,12 L-18,15 L-22,17 L-26,16 L-19,13 L-18,10 L-13,8 L-9,8 L-8,4 L-1,2 Z "
     fill="#838B8E"
     transform="translate(1381,2247)"
     id="path49" />
  <path
     d="M0,0 L7,1 L10,4 L8,9 L5,8 L2,5 L2,7 L4,8 L-2,9 L-1,3 Z "
     fill="#798082"
     transform="translate(1011,2079)"
     id="path50" />
  <path
     d="M0,0 L2,1 L-3,5 L-10,9 L-12,9 L-12,11 L-20,15 L-22,18 L-30,21 L-28,17 L-16,10 L-14,10 L-14,8 L-7,4 L-1,1 Z "
     fill="#5E6366"
     transform="translate(914,2969)"
     id="path51" />
  <path
     d="M0,0 L6,2 L7,0 L8,4 L12,5 L15,9 L15,12 L10,11 L7,8 L4,8 L3,4 L0,4 Z "
     fill="#3B3E40"
     transform="translate(1062,2115)"
     id="path52" />
  <path
     d="M0,0 L2,1 L0,4 L-4,4 L-4,6 L-12,10 L-17,12 L-19,15 L-26,17 L-25,14 L-20,13 L-20,11 L-15,8 L-11,8 L-10,5 L-7,5 L-7,3 L0,2 Z "
     fill="#3A3D3F"
     transform="translate(1326,2279)"
     id="path53" />
  <path
     d="M0,0 L4,2 L8,4 L17,6 L22,10 L23,15 L20,14 L18,11 L5,6 Z "
     fill="#343739"
     transform="translate(1406,2948)"
     id="path54" />
  <path
     d="M0,0 L4,2 L8,3 L10,7 L16,10 L20,16 L22,17 L22,20 L25,21 L23,22 L18,17 L13,11 L5,7 L0,1 Z "
     fill="#5E6366"
     transform="translate(1320,2877)"
     id="path55" />
  <path
     d="M0,0 L3,1 L-4,5 L-8,10 L-15,13 L-28,21 L-30,20 L-25,17 L-24,15 L-16,11 L-15,9 L-10,7 L-6,6 L-5,3 Z "
     fill="#7F8689"
     transform="translate(1044,2883)"
     id="path56" />
  <path
     d="M0,0 L4,2 L10,5 L10,7 L13,7 L19,15 L19,18 L15,16 L11,11 L5,7 L0,2 Z "
     fill="#3A3D3F"
     transform="translate(1274,2840)"
     id="path57" />
  <path
     d="M0,0 L2,1 L-3,5 L-9,6 L-10,9 L-12,9 L-12,11 L-18,12 L-19,15 L-23,17 L-27,16 L-21,13 L-19,13 L-18,10 L-14,9 L-13,7 L-11,7 L-9,3 Z "
     fill="#565B5D"
     transform="translate(1509,2171)"
     id="path58" />
  <path
     d="M0,0 L4,2 L9,5 L18,12 L19,16 L25,17 L26,19 L21,18 L13,14 L10,9 L6,5 L1,2 Z "
     fill="#616769"
     transform="translate(1359,2909)"
     id="path59" />
  <path
     d="M0,0 L2,0 L2,2 L-1,2 L-2,6 L-3,4 L-5,4 L-6,7 L-10,9 L-12,11 L-20,16 L-24,16 L-24,14 L-16,11 L-15,8 L-7,5 L-4,1 Z "
     fill="#7D8588"
     transform="translate(1314,2288)"
     id="path60" />
  <path
     d="M0,0 L1,4 L-1,6 L-7,8 L-21,15 L-23,14 L-16,9 L-9,5 L-3,2 L0,2 Z "
     fill="#515658"
     transform="translate(1149,2820)"
     id="path61" />
  <path
     d="M0,0 L4,2 L8,6 L12,10 L12,14 L8,15 L7,10 L3,6 L3,4 L-1,4 L-2,8 L-2,3 L0,3 Z "
     fill="#3E4143"
     transform="translate(988,2060)"
     id="path62" />
  <path
     d="M0,0 L4,0 L8,5 L12,7 L16,11 L21,14 L23,17 L17,15 L10,10 L6,6 L0,1 Z "
     fill="#393C3E"
     transform="translate(1294,2858)"
     id="path63" />
  <path
     d="M0,0 L1,3 L-4,5 L-5,7 L-12,10 L-14,10 L-15,13 L-15,11 L-17,11 L-18,13 L-18,10 L-9,5 L-4,2 L0,2 Z "
     fill="#696F72"
     transform="translate(1546,2150)"
     id="path64" />
  <path
     d="M0,0 L7,6 L9,7 L9,9 L14,10 L19,15 L21,16 L20,18 L11,12 L3,7 L2,3 L0,3 Z "
     fill="#343738"
     transform="translate(1336,2892)"
     id="path65" />
  <path
     d="M0,0 L1,0 L0,22 L-2,28 L-3,36 L-4,36 L-4,27 Z "
     fill="#4B4F51"
     transform="translate(1177,2604)"
     id="path66" />
  <path
     d="M0,0 L2,1 L-2,5 L-10,9 L-15,12 L-17,15 L-22,18 L-24,17 L-15,9 L-4,3 Z "
     fill="#838A8D"
     transform="translate(934,2954)"
     id="path67" />
  <path
     d="M0,0 L2,0 L2,2 L-7,6 L-16,12 L-17,14 L-24,15 L-20,11 L-12,7 L-5,2 Z "
     fill="#54585B"
     transform="translate(1063,2874)"
     id="path68" />
  <path
     d="M0,0 L4,2 L14,7 L14,10 L16,10 L16,12 L11,11 L8,8 L8,6 L3,5 Z "
     fill="#35383A"
     transform="translate(1052,2105)"
     id="path69" />
  <path
     d="M0,0 L3,0 L1,4 L-8,7 L-9,11 L-12,13 L-16,12 L-12,9 L-10,9 L-8,5 L-1,1 Z "
     fill="#36393B"
     transform="translate(1353,2261)"
     id="path70" />
  <path
     d="M0,0 L4,1 L2,1 L9,10 L9,12 L6,12 L1,6 L0,6 L-1,11 L-2,11 L-1,2 Z "
     fill="#0F0F0F"
     transform="translate(882,3079)"
     id="path71" />
  <path
     d="M0,0 L3,0 L3,2 L-1,2 L-2,6 L-8,9 L-10,8 L-11,11 L-14,10 L-12,9 L-10,5 Z "
     fill="#787F82"
     transform="translate(1447,2208)"
     id="path72" />
  <path
     d="M0,0 L2,0 L1,4 L-4,9 L-13,10 L-9,8 L-7,4 L-4,2 L0,2 Z "
     fill="#889093"
     transform="translate(1335,2274)"
     id="path73" />
  <path
     d="M0,0 L4,0 L4,3 L0,6 L-2,6 L-2,4 L-4,4 L-5,7 L-14,9 L-13,7 L-6,6 L-4,2 Z "
     fill="#747B7E"
     transform="translate(1561,2141)"
     id="path74" />
  <path
     d="M0,0 L2,0 L4,5 L14,8 L20,14 L19,16 L17,14 L13,13 L13,10 L8,9 L2,6 Z "
     fill="#5A5F61"
     transform="translate(1427,2957)"
     id="path75" />
  <path
     d="M0,0 L8,4 L11,9 L13,12 L7,11 L0,2 Z "
     fill="#82898C"
     transform="translate(1287,2847)"
     id="path76" />
  <path
     d="M0,0 L11,7 L17,11 L16,14 L10,11 L9,8 L2,5 L2,3 L0,3 Z "
     fill="#333738"
     transform="translate(1153,2196)"
     id="path77" />
  <path
     d="M0,0 L2,3 L2,6 L6,7 L6,9 L10,10 L11,14 L7,14 L7,10 L0,9 Z "
     fill="#848B8E"
     transform="translate(1258,2813)"
     id="path78" />
  <path
     d="M0,0 L8,6 L13,8 L15,12 L10,10 L9,13 L7,9 L5,8 L5,6 L3,6 L3,4 L0,3 Z "
     fill="#70777A"
     transform="translate(1047,2103)"
     id="path79" />
  <path
     d="M0,0 L2,1 L-2,5 L-6,7 L-10,7 L-10,9 L-16,11 L-13,6 L-5,3 Z "
     fill="#333638"
     transform="translate(1137,2829)"
     id="path80" />
  <path
     d="M0,0 L11,0 L19,1 L18,4 L6,3 L0,1 Z "
     fill="#080909"
     transform="translate(1286,3094)"
     id="path81" />
  <path
     d="M0,0 L4,1 L0,3 L-1,5 L-5,5 L-5,7 L-14,11 L-16,10 L-12,8 L-9,5 Z "
     fill="#2E3132"
     transform="translate(1519,2163)"
     id="path82" />
  <path
     d="M0,0 L6,1 L9,2 L9,4 L13,4 L13,7 L16,8 L12,9 L11,7 L4,4 L4,2 L0,1 Z "
     fill="#4F5355"
     transform="translate(1089,2139)"
     id="path83" />
  <path
     d="M0,0 L4,2 L11,8 L15,10 L16,14 L19,15 L15,15 L14,13 L10,11 L5,6 Z "
     fill="#333638"
     transform="translate(1362,2915)"
     id="path84" />
  <path
     d="M0,0 L2,0 L1,4 L-7,6 L-7,8 L-10,8 L-10,5 L-8,5 L-8,3 Z "
     fill="#424648"
     transform="translate(1297,2296)"
     id="path85" />
  <path
     d="M0,0 L1,2 L-1,2 L-2,5 L-2,3 L-4,3 L-5,6 L-9,7 L-10,10 L-14,9 L-14,11 L-20,12 L-19,10 L-15,10 L-14,7 L-6,4 L-5,2 Z "
     fill="#7B8285"
     transform="translate(1608,2115)"
     id="path86" />
  <path
     d="M0,0 L6,1 L9,6 L7,8 L3,7 L2,2 Z "
     fill="#73797C"
     transform="translate(1029,2089)"
     id="path87" />
  <path
     d="M0,0 L5,2 L5,6 L1,10 L0,7 L-2,3 L-3,1 Z "
     fill="#3C3F41"
     transform="translate(1003,2073)"
     id="path88" />
  <path
     d="M0,0 L2,1 L0,4 L-6,6 L-14,10 L-15,12 L-17,11 L-14,7 L-7,4 L-5,2 Z "
     fill="#4E5254"
     transform="translate(997,2917)"
     id="path89" />
  <path
     d="M0,0 L2,1 L-2,4 L-6,4 L-7,7 L-14,11 L-17,10 L-10,6 L-8,6 L-6,2 Z "
     fill="#333738"
     transform="translate(1016,2906)"
     id="path90" />
  <path
     d="M0,0 L2,1 L-3,5 L-10,9 L-15,12 L-17,11 L-12,7 L-7,4 Z "
     fill="#323537"
     transform="translate(1093,2856)"
     id="path91" />
  <path
     d="M0,0 L3,1 L-1,5 L-5,6 L-12,10 L-14,10 L-14,8 L-10,8 L-10,5 L-3,2 L0,2 Z "
     fill="#8F979A"
     transform="translate(1460,2202)"
     id="path92" />
  <path
     d="M0,0 L1,3 L6,4 L9,7 L9,11 L12,12 L6,12 L6,7 L2,6 L2,4 L0,4 Z "
     fill="#798083"
     transform="translate(1143,2189)"
     id="path93" />
  <path
     d="M0,0 L7,5 L11,9 L11,11 L14,12 L9,11 L5,9 L4,5 L0,3 Z "
     fill="#777E81"
     transform="translate(1071,2124)"
     id="path94" />
  <path
     d="M0,0 L5,1 L8,3 L6,8 L-1,2 L-2,5 L-2,1 Z "
     fill="#2B2D2F"
     transform="translate(989,2058)"
     id="path95" />
  <path
     d="M0,0 L2,1 L-4,5 L-7,5 L-9,9 L-12,11 L-16,10 L-9,6 L-4,1 Z "
     fill="#6F7578"
     transform="translate(979,2927)"
     id="path96" />
  <path
     d="M0,0 L4,1 L4,3 L8,4 L9,5 L9,15 L7,18 L8,8 L6,8 L6,4 L2,3 L0,2 Z "
     fill="#5A5F61"
     transform="translate(1228,2269)"
     id="path97" />
  <path
     d="M0,0 L6,3 L10,7 L10,10 L13,11 L8,11 L8,7 L4,7 L3,3 L0,3 Z "
     fill="#848B8E"
     transform="translate(1170,2219)"
     id="path98" />
  <path
     d="M0,0 L5,1 L6,5 L12,7 L13,9 L9,8 L8,10 L1,2 Z "
     fill="#44484A"
     transform="translate(1157,2202)"
     id="path99" />
  <path
     d="M0,0 L1,3 L-3,5 L-4,8 L-7,8 L-8,11 L-12,9 L-7,4 L-4,4 L-4,2 L0,2 Z "
     fill="#7A8184"
     transform="translate(1518,2166)"
     id="path100" />
  <path
     d="M0,0 L5,4 L9,6 L14,11 L14,14 L1,3 Z "
     fill="#4B4F51"
     transform="translate(1357,2908)"
     id="path101" />
  <path
     d="M0,0 L4,1 L-2,4 L-4,4 L-4,7 L-9,10 L-13,9 L-8,6 L-6,6 L-5,2 Z "
     fill="#444749"
     transform="translate(1532,2156)"
     id="path102" />
  <path
     d="M0,0 L5,1 L11,8 L14,11 L9,9 L7,6 L2,3 Z "
     fill="#64696C"
     transform="translate(1298,2859)"
     id="path103" />
  <path
     d="M0,0 L4,1 L8,4 L8,6 L13,7 L15,9 L6,8 L6,5 L4,5 Z "
     fill="#8A9295"
     transform="translate(1393,2932)"
     id="path104" />
  <path
     d="M0,0 L3,1 L-3,5 L-9,7 L-13,6 L-8,4 L-5,4 L-4,1 Z "
     fill="#858D90"
     transform="translate(1396,2240)"
     id="path105" />
  <path
     d="M0,0 L2,1 L4,6 L8,7 L9,11 L5,10 L5,8 L1,7 Z "
     fill="#606567"
     transform="translate(1129,2172)"
     id="path106" />
  <path
     d="M0,0 L4,5 L8,9 L14,12 L11,14 L10,11 L5,10 L5,7 L2,6 L0,3 Z "
     fill="#4E5254"
     transform="translate(1105,2148)"
     id="path107" />
  <path
     d="M0,0 L6,5 L5,9 L9,8 L10,10 L5,11 L2,4 L-1,3 Z "
     fill="#7A8084"
     transform="translate(991,2066)"
     id="path108" />
  <path
     d="M0,0 L6,0 L5,4 L1,3 L-2,5 L-5,5 L-5,3 L-3,3 L-3,1 Z "
     fill="#7C8386"
     transform="translate(1463,2976)"
     id="path109" />
  <path
     d="M0,0 L3,1 L3,5 L6,6 L1,9 L-4,9 L-3,7 L0,6 Z "
     fill="#8A9295"
     transform="translate(1019,2084)"
     id="path110" />
  <path
     d="M0,0 L5,4 L7,9 L12,9 L12,10 L5,10 L0,2 Z "
     fill="#515657"
     transform="translate(1447,2974)"
     id="path111" />
  <path
     d="M0,0 L2,1 L5,7 L12,8 L11,10 L4,9 L0,4 Z "
     fill="#323537"
     transform="translate(1447,2976)"
     id="path112" />
  <path
     d="M0,0 L4,2 L9,5 L8,9 L5,6 L2,5 Z "
     fill="#424647"
     transform="translate(1170,2216)"
     id="path113" />
  <path
     d="M0,0 L5,0 L4,2 L0,2 L0,6 L-7,7 L-5,4 L-2,3 Z "
     fill="#404446"
     transform="translate(1454,2201)"
     id="path114" />
  <path
     d="M0,0 L1,3 L-3,5 L-5,8 L-10,10 L-9,5 L-1,2 Z "
     fill="#8E969A"
     transform="translate(1491,2183)"
     id="path115" />
  <path
     d="M0,0 L5,3 L5,8 L1,9 Z "
     fill="#36393A"
     transform="translate(995,2066)"
     id="path116" />
  <path
     d="M0,0 L2,1 L0,4 L-4,4 L-4,6 L-9,8 L-7,3 L0,2 Z "
     fill="#4F5355"
     transform="translate(1326,2279)"
     id="path117" />
  <path
     d="M0,0 L4,2 L6,7 L6,10 L9,11 L4,10 L1,3 Z "
     fill="#71777A"
     transform="translate(1183,2230)"
     id="path118" />
  <path
     d="M0,0 L0,3 L-8,5 L-9,7 L-9,3 Z "
     fill="#474B4D"
     transform="translate(1435,2215)"
     id="path119" />
  <path
     d="M0,0 L5,4 L5,6 L9,8 L2,8 L3,5 L0,5 Z "
     fill="#747A7D"
     transform="translate(1038,2095)"
     id="path120" />
  <path
     d="M0,0 L7,1 L10,4 L8,9 L6,9 L6,2 L0,1 Z "
     fill="#666C6E"
     transform="translate(1011,2079)"
     id="path121" />
  <path
     d="M0,0 L2,0 L2,2 L7,2 L12,7 L12,9 L8,7 L7,5 L1,3 Z "
     fill="#757C7F"
     transform="translate(1377,2922)"
     id="path122" />
  <path
     d="M0,0 L5,2 L9,6 L9,10 L11,11 L8,11 L6,6 L4,4 L0,3 Z "
     fill="#484C4E"
     transform="translate(1144,2189)"
     id="path123" />
  <path
     d="M0,0 L8,6 L7,8 L4,8 L3,4 L0,4 Z "
     fill="#696F71"
     transform="translate(1062,2115)"
     id="path124" />
  <path
     d="M0,0 L6,0 L3,3 L-2,5 L-5,4 Z "
     fill="#3E4143"
     transform="translate(944,2950)"
     id="path125" />
  <path
     d="M0,0 L5,1 L8,5 L12,6 L11,8 L6,6 L0,1 Z "
     fill="#798083"
     transform="translate(1307,2865)"
     id="path126" />
  <path
     d="M0,0 L4,2 L9,6 L11,10 L7,8 L0,2 Z "
     fill="#35393A"
     transform="translate(1274,2840)"
     id="path127" />
  <path
     d="M0,0 L4,2 L9,8 L2,6 Z "
     fill="#666C6F"
     transform="translate(1219,2261)"
     id="path128" />
  <path
     d="M0,0 L1,3 L-4,5 L-5,7 L-9,9 L-7,5 L-4,2 L0,2 Z "
     fill="#7A8184"
     transform="translate(1546,2150)"
     id="path129" />
  <path
     d="M0,0 L4,1 L4,3 L8,3 L8,5 L6,5 L5,7 L2,6 L1,2 Z "
     fill="#787F82"
     transform="translate(1097,2145)"
     id="path130" />
  <path
     d="M0,0 L5,1 L8,4 L7,6 L1,4 Z "
     fill="#313435"
     transform="translate(1086,2134)"
     id="path131" />
  <path
     d="M0,0 L2,1 L-1,4 L-6,7 L-10,7 L-10,5 L-1,1 Z "
     fill="#8A9296"
     transform="translate(1300,2297)"
     id="path132" />
  <path
     d="M0,0 L4,3 L5,6 L9,7 L8,9 L1,8 L1,4 Z "
     fill="#7B8184"
     transform="translate(1106,2152)"
     id="path133" />
  <path
     d="M0,0 L2,1 L-6,7 L-9,7 L-9,5 Z "
     fill="#333738"
     transform="translate(911,2973)"
     id="path134" />
  <path
     d="M0,0 L4,1 L7,3 L9,8 L5,6 L3,5 L3,2 L0,1 Z "
     fill="#666C6E"
     transform="translate(1339,2892)"
     id="path135" />
  <path
     d="M0,0 L2,1 L-8,8 L-9,5 Z "
     fill="#313435"
     transform="translate(1074,2868)"
     id="path136" />
  <path
     d="M0,0 L5,2 L4,6 L0,5 Z "
     fill="#899094"
     transform="translate(1199,2247)"
     id="path137" />
  <path
     d="M0,0 L3,0 L3,3 L-6,7 L-5,3 L0,2 Z "
     fill="#313435"
     transform="translate(1413,2225)"
     id="path138" />
  <path
     d="M0,0 L6,4 L8,7 L4,7 L4,5 L0,3 Z "
     fill="#6E7477"
     transform="translate(1115,2161)"
     id="path139" />
  <path
     d="M0,0 Z M-1,1 L4,2 L3,4 L-5,6 L-5,3 L-1,3 Z "
     fill="#404345"
     transform="translate(1570,2133)"
     id="path140" />
  <path
     d="M0,0 L4,1 L4,4 L7,5 L8,9 L5,8 Z "
     fill="#404345"
     transform="translate(1035,2090)"
     id="path141" />
  <path
     d="M0,0 L2,1 L-1,4 L-5,4 L-6,7 L-8,6 L-3,1 Z "
     fill="#343739"
     transform="translate(900,2980)"
     id="path142" />
  <path
     d="M0,0 L6,4 L7,9 L4,8 L0,2 Z "
     fill="#424647"
     transform="translate(1422,2954)"
     id="path143" />
  <path
     d="M0,0 L5,2 L8,8 L5,8 L0,2 Z "
     fill="#6A7073"
     transform="translate(1289,2850)"
     id="path144" />
  <path
     d="M0,0 L4,1 L0,4 L-4,5 L-6,6 L-4,2 Z "
     fill="#8E9699"
     transform="translate(1322,2284)"
     id="path145" />
  <path
     d="M0,0 L5,2 L8,7 L5,6 L5,4 L0,4 Z "
     fill="#82898C"
     transform="translate(1213,2258)"
     id="path146" />
  <path
     d="M0,0 L4,1 L1,1 L0,5 L-4,7 L-8,6 L-1,3 Z "
     fill="#73797C"
     transform="translate(1363,2257)"
     id="path147" />
  <path
     d="M0,0 L5,0 L7,4 L4,4 L4,2 L1,4 L-2,3 Z "
     fill="#2B2E2F"
     transform="translate(1198,2240)"
     id="path148" />
  <path
     d="M0,0 L2,1 L-5,7 L-7,7 L-7,5 L-5,5 L-4,2 Z "
     fill="#333637"
     transform="translate(987,2924)"
     id="path149" />
  <path
     d="M0,0 L4,1 L8,4 L7,6 L1,3 Z "
     fill="#848B8E"
     transform="translate(1328,2881)"
     id="path150" />
  <path
     d="M0,0 L4,2 L7,5 L8,8 L4,6 Z "
     fill="#3F4345"
     transform="translate(1320,2877)"
     id="path151" />
  <path
     d="M0,0 L2,0 L2,2 L-1,2 L-1,4 L-7,6 L-4,1 Z "
     fill="#414546"
     transform="translate(1128,2834)"
     id="path152" />
  <path
     d="M0,0 L7,5 L8,10 L3,6 L0,2 Z "
     fill="#6A7173"
     transform="translate(1267,2828)"
     id="path153" />
  <path
     d="M0,0 L2,0 L1,4 L-7,5 L-4,2 L0,2 Z "
     fill="#606668"
     transform="translate(1335,2274)"
     id="path154" />
  <path
     d="M0,0 L2,1 L0,5 L-9,6 L-8,4 L-1,2 Z "
     fill="#72797C"
     transform="translate(1381,2247)"
     id="path155" />
  <path
     d="M0,0 L3,1 L8,7 L7,9 L4,6 L1,5 Z "
     fill="#4B5052"
     transform="translate(1188,2235)"
     id="path156" />
  <path
     d="M0,0 L4,2 L4,4 L-1,4 L-4,4 Z "
     fill="#4E5254"
     transform="translate(1464,2978)"
     id="path157" />
  <path
     d="M0,0 L2,1 L-3,5 L-8,7 L-6,3 L-1,1 Z "
     fill="#585D5F"
     transform="translate(914,2969)"
     id="path158" />
  <path
     d="M0,0 L3,0 L3,2 L8,4 L8,7 L6,7 L4,4 L0,2 Z "
     fill="#7A8184"
     transform="translate(1412,2945)"
     id="path159" />
  <path
     d="M0,0 L4,1 L4,3 L7,3 L9,8 L3,4 L3,2 L0,1 Z "
     fill="#484C4E"
     transform="translate(1280,2844)"
     id="path160" />
  <path
     d="M0,0 L3,1 L1,3 L-5,5 L-9,6 L-5,2 Z "
     fill="#666B6E"
     transform="translate(1146,2822)"
     id="path161" />
  <path
     d="M0,0 L4,3 L6,7 L6,10 L3,9 L1,3 Z "
     fill="#82898C"
     transform="translate(1155,2201)"
     id="path162" />
  <path
     d="M0,0 L2,0 L3,2 L6,3 L6,5 L8,6 L2,6 Z "
     fill="#7A8184"
     transform="translate(1087,2138)"
     id="path163" />
  <path
     d="M0,0 L1,0 L1,7 L-2,8 L-1,1 Z "
     fill="#2A2A2A"
     transform="translate(1293,3111)"
     id="path164" />
  <path
     d="M0,0 L5,1 L8,6 L2,4 L2,2 L0,2 Z "
     fill="#353839"
     transform="translate(1385,2931)"
     id="path165" />
  <path
     d="M0,0 L5,3 L6,7 L3,7 L2,3 L0,3 Z "
     fill="#787F82"
     transform="translate(1281,2840)"
     id="path166" />
  <path
     d="M0,0 L3,1 L4,5 L6,7 L3,8 L0,2 Z "
     fill="#8C9497"
     transform="translate(1103,2150)"
     id="path167" />
  <path
     d="M0,0 L5,1 L4,4 L-1,2 L-2,5 L-2,1 Z "
     fill="#232526"
     transform="translate(989,2058)"
     id="path168" />
  <path
     d="M0,0 L4,1 L4,5 L6,6 L1,5 Z "
     fill="#797F82"
     transform="translate(1274,2834)"
     id="path169" />
  <path
     d="M0,0 L0,3 L-7,5 L-6,2 Z "
     fill="#464A4C"
     transform="translate(1307,2291)"
     id="path170" />
  <path
     d="M0,0 L0,3 L-3,5 L-7,4 Z "
     fill="#565B5D"
     transform="translate(1344,2269)"
     id="path171" />
  <path
     d="M0,0 L6,3 L8,6 L2,4 Z "
     fill="#5D6264"
     transform="translate(1209,2252)"
     id="path172" />
  <path
     d="M0,0 L2,0 L2,4 L5,5 L-1,5 Z "
     fill="#858C8F"
     transform="translate(1150,2196)"
     id="path173" />
  <path
     d="M0,0 L5,0 L6,2 L4,5 L0,2 Z "
     fill="#353739"
     transform="translate(1117,2161)"
     id="path174" />
  <path
     d="M0,0 L4,2 L4,4 L7,5 L7,7 L3,5 L3,3 L0,2 Z "
     fill="#35383A"
     transform="translate(1108,2151)"
     id="path175" />
  <path
     d="m 1495.9808,1759.0048 18,1 4,1 v 3 l -11,2 14,29 12,29 6,19 2,1 v 4 l 9,6 9,11 11,18 8,18 14,41 6,24 5,25 3,12 5,35 2,16 1,18 1,7 1,45 -1,43 -1,21 -3,34 -2,15 -2,20 -4,33 -3,19 -2,18 -4,25 -2,16 -4,23 -2,17 -8,44 -1,10 -12,63 -12,58 -15,74 -20,94 -4,15 -12,57 -4,24 -6,27 -4,16 -1,9 -4,23 -3,21 -4,22 -8,54 -4,17 -5,17 -6,17 -5,12 -6,11 -6,8 -8,7 -4,2 h -3 l 1,10 v 21 l -4,21 -1,8 -7,1 -10,-1 -10,-3 -31,-4 -10,-2 -26,-2 -23,-1 -2,-1 -19,-1 v 2 l -4,-1 -1,-14 1,-14 3,-16 1,-14 -5,-4 -8,-10 -9,-13 -5,-10 -5,-12 -3,-7 -4,-21 -2,-14 1,-31 3,-44 1,-40 v -22 l 2,-31 3,-26 2,-10 2,-12 3,-13 3,-19 3,-15 4,-29 2,-10 5,-46 3,-39 3,-60 1,-51 v -111 l -1,-60 -1,-31 -1,-73 v -18 l 1,-21 1,-31 2,-20 -5,17 -8,26 -7,26 -6,20 -4,18 -6,25 -5,23 -6,26 -8,32 -1,8 -4,15 -3,16 -3,13 -3,17 -3,15 -3,19 -3,15 -2,16 -4,24 -2,16 -4,26 -2,20 -6,43 -3,29 -9,71 -3,19 -6,48 -3,20 -4,30 -3,16 -2,19 -2,17 -2,12 -3,17 -2,9 -2,11 -7,23 -8,20 -6,16 -4,8 -4,10 -3,4 -5,12 -4,8 h -2 l -2,6 -10,19 -11,17 -11,12 -5,5 -7,5 -9,4 -5,2 -1,24 -4,21 -7,21 -3,8 -28.00003,-1 -38,-4 -26,-3 -16,-3 -21,-3 -8,-1 -8,-3 -12,-6 -2,-14 -1,-4 1,-2 2,-16 8,-30 3,-8 -1,-9 -1,-21 v -61 l 5,-38 5,-31 4,-20 10,-63 3,-20 2,-9 10,-80 7,-64 1,-15 5,-39 v -22 l 1,-35 1,-49 1,-32 2,-32 2,-22 1,-16 2,-23 4,-44 3,-23 2,-20 4,-27 2,-19 4,-26 2,-19 5,-32 2,-19 5,-30 2,-17 7,-38 5,-26 6,-27 5,-17 2,-10 9.00003,-28 5,-17 9,-22 4,-10 7,-11 5,-6 v -13 l 2,-13 4,-11 -2,-4 -2,-4 v -5 h 2 l 1,-4 33,-10 28,-6 1,-1 20,-3 86,-17 19,-3 63,-12 31,-5 69,-11 11,-1 42,-7 27,-4 z"
     fill="#151617"
     id="path1-9"
     style="fill:#ff0000;opacity:0.255" />
</svg>
