<?xml version="1.0" encoding="UTF-8" standalone="no"?>
<svg
   version="1.1"
   width="2214"
   height="3264"
   id="svg34"
   sodipodi:docname="hurt_default_shirt.svg"
   inkscape:version="1.4.2 (f4327f4, 2025-05-13)"
   xmlns:inkscape="http://www.inkscape.org/namespaces/inkscape"
   xmlns:sodipodi="http://sodipodi.sourceforge.net/DTD/sodipodi-0.dtd"
   xmlns="http://www.w3.org/2000/svg"
   xmlns:svg="http://www.w3.org/2000/svg">
  <defs
     id="defs34" />
  <sodipodi:namedview
     id="namedview34"
     pagecolor="#ffffff"
     bordercolor="#000000"
     borderopacity="0.25"
     inkscape:showpageshadow="2"
     inkscape:pageopacity="0.0"
     inkscape:pagecheckerboard="0"
     inkscape:deskcolor="#d1d1d1"
     inkscape:zoom="0.37579042"
     inkscape:cx="1108.3305"
     inkscape:cy="1632.5589"
     inkscape:window-width="1080"
     inkscape:window-height="1849"
     inkscape:window-x="-8"
     inkscape:window-y="-8"
     inkscape:window-maximized="1"
     inkscape:current-layer="svg34" />
  <path
     d="M0,0 L17,1 L38,3 L64,5 L95,8 L127,12 L145,17 L156,21 L173,30 L176,31 L176,33 L180,35 L183,37 L183,39 L187,41 L196,50 L207,66 L212,76 L219,92 L222,107 L226,144 L228,174 L231,231 L231,344 L229,371 L226,403 L225,406 L207,410 L174,410 L161,407 L159,406 L158,412 L157,453 L157,471 L159,508 L162,532 L168,563 L176,591 L185,617 L197,646 L205,662 L220,690 L229,705 L235,717 L241,743 L240,749 L235,752 L224,761 L214,768 L198,776 L186,781 L170,787 L145,795 L118,803 L92,810 L59,818 L28,825 L-10,832 L-56,837 L-83,839 L-104,840 L-158,841 L-217,841 L-237,839 L-251,835 L-260,830 L-264,825 L-262,815 L-256,797 L-251,776 L-247,758 L-243,739 L-239,716 L-232,679 L-230,663 L-225,627 L-222,589 L-221,582 L-219,544 L-219,523 L-220,496 L-226,479 L-231,466 L-233,458 L-242,460 L-280,473 L-293,478 L-311,485 L-317,486 L-323,466 L-330,443 L-342,403 L-348,386 L-360,350 L-369,326 L-373,313 L-377,303 L-379,294 L-382,287 L-387,267 L-391,250 L-394,238 L-397,212 L-398,190 L-397,175 L-394,156 L-390,144 L-383,131 L-374,120 L-366,113 L-356,105 L-345,98 L-330,89 L-314,81 L-291,70 L-267,59 L-252,52 L-235,44 L-219,36 L-209,31 L-205,31 L-198,41 L-193,46 L-183,55 L-174,61 L-151,71 L-130,77 L-107,79 L-91,77 L-73,71 L-54,61 L-41,50 L-33,43 L-23,31 L-10,13 L-2,1 Z "
     fill="#E7E9EA"
     transform="translate(1152,924)"
     id="path1" />
  <path
     d="M0,0 L17,1 L38,3 L64,5 L95,8 L127,12 L145,17 L156,21 L173,30 L176,31 L176,33 L180,35 L183,37 L183,39 L187,41 L196,50 L207,66 L212,76 L219,92 L222,107 L226,144 L228,174 L231,231 L231,344 L229,371 L226,403 L225,406 L207,410 L174,410 L161,407 L159,406 L158,412 L157,453 L157,471 L159,508 L162,532 L168,563 L176,591 L185,617 L197,646 L205,662 L220,690 L229,705 L235,717 L241,743 L240,749 L235,752 L224,761 L214,768 L198,776 L186,781 L170,787 L145,795 L118,803 L92,810 L59,818 L28,825 L-10,832 L-56,837 L-83,839 L-104,840 L-158,841 L-217,841 L-237,839 L-251,835 L-260,830 L-264,825 L-262,815 L-256,797 L-251,776 L-247,758 L-243,739 L-239,716 L-232,679 L-230,663 L-225,627 L-222,589 L-221,582 L-219,544 L-219,523 L-220,496 L-226,479 L-231,466 L-233,458 L-242,460 L-280,473 L-293,478 L-311,485 L-317,486 L-323,466 L-330,443 L-342,403 L-348,386 L-360,350 L-369,326 L-373,313 L-377,303 L-379,294 L-382,287 L-387,267 L-391,250 L-394,238 L-397,212 L-398,190 L-397,175 L-394,156 L-390,144 L-383,131 L-374,120 L-366,113 L-356,105 L-345,98 L-330,89 L-314,81 L-291,70 L-267,59 L-252,52 L-235,44 L-219,36 L-209,31 L-205,31 L-198,41 L-193,46 L-183,55 L-174,61 L-151,71 L-130,77 L-107,79 L-91,77 L-73,71 L-54,61 L-41,50 L-33,43 L-23,31 L-10,13 L-2,1 Z M0,4 L-2,14 L-4,14 L-14,30 L-23,41 L-32,51 L-45,62 L-59,71 L-74,78 L-93,84 L-98,85 L-120,85 L-132,83 L-153,77 L-165,72 L-179,64 L-190,55 L-201,42 L-206,35 L-212,36 L-222,42 L-232,48 L-241,53 L-257,61 L-280,72 L-303,83 L-319,91 L-339,102 L-355,113 L-367,124 L-375,132 L-382,143 L-386,154 L-389,166 L-390,173 L-390,219 L-387,247 L-378,279 L-373,294 L-370,303 L-363,325 L-359,334 L-357,341 L-353,351 L-346,372 L-338,395 L-333,413 L-328,426 L-325,437 L-321,453 L-318,470 L-315,482 L-311,481 L-303,476 L-293,472 L-285,468 L-281,467 L-281,465 L-272,463 L-257,458 L-233,453 L-236,439 L-241,421 L-246,402 L-250,389 L-255,372 L-263,346 L-274,311 L-276,308 L-281,290 L-284,283 L-292,259 L-295,251 L-295,248 L-289,266 L-285,276 L-278,295 L-274,306 L-271,315 L-259,350 L-255,363 L-251,374 L-245,395 L-241,408 L-236,426 L-234,434 L-230,451 L-228,456 L-226,463 L-222,473 L-218,485 L-209,506 L-202,523 L-198,531 L-195,544 L-193,550 L-196,549 L-197,543 L-202,531 L-207,519 L-212,510 L-215,502 L-217,501 L-216,518 L-214,534 L-212,534 L-214,590 L-217,627 L-222,664 L-226,692 L-231,720 L-233,726 L-234,734 L-235,735 L-237,751 L-240,762 L-242,766 L-244,774 L-250,792 L-253,802 L-261,822 L-261,824 L-254,828 L-242,830 L-227,832 L-139,832 L-91,830 L-78,829 L-51,828 L-23,825 L-2,822 L21,817 L38,814 L63,808 L74,806 L85,803 L96,801 L111,797 L123,794 L135,790 L145,788 L165,781 L173,779 L196,771 L204,767 L211,764 L225,756 L237,747 L237,737 L233,727 L226,714 L224,714 L221,705 L219,702 L217,702 L214,693 L212,693 L211,688 L205,677 L203,677 L202,672 L194,656 L187,642 L183,632 L180,625 L174,607 L171,599 L166,584 L160,559 L156,542 L151,515 L150,499 L150,439 L151,407 L152,395 L152,222 L149,193 L146,172 L146,162 L151,184 L154,206 L157,230 L158,244 L158,349 L157,376 L157,400 L171,403 L198,404 L219,404 L222,403 L224,365 L225,327 L225,223 L223,194 L222,168 L220,145 L219,124 L215,92 L207,77 L202,68 L191,54 L180,42 L165,32 L155,27 L135,20 L121,17 L87,13 L52,10 L38,8 L22,6 L10,4 Z "
     fill="#404345"
     transform="translate(1152,924)"
     id="path2" />
  <path
     d="M0,0 L17,1 L38,3 L64,5 L95,8 L127,12 L145,17 L156,21 L173,30 L176,31 L176,33 L180,35 L183,37 L183,39 L187,41 L196,50 L207,66 L212,76 L219,92 L222,107 L226,144 L228,174 L231,231 L231,344 L229,371 L227,386 L224,387 L224,223 L222,194 L221,168 L219,145 L218,124 L214,92 L206,77 L201,68 L190,54 L180,43 L165,33 L155,28 L135,21 L121,18 L87,14 L52,11 L38,9 L22,7 L10,5 L0,4 L-2,14 L-4,14 L-6,19 L-14,31 L-22,41 L-31,51 L-41,60 L-54,69 L-69,77 L-86,83 L-98,86 L-120,86 L-132,84 L-153,78 L-165,73 L-179,65 L-190,56 L-198,47 L-206,36 L-212,37 L-222,43 L-232,49 L-241,54 L-257,62 L-280,73 L-303,84 L-319,92 L-339,103 L-355,114 L-367,125 L-374,132 L-381,143 L-385,154 L-388,166 L-389,173 L-389,219 L-386,247 L-377,279 L-372,294 L-369,303 L-362,325 L-358,334 L-356,341 L-352,351 L-345,372 L-337,395 L-332,413 L-327,426 L-324,437 L-320,453 L-319,460 L-319,471 L-321,472 L-326,456 L-338,416 L-346,392 L-357,359 L-364,339 L-370,324 L-373,313 L-377,303 L-379,294 L-382,287 L-387,267 L-391,250 L-394,238 L-397,212 L-398,190 L-397,175 L-394,156 L-390,144 L-383,131 L-374,120 L-366,113 L-356,105 L-345,98 L-330,89 L-314,81 L-291,70 L-267,59 L-252,52 L-235,44 L-219,36 L-209,31 L-205,31 L-198,41 L-193,46 L-183,55 L-174,61 L-151,71 L-130,77 L-107,79 L-91,77 L-73,71 L-54,61 L-41,50 L-33,43 L-23,31 L-10,13 L-2,1 Z "
     fill="#1B1C1C"
     transform="translate(1152,924)"
     id="path3" />
  <path
     d="M0,0 L2,3 L7,25 L10,47 L13,71 L14,85 L14,190 L12,241 L21,242 L26,243 L53,244 L77,244 L77,228 L78,206 L79,206 L80,227 L82,227 L82,235 L81,246 L72,249 L62,251 L29,251 L16,248 L14,247 L13,253 L12,294 L12,312 L14,349 L17,373 L23,404 L31,432 L40,458 L52,487 L60,503 L75,531 L84,546 L90,558 L96,584 L95,590 L92,589 L91,578 L87,568 L81,557 L81,555 L79,555 L74,545 L74,543 L72,543 L69,537 L69,534 L67,534 L64,527 L60,520 L60,518 L58,518 L55,511 L47,495 L41,483 L37,473 L34,466 L28,448 L25,440 L20,425 L14,400 L10,383 L5,356 L4,340 L4,280 L5,248 L6,236 L6,63 L3,34 L0,13 Z "
     fill="#353739"
     transform="translate(1297,1083)"
     id="path4" />
  <path
     d="M0,0 L2,1 L9,22 L13,32 L20,51 L24,62 L27,71 L39,106 L43,119 L47,130 L53,151 L57,164 L62,182 L64,190 L68,207 L70,212 L72,219 L76,229 L80,241 L89,262 L96,279 L100,287 L103,300 L105,304 L104,307 L101,305 L95,289 L92,282 L84,266 L81,258 L82,274 L83,290 L85,290 L85,325 L84,346 L81,383 L76,420 L72,448 L67,476 L65,482 L64,490 L63,491 L61,507 L58,518 L56,522 L54,530 L48,548 L45,558 L37,578 L35,578 L34,581 L33,578 L41,553 L46,532 L50,514 L54,495 L58,472 L65,435 L67,419 L72,383 L75,345 L76,338 L78,300 L78,279 L77,252 L71,235 L66,222 L64,214 L55,216 L17,229 L4,234 L-14,241 L-20,242 L-23,232 L-22,221 L-21,221 L-18,234 L-18,238 L-7,232 L8,225 L12,223 L16,223 L16,221 L30,216 L49,211 L60,209 L64,209 L62,205 L60,195 L55,177 L50,158 L46,145 L41,128 L33,102 L22,67 L20,64 L15,46 L12,39 L4,15 L1,7 Z "
     fill="#3B3F40"
     transform="translate(855,1168)"
     id="path5" />
  <path
     d="M0,0 L6,1 L4,3 L1,4 L-2,14 L-4,14 L-6,19 L-14,31 L-22,41 L-31,51 L-41,60 L-54,69 L-69,77 L-86,83 L-98,86 L-120,86 L-132,84 L-153,78 L-165,73 L-179,65 L-190,56 L-198,47 L-206,36 L-212,37 L-219,41 L-221,41 L-219,36 L-209,31 L-205,31 L-198,41 L-193,46 L-183,55 L-174,61 L-151,71 L-130,77 L-107,79 L-91,77 L-73,71 L-54,61 L-41,50 L-33,43 L-23,31 L-10,13 L-2,1 Z "
     fill="#151616"
     transform="translate(1152,924)"
     id="path6" />
  <path
     d="M0,0 L2,1 L9,22 L13,32 L20,51 L24,62 L27,71 L39,106 L43,119 L47,130 L53,151 L57,164 L62,182 L64,190 L68,207 L70,212 L72,219 L76,229 L79,239 L78,242 L74,243 L70,233 L66,222 L64,214 L55,216 L17,229 L4,234 L-14,241 L-20,242 L-23,232 L-22,221 L-21,221 L-18,234 L-18,238 L-7,232 L8,225 L12,223 L16,223 L16,221 L30,216 L49,211 L60,209 L64,209 L62,205 L60,195 L55,177 L50,158 L46,145 L41,128 L33,102 L22,67 L20,64 L15,46 L12,39 L4,15 L1,7 Z "
     fill="#363839"
     transform="translate(855,1168)"
     id="path7" />
  <path
     d="M0,0 L2,2 L9,26 L14,44 L16,52 L20,69 L21,74 L20,71 L18,71 L17,68 L15,69 L12,57 L7,39 L2,20 L-2,7 L-1,3 Z "
     fill="#3B3E3F"
     transform="translate(903,1306)"
     id="path8" />
  <path
     d="M0,0 L2,1 L2,4 L4,4 L4,7 L6,7 L8,14 L12,24 L15,34 L14,37 L10,38 L6,28 L2,17 L0,9 L-8,9 L-8,5 L0,4 Z "
     fill="#313333"
     transform="translate(919,1373)"
     id="path9" />
  <path
     d="M0,0 L2,3 L8,17 L12,25 L15,38 L17,42 L16,45 L13,43 L7,27 L4,20 L-3,5 Z "
     fill="#3E4142"
     transform="translate(943,1430)"
     id="path10" />
  <path
     d="M0,0 L2,1 L9,22 L13,32 L20,51 L24,62 L22,66 L20,64 L15,46 L12,39 L4,15 L1,7 Z "
     fill="#3E3F40"
     transform="translate(855,1168)"
     id="path11" />
  <path
     d="M0,0 L1,0 L2,21 L4,21 L4,29 L3,40 L-1,42 L-8,41 L-4,40 L-4,38 L-1,38 L-1,22 Z "
     fill="#3F4243"
     transform="translate(1375,1289)"
     id="path12" />
  <path
     d="M0,0 L2,2 L7,18 L6,22 L4,18 L2,20 L-2,7 L-1,3 Z "
     fill="#414344"
     transform="translate(903,1306)"
     id="path13" />
  <path
     d="M0,0 L1,0 L3,17 L3,25 L0,25 L-1,22 L-1,3 Z "
     fill="#303234"
     transform="translate(934,1425)"
     id="path14" />
  <path
     d="M0,0 L2,1 L8,17 L10,25 L6,24 L0,4 Z "
     fill="#323434"
     transform="translate(877,1231)"
     id="path15" />
  <path
     d="M0,0 L2,1 L9,22 L11,28 L9,31 L4,15 L1,7 Z "
     fill="#464848"
     transform="translate(855,1168)"
     id="path16" />
  <path
     d="M0,0 L2,2 L5,15 L7,19 L6,22 L3,20 L-1,10 L-1,5 Z "
     fill="#585C5D"
     transform="translate(953,1453)"
     id="path17" />
  <path
     d="M0,0 L2,3 L5,9 L4,13 L2,15 L-3,5 Z "
     fill="#454849"
     transform="translate(943,1430)"
     id="path18" />
  <path
     d="M0,0 L1,0 L1,6 L-5,13 L-11,17 L-13,16 L-11,12 L-1,5 Z "
     fill="#3C3F41"
     transform="translate(1389,1666)"
     id="path19" />
  <path
     d="M0,0 L2,1 L1,9 L-8,9 L-8,5 L0,4 Z "
     fill="#292B2D"
     transform="translate(919,1373)"
     id="path20" />
  <path
     d="M0,0 L3,1 L6,11 L5,16 L3,14 L0,5 Z "
     fill="#28292A"
     transform="translate(890,1271)"
     id="path21" />
  <path
     d="M0,0 L1,0 L3,7 L3,18 L1,18 L-1,11 Z "
     fill="#383A3B"
     transform="translate(833,1389)"
     id="path22" />
  <path
     d="M0,0 L2,3 L3,7 L3,18 L1,19 L0,13 Z "
     fill="#252627"
     transform="translate(1297,1083)"
     id="path23" />
  <path
     d="M0,0 L3,3 L3,9 L1,10 L-1,5 Z "
     fill="#232526"
     transform="translate(900,1300)"
     id="path24" />
  <path
     d="M0,0 L2,1 L5,12 L3,13 L0,4 Z "
     fill="#2E2F30"
     transform="translate(865,1196)"
     id="path25" />
  <path
     d="M0,0 L1,0 L1,6 L-4,11 L-7,9 L-1,5 Z "
     fill="#4D5253"
     transform="translate(1389,1666)"
     id="path26" />
  <path
     d="M0,0 L3,4 L5,8 L4,11 L1,9 Z "
     fill="#46494A"
     transform="translate(955,1464)"
     id="path27" />
  <path
     d="M0,0 L2,0 L3,7 L0,10 Z "
     fill="#141516"
     transform="translate(1300,1105)"
     id="path28" />
  <path
     d="M0,0 L3,3 L4,7 L0,7 Z "
     fill="#BBBEBF"
     transform="translate(935,1425)"
     id="path29" />
  <path
     d="M0,0 L0,3 L2,5 L-5,7 L-5,4 Z "
     fill="#1D1F1F"
     transform="translate(944,954)"
     id="path30" />
  <path
     d="M0,0 L2,0 L2,8 L0,8 L-1,2 Z "
     fill="#272A2A"
     transform="translate(834,1399)"
     id="path31" />
  <path
     d="M0,0 L2,3 L3,8 L1,8 L0,10 L-1,5 Z "
     fill="#373939"
     transform="translate(889,1263)"
     id="path32" />
  <path
     d="M0,0 L3,1 L2,5 L-1,5 Z "
     fill="#343738"
     transform="translate(940,1429)"
     id="path33" />
  <path
     d="M0,0 L2,4 L3,8 L-1,6 L-1,1 Z "
     fill="#4B4D4D"
     transform="translate(870,1207)"
     id="path34" />
  <path
     d="m 1151.3702,923.11538 17,1 21,2 26,2 31,3 32,4 18,5 11,4 17,9 3,1 v 2 l 4,2 3,2 v 2 l 4,2 9,9 11,16 5,10 7,16.00002 3,15 4,37 2,30 3,57 v 113 l -2,27 -3,32 -1,3 -18,4 h -33 l -13,-3 -2,-1 -1,6 -1,41 v 18 l 2,37 3,24 6,31 8,28 9,26 12,29 8,16 15,28 9,15 6,12 6,26 -1,6 -5,3 -11,9 -10,7 -16,8 -12,5 -16,6 -25,8 -27,8 -26,7 -33,8 -31,7 -38,7 -46,5 -27,2 -21,1 -54.00001,1 h -59 l -20,-2 -14,-4 -9,-5 -4,-5 2,-10 6,-18 5,-21 4,-18 4,-19 4,-23 7,-37 2,-16 5,-36 3,-38 1,-7 2,-38 v -21 l -1,-27 -6,-17 -5,-13 -2,-8 -9,2 -38,13 -13,5 -18,7 -6,1 -6,-20 -7,-23 -12,-40 -6,-17 -12,-36 -9,-24 -4,-13 -4,-10 -2,-9 -3,-7 -5,-20 -4,-17 -3,-12 -3,-26 -1,-22 1,-15 3,-19 4,-12 7,-13 9,-11 8,-7 10,-8 11,-7 15,-9 16,-8 23,-11.00002 24,-11 15,-7 17,-8 16,-8 10,-5 h 4 l 7,10 5,5 10,9 9,6 23.00001,10 21,6.00002 23,2 16,-2 18,-6.00002 19,-10 13,-11 8,-7 10,-12 13,-18 8,-12 z"
     fill="#e7e9ea"
     id="path1-9"
     style="fill:#ff0000;opacity:0.255" />
</svg>
