<?xml version="1.0" encoding="UTF-8" standalone="no"?>
<svg
   version="1.1"
   width="2500"
   height="3686"
   id="svg5"
   sodipodi:docname="hurt_default_socks.svg"
   inkscape:version="1.4.2 (f4327f4, 2025-05-13)"
   xmlns:inkscape="http://www.inkscape.org/namespaces/inkscape"
   xmlns:sodipodi="http://sodipodi.sourceforge.net/DTD/sodipodi-0.dtd"
   xmlns="http://www.w3.org/2000/svg"
   xmlns:svg="http://www.w3.org/2000/svg">
  <defs
     id="defs5" />
  <sodipodi:namedview
     id="namedview5"
     pagecolor="#ffffff"
     bordercolor="#000000"
     borderopacity="0.25"
     inkscape:showpageshadow="2"
     inkscape:pageopacity="0.0"
     inkscape:pagecheckerboard="0"
     inkscape:deskcolor="#d1d1d1"
     inkscape:zoom="0.3328"
     inkscape:cx="1250"
     inkscape:cy="1843.4495"
     inkscape:window-width="1080"
     inkscape:window-height="1849"
     inkscape:window-x="-8"
     inkscape:window-y="-8"
     inkscape:window-maximized="1"
     inkscape:current-layer="svg5" />
  <path
     d="M0,0 L3,1 L5,12 L40,15 L90,16 L120,15 L197,10 L213,7 L215,6 L211,3 L211,0 L217,1 L222,4 L222,19 L214,47 L199,88 L183,132 L172,162 L160,198 L151,227 L140,270 L136,290 L123,341 L110,390 L100,432 L98,440 L96,456 L96,504 L98,521 L99,537 L102,569 L102,580 L104,610 L104,645 L101,662 L94,676 L86,687 L75,698 L60,709 L34,724 L13,734 L-17,744 L-47,751 L-65,755 L-97,759 L-113,760 L-118,761 L-153,761 L-174,758 L-186,753 L-194,745 L-198,736 L-199,732 L-199,711 L-195,695 L-189,675 L-185,667 L-177,648 L-174,643 L-163,621 L-157,611 L-148,595 L-134,570 L-124,553 L-115,539 L-100,512 L-92,497 L-84,478 L-80,469 L-71,441 L-68,433 L-59,396 L-51,356 L-34,261 L-22,195 L-20,183 L-18,163 L-13,123 L-13,114 L-7,55 L-7,46 L-4,19 L-3,14 L-7,14 L-7,11 L-2,11 L-1,1 Z "
     fill="#FEFEFE"
     transform="translate(926,2741)"
     id="path1" />
  <path
     d="M0,0 L6,0 L18,11 L26,16 L39,21 L66,28 L90,32 L101,33 L128,33 L143,31 L157,30 L175,26 L190,20 L195,16 L199,17 L199,24 L193,56 L185,111 L182,126 L172,192 L168,214 L165,230 L155,291 L153,299 L146,347 L142,383 L140,411 L140,478 L141,500 L147,548 L155,604 L158,619 L160,634 L161,648 L161,675 L159,693 L155,709 L151,718 L145,727 L134,734 L123,738 L103,741 L88,742 L47,742 L30,739 L13,735 L-3,727 L-11,720 L-19,710 L-27,696 L-35,674 L-39,656 L-41,629 L-41,612 L-39,591 L-35,567 L-26,529 L-22,516 L-17,489 L-13,455 L-10,415 L-6,353 L-3,324 L-1,282 L0,278 L1,239 L1,205 L2,135 L0,78 L-2,28 L-2,7 Z "
     fill="#FEFEFE"
     transform="translate(1282,2755)"
     id="path2" />
  <path
     d="M0,0 L3,1 L5,12 L40,15 L90,16 L120,15 L197,10 L213,7 L215,6 L211,3 L211,0 L217,1 L222,4 L222,19 L214,47 L199,88 L183,132 L172,162 L160,198 L151,227 L140,270 L136,290 L123,341 L110,390 L100,432 L98,440 L96,456 L96,504 L98,521 L99,537 L102,569 L102,580 L104,610 L104,645 L101,662 L94,676 L86,687 L75,698 L60,709 L34,724 L13,734 L-17,744 L-47,751 L-65,755 L-97,759 L-113,760 L-118,761 L-153,761 L-174,758 L-186,753 L-194,745 L-198,736 L-199,732 L-199,711 L-195,695 L-189,675 L-185,667 L-177,648 L-174,643 L-163,621 L-157,611 L-148,595 L-134,570 L-124,553 L-115,539 L-100,512 L-92,497 L-84,478 L-80,469 L-71,441 L-68,433 L-59,396 L-51,356 L-34,261 L-22,195 L-20,183 L-18,163 L-13,123 L-13,114 L-7,55 L-7,46 L-4,19 L-3,14 L-7,14 L-7,11 L-2,11 L-1,1 Z M215,11 L201,14 L160,18 L112,20 L59,20 L31,18 L8,15 L2,15 L2,18 L0,18 L-2,39 L-5,95 L-9,135 L-10,153 L-17,199 L-19,216 L-23,238 L-23,244 L-25,244 L-33,288 L-35,305 L-49,382 L-58,421 L-58,425 L-60,425 L-66,449 L-72,464 L-81,489 L-89,505 L-98,522 L-112,546 L-129,575 L-141,596 L-156,623 L-160,629 L-160,633 L-162,633 L-173,655 L-180,670 L-185,685 L-185,688 L-187,688 L-191,702 L-193,711 L-193,731 L-189,741 L-181,748 L-171,752 L-159,754 L-111,754 L-97,753 L-96,752 L-70,749 L-43,744 L-18,738 L-8,735 L-8,733 L1,731 L20,724 L36,716 L54,705 L68,695 L81,683 L90,670 L95,658 L97,648 L98,647 L98,607 L95,567 L94,546 L92,527 L90,502 L90,459 L94,431 L98,412 L111,361 L123,316 L142,240 L153,202 L165,166 L181,122 L191,95 L193,86 L213,31 L218,14 L218,11 Z "
     fill="#070707"
     transform="translate(926,2741)"
     id="path3" />
  <path
     d="M0,0 L6,0 L18,11 L26,16 L39,21 L66,28 L90,32 L101,33 L128,33 L143,31 L157,30 L175,26 L190,20 L195,16 L199,17 L199,24 L193,56 L185,111 L182,126 L172,192 L168,214 L165,230 L155,291 L153,299 L146,347 L142,383 L140,411 L140,478 L141,500 L147,548 L155,604 L158,619 L160,634 L161,648 L161,675 L159,693 L155,709 L151,718 L145,727 L134,734 L123,738 L103,741 L88,742 L47,742 L30,739 L13,735 L-3,727 L-11,720 L-19,710 L-27,696 L-35,674 L-39,656 L-41,629 L-41,612 L-39,591 L-35,567 L-26,529 L-22,516 L-17,489 L-13,455 L-10,415 L-6,353 L-3,324 L-1,282 L0,278 L1,239 L1,205 L2,135 L0,78 L-2,28 L-2,7 Z M4,6 L4,32 L6,62 L8,138 L8,173 L7,249 L5,299 L1,353 L0,362 L-2,400 L-3,402 L-7,458 L-12,497 L-17,523 L-24,552 L-28,568 L-32,592 L-33,593 L-34,600 L-34,636 L-31,657 L-28,674 L-26,674 L-24,683 L-21,692 L-15,704 L-7,714 L0,721 L16,729 L31,733 L48,735 L78,735 L107,733 L123,731 L137,724 L144,716 L150,701 L152,692 L152,685 L154,685 L154,637 L153,633 L151,603 L147,580 L141,545 L136,505 L134,486 L133,468 L133,423 L135,389 L139,350 L140,343 L141,342 L151,276 L153,263 L153,257 L155,257 L166,189 L166,183 L168,183 L185,72 L193,28 L192,25 L180,30 L165,34 L145,37 L132,38 L97,38 L74,35 L55,31 L31,23 L18,16 L5,6 Z "
     fill="#060606"
     transform="translate(1282,2755)"
     id="path4" />
  <path
     d="M0,0 L5,1 L3,5 L0,4 Z "
     fill="#000000"
     transform="translate(1627,3254)"
     id="path5" />
  <path
     d="m 927.76923,2740.0433 3,1 2,11 35,3 49.99997,1 30,-1 77,-5 16,-3 2,-1 -4,-3 v -3 l 6,1 5,3 v 15 l -8,28 -15,41 -16,44 -11,30 -12,36 -9,29 -11,43 -4,20 -13,51 -13,49 -10,42 -2,8 -2,16 v 48 l 2,17 1,16 3,32 v 11 l 2,30 v 35 l -3,17 -7,14 -8,11 -11,11 -14.99997,11 -26,15 -21,10 -30,10 -30,7 -18,4 -32,4 -16,1 -5,1 h -35 l -21,-3 -12,-5 -8,-8 -4,-9 -1,-4 v -21 l 4,-16 6,-20 4,-8 8,-19 3,-5 11,-22 6,-10 9,-16 14,-25 10,-17 9,-14 15,-27 8,-15 8,-19 4,-9 9,-28 3,-8 9,-37 8,-40 17,-95 12,-66 2,-12 2,-20 5,-40 v -9 l 6,-59 v -9 l 3,-27 1,-5 h -4 v -3 h 5 l 1,-10 z"
     fill="#fefefe"
     id="path1-9"
     style="fill:#ff0000;opacity:0.255" />
  <path
     d="m 1283.7692,2754.0433 h 6 l 12,11 8,5 13,5 27,7 24,4 11,1 h 27 l 15,-2 14,-1 18,-4 15,-6 5,-4 4,1 v 7 l -6,32 -8,55 -3,15 -10,66 -4,22 -3,16 -10,61 -2,8 -7,48 -4,36 -2,28 v 67 l 1,22 6,48 8,56 3,15 2,15 1,14 v 27 l -2,18 -4,16 -4,9 -6,9 -11,7 -11,4 -20,3 -15,1 h -41 l -17,-3 -17,-4 -16,-8 -8,-7 -8,-10 -8,-14 -8,-22 -4,-18 -2,-27 v -17 l 2,-21 4,-24 9,-38 4,-13 5,-27 4,-34 3,-40 4,-62 3,-29 2,-42 1,-4 1,-39 v -34 l 1,-70 -2,-57 -2,-50 v -21 z"
     fill="#fefefe"
     id="path2-4"
     style="fill:#ff0000;opacity:0.255" />
</svg>
