<?xml version="1.0" encoding="UTF-8"?>
<svg version="1.1" xmlns="http://www.w3.org/2000/svg" width="2500" height="3686">
<path d="M0,0 L19,0 L23,1 L23,4 L12,6 L28,40 L39,66 L44,83 L46,84 L46,88 L54,93 L64,106 L73,121 L82,140 L93,173 L101,205 L108,241 L113,278 L115,310 L115,372 L113,405 L109,444 L100,508 L86,594 L69,691 L56,760 L34,871 L16,961 L-7,1072 L-10,1092 L-20,1140 L-21,1150 L-25,1172 L-27,1189 L-39,1269 L-45,1293 L-53,1318 L-58,1328 L-64,1340 L-71,1349 L-79,1356 L-85,1359 L-85,1389 L-89,1417 L-91,1417 L-92,1419 L-102,1418 L-110,1416 L-132,1413 L-158,1410 L-188,1408 L-232,1406 L-232,1408 L-235,1407 L-236,1397 L-236,1380 L-233,1364 L-232,1354 L-234,1349 L-244,1340 L-253,1329 L-262,1314 L-270,1297 L-274,1282 L-276,1266 L-277,1264 L-277,1231 L-274,1187 L-274,1126 L-273,1107 L-271,1086 L-269,1070 L-268,1059 L-266,1047 L-264,1039 L-256,984 L-254,968 L-252,959 L-247,910 L-243,851 L-240,784 L-238,726 L-237,678 L-235,516 L-234,479 L-231,431 L-227,389 L-236,416 L-250,457 L-261,493 L-281,567 L-293,611 L-303,651 L-313,697 L-324,756 L-334,820 L-345,902 L-355,984 L-366,1080 L-370,1109 L-371,1122 L-373,1138 L-376,1157 L-381,1183 L-385,1200 L-392,1224 L-396,1232 L-402,1249 L-407,1259 L-411,1269 L-414,1273 L-420,1286 L-430,1304 L-440,1321 L-448,1332 L-457,1342 L-464,1349 L-476,1356 L-485,1359 L-485,1382 L-489,1403 L-497,1429 L-502,1430 L-526,1428 L-547,1426 L-565,1424 L-585,1421 L-618,1415 L-636,1412 L-654,1404 L-657,1402 L-659,1389 L-660,1384 L-659,1383 L-657,1366 L-652,1345 L-646,1327 L-648,1325 L-651,1286 L-651,1238 L-647,1203 L-638,1146 L-630,1096 L-622,1038 L-613,962 L-605,892 L-601,862 L-597,771 L-594,722 L-585,632 L-578,576 L-565,489 L-549,388 L-540,337 L-532,299 L-522,259 L-509,217 L-498,186 L-489,165 L-482,152 L-474,142 L-472,120 L-468,107 L-467,102 L-471,96 L-471,91 L-469,90 L-468,87 L-436,78 L-406,72 L-389,69 L-316,55 L-233,39 L-159,26 L-79,13 L-15,2 Z " fill="#141415" transform="translate(1509,1763)"/>
<path d="M0,0 L1,0 L1,20 L-3,69 L-9,117 L-31,263 L-44,347 L-55,400 L-69,468 L-73,487 L-75,500 L-76,502 L-79,521 L-80,526 L-82,526 L-83,536 L-88,565 L-96,603 L-98,613 L-110,670 L-123,733 L-129,761 L-132,781 L-136,800 L-138,817 L-141,841 L-146,874 L-147,878 L-151,877 L-156,881 L-162,881 L-164,880 L-164,876 L-168,875 L-171,870 L-175,866 L-175,863 L-182,863 L-182,861 L-188,860 L-188,856 L-193,855 L-195,852 L-200,849 L-207,847 L-211,843 L-211,841 L-220,840 L-220,837 L-225,836 L-228,834 L-228,831 L-233,830 L-236,827 L-243,824 L-243,822 L-248,822 L-248,820 L-250,820 L-250,817 L-253,817 L-254,815 L-261,811 L-263,809 L-268,807 L-271,803 L-281,798 L-289,789 L-293,787 L-293,785 L-296,785 L-296,783 L-300,782 L-305,777 L-307,775 L-307,771 L-311,770 L-313,769 L-313,767 L-317,765 L-328,757 L-330,754 L-335,751 L-340,747 L-340,745 L-343,744 L-343,742 L-349,741 L-350,736 L-354,734 L-360,728 L-360,725 L-368,724 L-368,713 L-362,675 L-358,655 L-351,601 L-350,597 L-348,573 L-347,568 L-346,553 L-345,550 L-342,501 L-341,493 L-339,451 L-336,340 L-335,196 L-330,194 L-324,191 L-321,191 L-320,186 L-316,184 L-312,184 L-311,181 L-307,179 L-302,179 L-302,176 L-297,175 L-297,173 L-293,173 L-291,169 L-284,167 L-281,164 L-278,164 L-278,162 L-274,162 L-272,158 L-268,156 L-264,156 L-264,154 L-255,151 L-253,148 L-245,146 L-243,141 L-236,139 L-233,136 L-230,136 L-230,134 L-226,134 L-226,131 L-217,128 L-214,125 L-211,125 L-211,123 L-207,122 L-204,119 L-197,118 L-197,114 L-188,111 L-187,109 L-185,109 L-185,107 L-178,106 L-178,103 L-173,101 L-168,101 L-168,98 L-159,95 L-159,92 L-154,91 L-154,89 L-150,89 L-149,86 L-144,84 L-140,84 L-139,80 L-131,76 L-128,74 L-125,74 L-125,72 L-121,72 L-120,69 L-117,67 L-112,66 L-108,62 L-102,61 L-101,58 L-96,57 L-96,55 L-92,55 L-91,52 L-80,46 L-77,46 L-77,44 L-73,44 L-72,41 L-69,39 L-64,38 L-60,34 L-54,33 L-52,29 L-48,29 L-48,27 L-44,27 L-42,23 L-34,22 L-34,19 L-25,17 L-23,13 L-16,10 L-13,7 L-10,7 L-10,5 L-6,5 L-6,2 Z " fill="#9CA5A9" transform="translate(1615,2119)"/>
<path d="M0,0 L5,1 L10,7 L9,10 L14,11 L18,14 L31,15 L31,17 L35,18 L37,23 L49,26 L54,34 L58,36 L58,38 L62,40 L63,45 L65,45 L65,48 L68,48 L69,51 L70,49 L72,49 L75,52 L78,57 L79,60 L82,59 L85,61 L86,66 L92,68 L95,70 L95,72 L98,72 L99,74 L102,75 L103,77 L106,78 L106,80 L111,82 L118,85 L123,94 L128,96 L131,101 L140,106 L140,109 L142,109 L146,114 L149,117 L149,119 L153,121 L157,126 L159,129 L163,131 L165,135 L170,139 L174,147 L179,149 L184,154 L184,157 L189,158 L192,162 L192,165 L197,166 L199,172 L201,172 L201,176 L205,176 L209,181 L219,184 L222,189 L224,192 L229,194 L231,197 L236,200 L240,204 L240,207 L246,209 L248,213 L247,223 L230,284 L217,334 L207,380 L198,426 L192,460 L189,480 L185,507 L181,538 L178,558 L176,576 L175,580 L174,596 L172,604 L168,640 L165,665 L163,680 L162,697 L161,699 L154,765 L147,769 L144,769 L143,772 L136,776 L130,781 L120,784 L110,790 L106,790 L105,793 L101,794 L101,796 L96,798 L89,803 L84,805 L76,810 L72,810 L71,813 L59,819 L57,821 L53,821 L52,825 L44,829 L35,835 L25,841 L19,844 L10,849 L5,850 L4,854 L2,854 L0,859 L-3,860 L-4,862 L-11,866 L-12,868 L-22,871 L-28,875 L-31,877 L-37,879 L-50,889 L-55,890 L-56,892 L-58,892 L-58,894 L-65,898 L-71,902 L-84,907 L-89,910 L-96,915 L-105,919 L-110,920 L-111,923 L-115,925 L-114,909 L-107,860 L-104,845 L-101,823 L-98,808 L-95,784 L-93,775 L-89,746 L-84,697 L-81,674 L-78,639 L-76,621 L-72,568 L-69,521 L-57,388 L-48,301 L-44,271 L-38,228 L-36,218 L-32,188 L-21,119 L-15,81 L-10,51 L-5,22 Z " fill="#9CA5A9" transform="translate(982,2075)"/>
<path d="M0,0 L1,4 L-5,51 L-8,73 L-12,97 L-18,122 L-25,146 L-31,162 L-40,184 L-48,200 L-61,225 L-73,245 L-84,259 L-93,268 L-106,276 L-115,280 L-134,276 L-159,270 L-187,264 L-216,257 L-253,249 L-269,247 L-269,185 L-268,153 L-267,147 L-266,147 L-266,159 L-262,155 L-247,148 L-241,144 L-232,139 L-223,136 L-217,132 L-213,129 L-210,129 L-210,127 L-208,127 L-207,124 L-201,122 L-188,112 L-181,110 L-178,107 L-169,103 L-164,103 L-162,99 L-159,97 L-156,97 L-155,94 L-152,93 L-150,89 L-148,89 L-147,85 L-142,83 L-133,78 L-127,75 L-117,69 L-112,65 L-102,60 L-100,60 L-99,56 L-94,54 L-87,50 L-81,47 L-80,45 L-75,43 L-67,38 L-60,35 L-55,31 L-51,31 L-51,29 L-47,27 L-46,25 L-38,22 L-32,18 L-22,15 L-12,7 L-9,6 L-8,4 Z " fill="#1E2021" transform="translate(1134,2840)"/>
<path d="M0,0 L1,0 L1,5 L7,5 L9,6 L12,11 L19,17 L20,22 L26,23 L29,26 L29,28 L33,30 L36,33 L41,36 L46,41 L56,48 L56,50 L62,52 L64,57 L69,62 L73,64 L73,66 L76,66 L77,68 L82,71 L89,79 L99,84 L102,88 L107,90 L112,94 L116,96 L116,98 L119,98 L119,101 L121,101 L121,103 L126,103 L127,105 L134,108 L138,111 L141,112 L142,115 L149,118 L149,121 L158,122 L158,124 L162,126 L162,128 L169,129 L175,133 L178,136 L181,137 L181,141 L187,142 L187,144 L194,144 L195,149 L199,151 L201,153 L201,156 L205,157 L205,161 L213,161 L219,157 L219,159 L222,159 L220,173 L214,208 L206,236 L198,256 L191,268 L182,278 L178,279 L166,277 L75,277 L50,275 L35,274 L35,271 L33,271 L32,273 L26,268 L17,256 L9,243 L2,228 L-3,212 L-6,198 L-7,188 L-7,159 L-4,118 L-3,44 L-2,26 L-1,19 Z " fill="#1E1F20" transform="translate(1246,2838)"/>
<path d="M0,0 L10,2 L34,9 L55,14 L84,21 L109,26 L135,30 L148,31 L149,36 L140,93 L139,98 L127,95 L121,93 L105,91 L61,86 L16,79 L-9,74 L-13,73 L-12,58 L-4,4 L-1,4 L4,10 L6,11 L4,7 L0,2 Z " fill="#212121" transform="translate(870,3091)"/>
<path d="M0,0 L12,1 L34,4 L47,5 L141,5 L139,8 L140,13 L138,48 L137,60 L135,63 L117,59 L71,55 L56,54 L-4,54 L-1,25 L0,3 L1,2 Z " fill="#1C1C1C" transform="translate(1281,3113)"/>
<path d="M0,0 L10,2 L18,4 L17,13 L11,45 L5,70 L2,76 L-9,74 L-13,73 L-12,58 L-4,4 L-1,4 L4,10 L6,11 L4,7 L0,2 Z " fill="#292929" transform="translate(870,3091)"/>
<path d="M0,0 L3,1 L3,4 L6,5 L10,9 L13,10 L18,16 L21,17 L21,19 L25,20 L29,23 L29,25 L33,25 L34,31 L37,31 L37,33 L41,33 L43,40 L50,41 L50,44 L56,47 L58,51 L64,49 L64,52 L67,52 L68,55 L77,60 L76,66 L79,65 L89,70 L88,77 L91,78 L91,76 L96,78 L98,79 L98,81 L96,82 L100,88 L103,90 L105,93 L110,95 L114,97 L114,99 L111,100 L112,103 L109,104 L103,95 L96,89 L93,85 L93,83 L91,83 L90,80 L81,75 L79,70 L74,69 L69,62 L69,59 L60,56 L57,54 L57,52 L53,51 L53,49 L49,48 L49,46 L46,46 L43,43 L37,40 L35,35 L30,34 L26,29 L26,26 L23,25 L23,23 L21,23 L20,26 L19,22 L16,22 L16,19 L14,19 L11,13 L9,12 L9,10 L4,8 L0,2 Z M63,52 Z " fill="#373B3C" transform="translate(1031,2101)"/>
<path d="M0,0 L0,3 L-4,4 L-4,6 L-7,7 L-12,13 L-18,16 L-21,16 L-21,18 L-30,23 L-36,25 L-41,29 L-48,32 L-57,37 L-59,37 L-59,39 L-69,45 L-71,45 L-71,47 L-86,55 L-93,60 L-103,64 L-108,68 L-113,71 L-117,74 L-127,79 L-132,82 L-147,90 L-150,89 L-148,89 L-147,85 L-142,83 L-133,78 L-127,75 L-117,69 L-112,65 L-102,60 L-100,60 L-99,56 L-94,54 L-87,50 L-81,47 L-80,45 L-75,43 L-67,38 L-60,35 L-55,31 L-51,31 L-51,29 L-47,27 L-46,25 L-38,22 L-32,18 L-22,15 L-12,7 L-9,6 L-8,4 Z " fill="#474C4D" transform="translate(1134,2840)"/>
<path d="M0,0 L14,0 L39,2 L130,2 L142,4 L141,7 L46,7 L25,5 L0,1 Z " fill="#010101" transform="translate(1282,3112)"/>
<path d="M0,0 L4,0 L4,2 L8,4 L12,6 L16,12 L24,16 L24,18 L29,20 L34,23 L34,25 L39,27 L43,32 L47,34 L47,37 L50,37 L50,39 L56,40 L65,45 L67,46 L67,48 L71,50 L73,53 L78,54 L78,56 L80,56 L81,58 L87,60 L89,65 L97,66 L103,68 L103,70 L108,72 L108,74 L111,74 L111,77 L113,77 L112,79 L107,76 L100,74 L96,70 L96,68 L87,67 L87,64 L82,63 L79,61 L79,58 L74,57 L71,54 L64,51 L64,49 L59,49 L59,47 L57,47 L57,44 L54,44 L53,42 L46,38 L44,36 L39,34 L36,30 L26,25 L18,16 L14,14 L14,12 L11,12 L11,10 L7,9 L2,4 Z " fill="#696F72" transform="translate(1308,2892)"/>
<path d="M0,0 L7,6 L17,11 L20,15 L25,17 L30,21 L34,23 L34,25 L37,25 L37,28 L39,28 L39,30 L44,30 L45,32 L52,35 L56,38 L59,39 L60,42 L67,45 L67,48 L76,49 L76,51 L80,53 L80,55 L87,56 L93,60 L96,63 L99,64 L99,68 L105,69 L105,71 L112,71 L113,76 L117,78 L119,80 L119,83 L123,84 L123,88 L125,89 L120,88 L120,85 L118,85 L115,80 L106,75 L105,73 L100,71 L100,69 L97,69 L95,66 L87,63 L82,61 L72,54 L72,52 L67,50 L66,46 L61,46 L56,43 L56,41 L53,40 L53,38 L50,38 L50,36 L40,35 L35,30 L31,26 L31,24 L26,23 L22,18 L13,13 L12,11 L7,9 L0,2 Z " fill="#3A3D3F" transform="translate(1328,2911)"/>
<path d="M0,0 L4,1 L-3,4 L-4,7 L-13,10 L-14,12 L-18,12 L-18,14 L-23,15 L-23,18 L-30,21 L-32,21 L-32,24 L-42,26 L-42,29 L-49,30 L-49,32 L-51,32 L-52,35 L-61,37 L-61,41 L-70,43 L-71,46 L-75,46 L-75,48 L-80,49 L-81,52 L-90,54 L-90,57 L-94,57 L-94,59 L-99,60 L-100,63 L-107,64 L-109,70 L-117,72 L-119,75 L-123,74 L-119,73 L-118,70 L-116,70 L-116,68 L-111,67 L-110,64 L-101,59 L-99,57 L-92,56 L-91,53 L-85,50 L-82,50 L-80,46 L-75,45 L-74,43 L-72,44 L-70,40 L-63,39 L-62,36 L-56,33 L-53,33 L-52,30 L-46,27 L-44,28 L-42,23 L-37,23 L-36,20 L-28,16 L-24,16 L-24,13 L-16,9 L-11,6 L-5,5 L-4,2 Z M-46,26 Z " fill="#393C3D" transform="translate(1479,2196)"/>
<path d="M0,0 L2,0 L2,3 L5,3 L6,6 L15,11 L14,17 L17,16 L27,21 L26,28 L29,29 L29,27 L34,29 L36,30 L36,32 L34,33 L38,39 L41,41 L43,44 L48,46 L52,48 L52,50 L49,51 L50,54 L47,55 L41,46 L34,40 L31,36 L31,34 L29,34 L28,31 L19,26 L17,21 L12,20 L7,13 L6,9 L4,8 L4,5 L0,5 L0,3 L-3,2 Z M1,3 Z " fill="#3A3D3F" transform="translate(1093,2150)"/>
<path d="M0,0 L4,2 L17,3 L17,5 L21,6 L23,11 L35,14 L40,22 L44,24 L44,26 L48,28 L47,31 L46,28 L38,28 L36,21 L31,20 L29,18 L24,18 L26,14 L19,13 L15,11 L12,8 L12,10 L14,11 L9,12 L7,10 L8,5 L5,7 L0,7 L-1,3 Z " fill="#6E7477" transform="translate(996,2087)"/>
<path d="M0,0 L4,2 L10,7 L21,14 L22,18 L26,20 L26,22 L21,20 L26,25 L32,29 L32,32 L36,33 L39,38 L41,39 L42,44 L44,47 L40,47 L40,43 L38,43 L35,37 L31,36 L27,29 L23,28 L20,23 L17,20 L12,18 L8,10 L3,7 L2,3 Z " fill="#383B3D" transform="translate(1143,2204)"/>
<path d="M0,0 L7,1 L10,6 L17,12 L18,17 L24,18 L27,21 L27,23 L31,25 L34,28 L39,31 L44,36 L54,43 L54,45 L60,47 L60,49 L55,49 L49,44 L49,42 L43,40 L38,37 L37,34 L31,29 L30,27 L27,26 L24,22 L17,18 L9,12 L5,7 L5,2 L0,1 Z " fill="#595E60" transform="translate(1248,2843)"/>
<path d="M0,0 L5,2 L10,4 L10,6 L14,8 L16,11 L21,12 L21,14 L23,14 L24,16 L30,18 L32,23 L40,24 L46,26 L46,28 L51,30 L51,32 L54,32 L54,35 L56,35 L55,37 L50,34 L43,32 L39,28 L39,26 L30,25 L30,22 L25,21 L22,19 L22,16 L17,15 L14,12 L11,11 L10,7 L4,5 Z " fill="#737A7C" transform="translate(1365,2934)"/>
<path d="M0,0 L7,0 L3,3 L0,4 L-2,8 L-11,9 L-11,12 L-20,15 L-21,17 L-25,17 L-25,19 L-30,21 L-31,23 L-39,26 L-41,29 L-47,31 L-50,34 L-54,34 L-54,36 L-64,40 L-64,37 L-61,37 L-58,34 L-51,30 L-45,28 L-45,26 L-41,25 L-40,23 L-36,22 L-35,20 L-31,19 L-25,15 L-23,15 L-21,12 L-17,11 L-16,9 L-12,8 L-7,4 L-3,2 Z " fill="#303334" transform="translate(1592,2129)"/>
<path d="M0,0 L4,3 L8,1 L11,1 L11,4 L14,4 L17,9 L18,12 L23,12 L23,16 L27,18 L32,21 L33,24 L36,25 L36,27 L40,28 L45,33 L44,40 L41,36 L41,33 L37,32 L35,31 L32,26 L29,23 L24,20 L24,18 L18,16 L14,9 L4,6 L0,2 Z " fill="#353839" transform="translate(1187,2251)"/>
<path d="M0,0 L9,2 L10,7 L14,7 L14,9 L20,9 L25,14 L25,17 L30,17 L33,22 L33,25 L37,25 L39,21 L45,21 L47,25 L43,24 L38,28 L32,28 L30,27 L30,23 L26,22 L23,17 L19,13 L19,10 L12,10 L12,8 L6,7 L6,3 L1,2 Z " fill="#656B6D" transform="translate(1421,2972)"/>
<path d="M0,0 L1,2 L5,4 L5,6 L12,7 L18,11 L21,14 L24,15 L24,19 L30,20 L30,22 L37,22 L38,27 L42,29 L44,31 L44,34 L48,35 L48,39 L50,40 L45,39 L45,36 L43,36 L40,31 L31,26 L30,24 L25,22 L25,20 L22,20 L20,15 L17,14 L17,12 L7,9 L0,5 Z " fill="#4A4E50" transform="translate(1403,2960)"/>
<path d="M0,0 L8,3 L13,12 L18,14 L21,19 L30,24 L30,27 L32,27 L36,32 L39,35 L39,37 L41,38 L36,38 L36,35 L33,34 L31,31 L31,28 L28,27 L28,25 L26,25 L25,28 L24,24 L22,24 L22,21 L18,19 L15,16 L9,16 L8,11 L5,8 L5,6 L2,6 L0,3 Z " fill="#878F92" transform="translate(1092,2157)"/>
<path d="M0,0 L2,4 L4,26 L5,36 L-2,36 L-1,1 Z " fill="#2C2C2C" transform="translate(1299,3130)"/>
<path d="M0,0 L3,0 L2,3 L-7,7 L-10,10 L-17,13 L-19,17 L-26,21 L-33,22 L-36,23 L-36,14 L-35,8 L-34,8 L-34,20 L-30,16 L-15,9 L-9,5 Z " fill="#5B6063" transform="translate(902,2979)"/>
<path d="M0,0 L6,4 L15,7 L19,14 L24,16 L26,19 L31,22 L35,27 L28,25 L28,23 L25,22 L25,20 L20,20 L20,16 L16,14 L16,12 L11,13 L11,10 L7,11 L5,7 L1,5 Z " fill="#7F8689" transform="translate(1187,2253)"/>
<path d="M0,0 L4,2 L17,3 L17,5 L21,6 L20,9 L20,7 L18,7 L18,12 L15,11 L12,8 L12,10 L14,11 L9,12 L7,10 L8,5 L5,7 L0,7 L-1,3 Z " fill="#787F82" transform="translate(996,2087)"/>
<path d="M0,0 L2,1 L0,4 L-3,5 L-4,7 L-11,11 L-12,13 L-22,16 L-28,20 L-31,22 L-37,24 L-40,24 L-37,21 L-32,21 L-32,19 L-29,18 L-28,15 L-23,12 L-19,11 L-18,9 L-12,7 L-4,2 L0,2 Z " fill="#575C5E" transform="translate(982,2930)"/>
<path d="M0,0 L3,1 L3,4 L6,5 L10,9 L13,10 L18,16 L21,17 L21,19 L25,20 L29,23 L29,25 L33,25 L34,31 L29,30 L27,25 L24,24 L24,22 L21,22 L21,20 L15,18 L13,17 L11,13 L9,12 L9,10 L4,8 L0,2 Z " fill="#3B3F40" transform="translate(1031,2101)"/>
<path d="M0,0 L2,0 L2,3 L5,3 L6,6 L15,11 L14,17 L17,18 L21,22 L23,24 L21,24 L22,27 L19,26 L17,21 L12,20 L7,13 L6,9 L4,8 L4,5 L0,5 L0,3 L-3,2 Z M1,3 Z " fill="#444849" transform="translate(1093,2150)"/>
<path d="M0,0 L0,3 L-4,4 L-4,6 L-7,7 L-12,13 L-18,16 L-21,16 L-21,18 L-30,23 L-38,25 L-35,21 L-26,16 L-19,13 L-12,7 L-9,6 L-8,4 Z " fill="#4B4F51" transform="translate(1134,2840)"/>
<path d="M0,0 L7,6 L17,11 L20,15 L25,17 L30,21 L34,23 L34,25 L37,25 L39,32 L35,30 L31,26 L31,24 L26,23 L22,18 L13,13 L12,11 L7,9 L0,2 Z " fill="#353839" transform="translate(1328,2911)"/>
<path d="M0,0 L4,1 L2,5 L-2,6 L-3,8 L-7,8 L-8,11 L-10,11 L-10,9 L-12,9 L-12,11 L-21,15 L-23,18 L-26,18 L-27,22 L-29,22 L-29,20 L-31,20 L-31,22 L-33,22 L-32,19 L-27,18 L-27,16 L-23,16 L-22,13 L-11,7 L-8,7 L-8,5 L-4,5 L-3,2 Z " fill="#80878A" transform="translate(1546,2158)"/>
<path d="M0,0 L1,0 L2,7 L7,7 L7,10 L11,12 L12,17 L16,18 L23,24 L25,29 L19,28 L18,23 L14,21 L8,15 L8,12 L0,11 Z " fill="#7E8588" transform="translate(1247,2832)"/>
<path d="M0,0 L2,1 L-8,9 L-13,10 L-14,12 L-16,12 L-16,14 L-23,18 L-29,22 L-35,24 L-32,20 L-30,20 L-28,16 L-25,15 L-24,13 L-20,13 L-20,11 L-10,6 L-6,5 L-5,2 Z " fill="#6B7174" transform="translate(940,2955)"/>
<path d="M0,0 L4,1 L2,2 L0,6 L-5,6 L-5,8 L-12,9 L-14,14 L-21,16 L-23,15 L-24,18 L-29,20 L-33,19 L-25,15 L-22,13 L-19,13 L-19,11 L-15,11 L-14,8 L-11,6 L-6,5 L-2,1 Z " fill="#71777A" transform="translate(1509,2180)"/>
<path d="M0,0 L2,1 L1,4 L-3,4 L-3,6 L-8,7 L-9,10 L-16,11 L-18,17 L-26,19 L-28,22 L-32,21 L-28,20 L-27,17 L-25,17 L-25,15 L-20,14 L-19,11 L-10,6 L-8,4 L-1,3 Z " fill="#484C4E" transform="translate(1388,2249)"/>
<path d="M0,0 L4,0 L9,2 L12,4 L12,6 L14,6 L16,2 L19,3 L18,5 L22,5 L23,10 L21,10 L21,8 L8,8 L3,4 L-1,3 Z M17,5 Z " fill="#353839" transform="translate(992,2082)"/>
<path d="M0,0 L4,1 L9,6 L20,14 L20,16 L26,18 L26,20 L21,20 L15,15 L15,13 L9,11 L4,8 L1,2 Z " fill="#616669" transform="translate(1282,2872)"/>
<path d="M0,0 L4,1 L-3,6 L-8,8 L-11,11 L-17,13 L-21,16 L-26,18 L-31,21 L-33,20 L-32,18 L-27,16 L-20,12 L-14,9 L-13,7 L-8,5 Z " fill="#787F82" transform="translate(1067,2878)"/>
<path d="M0,0 L1,4 L-4,8 L-6,8 L-6,6 L-8,6 L-9,9 L-13,11 L-14,14 L-18,15 L-23,19 L-28,19 L-28,17 L-19,14 L-19,11 L-14,10 L-14,8 L-10,8 L-9,5 L-4,3 L0,3 Z " fill="#787E81" transform="translate(1475,2200)"/>
<path d="M0,0 L4,3 L8,1 L11,1 L11,4 L14,4 L17,9 L18,12 L23,12 L22,16 L22,14 L16,13 L14,9 L4,6 L0,2 Z " fill="#3F4345" transform="translate(1187,2251)"/>
<path d="M0,0 L8,6 L11,8 L11,10 L7,9 L8,16 L3,11 L-2,9 Z " fill="#2A2C2D" transform="translate(984,2066)"/>
<path d="M0,0 L2,0 L3,2 L7,4 L7,7 L10,7 L10,9 L16,10 L21,15 L21,17 L27,19 L28,22 L24,21 L24,19 L19,19 L19,17 L17,17 L17,14 L14,14 L13,12 L6,8 L5,5 L0,2 Z " fill="#666C6E" transform="translate(1348,2922)"/>
<path d="M0,0 L4,2 L10,7 L14,11 L12,12 L12,14 L16,15 L18,16 L17,19 L12,18 L8,10 L3,7 L2,3 Z " fill="#414446" transform="translate(1143,2204)"/>
<path d="M0,0 L9,0 L5,2 L0,3 L-1,6 L-5,6 L-5,8 L-10,9 L-11,12 L-19,14 L-19,12 L-15,10 L-12,10 L-10,6 L-5,5 L-4,3 L-2,4 Z " fill="#3D4143" transform="translate(1409,2236)"/>
<path d="M0,0 L2,1 L1,3 L-7,6 L-8,10 L-17,14 L-22,15 L-21,11 L-14,8 L-10,8 L-8,4 L-4,2 L0,2 Z " fill="#414546" transform="translate(1302,2300)"/>
<path d="M0,0 L7,0 L3,3 L0,4 L-2,8 L-11,9 L-11,12 L-16,13 L-15,11 L-12,11 L-11,7 L-7,4 L-3,2 Z " fill="#4F5355" transform="translate(1592,2129)"/>
<path d="M0,0 L2,0 L2,2 L7,2 L8,4 L15,7 L19,10 L22,11 L21,13 L13,10 L13,8 L3,7 Z " fill="#404445" transform="translate(1365,2939)"/>
<path d="M0,0 L5,2 L9,5 L9,8 L13,10 L13,12 L8,10 L4,10 L5,6 L-1,4 Z " fill="#35383A" transform="translate(1156,2214)"/>
<path d="M0,0 L7,3 L7,5 L10,5 L15,11 L15,13 L20,14 L19,17 L16,17 L12,12 L12,9 L9,8 L9,6 L7,6 L6,9 L5,5 L2,5 L2,2 L0,2 Z " fill="#6E7477" transform="translate(1045,2118)"/>
<path d="M0,0 L6,1 L6,4 L11,5 L14,8 L14,11 L18,12 L18,16 L20,17 L15,16 L15,13 L13,13 L10,8 L1,3 Z " fill="#3E4244" transform="translate(1433,2983)"/>
<path d="M0,0 L4,1 L-1,4 L-4,5 L-5,8 L-15,13 L-18,12 L-16,12 L-15,8 L-10,6 L-1,1 Z " fill="#6D7376" transform="translate(1002,2917)"/>
<path d="M0,0 L4,1 L-3,4 L-4,7 L-13,10 L-14,12 L-18,12 L-18,14 L-23,15 L-23,13 L-15,8 L-9,5 L-5,5 L-4,2 Z " fill="#353739" transform="translate(1479,2196)"/>
<path d="M0,0 L3,1 L1,1 L-1,5 L-10,11 L-13,13 L-19,15 L-22,15 L-19,12 L-14,12 L-14,10 L-11,9 L-10,6 L-5,3 L-1,2 Z " fill="#777D80" transform="translate(964,2939)"/>
<path d="M0,0 L2,0 L2,2 L4,2 L5,4 L12,7 L14,9 L13,13 L11,11 L6,11 L8,7 L1,6 Z " fill="#7D8588" transform="translate(1014,2094)"/>
<path d="M0,0 L4,2 L9,5 L10,8 L14,9 L18,14 L21,16 L20,18 L9,9 L1,3 Z " fill="#373A3B" transform="translate(1265,2861)"/>
<path d="M0,0 L2,0 L2,2 L-8,8 L-10,8 L-10,10 L-21,16 L-23,15 L-17,11 L-15,11 L-13,7 L-6,4 Z " fill="#383C3D" transform="translate(1073,2877)"/>
<path d="M0,0 L2,0 L2,3 L5,3 L6,6 L15,11 L12,14 L8,12 L4,8 L4,5 L0,5 L0,3 L-3,2 Z M1,3 Z " fill="#2F3132" transform="translate(1093,2150)"/>
<path d="M0,0 L3,0 L3,2 L7,2 L9,9 L11,10 L11,12 L5,10 L2,7 L0,3 Z " fill="#383C3D" transform="translate(1065,2132)"/>
<path d="M0,0 L3,0 L6,5 L6,8 L10,8 L12,4 L18,4 L20,8 L16,7 L13,9 L5,9 L4,6 L2,5 L2,1 Z " fill="#889093" transform="translate(1448,2989)"/>
<path d="M0,0 L11,5 L9,12 L5,10 L4,6 L0,2 Z " fill="#2A2C2D" transform="translate(1109,2166)"/>
<path d="M0,0 L1,0 L1,12 L5,8 L14,4 L16,5 L10,9 L6,10 L5,13 L-1,15 L-1,6 Z " fill="#656B6E" transform="translate(867,2987)"/>
<path d="M0,0 L7,1 L10,6 L15,12 L10,11 L5,7 L5,2 L0,1 Z " fill="#5B6163" transform="translate(1248,2843)"/>
<path d="M0,0 L4,1 L1,1 L1,3 L-1,3 L-2,6 L-4,6 L-6,8 L-9,8 L-10,11 L-15,11 L-15,8 L-6,5 L-5,3 L-3,3 L-3,1 Z " fill="#7A8184" transform="translate(1433,2225)"/>
<path d="M0,0 L5,4 L8,1 L10,1 L10,4 L14,4 L14,8 L2,6 L0,3 Z " fill="#3C3F41" transform="translate(1017,2093)"/>
<path d="M0,0 L9,2 L10,7 L14,7 L14,9 L20,9 L23,13 L19,11 L12,10 L12,8 L6,7 L6,3 L1,2 Z " fill="#798083" transform="translate(1421,2972)"/>
<path d="M0,0 L5,0 L5,2 L-2,6 L-2,4 L-4,4 L-5,7 L-14,9 L-13,7 L-9,5 L-5,5 L-4,2 Z " fill="#777E81" transform="translate(1308,2298)"/>
<path d="M0,0 L2,1 L-3,5 L-12,11 L-18,13 L-13,8 L-9,7 L-9,5 L-7,5 L-6,2 Z " fill="#373A3B" transform="translate(933,2962)"/>
<path d="M0,0 L2,1 L-3,5 L-8,8 L-13,12 L-21,16 L-23,15 L-15,10 L-7,4 Z " fill="#696F72" transform="translate(1029,2901)"/>
<path d="M0,0 L1,2 L-7,6 L-9,9 L-12,9 L-13,13 L-15,13 L-15,11 L-17,11 L-17,13 L-19,13 L-18,10 L-13,9 L-13,7 L-9,7 L-8,4 Z " fill="#616769" transform="translate(1532,2167)"/>
<path d="M0,0 L2,1 L-1,4 L-13,10 L-16,10 L-5,1 Z " fill="#4D5153" transform="translate(951,2951)"/>
<path d="M0,0 L5,0 L2,3 L-2,3 L-2,6 L-6,6 L-6,8 L-11,9 L-12,11 L-11,6 L-6,4 L-3,3 L-3,1 Z " fill="#383B3D" transform="translate(1611,2118)"/>
<path d="M0,0 L1,2 L5,4 L5,6 L12,7 L18,11 L15,12 L6,8 L0,5 Z " fill="#5B6063" transform="translate(1403,2960)"/>
<path d="M0,0 L5,0 L0,5 L-4,5 L-4,7 L-9,9 L-10,11 L-14,11 L-13,8 L-11,8 L-8,5 L-1,1 Z " fill="#303334" transform="translate(1523,2169)"/>
<path d="M0,0 L3,2 L3,5 L8,6 L10,12 L12,12 L12,16 L16,17 L11,17 L9,15 L7,8 L1,7 Z " fill="#798083" transform="translate(1171,2235)"/>
<path d="M0,0 L4,1 L4,4 L6,4 L10,9 L13,12 L13,14 L15,15 L10,15 L10,12 L7,11 L5,8 L5,5 L2,4 Z " fill="#696F72" transform="translate(1118,2180)"/>
<path d="M0,0 L6,1 L9,2 L9,4 L13,4 L13,7 L16,8 L14,9 L4,4 L4,2 L0,1 Z " fill="#4F5355" transform="translate(1084,2151)"/>
<path d="M0,0 L5,1 L8,6 L13,9 L14,12 L12,15 L11,11 L9,11 L9,8 L5,6 L0,2 Z " fill="#767D80" transform="translate(1105,2170)"/>
<path d="M0,0 L2,1 L4,4 L8,6 L10,10 L13,13 L7,13 L6,7 L2,6 L0,5 Z " fill="#7E8588" transform="translate(1137,2200)"/>
<path d="M0,0 L2,1 L-5,6 L-6,8 L-13,8 L-15,12 L-19,11 L-15,9 L-14,7 L-6,4 Z " fill="#6F7578" transform="translate(1102,2858)"/>
<path d="M0,0 L6,4 L11,7 L11,10 L7,11 L5,7 L1,5 Z " fill="#848C8F" transform="translate(1187,2253)"/>
<path d="M0,0 L5,1 L5,3 L9,3 L10,9 L5,8 L3,3 L0,2 Z " fill="#3D4142" transform="translate(1055,2123)"/>
<path d="M0,0 L5,5 L6,7 L5,9 L9,10 L8,15 L5,13 L2,5 L-1,4 Z " fill="#7D8487" transform="translate(986,2076)"/>
<path d="M0,0 L2,1 L3,5 L3,19 L1,15 L0,9 Z " fill="#282828" transform="translate(1309,3145)"/>
<path d="M0,0 L3,1 L1,4 L-3,4 L-3,6 L-8,7 L-9,10 L-16,11 L-14,9 L-10,9 L-8,4 L-1,2 Z " fill="#393D3F" transform="translate(1340,2277)"/>
<path d="M0,0 L1,2 L4,2 L4,4 L-6,7 L-11,7 L-11,5 L-4,3 Z " fill="#3C3F41" transform="translate(1464,2995)"/>
<path d="M0,0 L5,0 L4,3 L-3,7 L-7,6 L-6,4 L-1,1 Z " fill="#3E4143" transform="translate(879,2993)"/>
<path d="M0,0 L5,2 L10,4 L10,6 L14,8 L15,10 L10,9 L10,7 L4,5 Z " fill="#848C8F" transform="translate(1365,2934)"/>
<path d="M0,0 L2,0 L3,2 L7,4 L7,7 L10,7 L10,9 L16,10 L17,12 L14,13 L6,8 L5,5 L0,2 Z " fill="#71777A" transform="translate(1348,2922)"/>
<path d="M0,0 L5,1 L11,8 L10,11 L5,7 L2,3 L2,1 Z " fill="#0B0B0B" transform="translate(866,3092)"/>
<path d="M0,0 L5,0 L5,3 L1,4 L-4,8 L-9,8 L-9,6 L0,3 Z " fill="#889093" transform="translate(1456,2211)"/>
<path d="M0,0 L4,1 L0,5 L-4,5 L-4,7 L-11,10 L-9,6 Z " fill="#303334" transform="translate(1494,2186)"/>
<path d="M0,0 L4,1 L2,2 L0,6 L-5,6 L-5,8 L-8,7 L-3,2 Z " fill="#7D8488" transform="translate(1509,2180)"/>
<path d="M0,0 L4,3 L8,1 L11,1 L11,4 L14,5 L4,6 L0,2 Z " fill="#383B3D" transform="translate(1187,2251)"/>
<path d="M0,0 L4,1 L2,4 L0,4 L-9,8 L-10,10 L-12,9 L-8,5 L-2,4 Z " fill="#73797C" transform="translate(1563,2148)"/>
<path d="M0,0 L2,1 L-4,6 L-12,10 L-14,9 L-9,5 Z " fill="#575C5E" transform="translate(919,2969)"/>
<path d="M0,0 L7,1 L10,6 L14,8 L13,10 L7,7 L4,3 L0,1 Z " fill="#565B5D" transform="translate(1340,2919)"/>
<path d="M0,0 L7,0 L7,2 L11,3 L10,6 L10,4 L8,4 L8,9 L6,9 L6,2 L0,1 Z " fill="#5D6264" transform="translate(1006,2090)"/>
<path d="M0,0 L2,1 L1,4 L-6,6 L-11,9 L-13,8 L-8,5 L-7,3 L-3,3 L-3,1 Z " fill="#7B8285" transform="translate(923,2965)"/>
<path d="M0,0 L5,0 L0,5 L-5,7 L-8,6 L-5,3 Z " fill="#777E81" transform="translate(1112,2851)"/>
<path d="M0,0 L5,1 L5,3 L9,4 L10,7 L13,8 L12,10 L7,7 L7,5 L1,3 Z " fill="#505557" transform="translate(1204,2264)"/>
<path d="M0,0 L3,1 L2,3 L6,3 L6,5 L-7,5 L-6,3 L-4,2 L-4,4 L-2,4 Z M1,3 Z " fill="#2A2C2E" transform="translate(1008,2084)"/>
<path d="M0,0 L2,1 L-1,12 L-2,18 L-4,14 L-2,5 Z " fill="#252525" transform="translate(1303,3116)"/>
<path d="M0,0 L3,1 L-3,4 L-6,9 L-13,9 L-10,8 L-10,6 L-6,6 L-4,2 Z " fill="#71787B" transform="translate(1347,2275)"/>
<path d="M0,0 L4,0 L4,2 L8,4 L12,6 L11,8 L6,5 L1,3 Z " fill="#6B7174" transform="translate(1308,2892)"/>
<path d="M0,0 L8,2 L9,7 L11,7 L10,9 L0,2 Z " fill="#515658" transform="translate(1257,2853)"/>
<path d="M0,0 L2,3 L3,1 L5,1 L8,4 L9,8 L7,8 L5,6 L2,7 L1,4 L-1,3 Z " fill="#8B9296" transform="translate(1049,2123)"/>
<path d="M0,0 L6,3 L6,5 L10,6 L13,9 L6,8 L6,6 L2,4 Z " fill="#303334" transform="translate(1046,2115)"/>
<path d="M0,0 L6,1 L6,3 L11,5 L11,7 L6,6 L0,1 Z " fill="#899194" transform="translate(1405,2959)"/>
<path d="M0,0 L2,1 L1,3 L-4,4 L-4,6 L-11,8 L-11,6 L-6,5 L-4,1 Z " fill="#393D3E" transform="translate(1355,2269)"/>
<path d="M0,0 L1,0 L1,5 L-6,8 L-8,8 L-7,5 L-4,3 L0,3 Z " fill="#434749" transform="translate(1455,2209)"/>
<path d="M0,0 L8,3 L8,5 L6,5 L5,7 L2,6 L0,3 Z " fill="#7B8285" transform="translate(1092,2157)"/>
<path d="M0,0 L5,0 L8,4 L8,6 L12,7 L7,7 L7,5 L3,4 L3,2 L0,1 Z " fill="#838A8D" transform="translate(1389,2951)"/>
<path d="M0,0 L8,4 L7,7 L2,6 Z " fill="#585D5F" transform="translate(1153,2216)"/>
<path d="M0,0 L3,0 L2,4 L-3,6 L-7,5 L-3,3 Z " fill="#889093" transform="translate(1602,2126)"/>
<path d="M0,0 L6,2 L11,7 L13,11 L9,9 L5,5 L5,3 L0,2 Z " fill="#303234" transform="translate(1354,2932)"/>
<path d="M0,0 L4,1 L4,3 L8,4 L9,5 L9,11 L6,7 L6,4 L2,3 L0,2 Z " fill="#62686A" transform="translate(1222,2280)"/>
<path d="M0,0 L4,3 L4,6 L9,7 L8,9 L3,7 L3,4 L-1,4 Z " fill="#7D8588" transform="translate(1162,2226)"/>
<path d="M0,0 L7,6 L6,10 L1,4 L-3,2 Z " fill="#44484A" transform="translate(985,2072)"/>
<path d="M0,0 L1,0 L1,8 L0,11 L-2,11 L-1,1 Z M-3,11 Z " fill="#2A2A2A" transform="translate(1289,3127)"/>
<path d="M0,0 L6,0 L1,4 L-6,6 L-5,3 Z " fill="#525759" transform="translate(888,2987)"/>
<path d="M0,0 L1,3 L-3,5 L-6,8 L-6,6 L-8,6 L-9,8 L-9,5 L-4,4 L-4,2 L0,2 Z " fill="#787F83" transform="translate(1322,2290)"/>
<path d="M0,0 L3,1 L5,4 L10,6 L7,8 L3,6 Z " fill="#2F3133" transform="translate(1131,2190)"/>
<path d="M0,0 L5,2 L9,5 L9,7 L3,5 L0,2 Z " fill="#61676A" transform="translate(1067,2137)"/>
<path d="M0,0 L4,1 L4,4 L10,4 L11,8 L9,7 L9,5 L1,5 Z " fill="#81898C" transform="translate(1033,2110)"/>
<path d="M0,0 L4,1 L2,1 L2,4 L-7,6 L-2,1 Z " fill="#383B3C" transform="translate(1311,2294)"/>
<path d="M0,0 L2,1 L0,5 L-4,7 L-4,5 L-9,6 L-8,4 L-1,2 Z M-5,7 Z " fill="#7A8184" transform="translate(1332,2284)"/>
<path d="M0,0 L4,0 L6,6 L8,10 L2,5 Z " fill="#35393A" transform="translate(1249,2845)"/>
<path d="M0,0 L7,0 L4,1 L3,4 L-2,4 L-2,1 Z " fill="#81888B" transform="translate(1420,2232)"/>
<path d="M0,0 L7,0 L3,3 L-2,3 L-2,5 L-4,5 L-2,1 Z " fill="#383B3C" transform="translate(1592,2129)"/>
<path d="M0,0 L6,2 L11,7 L7,6 L3,4 L3,2 L0,1 Z " fill="#35383A" transform="translate(1381,2950)"/>
<path d="M0,0 L2,0 L2,2 L7,2 L8,4 L11,6 L4,5 L0,1 Z " fill="#4C5052" transform="translate(1365,2939)"/>
<path d="M0,0 L7,4 L7,6 L10,6 L10,9 L6,7 L5,4 L1,3 Z " fill="#4D5254" transform="translate(1355,2930)"/>
<path d="M0,0 L4,2 L8,4 L7,8 L7,6 L3,5 Z " fill="#4A4E50" transform="translate(1312,2896)"/>
<path d="M0,0 L4,2 L8,7 L1,5 Z " fill="#686E70" transform="translate(1214,2273)"/>
<path d="M0,0 L6,2 L6,5 L4,4 L4,7 L2,7 Z " fill="#686F71" transform="translate(1196,2258)"/>
<path d="M0,0 L5,0 L3,4 L-2,4 L-2,1 Z " fill="#80888B" transform="translate(1391,2249)"/>
<path d="M0,0 L4,1 L1,1 L0,5 L-2,5 L-2,3 L-4,3 L-4,5 L-6,5 L-5,2 Z " fill="#7C8386" transform="translate(1519,2175)"/>
<path d="M0,0 L4,1 L5,4 L1,3 L-3,5 L-2,1 Z " fill="#6D7376" transform="translate(1463,2993)"/>
<path d="M0,0 L2,1 L-1,4 L-7,7 L-9,6 L-3,1 Z " fill="#393D3E" transform="translate(951,2951)"/>
<path d="M0,0 L4,1 L4,3 L9,5 L9,6 L2,5 L2,1 Z " fill="#7D8588" transform="translate(1338,2914)"/>
<path d="M0,0 L2,0 L2,2 L8,4 L8,6 L3,6 L0,1 Z " fill="#595F61" transform="translate(1300,2886)"/>
<path d="M0,0 L4,1 L-3,6 L-6,5 L-4,5 L-4,3 Z " fill="#686E70" transform="translate(1067,2878)"/>
<path d="M0,0 L3,1 L-2,5 L-7,5 L-5,2 Z " fill="#90989C" transform="translate(1291,2310)"/>
<path d="M0,0 L5,2 L7,3 L7,5 L2,5 L0,3 Z " fill="#2C2F30" transform="translate(1122,2177)"/>
<path d="M0,0 L2,1 L-3,2 L-3,5 L-8,5 L-6,1 Z " fill="#7C8386" transform="translate(1579,2141)"/>
<path d="M0,0 L6,1 L6,4 L9,5 L7,6 L1,3 Z " fill="#343739" transform="translate(1433,2983)"/>
<path d="M0,0 L2,1 L-2,5 L-7,6 L-4,2 Z " fill="#3C3F41" transform="translate(960,2945)"/>
<path d="M0,0 L6,0 L4,3 L-3,5 Z " fill="#434749" transform="translate(1089,2866)"/>
<path d="M0,0 L9,0 L5,2 L0,3 L-1,5 Z " fill="#474B4D" transform="translate(1409,2236)"/>
<path d="M0,0 L6,2 L7,5 L10,6 L5,5 L1,3 Z " fill="#7F878A" transform="translate(1070,2142)"/>
<path d="M0,0 L4,2 L5,6 L1,5 L-1,1 Z " fill="#878F92" transform="translate(1063,2134)"/>
<path d="M0,0 L6,2 L9,5 L7,6 L2,3 Z " fill="#4F5455" transform="translate(1331,2913)"/>
<path d="M0,0 L2,1 L-2,6 L-8,7 L-4,3 Z " fill="#686E71" transform="translate(1079,2871)"/>
<path d="M0,0 L7,4 L8,6 L3,5 L0,2 Z " fill="#343739" transform="translate(1257,2855)"/>
<path d="M0,0 L3,1 L3,4 L6,6 L0,6 L-1,2 Z " fill="#858D90" transform="translate(1144,2207)"/>
<path d="M0,0 L6,2 L11,4 L11,5 L5,5 Z " fill="#434749" transform="translate(1407,2967)"/>
<path d="M0,0 L1,2 L-2,5 L-8,6 L-7,4 L-4,4 L-4,2 Z " fill="#404446" transform="translate(1134,2842)"/>
<path d="M0,0 L4,1 L6,7 L0,3 Z " fill="#858D90" transform="translate(1224,2283)"/>
<path d="M0,0 L3,0 L7,7 L3,7 L3,3 L1,3 Z " fill="#494D4F" transform="translate(1180,2244)"/>
<path d="M0,0 L2,0 L3,2 L6,3 L6,5 L8,6 L2,6 Z " fill="#787F82" transform="translate(1082,2150)"/>
<path d="M0,0 L6,4 L6,6 L8,7 L3,7 L3,4 L0,3 Z " fill="#63696C" transform="translate(1034,2107)"/>
<path d="M0,0 L2,0 L4,5 L6,7 L1,6 Z " fill="#858C90" transform="translate(1014,2094)"/>
<path d="M0,0 L4,0 L4,2 L1,2 L0,5 L-2,5 L-3,2 L0,2 Z " fill="#838A8D" transform="translate(1404,2242)"/>
<path d="M0,0 L7,3 L7,5 L2,5 Z " fill="#303234" transform="translate(1109,2166)"/>
<path d="M0,0 L2,0 L2,3 L6,3 L5,7 L4,5 L0,4 L-1,1 Z " fill="#2D2F31" transform="translate(1025,2094)"/>
</svg>
