<?xml version="1.0" encoding="UTF-8"?>
<svg version="1.1" xmlns="http://www.w3.org/2000/svg" width="2500" height="3686">
<path d="M0,0 L5,1 L10,4 L11,12 L7,28 L0,49 L-11,79 L-27,124 L-40,159 L-52,195 L-62,227 L-82,306 L-92,346 L-105,395 L-113,429 L-117,457 L-117,494 L-113,531 L-109,570 L-105,625 L-105,646 L-108,662 L-113,674 L-121,686 L-134,699 L-149,710 L-167,721 L-188,732 L-209,740 L-233,747 L-260,753 L-295,758 L-321,760 L-361,760 L-380,757 L-391,753 L-401,744 L-405,736 L-406,732 L-406,711 L-400,686 L-393,666 L-382,641 L-370,617 L-358,595 L-344,570 L-330,546 L-315,519 L-302,492 L-293,468 L-285,442 L-274,398 L-266,357 L-249,262 L-237,196 L-229,142 L-221,68 L-217,29 L-215,15 L-219,15 L-219,13 L-215,12 L-213,2 L-210,2 L-209,3 L-208,13 L-172,16 L-122,17 L-92,16 L-34,12 L-7,9 L5,7 L0,2 Z " fill="#FEFEFE" transform="translate(1129,2742)"/>
<path d="M0,0 L6,0 L18,11 L26,16 L39,21 L71,29 L91,32 L103,33 L131,33 L160,30 L179,26 L194,20 L199,16 L203,17 L203,24 L194,72 L178,179 L161,286 L153,339 L148,383 L146,412 L146,476 L150,517 L160,589 L163,606 L167,633 L168,646 L168,674 L166,692 L162,708 L155,722 L151,727 L142,733 L131,737 L111,740 L96,741 L53,741 L28,737 L16,733 L3,726 L-5,719 L-14,707 L-22,691 L-28,674 L-32,657 L-34,643 L-35,630 L-35,613 L-32,584 L-25,550 L-16,512 L-11,483 L-7,444 L1,325 L3,278 L3,221 L2,134 L0,80 L-2,28 L-2,7 Z " fill="#FEFEFE" transform="translate(1274,2756)"/>
<path d="M0,0 L5,1 L10,4 L11,12 L7,28 L0,49 L-11,79 L-27,124 L-40,159 L-52,195 L-62,227 L-82,306 L-92,346 L-105,395 L-113,429 L-117,457 L-117,494 L-113,531 L-109,570 L-105,625 L-105,646 L-108,662 L-113,674 L-121,686 L-134,699 L-149,710 L-167,721 L-188,732 L-209,740 L-233,747 L-260,753 L-295,758 L-321,760 L-361,760 L-380,757 L-391,753 L-401,744 L-405,736 L-406,732 L-406,711 L-400,686 L-393,666 L-382,641 L-370,617 L-358,595 L-344,570 L-330,546 L-315,519 L-302,492 L-293,468 L-285,442 L-274,398 L-266,357 L-249,262 L-237,196 L-229,142 L-221,68 L-217,29 L-215,15 L-219,15 L-219,13 L-215,12 L-213,2 L-210,2 L-209,3 L-208,13 L-172,16 L-122,17 L-92,16 L-34,12 L-7,9 L5,7 L0,2 Z M3,11 L-12,14 L-40,17 L-78,20 L-101,21 L-152,21 L-181,19 L-204,16 L-210,16 L-210,19 L-212,19 L-213,15 L-218,86 L-225,153 L-233,206 L-250,300 L-265,383 L-274,423 L-283,456 L-293,486 L-305,513 L-317,536 L-331,560 L-345,585 L-358,608 L-375,640 L-386,664 L-394,685 L-399,704 L-400,709 L-400,732 L-395,742 L-388,748 L-378,752 L-365,754 L-319,754 L-286,751 L-256,746 L-226,739 L-199,730 L-179,721 L-157,708 L-140,696 L-127,684 L-118,671 L-113,659 L-111,649 L-111,621 L-113,597 L-116,557 L-122,504 L-123,492 L-123,461 L-119,432 L-111,396 L-91,321 L-71,241 L-59,200 L-43,152 L-26,106 L-10,61 L2,28 L6,13 L6,11 Z " fill="#030303" transform="translate(1129,2742)"/>
<path d="M0,0 L6,0 L18,11 L26,16 L39,21 L71,29 L91,32 L103,33 L131,33 L160,30 L179,26 L194,20 L199,16 L203,17 L203,24 L194,72 L178,179 L161,286 L153,339 L148,383 L146,412 L146,476 L150,517 L160,589 L163,606 L167,633 L168,646 L168,674 L166,692 L162,708 L155,722 L151,727 L142,733 L131,737 L111,740 L96,741 L53,741 L28,737 L16,733 L3,726 L-5,719 L-14,707 L-22,691 L-28,674 L-32,657 L-34,643 L-35,630 L-35,613 L-32,584 L-25,550 L-16,512 L-11,483 L-7,444 L1,325 L3,278 L3,221 L2,134 L0,80 L-2,28 L-2,7 Z M4,6 L4,32 L6,83 L7,100 L8,141 L9,216 L9,285 L7,327 L2,402 L-2,458 L-6,491 L-13,527 L-22,564 L-27,592 L-28,602 L-28,636 L-25,658 L-20,677 L-14,693 L-8,704 L-1,713 L7,721 L23,729 L39,733 L55,735 L86,735 L116,733 L134,729 L145,723 L151,716 L156,706 L160,691 L161,683 L161,636 L158,602 L156,589 L150,557 L145,522 L141,484 L140,469 L140,423 L142,389 L146,350 L154,295 L177,151 L188,78 L197,28 L196,25 L181,31 L164,35 L148,37 L134,38 L99,38 L75,35 L52,30 L34,24 L18,16 L5,6 Z " fill="#030303" transform="translate(1274,2756)"/>
<path d="M0,0 L4,1 L3,4 L0,3 Z " fill="#000000" transform="translate(1627,3254)"/>
</svg>
