<?xml version="1.0" encoding="UTF-8" standalone="no"?>
<svg
   version="1.1"
   width="2500"
   height="3686"
   id="svg172"
   sodipodi:docname="idle_2_default_girl.svg"
   inkscape:version="1.4.2 (f4327f4, 2025-05-13)"
   xmlns:inkscape="http://www.inkscape.org/namespaces/inkscape"
   xmlns:sodipodi="http://sodipodi.sourceforge.net/DTD/sodipodi-0.dtd"
   xmlns="http://www.w3.org/2000/svg"
   xmlns:svg="http://www.w3.org/2000/svg">
  <defs
     id="defs172" />
  <sodipodi:namedview
     id="namedview172"
     pagecolor="#ffffff"
     bordercolor="#000000"
     borderopacity="0.25"
     inkscape:showpageshadow="2"
     inkscape:pageopacity="0.0"
     inkscape:pagecheckerboard="0"
     inkscape:deskcolor="#d1d1d1"
     inkscape:zoom="0.96619071"
     inkscape:cx="626.17038"
     inkscape:cy="780.90173"
     inkscape:window-width="2560"
     inkscape:window-height="1369"
     inkscape:window-x="1072"
     inkscape:window-y="94"
     inkscape:window-maximized="1"
     inkscape:current-layer="svg172" />
  <path
     d="M0,0 L7,0 L11,2 L14,1 L19,7 L30,10 L33,9 L38,8 L51,10 L59,14 L69,21 L74,24 L78,25 L83,28 L88,28 L95,38 L97,40 L97,43 L101,44 L102,56 L104,59 L104,62 L106,62 L114,76 L124,89 L127,91 L128,95 L132,102 L138,113 L143,122 L149,138 L154,143 L161,151 L167,161 L171,167 L175,171 L180,174 L181,176 L186,178 L188,191 L192,199 L202,212 L207,217 L212,220 L217,221 L229,217 L234,218 L241,239 L241,242 L243,242 L245,248 L248,251 L247,254 L249,254 L251,266 L251,289 L250,302 L248,306 L247,312 L243,320 L241,320 L239,326 L235,330 L225,334 L217,339 L214,339 L212,348 L207,350 L157,363 L154,366 L145,378 L137,385 L133,389 L131,389 L131,391 L121,397 L103,403 L100,406 L97,408 L103,415 L109,420 L109,422 L112,423 L111,428 L107,433 L105,433 L104,436 L95,442 L86,445 L84,445 L86,463 L88,473 L90,482 L102,494 L109,502 L116,508 L118,513 L144,520 L162,525 L213,538 L233,545 L250,550 L268,556 L285,563 L304,573 L314,582 L322,591 L330,607 L336,623 L339,634 L343,657 L347,685 L352,737 L353,763 L353,855 L352,881 L351,890 L349,985 L342,1157 L340,1200 L338,1267 L336,1287 L335,1289 L333,1289 L334,1303 L346,1339 L356,1375 L368,1423 L377,1466 L380,1480 L385,1496 L388,1516 L389,1528 L390,1563 L389,1564 L384,1616 L376,1675 L360,1775 L342,1887 L338,1917 L324,1999 L316,2041 L315,2051 L304,2108 L303,2118 L296,2155 L295,2166 L289,2199 L288,2211 L284,2235 L283,2247 L280,2266 L277,2290 L275,2304 L274,2315 L271,2334 L270,2346 L266,2371 L264,2389 L260,2413 L258,2430 L252,2463 L249,2484 L241,2529 L238,2555 L232,2604 L229,2642 L229,2699 L232,2742 L234,2768 L239,2802 L249,2853 L252,2867 L253,2871 L253,2878 L252,2881 L252,2895 L256,2910 L260,2936 L260,2941 L251,2956 L226,2966 L213,2968 L204,2971 L192,2972 L189,2973 L131,2973 L109,2972 L103,2970 L102,2969 L93,2968 L85,2961 L76,2952 L71,2944 L65,2932 L59,2921 L48,2888 L47,2866 L46,2866 L45,2851 L51,2835 L59,2812 L71,2764 L77,2733 L80,2719 L85,2677 L88,2637 L90,2595 L90,2495 L89,2442 L87,2395 L85,2355 L83,2290 L83,2190 L89,2161 L94,2132 L101,2096 L103,2079 L109,2037 L110,2025 L111,2005 L112,1987 L113,1943 L112,1892 L110,1849 L107,1794 L106,1767 L106,1677 L107,1643 L107,1604 L104,1592 L97,1586 L89,1584 L75,1584 L65,1587 L59,1592 L53,1602 L47,1623 L34,1696 L18,1784 L4,1857 L-2,1891 L-10,1932 L-19,1971 L-31,2015 L-41,2053 L-44,2070 L-51,2107 L-54,2128 L-55,2142 L-59,2178 L-59,2189 L-62,2225 L-62,2236 L-66,2262 L-71,2283 L-80,2309 L-86,2325 L-92,2343 L-101,2367 L-110,2396 L-122,2430 L-126,2444 L-141,2493 L-153,2537 L-155,2548 L-173,2622 L-184,2673 L-188,2699 L-188,2709 L-187,2711 L-181,2772 L-171,2840 L-170,2850 L-170,2872 L-172,2879 L-176,2891 L-183,2902 L-191,2910 L-205,2921 L-219,2930 L-238,2941 L-261,2953 L-277,2961 L-291,2966 L-316,2972 L-347,2977 L-367,2979 L-392,2980 L-439,2979 L-456,2977 L-467,2973 L-475,2967 L-479,2959 L-480,2947 L-477,2930 L-470,2909 L-457,2881 L-446,2861 L-437,2842 L-431,2829 L-423,2814 L-412,2795 L-408,2787 L-403,2779 L-396,2767 L-393,2763 L-385,2747 L-383,2744 L-381,2744 L-379,2738 L-369,2720 L-363,2710 L-355,2691 L-349,2671 L-340,2630 L-324,2549 L-310,2472 L-309,2461 L-301,2412 L-295,2367 L-294,2353 L-287,2294 L-286,2280 L-284,2255 L-278,2186 L-278,2175 L-268,2067 L-257,1962 L-244,1853 L-235,1785 L-227,1733 L-217,1675 L-204,1607 L-186,1519 L-170,1442 L-166,1421 L-167,1410 L-174,1387 L-176,1386 L-186,1348 L-194,1317 L-203,1286 L-216,1244 L-226,1210 L-238,1168 L-253,1119 L-267,1075 L-279,1039 L-303,960 L-315,917 L-322,888 L-325,872 L-332,833 L-337,796 L-340,765 L-341,748 L-341,712 L-339,694 L-334,682 L-328,674 L-317,662 L-303,651 L-299,648 L-297,648 L-297,646 L-283,636 L-275,631 L-264,624 L-248,613 L-237,607 L-230,602 L-218,597 L-210,591 L-202,586 L-186,578 L-175,571 L-163,565 L-155,559 L-143,552 L-132,544 L-122,537 L-114,531 L-104,522 L-98,506 L-100,488 L-104,473 L-109,464 L-111,448 L-113,444 L-112,441 L-117,432 L-117,430 L-121,428 L-133,419 L-145,408 L-155,396 L-166,378 L-172,368 L-183,354 L-197,343 L-201,340 L-203,343 L-208,342 L-213,339 L-222,336 L-229,333 L-246,334 L-247,333 L-250,307 L-253,296 L-259,292 L-259,283 L-254,261 L-254,254 L-255,247 L-254,244 L-252,244 L-251,240 L-243,235 L-236,227 L-225,221 L-218,218 L-207,215 L-201,201 L-189,181 L-182,171 L-173,160 L-162,147 L-153,136 L-140,122 L-133,114 L-122,104 L-114,97 L-104,88 L-84,68 L-71,58 L-55,48 L-50,43 L-45,41 L-27,29 L-19,25 L-16,25 L-18,16 L-19,9 L-12,6 L-2,3 Z M90,490 Z M91,491 Z M92,492 L92,500 L94,509 L107,512 L116,513 L111,508 L97,496 Z "
     fill="#E5B7A2"
     transform="translate(1201,521)"
     id="path1" />
  <path
     d="M0,0 L7,0 L11,2 L14,1 L19,7 L30,10 L33,9 L38,8 L51,10 L59,14 L69,21 L74,24 L78,25 L83,28 L88,28 L95,38 L97,40 L97,43 L101,44 L102,56 L104,59 L104,62 L106,62 L114,76 L124,89 L127,91 L128,95 L132,102 L138,113 L143,122 L149,138 L154,143 L161,151 L167,161 L171,167 L175,171 L180,174 L181,176 L186,178 L188,191 L192,199 L202,212 L207,217 L211,219 L209,220 L206,229 L202,239 L217,231 L220,230 L227,230 L233,235 L235,240 L235,268 L232,287 L227,300 L221,311 L210,324 L200,331 L185,339 L171,344 L155,345 L148,356 L139,366 L130,375 L112,388 L91,401 L72,412 L70,412 L69,426 L68,466 L67,468 L65,468 L63,458 L63,443 L67,415 L38,430 L30,434 L27,434 L26,437 L11,442 L5,443 L-16,443 L-35,438 L-54,429 L-61,425 L-68,422 L-91,409 L-103,403 L-106,401 L-101,416 L-93,454 L-89,478 L-89,510 L-93,522 L-100,531 L-111,541 L-131,555 L-146,565 L-167,578 L-196,594 L-220,607 L-235,616 L-254,627 L-275,640 L-291,651 L-303,660 L-317,672 L-327,683 L-331,692 L-333,703 L-333,756 L-329,797 L-327,820 L-320,861 L-314,889 L-303,930 L-291,971 L-277,1017 L-264,1058 L-256,1083 L-256,1089 L-254,1089 L-242,1126 L-240,1137 L-234,1156 L-231,1163 L-228,1173 L-225,1187 L-221,1201 L-216,1219 L-196,1284 L-183,1330 L-177,1355 L-174,1375 L-173,1386 L-176,1386 L-186,1348 L-194,1317 L-203,1286 L-216,1244 L-226,1210 L-238,1168 L-253,1119 L-267,1075 L-279,1039 L-303,960 L-315,917 L-322,888 L-325,872 L-332,833 L-337,796 L-340,765 L-341,748 L-341,712 L-339,694 L-334,682 L-328,674 L-317,662 L-303,651 L-299,648 L-297,648 L-297,646 L-283,636 L-275,631 L-264,624 L-248,613 L-237,607 L-230,602 L-218,597 L-210,591 L-202,586 L-186,578 L-175,571 L-163,565 L-155,559 L-143,552 L-132,544 L-122,537 L-114,531 L-104,522 L-98,506 L-100,488 L-104,473 L-109,464 L-111,448 L-113,444 L-112,441 L-117,432 L-117,430 L-121,428 L-133,419 L-145,408 L-155,396 L-166,378 L-172,368 L-183,354 L-197,343 L-201,340 L-203,343 L-208,342 L-213,339 L-222,336 L-229,333 L-246,334 L-247,333 L-250,307 L-253,296 L-259,292 L-259,283 L-254,261 L-254,254 L-255,247 L-254,244 L-252,244 L-251,240 L-243,235 L-236,227 L-225,221 L-218,218 L-207,215 L-201,201 L-189,181 L-182,171 L-173,160 L-162,147 L-153,136 L-140,122 L-133,114 L-122,104 L-114,97 L-104,88 L-84,68 L-71,58 L-55,48 L-50,43 L-45,41 L-27,29 L-19,25 L-16,25 L-18,16 L-19,9 L-12,6 L-2,3 Z "
     fill="#0B0908"
     transform="translate(1201,521)"
     id="path2" />
  <path
     d="M0,0 L7,0 L11,2 L14,1 L19,7 L30,10 L33,9 L38,8 L51,10 L59,14 L69,21 L74,24 L78,25 L83,28 L88,28 L95,38 L97,40 L97,43 L101,44 L102,56 L104,59 L104,62 L106,62 L114,76 L124,89 L127,91 L128,95 L132,102 L138,113 L143,122 L149,138 L154,143 L161,151 L167,161 L171,167 L175,171 L180,174 L181,176 L186,178 L188,191 L192,199 L202,212 L206,216 L202,224 L198,235 L181,236 L182,234 L160,223 L151,210 L138,201 L130,197 L121,194 L115,193 L77,193 L56,198 L40,206 L30,215 L26,221 L23,229 L20,237 L19,250 L11,244 L0,241 L-17,241 L-25,244 L-30,248 L-34,252 L-37,229 L-42,216 L-48,206 L-57,197 L-66,191 L-73,188 L-80,185 L-98,182 L-121,182 L-133,183 L-141,187 L-154,192 L-166,199 L-178,210 L-185,220 L-191,221 L-188,226 L-189,233 L-189,250 L-187,262 L-185,268 L-182,304 L-181,317 L-190,315 L-202,307 L-212,299 L-215,297 L-215,302 L-204,311 L-193,318 L-185,320 L-179,321 L-179,326 L-177,326 L-173,340 L-164,354 L-155,364 L-147,372 L-131,384 L-120,391 L-109,398 L-105,413 L-97,456 L-95,471 L-94,489 L-94,509 L-99,519 L-102,518 L-98,506 L-100,488 L-104,473 L-109,464 L-111,448 L-113,444 L-112,441 L-117,432 L-117,430 L-121,428 L-133,419 L-145,408 L-155,396 L-166,378 L-172,368 L-183,354 L-197,343 L-201,340 L-203,343 L-208,342 L-213,339 L-222,336 L-229,333 L-246,334 L-247,333 L-250,307 L-253,296 L-259,292 L-259,283 L-254,261 L-254,254 L-255,247 L-254,244 L-252,244 L-251,240 L-243,235 L-236,227 L-225,221 L-218,218 L-207,215 L-201,201 L-189,181 L-182,171 L-173,160 L-162,147 L-153,136 L-140,122 L-133,114 L-122,104 L-114,97 L-104,88 L-84,68 L-71,58 L-55,48 L-50,43 L-45,41 L-27,29 L-19,25 L-16,25 L-18,16 L-19,9 L-12,6 L-2,3 Z "
     fill="#CF9B88"
     transform="translate(1201,521)"
     id="path3" />
  <path
     d="M0,0 L2,0 L3,13 L3,78 L-1,145 L-3,145 L-3,163 L-6,191 L-13,259 L-16,299 L-17,320 L-17,355 L-15,371 L-7,401 L5,437 L19,475 L38,523 L52,560 L56,571 L56,573 L58,573 L70,609 L80,645 L92,693 L101,736 L104,750 L109,766 L112,786 L113,798 L114,833 L113,834 L108,886 L100,945 L84,1045 L66,1157 L62,1187 L48,1269 L40,1311 L39,1321 L28,1378 L27,1388 L20,1425 L19,1436 L13,1469 L12,1481 L8,1505 L7,1517 L4,1536 L1,1560 L-1,1574 L-2,1585 L-5,1604 L-6,1616 L-10,1641 L-12,1659 L-16,1683 L-18,1700 L-24,1733 L-27,1754 L-35,1799 L-38,1825 L-44,1874 L-47,1912 L-47,1969 L-44,2012 L-42,2038 L-37,2072 L-27,2123 L-24,2137 L-23,2141 L-23,2148 L-24,2151 L-24,2165 L-20,2180 L-16,2206 L-16,2211 L-25,2226 L-50,2236 L-63,2238 L-72,2241 L-84,2242 L-87,2243 L-145,2243 L-167,2242 L-173,2240 L-174,2239 L-183,2238 L-191,2231 L-200,2222 L-205,2214 L-211,2202 L-217,2191 L-228,2158 L-229,2136 L-230,2136 L-231,2121 L-225,2105 L-217,2082 L-205,2034 L-199,2003 L-196,1989 L-191,1947 L-188,1907 L-186,1865 L-186,1765 L-187,1712 L-189,1665 L-191,1625 L-193,1560 L-193,1460 L-187,1431 L-182,1402 L-175,1366 L-173,1349 L-167,1307 L-166,1295 L-165,1275 L-164,1257 L-163,1213 L-164,1162 L-166,1119 L-169,1064 L-170,1037 L-170,947 L-169,913 L-169,874 L-172,862 L-179,856 L-187,854 L-201,854 L-211,857 L-217,862 L-223,872 L-229,893 L-242,966 L-258,1054 L-272,1127 L-278,1161 L-286,1202 L-295,1241 L-307,1285 L-317,1323 L-320,1340 L-327,1377 L-330,1398 L-331,1412 L-335,1448 L-335,1459 L-338,1495 L-338,1506 L-342,1532 L-347,1553 L-356,1579 L-362,1595 L-368,1613 L-377,1637 L-386,1666 L-398,1700 L-402,1714 L-417,1763 L-429,1807 L-431,1818 L-449,1892 L-460,1943 L-464,1969 L-464,1979 L-463,1981 L-457,2042 L-447,2110 L-446,2120 L-446,2142 L-448,2149 L-452,2161 L-459,2172 L-467,2180 L-481,2191 L-495,2200 L-514,2211 L-537,2223 L-553,2231 L-567,2236 L-592,2242 L-623,2247 L-643,2249 L-668,2250 L-715,2249 L-732,2247 L-743,2243 L-751,2237 L-755,2229 L-756,2217 L-753,2200 L-746,2179 L-733,2151 L-722,2131 L-713,2112 L-707,2099 L-699,2084 L-688,2065 L-684,2057 L-679,2049 L-672,2037 L-669,2033 L-661,2017 L-659,2014 L-657,2014 L-655,2008 L-645,1990 L-639,1980 L-631,1961 L-625,1941 L-616,1900 L-600,1819 L-586,1742 L-585,1731 L-577,1682 L-571,1637 L-570,1623 L-563,1564 L-562,1550 L-560,1525 L-554,1456 L-554,1445 L-544,1337 L-533,1232 L-520,1123 L-511,1055 L-503,1003 L-493,945 L-480,877 L-462,789 L-446,712 L-442,691 L-440,683 L-433,636 L-426,571 L-415,453 L-414,452 L-413,432 L-413,393 L-415,384 L-434,331 L-452,281 L-466,238 L-479,197 L-490,158 L-494,138 L-492,138 L-474,193 L-460,236 L-443,286 L-433,315 L-419,352 L-408,381 L-406,390 L-406,423 L-409,463 L-410,464 L-417,543 L-424,612 L-431,666 L-436,696 L-441,723 L-446,746 L-454,786 L-460,813 L-465,838 L-473,878 L-478,902 L-487,949 L-493,980 L-500,1019 L-508,1074 L-524,1212 L-533,1298 L-541,1382 L-543,1415 L-548,1474 L-549,1498 L-557,1578 L-559,1605 L-566,1658 L-568,1679 L-576,1729 L-583,1769 L-584,1783 L-587,1796 L-590,1816 L-593,1828 L-613,1928 L-617,1945 L-627,1973 L-636,1993 L-647,2015 L-650,2020 L-653,2027 L-655,2031 L-657,2031 L-659,2037 L-674,2065 L-688,2089 L-703,2115 L-716,2139 L-726,2157 L-729,2164 L-738,2181 L-745,2201 L-747,2209 L-747,2226 L-743,2232 L-737,2236 L-721,2239 L-715,2240 L-655,2240 L-627,2238 L-596,2233 L-577,2230 L-570,2229 L-570,2227 L-554,2221 L-535,2211 L-531,2211 L-531,2209 L-522,2204 L-516,2203 L-516,2201 L-500,2192 L-485,2182 L-471,2171 L-463,2161 L-462,2159 L-460,2159 L-457,2149 L-455,2138 L-455,2125 L-458,2094 L-461,2076 L-466,2040 L-469,2015 L-470,1998 L-470,1957 L-468,1950 L-461,1909 L-449,1855 L-440,1818 L-436,1802 L-433,1787 L-431,1787 L-431,1780 L-425,1757 L-418,1734 L-408,1704 L-406,1694 L-392,1653 L-386,1637 L-383,1625 L-368,1585 L-364,1572 L-355,1548 L-352,1537 L-347,1503 L-346,1492 L-345,1467 L-342,1434 L-340,1408 L-334,1368 L-332,1351 L-323,1311 L-319,1297 L-317,1285 L-311,1264 L-301,1226 L-290,1176 L-273,1090 L-254,988 L-238,898 L-233,876 L-228,864 L-222,856 L-215,850 L-203,846 L-192,846 L-176,849 L-170,853 L-165,859 L-162,867 L-161,876 L-161,901 L-162,935 L-162,1035 L-159,1098 L-157,1132 L-155,1175 L-155,1255 L-158,1296 L-161,1322 L-163,1343 L-171,1388 L-173,1404 L-178,1427 L-180,1442 L-184,1467 L-184,1577 L-181,1659 L-180,1678 L-179,1715 L-178,1725 L-178,1849 L-180,1905 L-185,1960 L-191,2005 L-198,2043 L-202,2058 L-207,2077 L-209,2077 L-211,2087 L-215,2103 L-217,2119 L-217,2147 L-213,2168 L-205,2191 L-195,2210 L-186,2220 L-179,2226 L-164,2230 L-143,2232 L-135,2233 L-116,2234 L-92,2234 L-69,2232 L-63,2230 L-57,2225 L-48,2213 L-41,2199 L-38,2190 L-36,2173 L-36,2131 L-38,2116 L-44,2086 L-50,2048 L-54,2013 L-56,1985 L-56,1919 L-54,1877 L-51,1854 L-50,1850 L-48,1827 L-41,1782 L-38,1765 L-35,1744 L-29,1712 L-27,1695 L-24,1675 L-16,1615 L-10,1571 L-5,1534 L2,1490 L4,1472 L7,1455 L9,1439 L15,1406 L18,1385 L24,1354 L26,1339 L38,1277 L40,1261 L56,1167 L76,1042 L91,948 L99,891 L103,852 L104,838 L104,798 L102,778 L91,719 L81,676 L70,634 L58,595 L48,566 L30,519 L22,499 L17,487 L3,451 L-13,404 L-17,388 L-19,382 L-22,367 L-23,350 L-23,305 L-19,251 L-12,182 L-9,149 L-7,149 L-7,137 L-4,91 L-2,73 L-1,50 Z "
     fill="#060404"
     transform="translate(1477,1251)"
     id="path4" />
  <path
     d="M0,0 L3,1 L-9,28 L-20,55 L-33,84 L-42,103 L-51,115 L-58,123 L-72,134 L-82,141 L-101,153 L-125,167 L-149,180 L-162,187 L-171,189 L-171,191 L-183,195 L-190,196 L-202,196 L-218,193 L-239,184 L-249,178 L-255,176 L-255,174 L-260,173 L-283,160 L-295,154 L-316,140 L-328,132 L-338,123 L-349,112 L-356,102 L-361,91 L-366,73 L-369,46 L-369,37 L-362,43 L-354,50 L-342,56 L-331,60 L-315,62 L-293,62 L-277,59 L-268,55 L-252,47 L-243,40 L-234,29 L-228,17 L-226,12 L-225,12 L-225,22 L-222,22 L-221,13 L-214,6 L-205,4 L-192,4 L-183,6 L-178,10 L-176,14 L-175,25 L-172,25 L-171,21 L-168,25 L-161,39 L-152,50 L-144,57 L-131,65 L-117,70 L-108,72 L-94,72 L-78,69 L-63,64 L-52,57 L-42,48 L-35,37 L-31,27 L-28,11 L-27,2 L-5,1 Z "
     fill="#D8A593"
     transform="translate(1392,763)"
     id="path5" />
  <path
     d="M0,0 L11,0 L32,4 L48,11 L59,20 L67,31 L73,45 L74,49 L74,63 L71,72 L64,84 L57,92 L44,101 L33,106 L25,109 L5,112 L-15,112 L-30,108 L-38,104 L-45,101 L-55,92 L-61,85 L-66,77 L-69,58 L-69,43 L-66,38 L-64,33 L-50,33 L-38,37 L-30,43 L-27,43 L-28,38 L-30,33 L-34,31 L-35,28 L-28,26 L-20,25 L-9,25 L-8,37 L-4,47 L1,52 L9,56 L23,56 L35,50 L42,42 L44,36 L50,37 L53,38 L53,40 L59,41 L50,31 L42,24 L30,17 L8,11 L1,10 L-27,10 L-27,12 L-42,16 L-51,21 L-53,20 L-45,14 L-31,7 L-21,3 Z "
     fill="#D29E8C"
     transform="translate(1087,708)"
     id="path6" />
  <path
     d="M0,0 L37,0 L47,4 L59,11 L68,20 L66,21 L55,17 L43,14 L33,12 L13,12 L-7,16 L-17,20 L-26,25 L-33,31 L-35,31 L-36,36 L-31,32 L-29,32 L-29,30 L-21,28 L-17,28 L-15,38 L-11,44 L-3,51 L2,53 L15,53 L26,49 L34,42 L37,34 L38,28 L42,28 L42,30 L51,32 L55,33 L53,37 L48,43 L46,43 L45,46 L43,46 L43,48 L61,42 L69,40 L77,40 L77,57 L74,71 L69,83 L61,94 L49,103 L42,106 L37,108 L34,108 L34,110 L15,113 L4,113 L-12,109 L-21,105 L-33,97 L-45,85 L-52,73 L-53,68 L-55,68 L-56,55 L-56,39 L-51,27 L-44,18 L-35,11 L-22,5 L-6,1 Z "
     fill="#D8A694"
     transform="translate(1282,717)"
     id="path7" />
  <path
     d="M0,0 L3,0 L9,26 L15,60 L15,92 L11,104 L4,113 L-7,123 L-27,137 L-42,147 L-63,160 L-92,176 L-116,189 L-131,198 L-150,209 L-171,222 L-187,233 L-199,242 L-213,254 L-223,265 L-227,274 L-229,285 L-229,338 L-225,379 L-223,402 L-216,443 L-210,471 L-199,512 L-187,553 L-173,599 L-160,640 L-152,665 L-152,671 L-150,671 L-138,708 L-136,719 L-130,738 L-127,745 L-124,755 L-121,769 L-117,783 L-112,801 L-92,866 L-79,912 L-73,937 L-70,957 L-69,968 L-72,968 L-82,930 L-90,899 L-99,868 L-112,826 L-122,792 L-134,750 L-149,701 L-163,657 L-175,621 L-199,542 L-211,499 L-218,470 L-221,454 L-228,415 L-233,378 L-236,347 L-237,330 L-237,294 L-235,276 L-230,264 L-224,256 L-213,244 L-199,233 L-195,230 L-193,230 L-193,228 L-179,218 L-171,213 L-160,206 L-144,195 L-133,189 L-126,184 L-114,179 L-106,173 L-98,168 L-82,160 L-71,153 L-59,147 L-51,141 L-39,134 L-28,126 L-18,119 L-10,113 L0,104 L2,101 L5,100 L9,91 L9,71 L8,53 L3,21 L0,5 Z "
     fill="#0A0807"
     transform="translate(1097,939)"
     id="path8" />
  <path
     d="M0,0 L8,1 L17,4 L32,12 L42,21 L50,30 L58,46 L64,62 L67,73 L71,96 L75,124 L80,176 L81,202 L81,294 L80,320 L79,329 L77,424 L70,596 L68,639 L66,706 L64,726 L63,728 L60,728 L58,720 L58,689 L59,647 L63,551 L64,540 L65,500 L66,478 L67,472 L69,422 L71,326 L72,296 L72,202 L71,168 L68,131 L63,94 L59,75 L52,52 L48,44 L45,37 L38,28 L30,21 L17,13 L3,8 L0,6 Z "
     fill="#090706"
     transform="translate(1473,1082)"
     id="path9" />
  <path
     d="M0,0 L7,0 L10,4 L11,7 L11,27 L9,44 L4,61 L-4,75 L-13,85 L-20,91 L-39,101 L-47,104 L-59,107 L-62,107 L-61,101 L-49,75 L-36,44 L-23,13 L-21,9 Z "
     fill="#D19C8B"
     transform="translate(1421,755)"
     id="path10" />
  <path
     d="M0,0 L5,1 L12,22 L12,25 L14,25 L16,31 L19,34 L18,37 L20,37 L22,49 L22,72 L21,85 L19,89 L18,95 L14,103 L12,103 L10,109 L6,113 L-4,117 L-12,122 L-15,122 L-17,131 L-22,133 L-68,145 L-76,145 L-75,134 L-78,135 L-76,130 L-74,127 L-58,126 L-42,120 L-27,112 L-16,103 L-7,91 L0,76 L3,65 L5,51 L5,23 L2,17 L-2,14 L-9,14 L-25,22 L-28,23 L-25,14 L-20,3 L-12,4 Z "
     fill="#CB9584"
     transform="translate(1430,738)"
     id="path11" />
  <path
     d="M0,0 L2,0 L2,3 L5,4 L6,8 L8,8 L9,11 L5,11 L6,13 L11,13 L10,19 L2,43 L-1,58 L-1,71 L1,83 L10,99 L15,106 L20,111 L26,116 L24,121 L19,120 L14,117 L5,114 L-2,111 L-19,112 L-20,111 L-23,85 L-26,74 L-32,70 L-32,61 L-27,39 L-27,32 L-28,25 L-27,22 L-25,22 L-24,18 L-16,13 L-9,5 Z "
     fill="#BD836F"
     transform="translate(974,743)"
     id="path12" />
  <path
     d="M0,0 L20,0 L49,1 L62,5 L70,11 L70,16 L60,14 L51,12 L2,12 L-24,17 L-36,21 L-39,21 L-39,23 L-48,27 L-60,34 L-67,40 L-71,39 L-72,34 L-67,28 L-63,27 L-52,18 L-39,11 L-35,11 L-35,9 L-16,3 Z "
     fill="#0C0908"
     transform="translate(1090,659)"
     id="path13" />
  <path
     d="M0,0 L11,0 L12,12 L16,22 L21,27 L29,31 L43,31 L55,25 L62,17 L64,11 L70,12 L73,13 L73,15 L77,16 L79,20 L79,28 L77,33 L65,36 L59,37 L23,37 L8,32 L6,30 L6,27 L-3,21 L-7,20 L-8,13 L-10,8 L-14,6 L-15,3 L-8,1 Z "
     fill="#D2D8E2"
     transform="translate(1067,733)"
     id="path14" />
  <path
     d="M0,0 L25,0 L32,1 L32,3 L48,4 L59,6 L59,8 L69,9 L85,13 L85,15 L94,17 L106,22 L113,26 L117,30 L122,33 L121,35 L109,32 L104,30 L104,28 L95,26 L84,23 L84,21 L75,20 L64,18 L64,16 L53,15 L28,13 L-4,12 L-7,10 L-7,4 Z "
     fill="#080605"
     transform="translate(1250,668)"
     id="path15" />
  <path
     d="M0,0 L3,3 L8,22 L12,48 L12,53 L3,68 L-22,78 L-26,79 L-35,79 L-31,75 L-25,71 L-17,63 L-9,49 L-4,33 L-1,19 Z "
     fill="#FACEA6"
     transform="translate(1449,3409)"
     id="path16" />
  <path
     d="M0,0 L4,0 L6,10 L10,16 L18,23 L23,25 L36,25 L47,21 L55,14 L58,6 L59,0 L63,0 L63,2 L72,4 L76,5 L74,9 L69,15 L67,15 L66,18 L64,18 L64,20 L67,21 L64,24 L58,25 L52,27 L51,29 L45,32 L33,31 L14,28 L-2,23 L-10,19 L-15,12 L-14,8 L-10,4 L-8,4 L-8,2 Z "
     fill="#D2DAE4"
     transform="translate(1261,745)"
     id="path17" />
  <path
     d="M0,0 L2,0 L4,6 L7,9 L6,12 L8,12 L10,24 L10,47 L9,60 L7,64 L6,70 L2,78 L0,78 L-2,84 L-6,88 L-17,92 L-17,88 L-12,82 L-7,72 L-4,59 L-3,44 L-3,24 L-1,15 L1,7 Z "
     fill="#BD836D"
     transform="translate(1442,763)"
     id="path18" />
  <path
     d="M0,0 L4,1 L8,2 L12,7 L18,12 L18,14 L21,15 L20,20 L16,25 L14,25 L13,28 L4,34 L-5,37 L-9,36 L-9,31 L-11,29 L-10,21 L-9,19 L-12,20 L-12,16 L-8,14 L-7,11 L-3,7 L-1,7 L-2,2 Z M-9,18 Z "
     fill="#D49F8C"
     transform="translate(1292,929)"
     id="path19" />
  <path
     d="M0,0 L1,2 L-10,24 L-15,32 L-18,40 L-20,40 L-22,46 L-34,68 L-48,93 L-57,108 L-71,133 L-79,147 L-81,147 L-79,141 L-73,129 L-67,116 L-59,101 L-48,82 L-44,74 L-39,66 L-32,54 L-29,50 L-21,34 L-19,31 L-17,31 L-15,25 L-5,7 Z "
     fill="#E1AE99"
     transform="translate(837,3234)"
     id="path20" />
  <path
     d="M0,0 L7,0 L11,2 L14,1 L19,7 L25,9 L26,12 L8,16 L-2,20 L-13,24 L-16,24 L-19,14 L-19,9 L-12,6 L-2,3 Z "
     fill="#BF8279"
     transform="translate(1201,521)"
     id="path21" />
  <path
     d="M0,0 L0,3 L-5,8 L-18,18 L-30,27 L-51,40 L-63,47 L-74,53 L-93,64 L-118,78 L-142,92 L-155,100 L-169,108 L-171,107 L-163,102 L-152,95 L-136,84 L-125,78 L-118,73 L-106,68 L-98,62 L-90,57 L-74,49 L-63,42 L-51,36 L-43,30 L-31,23 L-20,15 L-10,8 L-2,2 Z "
     fill="#DBAB94"
     transform="translate(1089,1050)"
     id="path22" />
  <path
     d="M0,0 L1,3 L1,17 L4,39 L7,56 L13,72 L21,87 L29,97 L38,105 L48,111 L48,115 L41,115 L33,108 L24,99 L19,91 L13,79 L7,68 L-4,35 L-4,9 Z "
     fill="#EBB49F"
     transform="translate(1253,3374)"
     id="path23" />
  <path
     d="M0,0 L5,1 L12,22 L12,24 L10,24 L8,20 L4,20 L0,15 L-2,14 L-9,14 L-25,22 L-28,23 L-25,14 L-20,3 L-12,4 Z "
     fill="#D6A491"
     transform="translate(1430,738)"
     id="path24" />
  <path
     d="M0,0 L12,0 L32,4 L53,9 L59,11 L59,13 L46,13 L35,12 L19,8 L12,7 L-3,7 L-15,10 L-13,6 L-10,3 Z "
     fill="#15100E"
     transform="translate(1170,866)"
     id="path25" />
  <path
     d="M0,0 L2,3 L14,44 L30,93 L40,123 L39,126 L36,116 L34,116 L32,107 L30,106 L18,71 L13,52 L10,43 L4,21 L2,16 L0,8 Z "
     fill="#B88879"
     transform="translate(990,1420)"
     id="path26" />
  <path
     d="M0,0 L2,0 L9,19 L15,27 L27,39 L34,47 L41,53 L43,58 L38,56 L28,47 L20,40 L8,27 L3,17 L0,4 Z "
     fill="#030202"
     transform="translate(1276,976)"
     id="path27" />
  <path
     d="M0,0 L23,10 L55,20 L68,24 L68,26 L58,25 L33,19 L19,14 L1,3 Z "
     fill="#090706"
     transform="translate(1389,1056)"
     id="path28" />
  <path
     d="M0,0 L7,0 L6,3 L-2,6 L-9,7 L-16,13 L-35,18 L-47,25 L-50,24 L-46,20 L-32,12 L-7,3 Z "
     fill="#DDAB94"
     transform="translate(1212,535)"
     id="path29" />
  <path
     d="M0,0 L5,1 L6,4 L5,9 L2,9 L0,14 L-5,19 L-8,19 L-11,9 L-11,4 L-4,1 Z "
     fill="#AE9D57"
     transform="translate(1193,526)"
     id="path30" />
  <path
     d="M0,0 L2,0 L1,48 L0,50 L-2,50 L-4,40 L-4,25 L-1,3 Z "
     fill="#17110F"
     transform="translate(1268,939)"
     id="path31" />
  <path
     d="M0,0 L1,0 L0,13 L-2,27 L-2,37 L-1,39 L4,88 L4,96 L2,93 L-2,60 L-5,29 L-1,3 Z "
     fill="#CD9D88"
     transform="translate(1015,3193)"
     id="path32" />
  <path
     d="M0,0 L2,1 L9,15 L14,24 L15,27 L13,29 L8,29 L-2,17 L2,14 L4,14 L4,9 L0,8 L-1,3 Z "
     fill="#C28673"
     transform="translate(1330,619)"
     id="path33" />
  <path
     d="M0,0 L4,2 L12,10 L22,16 L25,18 L25,22 L18,22 L10,15 L1,6 Z "
     fill="#F0CBA9"
     transform="translate(1276,3467)"
     id="path34" />
  <path
     d="M0,0 L1,2 L-10,24 L-15,32 L-18,40 L-20,40 L-22,46 L-24,44 L-23,38 L-19,31 L-17,31 L-15,25 L-5,7 Z M-25,44 Z "
     fill="#D6A994"
     transform="translate(837,3234)"
     id="path35" />
  <path
     d="M0,0 L1,0 L0,14 L-3,67 L-4,67 L-4,16 Z "
     fill="#BE927E"
     transform="translate(1288,2695)"
     id="path36" />
  <path
     d="M0,0 L2,3 L14,44 L16,55 L16,60 L14,57 L8,35 L4,21 L2,16 L0,8 Z "
     fill="#B58879"
     transform="translate(990,1420)"
     id="path37" />
  <path
     d="M0,0 L8,2 L8,4 L15,6 L16,8 L4,10 L-3,13 L-7,12 L-5,12 L-4,8 Z "
     fill="#BA836C"
     transform="translate(1208,526)"
     id="path38" />
  <path
     d="M0,0 L6,1 L11,7 L16,5 L16,8 L19,9 L19,12 L21,12 L22,17 L16,17 L1,3 Z "
     fill="#DCAC98"
     transform="translate(1054,925)"
     id="path39" />
  <path
     d="M0,0 L0,3 L-5,8 L-18,18 L-30,27 L-36,30 L-34,25 L-20,15 L-10,8 L-2,2 Z "
     fill="#D6AD95"
     transform="translate(1089,1050)"
     id="path40" />
  <path
     d="M0,0 L2,1 L4,12 L6,30 L7,40 L5,37 L0,20 Z "
     fill="#FCFAF4"
     transform="translate(1249,3388)"
     id="path41" />
  <path
     d="M0,0 L1,0 L1,19 L0,32 L-1,47 L-3,59 L-5,60 L-2,24 L-1,18 Z "
     fill="#836156"
     transform="translate(1474,1396)"
     id="path42" />
  <path
     d="M0,0 L1,4 L-1,12 L-2,23 L-6,32 L-8,30 L-8,22 L-5,13 Z "
     fill="#5C463E"
     transform="translate(1256,3351)"
     id="path43" />
  <path
     d="M0,0 L1,3 L1,17 L2,27 L2,38 L0,37 L-1,23 L-4,14 L-3,7 Z "
     fill="#C49993"
     transform="translate(1253,3374)"
     id="path44" />
  <path
     d="M0,0 L2,1 L-3,11 L-7,12 L-9,9 L-6,7 L-8,7 L-10,5 L-16,6 L-15,4 Z "
     fill="#F4C200"
     transform="translate(992,737)"
     id="path45" />
  <path
     d="M0,0 L1,0 L3,8 L4,12 L6,12 L10,20 L4,18 L0,21 L-4,19 L-3,17 L2,14 L0,8 L-1,7 Z "
     fill="#B67761"
     transform="translate(1301,571)"
     id="path46" />
  <path
     d="M0,0 L2,1 L2,3 L4,3 L3,6 L6,9 L5,12 L0,12 L0,10 L-2,10 L-4,6 L-6,5 L-6,2 Z "
     fill="#FFFDF6"
     transform="translate(982,741)"
     id="path47" />
  <path
     d="M0,0 L3,0 L7,9 L5,11 L0,11 L-4,6 L-4,4 L-2,4 L-2,1 Z "
     fill="#B37A66"
     transform="translate(1338,637)"
     id="path48" />
  <path
     d="M0,0 L1,0 L1,7 L-2,20 L-3,31 L-4,32 L-6,43 L-7,43 L-6,30 L-1,3 Z "
     fill="#B58B7A"
     transform="translate(1297,2646)"
     id="path49" />
  <path
     d="M0,0 L2,0 L2,3 L5,4 L6,8 L8,8 L8,10 L2,11 L-3,6 L-3,2 Z "
     fill="#9B948C"
     transform="translate(974,743)"
     id="path50" />
  <path
     d="M0,0 L2,0 L6,8 L13,29 L12,32 L9,22 L7,22 L5,13 L3,12 L0,3 Z "
     fill="#AB7E70"
     transform="translate(1017,1514)"
     id="path51" />
  <path
     d="M0,0 L2,1 L1,2 L6,3 L6,4 L-9,8 L-18,13 L-20,12 L-12,6 Z "
     fill="#A97E6F"
     transform="translate(1054,716)"
     id="path52" />
  <path
     d="M0,0 L2,1 L-14,17 L-16,19 L-17,14 L-12,8 L-8,7 Z "
     fill="#1F1715"
     transform="translate(1035,679)"
     id="path53" />
  <path
     d="M0,0 L3,3 L4,3 L4,10 L-1,20 L-4,19 L0,7 Z "
     fill="#CBA286"
     transform="translate(1103,1020)"
     id="path54" />
  <path
     d="M0,0 L1,2 L-4,7 L-12,12 L-16,11 L-7,4 Z "
     fill="#E0B49C"
     transform="translate(1053,1076)"
     id="path55" />
  <path
     d="M0,0 L2,0 L2,2 L6,4 L8,5 L8,15 L5,12 L3,12 Z "
     fill="#DAA585"
     transform="translate(1098,995)"
     id="path56" />
  <path
     d="M0,0 L2,3 L3,6 L4,11 L2,12 L8,13 L5,16 L-1,15 L-1,17 L-3,17 L-2,13 L0,13 L-1,1 Z "
     fill="#CA8C81"
     transform="translate(1293,946)"
     id="path57" />
  <path
     d="M0,0 L4,2 L11,8 L11,10 L14,11 L13,15 L8,10 L6,9 L5,13 L4,10 L2,9 L4,8 L2,4 Z "
     fill="#F4ADA1"
     transform="translate(1299,933)"
     id="path58" />
  <path
     d="M0,0 L6,1 L9,4 L9,7 L-4,5 L-2,1 Z "
     fill="#1B1512"
     transform="translate(1176,819)"
     id="path59" />
  <path
     d="M0,0 L3,0 L9,11 L13,17 L11,20 L7,15 L1,3 Z "
     fill="#D5A890"
     transform="translate(1265,3450)"
     id="path60" />
  <path
     d="M0,0 L5,1 L3,2 L8,17 L8,19 L4,19 Z "
     fill="#1C1513"
     transform="translate(1092,920)"
     id="path61" />
  <path
     d="M0,0 L3,1 L5,21 L5,29 L3,26 L0,4 Z "
     fill="#BC917D"
     transform="translate(1014,3260)"
     id="path62" />
  <path
     d="M0,0 L3,1 L0,4 L-21,16 L-23,15 L-15,10 L-4,3 Z "
     fill="#DB9880"
     transform="translate(941,1142)"
     id="path63" />
  <path
     d="M0,0 L8,1 L11,4 L10,5 L-3,5 L-1,1 Z "
     fill="#56413B"
     transform="translate(1201,820)"
     id="path64" />
  <path
     d="M0,0 L1,3 L-12,11 L-16,12 L-15,9 L-4,2 Z "
     fill="#DC9D8E"
     transform="translate(959,1131)"
     id="path65" />
  <path
     d="M0,0 L4,1 L8,2 L9,7 L6,7 L3,4 L4,7 L-1,8 L-2,2 Z "
     fill="#CA917A"
     transform="translate(1292,929)"
     id="path66" />
  <path
     d="M0,0 L4,1 L6,4 L12,6 L13,9 L8,8 L1,7 L0,2 L-2,1 Z "
     fill="#A27F7A"
     transform="translate(1214,524)"
     id="path67" />
  <path
     d="M0,0 L5,1 L12,6 L12,9 L7,9 L3,5 L3,3 L0,2 Z "
     fill="#252221"
     transform="translate(1062,754)"
     id="path68" />
  <path
     d="M0,0 L2,0 L3,18 L1,18 L1,25 L0,25 Z "
     fill="#15110F"
     transform="translate(1477,1251)"
     id="path69" />
  <path
     d="M0,0 L0,3 L-5,8 L-15,16 L-16,14 L-18,13 L-4,4 Z "
     fill="#CD8778"
     transform="translate(1089,1050)"
     id="path70" />
  <path
     d="M0,0 L2,0 L7,16 L7,19 L4,20 Z "
     fill="#130F0D"
     transform="translate(983,1389)"
     id="path71" />
  <path
     d="M0,0 L9,1 L24,9 L24,11 L18,9 L6,3 L0,1 Z "
     fill="#3B2B24"
     transform="translate(1477,1083)"
     id="path72" />
  <path
     d="M0,0 L2,0 L5,9 L6,22 L4,19 L0,5 Z "
     fill="#BF8E7F"
     transform="translate(1000,1458)"
     id="path73" />
  <path
     d="M0,0 L1,0 L3,17 L4,19 L3,30 L2,30 L1,22 L0,22 Z "
     fill="#604941"
     transform="translate(1165,755)"
     id="path74" />
  <path
     d="M0,0 L23,0 L23,1 L1,2 L-15,4 L-12,1 Z "
     fill="#503C35"
     transform="translate(1080,702)"
     id="path75" />
  <path
     d="M0,0 L1,4 L-1,7 L-9,7 L-8,3 Z "
     fill="#181615"
     transform="translate(1321,768)"
     id="path76" />
  <path
     d="M0,0 L3,2 L2,7 L-3,12 L-5,12 L-4,7 Z M0,3 Z "
     fill="#E6B69F"
     transform="translate(782,3328)"
     id="path77" />
  <path
     d="M0,0 L1,0 L0,15 L-2,27 L-4,28 L-3,14 Z "
     fill="#B7897A"
     transform="translate(1473,1428)"
     id="path78" />
  <path
     d="M0,0 L2,0 L3,2 L5,1 L5,9 L2,10 L1,7 L-1,6 L-1,4 L-4,3 Z "
     fill="#B19179"
     transform="translate(1101,991)"
     id="path79" />
  <path
     d="M0,0 L2,1 L-3,6 L-4,9 L-9,13 L-11,13 L-10,8 Z "
     fill="#353231"
     transform="translate(1257,740)"
     id="path80" />
  <path
     d="M0,0 L4,1 L0,5 L-7,9 L-10,8 L-6,4 Z "
     fill="#E6A595"
     transform="translate(1172,551)"
     id="path81" />
  <path
     d="M0,0 L2,2 L1,7 L-4,12 L-8,15 L-6,11 Z M0,2 Z "
     fill="#E9BB9F"
     transform="translate(812,3276)"
     id="path82" />
  <path
     d="M0,0 L1,2 L-7,18 L-9,17 L-8,12 Z "
     fill="#B48E7F"
     transform="translate(837,3234)"
     id="path83" />
  <path
     d="M0,0 L11,1 L8,3 L4,4 L-6,4 L-6,1 L-1,1 Z "
     fill="#B77968"
     transform="translate(1238,529)"
     id="path84" />
  <path
     d="M0,0 L1,0 L3,14 L3,24 L2,24 L0,16 Z "
     fill="#6E5047"
     transform="translate(1550,1244)"
     id="path85" />
  <path
     d="M0,0 L2,3 L2,12 L-1,20 L-2,16 Z "
     fill="#B68F7F"
     transform="translate(1052,1863)"
     id="path86" />
  <path
     d="M0,0 L4,2 L5,5 L7,5 L11,9 L11,11 L9,11 L8,14 L6,12 L4,7 Z "
     fill="#BF8A84"
     transform="translate(1297,943)"
     id="path87" />
  <path
     d="M0,0 L6,2 L3,3 L1,3 L-3,13 L-7,12 L-5,12 L-4,8 Z "
     fill="#CB9466"
     transform="translate(1208,526)"
     id="path88" />
  <path
     d="M0,0 L2,1 L-2,7 L-10,15 L-12,14 L-2,3 Z "
     fill="#31271E"
     transform="translate(1099,1040)"
     id="path89" />
  <path
     d="M0,0 L14,1 L16,3 L10,4 L0,3 Z "
     fill="#5A483F"
     transform="translate(1301,3486)"
     id="path90" />
  <path
     d="M0,0 L6,1 L10,5 L10,8 L7,9 L0,2 Z "
     fill="#E5BDAE"
     transform="translate(1054,925)"
     id="path91" />
  <path
     d="M0,0 L6,1 L13,4 L10,5 L2,3 L2,9 L0,6 Z "
     fill="#D6A087"
     transform="translate(1471,1079)"
     id="path92" />
  <path
     d="M0,0 L2,0 L0,5 L-5,14 L-7,14 L-5,8 Z "
     fill="#D3A084"
     transform="translate(763,3367)"
     id="path93" />
  <path
     d="M0,0 L14,0 L15,3 L-3,2 Z "
     fill="#A2796B"
     transform="translate(1090,700)"
     id="path94" />
  <path
     d="M0,0 L1,0 L1,13 L-1,15 L-2,13 L-2,5 Z "
     fill="#3D2823"
     transform="translate(1250,3368)"
     id="path95" />
  <path
     d="M0,0 L2,3 L6,14 L6,16 L3,16 L2,10 L2,8 L0,8 Z "
     fill="#A58173"
     transform="translate(1051,1604)"
     id="path96" />
  <path
     d="M0,0 L1,0 L4,12 L4,16 L2,16 L-1,4 Z "
     fill="#BB8E7E"
     transform="translate(986,1404)"
     id="path97" />
  <path
     d="M0,0 L5,1 L4,3 L2,2 L0,9 L-3,10 L-1,1 Z "
     fill="#C0817D"
     transform="translate(1209,528)"
     id="path98" />
  <path
     d="M0,0 L2,1 L2,4 L4,5 L4,3 L8,3 L8,5 L3,7 L-2,6 L-1,1 Z "
     fill="#D8A886"
     transform="translate(1288,958)"
     id="path99" />
  <path
     d="M0,0 L2,1 L6,11 L4,12 L4,9 L0,8 L-1,3 Z "
     fill="#CC7A5A"
     transform="translate(1330,619)"
     id="path100" />
  <path
     d="M0,0 L1,3 L0,15 L-2,14 L-3,7 Z "
     fill="#ECAE9F"
     transform="translate(1253,3374)"
     id="path101" />
  <path
     d="M0,0 L3,3 L4,3 L4,10 L2,13 L2,10 L0,10 Z "
     fill="#A6786A"
     transform="translate(1103,1020)"
     id="path102" />
  <path
     d="M0,0 L2,1 L3,3 L-9,9 L-11,8 L-3,2 Z "
     fill="#967063"
     transform="translate(1045,720)"
     id="path103" />
  <path
     d="M0,0 L1,4 L-2,6 L-7,7 L-8,4 Z "
     fill="#E8B99E"
     transform="translate(1182,546)"
     id="path104" />
  <path
     d="M0,0 L1,4 L2,6 L2,13 L-1,17 L-1,3 Z "
     fill="#503A38"
     transform="translate(1252,3361)"
     id="path105" />
  <path
     d="M0,0 L3,0 L1,4 L-6,9 L-5,4 Z "
     fill="#CFA190"
     transform="translate(1070,1064)"
     id="path106" />
  <path
     d="M0,0 L4,2 L3,6 L-4,4 L-3,1 Z "
     fill="#AA7A68"
     transform="translate(983,853)"
     id="path107" />
  <path
     d="M0,0 L2,1 L3,3 L-6,7 L-8,7 L-6,3 Z "
     fill="#291F1B"
     transform="translate(1408,757)"
     id="path108" />
  <path
     d="M0,0 L4,1 L5,6 L5,13 L3,10 Z "
     fill="#C79686"
     transform="translate(991,1410)"
     id="path109" />
  <path
     d="M0,0 L1,3 L-7,8 L-7,5 L-7,3 Z "
     fill="#E0B09A"
     transform="translate(1010,1102)"
     id="path110" />
  <path
     d="M0,0 L3,2 L-2,7 L-4,11 L-5,6 Z "
     fill="#4A3833"
     transform="translate(1023,687)"
     id="path111" />
  <path
     d="M0,0 L1,0 L1,6 L0,7 L-2,18 L-3,18 L-2,5 Z "
     fill="#5D4B43"
     transform="translate(1293,2671)"
     id="path112" />
  <path
     d="M0,0 L7,2 L9,3 L9,8 L1,2 Z "
     fill="#E0AF8B"
     transform="translate(1062,934)"
     id="path113" />
  <path
     d="M0,0 L6,5 L7,8 L4,7 L3,6 L1,7 L-1,1 Z "
     fill="#B28676"
     transform="translate(1305,941)"
     id="path114" />
  <path
     d="M0,0 L7,0 L8,3 L-2,3 Z "
     fill="#0C0908"
     transform="translate(1202,821)"
     id="path115" />
  <path
     d="M0,0 L1,0 L3,11 L0,12 L-1,8 Z "
     fill="#F6BFA9"
     transform="translate(1255,3408)"
     id="path116" />
  <path
     d="M0,0 L4,2 L3,7 L-1,7 L0,4 L0,3 Z "
     fill="#DAB193"
     transform="translate(1300,951)"
     id="path117" />
  <path
     d="M0,0 L12,0 L12,1 L3,2 L1,5 L-2,5 Z "
     fill="#957265"
     transform="translate(1356,865)"
     id="path118" />
  <path
     d="M0,0 L6,2 L9,4 L9,7 L4,5 Z "
     fill="#3F342C"
     transform="translate(1284,3473)"
     id="path119" />
  <path
     d="M0,0 L12,0 L8,2 L0,3 Z "
     fill="#AF8677"
     transform="translate(1365,758)"
     id="path120" />
  <path
     d="M0,0 L3,1 L0,4 L-5,7 L-7,7 L-6,4 Z "
     fill="#BA8879"
     transform="translate(941,1142)"
     id="path121" />
  <path
     d="M0,0 L2,3 L-4,7 L-7,7 L-6,4 Z "
     fill="#DAA993"
     transform="translate(950,1136)"
     id="path122" />
  <path
     d="M0,0 L2,0 L3,3 L7,3 L7,5 L0,5 L-3,6 L-1,2 Z "
     fill="#BC8071"
     transform="translate(1017,695)"
     id="path123" />
  <path
     d="M0,0 L3,0 L7,6 L6,8 L2,7 L1,3 Z "
     fill="#B17D61"
     transform="translate(1316,602)"
     id="path124" />
  <path
     d="M0,0 L2,3 L4,12 L1,12 Z "
     fill="#AE8172"
     transform="translate(1005,1471)"
     id="path125" />
  <path
     d="M0,0 L2,4 L2,10 L-1,14 Z "
     fill="#BD9483"
     transform="translate(1468,1462)"
     id="path126" />
  <path
     d="M0,0 L0,3 L-5,8 L-8,10 L-7,6 Z "
     fill="#8F6058"
     transform="translate(1089,1050)"
     id="path127" />
  <path
     d="M0,0 L1,0 L0,7 L-2,7 L-5,10 L-4,6 L-3,4 L-1,4 Z "
     fill="#EAB8A2"
     transform="translate(821,3261)"
     id="path128" />
  <path
     d="M0,0 L2,1 L-6,9 L-7,7 L-3,2 Z "
     fill="#1F1815"
     transform="translate(1176,764)"
     id="path129" />
  <path
     d="M0,0 L1,0 L1,5 L-5,7 L-5,3 Z "
     fill="#D6A18D"
     transform="translate(1285,942)"
     id="path130" />
  <path
     d="M0,0 L2,1 L-3,10 L-4,6 Z "
     fill="#3F3029"
     transform="translate(756,3381)"
     id="path131" />
  <path
     d="M0,0 L2,1 L0,7 L-2,3 Z M-4,3 L-2,5 L-5,5 Z "
     fill="#B7937E"
     transform="translate(819,3267)"
     id="path132" />
  <path
     d="M0,0 L3,0 L3,7 L1,9 L0,4 L0,3 Z "
     fill="#DAAA8F"
     transform="translate(1104,1016)"
     id="path133" />
  <path
     d="M0,0 L2,0 L2,2 L0,2 L-1,8 L-3,7 L-2,1 Z "
     fill="#FFA47B"
     transform="translate(1095,978)"
     id="path134" />
  <path
     d="M0,0 L2,4 L2,7 L-2,6 L-1,1 Z "
     fill="#C78B79"
     transform="translate(1285,959)"
     id="path135" />
  <path
     d="M0,0 L2,0 L4,4 L2,6 L-2,5 Z "
     fill="#EFBA91"
     transform="translate(1307,946)"
     id="path136" />
  <path
     d="M0,0 L2,0 L4,8 L2,9 L0,4 Z "
     fill="#CC7161"
     transform="translate(1442,763)"
     id="path137" />
  <path
     d="M0,0 L2,1 L-4,8 L-6,8 L-5,4 Z "
     fill="#271E1B"
     transform="translate(1257,740)"
     id="path138" />
  <path
     d="M0,0 L9,0 L5,2 L-3,3 Z "
     fill="#8D685C"
     transform="translate(1068,703)"
     id="path139" />
  <path
     d="M0,0 L3,1 L3,9 L1,6 L-1,2 Z "
     fill="#D7A897"
     transform="translate(1384,698)"
     id="path140" />
  <path
     d="M0,0 L1,2 L-2,6 L-5,5 L-4,2 Z "
     fill="#E9BFAC"
     transform="translate(1053,1076)"
     id="path141" />
  <path
     d="M0,0 L2,0 L1,4 L-3,6 L-3,2 Z "
     fill="#E2A797"
     transform="translate(1062,1070)"
     id="path142" />
  <path
     d="M0,0 L4,0 L8,4 L7,6 L1,3 Z "
     fill="#CA9988"
     transform="translate(1295,939)"
     id="path143" />
  <path
     d="M0,0 L3,0 L3,7 L1,7 Z "
     fill="#C2887D"
     transform="translate(953,843)"
     id="path144" />
  <path
     d="M0,0 L4,1 L4,5 L-1,3 Z "
     fill="#C38E7B"
     transform="translate(1410,741)"
     id="path145" />
  <path
     d="M0,0 L2,1 L-1,6 L-3,5 L-4,1 Z "
     fill="#C60000"
     transform="translate(992,737)"
     id="path146" />
  <path
     d="M0,0 L4,0 L2,4 L-2,4 Z "
     fill="#C17966"
     transform="translate(1312,598)"
     id="path147" />
  <path
     d="M0,0 L4,2 L-1,5 L-4,4 Z "
     fill="#E19F8A"
     transform="translate(1166,555)"
     id="path148" />
  <path
     d="M0,0 L2,0 L4,6 L1,6 L-1,1 Z "
     fill="#EDC1B3"
     transform="translate(1263,3444)"
     id="path149" />
  <path
     d="M0,0 L2,1 L-1,7 L-4,6 L-2,2 Z "
     fill="#D9AD99"
     transform="translate(809,3286)"
     id="path150" />
  <path
     d="M0,0 L1,4 L-5,6 L-4,3 Z "
     fill="#E3B29B"
     transform="translate(965,1127)"
     id="path151" />
  <path
     d="M0,0 L2,3 L2,9 L0,9 L-1,1 Z "
     fill="#CB9687"
     transform="translate(1293,946)"
     id="path152" />
  <path
     d="M0,0 L5,1 L3,2 L4,7 L3,5 L1,5 Z "
     fill="#281E1B"
     transform="translate(1092,920)"
     id="path153" />
  <path
     d="M0,0 L2,0 L2,2 L-5,7 L-4,3 Z "
     fill="#AD6C61"
     transform="translate(968,746)"
     id="path154" />
  <path
     d="M0,0 L0,3 L-1,4 L-6,4 L-6,1 L-1,1 Z "
     fill="#9E6053"
     transform="translate(1238,529)"
     id="path155" />
  <path
     d="M0,0 L1,2 L4,2 L2,7 L0,5 L2,5 L2,3 L0,3 Z "
     fill="#000000"
     transform="translate(1415,716)"
     id="path156" />
  <path
     d="M0,0 L2,0 L1,6 L-2,4 Z "
     fill="#000000"
     transform="translate(1424,699)"
     id="path157" />
  <path
     d="M0,0 L2,3 L-1,5 Z "
     fill="#000000"
     transform="translate(1421,705)"
     id="path158" />
  <path
     d="M0,0 L2,2 L0,2 Z "
     fill="#000000"
     transform="translate(1417,712)"
     id="path159" />
  <path
     d="M0,0 L2,0 L1,2 Z "
     fill="#000000"
     transform="translate(1418,711)"
     id="path160" />
  <path
     d="M0,0 L2,1 Z "
     fill="#000000"
     transform="translate(1417,716)"
     id="path161" />
  <path
     d="M0,0 Z "
     fill="#000000"
     transform="translate(1423,705)"
     id="path162" />
  <path
     d="M0,0 Z "
     fill="#000000"
     transform="translate(1412,726)"
     id="path163" />
  <path
     d="M0,0 Z "
     fill="#000000"
     transform="translate(1411,725)"
     id="path164" />
  <path
     d="M0,0 Z "
     fill="#000000"
     transform="translate(1415,723)"
     id="path165" />
  <path
     d="M0,0 Z "
     fill="#000000"
     transform="translate(1413,721)"
     id="path166" />
  <path
     d="M0,0 Z "
     fill="#000000"
     transform="translate(1000,715)"
     id="path167" />
  <path
     d="M0,0 Z "
     fill="#000000"
     transform="translate(1419,714)"
     id="path168" />
  <path
     d="M0,0 Z "
     fill="#000000"
     transform="translate(1416,714)"
     id="path169" />
  <path
     d="M0,0 Z "
     fill="#000000"
     transform="translate(1420,713)"
     id="path170" />
  <path
     d="M0,0 Z "
     fill="#000000"
     transform="translate(1422,709)"
     id="path171" />
  <path
     d="M0,0 Z "
     fill="#000000"
     transform="translate(1426,698)"
     id="path172" />
  <path
     style="fill:#e5b7a2;fill-opacity:1;stroke-width:0.73185"
     d="m 1181.2061,957.00393 c -8.6229,-1.8609 -24.2741,-8.23445 -32.706,-13.31863 -2.8939,-1.74494 -6.5989,-3.57326 -8.2333,-4.06295 -1.6345,-0.48968 -2.9717,-1.29697 -2.9717,-1.79397 0,-0.93602 -1.5801,-1.79208 -3.3077,-1.79208 -0.5458,0 -5.5813,-2.61044 -11.1899,-5.80098 -5.6086,-3.19054 -13.5714,-7.49413 -17.6952,-9.56355 -4.1238,-2.06941 -15.281,-8.96493 -24.7939,-15.32338 -14.8095,-9.89871 -18.6866,-12.89669 -26.9676,-20.85264 -14.7161,-14.13845 -19.6962,-22.308 -24.6018,-40.35786 -3.145,-11.57172 -6.9293,-42.76201 -5.1883,-42.76201 0.2334,0 3.4444,2.65954 7.1356,5.91008 14.7484,12.98781 31.4147,18.26588 57.5444,18.22386 16.5174,-0.0266 25.3184,-2.01793 39.8436,-9.01524 6.4989,-3.1308 13.4958,-7.12103 16.3449,-9.32133 6.7847,-5.23965 13.2333,-13.44163 17.6143,-22.40367 l 3.6459,-7.45816 0.4975,3.98188 c 0.441,3.52931 0.6898,3.98188 2.1891,3.98188 1.8716,0 2.5676,-1.5835 2.5842,-5.8798 0.01,-2.14721 0.6625,-3.22696 3.8522,-6.35769 3.3347,-3.27309 4.5007,-3.92229 8.8276,-4.91499 13.0444,-2.9927 27.4425,0.26837 30.9259,7.00447 0.5842,1.12966 1.2717,4.53375 1.5279,7.56466 0.4619,5.46333 0.4838,5.51075 2.554,5.51075 1.6704,0 2.0931,-0.32945 2.1125,-1.64667 l 0.024,-1.64666 1.5233,1.82963 c 0.8379,1.00629 3.1017,4.97368 5.0307,8.81641 3.7614,7.49314 10.8715,16.75104 16.6289,21.65215 8.6997,7.40589 21.7189,13.86957 33.8527,16.80698 2.2139,0.53593 8.1425,0.98616 13.1748,1.00049 10.8049,0.0308 20.1538,-1.58039 31.4044,-5.41221 16.8627,-5.74329 30.5971,-18.41036 36.9719,-34.09882 1.9034,-4.68427 5.5391,-22.25612 5.5391,-26.77126 0,-1.31954 0.378,-2.6328 0.84,-2.91835 0.4621,-0.28555 5.9784,-0.7822 12.2585,-1.10367 6.2802,-0.32148 12.0771,-0.77023 12.8821,-0.99723 3.8154,-1.07585 3.5397,0.48 -2.4999,14.10443 -3.2332,7.2937 -8.3323,19.28304 -11.3315,26.64299 -5.4592,13.39696 -15.7511,36.62008 -23.3385,52.66216 -4.2514,8.98868 -11.9785,20.01369 -19.0083,27.1209 -5.199,5.25633 -18.3788,15.0464 -32.0441,23.8027 -25.6313,16.42369 -70.6769,41.17454 -77.6664,42.67473 -2.6662,0.57227 -4.2604,1.31157 -4.4593,2.06802 -0.1946,0.74001 -2.7308,1.96802 -6.8279,3.30599 -9.1059,2.97364 -21.3449,3.31584 -32.4991,0.90864 z m 48.3021,-78.8019 c 0,-1.87126 -1.2983,-2.36593 -14.637,-5.57676 -20.5514,-4.94705 -31.3044,-6.8469 -38.7193,-6.84099 -7.6064,0.006 -15.1454,1.76822 -17.785,4.15703 -1.718,1.55472 -3.7852,5.31764 -3.2276,5.87521 0.2133,0.21327 3.3952,-0.35535 7.0709,-1.2636 9.2462,-2.28464 20.117,-1.82429 32.6632,1.38318 9.7414,2.49043 17.455,3.50095 27.8652,3.65049 6.3413,0.0911 6.7696,0.004 6.7696,-1.38456 z m -43.911,-53.6453 c 0,-3.5153 -5.8444,-6.51248 -10.4466,-5.35738 -1.7136,0.43008 -3.9365,3.88492 -3.0727,4.77549 0.4554,0.46949 8.9631,2.04396 11.8726,2.19721 1.2605,0.0664 1.6467,-0.31243 1.6467,-1.61532 z m 26.1053,-0.18852 c 0.7808,-2.03478 -1.9976,-3.79129 -6.8456,-4.32774 l -4.5254,-0.50076 -1.5272,2.99361 -1.5273,2.99361 h 6.9905 c 5.702,0 7.0723,-0.21356 7.435,-1.15872 z"
     id="path173" />
  <path
     style="fill:#e5b7a2;fill-opacity:1;stroke-width:0.73185"
     d="m 1064.476,817.5139 c -7.3259,-2.05694 -20.3447,-7.75733 -23.7851,-10.41454 -4.594,-3.54811 -12.8358,-12.37762 -15.9111,-17.04565 -3.249,-4.93156 -3.4499,-5.55564 -5.0721,-15.75156 -0.929,-5.8391 -1.6967,-13.08655 -1.706,-16.10543 -0.015,-4.87264 0.2924,-6.12495 2.737,-11.15456 l 2.7537,-5.66568 6.5841,-0.006 c 8.4732,-0.008 16.4156,2.46263 22.6443,7.04371 2.3901,1.75782 4.7777,3.19604 5.3059,3.19604 1.3068,0 3.8878,2.6722 3.8878,4.02518 0,0.60377 0.5044,1.09777 1.1208,1.09777 0.6164,0 1.3233,0.57633 1.5709,1.28074 0.8378,2.38304 4.1358,5.30591 5.9869,5.30591 0.9999,0 2.3379,0.45117 2.9734,1.00259 0.6355,0.55142 4.7787,2.19809 9.2071,3.65925 l 8.0517,2.65666 17.1972,-0.01 c 13.9309,-0.008 18.448,-0.26942 23.7837,-1.37754 11.7456,-2.43934 12.5826,-2.76978 13.4711,-5.31856 0.9736,-2.79288 1.0378,-11.54503 0.096,-13.03492 -0.4446,-0.70294 -0.3928,-1.25723 0.1487,-1.59187 1.033,-0.63846 -5.7258,-8.47274 -12.1017,-14.02724 -7.4887,-6.52398 -14.8422,-10.24988 -27.2284,-13.79618 l -10.9778,-3.14305 -19.3416,-0.1822 c -14.6209,-0.13773 -19.481,-0.40762 -19.9125,-1.10581 -0.756,-1.22332 -0.3804,-1.48387 5.4089,-3.75226 5.6988,-2.23293 22.703,-4.86802 31.4134,-4.86802 3.1121,0 10.2018,0.86994 15.7547,1.93319 24.5315,4.69718 39.0386,15.59804 48.3077,36.29911 3.1697,7.07905 3.381,7.95484 3.6949,15.31771 0.2861,6.70781 0.1008,8.51437 -1.3135,12.80738 -1.9916,6.04517 -8.3454,16.91778 -12.6018,21.56408 -6.1784,6.74429 -19.4186,14.68505 -32.0162,19.20148 -5.9809,2.14427 -21.8838,4.12188 -32.7014,4.06659 -8.7576,-0.0448 -11.0919,-0.32688 -17.4303,-2.10655 z"
     id="path174" />
  <path
     style="fill:#e5b7a2;fill-opacity:1;stroke-width:0.73185"
     d="m 1095.3729,990.04035 c -1.3163,-2.22891 -1.6585,-3.48798 -1.1872,-4.36857 0.3641,-0.68043 0.6621,-2.08213 0.6621,-3.11488 0,-1.1812 0.4072,-1.87774 1.0978,-1.87774 0.6098,0 1.0977,-0.65054 1.0977,-1.4637 0,-0.80504 -0.467,-1.4637 -1.0379,-1.4637 -2.0668,0 -3.3532,0.91911 -3.3532,2.39583 0,3.09314 -0.7345,0.60949 -1.4809,-5.00715 -0.4243,-3.19272 -1.1589,-6.78548 -1.6326,-7.9839 -0.4736,-1.19842 -0.7688,-3.0592 -0.6559,-4.13507 0.1202,-1.14656 -0.7232,-3.60101 -2.0379,-5.93059 -1.2337,-2.18595 -2.243,-4.5157 -2.243,-5.17722 0,-0.66152 -1.0527,-1.74713 -2.3393,-2.41247 -1.2867,-0.66534 -3.9379,-2.40279 -5.8916,-3.86101 -3.2884,-2.45436 -3.4272,-2.68118 -1.8688,-3.05344 1.3617,-0.3253 1.6383,-0.81475 1.4476,-2.56148 -0.1297,-1.18763 -0.7061,-2.52497 -1.2808,-2.97186 -0.5747,-0.4469 -1.0449,-1.2997 -1.0449,-1.89512 0,-0.59542 -0.8233,-1.45772 -1.8296,-1.91622 -1.0518,-0.47922 -1.8296,-1.44756 -1.8296,-2.27769 0,-1.33626 -0.1717,-1.37189 -2.2995,-0.47721 -2.24,0.94184 -2.3787,0.88415 -5.3634,-2.23088 -2.6321,-2.74703 -3.4826,-3.19773 -6.0338,-3.19773 -2.7848,0 -3.2182,-0.30777 -6.9565,-4.93999 -2.1927,-2.71699 -7.5634,-10.86797 -11.9349,-18.11329 -11.464,-19.00011 -16.9649,-25.72804 -28.3123,-34.62731 -5.107,-4.00511 -9.09532,-7.47205 -8.8631,-7.70428 0.2323,-0.23225 -2.27578,-2.96041 -5.57342,-6.06259 -6.73736,-6.33803 -8.43823,-8.61279 -14.74113,-19.71494 -3.62046,-6.37719 -4.61846,-8.88427 -5.47579,-13.75571 -2.40739,-13.6791 -0.92076,-25.24323 5.89333,-45.84302 2.19692,-6.64154 4.21008,-13.47519 4.47367,-15.18589 l 0.47927,-3.11036 h -2.65501 c -1.46026,0 -2.65501,-0.32933 -2.65501,-0.73185 0,-0.40252 0.65866,-0.73185 1.4637,-0.73185 0.80503,0 1.4637,-0.30847 1.4637,-0.68548 0,-0.37701 1.07033,-0.78868 2.37851,-0.91481 1.90239,-0.18342 2.42991,-0.59558 2.63526,-2.05896 0.14121,-1.00629 0.51091,-1.99429 0.82157,-2.19555 0.31065,-0.20126 1.74014,-2.70703 3.17664,-5.56837 1.95688,-3.8979 2.40235,-5.41191 1.7765,-6.03776 -0.57167,-0.57167 -0.58554,-0.83532 -0.0439,-0.83532 0.43526,0 2.01218,-2.88166 3.50427,-6.40369 1.4921,-3.52203 5.66504,-11.38828 9.27314,-17.48054 7.2137,-12.18039 6.9646,-11.97643 14.6258,-11.97643 2.629,0 3.5678,-0.27926 3.5678,-1.06135 0,-2.30381 11.2006,-9.91774 21.2236,-14.42739 2.6164,-1.17717 5.0864,-2.53744 5.4889,-3.02281 1.3645,-1.6454 15.3103,-5.59454 28.9008,-8.18407 l 13.5319,-2.57838 h 23.0655 c 21.6991,0 23.5422,0.10497 31.111,1.77178 14.3106,3.15152 12.8024,3.16433 12.8024,-0.10878 0,-2.64894 -0.3143,-3.07135 -4.5741,-6.14708 -3.2274,-2.33032 -6.5133,-3.88106 -11.1607,-5.26714 -6.3864,-1.90475 -7.3209,-1.97819 -30.7377,-2.41582 -22.7034,-0.42429 -24.6336,-0.35779 -32.2014,1.10933 -10.6121,2.0573 -27.4444,7.34405 -27.4444,8.61984 0,0.56755 -0.8149,0.97417 -1.9524,0.97417 -1.0739,0 -4.7547,1.51513 -8.1796,3.36695 -7.2747,3.93339 -9.4597,5.40574 -14.281,9.62339 -3.2428,2.83672 -4.861,3.74353 -4.861,2.72397 0,-1.23509 26.3637,-31.78265 41.7349,-48.35816 1.9054,-2.05467 9.3495,-8.94664 16.5424,-15.31548 7.193,-6.36885 18.3474,-16.73358 24.7877,-23.03274 13.3537,-13.06108 17.8355,-16.7121 29.6399,-24.14579 4.629,-2.91502 9.768,-6.54071 11.4201,-8.05709 1.6521,-1.51638 3.7885,-3.00608 4.7475,-3.31045 0.9589,-0.30437 2.933,-1.34057 4.3869,-2.30267 2.1209,-1.40353 3.0084,-1.61044 4.4908,-1.04686 1.5683,0.5963 2.801,0.14905 8.1603,-2.96089 4.6314,-2.68754 8.5061,-4.23693 14.5469,-5.81694 11.1599,-2.91893 10.4415,-2.62502 14.051,-5.749 2.4542,-2.12407 4.2266,-2.9633 7.4818,-3.5425 5.653,-1.00586 10.9782,-3.36309 11.5308,-5.10418 0.3102,-0.97746 1.6814,-1.70098 4.5093,-2.37937 3.3455,-0.8026 4.0018,-1.21059 3.7145,-2.30927 -0.3677,-1.40596 0.2879,-1.59738 2.9903,-0.87317 0.9057,0.24271 1.6466,0.89688 1.6466,1.45371 0,1.432 9.6975,1.30132 13.5393,-0.18245 1.61,-0.62184 3.6709,-1.10486 4.5796,-1.07339 2.4005,0.0831 9.1694,3.67547 17.2545,9.15712 3.8864,2.635 7.9736,5.00893 9.0827,5.27541 1.109,0.26648 3.3627,1.26119 5.0081,2.21047 1.6455,0.94928 4.0399,1.72596 5.321,1.72596 1.949,0 2.7153,0.55895 4.6928,3.42294 1.2998,1.88261 3.269,4.47841 4.376,5.76845 1.1069,1.29003 2.0126,3.05127 2.0126,3.91386 0,1.15712 0.5756,1.68348 2.1955,2.00745 1.9862,0.39725 2.1956,0.70949 2.1956,3.27503 0,1.55976 -0.2985,2.83592 -0.6632,2.83592 -0.9592,0 -1.8112,7.18826 -0.9784,8.25496 0.3835,0.49124 1.0481,1.93715 1.4769,3.21313 0.7445,2.21569 0.6506,2.4053 -2.0894,4.21852 -3.4303,2.27011 -3.6215,3.58403 -0.6976,4.79514 1.8843,0.78052 2.4345,0.70763 4.1631,-0.55163 1.8524,-1.34934 2.2109,-1.37638 5.1175,-0.38601 2.4471,0.83382 3.5179,1.7671 4.9334,4.29966 l 1.8079,3.23469 h -1.7523 c -1.6388,0 -3.2676,1.80008 -3.2676,3.61113 0,1.4975 4.2948,0.86362 5.165,-0.7623 0.6216,-1.16152 1.033,-1.33467 1.6663,-0.70138 0.6333,0.63329 0.5993,0.9902 -0.1376,1.44566 -0.8162,0.50441 -0.8138,1.18793 0.014,4.11934 0.7925,2.80599 1.4139,3.655 3.0819,4.21099 1.528,0.50935 2.2443,0.44541 2.6667,-0.23802 1.5464,-2.50223 7.3216,5.70503 6.7116,9.53823 -0.8482,5.33074 0.2825,8.7822 2.8771,8.7822 1.8681,0 1.9491,4.09682 0.093,4.72827 -0.7044,0.2397 -2.0576,1.08473 -3.0072,1.87785 l -1.7263,1.44204 5.2393,6.22182 c 4.859,5.77027 5.4385,6.22182 7.9837,6.22182 1.5093,0 3.1005,-0.35613 3.5358,-0.79141 0.5673,-0.56732 1.4388,0.90389 3.0776,5.19566 1.9121,5.00705 3.2285,7.02339 8.0421,12.31805 3.1657,3.48204 7.5824,9.29498 9.8148,12.91763 6.0167,9.76363 8.2274,12.56357 11.6774,14.79022 4.028,2.5997 6.5907,5.27104 6.1524,6.41328 -0.4174,1.0877 2.8754,7.09784 4.3413,7.92391 0.5712,0.32189 1.0386,1.40044 1.0386,2.39678 0,3.96655 10.7629,20.84746 16.6835,26.16682 l 1.4898,1.33854 -2.7799,5.97996 c -1.529,3.28897 -3.3399,7.54429 -4.0243,9.45624 l -1.2443,3.47629 -4.8794,0.008 c -2.6837,0.004 -6.1145,0.21218 -7.6239,0.46168 -2.2313,0.36881 -2.7445,0.23132 -2.7445,-0.73533 0,-0.79999 -3.5795,-2.98168 -10.9417,-6.66893 l -10.9417,-5.47998 -4.523,-6.52692 c -3.9649,-5.72145 -5.3918,-7.11456 -11.5627,-11.28856 -8.0467,-5.44282 -11.5049,-7.26878 -18.7352,-9.8923 -4.9776,-1.80611 -5.8017,-1.87292 -26.5565,-2.15259 l -21.4195,-0.28862 -11.0396,2.65093 c -13.8848,3.33417 -24.3797,8.30462 -31.9133,15.11441 -6.3144,5.70779 -8.224,8.67453 -11.9247,18.52694 -2.2755,6.05801 -3.1063,9.46752 -3.4322,14.08462 -0.2364,3.35046 -0.5654,6.09174 -0.731,6.09174 -0.1656,0 -1.8135,-1.1548 -3.662,-2.56622 -5.1505,-3.93274 -9.2822,-4.94744 -21.6008,-5.30493 -8.9111,-0.2586 -11.342,-0.0975 -14.0318,0.92973 -1.7895,0.68339 -3.6081,1.02337 -4.0415,0.75551 -0.4334,-0.26786 -2.3902,1.18402 -4.3484,3.22639 l -3.5604,3.71339 -0.9285,-8.06136 c -0.5107,-4.43375 -1.199,-8.06136 -1.5295,-8.06136 -0.3305,0 -0.8304,-1.22287 -1.1108,-2.71748 -1.5416,-8.21774 -9.0953,-22.98542 -14.8363,-29.00562 -8.4694,-8.88132 -23.2467,-16.36444 -36.4833,-18.47494 -7.4049,-1.18065 -8.1968,-1.45702 -8.5829,-2.99568 -0.4094,-1.63102 -0.7023,-1.69504 -7.7558,-1.69504 -4.9728,0 -7.8516,0.32565 -8.9512,1.0126 -1.0488,0.65522 -4.9231,1.15638 -10.9774,1.41999 -8.5747,0.37337 -9.5362,0.55869 -11.5083,2.21808 -1.1835,0.99587 -5.7004,3.18901 -10.0376,4.87365 -16.0369,6.22914 -28.5946,15.36387 -36.296,26.40244 -3.1154,4.46546 -3.8632,5.10958 -6.4036,5.51582 -3.2704,0.52297 -3.3965,0.84588 -1.529,3.91671 1.0819,1.77903 1.2347,2.89993 0.7755,5.68953 -1.5246,9.26155 -0.2283,26.97253 2.6378,36.04135 1.0599,3.35371 5.1819,49.58114 4.4833,50.27973 -0.2105,0.21058 -2.1296,-0.0332 -4.2645,-0.54172 -4.1832,-0.99639 -10.8091,-5.13217 -21.08019,-13.15785 -8.47912,-6.62544 -8.05779,-6.47942 -8.00776,-2.77529 0.0411,3.03905 0.247,3.31621 5.67184,7.63304 11.54281,9.18526 17.18771,12.02352 27.40171,13.77769 2.5508,0.43807 2.7445,0.64973 2.7445,2.99964 0,1.64478 0.3481,2.52832 0.996,2.52832 0.6237,0 1.6254,2.25721 2.6795,6.03776 2.018,7.23811 2.5169,8.28495 7.8461,16.46082 8.8487,13.57492 25.4784,28.3911 47.7264,42.52126 l 10.5798,6.71956 1.2961,6.39464 c 0.7129,3.51705 1.7997,8.69997 2.4148,11.5176 1.7461,7.99616 4.5172,23.56086 6.9427,38.99533 2.0938,13.32386 2.5918,17.83887 1.733,15.71046 -0.5043,-1.24959 -2.8674,-1.14984 -4.9405,0.20854 -1.66,1.08769 -1.7732,1.02392 -3.5637,-2.00806 z m 276.6337,-287.9664 c 0.3044,-0.79337 -0.013,-1.51204 -0.8897,-2.01259 -0.7498,-0.42821 -2.7023,-1.97612 -4.3388,-3.43979 -1.6365,-1.46367 -4.6221,-3.62635 -6.6347,-4.80596 -4.7431,-2.78002 -15.776,-7.20531 -20.6747,-8.29263 -2.1967,-0.48756 -3.8422,-1.25516 -3.8422,-1.79223 0,-1.04842 -0.2371,-1.12881 -10.8597,-3.68237 -4.1615,-1.00038 -8.6075,-1.82336 -9.88,-1.82886 -3.3132,-0.0143 -5.6069,-0.74976 -5.6069,-1.79774 0,-1.16392 -8.2597,-2.58144 -18.1862,-3.12109 -6.4109,-0.34853 -7.7922,-0.64566 -8.9929,-1.93443 -1.3299,-1.42752 -2.3623,-1.54045 -16.5244,-1.80746 l -15.1057,-0.28479 -3.8921,2.09923 c -3.8556,2.07959 -3.892,2.13163 -3.8945,5.55866 0,5.31453 0.4126,5.43885 20.1233,6.00594 9.2579,0.26636 24.3728,1.12728 33.5887,1.91316 9.2158,0.78587 16.8728,1.42886 17.0155,1.42886 0.1426,0 0.2594,0.45979 0.2594,1.02174 0,0.70704 1.9724,1.38376 6.4037,2.19704 3.522,0.64641 7.227,1.17913 8.2333,1.1838 2.7945,0.013 5.1229,0.79738 5.1229,1.72581 0,0.85584 7.7766,3.26752 15.9178,4.93641 3.4013,0.69725 4.574,1.2497 4.574,2.15475 0,1.22383 2.4448,2.18829 11.7096,4.61936 5.3451,1.40253 5.8202,1.39918 6.3743,-0.0448 z"
     id="path175" />
  <path
     style="fill:#e5b7a2;fill-opacity:1;stroke-width:0.73185"
     d="m 1278.2827,827.72171 c -9.9388,-2.58174 -15.2579,-4.94557 -23.1597,-10.29239 -11.533,-7.80382 -23.8405,-22.55958 -25.2984,-30.33093 -0.2636,-1.40529 -0.8908,-2.55506 -1.3937,-2.55506 -1.2706,0 -1.8362,-5.63081 -1.8437,-18.35709 -0.01,-10.46056 0.041,-10.78251 2.3975,-16.20082 6.6205,-15.22525 18.8978,-24.36266 40.3358,-30.01995 8.7493,-2.30885 9.0962,-2.34007 28.861,-2.59752 l 20.0052,-0.26059 4.8777,1.93932 c 7.9913,3.17729 16.2948,8.29195 21.1261,13.01305 2.4963,2.43941 4.3965,4.6656 4.2225,4.9471 -0.174,0.28151 -3.5386,-0.59142 -7.477,-1.93984 -13.7076,-4.69324 -22.0962,-6.14427 -35.5208,-6.14427 -10.0416,0 -13.5457,0.31235 -21.4502,1.91204 -9.4023,1.90278 -17.6518,4.692 -22.3515,7.55719 -1.3559,0.82668 -3.0876,1.50428 -3.8481,1.50578 -1.8372,0.004 -11.3974,7.7732 -11.5238,9.36537 -0.556,7.00215 -0.4135,7.88059 1.8409,11.34811 1.644,2.52871 3.4106,4.08758 6.3086,5.56672 9.2187,4.70526 28.8755,9.2852 46.1543,10.75373 4.3637,0.37086 6.0228,0.21919 7.8311,-0.71591 1.4635,-0.75681 4.118,-1.18648 7.33,-1.18648 4.5691,0 5.1229,-0.16305 5.9775,-1.75984 0.518,-0.96791 0.7354,-2.09377 0.4832,-2.50192 -0.2523,-0.40823 0.4978,-0.95216 1.6674,-1.20904 2.8043,-0.61593 5.1936,-3.14578 3.7902,-4.01314 -1.6441,-1.01614 19.0992,-7.48032 25.3831,-7.91008 l 5.3059,-0.36286 v 9.09848 c 0,26.48915 -12.1209,46.64146 -33.5769,55.825 -3.34,1.42956 -6.7022,2.59921 -7.4715,2.59921 -0.7694,0 -1.3989,0.43351 -1.3989,0.96334 0,1.18106 -18.6194,4.20206 -25.2488,4.09663 -2.4151,-0.0384 -7.9658,-0.99841 -12.335,-2.13334 z"
     id="path176" />
  <path
     style="fill:#e5b7a2;fill-opacity:1;stroke-width:0.73185"
     d="m 1360.0055,858.80261 c 0.2307,-1.42175 3.1078,-8.42006 6.3936,-15.55182 3.2857,-7.13175 11.5681,-26.3048 18.4052,-42.60676 6.837,-16.30196 13.1002,-31.20426 13.9181,-33.11622 1.0637,-2.48649 1.9023,-3.47629 2.9454,-3.47629 0.802,0 5.4987,-1.97599 10.437,-4.3911 11.0754,-5.41644 14.6109,-5.82699 17.3316,-2.01259 1.552,2.17589 1.7177,3.28254 1.9452,12.99034 0.3322,14.17486 -0.857,24.683 -4.0585,35.86066 -3.8126,13.31114 -8.557,21.36009 -18.5116,31.40528 -7.5811,7.6501 -7.8468,7.83557 -19.76,13.79594 -11.4527,5.72998 -22.76,9.68043 -27.7231,9.68569 -1.5858,0.002 -1.7047,-0.23043 -1.3229,-2.58313 z"
     id="path177" />
  <path
     style="fill:#cb9584;fill-opacity:1"
     d="m 1022.3137,699.13734 c 11.7458,-9.73026 24.8456,-18.10656 41.3997,-23.02858 24.6371,-7.46474 50.5389,-6.63142 75.8446,-5.40501 l 19.6334,4.11127 c 12.1671,34.43556 8.5102,49.52382 1.5785,66.55027 -6.074,-13.07486 -9.3238,-21.0949 -28.2295,-30.84303 -13.3106,-7.05862 -33.9181,-6.97559 -53.8196,-7.91401 -29.3758,5.51702 -37.7675,14.34734 -49.4209,22.66265 l -13.1961,16.04238 z"
     id="path178"
     sodipodi:nodetypes="cccccccccc" />
  <path
     style="fill:#cb9584;fill-opacity:1"
     d="m 1145.8943,748.49971 10.2459,-4.02518 c -5.5543,-14.23604 -15.4103,-20.82475 -25.2488,-27.44438 -8.0834,-4.17054 -18.9353,-7.23365 -33.1162,-8.96516 -9.2041,-0.55387 -21.1183,1.60223 -32.3844,3.11036 -3.5085,1.6522 -7.6091,2.56411 -10.2459,5.30592 1.3688,1.72152 3.0855,2.05108 4.94,1.82962 12.1458,0.0319 23.2957,-0.73304 37.6903,1.09778 24.4953,7.10958 23.6764,8.17827 27.8103,10.42886 9.0014,5.62559 14.9235,12.07231 20.3088,18.66218 z"
     id="path179"
     sodipodi:nodetypes="cccccccccc" />
  <path
     style="fill:#cb9584;fill-opacity:1"
     d="m 1243.4134,677.32728 c -13.9865,27.98147 -19.2124,48.58562 -13.5393,60.01171 6.8007,-8.66178 15.2295,-16.6946 48.1506,-23.99947 23.4284,-1.82648 34.5884,-0.37174 49.5514,2.77582 23.4817,10.57681 27.0195,18.85241 33.2992,27.44438 l 21.9555,12.07553 16.4666,0.36592 -27.8103,-54.15691 c -18.7914,-6.04893 -21.7302,-10.47908 -59.4942,-18.59939 -21.2759,-6.55181 -45.3102,-5.34586 -68.5795,-5.91759 z"
     id="path180"
     sodipodi:nodetypes="cccccccccc" />
  <path
     style="fill:#cb9584;fill-opacity:1"
     d="m 1233.1674,741.18121 12.8074,12.07552 c 4.0806,-6.2928 9.1374,-12.62175 26.1637,-19.39402 14.118,-2.82904 22.8816,-8.49282 52.5102,-3.11037 6.325,1.93191 15.527,4.58311 23.6022,6.95258 -0.3656,-3.53728 -4.2482,-7.07455 -8.9652,-10.61183 -11.1427,-6.62511 -20.1344,-10.56149 -25.4318,-9.87997 l -35.8606,0.54888 c -15.0625,3.97117 -27.8705,7.85563 -30.3718,11.34368 -6.5497,1.42763 -9.6724,7.9958 -14.4541,12.07553 z"
     id="path181"
     sodipodi:nodetypes="cccccccccc" />
  <path
     style="fill:#cb9584;fill-opacity:1"
     d="m 1053.4982,651.34661 c 67.2809,-25.58749 163.7109,-94.50484 198.6974,-72.08724 57.9705,28.65117 79.3941,71.92109 118.9256,107.94789 -30.5744,-46.96038 -50.0299,-93.92077 -91.8472,-140.88115 -19.795,-10.49616 -38.3442,-22.39386 -80.8694,-7.3185 -58.3225,24.47884 -102.9988,66.61735 -144.9064,112.339 z"
     id="path182"
     sodipodi:nodetypes="cccccc" />
  <path
     style="fill:#cb9584;fill-opacity:1"
     d="m 1172.1289,824.11267 c 12.6804,3.25693 25.4508,5.43342 38.8122,0.5175 -1.4344,7.91162 -4.0442,15.31952 -15.0074,19.14735 -9.8378,-2.74919 -17.4088,-10.03194 -23.8048,-19.66485 z"
     id="path183"
     sodipodi:nodetypes="cccc" />
  <path
     style="fill:#cb9584;fill-opacity:1"
     d="m 1155.1162,875.86229 c 7.7204,-1.8649 15.5238,-2.90032 23.4167,-3.04029 9.0596,1.03646 17.3421,3.36818 25.9395,5.17496 16.0589,2.25309 18.4114,1.19012 24.5163,1.03499 -9.7881,3.40801 -17.9286,4.58245 -30.0147,5.69246 -16.0568,0.40021 -29.2507,-5.87962 -43.8578,-8.86212 z"
     id="path184"
     sodipodi:nodetypes="cccccc" />
  <path
     style="fill:#cb9584;fill-opacity:1"
     d="m 1020.565,838.70024 c -12.5188,-2.9177 -23.68,-11.71794 -34.76289,-20.85773 l -12.07553,-10.2459 c 9.8195,-68.60133 28.89402,-85.78562 47.20432,-107.21605 l -4.0252,40.61768 -7.3185,1.09778 3.6593,5.48888 c -0.8042,16.77665 -4.0734,22.48858 3.2933,42.08138 0.1533,16.82001 1.4327,33.18962 4.0252,49.03396 z"
     id="path185"
     sodipodi:nodetypes="ccccccccc" />
  <path
     style="fill:#cb9584;fill-opacity:1"
     d="m 1400.7611,764.96634 c 4.5941,-0.36121 8.4442,-3.1668 16.2837,7.13554 12.635,24.58395 3.8454,24.20552 2.9274,38.42213 -22.5676,32.44222 -41.2555,39.94357 -60.5606,51.41247 13.7077,-32.39885 26.7746,-65.43846 41.3495,-96.97014 z"
     id="path186"
     sodipodi:nodetypes="ccccc" />
  <path
     style="fill:#cb9584;fill-opacity:1"
     d="m 1095.5796,922.86299 c 28.5384,15.60273 51.7711,33.71093 96.7872,41.5325 33.7452,-1.68387 54.0622,-15.30395 75.0146,-28.35919 l -1.0977,53.05913 c -18.9592,18.69547 -43.7263,34.63637 -69.7088,35.67767 l -84.3457,0.3659 c 3.1619,-30.30427 -9.6587,-67.55747 -16.6496,-102.27601 z"
     id="path187"
     sodipodi:nodetypes="ccccccc" />
</svg>
