<?xml version="1.0" encoding="UTF-8" standalone="no"?>
<svg
   version="1.1"
   width="2214"
   height="3264"
   id="svg325"
   sodipodi:docname="idle_3_default_girl.svg"
   inkscape:version="1.4.2 (f4327f4, 2025-05-13)"
   xmlns:inkscape="http://www.inkscape.org/namespaces/inkscape"
   xmlns:sodipodi="http://sodipodi.sourceforge.net/DTD/sodipodi-0.dtd"
   xmlns="http://www.w3.org/2000/svg"
   xmlns:svg="http://www.w3.org/2000/svg">
  <defs
     id="defs325" />
  <sodipodi:namedview
     id="namedview325"
     pagecolor="#ffffff"
     bordercolor="#000000"
     borderopacity="0.25"
     inkscape:showpageshadow="2"
     inkscape:pageopacity="0.0"
     inkscape:pagecheckerboard="0"
     inkscape:deskcolor="#d1d1d1"
     inkscape:zoom="1.0628958"
     inkscape:cx="1008.5654"
     inkscape:cy="527.33296"
     inkscape:window-width="2560"
     inkscape:window-height="1369"
     inkscape:window-x="1072"
     inkscape:window-y="94"
     inkscape:window-maximized="1"
     inkscape:current-layer="svg325" />
  <path
     d="M0,0 L7,0 L12,1 L16,4 L16,6 L24,8 L39,7 L52,11 L61,18 L74,23 L74,25 L80,25 L87,36 L91,38 L91,46 L100,62 L104,68 L108,72 L113,77 L115,82 L121,93 L127,102 L132,116 L142,126 L152,143 L156,148 L160,150 L161,154 L165,154 L168,167 L174,177 L177,181 L181,180 L184,182 L184,191 L190,193 L193,192 L208,193 L214,210 L214,215 L217,216 L218,222 L220,222 L222,227 L223,237 L224,242 L223,267 L221,274 L221,277 L219,277 L217,283 L213,289 L211,289 L210,292 L201,293 L201,295 L192,298 L190,306 L173,309 L140,313 L134,321 L132,321 L131,324 L125,328 L114,337 L106,340 L93,342 L89,345 L85,347 L92,355 L96,358 L96,360 L99,361 L97,366 L89,373 L81,377 L73,378 L75,394 L77,403 L80,418 L82,425 L85,433 L102,438 L122,444 L139,450 L158,456 L170,461 L185,466 L216,478 L226,482 L245,490 L264,499 L275,507 L286,517 L297,537 L304,565 L308,587 L311,612 L315,655 L312,726 L310,759 L307,839 L306,888 L305,896 L303,926 L301,958 L300,961 L298,997 L294,1042 L293,1049 L292,1067 L291,1074 L288,1131 L287,1141 L286,1169 L293,1198 L298,1215 L303,1234 L308,1252 L312,1269 L317,1286 L326,1328 L327,1332 L329,1359 L330,1368 L331,1397 L329,1397 L329,1426 L325,1464 L323,1482 L321,1506 L318,1528 L316,1545 L314,1561 L311,1587 L308,1609 L305,1636 L303,1648 L301,1664 L299,1680 L295,1712 L293,1728 L291,1747 L285,1792 L281,1822 L277,1852 L274,1880 L272,1901 L270,1916 L267,1949 L264,1976 L262,2002 L260,2014 L258,2041 L256,2058 L249,2125 L247,2148 L242,2188 L240,2200 L237,2227 L227,2281 L223,2307 L220,2343 L219,2350 L218,2376 L218,2424 L219,2446 L222,2478 L228,2514 L231,2535 L232,2544 L234,2549 L234,2560 L239,2581 L241,2590 L243,2606 L243,2614 L235,2627 L226,2631 L213,2636 L184,2641 L164,2642 L122,2641 L95,2639 L88,2635 L87,2632 L85,2632 L76,2621 L64,2599 L61,2593 L58,2581 L54,2572 L53,2551 L52,2546 L52,2533 L56,2522 L61,2510 L62,2507 L64,2507 L65,2498 L72,2475 L79,2448 L84,2428 L90,2388 L94,2358 L97,2310 L98,2281 L98,2221 L97,2212 L93,2128 L92,2120 L91,2096 L89,2075 L87,2029 L86,2007 L84,1944 L87,1921 L90,1893 L93,1876 L94,1862 L94,1852 L95,1840 L96,1815 L96,1770 L94,1720 L92,1702 L91,1686 L88,1658 L84,1604 L82,1571 L81,1560 L80,1541 L79,1428 L76,1418 L71,1414 L65,1412 L49,1412 L42,1415 L37,1421 L31,1437 L29,1447 L26,1470 L22,1496 L20,1508 L14,1546 L10,1571 L8,1580 L6,1595 L1,1624 L-2,1643 L-5,1665 L-7,1674 L-13,1719 L-17,1745 L-20,1764 L-23,1774 L-29,1805 L-33,1825 L-38,1863 L-40,1880 L-41,1896 L-43,1944 L-43,1983 L-44,2005 L-49,2032 L-55,2052 L-61,2068 L-66,2086 L-71,2099 L-76,2116 L-91,2165 L-95,2176 L-104,2210 L-111,2233 L-115,2249 L-119,2263 L-122,2277 L-128,2302 L-135,2328 L-142,2358 L-149,2388 L-151,2402 L-151,2413 L-149,2439 L-147,2457 L-143,2487 L-139,2528 L-139,2547 L-142,2560 L-145,2571 L-151,2580 L-164,2590 L-180,2600 L-197,2610 L-212,2619 L-223,2625 L-235,2630 L-245,2635 L-258,2640 L-284,2644 L-301,2645 L-330,2648 L-383,2648 L-411,2644 L-415,2642 L-425,2629 L-424,2624 L-423,2610 L-416,2590 L-401,2561 L-395,2552 L-390,2544 L-382,2531 L-377,2522 L-369,2509 L-362,2498 L-354,2487 L-347,2474 L-343,2470 L-335,2456 L-329,2447 L-319,2429 L-308,2409 L-301,2393 L-294,2371 L-285,2329 L-277,2293 L-269,2256 L-265,2234 L-258,2190 L-255,2168 L-253,2137 L-251,2109 L-249,2083 L-248,2067 L-246,2055 L-242,2015 L-242,1999 L-240,1971 L-239,1941 L-239,1929 L-238,1919 L-237,1894 L-235,1862 L-235,1852 L-233,1826 L-231,1796 L-229,1758 L-227,1730 L-225,1707 L-223,1688 L-221,1660 L-218,1631 L-216,1616 L-213,1586 L-207,1549 L-204,1528 L-200,1504 L-196,1478 L-192,1458 L-186,1422 L-179,1382 L-176,1365 L-173,1348 L-167,1313 L-164,1300 L-159,1270 L-157,1259 L-164,1233 L-167,1231 L-173,1206 L-179,1181 L-184,1163 L-191,1140 L-196,1123 L-204,1096 L-210,1072 L-215,1053 L-222,1028 L-227,1008 L-233,986 L-242,955 L-246,942 L-249,930 L-254,911 L-258,899 L-263,886 L-270,856 L-274,846 L-281,818 L-287,789 L-291,766 L-294,743 L-296,727 L-298,706 L-303,653 L-304,621 L-300,610 L-297,600 L-291,591 L-279,578 L-269,570 L-259,561 L-254,556 L-249,553 L-244,548 L-233,539 L-221,530 L-218,529 L-217,526 L-206,519 L-196,511 L-183,502 L-178,499 L-168,492 L-157,485 L-148,477 L-139,471 L-133,467 L-128,462 L-112,450 L-104,443 L-98,427 L-100,417 L-104,402 L-107,396 L-107,394 L-109,394 L-109,380 L-112,379 L-113,373 L-117,367 L-120,364 L-130,359 L-139,352 L-139,350 L-143,348 L-152,338 L-162,321 L-166,315 L-171,309 L-171,307 L-175,305 L-182,300 L-188,297 L-189,299 L-194,299 L-197,297 L-211,293 L-222,295 L-226,295 L-227,290 L-228,272 L-230,262 L-235,259 L-234,250 L-229,231 L-229,217 L-228,215 L-226,215 L-225,211 L-222,209 L-219,209 L-217,205 L-211,198 L-201,192 L-191,188 L-188,188 L-176,165 L-168,154 L-163,147 L-165,145 L-164,139 L-156,131 L-145,123 L-139,118 L-132,110 L-110,88 L-99,79 L-89,69 L-81,62 L-73,55 L-58,45 L-47,38 L-44,35 L-37,32 L-24,24 L-16,20 L-14,20 L-17,8 L-10,5 L-1,3 Z M1,14 Z M-190,190 L-189,192 Z M-191,193 Z M-192,196 Z M-193,198 Z M-194,199 Z M-195,201 Z "
     fill="#E5B7A2"
     transform="translate(1065,453)"
     id="path1" />
  <path
     d="M0,0 L7,0 L12,1 L16,4 L16,6 L24,8 L39,7 L52,11 L61,18 L74,23 L74,25 L80,25 L87,36 L91,38 L91,46 L100,62 L104,68 L108,72 L113,77 L115,82 L121,93 L127,102 L132,116 L142,126 L152,143 L156,148 L160,150 L161,154 L165,154 L168,167 L174,177 L177,181 L181,180 L184,182 L184,191 L190,193 L193,192 L200,192 L205,198 L206,202 L206,227 L204,244 L199,256 L193,267 L184,278 L173,286 L160,292 L148,296 L135,297 L125,311 L114,322 L94,336 L81,344 L61,356 L58,362 L56,371 L55,402 L54,409 L52,405 L52,378 L55,360 L50,362 L20,377 L4,383 L-1,384 L-16,384 L-34,379 L-46,373 L-53,369 L-53,367 L-61,365 L-66,361 L-71,359 L-71,357 L-77,355 L-87,349 L-95,345 L-89,371 L-87,378 L-85,394 L-81,417 L-81,444 L-85,456 L-92,466 L-102,475 L-116,485 L-134,497 L-152,508 L-181,524 L-201,535 L-225,549 L-248,563 L-267,577 L-277,586 L-282,591 L-289,599 L-293,607 L-294,611 L-294,677 L-290,708 L-288,727 L-283,758 L-280,774 L-276,794 L-273,804 L-271,816 L-264,840 L-259,861 L-255,876 L-253,886 L-248,908 L-244,918 L-241,929 L-237,947 L-233,957 L-228,976 L-224,990 L-216,1020 L-212,1035 L-210,1046 L-206,1056 L-200,1082 L-195,1099 L-191,1114 L-188,1125 L-183,1140 L-180,1152 L-176,1167 L-171,1185 L-165,1214 L-163,1228 L-163,1233 L-167,1231 L-173,1206 L-179,1181 L-184,1163 L-191,1140 L-196,1123 L-204,1096 L-210,1072 L-215,1053 L-222,1028 L-227,1008 L-233,986 L-242,955 L-246,942 L-249,930 L-254,911 L-258,899 L-263,886 L-270,856 L-274,846 L-281,818 L-287,789 L-291,766 L-294,743 L-296,727 L-298,706 L-303,653 L-304,621 L-300,610 L-297,600 L-291,591 L-279,578 L-269,570 L-259,561 L-254,556 L-249,553 L-244,548 L-233,539 L-221,530 L-218,529 L-217,526 L-206,519 L-196,511 L-183,502 L-178,499 L-168,492 L-157,485 L-148,477 L-139,471 L-133,467 L-128,462 L-112,450 L-104,443 L-98,427 L-100,417 L-104,402 L-107,396 L-107,394 L-109,394 L-109,380 L-112,379 L-113,373 L-117,367 L-120,364 L-130,359 L-139,352 L-139,350 L-143,348 L-152,338 L-162,321 L-166,315 L-171,309 L-171,307 L-175,305 L-182,300 L-188,297 L-189,299 L-194,299 L-197,297 L-211,293 L-222,295 L-226,295 L-227,290 L-228,272 L-230,262 L-235,259 L-234,250 L-229,231 L-229,217 L-228,215 L-226,215 L-225,211 L-222,209 L-219,209 L-217,205 L-211,198 L-201,192 L-191,188 L-188,188 L-176,165 L-168,154 L-163,147 L-165,145 L-164,139 L-156,131 L-145,123 L-139,118 L-132,110 L-110,88 L-99,79 L-89,69 L-81,62 L-73,55 L-58,45 L-47,38 L-44,35 L-37,32 L-24,24 L-16,20 L-14,20 L-17,8 L-10,5 L-1,3 Z M1,14 Z M-190,190 L-189,192 Z M-191,193 Z M-192,196 Z M-193,198 Z M-194,199 Z M-195,201 Z "
     fill="#D09B89"
     transform="translate(1065,453)"
     id="path2" />
  <path
     d="M0,0 L21,0 L46,7 L59,16 L66,23 L70,29 L75,42 L76,48 L76,67 L70,79 L63,88 L53,97 L41,103 L31,107 L14,110 L-8,110 L-23,107 L-29,103 L-36,100 L-44,94 L-49,88 L-51,87 L-48,118 L-43,135 L-36,149 L-24,163 L-14,172 L2,183 L17,193 L38,205 L62,219 L79,227 L84,229 L95,231 L106,231 L120,227 L129,223 L139,219 L147,214 L163,206 L189,191 L213,175 L224,166 L231,159 L239,146 L251,121 L256,110 L263,93 L269,77 L273,68 L275,63 L277,63 L278,57 L271,58 L252,58 L252,70 L250,80 L246,90 L238,102 L228,110 L220,115 L203,120 L198,121 L177,121 L165,117 L157,113 L157,111 L151,109 L141,100 L133,91 L132,87 L130,87 L126,77 L124,77 L121,77 L119,67 L116,63 L116,61 L109,60 L106,59 L91,59 L85,62 L82,65 L79,74 L77,74 L77,64 L81,58 L87,54 L91,53 L111,53 L120,58 L123,62 L124,50 L128,38 L135,29 L142,22 L151,17 L170,12 L175,11 L209,11 L222,15 L232,19 L237,24 L243,29 L248,36 L248,39 L254,41 L263,46 L268,48 L269,50 L282,50 L283,45 L287,33 L291,34 L293,35 L293,44 L299,46 L302,45 L309,45 L314,51 L315,55 L315,80 L313,97 L308,109 L302,120 L293,131 L282,139 L269,145 L257,149 L244,150 L234,164 L223,175 L203,189 L190,197 L170,209 L167,215 L165,224 L164,255 L163,262 L161,258 L161,231 L164,213 L159,215 L129,230 L113,236 L108,237 L93,237 L75,232 L63,226 L56,222 L56,220 L48,218 L43,214 L38,212 L38,210 L32,208 L22,202 L14,198 L20,224 L22,231 L24,247 L28,270 L28,297 L24,309 L17,319 L7,328 L-7,338 L-25,350 L-43,361 L-72,377 L-92,388 L-116,402 L-139,416 L-158,430 L-168,439 L-173,444 L-180,452 L-184,460 L-185,464 L-185,530 L-181,561 L-179,580 L-174,611 L-171,627 L-167,647 L-164,657 L-162,669 L-155,693 L-150,714 L-146,729 L-144,739 L-139,761 L-135,771 L-132,782 L-128,800 L-124,810 L-119,829 L-115,843 L-107,873 L-103,888 L-101,899 L-97,909 L-91,935 L-86,952 L-82,967 L-79,978 L-74,993 L-71,1005 L-67,1020 L-62,1038 L-56,1067 L-54,1081 L-54,1086 L-58,1084 L-64,1059 L-70,1034 L-75,1016 L-82,993 L-87,976 L-95,949 L-101,925 L-106,906 L-113,881 L-118,861 L-124,839 L-133,808 L-137,795 L-140,783 L-145,764 L-149,752 L-154,739 L-161,709 L-165,699 L-172,671 L-178,642 L-182,619 L-185,596 L-187,580 L-189,559 L-194,506 L-195,474 L-191,463 L-188,453 L-182,444 L-170,431 L-160,423 L-149,416 L-140,409 L-119,396 L-95,382 L-77,372 L-58,362 L-51,357 L-40,353 L-28,344 L-15,336 L-13,336 L-12,332 L1,322 L14,310 L21,299 L23,293 L23,272 L19,247 L17,232 L11,203 L11,199 L9,199 L8,194 L-2,187 L-19,175 L-30,165 L-37,157 L-44,147 L-50,136 L-52,129 L-52,124 L-64,123 L-76,115 L-85,108 L-85,101 L-82,102 L-81,104 L-78,105 L-73,110 L-63,117 L-54,120 L-58,77 L-62,64 L-62,47 L-61,39 L-61,35 L-57,35 L-55,30 L-48,22 L-40,15 L-26,7 L-9,2 L-1,1 Z "
     fill="#100C0B"
     transform="translate(956,600)"
     id="path3" />
  <path
     d="M0,0 L3,1 L8,20 L12,33 L15,44 L17,53 L23,71 L29,92 L32,102 L35,111 L41,131 L43,139 L48,154 L54,172 L58,186 L63,201 L66,210 L70,221 L71,224 L71,258 L68,284 L64,326 L62,326 L62,336 L59,369 L56,392 L54,418 L47,470 L45,488 L42,508 L40,517 L38,530 L32,557 L30,574 L26,591 L22,617 L18,639 L16,648 L13,671 L9,688 L6,707 L4,721 L1,736 L-1,750 L-7,778 L-9,794 L-13,824 L-15,837 L-17,859 L-20,889 L-22,913 L-25,960 L-27,976 L-34,1101 L-35,1139 L-37,1169 L-39,1242 L-45,1332 L-48,1366 L-50,1384 L-52,1401 L-55,1428 L-61,1458 L-64,1477 L-67,1496 L-69,1496 L-70,1507 L-73,1519 L-75,1532 L-82,1565 L-97,1625 L-102,1637 L-106,1646 L-115,1663 L-116,1667 L-118,1667 L-120,1672 L-127,1684 L-131,1691 L-132,1695 L-134,1695 L-136,1700 L-146,1717 L-160,1739 L-165,1746 L-167,1751 L-170,1754 L-185,1778 L-197,1797 L-207,1814 L-216,1833 L-222,1851 L-222,1865 L-220,1865 L-217,1869 L-208,1873 L-193,1875 L-133,1875 L-102,1872 L-66,1865 L-51,1860 L-39,1855 L-33,1852 L-31,1852 L-31,1850 L-19,1845 L-17,1845 L-17,1843 L-8,1839 L11,1828 L24,1819 L34,1810 L41,1800 L43,1796 L45,1787 L45,1754 L42,1717 L40,1706 L38,1679 L37,1677 L37,1628 L39,1622 L45,1591 L50,1564 L55,1545 L68,1493 L76,1459 L81,1443 L88,1420 L92,1406 L98,1385 L101,1376 L111,1345 L119,1318 L123,1308 L127,1295 L136,1265 L139,1253 L141,1234 L142,1195 L143,1175 L144,1136 L145,1130 L147,1102 L149,1084 L150,1082 L153,1057 L156,1037 L161,1017 L162,1009 L164,1009 L165,995 L168,982 L169,981 L173,948 L175,940 L177,924 L179,914 L181,900 L187,858 L190,844 L194,815 L199,790 L203,761 L207,739 L210,720 L213,697 L217,674 L220,661 L226,650 L234,643 L240,640 L258,640 L270,644 L275,648 L279,656 L281,664 L282,770 L284,813 L285,829 L286,831 L289,879 L291,898 L292,914 L294,930 L298,981 L298,1070 L294,1127 L291,1148 L290,1164 L287,1178 L287,1228 L289,1275 L293,1338 L294,1343 L296,1382 L298,1415 L299,1442 L299,1550 L298,1553 L295,1597 L292,1627 L289,1641 L283,1676 L280,1686 L278,1696 L274,1710 L266,1736 L262,1749 L258,1767 L257,1793 L255,1793 L254,1791 L254,1759 L255,1755 L250,1767 L248,1775 L248,1787 L247,1787 L246,1782 L246,1769 L250,1758 L255,1746 L256,1743 L258,1743 L259,1734 L266,1711 L273,1684 L278,1664 L284,1624 L288,1594 L291,1546 L292,1517 L292,1457 L291,1448 L287,1364 L286,1356 L285,1332 L283,1311 L281,1265 L280,1243 L278,1180 L281,1157 L284,1129 L287,1112 L288,1098 L288,1088 L289,1076 L290,1051 L290,1006 L288,956 L286,938 L285,922 L282,894 L278,840 L276,807 L275,796 L274,777 L273,664 L270,654 L265,650 L259,648 L243,648 L236,651 L231,657 L225,673 L223,683 L220,706 L216,732 L214,744 L208,782 L204,807 L202,816 L200,831 L195,860 L192,879 L189,901 L187,910 L181,955 L177,981 L174,1000 L171,1010 L165,1041 L161,1061 L156,1099 L154,1116 L153,1132 L151,1180 L151,1219 L150,1241 L145,1268 L139,1288 L133,1304 L128,1322 L123,1335 L118,1352 L103,1401 L99,1412 L90,1446 L83,1469 L79,1485 L75,1499 L72,1513 L66,1538 L59,1564 L52,1594 L45,1624 L43,1638 L43,1649 L45,1675 L47,1693 L51,1723 L55,1764 L55,1783 L52,1796 L49,1807 L43,1816 L30,1826 L14,1836 L-3,1846 L-18,1855 L-29,1861 L-41,1866 L-51,1871 L-64,1876 L-90,1880 L-107,1881 L-136,1884 L-189,1884 L-217,1880 L-221,1878 L-231,1865 L-230,1860 L-229,1846 L-222,1826 L-207,1797 L-201,1788 L-196,1780 L-188,1767 L-183,1758 L-175,1745 L-168,1734 L-160,1723 L-153,1710 L-149,1706 L-141,1692 L-135,1683 L-125,1665 L-114,1645 L-107,1629 L-100,1607 L-91,1565 L-83,1529 L-75,1492 L-71,1470 L-64,1426 L-61,1404 L-59,1373 L-57,1345 L-55,1319 L-54,1303 L-52,1291 L-48,1251 L-48,1235 L-46,1207 L-45,1177 L-45,1165 L-44,1155 L-43,1130 L-41,1098 L-41,1088 L-39,1062 L-37,1032 L-35,994 L-33,966 L-31,943 L-29,924 L-27,896 L-24,867 L-22,852 L-19,822 L-13,785 L-10,764 L-6,740 L-2,714 L2,694 L8,658 L15,618 L18,601 L21,584 L27,549 L30,536 L35,506 L37,496 L39,492 L44,455 L48,416 L55,353 L62,285 L64,264 L65,259 L65,232 L64,224 L62,222 L59,210 L51,184 L47,171 L40,148 L31,119 L26,102 L23,96 L21,86 L18,80 L16,69 L11,50 L6,35 L3,18 Z "
     fill="#0A0807"
     transform="translate(871,1217)"
     id="path4" />
  <path
     d="M0,0 L7,0 L6,6 L4,6 L1,17 L-3,25 L-11,45 L-16,57 L-28,83 L-35,96 L-42,105 L-50,113 L-65,124 L-76,131 L-91,140 L-112,152 L-129,161 L-138,166 L-149,170 L-160,174 L-165,175 L-176,175 L-187,173 L-199,168 L-216,159 L-235,148 L-262,132 L-279,120 L-288,113 L-298,104 L-308,92 L-316,76 L-318,67 L-320,61 L-322,37 L-322,30 L-318,32 L-312,39 L-304,44 L-297,47 L-291,50 L-279,52 L-257,52 L-240,49 L-228,44 L-218,39 L-206,28 L-198,15 L-197,12 L-194,13 L-194,17 L-192,17 L-190,8 L-183,2 L-180,1 L-165,1 L-155,4 L-151,10 L-150,13 L-150,20 L-147,20 L-146,17 L-142,24 L-141,30 L-139,30 L-135,36 L-126,46 L-118,52 L-114,54 L-114,56 L-108,58 L-97,62 L-94,63 L-73,63 L-57,59 L-47,55 L-33,44 L-25,32 L-21,20 L-19,1 Z "
     fill="#D8A492"
     transform="translate(1227,657)"
     id="path5" />
  <path
     d="M0,0 L3,0 L3,21 L2,57 L0,75 L-2,75 L-2,91 L-6,127 L-8,140 L-10,162 L-12,174 L-13,187 L-14,191 L-16,212 L-18,226 L-23,271 L-25,295 L-25,334 L-23,348 L-17,377 L-11,395 L-5,417 L0,433 L2,439 L6,448 L9,460 L14,474 L20,491 L21,500 L23,500 L26,510 L29,517 L31,528 L36,541 L41,561 L44,570 L48,586 L51,600 L54,614 L60,636 L63,653 L70,684 L75,699 L78,708 L81,732 L82,761 L80,761 L80,790 L76,828 L74,846 L72,870 L69,892 L67,909 L65,925 L62,951 L59,973 L56,1000 L54,1012 L52,1028 L50,1044 L46,1076 L44,1092 L42,1111 L36,1156 L32,1186 L28,1216 L25,1244 L23,1265 L21,1280 L18,1313 L15,1340 L13,1366 L11,1378 L9,1405 L7,1422 L0,1489 L-2,1512 L-7,1552 L-9,1564 L-12,1591 L-22,1645 L-26,1671 L-29,1707 L-30,1714 L-31,1740 L-31,1788 L-30,1810 L-27,1842 L-21,1878 L-18,1899 L-17,1908 L-15,1913 L-15,1922 L-17,1922 L-17,1929 L-19,1929 L-19,1941 L-23,1961 L-27,1969 L-33,1980 L-39,1988 L-41,1988 L-41,1990 L-45,1993 L-48,1993 L-47,1989 L-38,1977 L-31,1964 L-28,1953 L-26,1940 L-26,1915 L-28,1890 L-36,1838 L-38,1815 L-40,1799 L-40,1733 L-37,1695 L-35,1681 L-34,1664 L-31,1643 L-29,1624 L-26,1606 L-23,1583 L-18,1553 L-13,1516 L-11,1496 L-10,1494 L-7,1473 L-5,1452 L-3,1441 L0,1408 L3,1381 L6,1349 L8,1328 L10,1307 L11,1289 L13,1278 L15,1255 L18,1231 L19,1227 L21,1200 L24,1182 L26,1168 L30,1132 L33,1116 L35,1095 L36,1090 L37,1074 L40,1058 L42,1042 L43,1036 L44,1020 L46,1009 L48,992 L50,982 L52,959 L55,938 L58,911 L61,889 L65,856 L68,825 L70,805 L72,778 L72,724 L71,717 L69,711 L67,697 L67,692 L65,692 L63,677 L61,671 L57,649 L52,629 L49,615 L45,601 L43,590 L39,578 L36,562 L33,553 L30,541 L25,526 L20,509 L14,492 L11,483 L8,474 L-1,446 L-4,439 L-7,429 L-14,408 L-19,390 L-25,368 L-27,358 L-30,347 L-31,322 L-31,309 L-29,269 L-26,246 L-25,227 L-20,193 L-15,150 L-11,121 L-10,106 L-9,105 L-7,88 L-4,54 L-2,42 L-1,28 Z "
     fill="#0C0A08"
     transform="translate(1314,1089)"
     id="path6" />
  <path
     d="M0,0 L23,0 L39,5 L51,11 L59,18 L68,32 L71,40 L71,56 L68,66 L59,78 L50,86 L33,94 L28,96 L18,98 L-4,98 L-16,97 L-27,92 L-34,89 L-44,80 L-51,70 L-54,61 L-56,50 L-56,40 L-51,28 L-38,28 L-26,32 L-22,36 L-18,37 L-22,29 L-22,25 L-15,23 L-2,22 L-2,31 L4,43 L11,48 L14,49 L31,49 L32,46 L37,43 L39,43 L41,39 L44,35 L45,32 L52,33 L59,37 L51,27 L38,18 L27,12 L21,10 L6,9 L-9,9 L-24,12 L-36,16 L-41,18 L-36,13 L-28,8 L-8,1 Z "
     fill="#D19D8C"
     transform="translate(956,606)"
     id="path7" />
  <path
     d="M0,0 L31,0 L47,8 L58,17 L58,19 L49,16 L30,11 L3,11 L-15,16 L-20,19 L-25,21 L-33,28 L-34,31 L-28,26 L-18,24 L-18,31 L-16,31 L-11,40 L-3,45 L-1,46 L13,46 L20,44 L29,36 L31,25 L37,26 L46,29 L46,32 L41,37 L36,43 L47,39 L56,36 L65,35 L66,36 L66,51 L63,65 L56,79 L50,86 L43,91 L41,91 L41,93 L27,98 L17,99 L17,101 L-2,101 L-14,97 L-25,91 L-36,82 L-43,74 L-49,64 L-52,56 L-52,37 L-49,25 L-42,16 L-34,9 L-22,4 L-12,1 Z "
     fill="#D7A694"
     transform="translate(1137,615)"
     id="path8" />
  <path
     d="M0,0 L2,0 L2,2 L6,2 L7,5 L8,14 L14,38 L16,54 L20,77 L20,104 L16,116 L9,126 L-1,135 L-15,145 L-33,157 L-51,168 L-80,184 L-100,195 L-124,209 L-147,223 L-166,237 L-176,246 L-181,251 L-188,259 L-192,267 L-193,271 L-193,337 L-189,368 L-187,387 L-182,418 L-179,434 L-175,454 L-172,464 L-170,476 L-163,500 L-158,521 L-154,536 L-152,546 L-147,568 L-143,578 L-140,589 L-136,607 L-132,617 L-127,636 L-123,650 L-115,680 L-111,695 L-109,706 L-105,716 L-99,742 L-94,759 L-90,774 L-87,785 L-82,800 L-79,812 L-75,827 L-70,845 L-64,874 L-62,888 L-62,893 L-66,891 L-72,866 L-78,841 L-83,823 L-90,800 L-95,783 L-103,756 L-109,732 L-114,713 L-121,688 L-126,668 L-132,646 L-141,615 L-145,602 L-148,590 L-153,571 L-157,559 L-162,546 L-169,516 L-173,506 L-180,478 L-186,449 L-190,426 L-193,403 L-195,387 L-197,366 L-202,313 L-203,281 L-199,270 L-196,260 L-190,251 L-178,238 L-168,230 L-157,223 L-148,216 L-127,203 L-103,189 L-85,179 L-66,169 L-59,164 L-48,160 L-36,151 L-23,143 L-21,143 L-20,139 L-7,129 L6,117 L13,106 L15,100 L15,79 L11,54 L9,39 L3,10 L3,6 L1,6 Z "
     fill="#100D0B"
     transform="translate(964,793)"
     id="path9" />
  <path
     d="M0,0 L34,0 L47,4 L57,8 L62,13 L68,18 L73,25 L73,28 L79,30 L91,37 L92,40 L77,40 L77,44 L80,45 L77,46 L77,59 L75,69 L71,79 L63,91 L53,99 L45,104 L28,109 L23,110 L2,110 L-10,106 L-18,102 L-18,100 L-24,98 L-34,89 L-42,80 L-43,76 L-45,76 L-49,66 L-51,66 L-54,66 L-56,56 L-59,52 L-59,50 L-66,49 L-69,48 L-84,48 L-90,51 L-93,54 L-96,63 L-98,63 L-98,53 L-94,47 L-88,43 L-84,42 L-64,42 L-55,47 L-52,51 L-51,39 L-47,27 L-40,18 L-33,11 L-24,6 L-5,1 Z M6,4 L-6,5 L-24,11 L-33,17 L-41,26 L-44,32 L-46,41 L-46,60 L-42,69 L-36,79 L-27,89 L-14,98 L-6,102 L4,105 L23,105 L23,103 L33,102 L42,99 L47,97 L47,95 L52,93 L59,87 L65,78 L70,66 L72,55 L72,40 L71,39 L62,40 L51,44 L42,47 L50,37 L52,36 L52,33 L41,29 L37,29 L35,40 L26,48 L19,50 L5,50 L-4,45 L-9,38 L-10,35 L-12,35 L-12,28 L-22,30 L-28,35 L-25,30 L-18,24 L-11,21 L-3,18 L9,15 L36,15 L55,20 L64,23 L62,19 L50,10 L37,4 Z "
     fill="#0B0908"
     transform="translate(1131,611)"
     id="path10" />
  <path
     d="M0,0 L7,0 L13,17 L13,22 L16,23 L17,29 L19,29 L21,34 L22,44 L23,49 L22,74 L20,81 L20,84 L18,84 L16,90 L12,96 L10,96 L9,99 L0,100 L0,102 L-9,105 L-11,113 L-28,116 L-61,120 L-67,128 L-69,128 L-70,131 L-76,135 L-87,144 L-95,147 L-108,149 L-112,152 L-116,154 L-109,162 L-105,165 L-105,167 L-102,168 L-104,173 L-112,180 L-120,184 L-128,185 L-130,183 L-130,179 L-132,179 L-133,165 L-129,163 L-125,159 L-123,159 L-123,156 L-130,157 L-127,154 L-113,146 L-97,135 L-85,126 L-75,116 L-67,104 L-66,103 L-53,102 L-36,96 L-25,90 L-15,82 L-6,69 L1,54 L3,42 L4,34 L4,9 L2,4 Z M-122,154 Z M-123,155 Z "
     fill="#C89280"
     transform="translate(1266,646)"
     id="path11" />
  <path
     d="M0,0 L7,1 L26,8 L37,16 L48,26 L59,46 L66,74 L70,96 L73,121 L77,164 L74,235 L72,242 L69,301 L68,311 L67,345 L66,358 L64,412 L60,462 L58,480 L56,522 L55,526 L54,540 L51,562 L49,586 L47,619 L45,647 L43,656 L41,656 L40,653 L40,629 L43,587 L47,541 L48,522 L50,499 L51,494 L52,477 L53,475 L55,437 L57,422 L61,336 L63,273 L65,255 L67,216 L67,156 L65,116 L62,89 L53,53 L51,45 L49,45 L45,36 L37,25 L26,17 L17,12 L5,8 L-1,4 Z "
     fill="#16110F"
     transform="translate(1303,944)"
     id="path12" />
  <path
     d="M0,0 L1,4 L-1,11 L-1,45 L2,44 L3,55 L5,61 L7,72 L9,76 L11,83 L16,93 L22,103 L27,109 L32,113 L37,115 L41,117 L60,119 L88,120 L99,121 L108,121 L135,118 L139,115 L139,117 L144,114 L146,114 L146,112 L148,112 L150,108 L157,97 L163,85 L167,65 L168,53 L170,53 L170,46 L172,48 L177,69 L179,78 L181,94 L181,102 L173,115 L164,119 L151,124 L122,129 L102,130 L60,129 L33,127 L26,123 L25,120 L23,120 L14,109 L2,87 L-1,81 L-4,69 L-8,60 L-9,27 L-5,14 Z "
     fill="#110D0B"
     transform="translate(1127,2965)"
     id="path13" />
  <path
     d="M0,0 L6,0 L8,2 L9,7 L9,34 L5,50 L-3,66 L-11,76 L-23,85 L-38,92 L-50,96 L-56,96 L-52,85 L-47,75 L-43,65 L-38,53 L-33,41 L-29,32 L-23,16 L-19,7 Z "
     fill="#D09C8C"
     transform="translate(1258,650)"
     id="path14"
     style="fill:#e5b7a2;fill-opacity:1" />
  <path
     d="M0,0 L2,1 L4,6 L8,9 L9,11 L4,24 L-2,42 L-5,54 L-5,66 L-3,76 L4,90 L10,97 L15,101 L14,106 L9,106 L6,104 L-8,100 L-19,102 L-23,102 L-24,97 L-25,79 L-27,69 L-32,66 L-31,57 L-26,38 L-26,24 L-25,22 L-23,22 L-22,18 L-19,16 L-16,16 L-14,12 L-8,5 Z "
     fill="#BD836F"
     transform="translate(862,646)"
     id="path15" />
  <path
     d="M0,0 L2,0 L0,4 L-3,8 L-5,8 L-7,12 L-9,16 L-11,16 L-13,20 L-15,23 L-17,23 L-18,27 L-24,32 L-26,36 L-28,36 L-27,39 L-36,46 L-47,50 L-56,56 L-79,68 L-101,81 L-115,89 L-138,104 L-147,111 L-149,110 L-142,103 L-138,99 L-134,97 L-129,92 L-118,83 L-106,74 L-103,73 L-102,70 L-91,63 L-81,55 L-68,46 L-63,43 L-53,36 L-42,29 L-33,21 L-26,17 L-23,17 L-23,20 L-22,23 L-18,20 L-15,15 L-8,6 L-3,4 Z "
     fill="#F8CCA6"
     transform="translate(950,909)"
     id="path16" />
  <path
     d="M0,0 L3,1 L8,20 L12,33 L15,44 L17,53 L23,71 L29,92 L32,102 L35,111 L41,131 L43,139 L48,154 L54,172 L58,186 L63,201 L66,210 L70,221 L71,224 L71,258 L68,284 L67,295 L66,295 L65,286 L63,294 L62,294 L63,272 L65,259 L65,232 L64,224 L62,222 L59,210 L51,184 L47,171 L40,148 L31,119 L26,102 L23,96 L21,86 L18,80 L16,69 L11,50 L6,35 L3,18 Z "
     fill="#1A1412"
     transform="translate(871,1217)"
     id="path17" />
  <path
     d="M0,0 L6,0 L8,2 L6,4 L5,13 L5,17 L0,24 L-2,24 L-3,27 L-9,31 L-20,40 L-28,43 L-41,45 L-45,48 L-49,50 L-42,58 L-38,61 L-38,63 L-35,64 L-37,69 L-45,76 L-53,80 L-61,81 L-63,79 L-63,75 L-65,75 L-66,61 L-62,59 L-58,55 L-56,55 L-56,52 L-63,53 L-60,50 L-46,42 L-30,31 L-18,22 L-8,12 Z M-55,50 Z M-56,51 Z "
     fill="#D4A391"
     transform="translate(1199,750)"
     id="path18" />
  <path
     d="M0,0 L2,2 L7,23 L9,32 L11,48 L11,56 L3,69 L-6,73 L-19,78 L-48,83 L-68,84 L-69,82 L-43,79 L-33,74 L-26,68 L-24,68 L-24,66 L-22,66 L-20,62 L-13,51 L-7,39 L-3,19 L-2,7 L0,7 Z "
     fill="#FBCFA6"
     transform="translate(1297,3011)"
     id="path19" />
  <path
     d="M0,0 L1,0 L1,16 L-1,59 L-3,111 L-4,160 L-5,168 L-7,198 L-9,230 L-10,233 L-12,269 L-16,314 L-17,321 L-18,339 L-19,346 L-22,403 L-23,413 L-26,412 L-28,414 L-26,382 L-23,337 L-20,308 L-19,303 L-18,289 L-17,285 L-15,243 L-12,215 L-9,175 L-7,121 L-6,108 L-5,74 L-4,64 L-1,5 Z "
     fill="#AC8877"
     transform="translate(1375,1181)"
     id="path20" />
  <path
     d="M0,0 L18,0 L45,2 L58,7 L61,10 L61,14 L53,13 L45,11 L1,11 L-14,13 L-27,17 L-30,17 L-31,20 L-43,24 L-54,31 L-60,37 L-65,36 L-64,30 L-56,22 L-45,14 L-34,10 L-17,4 Z "
     fill="#0E0B0A"
     transform="translate(965,562)"
     id="path21" />
  <path
     d="M0,0 L4,1 L7,2 L8,9 L9,11 L8,14 L10,14 L10,20 L3,30 L-5,38 L-16,47 L-23,52 L-24,55 L-36,62 L-44,67 L-45,64 L-43,63 L-41,59 L-35,54 L-34,51 L-29,46 L-28,44 L-26,44 L-25,40 L-16,30 L-15,28 L-20,33 L-26,36 L-33,45 L-36,50 L-41,51 L-42,49 L-40,45 L-42,44 L-35,39 L-30,34 L-14,22 L-6,15 Z M4,3 Z "
     fill="#DBA397"
     transform="translate(967,881)"
     id="path22" />
  <path
     d="M0,0 L24,0 L44,3 L44,5 L54,6 L73,11 L87,16 L94,19 L94,21 L99,23 L106,28 L110,30 L110,32 L97,29 L83,23 L76,21 L76,19 L68,18 L48,14 L26,12 L-2,11 L-5,8 L-5,3 Z "
     fill="#130E0C"
     transform="translate(1105,571)"
     id="path23" />
  <path
     d="M0,0 L7,0 L7,9 L13,21 L20,26 L23,27 L40,27 L41,24 L46,21 L48,21 L50,17 L53,13 L54,10 L61,11 L68,15 L68,23 L65,27 L58,29 L48,31 L40,32 L14,32 L1,29 L1,27 L3,27 L2,22 L-3,20 L-7,17 L-7,20 L-11,18 L-9,16 L-10,11 L-14,6 L-12,2 Z "
     fill="#D2D7E0"
     transform="translate(947,628)"
     id="path24" />
  <path
     d="M0,0 L19,6 L50,18 L60,22 L79,30 L91,36 L89,37 L77,32 L72,31 L71,35 L65,33 L51,28 L28,22 L12,17 L4,14 L0,9 L-2,6 L-1,1 Z "
     fill="#F7CCA7"
     transform="translate(1231,913)"
     id="path25" />
  <path
     d="M0,0 L2,1 L4,17 L9,43 L13,68 L16,79 L18,90 L22,105 L27,126 L31,138 L35,156 L38,165 L40,174 L40,184 L37,180 L33,169 L26,139 L22,129 L15,101 L9,72 L5,49 L2,26 L0,10 Z "
     fill="#CDA08B"
     transform="translate(769,1170)"
     id="path26" />
  <path
     d="M0,0 L1,0 L1,20 L-1,60 L-4,88 L-6,114 L-7,120 L-8,138 L-12,159 L-15,185 L-18,200 L-21,202 L-16,168 L-13,146 L-11,115 L-9,87 L-7,61 L-6,45 L-4,33 L-1,4 Z "
     fill="#CFA18D"
     transform="translate(823,2475)"
     id="path27" />
  <path
     d="M0,0 L2,0 L-1,30 L-2,46 L-7,86 L-9,98 L-12,125 L-22,179 L-24,190 L-25,190 L-25,175 L-23,158 L-20,140 L-17,116 L-13,92 L-11,83 L-7,48 L-5,38 L-1,1 Z "
     fill="#CF9D8B"
     transform="translate(1314,2555)"
     id="path28" />
  <path
     d="M0,0 L2,1 L2,4 L-1,7 L6,15 L10,18 L10,20 L13,21 L11,26 L3,33 L-5,37 L-13,38 L-15,36 L-15,32 L-17,32 L-18,18 L-14,16 L-10,12 L-8,12 L-8,9 L-15,10 L-12,7 Z M-7,7 Z M-8,8 Z "
     fill="#D19B88"
     transform="translate(1151,793)"
     id="path29" />
  <path
     d="M0,0 L2,4 L7,23 L16,56 L21,74 L25,91 L30,108 L39,150 L40,154 L40,166 L38,165 L32,145 L28,129 L22,102 L19,86 L14,69 L12,58 L7,37 L3,22 L-2,4 L-2,2 L0,2 Z "
     fill="#DFA994"
     transform="translate(1352,1631)"
     id="path30" />
  <path
     d="M0,0 L3,1 L9,11 L13,17 L17,21 L22,26 L24,31 L30,42 L36,51 L39,60 L36,61 L30,56 L20,43 L11,33 L5,24 L1,20 L-1,15 L-3,15 L-5,5 L0,3 Z M-3,8 Z "
     fill="#BB816C"
     transform="translate(1156,504)"
     id="path31" />
  <path
     d="M0,0 L2,1 L2,5 L4,5 L4,12 L6,12 L4,16 L-7,26 L-18,34 L-19,37 L-31,44 L-39,49 L-40,46 L-38,45 L-36,41 L-30,36 L-29,33 L-24,28 L-19,23 L-14,18 L-12,18 L-10,14 L-3,6 Z "
     fill="#D5AAA8"
     transform="translate(962,899)"
     id="path32" />
  <path
     d="M0,0 L7,0 L12,1 L16,4 L16,6 L24,8 L39,7 L38,10 L36,11 L23,12 L20,10 L15,11 L5,14 L-3,17 L-8,18 L-14,20 L-17,8 L-10,5 L-1,3 Z "
     fill="#B6807A"
     transform="translate(1065,453)"
     id="path33" />
  <path
     d="M0,0 L1,0 L2,23 L5,45 L9,58 L15,73 L25,86 L30,90 L35,92 L40,97 L43,100 L43,102 L35,102 L30,98 L30,96 L28,96 L19,85 L7,63 L4,57 L1,45 L-3,36 L-3,8 Z "
     fill="#E2B7A2"
     transform="translate(1122,2989)"
     id="path34" />
  <path
     d="M0,0 L6,1 L15,4 L15,7 L10,12 L5,18 L13,17 L8,22 L1,21 L-6,24 L-9,27 L-21,26 L-27,24 L-27,23 L-13,20 L-5,14 L-2,11 Z "
     fill="#CCD3DD"
     transform="translate(1168,640)"
     id="path35" />
  <path
     d="M0,0 L4,1 L-10,9 L-21,15 L-33,20 L-43,25 L-56,30 L-82,34 L-99,34 L-95,32 L-65,27 L-47,22 L-36,17 L-31,15 L-15,7 L-6,2 Z "
     fill="#CB9F88"
     transform="translate(863,3063)"
     id="path36" />
  <path
     d="M0,0 L2,1 L4,17 L9,43 L13,68 L16,79 L18,94 L19,102 L16,103 L12,88 L7,60 L4,40 L0,10 Z "
     fill="#D9A691"
     transform="translate(769,1170)"
     id="path37" />
  <path
     d="M0,0 L1,0 L1,16 L0,26 L2,26 L0,69 L-2,97 L-5,96 L-7,98 L-5,66 L-2,21 Z "
     fill="#9E7A6C"
     transform="translate(1354,1497)"
     id="path38" />
  <path
     d="M0,0 L2,4 L1,17 L-3,40 L-12,90 L-13,90 L-13,75 L-11,58 L-8,40 L-6,25 L-4,18 L-1,1 Z "
     fill="#D0A28A"
     transform="translate(1302,2655)"
     id="path39" />
  <path
     d="M0,0 L19,0 L41,6 L53,9 L53,11 L55,12 L44,12 L28,9 L15,6 L2,6 L-10,8 L-10,6 L-8,6 L-8,4 Z "
     fill="#191311"
     transform="translate(1031,747)"
     id="path40" />
  <path
     d="M0,0 L1,0 L1,16 L-1,59 L-4,140 L-6,140 L-6,149 L-7,155 L-8,155 L-7,121 L-6,108 L-5,74 L-4,64 L-1,5 Z "
     fill="#B98F79"
     transform="translate(1375,1181)"
     id="path41" />
  <path
     d="M0,0 L34,0 L44,3 L42,4 L43,7 L37,5 L6,5 L-6,6 L-18,10 L-22,10 L-22,8 L-28,9 L-24,6 L-5,1 Z M-22,7 Z "
     fill="#241B18"
     transform="translate(1131,611)"
     id="path42" />
  <path
     d="M0,0 L2,0 L2,7 L4,7 L9,16 L15,20 L16,23 L5,21 L-5,17 L-10,12 L-12,10 L-11,5 L-8,2 Z "
     fill="#D2D8E2"
     transform="translate(1117,639)"
     id="path43" />
  <path
     d="M0,0 L1,2 L3,2 L12,44 L13,48 L13,60 L11,59 L5,39 L1,23 L-1,13 L-1,3 Z "
     fill="#DEAE98"
     transform="translate(1379,1737)"
     id="path44" />
  <path
     d="M0,0 L10,2 L23,7 L61,17 L63,18 L63,20 L49,19 L22,13 L1,2 Z "
     fill="#191411"
     transform="translate(1228,925)"
     id="path45" />
  <path
     d="M0,0 L2,0 L2,2 L6,2 L7,5 L8,14 L14,38 L16,54 L18,64 L18,70 L17,70 L17,65 L15,65 L15,72 L14,72 L11,54 L9,39 L3,10 L3,6 L1,6 Z "
     fill="#281E1B"
     transform="translate(964,793)"
     id="path46" />
  <path
     d="M0,0 L1,0 L6,53 L4,97 L2,94 L0,23 Z "
     fill="#7C6257"
     transform="translate(1374,1055)"
     id="path47" />
  <path
     d="M0,0 L3,0 L3,21 L2,57 L0,75 L-1,75 L-2,63 L-3,69 L-4,69 L-4,54 L-2,42 L-1,28 Z "
     fill="#2B221E"
     transform="translate(1314,1089)"
     id="path48" />
  <path
     d="M0,0 L1,0 L1,16 L0,20 L-1,33 L-4,49 L-5,64 L-6,96 L-8,100 L-9,66 L-6,43 L-3,15 Z "
     fill="#D2A289"
     transform="translate(1158,2331)"
     id="path49" />
  <path
     d="M0,0 L1,4 L-4,12 L-6,12 L-7,17 L-11,24 L-13,24 L-15,29 L-25,45 L-36,61 L-38,66 L-44,73 L-46,78 L-49,78 L-43,67 L-35,54 L-28,43 L-20,32 L-13,19 L-9,15 L-1,1 Z "
     fill="#D4A992"
     transform="translate(731,2908)"
     id="path50" />
  <path
     d="M0,0 L2,0 L8,16 L11,23 L20,33 L24,36 L27,41 L39,53 L39,55 L35,53 L24,44 L17,36 L8,26 L3,16 L0,4 Z "
     fill="#211916"
     transform="translate(1126,850)"
     id="path51" />
  <path
     d="M0,0 L3,2 L-1,47 L-2,54 L-3,72 L-4,75 L-6,75 L-5,41 L-4,36 L-3,22 L-2,18 L-1,3 Z "
     fill="#E5B49E"
     transform="translate(1360,1448)"
     id="path52" />
  <path
     d="M0,0 L2,0 L0,4 L-3,8 L-5,8 L-7,12 L-9,16 L-11,16 L-13,20 L-15,23 L-17,23 L-18,27 L-24,32 L-26,36 L-28,36 L-27,39 L-29,41 L-32,40 L-29,31 L-27,31 L-24,22 L-22,20 L-22,23 L-18,20 L-15,15 L-8,6 L-3,4 Z "
     fill="#F9CB99"
     transform="translate(950,909)"
     id="path53" />
  <path
     d="M0,0 L1,0 L1,16 L-3,37 L-6,63 L-9,78 L-12,80 L-7,46 L-4,24 L-3,11 L-1,7 Z "
     fill="#C19C83"
     transform="translate(814,2597)"
     id="path54" />
  <path
     d="M0,0 L3,1 L4,3 L7,4 L12,9 L22,16 L31,19 L31,14 L32,14 L32,21 L33,23 L21,22 L9,14 L0,7 Z "
     fill="#251B18"
     transform="translate(871,701)"
     id="path55" />
  <path
     d="M0,0 L2,3 L2,5 L5,4 L7,9 L11,26 L15,39 L14,43 L12,50 L10,46 L5,21 L0,4 Z "
     fill="#DEAC93"
     transform="translate(1366,1696)"
     id="path56" />
  <path
     d="M0,0 L3,1 L8,20 L12,33 L15,44 L14,48 L13,43 L11,43 L10,47 L5,31 L1,6 Z "
     fill="#5B463E"
     transform="translate(871,1217)"
     id="path57" />
  <path
     d="M0,0 L1,4 L-1,11 L-1,62 L-2,62 L-4,47 L-5,27 L-8,33 L-9,33 L-8,23 L-3,9 Z "
     fill="#251E1A"
     transform="translate(1127,2965)"
     id="path58" />
  <path
     d="M0,0 L1,2 L3,2 L6,18 L8,29 L10,39 L10,44 L7,45 L3,30 L-1,6 Z "
     fill="#D4A690"
     transform="translate(778,1228)"
     id="path59" />
  <path
     d="M0,0 L1,0 L0,64 L-1,64 L-3,42 L-4,10 L-1,1 Z "
     fill="#DAA58E"
     transform="translate(765,1064)"
     id="path60" />
  <path
     d="M0,0 L4,1 L13,4 L25,6 L68,8 L70,10 L34,10 L6,6 L2,4 Z "
     fill="#A27F6C"
     transform="translate(648,3091)"
     id="path61" />
  <path
     d="M0,0 L4,1 L3,4 L-15,9 L-25,14 L-35,17 L-39,16 L-36,13 L-25,8 L-22,8 L-21,5 L-21,7 L-6,2 Z "
     fill="#DEAA94"
     transform="translate(1079,463)"
     id="path62" />
  <path
     d="M0,0 L2,0 L2,20 L1,28 L-1,58 L-3,58 L-3,35 L-2,15 Z "
     fill="#E6B097"
     transform="translate(1369,1321)"
     id="path63" />
  <path
     d="M0,0 L4,1 L-10,9 L-21,15 L-33,20 L-39,23 L-42,22 L-47,23 L-46,21 L-32,16 L-27,13 L-10,4 Z "
     fill="#D1A791"
     transform="translate(863,3063)"
     id="path64" />
  <path
     d="M0,0 L3,3 L2,9 L-1,10 L-2,12 L-4,12 L-4,15 L-10,17 L-13,5 L-6,2 Z "
     fill="#AE9956"
     transform="translate(1061,456)"
     id="path65" />
  <path
     d="M0,0 L3,2 L2,29 L1,39 L-2,38 L-4,40 L-3,20 L-1,13 Z "
     fill="#E1A693"
     transform="translate(1351,1555)"
     id="path66" />
  <path
     d="M0,0 L2,3 L2,24 L0,40 L-2,40 L-4,46 L-5,46 L-5,38 L-4,34 L-2,15 Z "
     fill="#D5A592"
     transform="translate(1304,1242)"
     id="path67" />
  <path
     d="M0,0 L2,4 L1,17 L-2,35 L-3,38 L-6,38 L-5,24 L-2,4 Z "
     fill="#DFB49C"
     transform="translate(1302,2655)"
     id="path68" />
  <path
     d="M0,0 L2,4 L5,8 L10,9 L11,6 L13,8 L17,10 L20,13 L16,14 L5,16 L1,16 L0,11 Z "
     fill="#B4896B"
     transform="translate(838,732)"
     id="path69" />
  <path
     d="M0,0 L9,2 L9,12 L10,17 L8,18 L4,17 L0,9 L0,7 L-2,7 L-1,1 Z "
     fill="#D99272"
     transform="translate(958,840)"
     id="path70" />
  <path
     d="M0,0 L2,1 L-2,7 L-5,8 L-6,12 L-22,15 L-42,16 L-43,14 L-17,11 L-7,6 Z "
     fill="#C0987F"
     transform="translate(1271,3079)"
     id="path71" />
  <path
     d="M0,0 L4,1 L8,4 L13,6 L18,11 L21,14 L21,16 L13,16 L8,12 L8,10 L6,10 L-1,2 Z "
     fill="#D0A696"
     transform="translate(1144,3075)"
     id="path72" />
  <path
     d="M0,0 L1,0 L1,25 L-1,52 L-3,56 L-4,45 L-2,17 L-1,1 Z "
     fill="#2D221E"
     transform="translate(827,2407)"
     id="path73" />
  <path
     d="M0,0 L1,0 L1,5 L2,6 L4,11 L3,17 L-1,19 L-4,19 L-7,6 L-7,2 L0,3 Z "
     fill="#DCB18E"
     transform="translate(970,855)"
     id="path74" />
  <path
     d="M0,0 L3,1 L-2,6 L-9,13 L-13,17 L-25,25 L-31,30 L-33,29 L-26,22 L-22,18 L-18,16 L-13,11 L-2,2 Z "
     fill="#DDB6A1"
     transform="translate(834,990)"
     id="path75" />
  <path
     d="M0,0 L1,0 L1,24 L-1,51 L-3,51 L-4,55 L-4,45 L-2,19 L-1,1 Z "
     fill="#3A2D26"
     transform="translate(834,2260)"
     id="path76" />
  <path
     d="M0,0 L1,0 L4,29 L2,68 L1,68 L0,20 Z "
     fill="#E6AF94"
     transform="translate(1376,1079)"
     id="path77" />
  <path
     d="M0,0 L4,2 L12,16 L17,26 L21,42 L21,46 L19,46 L12,22 L12,19 L9,18 L6,11 L0,2 Z "
     fill="#C3957F"
     transform="translate(1346,967)"
     id="path78" />
  <path
     d="M0,0 L1,4 L-6,15 L-19,25 L-25,28 L-25,25 L-17,19 L-11,14 L-4,4 Z "
     fill="#BB8E7B"
     transform="translate(920,3018)"
     id="path79" />
  <path
     d="M0,0 L1,0 L1,13 L0,30 L-1,34 L-4,35 L-5,32 L-2,3 Z "
     fill="#E8B99D"
     transform="translate(818,2539)"
     id="path80" />
  <path
     d="M0,0 L1,0 L5,15 L5,18 L1,16 L-7,7 L-9,2 L-1,3 Z "
     fill="#DFB59C"
     transform="translate(1143,866)"
     id="path81" />
  <path
     d="M0,0 L7,0 L12,6 L12,20 L10,21 L8,8 L6,6 L-6,6 L-2,1 Z "
     fill="#0B0807"
     transform="translate(1258,645)"
     id="path82" />
  <path
     d="M0,0 L6,1 L14,0 L31,0 L37,1 L37,2 L15,2 L0,5 L-12,9 L-17,11 L-12,6 L-4,1 Z "
     fill="#7E5E53"
     transform="translate(932,613)"
     id="path83" />
  <path
     d="M0,0 L2,3 L7,23 L8,30 L6,28 L4,29 L4,27 L2,27 L-1,16 L-1,13 L1,12 Z "
     fill="#C89886"
     transform="translate(786,1260)"
     id="path84" />
  <path
     d="M0,0 L2,4 L3,9 L2,12 L4,12 L4,16 L-1,16 L-1,21 L-2,21 L-3,13 L-2,11 L-6,10 L-4,2 Z "
     fill="#DFAE9C"
     transform="translate(973,883)"
     id="path85" />
  <path
     d="M0,0 L2,0 L3,21 L2,54 L1,54 L0,32 Z "
     fill="#392D28"
     transform="translate(1145,1893)"
     id="path86" />
  <path
     d="M0,0 L2,2 L5,9 L6,9 L6,15 L-1,16 L-3,15 L-2,9 L-4,8 Z "
     fill="#D29F8D"
     transform="translate(1142,814)"
     id="path87" />
  <path
     d="M0,0 L1,0 L2,23 L3,37 L1,37 L0,28 L-1,25 L0,21 L-2,21 L-3,16 L-3,8 Z "
     fill="#C3978B"
     transform="translate(1122,2989)"
     id="path88" />
  <path
     d="M0,0 L5,2 L13,8 L21,11 L20,14 L13,12 L12,10 L8,9 L6,10 L2,8 L-2,3 L-2,1 Z "
     fill="#C5837B"
     transform="translate(1113,463)"
     id="path89" />
  <path
     d="M0,0 L2,0 L-2,41 L-4,38 L-4,27 L-2,11 L-1,1 Z "
     fill="#CA9B87"
     transform="translate(1314,2555)"
     id="path90" />
  <path
     d="M0,0 L1,3 L3,3 L1,18 L-1,15 L-4,32 L-5,38 L-6,38 L-6,30 L-2,6 Z "
     fill="#C19483"
     transform="translate(1303,2641)"
     id="path91" />
  <path
     d="M0,0 L5,1 L14,2 L23,6 L23,7 L8,7 L-2,6 L-2,5 L3,5 L2,1 Z "
     fill="#69493D"
     transform="translate(1162,3086)"
     id="path92" />
  <path
     d="M0,0 L2,0 L2,36 L0,40 L-1,6 Z "
     fill="#B58878"
     transform="translate(1150,2391)"
     id="path93" />
  <path
     d="M0,0 L1,0 L2,49 L3,51 L4,71 L2,67 L0,53 Z "
     fill="#AB8979"
     transform="translate(907,2845)"
     id="path94" />
  <path
     d="M0,0 L3,0 L4,0 L3,10 L-1,32 L-2,32 L-2,17 Z "
     fill="#BE9581"
     transform="translate(1291,2713)"
     id="path95" />
  <path
     d="M0,0 L2,0 L0,4 L-13,12 L-25,19 L-30,19 L-25,15 L-7,5 Z "
     fill="#2B211C"
     transform="translate(893,3044)"
     id="path96" />
  <path
     d="M0,0 L1,0 L2,8 L2,20 L1,34 L-2,33 L-1,8 Z "
     fill="#D2A591"
     transform="translate(1365,1371)"
     id="path97" />
  <path
     d="M0,0 L2,4 L-4,13 L-10,20 L-18,27 L-18,24 L-9,14 L-5,10 L-5,6 L-5,4 Z "
     fill="#D6A784"
     transform="translate(960,897)"
     id="path98" />
  <path
     d="M0,0 L1,4 L-2,14 L-3,25 L-6,29 L-8,33 L-9,33 L-8,23 L-3,9 Z "
     fill="#564038"
     transform="translate(1127,2965)"
     id="path99" />
  <path
     d="M0,0 L1,0 L1,15 L-2,43 L-3,43 L-3,21 L-5,22 L-5,16 L-1,11 Z "
     fill="#AF8978"
     transform="translate(821,2520)"
     id="path100" />
  <path
     d="M0,0 L5,0 L14,8 L14,10 L17,11 L15,16 L12,18 L10,14 L13,12 L9,7 L5,5 L4,8 L2,6 Z "
     fill="#EDAD9B"
     transform="translate(1147,803)"
     id="path101" />
  <path
     d="M0,0 L14,1 L14,3 L16,4 L-9,4 L-10,5 L-22,7 L-31,9 L-30,7 L-14,3 L-2,1 Z "
     fill="#AD8072"
     transform="translate(965,597)"
     id="path102" />
  <path
     d="M0,0 L1,0 L1,5 L3,5 L4,9 L2,9 L4,11 L4,21 L6,22 L5,24 L5,29 L3,27 L0,20 Z "
     fill="#FFFFF6"
     transform="translate(1119,3005)"
     id="path103" />
  <path
     d="M0,0 L1,0 L1,30 L-1,37 L-2,37 L-2,21 L-1,2 Z "
     fill="#3A2D29"
     transform="translate(1376,1149)"
     id="path104" />
  <path
     d="M0,0 L1,2 L1,8 L-2,8 L-3,15 L-8,20 L-10,20 L-12,24 L-15,24 L-15,22 L-13,22 L-11,18 L-4,7 Z "
     fill="#D2A691"
     transform="translate(1288,3055)"
     id="path105" />
  <path
     d="M0,0 L1,0 L0,9 L-5,21 L-7,29 L-7,41 L-8,41 L-9,36 L-9,23 L-5,12 Z "
     fill="#000000"
     transform="translate(1126,2963)"
     id="path106" />
  <path
     d="M0,0 L2,0 L1,28 L0,31 L-2,31 L-1,5 Z "
     fill="#E6B49D"
     transform="translate(1356,1492)"
     id="path107" />
  <path
     d="M0,0 L3,2 L0,7 L-5,9 L-8,13 L-14,14 L-13,10 L-1,1 Z "
     fill="#DBA493"
     transform="translate(954,902)"
     id="path108" />
  <path
     d="M0,0 L1,0 L1,16 L0,20 L-1,33 L-3,37 L-3,15 Z "
     fill="#A47A6C"
     transform="translate(1158,2331)"
     id="path109" />
  <path
     d="M0,0 L4,4 L1,6 L2,10 L-4,14 L-6,12 L-6,10 L-6,7 L-5,6 L-7,1 L-2,3 L-1,2 Z "
     fill="#CA9D85"
     transform="translate(1157,812)"
     id="path110" />
  <path
     d="M0,0 L4,5 L8,11 L11,14 L11,16 L7,18 L7,13 L3,11 L-1,9 L-4,7 L-3,4 L0,4 Z "
     fill="#C98174"
     transform="translate(1161,510)"
     id="path111" />
  <path
     d="M0,0 L1,0 L1,19 L3,19 L4,15 L3,31 L2,31 L1,22 L-1,30 L-2,30 L-1,8 Z "
     fill="#483832"
     transform="translate(935,1481)"
     id="path112" />
  <path
     d="M0,0 L4,1 L1,1 L4,6 L3,9 L-3,8 L-4,10 L-6,6 L-10,4 L-10,2 L-5,2 L-3,1 L-3,5 L-1,4 Z "
     fill="#E2B29F"
     transform="translate(932,797)"
     id="path113" />
  <path
     d="M0,0 L4,1 L13,4 L25,6 L27,8 L19,8 L3,5 Z "
     fill="#4B362F"
     transform="translate(648,3091)"
     id="path114" />
  <path
     d="M0,0 L3,4 L3,18 L-1,22 L-2,18 Z "
     fill="#DDA993"
     transform="translate(818,2513)"
     id="path115" />
  <path
     d="M0,0 L1,0 L2,11 L0,29 L-2,29 L-2,17 Z "
     fill="#3D3127"
     transform="translate(1392,1865)"
     id="path116" />
  <path
     d="M0,0 L2,2 L7,18 L7,22 L5,22 L0,11 L-1,4 Z "
     fill="#B69080"
     transform="translate(910,1363)"
     id="path117" />
  <path
     d="M0,0 L2,2 L4,12 L4,17 L1,18 L-3,3 L-3,1 Z "
     fill="#E7B7A3"
     transform="translate(784,1255)"
     id="path118" />
  <path
     d="M0,0 L9,0 L13,4 L11,9 L5,6 L0,3 Z "
     fill="#D1A480"
     transform="translate(929,805)"
     id="path119" />
  <path
     d="M0,0 L6,2 L12,6 L13,10 L5,10 L3,7 L1,3 Z "
     fill="#F8D1A5"
     transform="translate(1152,3081)"
     id="path120" />
  <path
     d="M0,0 L1,0 L2,12 L4,1 L5,1 L5,9 L3,27 L2,27 L1,15 L0,21 L-1,21 L-1,6 Z "
     fill="#614C43"
     transform="translate(1311,1137)"
     id="path121" />
  <path
     d="M0,0 L3,2 L7,21 L4,22 L0,7 Z "
     fill="#130F0D"
     transform="translate(876,1235)"
     id="path122" />
  <path
     d="M0,0 L2,1 L0,4 L7,4 L7,12 L6,12 L6,5 L2,7 L-5,9 L-8,12 L-10,12 L-9,8 Z "
     fill="#474445"
     transform="translate(1113,634)"
     id="path123" />
  <path
     d="M0,0 L1,0 L0,13 L-2,26 L-4,33 L-5,29 L-3,13 Z "
     fill="#BE9277"
     transform="translate(1047,2191)"
     id="path124" />
  <path
     d="M0,0 L3,0 L5,4 L4,8 L-4,12 L-2,3 Z "
     fill="#BE9081"
     transform="translate(1246,642)"
     id="path125" />
  <path
     d="M0,0 L1,0 L1,7 L-3,25 L-6,28 L-5,17 L-4,12 L-2,12 L-1,4 Z "
     fill="#120E0C"
     transform="translate(791,2739)"
     id="path126" />
  <path
     d="M0,0 L3,0 L5,0 L7,6 L6,10 L4,17 L2,13 L0,4 Z "
     fill="#C89B87"
     transform="translate(1374,1729)"
     id="path127" />
  <path
     d="M0,0 L2,0 L2,22 L-1,20 L-1,5 Z "
     fill="#EDAE91"
     transform="translate(1353,1529)"
     id="path128" />
  <path
     d="M0,0 L1,0 L1,8 L0,15 L0,30 L-3,37 L-4,37 L-4,29 L-3,25 L-1,6 Z "
     fill="#AD8A7A"
     transform="translate(1303,1251)"
     id="path129" />
  <path
     d="M0,0 L1,4 L-4,9 L-15,17 L-18,17 L-11,10 L-7,6 L-3,4 Z "
     fill="#EBA977"
     transform="translate(819,1002)"
     id="path130" />
  <path
     d="M0,0 L2,0 L2,2 L6,2 L7,5 L8,18 L5,19 L3,10 L3,6 L1,6 Z "
     fill="#4B3933"
     transform="translate(964,793)"
     id="path131" />
  <path
     d="M0,0 L2,1 L4,6 L6,7 L6,11 L3,12 L3,10 L-2,8 L-6,4 Z "
     fill="#9F9083"
     transform="translate(862,646)"
     id="path132" />
  <path
     d="M0,0 L5,3 L3,6 L6,8 L-5,12 L-9,11 L-8,8 L-6,8 L0,5 Z M5,2 Z "
     fill="#49362D"
     transform="translate(1250,644)"
     id="path133" />
  <path
     d="M0,0 L2,0 L5,15 L6,22 L4,23 L1,14 L-1,1 Z "
     fill="#D4ACA5"
     transform="translate(1124,3027)"
     id="path134" />
  <path
     d="M0,0 L1,0 L1,29 L-1,29 L-2,33 L-2,23 Z "
     fill="#B18573"
     transform="translate(832,2282)"
     id="path135" />
  <path
     d="M0,0 L1,0 L4,20 L4,31 L3,31 L1,15 L-1,10 L-1,1 Z "
     fill="#312621"
     transform="translate(769,1156)"
     id="path136" />
  <path
     d="M0,0 L1,0 L2,11 L3,12 L3,19 L1,18 L0,30 L-2,33 L-1,14 Z "
     fill="#AF897A"
     transform="translate(1351,1538)"
     id="path137" />
  <path
     d="M0,0 L1,0 L2,9 L3,11 L2,25 L1,22 L-1,22 L-1,27 L-2,27 L-2,19 L-1,14 Z "
     fill="#D2A38A"
     transform="translate(1357,1470)"
     id="path138" />
  <path
     d="M0,0 L1,0 L1,18 L0,22 L-2,22 L-2,6 Z "
     fill="#040303"
     transform="translate(938,1478)"
     id="path139" />
  <path
     d="M0,0 L2,3 L8,22 L7,26 L7,24 L5,24 L5,22 L3,22 L0,4 Z "
     fill="#AA8677"
     transform="translate(902,1336)"
     id="path140" />
  <path
     d="M0,0 L2,0 L6,14 L6,20 L3,16 L-1,5 Z "
     fill="#E2B6A2"
     transform="translate(803,1334)"
     id="path141" />
  <path
     d="M0,0 L5,1 L6,3 L6,14 L4,16 L4,9 L2,9 L1,5 L-1,4 Z "
     fill="#DBB193"
     transform="translate(962,895)"
     id="path142" />
  <path
     d="M0,0 L3,1 L2,4 L4,5 L4,9 L2,9 L1,11 L-3,7 L-5,2 Z "
     fill="#FFFFFC"
     transform="translate(868,645)"
     id="path143" />
  <path
     d="M0,0 L12,0 L12,12 L10,10 L10,3 L11,1 L-8,4 L-11,6 L-12,3 Z "
     fill="#4D4D4F"
     transform="translate(943,627)"
     id="path144" />
  <path
     d="M0,0 L1,4 L-4,12 L-6,12 L-7,17 L-11,24 L-12,22 L-9,15 L-1,1 Z "
     fill="#B28772"
     transform="translate(731,2908)"
     id="path145" />
  <path
     d="M0,0 L1,0 L1,8 L-2,25 L-5,29 L-4,19 L-2,12 Z "
     fill="#503E35"
     transform="translate(1042,2212)"
     id="path146" />
  <path
     d="M0,0 L1,0 L1,9 L3,9 L4,7 L4,19 L1,18 L-1,20 Z "
     fill="#BA8E7E"
     transform="translate(1348,1575)"
     id="path147" />
  <path
     d="M0,0 L2,1 L2,13 L0,22 L-1,22 L-1,1 Z "
     fill="#E9AC93"
     transform="translate(813,2584)"
     id="path148" />
  <path
     d="M0,0 L3,0 L5,4 L5,11 L4,14 L2,14 L0,8 Z "
     fill="#BF9E9D"
     transform="translate(966,844)"
     id="path149" />
  <path
     d="M0,0 L1,0 L1,26 L-1,30 L-2,19 Z "
     fill="#8F6B5E"
     transform="translate(825,2433)"
     id="path150" />
  <path
     d="M0,0 L4,2 L6,5 L-6,7 L-13,8 L-13,4 L1,3 Z "
     fill="#614A42"
     transform="translate(1221,647)"
     id="path151" />
  <path
     d="M0,0 L2,0 L0,7 L2,8 L0,9 L1,11 L-5,15 L-7,14 Z "
     fill="#D1A4A0"
     transform="translate(919,940)"
     id="path152" />
  <path
     d="M0,0 L1,3 L-3,26 L-4,26 L-3,6 L-2,1 Z "
     fill="#614940"
     transform="translate(1052,2163)"
     id="path153" />
  <path
     d="M0,0 L2,3 L3,19 L2,19 L1,24 L0,24 L-1,19 L-1,10 L0,10 Z "
     fill="#3A2C27"
     transform="translate(976,828)"
     id="path154" />
  <path
     d="M0,0 L2,0 L-1,10 L-5,8 L-4,5 L-10,5 L-7,3 Z "
     fill="#F6F600"
     transform="translate(874,641)"
     id="path155" />
  <path
     d="M0,0 L1,0 L0,10 L-2,19 L-4,19 L-4,12 L-2,2 Z "
     fill="#120D0B"
     transform="translate(804,2675)"
     id="path156" />
  <path
     d="M0,0 L2,3 L2,18 L0,18 L-2,20 Z "
     fill="#DDAC97"
     transform="translate(1361,1431)"
     id="path157" />
  <path
     d="M0,0 L6,1 L8,3 L8,6 L-2,5 L-1,1 Z "
     fill="#291F1C"
     transform="translate(1040,704)"
     id="path158" />
  <path
     d="M0,0 L2,3 L5,12 L7,21 L6,25 L3,13 L3,11 L1,11 L0,14 L-1,7 L0,4 Z "
     fill="#A57E6D"
     transform="translate(802,1323)"
     id="path159" />
  <path
     d="M0,0 L9,3 L12,6 L16,7 L15,3 L17,4 L16,9 L16,12 L12,10 L7,6 L7,3 L1,2 Z "
     fill="#958886"
     transform="translate(922,636)"
     id="path160" />
  <path
     d="M0,0 L1,4 L-6,15 L-7,12 L-5,6 L-2,1 Z "
     fill="#D1A287"
     transform="translate(920,3018)"
     id="path161" />
  <path
     d="M0,0 L3,0 L3,6 L5,6 L4,16 L3,16 L2,11 L0,14 Z "
     fill="#1E1715"
     transform="translate(1127,2960)"
     id="path162" />
  <path
     d="M0,0 L1,0 L3,17 L0,19 L-2,12 L-2,8 L0,8 Z "
     fill="#D9A08B"
     transform="translate(777,1213)"
     id="path163" />
  <path
     d="M0,0 L0,3 L-7,11 L-14,15 L-16,14 L-2,2 Z "
     fill="#1F1715"
     transform="translate(968,912)"
     id="path164" />
  <path
     d="M0,0 L3,1 L4,16 L1,14 L0,9 Z "
     fill="#130E0D"
     transform="translate(973,823)"
     id="path165" />
  <path
     d="M0,0 L1,0 L0,10 L-2,20 L-5,22 L-3,8 Z "
     fill="#7A5651"
     transform="translate(807,2655)"
     id="path166" />
  <path
     d="M0,0 L2,1 L-2,7 L-5,8 L-5,11 L-10,11 L-5,4 Z "
     fill="#E4BAA0"
     transform="translate(1271,3079)"
     id="path167" />
  <path
     d="M0,0 L2,3 L4,2 L4,13 L0,13 Z "
     fill="#DCA18B"
     transform="translate(1349,1571)"
     id="path168" />
  <path
     d="M0,0 L2,0 L4,3 L5,16 L2,13 L0,5 Z "
     fill="#E4AF92"
     transform="translate(798,1316)"
     id="path169" />
  <path
     d="M0,0 L1,0 L1,8 L0,13 L3,13 L2,21 L0,21 L-1,19 L-1,5 Z "
     fill="#CC9C8B"
     transform="translate(1296,2680)"
     id="path170" />
  <path
     d="M0,0 L2,0 L0,16 L-1,21 L-2,21 L-2,11 L-1,1 Z "
     fill="#866F58"
     transform="translate(1314,2555)"
     id="path171" />
  <path
     d="M0,0 L1,0 L1,23 L0,26 L-2,26 L-1,10 Z "
     fill="#B79281"
     transform="translate(1296,1305)"
     id="path172" />
  <path
     d="M0,0 L2,0 L3,5 L3,16 L0,14 Z "
     fill="#080605"
     transform="translate(979,858)"
     id="path173" />
  <path
     d="M0,0 L2,0 L0,6 L-2,15 L-4,15 L-3,4 L-4,2 Z "
     fill="#3A2B26"
     transform="translate(1123,809)"
     id="path174" />
  <path
     d="M0,0 L2,1 L-11,14 L-14,15 L-12,11 L-4,3 Z "
     fill="#2F231F"
     transform="translate(916,615)"
     id="path175" />
  <path
     d="M0,0 L6,0 L5,3 L3,4 L-8,4 L-9,2 Z "
     fill="#B87D68"
     transform="translate(1098,460)"
     id="path176" />
  <path
     d="M0,0 L1,0 L1,14 L0,22 L-2,22 L-2,12 Z "
     fill="#2B1C19"
     transform="translate(1316,2533)"
     id="path177" />
  <path
     d="M0,0 L2,3 L6,16 L5,18 L2,18 L1,16 Z "
     fill="#BB9483"
     transform="translate(924,1408)"
     id="path178" />
  <path
     d="M0,0 L5,3 L6,8 L1,9 L-2,5 L0,5 L-1,1 Z "
     fill="#DEA088"
     transform="translate(1152,807)"
     id="path179" />
  <path
     d="M0,0 L8,1 L10,2 L10,4 L-2,4 Z "
     fill="#2E2320"
     transform="translate(1062,706)"
     id="path180" />
  <path
     d="M0,0 L4,0 L3,3 L-3,6 L-6,5 L-11,6 L-10,4 Z "
     fill="#A98374"
     transform="translate(827,3080)"
     id="path181" />
  <path
     d="M0,0 L2,0 L2,14 L0,18 L-1,5 Z "
     fill="#1C1613"
     transform="translate(1159,2320)"
     id="path182" />
  <path
     d="M0,0 L2,2 L4,12 L1,13 L-1,8 L-1,1 Z "
     fill="#E8B7A1"
     transform="translate(1367,1688)"
     id="path183" />
  <path
     d="M0,0 L1,0 L2,8 L2,20 L-1,17 L-1,8 Z "
     fill="#C99683"
     transform="translate(1365,1371)"
     id="path184" />
  <path
     d="M0,0 L1,0 L4,20 L3,24 L2,22 L2,15 L0,15 Z "
     fill="#8F6B63"
     transform="translate(1370,1027)"
     id="path185" />
  <path
     d="M0,0 L2,0 L0,4 L-10,10 L-14,9 Z "
     fill="#3E332C"
     transform="translate(838,995)"
     id="path186" />
  <path
     d="M0,0 L2,0 L0,4 L-9,9 L-12,8 L-9,5 Z "
     fill="#2A231D"
     transform="translate(875,974)"
     id="path187" />
  <path
     d="M0,0 L2,0 L3,3 L2,10 L0,10 L0,22 L-1,22 L-1,7 Z "
     fill="#403329"
     transform="translate(1295,3008)"
     id="path188" />
  <path
     d="M0,0 L0,3 L-6,10 L-8,15 L-11,15 L-5,4 Z "
     fill="#BD9985"
     transform="translate(693,2971)"
     id="path189" />
  <path
     d="M0,0 L3,0 L1,11 L-2,11 L-1,1 Z "
     fill="#EBBD99"
     transform="translate(1298,2682)"
     id="path190" />
  <path
     d="M0,0 L3,1 L1,12 L-1,12 L-2,6 Z "
     fill="#E6B099"
     transform="translate(1305,2632)"
     id="path191" />
  <path
     d="M0,0 L2,3 L4,13 L1,14 L-1,7 L-1,1 Z "
     fill="#E5B596"
     transform="translate(1360,1661)"
     id="path192" />
  <path
     d="M0,0 L2,0 L2,17 L1,14 L-1,14 Z "
     fill="#E3B9A1"
     transform="translate(1369,1321)"
     id="path193" />
  <path
     d="M0,0 L2,0 L4,4 L3,8 L-2,7 L-3,3 Z "
     fill="#C09579"
     transform="translate(964,850)"
     id="path194" />
  <path
     d="M0,0 L29,0 L29,2 L26,3 L24,2 L0,1 Z "
     fill="#2A211E"
     transform="translate(692,3098)"
     id="path195" />
  <path
     d="M0,0 L1,3 L-1,11 L-1,23 L-2,23 L-3,18 L-3,5 Z "
     fill="#1C0000"
     transform="translate(1120,2981)"
     id="path196" />
  <path
     d="M0,0 L2,3 L2,5 L5,4 L7,11 L5,11 L3,14 L0,4 Z "
     fill="#B29577"
     transform="translate(1366,1696)"
     id="path197" />
  <path
     d="M0,0 L2,3 L5,14 L4,18 L3,13 L1,13 L0,17 L0,9 L2,9 L0,4 Z "
     fill="#3B2F29"
     transform="translate(881,1247)"
     id="path198" />
  <path
     d="M0,0 L1,2 L-2,9 L-2,12 L-6,12 L-7,14 L-7,9 L-2,3 Z "
     fill="#C28A78"
     transform="translate(1272,734)"
     id="path199" />
  <path
     d="M0,0 L9,0 L8,2 L5,3 L-7,3 L-6,1 Z "
     fill="#DDAD9A"
     transform="translate(968,573)"
     id="path200" />
  <path
     d="M0,0 L2,4 L5,10 L5,12 L7,13 L3,14 L1,10 L-1,5 Z "
     fill="#C7877D"
     transform="translate(1145,814)"
     id="path201" />
  <path
     d="M0,0 L5,0 L4,4 L3,5 L-3,5 L-3,1 Z "
     fill="#242120"
     transform="translate(1165,662)"
     id="path202" />
  <path
     d="M0,0 L4,1 L0,3 L2,5 L-4,6 L-4,4 L-10,5 L-6,2 Z M-4,3 Z "
     fill="#2E231E"
     transform="translate(1113,615)"
     id="path203" />
  <path
     d="M0,0 L4,1 L-6,5 L-11,8 L-15,7 L-6,2 Z "
     fill="#A38273"
     transform="translate(863,3063)"
     id="path204" />
  <path
     d="M0,0 L1,0 L1,11 L-1,18 L-2,18 L-2,10 Z "
     fill="#DDB395"
     transform="translate(810,2623)"
     id="path205" />
  <path
     d="M0,0 L1,0 L1,17 L2,20 L-2,20 L-1,5 Z "
     fill="#AA8072"
     transform="translate(1306,2613)"
     id="path206" />
  <path
     d="M0,0 L2,4 L3,10 L2,16 L1,16 L-2,2 L0,2 Z "
     fill="#DBA28F"
     transform="translate(1352,1631)"
     id="path207" />
  <path
     d="M0,0 L1,0 L0,11 L-2,22 L-3,22 L-4,14 L-2,14 L-1,5 Z "
     fill="#906F62"
     transform="translate(814,2607)"
     id="path208" />
  <path
     d="M0,0 L2,3 L1,16 L-1,14 L-1,5 Z "
     fill="#E7B59D"
     transform="translate(1307,2616)"
     id="path209" />
  <path
     d="M0,0 L4,1 L3,2 L7,4 L-5,6 L-5,4 L-3,4 L-3,2 Z "
     fill="#2C221E"
     transform="translate(1026,749)"
     id="path210" />
  <path
     d="M0,0 L5,2 L4,4 L5,5 L4,8 L2,8 L-2,3 L-2,1 Z "
     fill="#B97A66"
     transform="translate(1113,463)"
     id="path211" />
  <path
     d="M0,0 L2,2 L0,2 L1,5 L0,7 L-3,8 L-4,12 L-5,8 L-7,8 L-6,5 L-4,5 L-1,4 Z M-8,8 Z "
     fill="#C8906F"
     transform="translate(1077,454)"
     id="path212" />
  <path
     d="M0,0 L1,0 L1,8 L0,13 L-3,12 L-2,5 Z "
     fill="#F3BAA8"
     transform="translate(1122,2989)"
     id="path213" />
  <path
     d="M0,0 L1,0 L1,9 L-1,15 L-2,15 L-2,6 Z "
     fill="#1D1412"
     transform="translate(1053,2149)"
     id="path214" />
  <path
     d="M0,0 L2,0 L0,5 L-6,13 L-7,11 Z "
     fill="#E3AE9A"
     transform="translate(697,2961)"
     id="path215" />
  <path
     d="M0,0 L2,1 L-4,12 L-7,15 L-6,10 Z "
     fill="#563F38"
     transform="translate(739,2895)"
     id="path216" />
  <path
     d="M0,0 L1,0 L1,16 L-2,16 L-2,10 L0,10 Z "
     fill="#110D0B"
     transform="translate(1148,1997)"
     id="path217" />
  <path
     d="M0,0 L1,0 L0,11 L-1,14 L-3,14 L-4,8 L-2,8 L-1,4 Z "
     fill="#AD8375"
     transform="translate(911,1698)"
     id="path218" />
  <path
     d="M0,0 L3,1 L2,10 L0,13 Z "
     fill="#EBAB93"
     transform="translate(1363,1404)"
     id="path219" />
  <path
     d="M0,0 L2,1 L-3,6 L-9,8 L-9,5 Z "
     fill="#221C18"
     transform="translate(849,989)"
     id="path220" />
  <path
     d="M0,0 L1,0 L0,7 L-2,7 L-2,5 L-6,3 L-6,1 L-1,1 Z "
     fill="#D0B49D"
     transform="translate(928,798)"
     id="path221" />
  <path
     d="M0,0 L9,0 L19,5 L17,6 L0,1 Z "
     fill="#856458"
     transform="translate(981,601)"
     id="path222" />
  <path
     d="M0,0 L1,0 L1,5 L-3,11 L-6,9 Z "
     fill="#D4B18D"
     transform="translate(703,2951)"
     id="path223" />
  <path
     d="M0,0 L2,0 L2,11 L-1,12 L-1,5 Z "
     fill="#E1B09B"
     transform="translate(1353,1529)"
     id="path224" />
  <path
     d="M0,0 L2,3 L2,9 L-2,10 L-2,4 L0,4 Z "
     fill="#CAA08D"
     transform="translate(783,1246)"
     id="path225" />
  <path
     d="M0,0 L2,1 L6,11 L6,15 L4,15 L0,2 Z "
     fill="#796555"
     transform="translate(1361,998)"
     id="path226" />
  <path
     d="M0,0 L2,0 L1,5 L0,7 L-2,7 L-3,10 L-4,8 L-2,4 L-4,3 Z "
     fill="#EAAD97"
     transform="translate(929,922)"
     id="path227" />
  <path
     d="M0,0 L1,0 L2,9 L-2,12 L-3,9 Z "
     fill="#D7A291"
     transform="translate(970,900)"
     id="path228" />
  <path
     d="M0,0 L4,2 L8,5 L8,7 L3,6 L0,3 Z "
     fill="#1B1C1E"
     transform="translate(941,646)"
     id="path229" />
  <path
     d="M0,0 L1,2 L7,2 L9,7 L6,7 L6,5 L3,6 L3,4 L-1,3 Z "
     fill="#C3785D"
     transform="translate(1138,476)"
     id="path230" />
  <path
     d="M0,0 L4,1 L12,5 L12,6 L3,5 Z "
     fill="#CBA08A"
     transform="translate(648,3091)"
     id="path231" />
  <path
     d="M0,0 L1,2 L3,2 L4,8 L0,9 L-1,8 Z "
     fill="#E8BBA7"
     transform="translate(1379,1737)"
     id="path232" />
  <path
     d="M0,0 L2,2 L2,11 L0,11 L-1,9 L-1,2 Z "
     fill="#E9BB9A"
     transform="translate(775,1210)"
     id="path233" />
  <path
     d="M0,0 L2,1 L-2,6 L-6,9 L-8,9 L-6,5 Z "
     fill="#45352B"
     transform="translate(800,1020)"
     id="path234" />
  <path
     d="M0,0 L5,1 L6,3 L6,14 L5,14 L3,4 L0,1 Z "
     fill="#E5B1A5"
     transform="translate(962,895)"
     id="path235" />
  <path
     d="M0,0 L2,0 L5,9 L2,10 L0,6 Z "
     fill="#D8A48D"
     transform="translate(1148,816)"
     id="path236" />
  <path
     d="M0,0 L4,4 L1,6 L2,10 L0,11 L-2,6 L-2,3 L-1,2 Z "
     fill="#AB8C76"
     transform="translate(1157,812)"
     id="path237" />
  <path
     d="M0,0 L5,1 L1,4 L-4,5 L-5,1 L-2,1 Z "
     fill="#362924"
     transform="translate(1246,651)"
     id="path238" />
  <path
     d="M0,0 L2,0 L0,4 L-7,10 L-7,7 Z "
     fill="#AD8374"
     transform="translate(1100,626)"
     id="path239" />
  <path
     d="M0,0 L5,1 L3,3 L-4,6 L-8,7 L-3,2 Z "
     fill="#74574D"
     transform="translate(923,617)"
     id="path240" />
  <path
     d="M0,0 L6,2 L11,4 L10,7 L3,5 L2,3 L-1,1 Z "
     fill="#B5796B"
     transform="translate(1123,470)"
     id="path241" />
  <path
     d="M0,0 L2,0 L4,5 L3,10 L0,6 Z "
     fill="#EDBAB0"
     transform="translate(1126,3040)"
     id="path242" />
  <path
     d="M0,0 L2,1 L3,8 L0,7 L0,9 L-2,9 L-1,2 Z "
     fill="#E3BEA7"
     transform="translate(1383,1751)"
     id="path243" />
  <path
     d="M0,0 L3,1 L4,7 L1,11 L0,7 Z "
     fill="#D4A893"
     transform="translate(1370,1706)"
     id="path244" />
  <path
     d="M0,0 L2,3 L3,12 L0,8 L-2,2 L0,2 Z "
     fill="#E0AB95"
     transform="translate(806,1342)"
     id="path245" />
  <path
     d="M0,0 L2,4 L3,9 L2,15 L0,11 Z "
     fill="#964845"
     transform="translate(838,732)"
     id="path246" />
  <path
     d="M0,0 L5,0 L7,5 L4,6 L-1,1 Z "
     fill="#B78D7A"
     transform="translate(1188,559)"
     id="path247" />
  <path
     d="M0,0 L1,2 L3,2 L3,6 L-3,8 L-4,6 L-2,5 Z M0,2 Z "
     fill="#B07C60"
     transform="translate(1069,460)"
     id="path248" />
  <path
     d="M0,0 L1,2 L1,8 L-2,8 L-3,11 L-5,11 L-3,4 Z "
     fill="#B69480"
     transform="translate(1288,3055)"
     id="path249" />
  <path
     d="M0,0 L3,0 L1,5 L-3,9 L-2,3 Z "
     fill="#CB9C7F"
     transform="translate(707,2945)"
     id="path250" />
  <path
     d="M0,0 L2,0 L1,5 L-2,11 L-4,7 Z "
     fill="#221A17"
     transform="translate(743,2887)"
     id="path251" />
  <path
     d="M0,0 L5,2 L11,6 L12,8 L6,6 L0,2 Z "
     fill="#A57368"
     transform="translate(1325,951)"
     id="path252" />
  <path
     d="M0,0 L2,0 L0,4 L-3,6 L-8,6 L-5,3 Z "
     fill="#AD8475"
     transform="translate(1144,797)"
     id="path253" />
  <path
     d="M0,0 L1,2 L6,1 L5,3 L2,4 L-1,7 L-3,6 L-2,2 L0,2 Z "
     fill="#D8A694"
     transform="translate(923,793)"
     id="path254" />
  <path
     d="M0,0 L2,2 L-1,7 L-4,12 L-5,9 L-4,5 L-1,5 Z "
     fill="#B78E65"
     transform="translate(1282,730)"
     id="path255" />
  <path
     d="M0,0 L5,1 L3,4 L1,4 L-3,5 L-4,1 Z "
     fill="#BE8971"
     transform="translate(1155,508)"
     id="path256" />
  <path
     d="M0,0 L8,0 L11,1 L12,4 L10,5 L5,3 L0,2 Z "
     fill="#A09184"
     transform="translate(1078,460)"
     id="path257" />
  <path
     d="M0,0 L6,2 L6,5 L2,8 L0,7 L0,5 L2,4 L0,3 Z "
     fill="#986851"
     transform="translate(1070,453)"
     id="path258" />
  <path
     d="M0,0 L6,1 L5,4 L-3,3 L-7,2 Z "
     fill="#B48E7E"
     transform="translate(805,3088)"
     id="path259" />
  <path
     d="M0,0 L1,4 L-4,12 L-5,8 Z "
     fill="#AC7E6D"
     transform="translate(731,2908)"
     id="path260" />
  <path
     d="M0,0 L2,0 L3,6 L-1,9 L-1,1 Z "
     fill="#D89C7F"
     transform="translate(1368,1335)"
     id="path261" />
  <path
     d="M0,0 L2,2 L2,11 L0,14 L-1,4 Z "
     fill="#EAB8A0"
     transform="translate(778,1228)"
     id="path262" />
  <path
     d="M0,0 L2,0 L4,9 L2,12 L0,4 Z "
     fill="#2A1F1B"
     transform="translate(1126,850)"
     id="path263" />
  <path
     d="M0,0 L1,2 L7,2 L7,4 L0,5 L-2,3 Z "
     fill="#E4B796"
     transform="translate(1141,825)"
     id="path264" />
  <path
     d="M0,0 L8,0 L8,1 L-4,3 L-7,5 L-8,2 Z "
     fill="#928888"
     transform="translate(939,628)"
     id="path265" />
  <path
     d="M0,0 L2,3 L1,11 L-1,8 L-1,1 Z "
     fill="#CB9F8C"
     transform="translate(1363,1674)"
     id="path266" />
  <path
     d="M0,0 L3,1 L0,4 L-6,6 L-7,4 Z "
     fill="#1C1713"
     transform="translate(823,1005)"
     id="path267" />
  <path
     d="M0,0 L3,1 L3,6 L-1,7 L-4,5 L-4,3 L2,4 Z "
     fill="#A1A0A4"
     transform="translate(947,649)"
     id="path268" />
  <path
     d="M0,0 L4,0 L4,2 L2,2 L2,4 L-5,4 L-2,1 Z "
     fill="#0C0908"
     transform="translate(1117,615)"
     id="path269" />
  <path
     d="M0,0 L2,0 L2,2 L-2,3 L-2,6 L-8,5 L-4,2 Z "
     fill="#B08B7C"
     transform="translate(846,3071)"
     id="path270" />
  <path
     d="M0,0 L1,2 L3,2 L4,9 L2,10 L0,4 Z "
     fill="#DBAC98"
     transform="translate(906,1358)"
     id="path271" />
  <path
     d="M0,0 L2,0 L4,8 L1,9 Z "
     fill="#090706"
     transform="translate(879,1248)"
     id="path272" />
  <path
     d="M0,0 L4,1 L-5,8 L-7,7 Z "
     fill="#D9A290"
     transform="translate(808,1012)"
     id="path273" />
  <path
     d="M0,0 L4,5 L6,11 L3,11 L0,3 Z "
     fill="#DCB996"
     transform="translate(1356,981)"
     id="path274" />
  <path
     d="M0,0 L4,1 L10,7 L9,9 L7,8 L7,6 L5,6 Z "
     fill="#43342A"
     transform="translate(1336,959)"
     id="path275" />
  <path
     d="M0,0 L4,1 L8,5 L8,7 L4,5 L0,2 Z "
     fill="#342925"
     transform="translate(1157,898)"
     id="path276" />
  <path
     d="M0,0 L1,4 L-5,5 L-7,7 L-9,2 L-1,3 Z "
     fill="#CC9C8A"
     transform="translate(1143,866)"
     id="path277" />
  <path
     d="M0,0 L3,0 L5,4 L4,8 L4,5 L0,6 Z "
     fill="#DDA09E"
     transform="translate(966,844)"
     id="path278" />
  <path
     d="M0,0 L2,0 L6,4 L4,9 L2,6 L2,4 L-1,3 L1,3 Z "
     fill="#E0AE9A"
     transform="translate(936,805)"
     id="path279" />
  <path
     d="M0,0 L2,0 L2,3 L-9,3 L-7,1 Z "
     fill="#DAA996"
     transform="translate(957,575)"
     id="path280" />
  <path
     d="M0,0 L2,3 L3,5 L3,12 L1,10 L0,7 Z "
     fill="#70584C"
     transform="translate(809,1350)"
     id="path281" />
  <path
     d="M0,0 L2,0 L0,4 L-5,9 L-7,8 Z "
     fill="#B99483"
     transform="translate(786,1039)"
     id="path282" />
  <path
     d="M0,0 L2,1 L-6,9 L-7,7 L-3,2 Z "
     fill="#291F1C"
     transform="translate(1041,655)"
     id="path283" />
  <path
     d="M0,0 L2,0 L0,4 L-5,6 L-5,3 Z "
     fill="#1C1613"
     transform="translate(893,3044)"
     id="path284" />
  <path
     d="M0,0 L5,0 L3,6 L0,5 Z "
     fill="#DBAC97"
     transform="translate(1378,1745)"
     id="path285" />
  <path
     d="M0,0 L3,2 L3,7 L1,7 L0,9 Z "
     fill="#E2B29D"
     transform="translate(1351,1555)"
     id="path286" />
  <path
     d="M0,0 L2,1 L-2,6 L-8,8 L-3,3 Z "
     fill="#3E312F"
     transform="translate(960,919)"
     id="path287" />
  <path
     d="M0,0 L7,6 L7,11 L4,7 L4,5 L2,5 Z "
     fill="#C69898"
     transform="translate(1150,813)"
     id="path288" />
  <path
     d="M0,0 L4,1 L5,8 L2,6 Z "
     fill="#E5A495"
     transform="translate(1147,803)"
     id="path289" />
  <path
     d="M0,0 L3,1 L4,4 L-7,2 L-7,1 Z "
     fill="#CDCBD0"
     transform="translate(1129,658)"
     id="path290" />
  <path
     d="M0,0 L2,2 L3,9 L-1,5 Z "
     fill="#D7A888"
     transform="translate(641,3077)"
     id="path291" />
  <path
     d="M0,0 L2,1 L0,5 L-7,7 L-2,2 Z "
     fill="#A18172"
     transform="translate(1271,3079)"
     id="path292" />
  <path
     d="M0,0 L2,3 L3,8 L1,9 L-2,3 Z "
     fill="#CE867C"
     transform="translate(1130,3047)"
     id="path293" />
  <path
     d="M0,0 L2,4 L3,8 L0,11 Z "
     fill="#DAAE99"
     transform="translate(1294,2695)"
     id="path294" />
  <path
     d="M0,0 L1,0 L2,12 L1,10 L-2,11 L-2,8 L0,8 Z "
     fill="#B99281"
     transform="translate(777,1213)"
     id="path295" />
  <path
     d="M0,0 L7,1 L3,3 L1,5 L-1,3 Z "
     fill="#2C231E"
     transform="translate(1303,944)"
     id="path296" />
  <path
     d="M0,0 L10,2 L8,5 L3,3 Z "
     fill="#332924"
     transform="translate(1228,925)"
     id="path297" />
  <path
     d="M0,0 L3,2 L0,7 L-2,7 L-2,3 Z "
     fill="#FCCFAE"
     transform="translate(954,902)"
     id="path298" />
  <path
     d="M0,0 L2,0 L1,5 L4,6 L0,7 L-2,3 L0,3 Z "
     fill="#DD7469"
     transform="translate(1138,824)"
     id="path299" />
  <path
     d="M0,0 L1,2 L3,2 L3,7 L0,10 Z "
     fill="#241B18"
     transform="translate(972,817)"
     id="path300" />
  <path
     d="M0,0 L2,1 L2,4 L-3,6 L-3,4 L-5,3 Z "
     fill="#C99F8A"
     transform="translate(1151,793)"
     id="path301" />
  <path
     d="M0,0 L3,1 L2,9 L0,5 L-1,1 Z "
     fill="#C37260"
     transform="translate(1286,690)"
     id="path302" />
  <path
     d="M0,0 L1,2 L-2,7 L-5,7 L-5,5 L-3,5 L-1,1 Z "
     fill="#A48373"
     transform="translate(1278,3072)"
     id="path303" />
  <path
     d="M0,0 L0,3 L-5,8 L-5,4 Z "
     fill="#A78C78"
     transform="translate(693,2971)"
     id="path304" />
  <path
     d="M0,0 L1,0 L0,7 L-2,9 L-2,2 Z "
     fill="#231B17"
     transform="translate(804,2675)"
     id="path305" />
  <path
     d="M0,0 L2,1 L3,9 L0,7 Z "
     fill="#E4B6A1"
     transform="translate(1374,1722)"
     id="path306" />
  <path
     d="M0,0 L2,1 L3,9 L1,9 Z "
     fill="#14100D"
     transform="translate(830,1426)"
     id="path307" />
  <path
     d="M0,0 L2,2 L3,9 L1,9 L0,7 Z "
     fill="#0C0807"
     transform="translate(1129,859)"
     id="path308" />
  <path
     d="M0,0 L2,0 L1,3 L-5,3 L-4,1 Z M-7,3 L-5,4 L-10,5 Z "
     fill="#E22A00"
     transform="translate(874,641)"
     id="path309" />
  <path
     d="M0,0 L11,0 L11,2 L8,3 L0,1 Z "
     fill="#1C1614"
     transform="translate(710,3098)"
     id="path310" />
  <path
     d="M0,0 L7,0 L3,1 L3,3 L-2,3 L-2,1 Z "
     fill="#1B1411"
     transform="translate(761,3095)"
     id="path311" />
  <path
     d="M0,0 L1,0 L1,7 L-1,10 L-2,4 Z "
     fill="#211A17"
     transform="translate(1133,2956)"
     id="path312" />
  <path
     d="M0,0 L2,1 L2,7 L-1,6 L-1,1 Z "
     fill="#F1BDA2"
     transform="translate(813,2584)"
     id="path313" />
  <path
     d="M0,0 L1,0 L1,7 L-2,9 L-1,1 Z "
     fill="#E5B6A0"
     transform="translate(819,2526)"
     id="path314" />
  <path
     d="M0,0 L1,0 L2,9 L-1,9 L-2,5 L0,5 Z "
     fill="#AC8A7A"
     transform="translate(775,1203)"
     id="path315" />
  <path
     d="M0,0 L2,1 L2,4 L-2,4 L-3,6 L-3,1 Z "
     fill="#BF7B67"
     transform="translate(1268,742)"
     id="path316" />
  <path
     d="M0,0 L2,3 L0,8 L-2,9 Z M-3,9 Z "
     fill="#C48C79"
     transform="translate(1277,687)"
     id="path317" />
  <path
     d="M0,0 L4,3 L4,5 L0,4 L-3,1 Z "
     fill="#473F3D"
     transform="translate(1011,638)"
     id="path318" />
  <path
     d="M0,0 L1,3 L-2,7 L-3,3 L0,2 Z "
     fill="#000000"
     transform="translate(1262,600)"
     id="path319" />
  <path
     d="M0,0 L3,0 L2,3 Z "
     fill="#000000"
     transform="translate(1253,616)"
     id="path320" />
  <path
     d="M0,0 L2,0 L2,2 L0,2 Z "
     fill="#000000"
     transform="translate(1253,619)"
     id="path321" />
  <path
     d="M0,0 Z "
     fill="#000000"
     transform="translate(1256,610)"
     id="path322" />
  <path
     d="M0,0 Z "
     fill="#000000"
     transform="translate(1258,606)"
     id="path323" />
  <path
     d="M0,0 Z "
     fill="#000000"
     transform="translate(1255,612)"
     id="path324" />
  <path
     d="M0,0 Z "
     fill="#000000"
     transform="translate(885,612)"
     id="path325" />
  <path
     style="fill:#e5b7a2;fill-opacity:1;stroke-width:0.665264"
     d="m 1045.463,830.65062 c -11.2379,-2.27659 -23.4606,-8.44202 -62.44558,-31.49914 -30.11717,-17.81238 -46.74079,-30.39265 -58.54333,-44.30389 -6.11267,-7.20478 -12.44497,-19.36176 -14.35748,-27.56401 -0.70517,-3.02424 -1.60344,-6.34376 -1.99617,-7.37672 -0.80098,-2.10676 -2.67481,-21.78319 -2.68739,-28.21942 l -0.008,-4.17915 1.57433,0.85283 c 0.86589,0.46905 2.8554,2.34967 4.42115,4.17915 3.70926,4.33403 6.60151,6.26655 16.38574,10.94845 10.17498,4.86888 16.14286,6.01701 31.25497,6.01296 14.68306,-0.004 25.58811,-1.9652 36.18448,-6.50774 11.75428,-5.03892 13.38708,-6.03204 20.11998,-12.23756 5.0213,-4.62796 7.0807,-7.1333 10.3651,-12.60952 2.2543,-3.75873 4.0987,-7.24394 4.0987,-7.74492 0,-0.50799 0.5149,-0.81331 1.1642,-0.69031 0.7724,0.1463 1.2354,0.96009 1.3757,2.41755 0.1736,1.80354 0.462,2.16 1.6099,1.99035 1.0587,-0.15646 1.7346,-1.20592 2.7822,-4.31983 1.5456,-4.59411 3.5192,-7.04772 7.1784,-8.92424 1.9959,-1.02355 3.9045,-1.26578 9.9734,-1.26578 9.702,0 17.8279,1.22093 17.8279,2.67867 0,0.57993 0.7062,2.01168 1.5694,3.18166 0.9856,1.33583 1.8847,3.97008 2.4167,7.08059 l 0.8473,4.95334 2.6989,0.20026 c 2.6818,0.19899 2.711,0.23063 4.646,5.02341 1.1235,2.78281 2.3437,4.82317 2.8843,4.82317 0.5189,0 1.1241,0.93536 1.3562,2.0961 0.3061,1.53065 2.7943,4.4629 9.2234,10.86978 7.5026,7.47656 9.2712,8.90444 11.9631,9.65813 2.0634,0.57772 3.2726,1.31884 3.4866,2.13697 0.419,1.60263 6.0357,4.40422 14.3192,7.14243 l 6.5141,2.15333 11.7806,-0.28838 c 11.5447,-0.28261 11.9728,-0.3454 21.373,-3.13417 10.2563,-3.04277 14.058,-5.0595 22.8664,-12.13043 3.2015,-2.56998 5.7342,-5.45447 8.6935,-9.90092 6.9495,-10.44203 9.7405,-19.37243 9.7405,-31.16672 v -6.51055 l 5.4884,-0.42724 c 3.0187,-0.23499 8.7067,-0.42905 12.64,-0.43124 6.3725,-0.004 7.1507,0.12284 7.1426,1.16023 -0.018,2.25884 -0.7919,4.03821 -1.8819,4.32525 -0.7399,0.19483 -1.5145,1.91156 -2.3542,5.21731 -0.6882,2.70981 -2.2256,6.87284 -3.4164,9.25116 -1.1908,2.37832 -4.8832,11.08133 -8.2054,19.34003 -6.6099,16.4318 -16.9348,39.26034 -22.2442,49.1822 -4.0589,7.58505 -10.2187,15.69337 -15.9768,21.0308 -10.9727,10.17103 -39.0346,27.79268 -74.3081,46.66222 -7.8667,4.20832 -14.6025,7.8831 -14.9684,8.16617 -0.3659,0.28309 -6.2036,2.53321 -12.9727,5.00028 -11.6673,4.2523 -12.6534,4.49662 -18.96,4.6978 -4.561,0.1455 -8.5352,-0.16913 -12.6401,-1.0007 z m 40.0822,-72.17736 c -0.6403,-0.48607 -1.1642,-1.34134 -1.1642,-1.9006 0,-0.63246 -0.8671,-1.1795 -2.2938,-1.44716 -1.2616,-0.23668 -8.8765,-2.21589 -16.922,-4.39825 l -14.6281,-3.96793 h -9.9385 c -9.1887,0 -10.2258,0.12709 -13.7481,1.68482 -2.3417,1.03557 -3.9416,2.18919 -4.152,2.99369 -0.1882,0.71987 -0.7564,1.30887 -1.2626,1.30887 -0.5061,0 -0.9203,0.59873 -0.9203,1.33052 0,0.7318 0.075,1.33012 0.1663,1.32962 0.091,-5e-4 2.711,-0.44914 5.8211,-0.99698 6.6404,-1.16971 19.1548,-1.3063 22.9516,-0.25052 9.0901,2.5277 24.4402,5.11274 30.6022,5.15359 5.6665,0.0376 6.4801,-0.0869 5.4884,-0.83967 z m -37.0885,-50.21782 c 0,-2.44576 -1.0279,-3.26463 -5.0603,-4.03109 -3.7538,-0.71348 -4.6563,-0.1892 -5.3112,3.08505 -0.4174,2.08692 -0.3887,2.11428 2.4799,2.36961 7.7507,0.68986 7.8916,0.66443 7.8916,-1.42357 z m 23.9496,0.6354 c 0,-1.43073 -2.3109,-2.34916 -7.4745,-2.97063 -2.9731,-0.35783 -3.2068,-0.2696 -4.1579,1.56954 -0.5542,1.07178 -1.0077,2.11324 -1.0077,2.31435 0,0.20112 2.844,0.36567 6.32,0.36567 5.7916,0 6.3201,-0.10694 6.3201,-1.27893 z"
     id="path326" />
  <path
     style="fill:#e5b7a2;fill-opacity:1;stroke-width:0.665264"
     d="m 943.01232,702.87618 c -1.82948,-0.24949 -7.27063,-2.22808 -12.09144,-4.39687 -7.3088,-3.28808 -9.59403,-4.68964 -13.75403,-8.43554 -9.16287,-8.25077 -13.26656,-15.6896 -15.79296,-28.62821 -1.93699,-9.92005 -1.70533,-13.6468 1.29085,-20.76592 l 2.51988,-5.98738 5.94119,-0.20763 c 6.80372,-0.23778 10.6216,0.61703 11.11079,2.48766 0.24238,0.92687 1.17082,1.40022 3.40293,1.73495 2.62721,0.39397 3.06961,0.68107 3.06961,1.99203 0,0.97885 0.90047,2.23754 2.49474,3.48716 4.98586,3.90803 8.16796,4.79591 8.91475,2.48742 0.3358,-1.03802 0.44748,-0.87165 0.49895,0.74329 0.0365,1.14436 0.51537,2.45334 1.06421,2.90883 0.54885,0.4555 0.9979,1.53305 0.9979,2.39455 0,1.79326 2.77363,3.94727 4.31908,3.35423 0.58084,-0.22289 1.00303,-0.0163 1.00303,0.49089 0,0.57038 2.3975,1.40194 6.87511,2.38459 6.41306,1.40741 7.96671,1.48555 23.11794,1.16285 14.13763,-0.30112 17.19129,-0.56163 23.56075,-2.01002 9.1836,-2.08832 10.4671,-2.59491 12.22,-4.82343 1.1688,-1.48586 1.4179,-2.70447 1.4179,-6.93592 v -5.13336 l -4.4905,-4.66166 c -5.0357,-5.22753 -16.24777,-13.09113 -24.79621,-17.39078 -4.358,-2.19197 -6.89396,-3.00376 -10.96063,-3.50864 -2.90995,-0.36127 -5.4633,-0.93595 -5.67412,-1.27706 -1.11914,-1.81082 -18.07092,-2.65045 -26.25972,-1.30065 -2.19537,0.36187 -5.45449,0.46583 -7.24247,0.23102 l -3.25089,-0.42694 8.24037,-2.97752 8.24037,-2.97753 14.74899,-0.32949 14.74899,-0.32948 7.83989,2.46916 c 9.9291,3.12716 19.63523,7.98206 24.54143,12.27535 4.2601,3.7279 10.8214,13.29541 13.7202,20.00614 1.7209,3.984 1.8692,4.99654 1.8858,12.86938 0.025,11.72062 -1.2739,15.94809 -7.3886,24.0528 -7.1915,9.53189 -11.4354,12.86529 -23.66909,18.59114 -13.87312,6.49315 -16.67296,7.04855 -34.92375,6.92787 -7.79071,-0.0515 -15.66176,-0.29779 -17.49124,-0.54728 z"
     id="path327" />
  <path
     style="fill:#e5b7a2;fill-opacity:1;stroke-width:0.665264"
     d="m 976.77449,894.73955 c -0.45737,-0.49535 -0.83735,-1.88622 -0.84441,-3.09083 -0.007,-1.2046 -0.39998,-3.68703 -0.87316,-5.51651 -0.8347,-3.22725 -0.96131,-3.35527 -4.25102,-4.2984 -3.31393,-0.95009 -3.40494,-1.04421 -4.02059,-4.15791 -0.56731,-2.86914 -0.50942,-3.18581 0.58231,-3.18581 0.66673,0 2.25939,-0.49935 3.53923,-1.10967 1.98873,-0.94836 2.39038,-1.5323 2.76298,-4.01699 0.44952,-2.99763 -0.74365,-8.8439 -1.80496,-8.8439 -0.31835,0 -0.57881,-2.85887 -0.57881,-6.35305 0,-6.55523 -1.06253,-10.27856 -2.93319,-10.27856 -0.49677,0 -1.0431,-0.53492 -1.21408,-1.18873 -0.22682,-0.86736 -1.52047,-1.42916 -4.7852,-2.07808 -4.61196,-0.91672 -5.33534,-0.71991 -5.89423,1.60365 -0.17603,0.73179 -0.35477,-1.11909 -0.39721,-4.11307 -0.0679,-4.78997 -0.23416,-5.49343 -1.38459,-5.85856 -0.87573,-0.27795 -1.43508,-1.2263 -1.69407,-2.8722 -0.82304,-5.23054 -5.58406,-11.63844 -10.19071,-13.71575 l -2.65539,-1.19741 1.0767,-2.90511 1.07671,-2.90511 -1.92581,-2.01011 c -1.0592,-1.10557 -2.46855,-2.01012 -3.13188,-2.01012 -0.70418,0 -1.2071,-0.48447 -1.20855,-1.16421 -10e-4,-0.64032 -0.59571,-2.13716 -1.32075,-3.32632 l -1.31826,-2.16211 1.48706,-0.0663 c 1.41628,-0.0632 1.40789,-0.0917 -0.17609,-0.59895 -2.65909,-0.85159 -3.32633,-0.74364 -3.32633,0.53811 0,0.66186 -0.43953,1.7845 -0.97674,2.49475 -0.93523,1.23649 -0.97763,1.21329 -0.99789,-0.54598 -0.0205,-1.77634 -0.11502,-1.82453 -2.84853,-1.45141 -2.64788,0.36141 -2.7454,0.31968 -1.53601,-0.65741 0.71025,-0.57383 1.67266,-1.04332 2.1387,-1.04332 0.46603,0 1.19115,-0.64243 1.61137,-1.42761 0.7369,-1.3769 0.66807,-1.41226 -1.93801,-0.99553 -2.17123,0.34719 -2.83551,0.2029 -3.38145,-0.73451 -0.6462,-1.10954 -0.6804,-1.10966 -0.69964,-0.002 -0.0111,0.64032 -0.44434,1.16421 -0.96269,1.16421 -0.51835,0 -1.20023,0.77332 -1.51529,1.71848 -0.57005,1.71016 -0.58904,1.69969 -3.92408,-2.16211 -1.84319,-2.13432 -6.12282,-8.55222 -9.51029,-14.26201 -3.38747,-5.70978 -7.63396,-12.20427 -9.43664,-14.43217 -1.80269,-2.22791 -3.27761,-4.5166 -3.27761,-5.08598 0,-0.56937 -0.26049,-1.03522 -0.57886,-1.03522 -0.31837,0 -3.49222,-1.94784 -7.05299,-4.32854 -3.56077,-2.3807 -7.21689,-4.51496 -8.1247,-4.7428 -1.23385,-0.30968 -1.56453,-0.74323 -1.30982,-1.71725 0.25407,-0.97157 -0.98499,-2.61276 -4.87163,-6.45267 -4.41919,-4.36606 -5.79458,-6.30593 -9.03841,-12.74794 -4.5421,-9.02029 -5.55854,-13.16236 -5.58977,-22.77876 -0.018,-5.53063 0.35722,-8.68883 1.62009,-13.63792 1.75719,-6.88627 6.87384,-22.378 10.2314,-30.97772 1.54468,-3.95636 1.88435,-5.54949 1.38297,-6.48633 -0.51464,-0.96162 -0.43416,-1.24185 0.35669,-1.24185 0.64588,0 1.0213,-0.61136 1.0213,-1.66316 0,-0.91474 0.29186,-1.66316 0.64858,-1.66316 0.35672,0 1.30097,-2.24527 2.09833,-4.98948 0.79737,-2.74422 1.6813,-4.98949 1.9643,-4.98949 0.28299,0 3.12606,-5.01443 6.31792,-11.14318 3.61243,-6.93628 8.27704,-14.57065 12.35558,-20.22185 3.6037,-4.99328 6.55219,-9.40897 6.55219,-9.81265 0,-0.40369 0.83577,-0.73398 1.85728,-0.73398 1.32739,0 2.70346,-0.86509 4.82317,-3.03218 4.35496,-4.45231 13.35042,-9.82869 20.05538,-11.98666 4.70847,-1.5154 5.85163,-2.14566 6.16637,-3.39968 0.28538,-1.13704 0.86124,-1.54074 2.20317,-1.54449 0.99924,-0.003 3.7627,-0.59925 6.14102,-1.32545 5.20188,-1.58835 5.38404,-1.60072 4.89743,-0.33263 -0.3221,0.83938 0.52661,0.9979 5.34299,0.9979 h 5.72593 v -1.92462 c 0,-1.13281 0.42844,-2.08903 1.0414,-2.32424 0.79944,-0.30677 0.94359,-0.0915 0.62043,0.92672 -0.39904,1.25727 -0.11198,1.32634 5.51197,1.32634 6.27031,0 9.77808,-0.80245 10.38149,-2.37491 0.30254,-0.78839 3.09534,-0.95141 16.29979,-0.95141 13.31662,0 16.84502,0.20904 21.47562,1.27231 3.0476,0.69977 6.963,1.46654 8.701,1.70392 l 3.16,0.43162 v -2.24473 c 0,-3.23183 -2.5278,-5.30913 -9.9436,-8.17156 -5.7977,-2.23782 -7.2155,-2.49701 -18.29481,-3.34448 -6.60555,-0.50527 -17.00544,-0.9272 -23.11088,-0.93762 -10.01062,-0.0171 -11.90528,0.17265 -19.29267,1.93211 -6.37966,1.51944 -22.62938,6.79829 -32.02227,10.40267 -2.38046,0.91347 26.4013,-28.74754 33.47674,-34.4994 2.74421,-2.23087 7.98317,-6.94737 11.64212,-10.48112 16.09057,-15.53995 24.85941,-22.48809 41.91167,-33.20941 3.6589,-2.3005 7.5507,-5.00353 8.6484,-6.00672 1.0977,-1.0032 3.7456,-2.60879 5.8843,-3.568 2.1386,-0.9592 6.0876,-3.11469 8.7755,-4.78998 4.0477,-2.52284 5.1148,-2.92408 6.2131,-2.3363 2.9243,1.56503 9.5847,-0.0192 18.0919,-4.30337 2.6446,-1.33183 9.0953,-3.62689 14.3348,-5.10013 7.6173,-2.14182 9.6115,-2.94671 9.951,-4.01632 0.2561,-0.80689 0.066,-1.56468 -0.4782,-1.90972 -1.5305,-0.96977 0.5219,-0.70988 3.1866,0.4035 4.2193,1.76292 18.197,0.17575 18.197,-2.06627 0,-1.59572 1.4881,-1.68519 5.3341,-0.32072 2.0058,0.71163 3.2727,1.31575 2.8154,1.34248 -1.4415,0.0843 -0.9042,3.06634 0.9979,5.53823 2.3043,2.99463 5.1334,4.36619 8.2312,3.99053 1.8362,-0.22267 2.7184,0.0385 3.7041,1.09651 0.7116,0.76383 2.7704,1.83669 4.5751,2.38414 4.0653,1.23323 4.2791,1.23578 4.2791,0.0511 0,-1.41886 1.1237,-1.85989 2.6533,-1.04131 1.0129,0.54209 1.2475,1.13207 0.939,2.36129 -0.3583,1.4275 -0.1448,1.69196 1.6571,2.05234 1.2051,0.24101 2.0685,0.8279 2.0685,1.40602 0,0.6648 0.4391,0.87748 1.3305,0.64439 0.8648,-0.22614 1.3305,-0.0204 1.3305,0.58767 0,0.55448 0.6776,0.93561 1.6632,0.93561 0.9147,0 1.6695,-0.37421 1.6771,-0.83158 0.01,-0.45737 1.1724,0.97649 2.5882,3.18634 1.4158,2.20985 3.3555,4.37386 4.3103,4.8089 1.5776,0.71884 1.7367,1.14123 1.744,4.63052 0.01,2.83756 0.4304,4.57829 1.6266,6.6704 l 1.6185,2.83087 -1.6265,-0.40825 c -1.3879,-0.34833 -1.6266,-0.17321 -1.6266,1.1934 0,1.22656 -0.5453,1.79881 -2.3284,2.44361 -2.6435,0.95587 -2.6024,0.77884 -1.5303,6.59723 0.5734,3.11219 1.1223,4.41642 1.9498,4.6328 0.6334,0.16564 1.5893,1.3943 2.1243,2.73035 0.535,1.33604 1.6409,3.02791 2.4576,3.7597 0.8168,0.7318 2.9952,3.5758 4.8411,6.32002 1.8458,2.74421 5.5001,7.38443 8.1205,10.3116 2.6205,2.92716 6.9402,8.16612 9.5993,11.64212 6.1501,8.03932 10.1957,11.52387 12.7324,10.96671 1.6459,-0.36149 1.874,-0.18339 2.3064,1.80028 0.3253,1.49234 2.2447,4.02296 5.9587,7.85621 3.8855,4.01027 6.784,7.87962 9.9669,13.30529 5.6583,9.64533 8.0935,12.86363 10.8692,14.36427 1.4384,0.77765 2.3341,1.84084 2.5779,3.06005 0.3146,1.57306 0.7048,1.86835 2.469,1.86835 h 2.0954 l 1.227,5.82106 c 1.4085,6.68151 2.478,9.06287 7.4185,16.51754 l 3.5618,5.37435 -1.9622,6.10149 c -1.0791,3.35582 -1.9621,6.70021 -1.9621,7.43198 0,1.23712 -0.4436,1.3305 -6.32,1.3305 -3.476,0 -6.32,-0.25582 -6.32,-0.5685 0,-0.68723 -16.8743,-9.17365 -19.459,-9.78632 -1.3976,-0.33128 -1.8295,-0.82975 -1.8295,-2.11156 0,-2.03812 -3.9563,-7.75813 -7.244,-10.47349 -1.3213,-1.09122 -3.9005,-3.38522 -5.7316,-5.09777 -3.6082,-3.3747 -8.3761,-5.55064 -20.0287,-9.14065 l -6.7264,-2.07231 -16.5579,0.002 c -16.2764,0.002 -16.6935,0.0363 -24.541,2.03455 -4.3908,1.11802 -8.5819,2.1084 -9.3137,2.20084 -8.4683,1.06977 -18.2282,7.87662 -27.0244,18.84777 -4.2607,5.31415 -7.0903,13.31394 -7.6923,21.74774 l -0.4222,5.91471 -1.2475,-1.71256 c -0.6862,-0.9419 -3.1568,-2.78026 -5.4903,-4.08524 l -4.2428,-2.37268 -11.534,0.006 c -10.7116,0.006 -11.774,0.11826 -14.9001,1.5739 -3.0684,1.42883 -6.1119,4.44009 -8.1522,8.06594 -0.5889,1.04654 -0.753,-0.3185 -0.7689,-6.39553 -0.025,-9.47133 -0.6724,-13.09771 -3.7885,-21.21295 -2.8186,-7.34064 -6.0562,-12.41798 -10.6162,-16.64856 -4.053,-3.76029 -15.785,-11.95781 -17.1135,-11.95781 -0.544,0 -1.08888,-0.26253 -1.21085,-0.58341 -0.12196,-0.32087 -2.38471,-1.66803 -5.02832,-2.99369 -4.26494,-2.13868 -5.37766,-2.41028 -9.87493,-2.41028 -4.43177,0 -5.11016,-0.15982 -5.40112,-1.27245 -0.26126,-0.99905 -1.14125,-1.35621 -4.09562,-1.66229 -6.4301,-0.66617 -10.89174,-0.50265 -16.07026,0.58895 -15.30071,3.22532 -23.70019,5.42278 -24.75337,6.47596 -0.63695,0.63696 -1.94625,1.35592 -2.90954,1.59769 -0.96328,0.24177 -5.2369,2.39812 -9.49693,4.7919 -6.52723,3.66776 -8.80328,5.41643 -14.47055,11.11762 -4.83282,4.86175 -7.05768,7.63629 -7.90724,9.86083 -1.00112,2.6214 -1.45571,3.09554 -2.96784,3.09554 -1.7699,0 -1.79259,0.0601 -2.57446,6.81896 -0.43384,3.75043 -0.78182,10.26171 -0.77328,14.4695 0.0136,6.67569 0.2739,8.45586 2.04317,13.97056 1.74973,5.45383 2.29445,9.10087 3.97449,26.61057 1.07077,11.15981 1.94926,20.79483 1.9522,21.41116 0.0147,3.07586 -15.02928,-5.20801 -21.2473,-11.69973 -1.26094,-1.31643 -2.72346,-2.39352 -3.25004,-2.39352 -0.52658,0 -1.65104,-0.74842 -2.49879,-1.66316 -2.61189,-2.81828 -3.60069,-2.22215 -3.60069,2.17081 v 3.83398 l 5.82106,4.40093 c 3.20159,2.42052 7.91665,5.7626 10.47792,7.42686 4.34511,2.82336 5.04653,3.05672 10.47791,3.48591 l 5.82107,0.45997 v 2.129 c 0,8.94779 11.17258,27.63991 24.14407,40.3939 5.37326,5.28315 10.95077,9.7252 21.73004,17.30628 13.76197,9.67882 14.52291,10.32606 14.92366,12.69359 0.26678,1.57607 0.78685,2.49475 1.41231,2.49475 0.64916,0 0.99004,0.66489 0.99004,1.9311 0,1.06211 1.32768,8.3218 2.95041,16.13266 1.62272,7.81086 3.44023,17.79399 4.03891,22.18473 0.59868,4.39075 1.96531,13.41873 3.03697,20.06217 1.61048,9.98374 1.94036,13.965 1.90171,22.95162 -0.0498,11.57894 -0.36098,13.70187 -1.78272,12.16206 z M 1215.4381,601.73167 c 0,-0.73179 -0.2743,-1.33053 -0.6095,-1.33053 -0.3353,0 -2.8545,-1.5015 -5.5983,-3.33666 -2.7438,-1.83517 -6.0619,-3.78509 -7.3736,-4.33315 -1.3117,-0.54807 -2.3849,-1.4375 -2.3849,-1.97652 0,-2.64974 -33.5605,-13.46484 -45.4043,-14.63187 -3.0914,-0.30462 -4.4906,-0.72044 -4.4906,-1.33457 0,-1.03495 -0.6686,-1.19366 -12.5707,-2.98377 -6.318,-0.95025 -12.2758,-1.34036 -20.4701,-1.34036 -11.1982,0 -11.6408,0.0521 -14.2062,1.67151 -2.4193,1.52724 -2.6478,1.91915 -2.6478,4.54089 0,2.12381 0.3889,3.22747 1.4968,4.24751 1.3684,1.25985 2.6103,1.41543 14.4695,1.81259 19.2385,0.64429 34.7999,2.16344 48.2317,4.7085 6.5861,1.24793 13.0974,2.44183 14.4695,2.6531 1.4958,0.23031 2.4948,0.75273 2.4948,1.30467 0,0.54425 1.5075,1.35881 3.6879,1.99267 2.0284,0.58967 6.4441,2.29181 9.8127,3.78252 5.7344,2.5377 16.2194,5.64699 19.5963,5.81121 1.0776,0.0524 1.4968,-0.29987 1.4968,-1.25774 z"
     id="path328" />
  <path
     style="fill:#e5b7a2;fill-opacity:1;stroke-width:0.665264"
     d="m 1127.9558,713.27132 c -10.2499,-3.66736 -21.0878,-10.96987 -28.9935,-19.53561 -3.9849,-4.3176 -8.5947,-11.71129 -11.8793,-19.05328 -1.9285,-4.31069 -2.036,-4.99987 -2.0234,-12.97266 0.011,-6.67766 0.3427,-9.70297 1.6049,-14.61935 1.6597,-6.46448 4.497,-11.77882 5.9842,-11.20817 1.067,0.40945 8.3084,-6.46382 9.7802,-9.28307 1.1689,-2.23879 7.1888,-5.57484 10.0599,-5.57484 0.8687,0 4.2552,-0.94038 7.5254,-2.08973 l 5.9458,-2.08973 21.9683,-0.0724 21.9683,-0.0724 6.9707,3.40463 c 6.5421,3.19529 15.438,9.48058 16.7588,11.84078 0.7424,1.32645 0.1429,1.33044 -3.5507,0.0237 -1.6011,-0.56646 -7.3471,-2.21299 -12.7689,-3.65896 l -9.8578,-2.62903 h -13.9809 c -11.9736,0 -14.7608,0.19861 -19.4137,1.38341 -6.6211,1.68594 -11.5713,3.33355 -16.4099,5.46176 -2.0124,0.88517 -3.9707,1.49918 -4.3519,1.36447 -0.3811,-0.1347 -2.8509,1.7804 -5.4884,4.25579 -3.6957,3.46851 -4.7955,4.92005 -4.7955,6.32923 0,1.18186 0.3529,1.82854 0.9979,1.82854 0.5954,0 0.9979,0.61214 0.9979,1.51767 0,0.97385 1.3707,2.84735 3.8253,5.22848 4.4022,4.27046 9.3927,6.52558 18.0935,8.1761 6.7944,1.28886 6.74,1.28947 6.2186,-0.0693 -0.3467,-0.90329 -0.1858,-1.00378 0.8524,-0.5325 0.7039,0.3195 3.3753,0.71482 5.9366,0.87849 3.1376,0.2005 4.1142,0.43827 2.9937,0.72881 -0.9148,0.23717 -1.6632,0.83664 -1.6632,1.33217 0,1.36555 4.3597,2.59375 11.5203,3.24548 5.3796,0.48962 6.6338,0.42097 7.6061,-0.41632 1.0437,-0.89883 1.1642,-0.88864 1.1642,0.0984 0,0.87402 0.669,1.10101 3.2449,1.10101 3.604,0 4.5108,-0.69203 5.16,-3.9383 0.4258,-2.12888 0.4575,-2.14453 3.4966,-1.72901 2.9324,0.40093 3.1823,0.30097 5.6967,-2.2788 l 2.6297,-2.69812 -1.9644,-0.0335 c -3.6619,-0.0625 13.8054,-5.79468 18.4435,-6.05259 l 4.2067,-0.23391 0.2045,6.98527 c 0.4859,16.60497 -6.6081,34.54095 -17.3041,43.75065 -1.7209,1.48183 -4.1907,3.04464 -5.4884,3.47291 -1.4482,0.47796 -2.3608,1.20834 -2.3629,1.89129 -0.01,1.5617 -12.7959,5.90357 -19.1228,6.49127 -3.4238,0.31803 -4.8232,0.71259 -4.8232,1.35995 0,0.73296 -1.9258,0.90425 -9.8126,0.87279 -9.3189,-0.0372 -10.114,-0.14696 -15.8001,-2.18142 z"
     id="path329" />
  <path
     style="fill:#d09c8c;fill-opacity:1"
     d="m 1025.5051,576.11899 c -15.9158,-5.29603 -30.53512,-2.81325 -45.65376,-3.32632 -23.94805,-0.76492 -32.69249,4.31771 -45.9864,7.65054 -10.16166,4.90538 -20.03346,10.31803 -28.44006,18.29477 -8.06755,12.14108 -7.19954,24.28215 -10.14528,36.42323 h 3.99159 c 7.43323,-15.78371 18.78617,-21.66146 28.60637,-27.10953 7.7246,-4.3056 17.33989,-6.7205 26.77689,-9.3137 18.62698,-2.73076 26.10828,-0.13097 34.92638,1.82948 13.80717,6.66407 25.86617,14.13503 33.92847,23.45057 l 5.3221,11.3095 c 8.4955,-9.38085 11.5201,-25.53692 -3.3263,-59.20854 z"
     id="path330"
     sodipodi:nodetypes="cccccccccccc" />
  <path
     style="fill:#d09c8c;fill-opacity:1"
     d="m 1024.3409,638.48753 -8.4821,3.16001 c -8.9425,-8.2053 -18.0155,-16.38049 -32.59798,-23.28426 -7.01394,-2.02635 -14.1877,-4.53216 -20.78951,-5.32211 -8.72641,-0.32225 -17.42229,-0.58346 -25.28005,0.83158 l -5.65475,-0.66527 c 9.72184,-4.7429 20.16859,-6.58617 30.76848,-7.81685 8.97592,0.30497 15.78362,-2.05865 30.10322,4.82316 13.80269,4.08654 20.78299,11.24313 25.77899,19.29267 z"
     id="path331"
     sodipodi:nodetypes="cccccccccc" />
  <path
     style="fill:#d09c8c;fill-opacity:1"
     d="m 902.09856,719.81611 c -13.37922,-2.4815 -23.7479,-12.27433 -34.0948,-22.12004 -8.1838,-45.42626 18.62456,-70.71645 35.25901,-98.79177 l -7.65054,36.09059 -0.83158,0.9979 c -3.51632,38.19572 1.09487,33.43172 3.32632,41.24639 1.33053,21.1604 2.66106,29.39394 3.99159,42.57693 z"
     id="path332"
     sodipodi:nodetypes="ccccccc" />
  <path
     style="fill:#d09c8c;fill-opacity:1"
     d="m 1099.8256,578.84318 c -7.7517,19.96704 -17.9533,41.36317 -11.29,52.92146 6.597,-8.76171 14.914,-17.10643 41.8668,-20.93338 19.4055,-0.19265 31.4263,-0.82037 40.9259,2.35207 23.3727,4.96932 27.075,15.36498 32.9289,25.16709 6.7326,3.18027 13.5362,6.32507 19.0518,10.11388 l 2.8224,1.64645 11.7604,-0.23521 c 1.0047,-5.40975 2.9216,-10.8195 5.1745,-16.22925 l -28.9304,-31.98808 c -15.4013,-5.32189 -31.5033,-12.04531 -45.1596,-13.87718 -24.0079,-5.85234 -46.2882,-6.52171 -69.1507,-8.93785 z"
     id="path333"
     sodipodi:nodetypes="cccccccccccc" />
  <path
     style="fill:#d09c8c;fill-opacity:1"
     d="m 1091.3581,635.52794 11.9956,10.5843 c 5.6474,-7.71611 12.8723,-15.12886 34.5753,-19.75735 7.9599,-0.88098 17.7699,-0.83694 28.2248,-0.47041 14.2337,3.15605 19.4101,5.40638 27.9896,7.99702 -2.0775,-4.54733 -6.478,-9.09465 -14.818,-13.64198 -9.2538,-7.09603 -25.1651,-5.71882 -41.1612,-4.23372 -13.1956,-0.30422 -25.4489,3.63213 -37.3978,8.93785 z"
     id="path334"
     sodipodi:nodetypes="ccccccccc" />
  <path
     style="fill:#d09c8c;fill-opacity:1"
     d="m 1037.9788,709.17188 c 11.8056,1.37735 23.3395,1.93969 34.2611,0.66526 -4.2681,4.71922 -6.5736,11.61913 -14.4695,12.30739 -11.5244,-1.29206 -13.4009,-8.52134 -19.7916,-12.97265 z"
     id="path335"
     sodipodi:nodetypes="cccc" />
  <path
     style="fill:#d09c8c;fill-opacity:1"
     d="m 1021.1809,755.24144 11.6421,-1.82948 13.3053,-0.33263 28.4401,5.98738 10.6442,-0.16632 c -8.5602,2.21959 -16.2686,5.92966 -26.4443,5.32212 -13.1225,0.26958 -25.3243,-4.52401 -37.5874,-8.98107 z"
     id="path336"
     sodipodi:nodetypes="ccccccc" />
  <path
     style="fill:#d09c8c;fill-opacity:1"
     d="m 931.37019,563.8116 c 58.34802,-71.435 117.40031,-93.57008 176.62771,-103.44862 62.8955,33.37175 73.6382,87.88649 107.4402,133.05289 -37.9234,-23.59133 -66.3287,-73.35262 -107.4402,-87.48228 -41.0974,-8.7023 -118.20155,45.89565 -176.62771,57.87801 z"
     id="path337"
     sodipodi:nodetypes="ccccc" />
  <path
     style="fill:#d09c8c;fill-opacity:1"
     d="m 1233.7329,670.58654 c 9.0255,-12.77341 16.3234,-11.7267 23.6169,-10.64423 14.6127,11.53528 2.2217,27.76683 -1.9958,42.57692 -13.5639,29.14276 -31.5422,21.54668 -49.8949,33.92849 z"
     id="path338"
     sodipodi:nodetypes="ccccc" />
  <path
     style="fill:#d09c8c;fill-opacity:1"
     d="m 971.16761,798.52604 c 81.11609,46.81288 72.36729,36.02014 84.43909,38.57387 26.3775,-0.14441 42.9286,-15.0285 63.741,-23.52065 -1.992,17.05056 -3.3769,33.39287 -1.6464,46.10047 -18.8869,6.23417 -33.4754,18.37866 -56.92,18.34611 -21.0485,11.88228 -60.2309,37.26031 -77.14775,-11.76033 -3.16658,-20.5486 -8.17635,-44.95984 -12.46594,-67.73947 z"
     id="path339"
     sodipodi:nodetypes="ccccccc" />
</svg>
