<?xml version="1.0" encoding="UTF-8"?>
<svg version="1.1" xmlns="http://www.w3.org/2000/svg" width="2500" height="3686">
<path d="M0,0 L12,0 L32,2 L48,6 L48,8 L54,9 L63,13 L66,16 L73,20 L72,24 L78,28 L83,35 L91,29 L95,26 L101,25 L110,25 L111,22 L124,22 L148,26 L168,33 L178,38 L185,41 L198,50 L208,59 L217,68 L223,73 L230,81 L239,92 L244,100 L249,105 L262,130 L265,135 L272,152 L276,162 L282,185 L286,208 L289,245 L291,254 L291,258 L293,258 L296,269 L301,274 L308,280 L308,282 L310,282 L315,287 L315,289 L318,289 L323,294 L332,300 L333,302 L342,307 L350,314 L356,317 L364,322 L365,324 L371,327 L380,333 L386,336 L387,338 L396,343 L410,354 L413,355 L413,357 L416,357 L421,362 L425,365 L425,367 L429,369 L437,376 L443,381 L443,383 L446,384 L446,386 L449,387 L453,393 L453,395 L455,395 L456,399 L458,399 L460,405 L462,405 L470,418 L471,425 L473,425 L476,437 L478,443 L479,450 L480,451 L480,475 L476,500 L473,510 L470,517 L468,517 L467,522 L463,528 L461,528 L460,533 L457,538 L454,540 L453,543 L442,552 L437,556 L435,556 L433,560 L423,566 L409,574 L400,577 L387,582 L370,585 L363,586 L348,588 L340,593 L336,597 L327,595 L324,595 L325,590 L330,587 L333,583 L335,583 L337,578 L343,574 L349,565 L352,562 L359,548 L364,536 L366,530 L368,514 L369,512 L369,494 L367,487 L367,475 L365,475 L362,464 L361,459 L359,459 L355,450 L352,445 L352,442 L349,441 L348,436 L346,436 L347,471 L346,484 L345,488 L344,505 L343,507 L342,519 L340,528 L338,534 L337,539 L335,539 L335,548 L332,556 L327,570 L325,570 L324,576 L316,592 L308,606 L303,611 L295,621 L286,628 L278,634 L271,637 L262,640 L256,641 L234,641 L215,636 L199,628 L186,620 L181,616 L179,613 L170,615 L165,617 L158,618 L126,618 L105,613 L84,605 L77,603 L53,600 L36,594 L27,590 L18,585 L6,577 L6,575 L2,573 L-3,567 L-5,558 L-6,551 L-8,543 L-8,535 L-3,535 L-2,538 L3,543 L4,546 L8,548 L17,555 L28,560 L37,562 L54,563 L75,556 L81,553 L91,545 L87,544 L74,546 L61,545 L52,542 L39,537 L29,530 L21,522 L17,514 L14,509 L14,506 L19,507 L24,511 L41,519 L44,521 L52,523 L67,524 L73,521 L75,517 L73,506 L74,497 L77,496 L76,489 L76,476 L77,475 L78,468 L85,465 L105,456 L116,450 L127,442 L138,434 L145,428 L147,428 L149,424 L160,414 L171,397 L174,393 L187,390 L203,385 L219,377 L230,369 L237,361 L243,352 L245,333 L244,314 L244,304 L233,302 L233,304 L221,308 L208,312 L206,312 L207,308 L209,307 L210,303 L193,297 L182,291 L172,284 L170,283 L170,281 L165,279 L155,270 L148,264 L140,253 L131,242 L126,236 L126,234 L123,233 L116,225 L111,219 L111,217 L109,217 L106,212 L106,210 L104,210 L100,204 L93,195 L84,176 L79,163 L74,140 L73,130 L66,110 L64,101 L55,99 L45,100 L40,101 L38,106 L36,129 L32,153 L27,167 L22,178 L17,185 L13,192 L9,197 L4,202 L-8,213 L-23,223 L-39,231 L-51,237 L-67,243 L-88,250 L-101,253 L-118,256 L-135,257 L-140,260 L-150,267 L-156,272 L-158,272 L-159,275 L-162,278 L-167,288 L-171,289 L-174,289 L-175,291 L-177,291 L-178,295 L-180,295 L-182,301 L-184,301 L-186,306 L-192,317 L-198,333 L-201,346 L-201,350 L-199,350 L-193,357 L-184,364 L-181,365 L-181,367 L-177,369 L-167,374 L-162,376 L-161,380 L-159,380 L-155,389 L-145,403 L-137,415 L-135,419 L-132,420 L-123,431 L-112,441 L-102,446 L-85,453 L-83,456 L-81,470 L-80,487 L-77,506 L-75,524 L-73,530 L-71,542 L-72,546 L-72,559 L-74,570 L-80,578 L-84,582 L-88,587 L-94,591 L-95,594 L-93,594 L-88,599 L-75,608 L-60,616 L-49,619 L-39,623 L-35,625 L-35,628 L-51,626 L-61,622 L-68,623 L-79,626 L-93,626 L-107,624 L-123,619 L-133,614 L-142,608 L-136,616 L-129,622 L-118,627 L-94,632 L-90,633 L-90,636 L-100,638 L-113,637 L-117,636 L-137,634 L-150,630 L-163,623 L-167,621 L-173,624 L-194,629 L-220,630 L-231,627 L-242,624 L-252,616 L-257,611 L-267,608 L-269,606 L-276,606 L-285,604 L-292,599 L-299,599 L-316,593 L-324,588 L-333,583 L-341,575 L-350,564 L-358,549 L-362,540 L-365,519 L-365,509 L-362,491 L-358,477 L-350,461 L-347,455 L-360,470 L-372,485 L-381,504 L-386,519 L-388,536 L-388,553 L-385,566 L-380,576 L-380,578 L-378,578 L-373,584 L-362,592 L-352,596 L-347,598 L-342,601 L-343,605 L-354,606 L-363,604 L-371,600 L-374,597 L-384,593 L-401,584 L-410,576 L-417,570 L-424,561 L-424,559 L-426,559 L-433,545 L-438,533 L-441,518 L-442,516 L-443,495 L-442,478 L-440,468 L-438,462 L-435,451 L-431,443 L-428,435 L-420,423 L-417,418 L-403,403 L-393,395 L-386,387 L-377,378 L-372,373 L-364,364 L-359,359 L-347,346 L-341,338 L-339,338 L-337,334 L-331,326 L-326,321 L-319,313 L-311,303 L-309,303 L-307,299 L-299,290 L-292,282 L-283,271 L-274,260 L-267,251 L-259,241 L-253,233 L-242,218 L-234,207 L-232,207 L-230,202 L-224,194 L-220,187 L-212,176 L-198,156 L-186,139 L-176,127 L-166,113 L-157,103 L-150,95 L-134,78 L-124,70 L-111,58 L-106,54 L-101,51 L-88,42 L-61,28 L-31,18 L-21,16 L-13,14 L11,11 L27,11 L21,10 L-2,10 L-23,12 L-40,17 L-52,21 L-73,31 L-80,34 L-97,44 L-107,51 L-117,60 L-128,71 L-136,77 L-143,85 L-154,98 L-159,103 L-163,108 L-168,113 L-177,123 L-184,131 L-193,142 L-198,147 L-211,164 L-220,176 L-226,184 L-236,198 L-244,209 L-249,214 L-260,228 L-269,239 L-274,244 L-288,258 L-292,261 L-294,261 L-296,265 L-307,276 L-317,283 L-327,292 L-341,301 L-347,304 L-354,309 L-358,311 L-372,319 L-381,324 L-390,329 L-400,335 L-414,344 L-422,350 L-432,358 L-438,362 L-448,372 L-452,376 L-459,384 L-465,392 L-475,406 L-478,413 L-481,418 L-483,423 L-489,441 L-492,455 L-493,465 L-493,477 L-490,504 L-490,515 L-488,515 L-484,528 L-481,533 L-474,546 L-470,551 L-463,564 L-459,568 L-459,571 L-465,570 L-474,562 L-482,552 L-486,547 L-490,546 L-492,537 L-493,529 L-495,529 L-500,513 L-501,505 L-502,504 L-504,483 L-504,468 L-503,452 L-503,435 L-501,418 L-499,406 L-494,390 L-490,379 L-484,369 L-474,355 L-465,346 L-458,338 L-450,332 L-443,326 L-435,320 L-429,316 L-424,313 L-416,307 L-411,305 L-401,299 L-394,295 L-389,293 L-377,287 L-367,282 L-361,280 L-352,276 L-342,271 L-332,267 L-322,261 L-316,258 L-303,248 L-286,236 L-274,225 L-268,217 L-267,215 L-262,214 L-248,196 L-241,187 L-231,174 L-221,160 L-213,149 L-211,149 L-209,144 L-202,135 L-200,135 L-198,131 L-187,118 L-178,108 L-169,97 L-165,92 L-160,87 L-154,80 L-149,76 L-142,68 L-136,61 L-128,54 L-121,47 L-115,43 L-104,35 L-80,21 L-69,16 L-54,10 L-42,6 L-27,3 L-17,1 Z M34,11 L35,13 L43,13 L41,11 Z M45,13 Z M51,14 Z M56,16 Z M68,21 L70,23 L70,21 Z M140,32 Z M142,33 L147,37 L158,44 L167,49 L176,55 L185,62 L193,68 L205,81 L211,88 L216,93 L225,105 L233,116 L239,125 L249,144 L252,149 L258,162 L273,205 L276,209 L275,196 L273,191 L273,187 L271,187 L272,182 L270,182 L271,179 L270,175 L268,167 L266,167 L264,158 L257,139 L249,123 L243,112 L241,112 L239,107 L227,91 L218,81 L211,73 L201,63 L189,54 L174,45 L160,38 L145,33 Z M30,104 L21,108 L14,119 L9,133 L-3,157 L-6,160 L-6,162 L-8,162 L-13,171 L-18,176 L-20,180 L-24,181 L-29,188 L-33,191 L-33,193 L-37,195 L-54,209 L-62,215 L-68,219 L-73,223 L-80,227 L-87,231 L-97,236 L-106,241 L-114,244 L-111,245 L-95,241 L-87,239 L-72,234 L-54,227 L-47,224 L-33,217 L-26,212 L-21,209 L-14,205 L-9,200 L0,192 L3,187 L5,186 L5,184 L8,183 L17,168 L25,145 L30,122 L32,104 Z M7,115 L-1,121 L-14,132 L-19,140 L-29,155 L-34,161 L-38,168 L-47,179 L-54,186 L-63,197 L-69,202 L-74,207 L-84,215 L-89,220 L-83,218 L-75,212 L-66,206 L-61,203 L-49,192 L-33,179 L-30,177 L-29,174 L-24,169 L-20,164 L-14,159 L-11,153 L-2,139 L8,117 L9,115 Z M74,115 Z M75,117 Z M76,119 L77,121 Z M77,121 L79,134 L82,147 L84,158 L90,176 L98,189 L106,203 L110,207 L112,207 L114,211 L116,213 L115,208 L111,199 L107,185 L105,185 L103,176 L97,160 L91,150 L88,142 L83,129 L78,121 Z M-75,194 Z M-77,195 Z M-78,196 Z M-79,197 Z M-80,198 Z M-81,199 Z M-83,200 L-93,207 L-101,211 L-106,215 L-119,223 L-126,227 L-132,231 L-128,232 L-118,226 L-110,222 L-99,215 L-87,206 L-81,201 Z M120,200 Z M121,202 L121,204 L123,203 Z M123,204 L124,209 L131,225 L139,238 L149,251 L158,262 L166,269 L174,276 L179,278 L179,280 L192,288 L194,287 L181,278 L176,272 L168,265 L159,254 L156,249 L150,242 L137,223 L130,213 L124,204 Z M276,210 L277,212 Z M116,213 Z M-91,220 L-92,222 L-89,221 Z M-93,222 Z M-94,223 Z M-97,224 Z M-98,225 Z M-99,226 Z M-101,227 Z M-104,229 Z M-134,232 Z M-136,233 Z M-137,234 Z M-139,235 Z M-141,236 Z M-115,245 Z M-118,246 Z M194,288 Z M304,288 Z M196,289 Z M200,290 Z M306,290 L308,297 L310,297 L311,303 L313,303 L314,309 L317,311 L319,316 L321,316 L322,321 L326,326 L328,330 L330,330 L331,334 L333,338 L335,339 L336,342 L338,342 L340,346 L347,356 L352,361 L358,370 L360,370 L362,375 L364,375 L365,379 L371,384 L373,388 L375,388 L377,392 L386,406 L388,406 L389,410 L391,410 L393,416 L402,433 L407,445 L411,470 L411,481 L408,500 L407,507 L405,512 L405,516 L403,516 L399,527 L396,532 L396,534 L394,534 L390,544 L380,557 L380,559 L378,559 L376,563 L370,568 L363,577 L359,580 L368,578 L374,575 L382,573 L395,568 L402,565 L406,564 L406,562 L415,559 L415,557 L423,555 L428,550 L440,541 L440,539 L444,537 L453,526 L459,516 L459,514 L461,514 L466,501 L467,499 L467,493 L469,493 L471,467 L471,456 L470,447 L463,426 L456,411 L454,411 L453,407 L450,406 L448,401 L438,388 L434,384 L432,384 L431,381 L429,381 L428,378 L426,378 L424,374 L421,374 L420,371 L416,370 L416,368 L411,366 L411,364 L409,364 L409,362 L406,362 L405,359 L396,353 L394,353 L394,351 L391,350 L390,348 L385,345 L377,340 L375,340 L374,337 L369,334 L356,326 L351,323 L348,320 L343,319 L341,315 L332,309 L321,301 L319,301 L319,299 L315,298 L315,296 Z M202,291 Z M205,292 Z M207,293 Z M210,294 L214,295 Z M-342,447 Z M-343,448 Z M-344,449 L-343,451 Z M-345,451 L-345,454 Z M358,580 Z M-287,589 L-289,591 L-284,593 L-285,589 Z M-284,593 Z M-283,594 Z M259,599 Z M257,600 Z M254,601 L246,604 L232,607 L217,608 L215,610 L224,611 L234,611 L249,606 L257,602 Z M-144,606 Z M210,608 L214,609 Z " fill="#000000" transform="translate(1184,441)"/>
</svg>
