<?xml version="1.0" encoding="UTF-8"?>
<svg version="1.1" xmlns="http://www.w3.org/2000/svg" width="2500" height="3686">
<path d="M0,0 L11,0 L32,2 L48,6 L48,8 L54,9 L63,13 L66,16 L73,20 L72,23 L71,21 L68,21 L68,23 L73,25 L78,29 L84,37 L91,31 L94,28 L102,25 L111,25 L112,22 L124,22 L144,25 L168,33 L179,38 L187,42 L198,50 L208,59 L224,74 L229,79 L242,96 L245,101 L250,106 L261,127 L262,132 L264,132 L273,154 L277,164 L284,192 L287,211 L288,212 L291,250 L293,259 L293,263 L295,263 L298,275 L303,280 L305,284 L307,284 L307,286 L309,286 L309,288 L311,288 L317,295 L319,295 L324,300 L325,303 L329,304 L329,306 L332,307 L333,309 L337,311 L341,315 L343,316 L343,318 L347,320 L351,324 L355,327 L355,329 L359,331 L364,336 L370,343 L374,345 L381,354 L386,359 L396,372 L396,374 L398,374 L409,391 L414,400 L414,402 L416,402 L424,416 L434,439 L439,450 L445,471 L448,488 L449,489 L450,500 L450,517 L449,533 L444,549 L442,554 L440,554 L438,561 L430,571 L416,583 L409,587 L395,594 L382,598 L375,600 L358,602 L342,604 L337,608 L334,612 L329,610 L323,609 L325,605 L330,600 L336,593 L341,588 L347,579 L354,558 L355,553 L356,538 L356,525 L351,496 L347,483 L338,459 L336,455 L336,493 L335,510 L334,527 L332,548 L330,557 L328,570 L321,591 L317,602 L307,620 L300,629 L293,637 L287,642 L279,648 L272,651 L261,655 L257,656 L236,656 L217,651 L195,639 L185,631 L183,628 L177,629 L168,632 L157,634 L130,634 L113,630 L90,622 L86,620 L57,617 L40,612 L28,607 L16,600 L4,591 L-1,585 L-3,576 L-4,569 L-6,561 L-5,559 L-5,553 L-1,552 L0,556 L5,561 L6,564 L10,566 L12,567 L12,569 L17,571 L31,577 L41,579 L59,579 L73,575 L87,568 L96,561 L97,556 L88,559 L80,560 L67,559 L46,553 L35,546 L28,540 L19,526 L18,521 L22,522 L36,530 L49,536 L65,539 L76,537 L80,534 L81,527 L79,519 L80,510 L83,509 L82,502 L82,489 L83,488 L84,481 L104,472 L122,462 L125,461 L125,459 L136,452 L147,443 L150,440 L152,440 L154,436 L163,427 L174,410 L178,405 L193,401 L213,393 L223,387 L233,379 L243,366 L245,362 L247,342 L247,312 L235,310 L235,312 L221,317 L210,321 L208,321 L210,317 L213,311 L203,308 L194,305 L184,300 L174,293 L172,292 L172,290 L167,288 L162,284 L155,276 L150,272 L142,261 L133,250 L123,237 L118,232 L113,226 L113,224 L111,224 L101,210 L95,201 L86,182 L81,170 L76,149 L73,130 L67,113 L65,104 L56,102 L45,103 L41,104 L39,103 L37,124 L32,158 L26,175 L22,185 L17,192 L13,199 L9,204 L7,206 L6,208 L4,208 L3,211 L-4,217 L-9,222 L-23,231 L-32,237 L-43,242 L-51,246 L-61,250 L-75,255 L-88,259 L-101,262 L-118,265 L-127,265 L-139,267 L-143,271 L-148,274 L-153,277 L-157,281 L-159,281 L-160,284 L-162,285 L-167,297 L-171,299 L-175,299 L-176,301 L-178,301 L-179,305 L-181,305 L-183,311 L-185,311 L-187,317 L-189,317 L-190,322 L-194,331 L-198,341 L-202,356 L-202,361 L-194,370 L-185,377 L-185,379 L-182,379 L-182,381 L-178,382 L-178,384 L-172,386 L-163,390 L-162,394 L-160,394 L-156,404 L-151,412 L-151,414 L-149,414 L-149,417 L-147,417 L-139,430 L-128,443 L-121,451 L-113,458 L-103,463 L-86,470 L-84,473 L-82,494 L-82,505 L-79,524 L-77,543 L-75,550 L-74,560 L-73,563 L-74,567 L-74,581 L-78,594 L-83,600 L-85,600 L-87,604 L-92,610 L-97,613 L-99,613 L-98,617 L-96,617 L-91,622 L-86,627 L-78,631 L-64,638 L-51,642 L-41,646 L-37,648 L-37,650 L-52,648 L-66,644 L-80,649 L-95,649 L-110,647 L-126,642 L-136,637 L-145,631 L-149,629 L-139,641 L-137,642 L-137,644 L-133,646 L-122,651 L-98,656 L-93,657 L-93,659 L-102,661 L-110,661 L-120,659 L-140,657 L-153,653 L-162,648 L-170,643 L-177,646 L-193,650 L-223,650 L-234,647 L-245,643 L-256,634 L-258,629 L-267,627 L-271,624 L-287,621 L-295,615 L-302,615 L-315,610 L-325,604 L-330,601 L-338,594 L-349,582 L-358,566 L-363,556 L-366,541 L-366,522 L-363,504 L-357,487 L-348,470 L-341,459 L-344,462 L-353,473 L-363,484 L-375,500 L-383,516 L-388,530 L-391,548 L-391,565 L-388,579 L-383,589 L-383,591 L-381,591 L-374,599 L-365,606 L-355,611 L-350,613 L-345,616 L-345,619 L-356,620 L-365,617 L-373,613 L-377,609 L-386,605 L-394,601 L-399,597 L-404,594 L-419,580 L-426,571 L-434,557 L-439,542 L-442,526 L-442,505 L-438,485 L-430,466 L-421,449 L-413,438 L-404,428 L-397,420 L-388,412 L-379,401 L-369,391 L-360,380 L-348,365 L-336,348 L-322,329 L-312,316 L-300,300 L-292,290 L-284,280 L-271,262 L-263,252 L-255,241 L-246,229 L-232,210 L-218,190 L-206,172 L-196,158 L-192,151 L-179,134 L-171,124 L-162,112 L-155,103 L-150,98 L-134,81 L-121,69 L-110,59 L-101,53 L-87,43 L-73,35 L-56,27 L-43,23 L-30,19 L-13,15 L7,12 L16,11 L34,11 L35,12 L52,14 L34,10 L21,9 L-2,9 L-22,12 L-38,16 L-53,21 L-74,31 L-79,33 L-98,45 L-103,49 L-108,52 L-118,61 L-130,73 L-137,79 L-144,87 L-155,100 L-160,105 L-172,119 L-181,130 L-186,135 L-200,152 L-212,168 L-226,187 L-240,206 L-254,224 L-267,240 L-276,251 L-281,255 L-286,261 L-294,268 L-301,276 L-309,284 L-317,291 L-322,296 L-334,307 L-340,311 L-358,325 L-378,340 L-392,351 L-408,364 L-420,375 L-430,384 L-437,391 L-444,399 L-457,415 L-459,415 L-461,419 L-473,438 L-484,461 L-488,474 L-489,483 L-489,522 L-484,538 L-476,554 L-465,574 L-462,577 L-462,579 L-467,578 L-476,569 L-484,559 L-488,552 L-491,552 L-493,543 L-499,520 L-500,512 L-500,491 L-497,473 L-493,452 L-487,429 L-481,413 L-472,394 L-464,382 L-456,373 L-447,362 L-429,344 L-421,337 L-408,326 L-388,311 L-371,299 L-352,287 L-337,278 L-323,270 L-311,261 L-295,248 L-281,237 L-273,229 L-268,221 L-264,221 L-252,206 L-238,187 L-225,169 L-216,157 L-206,144 L-193,128 L-183,117 L-174,106 L-163,93 L-161,93 L-159,89 L-149,78 L-142,70 L-136,63 L-128,56 L-121,49 L-107,38 L-87,26 L-73,18 L-60,13 L-42,6 L-35,5 L-17,1 Z M55,15 L55,17 L58,16 Z M59,17 Z M62,18 Z M64,19 Z M66,20 Z M135,30 Z M138,31 Z M141,31 L140,33 L155,42 L171,53 L180,58 L193,69 L206,82 L212,89 L217,94 L227,108 L228,110 L230,110 L232,115 L235,120 L237,120 L239,125 L250,146 L252,150 L254,150 L257,160 L269,194 L276,213 L278,213 L277,199 L276,194 L274,194 L275,189 L273,189 L274,184 L273,181 L271,181 L272,177 L270,169 L268,169 L266,159 L259,140 L257,140 L256,135 L246,114 L239,105 L230,92 L228,92 L226,88 L215,75 L207,68 L196,58 L182,48 L161,37 L143,31 Z M32,106 L25,109 L20,112 L13,126 L7,142 L-3,162 L-6,166 L-6,168 L-8,168 L-14,178 L-21,186 L-26,191 L-31,196 L-33,200 L-37,202 L-47,210 L-52,215 L-56,219 L-61,222 L-65,225 L-73,231 L-80,235 L-93,243 L-105,249 L-118,255 L-117,257 L-101,253 L-90,250 L-81,247 L-72,244 L-57,238 L-48,234 L-39,230 L-27,223 L-16,215 L-11,212 L-6,206 L1,200 L4,195 L9,190 L17,176 L21,166 L26,151 L31,127 L33,106 Z M72,113 Z M73,115 L76,125 L79,135 L82,152 L87,171 L93,186 L101,200 L107,210 L112,215 L113,217 L115,217 L117,222 L118,224 L120,223 L116,211 L114,211 L112,201 L109,191 L107,191 L105,182 L99,165 L93,155 L91,153 L88,143 L80,125 L74,115 Z M10,117 Z M9,118 L4,121 L-4,127 L-16,138 L-21,148 L-29,160 L-34,167 L-38,174 L-47,185 L-55,195 L-58,198 L-65,206 L-70,211 L-81,221 L-92,229 L-102,236 L-100,237 L-89,231 L-83,227 L-72,220 L-65,214 L-60,211 L-53,205 L-48,200 L-35,189 L-29,184 L-26,179 L-15,167 L-15,165 L-13,165 L-10,159 L-1,145 L2,137 L9,122 L10,118 Z M-64,191 Z M-65,192 L-64,194 Z M-66,194 Z M-68,195 Z M-69,196 L-74,201 L-79,204 L-90,212 L-101,219 L-106,223 L-114,227 L-120,231 L-127,235 L-136,241 L-143,245 L-140,246 L-132,242 L-125,239 L-110,231 L-99,224 L-94,220 L-85,213 L-75,204 L-68,198 Z M120,204 Z M121,206 L122,211 L124,211 L125,216 L132,233 L140,246 L147,256 L156,267 L161,272 L172,283 L187,293 L195,298 L211,304 L216,304 L216,302 L206,299 L196,295 L183,286 L178,280 L170,273 L161,262 L158,257 L150,247 L143,236 L133,221 L126,210 L124,210 L122,206 Z M278,213 L279,216 Z M-104,237 L-105,239 L-102,238 Z M-108,239 Z M-110,240 Z M-111,241 Z M-113,242 Z M-145,246 Z M-122,256 Z M305,292 L305,295 L307,295 L309,304 L311,304 L312,310 L314,310 L316,318 L318,318 L319,324 L321,324 L322,329 L323,332 L325,332 L326,337 L327,340 L329,340 L330,345 L331,348 L333,348 L336,357 L341,367 L342,370 L344,371 L348,380 L353,392 L359,403 L366,419 L375,443 L381,463 L384,472 L389,503 L389,513 L387,535 L382,552 L378,561 L375,568 L365,583 L355,595 L351,598 L357,598 L371,593 L394,585 L408,578 L408,576 L413,574 L426,563 L431,556 L438,542 L442,528 L442,493 L441,485 L439,479 L432,453 L428,442 L420,426 L409,403 L402,394 L392,378 L379,362 L372,354 L363,344 L355,337 L348,329 L344,327 L341,323 L339,323 L339,321 L334,319 L332,315 L321,306 L314,300 L309,295 Z M-336,450 Z M-337,451 Z M-338,453 Z M-339,454 L-339,457 Z M350,598 Z M-295,605 Z M-288,605 L-294,606 L-289,611 L-283,614 L-285,610 L-287,605 Z M265,612 Z M260,613 L248,618 L235,621 L217,623 L211,623 L213,625 L218,626 L237,626 L252,621 L262,615 L265,613 Z M-283,614 Z M-282,615 Z M-151,626 Z " fill="#000000" transform="translate(1185,446)"/>
</svg>
