<?xml version="1.0" encoding="UTF-8"?>
<svg version="1.1" xmlns="http://www.w3.org/2000/svg" width="2500" height="3686">
<path d="M0,0 L19,0 L23,1 L23,4 L12,6 L28,40 L39,66 L44,83 L46,84 L46,88 L54,93 L64,106 L73,121 L82,140 L93,173 L101,205 L109,244 L113,271 L115,292 L116,310 L116,371 L114,413 L110,451 L108,472 L105,493 L103,512 L101,525 L99,544 L97,556 L95,574 L90,608 L88,620 L86,637 L83,656 L81,670 L78,687 L76,702 L71,729 L69,745 L64,770 L61,789 L55,818 L52,837 L41,890 L38,907 L27,957 L22,983 L14,1018 L3,1079 L-3,1108 L-6,1128 L-8,1140 L-11,1164 L-13,1178 L-16,1209 L-19,1240 L-23,1266 L-28,1285 L-33,1297 L-39,1314 L-45,1327 L-50,1337 L-56,1344 L-58,1344 L-59,1347 L-68,1353 L-68,1368 L-70,1397 L-71,1405 L-74,1407 L-86,1408 L-139,1408 L-150,1407 L-161,1407 L-197,1404 L-208,1402 L-221,1401 L-223,1394 L-226,1378 L-225,1361 L-224,1355 L-226,1350 L-234,1341 L-243,1324 L-250,1307 L-255,1286 L-257,1275 L-257,1248 L-255,1226 L-253,1220 L-250,1191 L-248,1183 L-247,1157 L-247,1099 L-245,1067 L-243,1049 L-241,1032 L-235,993 L-232,969 L-230,949 L-228,939 L-226,923 L-223,883 L-220,840 L-220,827 L-217,745 L-217,664 L-219,611 L-219,596 L-223,529 L-225,486 L-225,430 L-224,408 L-224,395 L-231,417 L-238,443 L-243,461 L-249,487 L-254,512 L-260,541 L-263,555 L-266,570 L-271,591 L-274,607 L-280,633 L-283,650 L-287,670 L-292,697 L-299,738 L-304,767 L-307,791 L-312,825 L-314,846 L-318,882 L-320,904 L-323,934 L-325,958 L-328,989 L-334,1037 L-335,1052 L-339,1093 L-341,1105 L-343,1126 L-345,1140 L-348,1154 L-352,1171 L-361,1198 L-365,1207 L-371,1223 L-375,1231 L-386,1254 L-391,1263 L-401,1282 L-411,1299 L-419,1309 L-426,1317 L-431,1322 L-445,1331 L-454,1334 L-454,1358 L-458,1380 L-467,1409 L-468,1411 L-488,1411 L-531,1409 L-546,1408 L-566,1406 L-589,1403 L-600,1401 L-613,1400 L-628,1394 L-636,1390 L-637,1376 L-638,1372 L-637,1371 L-635,1354 L-627,1324 L-623,1315 L-624,1310 L-625,1300 L-626,1298 L-628,1268 L-628,1221 L-626,1197 L-622,1166 L-615,1123 L-613,1106 L-609,1079 L-607,1061 L-605,1045 L-603,1026 L-601,1007 L-597,970 L-593,932 L-592,918 L-590,900 L-589,886 L-587,867 L-586,857 L-585,820 L-584,790 L-581,737 L-577,696 L-575,666 L-573,638 L-568,595 L-566,574 L-563,546 L-560,519 L-557,493 L-556,481 L-553,455 L-550,427 L-547,404 L-545,387 L-543,369 L-540,350 L-536,326 L-533,307 L-525,273 L-522,259 L-513,229 L-501,193 L-494,175 L-486,159 L-479,148 L-474,142 L-472,120 L-468,107 L-467,102 L-471,96 L-471,91 L-469,90 L-468,87 L-436,78 L-406,72 L-389,69 L-316,55 L-233,39 L-159,26 L-79,13 L-15,2 Z M-223,388 L-222,390 Z " fill="#131415" transform="translate(1509,1763)"/>
<path d="M0,0 L4,0 L10,7 L10,11 L15,12 L18,16 L17,18 L22,16 L29,16 L32,19 L36,21 L38,23 L48,24 L54,33 L54,35 L60,36 L60,38 L64,40 L66,43 L69,44 L69,46 L76,48 L76,51 L80,52 L80,54 L84,56 L88,61 L99,69 L103,71 L107,77 L109,78 L109,80 L116,81 L121,83 L124,87 L124,90 L128,92 L129,94 L133,95 L137,100 L142,104 L145,105 L154,116 L154,118 L158,119 L163,124 L164,128 L168,127 L173,132 L173,134 L180,140 L182,145 L186,146 L193,153 L193,155 L198,156 L199,159 L201,160 L202,163 L207,166 L210,170 L210,174 L215,175 L221,180 L230,183 L233,187 L233,189 L238,190 L241,193 L241,195 L245,196 L250,201 L255,203 L255,206 L259,208 L260,209 L260,217 L257,231 L252,252 L249,266 L245,284 L241,302 L236,326 L233,338 L231,351 L226,374 L224,389 L219,415 L217,431 L211,466 L208,485 L206,511 L204,519 L201,549 L198,578 L197,601 L194,632 L192,646 L191,664 L185,711 L183,739 L182,742 L173,747 L169,750 L162,754 L155,756 L149,761 L142,765 L133,768 L123,775 L116,779 L112,783 L103,788 L94,795 L84,798 L76,803 L68,807 L59,814 L57,814 L57,816 L53,820 L47,822 L47,825 L40,828 L38,831 L33,833 L30,833 L28,837 L23,840 L15,846 L1,852 L-6,857 L-11,859 L-15,861 L-16,864 L-25,869 L-36,876 L-41,879 L-44,882 L-51,884 L-56,888 L-61,890 L-66,895 L-77,902 L-82,904 L-87,908 L-93,911 L-93,893 L-92,892 L-91,876 L-83,825 L-80,803 L-77,787 L-75,773 L-74,759 L-72,747 L-64,661 L-58,602 L-56,531 L-55,507 L-49,444 L-44,388 L-42,364 L-40,344 L-38,317 L-34,284 L-31,248 L-29,235 L-28,219 L-26,209 L-24,189 L-22,170 L-21,155 L-20,151 L-17,117 L-13,86 L-12,82 L-10,61 L-8,44 L-5,28 L-3,13 Z " fill="#9CA5A9" transform="translate(984,2074)"/>
<path d="M0,0 L3,0 L3,34 L-1,77 L-2,94 L-4,108 L-6,128 L-10,154 L-12,173 L-14,186 L-16,206 L-19,232 L-22,259 L-24,272 L-28,310 L-32,335 L-34,352 L-40,381 L-43,398 L-46,411 L-48,425 L-53,448 L-54,457 L-56,462 L-58,477 L-66,514 L-68,527 L-77,569 L-81,589 L-84,602 L-90,628 L-92,636 L-94,649 L-103,688 L-105,700 L-110,724 L-114,747 L-118,775 L-121,802 L-122,803 L-124,824 L-127,847 L-128,850 L-133,851 L-135,854 L-142,854 L-143,850 L-145,850 L-145,846 L-149,845 L-155,840 L-165,837 L-167,833 L-177,828 L-178,826 L-184,824 L-189,821 L-190,819 L-197,818 L-197,815 L-203,815 L-208,809 L-208,807 L-217,804 L-222,799 L-227,794 L-234,791 L-234,789 L-236,789 L-237,786 L-240,785 L-243,780 L-250,777 L-250,774 L-253,774 L-255,771 L-259,769 L-260,765 L-268,761 L-268,758 L-274,756 L-281,747 L-286,744 L-291,738 L-299,732 L-305,727 L-312,719 L-318,714 L-322,708 L-330,701 L-331,696 L-338,695 L-338,679 L-335,664 L-333,642 L-327,604 L-326,588 L-324,577 L-320,538 L-318,519 L-316,482 L-315,440 L-314,439 L-314,294 L-316,247 L-318,215 L-318,192 L-316,191 L-315,188 L-307,185 L-306,182 L-298,180 L-298,177 L-293,176 L-293,174 L-289,174 L-287,170 L-280,169 L-280,166 L-270,163 L-270,161 L-265,159 L-262,159 L-261,155 L-252,152 L-251,149 L-247,149 L-247,147 L-244,147 L-243,144 L-239,142 L-235,142 L-235,139 L-226,135 L-224,133 L-221,133 L-221,131 L-216,129 L-211,126 L-209,125 L-208,122 L-203,122 L-203,120 L-199,120 L-198,116 L-194,116 L-194,114 L-190,114 L-190,111 L-185,109 L-181,109 L-180,105 L-172,104 L-171,100 L-163,97 L-160,94 L-154,92 L-151,89 L-144,86 L-142,83 L-139,83 L-139,81 L-135,81 L-133,77 L-126,74 L-121,70 L-117,70 L-116,67 L-113,65 L-108,64 L-104,60 L-98,59 L-96,55 L-93,53 L-88,53 L-86,49 L-78,46 L-70,42 L-69,39 L-64,36 L-60,36 L-60,34 L-51,31 L-50,28 L-42,24 L-39,22 L-36,22 L-36,20 L-32,20 L-31,17 L-22,16 L-20,12 L-14,10 L-11,9 L-11,7 L-4,4 Z " fill="#9CA5A9" transform="translate(1613,2120)"/>
<path d="M0,0 L1,0 L1,10 L8,11 L10,16 L20,25 L23,30 L31,37 L34,40 L34,42 L38,44 L46,51 L53,57 L53,59 L58,61 L64,68 L66,71 L71,73 L72,76 L80,80 L81,84 L86,87 L86,89 L89,89 L90,92 L97,95 L99,97 L99,100 L103,101 L103,104 L105,104 L106,106 L113,109 L121,116 L123,119 L131,122 L136,128 L136,130 L142,130 L142,133 L149,133 L150,136 L155,138 L162,141 L162,143 L166,144 L173,148 L174,152 L179,153 L185,155 L191,160 L194,161 L194,165 L196,165 L197,169 L204,169 L206,165 L209,164 L211,165 L212,162 L210,178 L205,220 L202,236 L195,257 L184,285 L176,298 L171,303 L169,305 L152,307 L127,313 L95,317 L80,318 L62,318 L44,316 L28,312 L16,309 L16,306 L12,307 L5,297 L-5,275 L-10,260 L-13,248 L-15,234 L-15,208 L-10,173 L-6,146 L-5,136 L-4,112 L-4,68 L-2,33 L-1,24 Z " fill="#1E1F20" transform="translate(1274,2805)"/>
<path d="M0,0 L1,0 L0,16 L-6,66 L-12,101 L-16,115 L-18,122 L-29,156 L-34,166 L-41,184 L-49,200 L-65,230 L-76,247 L-83,256 L-89,263 L-101,272 L-113,278 L-116,279 L-166,271 L-211,264 L-232,260 L-253,257 L-275,255 L-275,193 L-274,158 L-273,158 L-272,168 L-267,165 L-261,160 L-254,157 L-247,153 L-242,148 L-240,146 L-233,143 L-230,140 L-223,138 L-219,134 L-213,131 L-199,122 L-196,121 L-191,116 L-185,113 L-175,107 L-165,103 L-157,97 L-152,94 L-150,91 L-142,88 L-139,84 L-133,83 L-133,80 L-127,77 L-125,74 L-123,74 L-123,72 L-112,64 L-97,56 L-91,53 L-85,51 L-74,43 L-67,39 L-65,39 L-63,35 L-54,30 L-47,25 L-36,21 L-25,13 L-17,10 L-8,5 Z " fill="#1E2021" transform="translate(1164,2816)"/>
<path d="M0,0 L20,4 L48,10 L78,15 L100,18 L111,20 L136,22 L155,23 L153,41 L149,63 L145,84 L143,94 L124,90 L58,86 L-3,79 L-14,77 L-15,76 L-15,68 L-7,19 L-5,6 L-4,4 L0,6 L3,9 L3,11 L7,12 L4,7 L0,2 Z " fill="#212121" transform="translate(895,3075)"/>
<path d="M0,0 L1,2 L0,4 L2,5 L0,23 L-1,51 L-18,51 L-31,52 L-94,52 L-122,50 L-138,48 L-144,48 L-145,45 L-145,30 L-146,5 L-146,2 L-135,5 L-121,9 L-107,12 L-98,13 L-84,13 L-65,12 L-53,10 L-38,8 L-27,6 L-11,2 Z " fill="#1C1C1C" transform="translate(1435,3113)"/>
<path d="M0,0 L17,3 L19,4 L18,12 L15,25 L13,38 L8,59 L2,77 L0,79 L-14,77 L-15,76 L-15,68 L-7,19 L-5,6 L-4,4 L0,6 L3,9 L3,11 L7,12 L4,7 L0,2 Z " fill="#292929" transform="translate(895,3075)"/>
<path d="M0,0 L1,0 L1,10 L8,11 L10,16 L20,25 L23,30 L31,37 L34,40 L34,42 L38,44 L46,51 L53,57 L53,59 L58,61 L64,68 L66,71 L71,73 L72,76 L80,80 L81,84 L86,87 L86,89 L89,89 L90,92 L97,95 L99,97 L99,100 L103,101 L103,104 L105,104 L106,106 L113,109 L121,116 L123,119 L131,122 L133,126 L129,126 L129,124 L122,123 L112,118 L112,116 L108,114 L101,108 L99,105 L96,104 L96,102 L94,102 L90,98 L85,95 L76,84 L76,82 L72,80 L69,77 L68,74 L63,71 L55,65 L49,58 L49,56 L44,55 L37,49 L32,45 L30,39 L23,35 L18,30 L12,28 L8,22 L4,18 L4,15 L0,13 Z " fill="#404446" transform="translate(1274,2805)"/>
<path d="M0,0 L4,2 L8,6 L12,9 L13,13 L20,19 L20,17 L16,15 L16,13 L21,15 L23,15 L29,14 L29,17 L32,17 L34,21 L40,26 L42,23 L46,23 L46,26 L49,26 L52,31 L58,38 L64,42 L64,44 L68,46 L71,47 L71,49 L76,50 L84,57 L85,61 L88,61 L88,64 L91,63 L94,67 L97,68 L97,71 L100,71 L100,74 L104,74 L104,76 L109,77 L109,80 L116,79 L114,80 L115,82 L120,82 L121,87 L123,87 L124,90 L128,94 L136,96 L142,100 L140,106 L146,108 L146,106 L152,108 L152,110 L150,110 L152,116 L154,116 L154,118 L158,120 L160,124 L161,126 L157,124 L153,122 L147,114 L147,112 L144,111 L144,109 L140,108 L132,101 L132,99 L127,98 L123,94 L119,87 L108,84 L108,82 L105,81 L102,77 L102,75 L98,74 L85,64 L81,59 L78,56 L75,55 L75,52 L70,51 L68,50 L68,48 L64,47 L59,42 L59,40 L53,39 L47,29 L37,28 L31,23 L31,28 L30,28 L28,20 L16,22 L15,18 L13,16 L9,15 L7,10 L3,6 L3,4 L-1,3 Z " fill="#3E4243" transform="translate(985,2070)"/>
<path d="M0,0 L14,0 L11,2 L5,4 L-16,8 L-22,10 L-33,12 L-48,14 L-56,15 L-75,16 L-89,16 L-103,14 L-120,10 L-131,6 L-131,5 L-118,6 L-108,9 L-90,11 L-72,11 L-50,9 L-25,6 Z " fill="#040404" transform="translate(1426,3111)"/>
<path d="M0,0 L4,1 L-1,4 L-3,4 L-3,7 L-10,10 L-12,13 L-17,15 L-20,15 L-22,19 L-27,22 L-35,28 L-49,34 L-56,39 L-61,41 L-65,43 L-66,46 L-75,51 L-86,58 L-91,61 L-94,64 L-101,66 L-106,70 L-111,72 L-116,77 L-127,84 L-131,83 L-126,78 L-119,74 L-117,72 L-112,70 L-103,65 L-101,62 L-90,57 L-88,57 L-87,53 L-77,48 L-70,43 L-63,40 L-61,37 L-56,34 L-42,26 L-41,24 L-32,19 L-21,14 L-11,6 L-1,1 Z " fill="#6E7477" transform="translate(1034,2892)"/>
<path d="M0,0 L3,1 L-3,6 L-10,9 L-11,11 L-15,11 L-15,13 L-18,13 L-20,17 L-29,20 L-30,23 L-38,25 L-39,28 L-47,31 L-48,34 L-56,36 L-57,39 L-66,41 L-66,44 L-70,44 L-70,46 L-74,47 L-75,50 L-79,50 L-79,52 L-84,52 L-85,56 L-91,59 L-93,61 L-97,61 L-97,63 L-102,66 L-111,69 L-111,72 L-119,75 L-120,77 L-123,77 L-123,79 L-127,78 L-120,72 L-116,70 L-113,70 L-112,67 L-108,65 L-104,65 L-103,61 L-98,59 L-95,58 L-93,55 L-86,54 L-85,51 L-79,49 L-78,47 L-74,44 L-68,43 L-67,40 L-61,37 L-58,37 L-58,34 L-49,30 L-43,26 L-40,26 L-39,23 L-34,21 L-31,21 L-30,17 L-22,14 L-19,11 L-16,11 L-15,9 L-12,9 L-11,6 L-3,2 Z " fill="#3B3E40" transform="translate(1489,2190)"/>
<path d="M0,0 L6,0 L6,3 L13,3 L14,6 L19,8 L26,11 L26,13 L30,14 L37,18 L38,22 L43,23 L49,25 L55,30 L58,31 L58,35 L60,35 L61,39 L68,39 L70,35 L73,34 L75,35 L76,32 L75,38 L69,40 L65,43 L57,42 L54,38 L53,33 L47,31 L41,27 L36,26 L33,19 L29,16 L17,14 L16,10 L12,10 L12,6 L6,6 L2,2 Z " fill="#555A5C" transform="translate(1410,2935)"/>
<path d="M0,0 L5,3 L9,7 L21,14 L22,17 L26,19 L25,22 L22,21 L26,25 L32,28 L37,33 L43,41 L47,46 L49,47 L50,45 L52,47 L50,50 L54,47 L56,48 L55,51 L60,50 L63,55 L65,56 L65,58 L70,59 L73,64 L78,66 L79,70 L75,68 L72,67 L68,62 L64,61 L60,55 L50,52 L45,47 L41,46 L38,39 L32,35 L32,32 L29,31 L29,28 L24,27 L17,19 L13,17 L7,9 L3,6 L4,4 L0,2 Z " fill="#3B3F40" transform="translate(1153,2202)"/>
<path d="M0,0 L4,2 L4,5 L8,6 L8,9 L14,11 L25,19 L32,23 L33,25 L36,26 L40,31 L45,33 L48,35 L48,37 L54,37 L59,39 L59,42 L66,43 L69,46 L70,48 L75,49 L75,51 L78,51 L80,57 L90,59 L90,61 L94,62 L95,66 L90,63 L88,61 L78,58 L76,54 L66,49 L65,47 L59,45 L54,42 L53,40 L46,39 L46,36 L40,36 L35,30 L35,28 L26,25 L21,20 L16,15 L9,12 L9,10 L7,10 L6,7 L3,6 Z " fill="#848C8F" transform="translate(1370,2899)"/>
<path d="M0,0 L7,2 L9,7 L14,10 L14,12 L17,12 L18,15 L25,18 L27,20 L27,23 L31,24 L31,27 L33,27 L34,29 L41,32 L49,39 L51,42 L59,45 L61,49 L57,49 L57,47 L50,46 L40,41 L36,32 L31,29 L25,26 L22,21 L13,15 L6,7 L5,4 L0,1 Z " fill="#5C6264" transform="translate(1346,2882)"/>
<path d="M0,0 L2,2 L2,20 L1,20 L1,5 L-4,6 L-6,10 L-10,12 L-13,12 L-13,14 L-17,17 L-23,19 L-24,21 L-33,23 L-34,25 L-38,25 L-38,27 L-44,30 L-50,33 L-52,33 L-53,37 L-62,39 L-62,41 L-64,41 L-63,37 L-58,35 L-54,35 L-53,31 L-48,29 L-45,28 L-43,25 L-39,25 L-38,23 L-35,23 L-34,20 L-27,17 L-24,14 L-18,12 L-13,8 L-7,5 Z " fill="#393C3D" transform="translate(1615,2115)"/>
<path d="M0,0 L5,0 L0,5 L-7,9 L-14,11 L-20,16 L-27,20 L-36,23 L-46,30 L-53,34 L-57,38 L-66,43 L-75,50 L-83,52 L-80,48 L-73,44 L-61,37 L-58,36 L-57,33 L-51,29 L-44,26 L-37,21 L-25,16 L-24,13 L-14,8 L-5,3 Z " fill="#72787B" transform="translate(1153,2819)"/>
<path d="M0,0 L10,6 L17,15 L22,17 L25,23 L29,25 L33,32 L40,38 L46,42 L48,47 L53,48 L56,51 L61,54 L63,60 L59,58 L52,52 L50,49 L47,48 L47,46 L45,46 L41,42 L36,39 L27,28 L27,26 L23,24 L20,21 L19,18 L14,15 L6,9 L0,2 Z " fill="#3F4345" transform="translate(1323,2861)"/>
<path d="M0,0 L7,1 L13,5 L11,11 L17,13 L17,11 L23,13 L23,15 L21,15 L23,21 L25,21 L25,23 L29,25 L31,29 L32,31 L28,29 L24,27 L18,19 L18,17 L15,16 L15,14 L11,13 L3,6 L0,3 Z " fill="#333637" transform="translate(1114,2165)"/>
<path d="M0,0 L6,4 L15,7 L18,11 L18,13 L23,14 L26,17 L26,19 L30,20 L35,25 L40,27 L40,30 L42,31 L36,30 L31,27 L26,22 L26,20 L21,20 L18,15 L15,13 L11,12 L10,10 L5,9 L5,6 L1,5 Z " fill="#747B7E" transform="translate(1199,2250)"/>
<path d="M0,0 L4,2 L8,6 L12,9 L13,13 L20,19 L20,17 L16,15 L16,13 L21,15 L23,15 L29,14 L29,17 L32,17 L35,23 L34,25 L31,23 L31,28 L30,28 L28,20 L16,22 L15,18 L13,16 L9,15 L7,10 L3,6 L3,4 L-1,3 Z " fill="#414547" transform="translate(985,2070)"/>
<path d="M0,0 L4,2 L6,4 L16,5 L22,14 L22,16 L28,17 L28,19 L32,21 L32,24 L27,21 L22,21 L22,19 L24,19 L24,17 L21,17 L20,13 L15,14 L12,12 L6,12 L7,9 L11,9 L11,7 L4,8 L3,4 L0,5 Z " fill="#6F7578" transform="translate(1016,2093)"/>
<path d="M0,0 L2,1 L-2,6 L-7,10 L-15,14 L-23,20 L-26,20 L-26,22 L-34,26 L-36,26 L-36,28 L-41,30 L-44,30 L-44,18 L-43,18 L-42,28 L-37,25 L-31,20 L-24,17 L-17,13 L-12,8 L-10,6 L-3,3 Z " fill="#323537" transform="translate(934,2956)"/>
<path d="M0,0 L5,0 L7,2 L7,5 L12,7 L13,9 L19,10 L19,14 L23,14 L24,17 L36,19 L42,24 L43,28 L40,27 L40,25 L27,22 L19,16 L14,12 L10,9 L10,7 L5,6 L2,4 L2,2 L0,2 Z " fill="#383B3D" transform="translate(1403,2931)"/>
<path d="M0,0 L7,4 L13,9 L16,10 L20,16 L22,17 L22,19 L29,20 L34,22 L37,26 L37,29 L41,31 L42,33 L46,34 L45,36 L38,35 L35,30 L35,27 L30,27 L29,22 L19,20 L16,14 L6,6 L1,4 Z " fill="#7E8588" transform="translate(1071,2135)"/>
<path d="M0,0 L4,1 L-1,4 L-3,4 L-3,7 L-10,10 L-12,13 L-17,15 L-20,15 L-22,19 L-27,22 L-35,28 L-41,30 L-36,25 L-30,21 L-12,7 L-1,1 Z " fill="#606668" transform="translate(1034,2892)"/>
<path d="M0,0 L2,1 L-1,4 L-4,6 L-8,6 L-9,10 L-14,12 L-17,12 L-17,14 L-24,17 L-27,17 L-27,20 L-35,23 L-36,25 L-40,24 L-37,24 L-37,21 L-29,17 L-26,14 L-20,13 L-19,9 L-12,6 L-7,3 Z " fill="#4C5153" transform="translate(1360,2269)"/>
<path d="M0,0 L2,1 L-3,6 L-7,7 L-12,12 L-20,13 L-21,17 L-25,17 L-25,19 L-31,23 L-31,21 L-34,22 L-34,19 L-26,17 L-26,14 L-21,13 L-21,11 L-17,11 L-15,7 L-8,6 L-8,3 Z " fill="#7C8386" transform="translate(1341,2283)"/>
<path d="M0,0 L11,2 L13,5 L19,8 L20,13 L24,15 L31,15 L35,10 L39,11 L40,8 L39,14 L33,16 L29,19 L21,18 L18,14 L17,9 L11,7 L5,3 L0,2 Z " fill="#393D3F" transform="translate(1446,2959)"/>
<path d="M0,0 L4,1 L4,3 L8,5 L12,9 L14,10 L14,12 L16,12 L19,15 L24,20 L29,24 L32,25 L33,30 L37,30 L37,32 L31,31 L30,27 L27,27 L25,24 L21,22 L20,18 L12,14 L12,11 L6,9 Z " fill="#7E8689" transform="translate(1333,2867)"/>
<path d="M0,0 L1,0 L2,12 L8,16 L12,22 L19,28 L21,29 L21,34 L25,36 L29,38 L31,44 L24,38 L19,33 L14,28 L7,21 L7,17 L0,16 Z " fill="#838B8E" transform="translate(1275,2799)"/>
<path d="M0,0 L2,0 L0,4 L-6,6 L-7,9 L-10,10 L-10,8 L-12,8 L-13,11 L-18,12 L-19,15 L-29,21 L-37,24 L-41,23 L-36,20 L-32,20 L-32,18 L-23,15 L-22,12 L-14,8 L-11,6 L-8,6 L-8,4 L-4,4 L-3,1 Z " fill="#7A8083" transform="translate(1585,2136)"/>
<path d="M0,0 L2,1 L-9,9 L-13,12 L-18,14 L-23,19 L-34,26 L-38,25 L-33,20 L-26,16 L-24,14 L-19,12 L-10,7 L-8,4 Z " fill="#80878A" transform="translate(941,2950)"/>
<path d="M0,0 L6,0 L3,4 L-13,12 L-18,15 L-22,15 L-22,17 L-31,20 L-26,15 L-19,11 L-12,9 L-1,1 Z " fill="#404345" transform="translate(1140,2828)"/>
<path d="M0,0 L4,2 L10,7 L16,11 L18,16 L23,17 L26,20 L31,23 L33,29 L29,27 L22,21 L20,18 L17,17 L17,15 L15,15 L11,11 L6,8 Z " fill="#343738" transform="translate(1353,2892)"/>
<path d="M0,0 L2,1 L-1,4 L-8,8 L-11,11 L-14,12 L-16,15 L-20,15 L-21,18 L-30,21 L-29,19 L-27,19 L-27,17 L-16,9 L-1,1 Z " fill="#616669" transform="translate(1068,2871)"/>
<path d="M0,0 L1,0 L1,11 L7,12 L8,17 L11,19 L13,24 L20,28 L21,31 L12,28 L8,22 L4,18 L4,15 L0,13 Z " fill="#3F4244" transform="translate(1274,2805)"/>
<path d="M0,0 L6,0 L6,3 L13,3 L14,6 L17,7 L18,12 L23,11 L24,13 L27,15 L20,15 L16,13 L16,10 L12,10 L12,6 L6,6 L2,2 Z " fill="#575D5F" transform="translate(1410,2935)"/>
<path d="M0,0 L4,1 L3,3 L-1,4 L-9,7 L-15,14 L-19,15 L-24,17 L-28,16 L-25,14 L-21,14 L-19,10 L-16,8 L-11,8 L-9,4 L-1,1 Z " fill="#757B7E" transform="translate(1536,2165)"/>
<path d="M0,0 L4,1 L4,3 L11,5 L11,8 L15,9 L15,11 L19,13 L22,18 L19,19 L19,17 L15,16 L13,12 L13,9 L8,8 L8,10 L6,10 L5,5 L2,5 Z " fill="#707679" transform="translate(1049,2117)"/>
<path d="M0,0 L5,0 L0,5 L-7,9 L-14,11 L-18,14 L-24,15 L-24,13 L-14,8 L-5,3 Z " fill="#858D90" transform="translate(1153,2819)"/>
<path d="M0,0 L2,0 L2,2 L-3,3 L-3,6 L-11,8 L-12,12 L-17,14 L-20,14 L-21,18 L-23,18 L-23,27 L-24,27 L-24,17 L-23,14 L-16,10 L-13,10 L-11,6 L-5,5 L-4,2 Z " fill="#3D4142" transform="translate(1318,2294)"/>
<path d="M0,0 L5,0 L4,3 L-1,6 L-7,9 L-12,12 L-13,14 L-17,15 L-25,20 L-27,20 L-27,17 L-18,13 L-16,11 L-13,11 L-13,9 L-8,7 L-3,4 L-1,3 Z " fill="#82898C" transform="translate(1405,2242)"/>
<path d="M0,0 L1,0 L0,9 L-5,10 L-7,13 L-14,13 L-15,9 L-17,9 L-17,5 L-20,4 L-16,4 L-15,7 L-13,8 L-11,11 L-7,6 L-4,4 L-1,4 Z " fill="#838A8D" transform="translate(1485,2961)"/>
<path d="M0,0 L4,1 L-1,4 L-10,7 L-10,10 L-18,13 L-19,15 L-22,15 L-22,17 L-26,16 L-19,10 L-15,8 L-12,8 L-11,5 L-1,1 Z " fill="#414547" transform="translate(1388,2252)"/>
<path d="M0,0 L4,2 L4,4 L9,4 L10,6 L19,8 L23,12 L19,13 L19,11 L12,10 L2,5 Z " fill="#444849" transform="translate(1384,2918)"/>
<path d="M0,0 L4,0 L10,7 L10,11 L15,12 L15,13 L9,13 L6,6 L1,6 L-1,12 L-2,8 Z " fill="#7F8689" transform="translate(984,2074)"/>
<path d="M0,0 L2,0 L0,4 L-10,10 L-18,14 L-21,17 L-26,20 L-28,19 L-17,11 L-10,7 L-8,7 L-6,3 Z " fill="#313435" transform="translate(1107,2848)"/>
<path d="M0,0 L4,1 L-8,8 L-17,15 L-25,17 L-22,13 L-15,9 L-3,2 Z " fill="#595E61" transform="translate(1095,2854)"/>
<path d="M0,0 L4,2 L5,5 L14,7 L14,9 L16,9 L16,14 L12,12 L6,12 L7,9 L11,9 L11,7 L4,8 L3,4 L0,5 Z " fill="#848B8E" transform="translate(1016,2093)"/>
<path d="M0,0 L4,1 L1,4 L-1,4 L-6,9 L-9,10 L-11,9 L-11,11 L-21,14 L-20,11 L-12,10 L-11,6 L-3,3 Z " fill="#71787B" transform="translate(1453,2214)"/>
<path d="M0,0 L7,1 L9,6 L19,15 L20,18 L15,17 L10,13 L9,9 L6,7 L6,2 L0,1 Z " fill="#686E71" transform="translate(1275,2815)"/>
<path d="M0,0 L4,0 L4,2 L0,5 L-4,6 L-9,8 L-9,11 L-18,12 L-14,11 L-13,7 L-9,7 L-9,5 L-5,5 L-5,2 Z " fill="#7C8386" transform="translate(1428,2229)"/>
<path d="M0,0 L7,0 L9,3 L9,7 L5,8 L1,8 L0,1 Z " fill="#7E8588" transform="translate(1006,2090)"/>
<path d="M0,0 L9,3 L9,5 L13,6 L20,10 L21,14 L26,15 L24,16 L18,14 L13,9 L6,5 L6,3 L1,4 Z " fill="#666B6E" transform="translate(1427,2943)"/>
<path d="M0,0 L2,1 L-8,8 L-17,13 L-21,17 L-28,19 L-24,15 L-21,14 L-16,9 L-10,6 Z " fill="#383B3D" transform="translate(989,2923)"/>
<path d="M0,0 L4,1 L0,2 L-2,6 L-7,9 L-15,15 L-21,17 L-16,12 L-10,8 Z " fill="#414446" transform="translate(1014,2905)"/>
<path d="M0,0 L8,6 L12,8 L20,18 L17,19 L14,15 L14,12 L8,12 L7,8 L4,8 L4,5 L2,5 Z " fill="#777E80" transform="translate(1117,2171)"/>
<path d="M0,0 L5,2 L7,2 L13,1 L13,4 L16,4 L18,9 L14,7 L4,6 L4,4 L0,2 Z " fill="#2F3132" transform="translate(1001,2083)"/>
<path d="M0,0 L6,3 L8,7 L10,7 L10,9 L14,11 L16,15 L17,17 L13,15 L9,13 L3,5 L3,3 L0,2 Z " fill="#3F4345" transform="translate(1129,2179)"/>
<path d="M0,0 L6,0 L3,2 L-4,6 L-8,7 L-9,11 L-18,13 L-18,15 L-20,15 L-19,11 L-14,9 L-10,9 L-9,5 L-4,3 L-1,2 Z " fill="#303335" transform="translate(1571,2141)"/>
<path d="M0,0 L4,2 L4,4 L11,10 L13,15 L17,16 L19,19 L12,17 L10,15 L8,10 L3,7 L1,6 Z M-1,3 Z " fill="#7A8184" transform="translate(1153,2204)"/>
<path d="M0,0 L7,1 L10,3 L8,8 L9,10 L5,8 L0,3 Z " fill="#2F3233" transform="translate(1114,2165)"/>
<path d="M0,0 L4,1 L1,1 L0,6 L-4,6 L-4,8 L-10,12 L-10,10 L-13,11 L-13,8 L-5,6 L-5,3 L0,2 Z " fill="#72797B" transform="translate(1320,2294)"/>
<path d="M0,0 L5,1 L8,3 L8,5 L14,5 L19,7 L19,10 L26,11 L22,12 L17,10 L15,8 L6,7 L6,4 L4,4 L3,2 Z " fill="#889093" transform="translate(1410,2931)"/>
<path d="M0,0 L2,1 L-2,6 L-7,10 L-12,12 L-16,11 L-10,6 L-3,3 Z " fill="#464A4C" transform="translate(934,2956)"/>
<path d="M0,0 L5,3 L9,7 L13,9 L15,14 L16,17 L13,17 L7,9 L3,6 L4,4 L0,2 Z " fill="#3C4042" transform="translate(1153,2202)"/>
<path d="M0,0 L2,0 L6,4 L8,1 L12,1 L12,4 L15,4 L16,7 L13,7 L3,6 L0,1 Z " fill="#303234" transform="translate(1019,2092)"/>
<path d="M0,0 L4,0 L4,3 L8,4 L11,5 L13,8 L13,16 L12,16 L10,10 L7,8 L7,5 L2,4 Z " fill="#373A3B" transform="translate(1232,2272)"/>
<path d="M0,0 L5,1 L11,8 L11,11 L7,10 L2,4 L-1,3 Z " fill="#0E0E0E" transform="translate(891,3076)"/>
<path d="M0,0 L3,1 L-7,7 L-15,12 L-18,15 L-22,14 L-12,7 Z " fill="#5C6163" transform="translate(958,2941)"/>
<path d="M0,0 L1,0 L1,13 L6,13 L6,11 L12,9 L8,14 L2,17 L0,18 Z " fill="#6B7274" transform="translate(891,2967)"/>
<path d="M0,0 L1,4 L0,6 L-6,8 L-7,9 L-16,9 L-19,6 L-16,6 L-15,7 L-8,7 L-4,2 L0,3 Z " fill="#4C5153" transform="translate(1485,2967)"/>
<path d="M0,0 L4,2 L12,9 L19,15 L16,15 L11,12 L3,5 Z " fill="#63696B" transform="translate(1308,2847)"/>
<path d="M0,0 L3,1 L-3,6 L-10,9 L-11,11 L-17,12 L-15,9 L-12,9 L-11,6 L-3,2 Z " fill="#323537" transform="translate(1489,2190)"/>
<path d="M0,0 L5,0 L4,3 L-4,7 L-5,8 L-10,8 L-6,3 L0,2 Z " fill="#35383A" transform="translate(1539,2160)"/>
<path d="M0,0 L7,4 L13,9 L16,10 L19,15 L15,13 L6,6 L1,4 Z " fill="#656B6D" transform="translate(1071,2135)"/>
<path d="M0,0 L1,0 L2,10 L7,7 L13,2 L15,3 L10,8 L8,8 L8,10 L3,12 L0,12 Z " fill="#3E4143" transform="translate(890,2974)"/>
<path d="M0,0 L0,3 L-3,3 L-5,7 L-12,10 L-16,9 L-13,9 L-13,7 L-9,7 L-7,3 Z " fill="#747A7E" transform="translate(1487,2194)"/>
<path d="M0,0 L13,0 L18,4 L17,6 L14,4 L14,9 L13,9 L11,1 L-1,3 Z " fill="#54585B" transform="translate(1002,2089)"/>
<path d="M0,0 L13,1 L17,3 L14,3 L14,5 L5,3 L0,1 Z " fill="#060707" transform="translate(1295,3116)"/>
<path d="M0,0 L2,1 L-2,6 L-10,9 L-16,13 L-18,12 L-17,10 L-7,5 Z " fill="#7F868A" transform="translate(964,2935)"/>
<path d="M0,0 L6,4 L11,7 L12,12 L8,10 L5,9 L5,6 L1,5 Z " fill="#848B8E" transform="translate(1199,2250)"/>
<path d="M0,0 L4,1 L10,8 L14,11 L5,9 Z " fill="#3C3F40" transform="translate(1033,2100)"/>
<path d="M0,0 L2,1 L-3,4 L-4,7 L-13,10 L-15,11 L-14,7 L-9,5 L-6,4 L-4,1 Z " fill="#323637" transform="translate(1400,2244)"/>
<path d="M0,0 L4,1 L4,3 L8,5 L11,9 L10,11 L5,8 Z " fill="#7D8487" transform="translate(1333,2867)"/>
<path d="M0,0 L3,1 L-3,4 L-4,7 L-12,10 L-13,12 L-17,11 L-14,11 L-14,8 L-6,4 L-3,1 Z " fill="#343738" transform="translate(1337,2282)"/>
<path d="M0,0 L3,1 L-1,4 L-5,5 L-14,8 L-15,11 L-18,10 L-13,6 L-6,3 L-4,1 Z " fill="#899194" transform="translate(1475,2203)"/>
<path d="M0,0 L4,1 L-1,4 L-10,7 L-10,10 L-14,9 L-11,9 L-11,5 L-1,1 Z " fill="#484C4E" transform="translate(1388,2252)"/>
<path d="M0,0 L6,0 L2,1 L2,3 L-3,3 L-4,7 L-10,10 L-12,11 L-10,7 L-6,5 L-2,1 Z " fill="#464A4C" transform="translate(1408,2239)"/>
<path d="M0,0 L4,1 L5,4 L10,9 L10,12 L12,13 L8,12 L4,8 Z " fill="#464A4C" transform="translate(1104,2156)"/>
<path d="M0,0 L3,2 L4,9 L13,10 L12,12 L4,11 L1,7 Z " fill="#404445" transform="translate(1463,2966)"/>
<path d="M0,0 L5,2 L5,6 L7,6 L8,10 L14,10 L14,11 L7,11 L3,8 L1,3 Z " fill="#6A7173" transform="translate(1463,2964)"/>
<path d="M0,0 L10,6 L13,9 L12,11 L10,9 L5,7 L0,2 Z " fill="#4E5355" transform="translate(1323,2861)"/>
<path d="M0,0 L4,1 L1,1 L1,3 L-2,3 L-3,7 L-8,9 L-12,8 L-9,6 L-5,6 L-3,2 Z " fill="#686E71" transform="translate(1520,2173)"/>
<path d="M0,0 L5,0 L9,5 L9,7 L13,8 L13,10 L9,10 L4,4 L4,2 Z " fill="#787F82" transform="translate(1401,2925)"/>
<path d="M0,0 L4,2 L5,4 L12,7 L15,11 L9,10 L7,7 L2,4 Z " fill="#646A6C" transform="translate(1375,2907)"/>
<path d="M0,0 L2,1 L-3,5 L-11,10 L-15,9 L-8,4 L-1,1 Z " fill="#787F82" transform="translate(1110,2844)"/>
<path d="M0,0 L2,1 L12,2 L15,7 L13,7 L12,11 L12,6 L10,6 L10,4 L1,3 Z " fill="#5C6164" transform="translate(1020,2096)"/>
<path d="M0,0 L8,4 L6,9 L-1,3 Z " fill="#292A2C" transform="translate(986,2067)"/>
<path d="M0,0 L4,1 L-7,8 L-11,7 L-7,3 L-1,1 Z " fill="#646A6C" transform="translate(914,2968)"/>
<path d="M0,0 L2,1 L-1,4 L-3,4 L-3,6 L-12,9 L-7,4 Z " fill="#54595B" transform="translate(1121,2839)"/>
<path d="M0,0 L4,1 L4,3 L6,3 L6,6 L9,6 L8,10 L6,10 L5,5 L2,5 Z " fill="#798083" transform="translate(1049,2117)"/>
<path d="M0,0 L4,1 L0,2 L-1,5 L-5,7 L-8,7 L-8,5 L-5,5 L-4,2 Z " fill="#838B8E" transform="translate(1374,2262)"/>
<path d="M0,0 L3,1 L1,1 L2,3 L7,3 L8,7 L6,7 L6,5 L-3,4 L-3,1 Z " fill="#333637" transform="translate(1098,2149)"/>
<path d="M0,0 L5,2 L13,9 L11,11 L6,6 L0,2 Z " fill="#868E91" transform="translate(1075,2140)"/>
<path d="M0,0 L4,2 L5,5 L12,6 L12,7 L4,8 L3,4 L0,5 Z " fill="#7D8588" transform="translate(1016,2093)"/>
<path d="M0,0 L5,2 L15,5 L15,7 L9,7 L4,4 Z " fill="#323536" transform="translate(1388,2924)"/>
<path d="M0,0 L4,1 L9,4 L11,10 L4,4 Z " fill="#7A8083" transform="translate(1295,2833)"/>
<path d="M0,0 L2,1 L-3,5 L-10,9 L-12,9 L-12,7 Z " fill="#62686A" transform="translate(1156,2819)"/>
<path d="M0,0 L3,1 L-1,5 L-9,6 L-6,5 L-6,2 Z " fill="#868E91" transform="translate(1330,2290)"/>
<path d="M0,0 L4,2 L10,6 L11,9 L8,8 L8,6 L3,6 Z " fill="#838A8D" transform="translate(1217,2264)"/>
<path d="M0,0 L1,2 L5,3 L9,6 L9,8 L2,7 L0,3 Z " fill="#80888B" transform="translate(1137,2190)"/>
<path d="M0,0 L0,3 L-5,6 L-8,6 L-8,8 L-10,8 L-8,4 Z " fill="#666C6F" transform="translate(1610,2121)"/>
<path d="M0,0 L2,3 L2,5 L4,5 L4,3 L9,4 L10,8 L1,6 L0,5 Z " fill="#8C9498" transform="translate(1053,2122)"/>
<path d="M0,0 L2,0 L0,4 L-4,6 L-8,5 Z " fill="#404445" transform="translate(1107,2848)"/>
<path d="M0,0 L3,0 L3,2 L-1,2 L-1,4 L-7,7 L-11,6 L-6,3 L-2,3 L-2,1 Z " fill="#616669" transform="translate(1555,2153)"/>
<path d="M0,0 L0,3 L-9,5 L-9,7 L-11,7 L-10,3 Z " fill="#3A3D3E" transform="translate(1562,2149)"/>
<path d="M0,0 L7,0 L8,2 L11,4 L4,4 L0,2 Z " fill="#4D5154" transform="translate(1426,2946)"/>
<path d="M0,0 L2,1 L-1,4 L-3,4 L-4,7 L-10,9 L-6,4 Z " fill="#606568" transform="translate(972,2931)"/>
<path d="M0,0 L4,0 L3,3 L-6,6 L-5,4 L-3,4 L-3,2 Z " fill="#434749" transform="translate(1044,2886)"/>
<path d="M0,0 L4,1 L8,3 L8,9 L2,4 L2,1 Z " fill="#2B2D2F" transform="translate(1106,2156)"/>
<path d="M0,0 L3,1 L1,3 L-5,5 L-6,7 L-10,6 L-4,1 Z " fill="#686E70" transform="translate(1597,2129)"/>
<path d="M0,0 L2,0 L3,4 L2,6 L-3,6 L-2,1 Z " fill="#8F979A" transform="translate(1017,2097)"/>
<path d="M0,0 L3,3 L2,5 L5,4 L5,7 L0,7 L-1,2 Z " fill="#7E8689" transform="translate(999,2087)"/>
<path d="M0,0 L2,0 L2,2 L-5,5 L-7,8 L-11,7 L-5,2 Z " fill="#404345" transform="translate(1029,2897)"/>
<path d="M0,0 L2,1 L-1,4 L-4,5 L-6,8 L-10,7 L-4,2 Z " fill="#414547" transform="translate(1058,2878)"/>
<path d="M0,0 L5,1 L10,6 L12,9 L8,7 L0,1 Z " fill="#35383A" transform="translate(1329,2869)"/>
<path d="M0,0 L7,0 L2,5 L1,3 L-2,4 L-2,1 Z " fill="#7E8588" transform="translate(1309,2301)"/>
<path d="M0,0 L6,2 L8,8 L5,8 Z " fill="#4A4E50" transform="translate(1161,2211)"/>
<path d="M0,0 L2,1 L-1,6 L-8,6 L-5,3 L-1,3 Z " fill="#6A7073" transform="translate(1497,2187)"/>
<path d="M0,0 L6,0 L6,3 L13,3 L10,5 L5,4 Z " fill="#63696C" transform="translate(1410,2935)"/>
<path d="M0,0 L4,2 L10,6 L9,9 L4,6 Z " fill="#858C8F" transform="translate(1323,2858)"/>
<path d="M0,0 L2,1 L-5,7 L-10,8 L-7,4 L-1,1 Z " fill="#373A3B" transform="translate(1130,2835)"/>
<path d="M0,0 L8,6 L10,9 L5,7 L0,2 Z " fill="#555A5D" transform="translate(1294,2833)"/>
<path d="M0,0 L1,3 L-7,7 L-9,6 L-6,3 Z " fill="#3C4042" transform="translate(1164,2816)"/>
<path d="M0,0 L5,5 L9,11 L5,10 L3,7 L3,4 L0,3 Z " fill="#6E7477" transform="translate(1128,2179)"/>
<path d="M0,0 L4,2 L10,5 L11,7 L6,6 L1,3 Z " fill="#777E81" transform="translate(1423,2938)"/>
<path d="M0,0 L2,1 L-3,5 L-9,7 L-4,2 Z " fill="#333637" transform="translate(1002,2915)"/>
<path d="M0,0 L9,6 L11,10 L7,8 L0,2 Z " fill="#303234" transform="translate(1375,2911)"/>
<path d="M0,0 L4,2 L4,4 L11,5 L11,7 L1,5 Z " fill="#838B8E" transform="translate(1089,2150)"/>
<path d="M0,0 L3,0 L3,3 L6,3 L6,6 L10,6 L10,8 L4,6 Z " fill="#303335" transform="translate(1079,2138)"/>
<path d="M0,0 L6,1 L10,5 L6,6 L6,3 L0,1 Z " fill="#5B6062" transform="translate(1397,2925)"/>
<path d="M0,0 L2,1 L-3,6 L-7,5 L-7,3 Z " fill="#8D9598" transform="translate(1359,2272)"/>
<path d="M0,0 L4,1 L7,4 L6,6 L3,5 L-1,4 L2,3 L2,1 Z " fill="#838B8E" transform="translate(1186,2238)"/>
<path d="M0,0 L5,2 L8,4 L7,7 L5,5 L0,4 Z " fill="#313435" transform="translate(1166,2212)"/>
<path d="M0,0 L3,1 L-2,6 L-6,6 L-5,3 Z " fill="#2E3032" transform="translate(1517,2173)"/>
<path d="M0,0 L3,3 L1,7 L-3,5 L-1,4 Z " fill="#2A2C2D" transform="translate(1124,2168)"/>
<path d="M0,0 L5,3 L9,8 L5,6 L0,4 Z " fill="#44484A" transform="translate(994,2081)"/>
<path d="M0,0 L2,1 L-1,4 L-6,7 L-8,6 L-3,1 Z " fill="#363A3B" transform="translate(948,2949)"/>
<path d="M0,0 L2,1 L2,4 L6,3 L7,6 L3,7 L0,2 Z " fill="#757B7E" transform="translate(1146,2198)"/>
<path d="M0,0 L3,0 L2,4 L-2,5 L-5,5 Z " fill="#8D9599" transform="translate(1613,2120)"/>
<path d="M0,0 L8,1 L5,2 L5,4 L-1,3 Z " fill="#0C0D0D" transform="translate(1304,3117)"/>
<path d="M0,0 L9,6 L8,8 L2,4 Z " fill="#44484A" transform="translate(1375,2909)"/>
<path d="M0,0 L7,5 L10,6 L9,8 L3,5 L0,2 Z " fill="#889094" transform="translate(1355,2886)"/>
<path d="M0,0 L6,3 L8,7 L1,3 Z " fill="#565A5D" transform="translate(1285,2826)"/>
<path d="M0,0 L5,1 L8,7 L4,5 Z " fill="#7E8588" transform="translate(1283,2820)"/>
<path d="M0,0 L0,3 L-3,5 L-7,4 L-8,6 L-8,3 Z " fill="#81888B" transform="translate(1306,2305)"/>
<path d="M0,0 L5,0 L6,1 L6,9 L5,9 L3,3 Z " fill="#424648" transform="translate(1239,2279)"/>
<path d="M0,0 L4,2 L9,7 L6,7 L1,3 Z " fill="#606568" transform="translate(1226,2269)"/>
<path d="M0,0 L5,0 L5,3 L-4,4 L0,3 Z " fill="#7F8689" transform="translate(1414,2237)"/>
<path d="M0,0 L2,1 L0,5 L-2,6 L-8,6 L-4,5 L-4,3 L0,3 Z " fill="#6A6F72" transform="translate(1423,2231)"/>
<path d="M0,0 L4,2 L6,6 L7,8 L3,6 L0,3 Z " fill="#3B3E40" transform="translate(1139,2188)"/>
<path d="M0,0 L2,1 L0,5 L-7,5 L-6,3 L-1,2 Z " fill="#71777A" transform="translate(1506,2182)"/>
<path d="M0,0 L5,0 L4,3 L1,5 L-3,4 L0,3 Z " fill="#4C5153" transform="translate(1539,2160)"/>
<path d="M0,0 L5,3 L6,6 L2,5 L0,4 Z " fill="#363A3C" transform="translate(1064,2124)"/>
<path d="M0,0 L4,1 L4,3 L7,3 L7,5 L2,4 Z " fill="#7A8184" transform="translate(1394,2920)"/>
<path d="M0,0 L6,1 L6,6 L2,4 Z " fill="#848C8F" transform="translate(1306,2843)"/>
<path d="M0,0 L5,2 L8,5 L5,5 L1,4 Z " fill="#404446" transform="translate(1287,2830)"/>
<path d="M0,0 L4,1 L6,3 L6,6 L2,4 Z " fill="#414446" transform="translate(1117,2169)"/>
<path d="M0,0 L3,1 L-1,5 L-6,5 L-2,1 Z " fill="#313435" transform="translate(1526,2168)"/>
<path d="M0,0 L5,1 L5,4 L2,5 Z " fill="#6F7578" transform="translate(1100,2156)"/>
<path d="M0,0 L5,3 L4,6 L0,4 Z " fill="#313335" transform="translate(992,2076)"/>
<path d="M0,0 L5,2 L7,6 L2,4 Z " fill="#616669" transform="translate(1337,2872)"/>
<path d="M0,0 L5,2 L8,7 L4,5 L0,1 Z " fill="#2E3233" transform="translate(1290,2834)"/>
<path d="M0,0 L2,1 L-1,4 L-7,5 L-3,1 Z " fill="#373A3C" transform="translate(1153,2823)"/>
<path d="M0,0 L4,2 L6,7 L3,7 L3,3 L1,3 Z " fill="#878F92" transform="translate(1279,2813)"/>
<path d="M0,0 L4,2 L6,6 L0,4 Z " fill="#494D4F" transform="translate(1194,2244)"/>
<path d="M0,0 L3,1 L-1,5 L-4,4 L-3,1 Z " fill="#8D9498" transform="translate(1447,2219)"/>
<path d="M0,0 L5,0 L6,6 L4,6 Z " fill="#474B4D" transform="translate(1134,2186)"/>
<path d="M0,0 L4,1 L3,3 L-1,4 L-5,5 Z " fill="#878F92" transform="translate(1536,2165)"/>
<path d="M0,0 L4,1 L-2,5 L-4,4 Z " fill="#35383A" transform="translate(1587,2132)"/>
<path d="M0,0 L6,1 L6,4 L3,2 L3,7 L2,7 Z " fill="#5D6264" transform="translate(1013,2091)"/>
</svg>
