<?xml version="1.0" encoding="UTF-8"?>
<svg version="1.1" xmlns="http://www.w3.org/2000/svg" width="2500" height="3686">
<path d="M0,0 L13,1 L40,5 L58,9 L92,14 L100,15 L129,17 L137,17 L149,18 L162,19 L183,24 L201,29 L222,37 L238,45 L250,52 L265,63 L280,74 L294,83 L315,96 L317,97 L317,99 L321,100 L333,108 L337,111 L337,113 L340,114 L340,116 L344,118 L355,127 L362,134 L362,156 L364,173 L370,185 L380,200 L389,210 L399,220 L409,228 L424,238 L445,248 L461,252 L474,254 L475,250 L476,247 L478,247 L478,244 L480,244 L482,239 L484,239 L485,234 L488,231 L492,232 L499,235 L504,242 L506,253 L504,263 L501,278 L497,286 L495,286 L493,290 L482,301 L480,301 L480,303 L475,308 L472,309 L470,314 L466,317 L464,317 L464,319 L453,323 L446,323 L444,322 L444,324 L431,323 L428,324 L396,321 L357,312 L342,309 L327,302 L314,297 L300,293 L271,284 L255,280 L246,277 L237,273 L222,265 L207,258 L197,254 L195,254 L194,259 L193,270 L193,273 L193,282 L192,287 L189,286 L189,281 L191,281 L188,277 L187,281 L185,281 L185,274 L185,270 L187,270 L185,265 L186,259 L187,257 L182,259 L181,266 L180,282 L180,303 L182,303 L185,315 L184,326 L181,327 L180,329 L179,323 L178,326 L176,353 L177,356 L176,365 L174,369 L175,370 L175,382 L174,387 L174,402 L172,416 L171,417 L170,468 L170,499 L172,540 L176,576 L181,602 L192,646 L205,682 L212,701 L228,734 L238,755 L251,778 L261,796 L264,806 L267,828 L267,836 L261,840 L251,848 L238,857 L222,866 L203,874 L184,881 L142,894 L97,906 L51,917 L3,927 L-36,933 L-77,937 L-111,939 L-176,941 L-254,941 L-276,938 L-292,934 L-300,929 L-305,924 L-303,913 L-293,877 L-285,841 L-276,789 L-273,767 L-268,732 L-267,716 L-266,702 L-265,678 L-265,664 L-264,642 L-263,583 L-264,569 L-265,563 L-264,562 L-264,554 L-269,546 L-276,532 L-277,529 L-280,534 L-284,533 L-282,528 L-281,518 L-283,518 L-285,528 L-289,537 L-294,549 L-306,573 L-314,593 L-323,614 L-329,626 L-336,638 L-346,647 L-349,650 L-363,657 L-365,659 L-375,662 L-380,665 L-385,666 L-403,662 L-415,657 L-431,649 L-436,646 L-441,652 L-445,651 L-452,640 L-452,619 L-450,609 L-448,607 L-444,608 L-436,614 L-432,612 L-422,594 L-421,589 L-412,574 L-407,565 L-400,555 L-398,549 L-393,539 L-390,528 L-388,523 L-386,522 L-385,513 L-385,493 L-389,477 L-391,466 L-395,452 L-397,451 L-397,448 L-399,448 L-407,427 L-418,402 L-426,388 L-432,379 L-441,360 L-451,341 L-454,332 L-457,330 L-456,314 L-454,311 L-453,302 L-449,286 L-442,256 L-439,240 L-436,229 L-433,212 L-427,190 L-424,183 L-419,166 L-413,145 L-406,125 L-402,117 L-398,107 L-392,97 L-389,92 L-387,92 L-385,86 L-383,86 L-381,82 L-376,79 L-366,71 L-356,65 L-340,58 L-327,53 L-300,43 L-286,38 L-269,32 L-261,29 L-250,24 L-240,20 L-236,21 L-226,34 L-211,49 L-198,58 L-182,67 L-164,75 L-145,81 L-134,83 L-118,84 L-101,82 L-84,77 L-65,68 L-53,60 L-42,51 L-38,49 L-37,46 L-35,46 L-35,44 L-33,44 L-31,40 L-22,30 L-9,11 L-2,1 Z M187,271 L188,274 Z " fill="#E6E8E9" transform="translate(1307,1053)"/>
<path d="M0,0 L13,1 L40,5 L58,9 L92,14 L100,15 L129,17 L137,17 L149,18 L162,19 L183,24 L201,29 L222,37 L238,45 L250,52 L265,63 L280,74 L294,83 L315,96 L317,97 L317,99 L321,100 L333,108 L337,111 L337,113 L340,114 L340,116 L344,118 L355,127 L362,134 L362,156 L364,173 L370,185 L380,200 L389,210 L399,220 L409,228 L424,238 L445,248 L461,252 L474,254 L475,250 L476,247 L478,247 L478,244 L480,244 L482,239 L484,239 L485,234 L488,231 L492,232 L499,235 L504,242 L506,253 L504,263 L501,278 L497,286 L495,286 L493,290 L482,301 L480,301 L480,303 L475,308 L472,309 L470,314 L466,317 L464,317 L464,319 L453,323 L446,323 L444,322 L444,324 L431,323 L428,324 L396,321 L357,312 L342,309 L327,302 L314,297 L300,293 L271,284 L255,280 L246,277 L237,273 L222,265 L207,258 L197,254 L195,254 L194,259 L193,270 L193,273 L193,282 L192,287 L189,286 L189,281 L191,281 L188,277 L187,281 L185,281 L185,274 L185,270 L187,270 L185,265 L186,259 L187,257 L182,259 L181,266 L180,282 L180,303 L182,303 L185,315 L184,326 L181,327 L180,329 L179,323 L178,326 L176,353 L177,356 L176,365 L174,369 L175,370 L175,382 L174,387 L174,402 L172,416 L171,417 L170,468 L170,499 L172,540 L176,576 L181,602 L192,646 L205,682 L212,701 L228,734 L238,755 L251,778 L261,796 L264,806 L267,828 L267,836 L261,840 L251,848 L238,857 L222,866 L203,874 L184,881 L142,894 L97,906 L51,917 L3,927 L-36,933 L-77,937 L-111,939 L-176,941 L-254,941 L-276,938 L-292,934 L-300,929 L-305,924 L-303,913 L-293,877 L-285,841 L-276,789 L-273,767 L-268,732 L-267,716 L-266,702 L-265,678 L-265,664 L-264,642 L-263,583 L-264,569 L-265,563 L-264,562 L-264,554 L-269,546 L-276,532 L-277,529 L-280,534 L-284,533 L-282,528 L-281,518 L-283,518 L-285,528 L-289,537 L-294,549 L-306,573 L-314,593 L-323,614 L-329,626 L-336,638 L-346,647 L-349,650 L-363,657 L-365,659 L-375,662 L-380,665 L-385,666 L-403,662 L-415,657 L-431,649 L-436,646 L-441,652 L-445,651 L-452,640 L-452,619 L-450,609 L-448,607 L-444,608 L-436,614 L-432,612 L-422,594 L-421,589 L-412,574 L-407,565 L-400,555 L-398,549 L-393,539 L-390,528 L-388,523 L-386,522 L-385,513 L-385,493 L-389,477 L-391,466 L-395,452 L-397,451 L-397,448 L-399,448 L-407,427 L-418,402 L-426,388 L-432,379 L-441,360 L-451,341 L-454,332 L-457,330 L-456,314 L-454,311 L-453,302 L-449,286 L-442,256 L-439,240 L-436,229 L-433,212 L-427,190 L-424,183 L-419,166 L-413,145 L-406,125 L-402,117 L-398,107 L-392,97 L-389,92 L-387,92 L-385,86 L-383,86 L-381,82 L-376,79 L-366,71 L-356,65 L-340,58 L-327,53 L-300,43 L-286,38 L-269,32 L-261,29 L-250,24 L-240,20 L-236,21 L-226,34 L-211,49 L-198,58 L-182,67 L-164,75 L-145,81 L-134,83 L-118,84 L-101,82 L-84,77 L-65,68 L-53,60 L-42,51 L-38,49 L-37,46 L-35,46 L-35,44 L-33,44 L-31,40 L-22,30 L-9,11 L-2,1 Z M1,3 L-4,16 L-15,32 L-24,43 L-33,53 L-46,64 L-61,74 L-82,84 L-97,88 L-108,90 L-133,90 L-154,86 L-174,79 L-191,71 L-207,60 L-220,48 L-233,31 L-238,24 L-242,25 L-258,33 L-275,41 L-292,47 L-325,58 L-345,66 L-350,69 L-358,72 L-369,80 L-377,87 L-381,91 L-385,96 L-391,107 L-391,111 L-393,111 L-399,127 L-403,137 L-407,145 L-416,174 L-423,195 L-432,235 L-435,251 L-436,252 L-437,263 L-441,279 L-445,299 L-448,314 L-450,320 L-450,326 L-445,338 L-436,354 L-433,358 L-430,368 L-427,371 L-414,394 L-412,396 L-411,400 L-409,400 L-406,409 L-400,420 L-394,434 L-387,455 L-385,455 L-383,470 L-380,479 L-378,495 L-378,524 L-379,535 L-381,535 L-386,551 L-389,559 L-392,566 L-395,579 L-398,587 L-401,599 L-406,611 L-413,625 L-418,632 L-423,637 L-427,640 L-427,642 L-419,646 L-415,646 L-415,648 L-402,654 L-394,656 L-381,656 L-369,653 L-353,645 L-344,638 L-334,625 L-326,611 L-321,598 L-310,575 L-300,549 L-295,535 L-291,525 L-291,522 L-289,522 L-286,515 L-286,512 L-288,512 L-288,509 L-283,509 L-285,500 L-297,469 L-314,419 L-319,403 L-323,390 L-326,380 L-328,380 L-328,372 L-330,361 L-332,361 L-333,345 L-335,344 L-338,328 L-341,307 L-342,298 L-344,295 L-345,285 L-345,276 L-341,301 L-336,325 L-333,340 L-323,375 L-321,385 L-309,421 L-295,461 L-278,507 L-275,515 L-267,533 L-259,549 L-249,569 L-239,588 L-232,608 L-230,615 L-234,609 L-242,593 L-249,577 L-252,576 L-255,567 L-259,559 L-261,559 L-261,566 L-259,575 L-257,593 L-255,593 L-256,686 L-257,710 L-259,728 L-260,744 L-265,776 L-269,802 L-272,813 L-279,849 L-286,874 L-296,904 L-303,921 L-303,923 L-295,927 L-281,930 L-264,932 L-162,932 L-141,931 L-103,930 L-52,926 L-15,921 L27,913 L68,904 L114,893 L131,888 L143,885 L151,882 L164,879 L181,874 L190,870 L216,861 L236,852 L249,844 L263,834 L263,822 L261,815 L257,806 L247,787 L238,773 L235,765 L223,744 L219,735 L206,708 L197,686 L192,669 L187,657 L180,634 L177,625 L176,617 L174,611 L169,583 L165,567 L163,550 L162,525 L162,459 L163,445 L163,393 L164,386 L165,359 L168,323 L171,290 L171,244 L170,242 L167,214 L163,200 L161,188 L159,180 L158,173 L160,173 L161,179 L164,188 L168,202 L172,216 L174,222 L177,240 L178,241 L188,243 L204,251 L232,264 L253,272 L278,279 L307,288 L330,295 L341,300 L347,300 L348,303 L378,309 L380,310 L388,310 L388,312 L391,313 L416,314 L422,315 L444,315 L456,311 L466,305 L479,294 L485,287 L492,275 L492,272 L494,272 L497,265 L497,261 L466,261 L459,259 L434,251 L422,245 L420,245 L420,243 L406,235 L397,228 L387,219 L380,211 L378,211 L377,207 L371,199 L369,198 L367,193 L364,190 L360,180 L357,173 L357,136 L350,132 L337,121 L327,112 L305,98 L288,87 L266,72 L253,62 L233,49 L223,44 L214,41 L208,38 L195,34 L178,29 L165,26 L163,25 L133,23 L95,21 L66,17 L28,9 L24,9 L24,7 L7,3 Z M187,271 L188,274 Z " fill="#343638" transform="translate(1307,1053)"/>
<path d="M0,0 L13,1 L40,5 L58,9 L92,14 L100,15 L129,17 L137,17 L149,18 L162,19 L183,24 L201,29 L222,37 L238,45 L250,52 L265,63 L280,74 L294,83 L315,96 L317,97 L317,99 L321,100 L333,108 L337,111 L337,113 L340,114 L340,116 L344,118 L355,127 L362,134 L362,156 L364,173 L370,185 L380,200 L389,210 L399,220 L409,228 L424,238 L445,248 L461,252 L474,254 L475,250 L476,247 L478,247 L478,244 L480,244 L482,239 L484,239 L485,234 L488,231 L492,232 L499,235 L504,242 L506,253 L504,263 L501,278 L497,286 L495,286 L493,290 L482,301 L480,301 L480,303 L475,308 L472,309 L470,314 L466,317 L464,317 L464,319 L453,323 L446,323 L444,322 L444,324 L431,323 L428,324 L396,321 L357,312 L342,309 L327,302 L314,297 L300,293 L271,284 L255,280 L246,277 L237,273 L222,265 L207,258 L197,254 L184,250 L183,246 L172,245 L169,242 L166,214 L162,200 L160,188 L158,180 L158,173 L160,173 L164,184 L169,202 L173,216 L175,222 L178,240 L188,242 L204,250 L232,263 L253,271 L278,278 L307,287 L330,294 L341,299 L347,300 L348,302 L378,308 L388,310 L388,312 L416,313 L422,314 L444,314 L456,310 L466,304 L479,293 L484,287 L491,275 L492,272 L494,272 L495,268 L497,261 L494,262 L466,262 L459,260 L434,252 L420,245 L420,243 L414,241 L405,235 L397,229 L386,219 L380,212 L378,211 L374,204 L371,201 L371,199 L368,198 L367,194 L363,190 L359,180 L356,173 L356,156 L357,136 L353,135 L339,124 L332,117 L322,110 L305,99 L288,88 L266,73 L253,63 L233,50 L223,45 L214,42 L208,39 L195,35 L178,30 L165,27 L163,26 L133,24 L95,22 L66,18 L24,9 L24,7 L15,6 L1,3 L0,9 L-5,19 L-17,36 L-29,50 L-42,62 L-59,74 L-82,85 L-97,89 L-108,91 L-133,91 L-154,87 L-174,80 L-191,72 L-207,61 L-220,49 L-232,34 L-238,25 L-242,26 L-258,34 L-275,42 L-292,48 L-325,59 L-345,67 L-350,70 L-358,73 L-369,81 L-374,81 L-375,84 L-377,84 L-376,79 L-366,71 L-356,65 L-340,58 L-327,53 L-300,43 L-286,38 L-269,32 L-261,29 L-250,24 L-240,20 L-236,21 L-226,34 L-211,49 L-198,58 L-182,67 L-164,75 L-145,81 L-134,83 L-118,84 L-101,82 L-84,77 L-65,68 L-53,60 L-42,51 L-38,49 L-37,46 L-35,46 L-35,44 L-33,44 L-31,40 L-22,30 L-9,11 L-2,1 Z " fill="#131414" transform="translate(1307,1053)"/>
<path d="M0,0 L2,1 L2,3 L9,3 L13,4 L14,7 L23,10 L25,12 L24,17 L23,28 L23,31 L23,40 L22,45 L19,44 L19,39 L21,39 L18,35 L17,39 L15,39 L15,32 L15,28 L17,28 L15,23 L16,17 L17,15 L12,17 L11,24 L10,40 L10,61 L12,61 L15,73 L14,84 L11,85 L10,87 L9,81 L8,84 L6,111 L7,114 L6,123 L4,127 L5,128 L5,140 L4,145 L4,160 L2,174 L1,175 L0,226 L0,257 L2,298 L6,334 L11,360 L22,404 L35,440 L42,459 L58,492 L68,513 L81,536 L91,554 L94,564 L95,575 L93,576 L89,572 L87,566 L76,545 L67,531 L64,523 L52,502 L48,493 L35,466 L26,444 L21,427 L16,415 L9,392 L6,383 L5,375 L3,369 L-2,341 L-6,325 L-8,308 L-9,283 L-9,217 L-8,203 L-8,151 L-7,144 L-6,117 L-3,81 L0,48 Z M17,29 L18,32 Z " fill="#3B3E40" transform="translate(1477,1295)"/>
<path d="M0,0 L4,5 L5,20 L7,37 L13,49 L23,64 L32,74 L42,84 L52,92 L67,102 L88,112 L104,116 L117,118 L118,114 L119,111 L121,111 L121,108 L123,108 L125,103 L127,103 L128,98 L131,95 L135,96 L142,99 L147,106 L149,117 L147,127 L144,142 L140,150 L138,150 L136,154 L125,165 L123,165 L123,167 L118,172 L115,173 L113,178 L109,181 L107,181 L107,183 L96,187 L89,187 L87,186 L87,188 L74,187 L71,188 L39,185 L0,176 L-15,173 L-30,166 L-43,161 L-57,157 L-86,148 L-102,144 L-111,141 L-120,137 L-135,129 L-150,122 L-160,118 L-173,114 L-174,110 L-185,109 L-188,106 L-191,78 L-195,64 L-197,52 L-199,44 L-199,37 L-197,37 L-193,48 L-188,66 L-184,80 L-182,86 L-179,104 L-169,106 L-153,114 L-125,127 L-104,135 L-79,142 L-50,151 L-27,158 L-16,163 L-10,164 L-9,166 L21,172 L31,174 L31,176 L59,177 L65,178 L87,178 L99,174 L109,168 L122,157 L127,151 L134,139 L135,136 L137,136 L138,132 L140,125 L137,126 L109,126 L102,124 L77,116 L63,109 L63,107 L57,105 L48,99 L40,93 L29,83 L23,76 L21,75 L17,68 L14,65 L14,63 L11,62 L10,58 L6,54 L2,44 L-1,37 L-1,20 Z " fill="#1B1D1D" transform="translate(1664,1189)"/>
<path d="M0,0 L2,1 L2,3 L9,3 L13,4 L14,7 L23,10 L25,12 L24,17 L23,28 L23,31 L23,40 L22,45 L19,44 L19,39 L21,39 L18,35 L17,39 L15,39 L15,32 L15,28 L17,28 L15,23 L16,17 L17,15 L12,17 L11,24 L10,40 L10,61 L12,61 L15,73 L14,84 L11,85 L10,87 L9,81 L8,84 L6,111 L7,114 L6,123 L3,127 L1,127 L1,141 L-1,162 L-2,168 L-2,195 L-3,202 L-5,203 L-7,202 L-7,152 L-6,117 L-3,81 L0,48 Z M17,29 L18,32 Z " fill="#2B2C2D" transform="translate(1477,1295)"/>
<path d="M0,0 L16,2 L39,8 L54,13 L70,19 L86,27 L98,34 L113,45 L128,56 L142,65 L163,78 L165,79 L165,81 L169,82 L181,90 L185,93 L185,95 L188,96 L188,98 L192,100 L203,109 L210,116 L209,123 L206,121 L206,118 L201,117 L187,106 L180,99 L170,92 L153,81 L136,70 L114,55 L101,45 L81,32 L71,27 L62,24 L56,21 L43,17 L26,12 L13,9 L11,8 L2,7 L-4,5 L-3,1 Z " fill="#0C0C0C" transform="translate(1459,1071)"/>
<path d="M0,0 L1,0 L1,8 L-3,23 L-7,37 L-10,46 L-16,62 L-22,83 L-31,103 L-37,111 L-41,109 L-49,101 L-47,96 L-37,78 L-36,73 L-27,58 L-22,49 L-15,39 L-13,33 L-8,23 L-5,12 L-3,7 L-1,6 Z " fill="#C7CACC" transform="translate(922,1569)"/>
<path d="M0,0 L3,0 L2,11 L-2,24 L-5,29 L-9,39 L-21,63 L-29,83 L-38,104 L-43,114 L-45,112 L-49,115 L-47,110 L-42,101 L-37,88 L-26,65 L-16,39 L-11,25 L-7,15 L-6,12 L-4,12 L-3,7 L-2,5 L0,5 Z " fill="#343536" transform="translate(1022,1563)"/>
<path d="M0,0 L2,0 L6,11 L11,29 L15,43 L17,49 L20,67 L28,68 L28,69 L19,69 L17,67 L12,66 L11,69 L8,41 L4,27 L2,15 L0,7 Z " fill="#2A2B2B" transform="translate(1465,1226)"/>
<path d="M0,0 L11,3 L17,6 L17,11 L15,17 L15,23 L15,26 L15,35 L14,40 L11,39 L11,34 L13,34 L10,30 L9,34 L7,34 L7,27 L7,23 L9,23 L7,18 L8,12 L9,10 L4,12 L3,19 L1,44 L0,44 Z M9,24 L10,27 Z " fill="#FAFAFA" transform="translate(1485,1300)"/>
<path d="M0,0 L2,1 L6,26 L11,50 L14,65 L24,100 L24,104 L21,104 L20,108 L20,105 L18,105 L16,94 L16,86 L14,86 L13,83 L13,70 L10,69 L7,53 L4,32 L3,23 L1,20 L0,10 Z " fill="#5A5B5C" transform="translate(961,1328)"/>
<path d="M0,0 L5,0 L7,5 L11,7 L19,14 L24,16 L23,20 L19,23 L12,25 L4,20 L1,10 Z " fill="#6C7779" transform="translate(859,1667)"/>
<path d="M0,0 L3,0 L5,0 L8,12 L7,23 L4,24 L3,26 L2,20 L1,23 L-1,50 L0,53 L-1,62 L-5,64 L-4,43 L-3,32 L-2,30 Z " fill="#DFE0E0" transform="translate(1484,1356)"/>
<path d="M0,0 L1,3 L4,0 L8,1 L1,7 L-1,7 L-3,12 L-6,15 L-12,26 L-13,30 L-15,30 L-16,36 L-18,38 L-17,29 L-20,29 L-19,25 L-11,11 L-9,11 L-7,5 L-5,5 L-3,1 Z " fill="#9E9F9F" transform="translate(929,1134)"/>
<path d="M0,0 L3,1 L2,6 L-4,21 L-13,42 L-18,52 L-20,50 L-24,53 L-22,48 L-17,39 L-12,26 L-1,3 Z " fill="#3F4040" transform="translate(997,1625)"/>
<path d="M0,0 L3,4 L10,20 L14,32 L16,37 L15,40 L11,35 L3,19 L-4,3 Z " fill="#525556" transform="translate(1062,1629)"/>
<path d="M0,0 L5,1 L6,11 L4,18 L-2,21 L-8,21 L-9,17 L-4,13 L-3,11 L-1,11 L-1,2 Z " fill="#61696B" transform="translate(1797,1288)"/>
<path d="M0,0 L5,4 L9,6 L2,17 L-2,17 L-11,8 L-10,6 L-4,6 L-4,4 L-2,4 Z " fill="#B6BBBE" transform="translate(884,1662)"/>
<path d="M0,0 L4,1 L4,13 L3,18 L3,33 L2,43 L0,45 L-1,41 L-1,14 Z " fill="#DADDDE" transform="translate(1478,1422)"/>
<path d="M0,0 L2,1 L1,7 L-7,10 L-18,18 L-23,18 L-24,21 L-26,21 L-25,16 L-15,8 L-5,2 Z " fill="#090909" transform="translate(956,1116)"/>
<path d="M0,0 L2,3 L7,18 L9,21 L9,25 L4,25 L4,36 L2,38 L-2,37 L0,32 L1,22 L-1,22 L0,15 L1,14 L1,7 Z " fill="#484E4F" transform="translate(1025,1549)"/>
<path d="M0,0 L2,0 L3,3 L6,5 L6,10 L8,10 L8,16 L5,21 L3,27 L1,27 L0,24 L-1,1 Z " fill="#F6F6FB" transform="translate(1492,1339)"/>
<path d="M0,0 L2,0 L6,6 L9,9 L15,11 L9,19 L5,18 L-2,7 L-2,2 Z " fill="#BBBEBE" transform="translate(857,1686)"/>
<path d="M0,0 L2,0 L5,12 L4,23 L1,24 L0,26 L-1,20 L-3,21 L-2,4 Z " fill="#F2F4F5" transform="translate(1487,1356)"/>
<path d="M0,0 L1,0 L2,16 L3,22 L2,23 L1,51 L-1,50 L-2,13 Z " fill="#808586" transform="translate(1476,1447)"/>
<path d="M0,0 L6,2 L7,5 L6,7 L4,6 L5,3 L2,3 L3,8 L1,11 L3,11 L2,35 L1,44 L0,44 Z " fill="#D0D0D0" transform="translate(1485,1300)"/>
<path d="M0,0 L1,4 L-5,20 L-12,31 L-16,36 L-20,34 L-29,25 L-28,21 L-26,25 L-18,33 L-16,33 L-9,22 L-2,6 Z " fill="#525657" transform="translate(901,1646)"/>
<path d="M0,0 L2,1 L6,26 L8,34 L7,38 L5,41 L3,23 L1,20 L0,10 Z " fill="#656666" transform="translate(961,1328)"/>
<path d="M0,0 L5,0 L7,2 L18,3 L19,7 L13,9 L13,7 L2,6 L0,3 Z " fill="#18191A" transform="translate(1477,1292)"/>
<path d="M0,0 L2,0 L6,11 L7,19 L5,19 L6,30 L4,27 L2,15 L0,7 Z " fill="#3E3F40" transform="translate(1465,1226)"/>
<path d="M0,0 L1,0 L1,8 L-3,23 L-5,31 L-7,31 L-7,25 L-8,23 L-5,12 L-3,7 L-1,6 Z " fill="#CED0D7" transform="translate(922,1569)"/>
<path d="M0,0 L2,2 L2,5 L4,5 L7,15 L7,19 L4,19 L3,23 L3,20 L1,20 Z " fill="#696B6C" transform="translate(978,1413)"/>
<path d="M0,0 L1,3 L4,0 L8,1 L1,7 L-5,10 L-9,12 L-8,6 L-5,5 L-3,1 Z " fill="#2C2C2C" transform="translate(929,1134)"/>
<path d="M0,0 L4,1 L-3,4 L-10,7 L-17,9 L-25,7 L-25,6 Z " fill="#6A7070" transform="translate(939,1710)"/>
<path d="M0,0 L3,1 L1,6 L1,15 L0,17 L3,18 L2,32 L0,34 L-1,30 L-1,3 Z " fill="#C3C5CF" transform="translate(1478,1433)"/>
<path d="M0,0 L3,0 L5,11 L5,19 L1,20 L-3,19 L1,17 Z " fill="#434647" transform="translate(1569,1870)"/>
<path d="M0,0 L1,0 L1,8 L-3,19 L-7,28 L-9,32 L-10,39 L-12,39 L-10,28 L-7,20 L-4,14 Z " fill="#888C8D" transform="translate(926,1588)"/>
<path d="M0,0 L6,1 L10,4 L16,6 L31,14 L31,15 L24,14 L9,6 L1,2 Z " fill="#717D7E" transform="translate(872,1698)"/>
<path d="M0,0 L7,0 L33,6 L37,8 L33,9 L20,6 L1,2 Z " fill="#A4A8A8" transform="translate(1654,1354)"/>
<path d="M0,0 L3,1 L2,6 L-4,21 L-6,23 L-5,18 L-5,16 L-6,14 Z " fill="#434444" transform="translate(997,1625)"/>
<path d="M0,0 L1,0 L5,13 L8,31 L16,32 L16,33 L7,33 L5,31 L3,18 L1,9 L0,8 Z " fill="#646565" transform="translate(1477,1262)"/>
<path d="M0,0 L2,1 L0,34 L-2,34 L-2,40 L-3,40 L-3,32 L-2,30 Z " fill="#7E8080" transform="translate(1484,1356)"/>
<path d="M0,0 L2,3 L2,16 L1,16 L0,31 L-1,31 L-1,11 Z " fill="#4D5959" transform="translate(1484,1341)"/>
<path d="M0,0 L2,2 L3,5 L3,13 L1,15 L-3,14 L-1,9 Z " fill="#D1D1D2" transform="translate(1026,1572)"/>
<path d="M0,0 L3,0 L4,5 L1,17 L0,17 L-1,2 Z " fill="#FFFFFF" transform="translate(1487,1386)"/>
<path d="M0,0 L3,1 L3,10 L-1,9 L-2,11 L-4,9 Z " fill="#CED2D8" transform="translate(913,1593)"/>
<path d="M0,0 L10,0 L10,2 L35,2 L35,3 L7,3 L0,1 Z " fill="#5B5E5F" transform="translate(1766,1312)"/>
<path d="M0,0 L8,1 L6,6 L1,5 L-1,6 L-2,1 Z " fill="#C0C8CB" transform="translate(887,1661)"/>
<path d="M0,0 L2,0 L3,3 L6,5 L6,10 L4,8 L5,6 L0,10 L-1,9 L-1,1 Z " fill="#FFFFFF" transform="translate(1492,1339)"/>
<path d="M0,0 L2,0 L5,7 L4,11 L2,15 L0,7 Z " fill="#5F6061" transform="translate(1465,1226)"/>
<path d="M0,0 L2,4 L-1,9 L-3,7 L-7,10 L-5,5 L-2,1 Z " fill="#505152" transform="translate(980,1668)"/>
<path d="M0,0 L2,1 L3,5 L3,14 L2,20 L1,20 L0,10 Z " fill="#8D8E8F" transform="translate(961,1328)"/>
<path d="M0,0 L3,0 L2,7 L0,8 L1,2 L-23,2 L-23,1 Z " fill="#B0B4B5" transform="translate(1801,1314)"/>
<path d="M0,0 L1,2 L-5,10 L-11,17 L-14,17 L-13,14 L-8,9 L-3,4 Z " fill="#B0B6B7" transform="translate(894,1678)"/>
<path d="M0,0 L3,1 L2,6 L-3,7 L-5,6 L-3,2 Z " fill="#B6B8C2" transform="translate(879,1662)"/>
<path d="M0,0 L4,4 L6,4 L7,11 L5,8 L5,18 L3,15 L3,7 L1,7 Z " fill="#6D6F70" transform="translate(974,1407)"/>
<path d="M0,0 L5,0 L8,3 L8,6 L2,6 L0,3 Z " fill="#070808" transform="translate(1477,1292)"/>
<path d="M0,0 L3,3 L3,5 L7,7 L15,14 L12,14 L2,7 L0,4 Z " fill="#495052" transform="translate(863,1667)"/>
<path d="M0,0 L2,2 L4,9 L3,16 L1,12 L0,8 Z " fill="#2A2B2C" transform="translate(978,1413)"/>
<path d="M0,0 L1,4 L-2,8 L-6,4 L-7,6 L-8,2 L-4,1 L-1,3 Z " fill="#B9C0C4" transform="translate(911,1611)"/>
<path d="M0,0 L1,0 L2,16 L3,22 L0,24 Z " fill="#9F9F9F" transform="translate(1476,1447)"/>
<path d="M0,0 L3,1 L2,11 L0,13 L-1,9 L-1,1 Z " fill="#F0F3F3" transform="translate(1478,1454)"/>
<path d="M0,0 L1,3 L-3,11 L-6,12 L-5,7 L-3,3 Z " fill="#313232" transform="translate(993,1638)"/>
<path d="M0,0 L4,0 L1,9 L-2,13 L-1,8 L-1,6 L-2,4 Z " fill="#797A7A" transform="translate(993,1635)"/>
<path d="M0,0 L1,0 L1,8 L-1,14 L-5,15 L-4,11 L-2,7 Z " fill="#949494" transform="translate(922,1569)"/>
<path d="M0,0 L2,0 L0,11 L-1,8 L-4,8 L-3,4 Z " fill="#696969" transform="translate(913,1155)"/>
<path d="M0,0 L3,4 L1,5 L2,9 L-2,10 L-2,7 Z " fill="#DCDCDE" transform="translate(886,1642)"/>
<path d="M0,0 L2,1 L2,11 L-1,11 L-1,1 Z " fill="#F9FFFF" transform="translate(1479,1439)"/>
<path d="M0,0 L2,0 L-1,15 L-4,19 L-2,7 L0,2 L-2,1 Z " fill="#868787" transform="translate(915,1153)"/>
<path d="M0,0 L3,0 L2,5 L1,7 L-1,7 L-3,5 L-3,1 Z " fill="#BFC1C4" transform="translate(912,1602)"/>
<path d="M0,0 L15,0 L13,2 L8,3 L0,1 Z " fill="#9C9D9D" transform="translate(914,1716)"/>
<path d="M0,0 L2,1 L2,3 L6,5 L8,7 L13,8 L9,10 L1,5 Z " fill="#4D5456" transform="translate(862,1682)"/>
<path d="M0,0 L1,3 L3,3 L4,10 L2,11 L0,8 Z " fill="#3F4041" transform="translate(975,1401)"/>
<path d="M0,0 L3,0 L2,5 L0,9 L-2,9 L-2,5 L0,5 Z " fill="#171819" transform="translate(1022,1563)"/>
<path d="M0,0 L2,1 L-2,5 L-8,7 L-8,5 Z " fill="#3A4042" transform="translate(960,1698)"/>
<path d="M0,0 L3,2 L-2,10 L-3,10 L-2,3 L0,3 Z " fill="#ABB4B5" transform="translate(890,1666)"/>
<path d="M0,0 L1,2 L-3,11 L-6,13 L-4,7 Z " fill="#AAAEAF" transform="translate(902,1663)"/>
<path d="M0,0 L2,0 L1,11 L-1,10 L-1,5 L-2,3 Z " fill="#EBECEC" transform="translate(1495,1345)"/>
<path d="M0,0 L5,1 L4,5 L0,8 L-3,7 L2,5 L2,1 Z " fill="#4B5354" transform="translate(878,1682)"/>
<path d="M0,0 L2,0 L4,6 L2,11 L0,7 Z " fill="#C1C4C5" transform="translate(1046,1612)"/>
<path d="M0,0 L1,3 L-1,5 L1,7 L-5,7 L-4,3 Z " fill="#5E6668" transform="translate(1793,1301)"/>
<path d="M0,0 L3,0 L4,8 L3,6 L0,7 Z " fill="#262728" transform="translate(1470,1245)"/>
<path d="M0,0 L1,0 L1,10 L-1,10 L-1,16 L-2,16 L-2,8 Z " fill="#ACADAD" transform="translate(1483,1380)"/>
<path d="M0,0 L3,1 L-4,9 L-6,8 L-4,4 L-2,4 Z " fill="#D3D3D3" transform="translate(926,1135)"/>
<path d="M0,0 L5,1 L3,5 L-1,3 L-2,1 Z " fill="#ABADAD" transform="translate(882,1675)"/>
<path d="M0,0 L2,0 L2,5 L-3,7 Z " fill="#CBD5D7" transform="translate(902,1615)"/>
<path d="M0,0 L1,0 L1,9 L-2,15 L-3,13 L-1,7 Z " fill="#9EA1A1" transform="translate(860,1360)"/>
<path d="M0,0 L4,0 L2,6 L-1,6 Z " fill="#2D2F2F" transform="translate(999,1620)"/>
<path d="M0,0 L10,0 L10,2 L13,3 L7,3 L0,1 Z " fill="#797C7D" transform="translate(1766,1312)"/>
<path d="M0,0 L4,1 L-3,7 L-5,6 L-1,4 Z " fill="#626262" transform="translate(933,1134)"/>
<path d="M0,0 L5,0 L10,4 L3,3 Z " fill="#5C6C6D" transform="translate(893,1709)"/>
<path d="M0,0 L4,2 L-1,8 L-3,7 L-3,5 L-1,5 Z " fill="#CACFCF" transform="translate(868,1696)"/>
<path d="M0,0 L1,0 L1,8 L-3,12 L-3,7 L-1,7 Z " fill="#2F3434" transform="translate(1474,1490)"/>
<path d="M0,0 L2,0 L3,8 L0,7 Z " fill="#444546" transform="translate(1465,1226)"/>
<path d="M0,0 L5,1 L4,6 L-1,1 Z " fill="#AAB2B2" transform="translate(874,1668)"/>
<path d="M0,0 L3,1 L3,4 L5,5 L2,5 L-2,3 Z " fill="#D0D3D4" transform="translate(889,1637)"/>
<path d="M0,0 L1,3 L0,5 L2,5 L2,7 L0,7 L-1,9 L-3,7 Z " fill="#DFE0E0" transform="translate(912,1595)"/>
<path d="M0,0 L3,1 L3,8 L0,7 Z M1,8 Z " fill="#FFFFFF" transform="translate(1479,1422)"/>
<path d="M0,0 L7,0 L10,3 L1,2 Z " fill="#8D9090" transform="translate(1654,1354)"/>
<path d="M0,0 L5,2 L6,5 L0,3 Z " fill="#585F60" transform="translate(865,1692)"/>
<path d="M0,0 L3,3 L5,4 L0,5 L-2,4 Z " fill="#CBD1D1" transform="translate(876,1664)"/>
<path d="M0,0 L2,0 L1,8 L-1,6 L-1,3 L-3,2 L0,2 Z " fill="#BCC4C5" transform="translate(902,1634)"/>
<path d="M0,0 L4,1 L3,8 L1,8 L1,2 Z " fill="#C2C5C6" transform="translate(914,1592)"/>
<path d="M0,0 L2,0 L3,8 L1,8 Z " fill="#222424" transform="translate(982,1432)"/>
<path d="M0,0 L3,0 L4,4 L0,6 Z " fill="#C0C0CF" transform="translate(1479,1414)"/>
<path d="M0,0 L2,0 L2,2 L0,2 Z " fill="#BFBFFF" transform="translate(1491,1336)"/>
<path d="M0,0 L2,1 Z " fill="#000000" transform="translate(1478,1506)"/>
<path d="M0,0 Z " fill="#FFFFFF" transform="translate(941,1721)"/>
<path d="M0,0 Z " fill="#000000" transform="translate(990,1653)"/>
<path d="M0,0 Z " fill="#000000" transform="translate(995,1643)"/>
<path d="M0,0 Z " fill="#000000" transform="translate(1000,1632)"/>
<path d="M0,0 Z " fill="#FFFFFF" transform="translate(1493,1387)"/>
</svg>
