<?xml version="1.0" encoding="UTF-8"?>
<svg version="1.1" xmlns="http://www.w3.org/2000/svg" width="2500" height="3686">
<path d="M0,0 L3,0 L3,2 L5,2 L9,8 L14,13 L14,15 L18,16 L22,20 L22,22 L26,23 L26,27 L23,30 L24,34 L30,30 L33,29 L40,29 L48,36 L51,39 L58,36 L64,37 L71,45 L71,47 L74,48 L77,52 L85,54 L95,54 L102,62 L105,65 L108,71 L112,56 L119,48 L125,49 L129,45 L128,59 L126,71 L124,70 L123,55 L123,78 L125,78 L123,112 L127,113 L127,118 L128,116 L131,115 L134,112 L135,112 L133,81 L133,61 L134,52 L135,50 L142,50 L143,48 L146,48 L146,45 L141,47 L139,48 L139,43 L137,43 L136,46 L130,44 L135,39 L141,36 L150,36 L154,34 L159,34 L164,39 L172,49 L178,58 L189,75 L190,82 L188,88 L196,99 L198,102 L198,109 L196,114 L202,124 L204,129 L203,136 L204,145 L199,151 L203,156 L207,166 L209,174 L214,181 L216,190 L213,197 L212,199 L217,208 L218,216 L215,221 L208,226 L195,229 L193,231 L194,236 L197,244 L196,247 L198,247 L196,252 L191,255 L189,258 L187,258 L186,261 L180,266 L178,266 L177,272 L173,274 L171,278 L166,283 L163,284 L161,288 L153,288 L144,291 L139,293 L139,302 L134,307 L126,314 L113,322 L93,336 L86,340 L70,351 L64,354 L58,354 L46,349 L44,348 L36,351 L33,352 L32,356 L21,361 L19,361 L19,363 L11,367 L6,371 L-5,375 L-13,376 L-18,378 L-17,372 L-24,375 L-30,373 L-32,373 L-35,374 L-42,369 L-49,367 L-69,366 L-78,364 L-83,361 L-93,360 L-110,358 L-129,358 L-135,360 L-144,360 L-154,354 L-163,346 L-167,340 L-175,336 L-189,322 L-195,313 L-190,302 L-186,285 L-181,277 L-178,274 L-176,274 L-175,267 L-173,263 L-171,263 L-169,257 L-163,248 L-157,237 L-157,234 L-156,230 L-153,230 L-153,226 L-151,226 L-150,221 L-144,212 L-137,199 L-131,190 L-128,185 L-118,180 L-114,177 L-110,178 L-110,180 L-107,179 L-109,173 L-110,161 L-108,157 L-106,157 L-103,148 L-100,144 L-95,143 L-86,126 L-83,118 L-81,110 L-75,97 L-73,83 L-66,75 L-60,70 L-55,67 L-55,64 L-58,61 L-60,56 L-60,51 L-51,43 L-40,37 L-30,31 L-21,30 L-18,31 L-16,23 L-9,17 L-7,12 L-7,6 L-2,4 Z M107,79 L104,82 L105,86 L105,94 L103,98 L103,109 L108,115 L113,113 L112,107 L109,92 L108,79 Z M-109,162 Z M-105,176 Z M-106,177 Z M-107,179 L-108,183 L-110,184 L-107,184 L-105,179 Z M-118,194 Z M-119,196 Z M-120,197 L-125,200 L-130,205 L-138,214 L-135,214 L-127,205 L-119,199 Z M-139,215 L-149,224 L-152,229 L-149,228 L-145,223 L-138,217 Z M-17,371 Z " fill="#291006" transform="translate(884,3160)"/>
<path d="M0,0 L3,1 L5,9 L7,12 L18,14 L25,10 L30,9 L35,12 L38,16 L38,18 L46,16 L53,16 L57,18 L59,12 L61,12 L67,24 L69,38 L69,50 L65,58 L64,61 L66,61 L72,69 L75,75 L77,85 L75,89 L71,93 L69,93 L69,123 L73,129 L76,140 L75,145 L71,149 L73,155 L73,161 L71,163 L78,161 L80,157 L82,136 L84,89 L86,84 L87,73 L89,77 L94,85 L93,89 L91,89 L92,96 L92,105 L90,121 L90,131 L88,159 L87,203 L89,256 L88,258 L78,258 L75,260 L75,269 L71,277 L69,277 L72,287 L73,289 L73,295 L68,301 L66,301 L66,352 L68,360 L70,366 L66,371 L64,371 L63,375 L55,378 L50,382 L45,381 L40,385 L31,391 L24,391 L21,390 L22,387 L28,384 L30,382 L31,372 L34,363 L33,357 L31,347 L27,349 L19,351 L13,353 L10,352 L9,354 L1,358 L-3,361 L-20,363 L-22,364 L-31,364 L-39,365 L-47,363 L-73,359 L-103,354 L-110,351 L-115,345 L-115,343 L-122,344 L-127,340 L-134,326 L-146,318 L-147,315 L-151,313 L-158,306 L-158,304 L-161,303 L-161,297 L-158,292 L-157,281 L-157,275 L-162,274 L-167,268 L-172,258 L-173,245 L-167,238 L-169,223 L-165,217 L-160,215 L-164,206 L-164,199 L-158,193 L-156,193 L-160,183 L-159,176 L-154,171 L-152,171 L-156,161 L-156,155 L-148,148 L-150,139 L-150,132 L-148,130 L-146,121 L-147,118 L-147,111 L-141,104 L-143,98 L-145,94 L-145,84 L-140,79 L-138,79 L-138,70 L-142,68 L-145,64 L-150,52 L-148,47 L-144,45 L-147,38 L-147,31 L-143,25 L-140,22 L-138,9 L-136,8 L-125,8 L-121,10 L-112,5 L-107,2 L-102,2 L-102,18 L-100,24 L-96,17 L-94,16 L-80,15 L-65,19 L-57,24 L-52,22 L-52,20 L-42,15 L-33,14 L-18,19 L-13,22 L-13,25 L-10,26 L-8,29 L-4,11 L-1,7 Z M-109,14 L-107,16 L-107,14 Z M26,20 Z M-97,30 L-97,32 L-94,31 Z M-100,32 L-101,35 L-99,35 Z M-3,33 L1,35 L3,34 L2,33 Z M7,35 Z M12,36 Z M89,89 Z " fill="#230C03" transform="translate(1396,3186)"/>
<path d="M0,0 L1,2 L0,14 L-2,26 L-4,25 L-5,10 L-5,33 L-3,33 L-5,67 L-1,68 L0,74 L-2,74 L-3,77 L-7,81 L8,73 L19,64 L23,59 L25,59 L27,49 L27,36 L25,26 L19,14 L19,9 L21,8 L29,14 L33,22 L36,25 L44,44 L47,51 L52,71 L52,75 L54,75 L61,108 L65,136 L65,143 L52,158 L47,164 L42,169 L30,182 L21,193 L16,198 L6,208 L-1,216 L-13,228 L-24,237 L-38,247 L-55,256 L-76,264 L-85,266 L-85,268 L-112,275 L-133,279 L-148,281 L-156,281 L-156,283 L-183,285 L-219,285 L-241,284 L-260,280 L-281,272 L-297,263 L-304,257 L-303,244 L-300,234 L-298,234 L-297,229 L-288,210 L-280,198 L-270,186 L-263,178 L-250,165 L-244,161 L-245,167 L-247,171 L-247,181 L-243,187 L-231,193 L-216,197 L-204,199 L-164,199 L-139,197 L-125,195 L-107,189 L-96,182 L-89,173 L-87,173 L-85,168 L-78,156 L-76,156 L-75,150 L-74,148 L-72,148 L-71,145 L-54,152 L-48,153 L-48,155 L-45,155 L-44,151 L-32,132 L-26,122 L-24,117 L-25,106 L-30,104 L-40,98 L-51,93 L-49,87 L-43,76 L-38,78 L-31,81 L-27,80 L-26,78 L-39,74 L-40,71 L-36,58 L-33,36 L-34,26 L-38,20 L-48,13 L-59,8 L-55,7 L-42,12 L-27,22 L-25,24 L-25,50 L-24,53 L-24,64 L-20,69 L-15,68 L-19,53 L-20,47 L-20,30 L-17,14 L-13,7 L-9,3 L-3,4 Z " fill="#852B08" transform="translate(1012,3205)"/>
<path d="M0,0 L5,0 L10,5 L18,15 L24,24 L35,41 L36,48 L34,54 L42,65 L44,68 L44,75 L42,80 L48,90 L50,95 L49,102 L50,111 L45,117 L49,122 L53,132 L55,140 L60,147 L62,156 L59,163 L58,165 L63,174 L64,182 L61,187 L54,192 L41,195 L39,197 L40,202 L43,210 L42,213 L44,213 L42,218 L37,221 L35,224 L33,224 L32,227 L26,232 L24,232 L23,238 L19,240 L17,244 L12,249 L9,250 L7,254 L-1,254 L-10,257 L-15,259 L-15,268 L-20,273 L-28,280 L-41,288 L-61,302 L-68,306 L-84,317 L-90,320 L-96,320 L-108,315 L-110,314 L-118,317 L-121,318 L-122,322 L-133,327 L-135,327 L-135,329 L-143,333 L-148,337 L-159,341 L-167,342 L-172,344 L-171,338 L-178,341 L-184,339 L-186,339 L-189,340 L-196,335 L-203,333 L-223,332 L-232,330 L-237,327 L-247,326 L-264,324 L-283,324 L-289,326 L-298,326 L-308,320 L-317,312 L-321,306 L-329,302 L-343,288 L-349,279 L-344,268 L-340,251 L-335,243 L-332,240 L-330,240 L-329,233 L-327,229 L-325,229 L-323,223 L-317,214 L-311,203 L-311,200 L-310,196 L-307,196 L-307,192 L-305,192 L-304,187 L-298,178 L-291,165 L-285,156 L-282,151 L-272,146 L-268,143 L-264,144 L-264,146 L-261,145 L-263,150 L-260,146 L-259,142 L-260,138 L-253,133 L-250,130 L-246,131 L-249,136 L-249,141 L-244,135 L-240,133 L-242,138 L-246,144 L-244,144 L-246,149 L-253,158 L-255,158 L-257,163 L-263,175 L-263,185 L-259,191 L-253,195 L-239,200 L-226,202 L-195,203 L-195,204 L-235,204 L-252,199 L-261,193 L-265,188 L-267,182 L-269,181 L-268,192 L-264,196 L-253,201 L-237,205 L-230,206 L-191,206 L-164,204 L-148,201 L-144,201 L-144,199 L-132,195 L-128,194 L-129,199 L-144,205 L-157,208 L-175,210 L-190,211 L-230,211 L-251,207 L-266,201 L-271,196 L-274,192 L-274,182 L-271,173 L-284,185 L-294,195 L-304,208 L-311,218 L-321,237 L-324,245 L-326,245 L-328,255 L-329,268 L-318,276 L-302,284 L-286,290 L-267,294 L-245,295 L-209,295 L-193,294 L-182,294 L-182,292 L-147,287 L-122,281 L-111,279 L-111,277 L-88,269 L-71,261 L-58,253 L-44,242 L-31,230 L-22,221 L-15,213 L-8,205 L-3,200 L10,186 L19,175 L24,170 L34,159 L38,154 L37,139 L32,108 L28,90 L28,86 L26,86 L22,69 L18,56 L14,48 L9,36 L9,34 L5,32 L2,25 L-5,20 L-6,20 L-5,28 L1,40 L2,47 L2,60 L-1,70 L-6,75 L-14,82 L-27,90 L-33,92 L-31,88 L-26,83 L-21,78 L-19,78 L-21,47 L-21,27 L-20,18 L-19,16 L-12,16 L-11,14 L-8,14 L-8,11 L-13,13 L-15,14 L-15,9 L-17,9 L-18,12 L-24,10 L-19,5 L-13,2 L-4,2 Z M-272,160 Z M-273,162 Z M-274,163 L-279,166 L-284,171 L-292,180 L-289,180 L-281,171 L-273,165 Z M-293,181 L-303,190 L-306,195 L-303,194 L-299,189 L-292,183 Z M-171,337 Z " fill="#1F0B03" transform="translate(1038,3194)"/>
<path d="M0,0 L7,0 L9,2 L3,6 L-3,14 L-6,26 L-7,33 L-7,48 L-4,64 L-2,69 L1,92 L1,99 L-7,110 L-18,141 L-21,151 L-15,148 L-4,138 L9,129 L13,129 L19,150 L26,168 L35,180 L44,186 L51,188 L59,189 L81,190 L93,190 L108,188 L115,184 L122,174 L126,163 L127,160 L129,160 L130,151 L136,132 L138,132 L136,141 L125,180 L118,189 L106,194 L72,194 L55,193 L43,190 L34,184 L28,177 L21,165 L15,146 L12,135 L12,131 L10,131 L16,159 L23,175 L29,185 L36,191 L48,196 L71,199 L97,199 L110,197 L119,193 L124,188 L130,176 L138,145 L139,136 L143,135 L158,149 L163,157 L167,168 L168,177 L170,177 L170,180 L172,180 L170,159 L167,119 L162,106 L153,96 L149,93 L150,83 L154,66 L157,61 L159,51 L159,33 L157,20 L155,20 L152,12 L150,8 L156,10 L162,15 L168,25 L172,42 L173,54 L173,160 L176,193 L176,215 L172,234 L167,246 L158,260 L149,270 L134,280 L119,286 L107,289 L85,291 L60,291 L45,289 L37,287 L37,285 L28,283 L15,278 L0,268 L-11,258 L-20,244 L-27,230 L-32,208 L-32,186 L-27,162 L-16,122 L-11,97 L-11,77 L-12,45 L-12,26 L-9,10 L-3,2 Z " fill="#7F2B0A" transform="translate(1279,3206)"/>
<path d="M0,0 L39,0 L77,4 L87,6 L105,12 L110,16 L114,24 L114,44 L111,58 L109,76 L104,74 L105,67 L108,51 L108,47 L106,47 L105,55 L102,71 L97,70 L87,66 L70,62 L62,61 L57,59 L21,59 L2,62 L-13,67 L-16,71 L7,65 L19,63 L48,63 L72,67 L93,73 L104,79 L114,86 L121,94 L126,105 L128,119 L129,129 L129,139 L125,134 L117,125 L106,117 L106,115 L100,113 L100,110 L93,109 L78,103 L62,99 L54,97 L19,97 L0,100 L-17,105 L-23,106 L-23,108 L-30,111 L-43,121 L-53,131 L-54,129 L-48,109 L-46,100 L-37,89 L-26,78 L-23,75 L-29,75 L-29,77 L-35,81 L-38,52 L-38,31 L-34,18 L-30,13 L-21,6 L-10,2 Z " fill="#7D2E0F" transform="translate(1317,3221)"/>
<path d="M0,0 L18,0 L37,3 L58,9 L66,11 L77,16 L96,26 L91,38 L89,38 L88,43 L81,55 L74,62 L60,69 L51,70 L51,72 L23,76 L9,77 L-30,77 L-44,73 L-54,68 L-59,62 L-60,60 L-60,50 L-53,36 L-46,28 L-37,16 L-28,6 L-26,3 Z " fill="#8B3C1D" transform="translate(834,3319)"/>
<path d="M0,0 L25,1 L46,4 L58,6 L58,8 L66,9 L82,17 L90,22 L92,24 L93,28 L93,39 L91,53 L85,75 L80,89 L74,88 L54,80 L40,75 L21,70 L-21,65 L-49,64 L-43,48 L-36,23 L-32,15 L-24,10 L-19,9 L14,9 L39,12 L64,18 L72,22 L72,24 L77,26 L83,33 L85,37 L85,51 L82,66 L76,85 L78,85 L80,76 L87,51 L87,40 L83,31 L79,26 L73,21 L60,15 L54,13 L15,8 L-1,7 L-20,7 L-29,10 L-36,18 L-39,29 L-41,29 L-43,45 L-48,59 L-50,59 L-51,61 L-50,48 L-46,33 L-36,9 L-33,6 L-16,2 Z " fill="#883D1F" transform="translate(880,3207)"/>
<path d="M0,0 L32,0 L68,5 L84,9 L111,18 L140,31 L150,37 L152,39 L151,47 L141,66 L136,78 L133,78 L133,76 L127,75 L107,66 L79,52 L65,46 L38,40 L24,38 L-5,38 L-6,39 L-26,42 L-39,47 L-44,48 L-49,53 L-52,55 L-53,62 L-54,62 L-55,53 L-48,47 L-39,35 L-29,16 L-25,5 L-14,3 Z " fill="#823414" transform="translate(831,3277)"/>
<path d="M0,0 L31,0 L38,1 L38,3 L47,4 L63,9 L74,14 L75,20 L68,41 L66,49 L59,63 L55,68 L48,72 L30,74 L13,74 L-7,72 L-18,68 L-26,61 L-32,52 L-36,42 L-41,29 L-45,14 L-45,11 L-24,4 Z " fill="#843515" transform="translate(1338,3321)"/>
<path d="M0,0 L28,0 L50,2 L72,6 L76,7 L76,9 L83,10 L93,15 L99,22 L100,24 L100,33 L96,51 L94,63 L89,62 L79,58 L62,54 L54,53 L49,51 L13,51 L-6,54 L-24,60 L-34,66 L-36,66 L-38,42 L-39,40 L-38,18 L-35,13 L-30,9 L-19,4 L-8,1 Z " fill="#8E3815" transform="translate(1325,3229)"/>
<path d="M0,0 L1,0 L1,10 L0,23 L-3,28 L-12,39 L-17,44 L-30,57 L-37,65 L-63,91 L-71,98 L-82,108 L-91,115 L-104,125 L-119,134 L-136,143 L-140,143 L-140,145 L-158,151 L-187,158 L-199,160 L-207,160 L-207,162 L-227,164 L-269,164 L-295,162 L-323,156 L-347,149 L-356,145 L-364,140 L-368,135 L-373,121 L-372,119 L-363,127 L-348,134 L-318,144 L-299,148 L-284,149 L-251,149 L-223,146 L-211,144 L-205,142 L-165,133 L-151,129 L-147,129 L-147,127 L-140,125 L-118,116 L-99,106 L-80,92 L-67,81 L-30,44 L-23,36 L-14,27 L-5,14 L-1,5 Z " fill="#54200C" transform="translate(1081,3352)"/>
<path d="M0,0 L3,0 L3,2 L5,2 L9,8 L14,13 L14,15 L18,16 L22,20 L22,22 L26,23 L26,27 L23,30 L24,34 L30,30 L33,29 L40,29 L48,36 L51,39 L58,36 L64,37 L71,45 L71,47 L74,48 L77,52 L85,54 L95,54 L102,62 L105,65 L109,72 L108,79 L105,82 L106,86 L106,94 L103,97 L102,95 L102,69 L92,62 L84,57 L73,53 L71,53 L85,60 L93,67 L96,76 L95,89 L92,106 L89,118 L102,122 L102,125 L100,127 L94,126 L85,121 L83,127 L78,132 L77,130 L83,112 L87,95 L88,86 L88,75 L86,70 L77,64 L62,57 L54,55 L54,53 L46,53 L30,50 L6,48 L-4,48 L-25,51 L-39,54 L-42,63 L-50,83 L-56,109 L-59,112 L-58,99 L-60,99 L-62,104 L-69,114 L-71,114 L-71,116 L-73,116 L-72,110 L-68,104 L-61,96 L-59,96 L-59,88 L-57,83 L-69,86 L-73,89 L-73,83 L-66,75 L-60,70 L-55,67 L-55,64 L-58,61 L-60,56 L-60,51 L-51,43 L-40,37 L-30,31 L-21,30 L-18,31 L-16,23 L-9,17 L-7,12 L-7,6 L-2,4 Z M-60,112 Z " fill="#210C04" transform="translate(884,3160)"/>
<path d="M0,0 L2,3 L6,16 L13,29 L22,41 L34,53 L44,60 L59,68 L77,73 L99,76 L133,76 L153,72 L166,67 L179,60 L192,50 L194,47 L196,47 L198,43 L206,33 L213,19 L217,8 L218,8 L218,19 L210,46 L204,60 L197,69 L191,76 L178,85 L164,91 L146,96 L132,98 L103,98 L83,96 L66,92 L51,86 L41,80 L31,72 L22,63 L13,50 L10,45 L7,36 L1,16 L0,10 Z " fill="#62230C" transform="translate(1243,3431)"/>
<path d="M0,0 L1,0 L1,7 L-2,23 L-4,30 L1,32 L2,27 L4,28 L4,34 L14,43 L19,51 L22,60 L26,114 L26,121 L24,121 L24,118 L22,118 L18,102 L13,93 L4,83 L-3,77 L-6,77 L-8,90 L-15,117 L-22,131 L-30,137 L-40,140 L-49,141 L-75,141 L-98,138 L-110,133 L-118,126 L-124,116 L-131,100 L-136,75 L-136,72 L-134,72 L-127,97 L-122,110 L-114,122 L-107,128 L-97,132 L-91,133 L-74,134 L-40,134 L-28,129 L-22,121 L-11,82 L-8,73 L-10,73 L-12,83 L-16,95 L-17,101 L-19,101 L-21,111 L-28,123 L-35,129 L-42,131 L-53,132 L-65,132 L-87,131 L-99,129 L-107,125 L-114,119 L-123,105 L-132,78 L-133,70 L-140,73 L-152,82 L-162,91 L-167,92 L-166,84 L-157,60 L-153,50 L-146,40 L-146,25 L-144,22 L-142,36 L-139,33 L-137,33 L-137,31 L-131,31 L-132,34 L-140,41 L-147,48 L-153,56 L-158,76 L-161,86 L-149,74 L-135,64 L-131,64 L-131,62 L-112,56 L-97,53 L-89,52 L-54,52 L-41,55 L-24,60 L-13,65 L-8,66 L-8,69 L-4,70 L7,79 L14,85 L20,93 L19,75 L17,61 L11,49 L4,41 L-12,31 L-32,25 L-47,22 L-60,20 L-89,20 L-110,24 L-119,27 L-124,27 L-122,23 L-113,19 L-102,16 L-87,14 L-51,14 L-46,16 L-30,19 L-19,22 L-11,25 L-6,27 L-4,11 L-2,3 L0,3 Z M-87,56 L-111,60 L-126,65 L-132,67 L-130,78 L-124,96 L-120,104 L-117,111 L-110,120 L-101,126 L-94,128 L-74,130 L-57,130 L-39,128 L-32,124 L-25,114 L-20,103 L-17,91 L-12,76 L-13,70 L-32,62 L-43,59 L-49,59 L-49,57 L-56,56 Z " fill="#250E04" transform="translate(1425,3265)"/>
<path d="M0,0 L5,2 L9,4 L29,5 L31,9 L32,15 L37,18 L39,14 L46,13 L48,11 L52,12 L57,15 L62,20 L74,29 L78,27 L78,22 L81,22 L82,16 L85,6 L90,3 L101,9 L114,17 L124,22 L129,24 L132,27 L136,29 L136,32 L132,31 L122,26 L117,25 L107,25 L99,28 L93,35 L93,45 L91,48 L74,47 L61,43 L41,43 L27,46 L16,49 L14,47 L14,43 L21,41 L24,37 L24,30 L19,25 L16,24 L-1,24 L-11,26 L-14,23 L-22,22 L-28,26 L-33,26 L-32,12 L-29,6 L-21,2 L-17,3 L-13,8 L-4,8 L-3,3 Z " fill="#804F28" transform="translate(1303,3138)"/>
<path d="M0,0 L5,0 L10,5 L18,15 L24,24 L35,41 L36,48 L34,54 L42,65 L44,68 L44,75 L42,80 L48,90 L50,95 L49,102 L50,111 L45,117 L49,122 L53,132 L55,140 L60,147 L62,156 L59,163 L58,165 L63,174 L64,182 L61,187 L54,192 L41,194 L46,189 L50,181 L50,170 L48,163 L48,152 L46,152 L41,121 L39,112 L40,105 L41,96 L40,87 L34,85 L33,83 L32,73 L27,63 L24,54 L23,39 L21,30 L17,23 L14,23 L10,25 L11,20 L12,16 L7,11 L5,10 L0,11 L-2,10 L-8,10 L-15,14 L-15,9 L-17,9 L-18,12 L-24,10 L-19,5 L-13,2 L-4,2 Z " fill="#000000" transform="translate(1038,3194)"/>
<path d="M0,0 L1,2 L0,14 L-2,26 L-4,25 L-5,10 L-5,33 L-3,33 L-5,67 L-1,68 L0,74 L-2,74 L-3,77 L-7,81 L8,73 L19,64 L23,59 L25,59 L23,65 L18,70 L8,77 L-3,82 L-10,84 L-23,84 L-29,83 L-26,78 L-39,74 L-40,71 L-36,58 L-33,36 L-34,26 L-38,20 L-48,13 L-59,8 L-55,7 L-42,12 L-27,22 L-25,24 L-25,50 L-24,53 L-24,64 L-20,69 L-15,68 L-19,53 L-20,47 L-20,30 L-17,14 L-13,7 L-9,3 L-3,4 Z " fill="#260E04" transform="translate(1012,3205)"/>
<path d="M0,0 L4,2 L18,8 L33,12 L38,14 L54,16 L79,16 L98,14 L119,11 L126,9 L127,11 L125,16 L121,20 L120,22 L112,26 L108,29 L91,31 L89,32 L80,32 L72,33 L64,31 L38,27 L8,22 L4,21 L1,17 L1,12 L3,12 L2,3 Z " fill="#441900" transform="translate(1285,3518)"/>
<path d="M0,0 L2,0 L4,25 L6,33 L8,39 L4,44 L2,44 L1,48 L-7,51 L-12,55 L-17,54 L-22,58 L-31,64 L-38,64 L-41,63 L-40,60 L-34,57 L-32,55 L-31,45 L-27,35 L-25,31 L-23,31 L-22,27 L-19,23 L-17,23 L-17,21 L-15,21 L-14,15 L-10,11 L-10,8 Z " fill="#7E4E29" transform="translate(1458,3513)"/>
<path d="M0,0 L25,0 L47,6 L61,13 L64,15 L63,18 L57,17 L37,19 L12,19 L11,18 L-17,16 L-39,13 L-40,11 L-30,8 L-15,3 Z " fill="#260F05" transform="translate(1350,3292)"/>
<path d="M0,0 L3,4 L6,12 L5,15 L7,15 L5,20 L0,23 L-2,26 L-4,26 L-5,29 L-11,34 L-13,34 L-14,40 L-18,42 L-20,46 L-25,51 L-28,52 L-30,56 L-38,56 L-47,59 L-52,61 L-52,70 L-57,75 L-65,82 L-78,90 L-98,104 L-105,108 L-121,119 L-127,122 L-133,122 L-145,117 L-145,114 L-134,114 L-128,112 L-127,110 L-125,110 L-124,107 L-119,106 L-106,97 L-96,91 L-81,83 L-72,79 L-64,75 L-58,64 L-53,60 L-41,52 L-36,47 L-26,38 L-15,30 L-6,24 L-4,24 L-4,22 L0,19 L2,19 L3,14 L-1,11 L-1,2 Z " fill="#000000" transform="translate(1075,3392)"/>
<path d="M0,0 L17,0 L44,4 L60,7 L84,15 L83,18 L75,20 L42,20 L17,16 L-8,10 L-19,10 L-25,11 L-24,6 L-19,4 L-8,2 L-7,1 Z " fill="#250F06" transform="translate(838,3286)"/>
<path d="M0,0 L5,1 L5,11 L12,26 L13,33 L13,46 L10,56 L5,61 L-3,68 L-16,76 L-22,78 L-20,74 L-15,69 L-10,64 L-8,64 L-10,33 L-10,13 L-9,4 L-8,2 L-1,2 Z " fill="#030100" transform="translate(1027,3208)"/>
<path d="M0,0 L1,4 L-4,17 L-13,29 L-17,34 L-22,39 L-32,49 L-39,57 L-68,86 L-78,94 L-95,107 L-111,116 L-129,124 L-142,129 L-150,132 L-186,141 L-211,146 L-217,146 L-217,148 L-241,151 L-254,152 L-278,152 L-301,150 L-318,146 L-321,144 L-304,146 L-294,147 L-250,147 L-229,145 L-228,144 L-191,139 L-163,133 L-149,128 L-129,121 L-113,114 L-96,104 L-80,91 L-68,80 L-59,71 L-52,63 L-43,54 L-34,43 L-25,33 L-18,25 L-4,6 Z " fill="#54200C" transform="translate(1079,3348)"/>
<path d="M0,0 L3,0 L3,2 L5,2 L9,8 L14,13 L14,15 L18,16 L22,20 L22,22 L26,23 L26,27 L22,31 L22,40 L24,41 L24,43 L-12,42 L-19,34 L-17,25 L-12,20 L-8,15 L-7,6 L-2,4 Z " fill="#804D26" transform="translate(884,3160)"/>
<path d="M0,0 L39,0 L77,4 L87,6 L105,12 L110,16 L114,24 L114,44 L111,58 L109,76 L104,74 L105,67 L109,46 L109,30 L105,24 L100,19 L87,14 L61,9 L42,7 L5,7 L-10,10 L-26,18 L-28,19 L-29,13 L-21,6 L-10,2 Z " fill="#823314" transform="translate(1317,3221)"/>
<path d="M0,0 L2,4 L7,12 L6,16 L4,16 L5,23 L5,32 L3,48 L3,58 L1,86 L0,130 L0,138 L-5,133 L-10,123 L-12,92 L-14,90 L-9,88 L-7,84 L-5,63 L-3,16 L-1,11 Z M2,16 Z " fill="#010000" transform="translate(1483,3259)"/>
<path d="M0,0 L1,0 L1,5 L-2,6 L-2,45 L3,71 L9,85 L14,94 L23,105 L32,114 L32,115 L20,115 L9,108 L8,105 L4,103 L-3,96 L-3,94 L-6,93 L-6,87 L-3,82 L-2,71 L-2,63 L-6,58 L-6,53 L-8,53 L-9,46 L-9,37 L-11,22 L-11,11 L-5,7 L-1,3 Z " fill="#512800" transform="translate(1241,3396)"/>
<path d="M0,0 L2,0 L6,8 L6,16 L3,28 L0,49 L-2,49 L-2,56 L-4,63 L-6,76 L-7,83 L-14,90 L-17,91 L-17,102 L-15,117 L-15,133 L-13,133 L-11,139 L-8,144 L-13,145 L-19,138 L-24,128 L-25,115 L-19,108 L-21,93 L-17,87 L-12,85 L-16,76 L-16,69 L-10,63 L-8,63 L-12,53 L-11,46 L-6,41 L-4,41 L-8,31 L-8,25 L0,18 L-2,9 L-2,2 Z " fill="#020000" transform="translate(1248,3316)"/>
<path d="M0,0 L1,0 L5,17 L10,31 L20,47 L29,57 L41,66 L56,74 L71,80 L84,83 L93,84 L135,84 L157,79 L172,73 L184,66 L194,57 L204,44 L211,29 L216,8 L217,0 L218,0 L218,12 L214,28 L208,42 L199,55 L190,65 L175,76 L161,83 L148,87 L125,90 L99,90 L77,87 L54,79 L43,73 L34,66 L20,52 L10,37 L3,21 L2,11 L-1,10 Z " fill="#68240A" transform="translate(1243,3416)"/>
<path d="M0,0 L37,0 L63,3 L85,8 L96,13 L96,15 L100,17 L104,22 L105,24 L105,40 L102,41 L102,26 L98,20 L91,15 L79,11 L79,9 L71,8 L45,4 L31,3 L3,3 L-13,6 L-25,11 L-31,15 L-34,20 L-35,42 L-34,44 L-33,56 L-33,68 L-21,61 L-19,62 L-21,65 L-18,66 L-28,70 L-34,69 L-34,71 L-40,75 L-43,46 L-43,25 L-39,12 L-34,7 L-32,12 L-24,7 L-11,2 Z " fill="#401909" transform="translate(1322,3227)"/>
<path d="M0,0 L1,0 L-1,65 L-2,65 L-2,49 L-13,57 L-14,61 L-18,66 L-19,70 L-21,70 L-21,72 L-23,72 L-25,76 L-27,80 L-29,80 L-31,84 L-34,77 L-35,67 L-40,61 L-38,61 L-38,59 L-35,57 L-26,54 L-22,53 L-20,49 L-16,48 L-17,41 L-12,38 L-12,34 L-15,37 L-13,32 L-6,17 Z " fill="#462200" transform="translate(1462,3464)"/>
<path d="M0,0 L4,1 L-3,9 L-4,11 L-6,11 L-7,16 L-16,20 L-28,22 L-33,24 L-32,18 L-39,21 L-45,19 L-47,19 L-50,20 L-57,15 L-72,11 L-91,9 L-93,7 L-60,7 L-24,4 Z M-32,17 Z " fill="#512800" transform="translate(899,3514)"/>
<path d="M0,0 L8,4 L17,9 L27,15 L35,19 L40,21 L43,24 L47,26 L47,29 L43,28 L33,23 L28,22 L18,22 L10,25 L4,32 L2,42 L0,42 L-2,39 L-7,37 L-15,34 L-16,31 L-12,25 L-11,21 L-10,19 L-8,19 L-7,13 L-4,3 Z " fill="#814E28" transform="translate(1392,3141)"/>
<path d="M0,0 L1,2 L0,14 L-2,26 L-4,25 L-5,10 L-5,33 L-3,33 L-5,59 L-12,67 L-15,66 L-18,58 L-20,47 L-20,30 L-17,14 L-13,7 L-9,3 L-3,4 Z " fill="#7F5226" transform="translate(1012,3205)"/>
<path d="M0,0 L3,4 L7,10 L8,11 L10,56 L9,58 L-1,58 L-6,62 L-8,62 L-9,64 L-8,53 L-8,35 L-10,25 L-8,25 L-8,5 L-7,5 L-5,17 L-5,4 L-4,6 L-2,6 L-1,18 L3,18 L0,8 Z " fill="#531A00" transform="translate(1475,3386)"/>
<path d="M0,0 L2,0 L8,12 L10,26 L10,38 L2,53 L1,53 L-2,37 L-5,28 L-11,20 L-17,15 L-28,11 L-32,9 L-32,7 L-28,5 L-15,5 L-13,4 L-6,4 L-2,6 Z " fill="#5A1A00" transform="translate(1455,3198)"/>
<path d="M0,0 L10,0 L20,1 L28,1 L43,4 L56,8 L58,10 L63,12 L64,15 L66,15 L66,7 L67,7 L68,15 L66,18 L49,17 L36,13 L16,13 L2,16 L-9,19 L-11,17 L-11,13 L-4,11 L-1,7 Z " fill="#7F2A00" transform="translate(1328,3168)"/>
<path d="M0,0 L2,0 L4,6 L5,9 L8,11 L6,16 L2,19 L0,19 L0,21 L-11,28 L-24,38 L-35,47 L-40,52 L-51,59 L-56,61 L-57,58 L-51,51 L-49,51 L-49,49 L-41,42 L-28,29 L-20,22 L-13,14 L-10,13 L-8,9 Z " fill="#4C1E06" transform="translate(1071,3395)"/>
<path d="M0,0 L7,0 L15,7 L18,10 L25,7 L31,8 L38,16 L38,18 L41,19 L44,23 L52,25 L62,25 L69,33 L72,36 L76,43 L75,50 L72,53 L73,57 L73,65 L70,68 L69,66 L69,40 L59,33 L51,28 L34,22 L29,19 L16,16 L11,13 L9,11 L4,9 L-4,9 L-9,11 L-12,11 L-12,2 L-9,5 L-3,1 Z " fill="#020000" transform="translate(917,3189)"/>
<path d="M0,0 L4,1 L3,10 L-5,21 L-11,31 L-16,36 L-25,44 L-34,47 L-37,47 L-37,49 L-57,53 L-84,55 L-123,55 L-143,51 L-155,46 L-160,43 L-162,40 L-162,29 L-159,30 L-156,38 L-149,44 L-133,50 L-121,52 L-87,52 L-85,51 L-57,48 L-36,44 L-33,44 L-33,42 L-27,41 L-27,39 L-21,35 L-13,26 L-11,23 L-9,23 L-6,14 Z " fill="#7F3214" transform="translate(931,3346)"/>
<path d="M0,0 L4,2 L18,8 L33,12 L38,14 L43,15 L47,23 L49,27 L26,25 L4,21 L1,17 L1,12 L3,12 L2,3 Z " fill="#532700" transform="translate(1285,3518)"/>
<path d="M0,0 L1,0 L3,17 L1,21 L-1,26 L-2,28 L1,29 L-3,38 L-4,43 L-4,64 L-3,78 L-5,82 L-6,82 L-8,66 L-11,57 L-13,45 L-13,30 L-10,13 L-4,4 Z " fill="#270F05" transform="translate(1284,3209)"/>
<path d="M0,0 L2,1 L-4,19 L-5,25 L-5,37 L-9,36 L-7,40 L-5,53 L-4,54 L-2,66 L1,71 L3,73 L-1,72 L-6,69 L-16,59 L-22,50 L-17,39 L-13,22 L-8,14 L-5,11 L-3,11 L-2,4 Z " fill="#7E4923" transform="translate(711,3423)"/>
<path d="M0,0 L6,0 L6,9 L8,21 L9,34 L12,47 L5,56 L0,59 L-2,55 L-4,32 L-3,24 L-2,19 Z " fill="#2D0000" transform="translate(1021,3212)"/>
<path d="M0,0 L4,1 L4,3 L7,2 L4,11 L0,17 L-2,17 L-3,20 L-7,22 L-12,24 L-21,35 L-35,48 L-38,52 L-40,52 L-39,49 L-37,49 L-36,44 L-30,35 L-23,22 L-17,13 L-14,8 L-4,3 Z M-4,17 Z " fill="#7C2800" transform="translate(770,3337)"/>
<path d="M0,0 L6,0 L8,2 L5,6 L-6,8 L-16,17 L-19,16 L-21,20 L-23,21 L-24,25 L-22,34 L-28,49 L-31,53 L-42,56 L-46,59 L-46,53 L-39,45 L-33,40 L-28,37 L-28,34 L-31,31 L-33,26 L-33,21 L-24,13 L-13,7 L-3,1 Z " fill="#000000" transform="translate(857,3190)"/>
<path d="M0,0 L29,0 L44,3 L60,8 L60,9 L49,10 L21,10 L20,9 L-23,7 L-23,5 Z " fill="#7A2D0E" transform="translate(1344,3297)"/>
<path d="M0,0 L16,4 L24,10 L24,13 L19,14 L-2,16 L-9,17 L-16,15 L-16,19 L-18,19 L-18,7 L-15,2 L-13,1 Z " fill="#6D2323" transform="translate(1315,3201)"/>
<path d="M0,0 L5,0 L3,13 L-3,18 L-9,27 L-11,33 L-9,33 L-9,31 L-6,28 L2,16 L3,16 L2,28 L1,31 L-10,36 L-13,36 L-13,32 L-15,32 L-17,37 L-21,44 L-23,44 L-22,38 L-19,27 L-13,14 L-12,6 L-7,2 Z " fill="#824C28" transform="translate(822,3243)"/>
<path d="M0,0 L1,3 L-5,19 L-14,36 L-21,45 L-29,54 L-31,54 L-32,57 L-33,45 L-31,41 L-29,41 L-26,32 L-23,28 L-18,27 L-9,10 L-6,11 L-4,6 Z M-32,46 Z " fill="#1D0A03" transform="translate(807,3276)"/>
<path d="M0,0 L1,0 L-1,65 L-2,65 L-2,23 L-4,29 L-7,34 L-5,34 L-6,39 L-10,48 L-20,56 L-25,59 L-33,63 L-37,64 L-40,61 L-38,61 L-38,59 L-35,57 L-26,54 L-22,53 L-20,49 L-16,48 L-17,41 L-12,38 L-12,34 L-15,37 L-13,32 L-6,17 Z " fill="#511601" transform="translate(1462,3464)"/>
<path d="M0,0 L13,0 L35,3 L57,8 L74,11 L74,13 L50,12 L25,10 L-8,3 L-8,1 Z " fill="#783216" transform="translate(840,3290)"/>
<path d="M0,0 L9,1 L13,7 L14,12 L14,24 L9,25 L1,23 L1,21 L-5,22 L-13,19 L-12,15 L-8,13 L-3,8 Z " fill="#842900" transform="translate(1404,3199)"/>
<path d="M0,0 L6,1 L17,5 L32,15 L34,17 L34,43 L35,46 L35,54 L31,56 L28,53 L28,51 L24,51 L24,42 L26,29 L25,19 L21,13 L11,6 L0,1 Z " fill="#5A2D17" transform="translate(953,3212)"/>
<path d="M0,0 L8,0 L8,2 L14,0 L20,5 L21,9 L19,15 L22,14 L23,12 L28,17 L31,23 L32,36 L29,33 L29,31 L27,31 L23,24 L21,23 L21,21 L18,20 L15,17 L15,22 L15,25 L13,23 L10,16 L3,11 L1,11 L1,6 L-1,1 Z " fill="#2E1004" transform="translate(1030,3203)"/>
<path d="M0,0 L2,0 L8,12 L10,26 L10,38 L2,53 L1,53 L-2,35 L0,32 L0,25 L-2,23 L-1,21 L-3,21 L-4,17 L-2,17 L1,20 L0,15 L2,15 L-1,10 L-5,9 L-5,7 L-1,3 Z " fill="#591D00" transform="translate(1455,3198)"/>
<path d="M0,0 L1,0 L1,12 L-5,37 L-10,55 L-15,74 L-18,89 L-19,89 L-19,79 L-16,65 L-14,65 L-13,51 L-10,37 L-9,32 L-9,24 L-13,16 L-12,9 L-5,7 L-1,5 Z " fill="#5B1C01" transform="translate(1262,3300)"/>
<path d="M0,0 L2,0 L3,15 L7,21 L10,32 L9,37 L5,41 L7,47 L7,53 L3,56 L-2,54 L-4,48 L0,39 L1,36 L1,27 L-1,21 L-3,20 L-3,9 Z " fill="#000000" transform="translate(1462,3294)"/>
<path d="M0,0 L3,4 L7,10 L8,11 L10,56 L9,58 L7,58 L7,56 L1,56 L4,52 L4,44 L-1,34 L-2,19 L3,18 L0,8 Z " fill="#4D1F00" transform="translate(1475,3386)"/>
<path d="M0,0 L2,0 L4,6 L5,9 L8,11 L6,16 L2,19 L0,19 L0,21 L-8,26 L-14,27 L-22,27 L-22,24 L-12,13 L-10,13 L-8,9 Z " fill="#4A1A00" transform="translate(1071,3395)"/>
<path d="M0,0 L2,0 L3,2 L3,19 L4,20 L4,27 L7,27 L7,34 L5,40 L-1,44 L-5,44 L-7,39 L-7,32 L-1,25 L-3,19 L-5,15 L-5,5 Z " fill="#000000" transform="translate(1256,3265)"/>
<path d="M0,0 L3,1 L1,7 L-3,11 L-4,13 L-12,17 L-14,19 L-34,20 L-29,16 L-26,13 L-24,6 L-26,5 L-5,2 Z " fill="#502600" transform="translate(1409,3527)"/>
<path d="M0,0 L11,0 L12,4 L16,6 L16,8 L14,8 L14,10 L12,10 L11,14 L8,16 L3,30 L-1,25 L-3,24 L-3,8 L-2,1 Z " fill="#591B00" transform="translate(1260,3194)"/>
<path d="M0,0 L4,2 L5,28 L1,33 L-3,43 L-5,43 L-7,39 L-5,29 L-5,20 L-6,10 L-3,3 Z " fill="#853F23" transform="translate(994,3163)"/>
<path d="M0,0 L1,2 L0,15 L1,25 L-1,30 L-1,38 L1,41 L1,49 L-3,47 L-6,43 L-11,31 L-9,26 L-5,24 L-8,17 L-8,10 L-4,4 Z " fill="#000000" transform="translate(1257,3207)"/>
<path d="M0,0 L2,3 L1,8 L-1,12 L-5,16 L-12,24 L-17,28 L-19,28 L-19,30 L-25,31 L-25,33 L-43,37 L-65,40 L-77,41 L-79,42 L-113,42 L-111,39 L-80,38 L-57,36 L-43,34 L-38,34 L-38,32 L-26,29 L-14,22 L-7,14 Z " fill="#371608" transform="translate(923,3357)"/>
<path d="M0,0 L5,2 L23,8 L50,14 L50,15 L32,16 L23,18 L13,15 L6,11 L0,5 Z " fill="#532A00" transform="translate(721,3501)"/>
<path d="M0,0 L1,0 L1,8 L-2,13 L0,13 L0,50 L2,50 L2,61 L-3,65 L-6,36 L-6,15 L-2,2 Z " fill="#813213" transform="translate(1285,3237)"/>
<path d="M0,0 L2,0 L4,2 L9,4 L12,6 L13,13 L15,14 L15,16 L-14,15 L-12,9 L-7,6 L-5,2 L0,2 Z " fill="#442020" transform="translate(893,3187)"/>
<path d="M0,0 L10,2 L19,6 L23,8 L22,14 L20,18 L9,18 L1,16 L2,6 Z " fill="#631E18" transform="translate(1360,3200)"/>
<path d="M0,0 L16,1 L25,3 L25,6 L23,6 L21,10 L8,15 L4,18 L1,17 Z " fill="#7C4C29" transform="translate(1018,3166)"/>
<path d="M0,0 L3,1 L6,9 L13,15 L29,21 L41,23 L80,23 L78,26 L39,26 L19,22 L7,17 L2,14 L0,11 Z " fill="#813A1D" transform="translate(769,3375)"/>
<path d="M0,0 L7,1 L9,2 L8,7 L10,7 L14,11 L23,13 L23,25 L25,28 L21,26 L17,21 L17,19 L10,20 L5,16 L-2,2 Z " fill="#010000" transform="translate(1264,3510)"/>
<path d="M0,0 L2,0 L4,13 L5,14 L7,26 L10,31 L12,33 L8,32 L3,29 L-7,19 L-11,13 L-10,10 L-5,11 L-3,6 Z " fill="#592A27" transform="translate(702,3463)"/>
<path d="M0,0 L4,4 L6,12 L8,31 L11,44 L4,52 L3,52 L2,25 L1,22 Z " fill="#7B2A00" transform="translate(1022,3215)"/>
<path d="M0,0 L3,1 L5,9 L8,13 L5,22 L0,27 L-4,29 L-5,32 L-9,31 L-11,30 L-11,27 L-13,27 L-13,29 L-15,28 L-13,25 L-10,26 L-8,29 L-4,11 L-1,7 Z " fill="#000000" transform="translate(1396,3186)"/>
<path d="M0,0 L28,2 L33,3 L33,5 L35,5 L35,8 L38,8 L38,4 L41,3 L43,5 L42,11 L33,9 L21,7 L11,7 L-8,5 L-9,1 Z " fill="#812C2B" transform="translate(1335,3163)"/>
<path d="M0,0 L6,3 L8,7 L8,18 L7,24 L5,24 L2,41 L1,47 L0,47 L-1,24 Z " fill="#381102" transform="translate(1457,3270)"/>
<path d="M0,0 L1,0 L0,12 L-1,15 L-12,20 L-15,20 L-15,16 L-17,16 L-19,21 L-23,28 L-25,28 L-24,22 L-21,11 L-18,5 L-10,7 L-13,17 L-11,17 L-11,15 L-8,12 Z " fill="#822902" transform="translate(824,3259)"/>
<path d="M0,0 L4,4 L6,9 L8,5 L9,18 L11,30 L13,40 L9,41 L8,40 L8,28 L6,28 L6,42 L4,44 L2,27 L2,16 L1,7 Z " fill="#5F1C00" transform="translate(1465,3364)"/>
<path d="M0,0 L1,0 L1,5 L-2,6 L-3,37 L-8,36 L-10,31 L-11,15 L-10,10 L-5,7 L-1,3 Z " fill="#5D3219" transform="translate(1241,3396)"/>
<path d="M0,0 L32,1 L32,2 L25,3 L24,6 L28,7 L21,7 L33,11 L32,14 L12,13 L7,12 L7,11 L14,10 L16,8 L15,7 L6,6 L1,3 Z " fill="#4B1C01" transform="translate(1331,3534)"/>
<path d="M0,0 L1,2 L0,14 L-2,26 L-4,25 L-5,8 L-7,13 L-14,21 L-16,25 L-19,25 L-17,14 L-13,7 L-9,3 L-3,4 Z " fill="#9C5543" transform="translate(1012,3205)"/>
<path d="M0,0 L5,3 L7,12 L9,10 L10,15 L9,42 L7,42 L4,31 L4,19 L2,19 L-1,6 L-1,1 Z " fill="#692301" transform="translate(1458,3369)"/>
<path d="M0,0 L6,0 L0,7 L-4,9 L-11,15 L-18,25 L-20,27 L-23,18 L-21,14 L-17,10 L-13,9 L-4,1 Z " fill="#1E0000" transform="translate(855,3196)"/>
<path d="M0,0 L5,0 L10,6 L9,15 L11,15 L11,18 L18,19 L18,20 L10,20 L-3,16 L-4,13 Z " fill="#5D1900" transform="translate(976,3263)"/>
<path d="M0,0 L3,1 L9,9 L12,15 L14,25 L12,29 L8,33 L6,33 L5,31 L5,13 L-1,8 L-1,2 Z " fill="#000000" transform="translate(1459,3246)"/>
<path d="M0,0 L2,1 L-1,4 L-1,7 L-5,12 L-6,16 L-8,16 L-8,18 L-10,18 L-12,22 L-14,26 L-16,26 L-18,30 L-21,23 L-20,18 L-15,14 L-10,8 Z " fill="#592A29" transform="translate(1449,3518)"/>
<path d="M0,0 L3,0 L7,7 L7,10 L0,11 L-2,15 L-4,22 L-5,26 L-12,24 L-8,18 L-8,8 L-9,4 L-2,2 Z " fill="#78600B" transform="translate(1232,3491)"/>
<path d="M0,0 L6,2 L7,4 L-4,13 L-9,18 L-19,25 L-21,24 L-20,19 L-13,13 L-8,8 L-5,7 L-4,4 Z " fill="#542200" transform="translate(1044,3426)"/>
<path d="M0,0 L4,2 L2,5 L-1,16 L-3,16 L-5,32 L-10,46 L-12,46 L-13,48 L-12,35 L-8,20 Z " fill="#7A381D" transform="translate(842,3220)"/>
<path d="M0,0 L1,0 L2,8 L-2,16 L-4,16 L-1,26 L0,28 L0,34 L-5,40 L-7,40 L-7,24 L-5,8 L-2,1 Z " fill="#000000" transform="translate(1469,3447)"/>
<path d="M0,0 L4,5 L6,7 L6,23 L1,24 L-2,23 L-5,13 L-5,6 L-2,3 L0,3 Z " fill="#5E1D00" transform="translate(1412,3200)"/>
<path d="M0,0 L2,1 L-4,11 L-9,16 L-17,20 L-23,22 L-42,32 L-43,30 L-32,23 L-30,21 L-25,21 L-24,18 L-15,13 L-5,4 Z " fill="#230000" transform="translate(1017,3454)"/>
<path d="M0,0 L4,1 L4,3 L7,2 L4,11 L0,17 L-2,17 L-3,20 L-7,16 L-7,9 L-10,8 L-8,8 L-6,4 Z " fill="#845527" transform="translate(770,3337)"/>
<path d="M0,0 L3,1 L4,9 L5,30 L8,34 L7,36 L-4,27 L-7,24 L-7,22 L-2,19 L0,19 Z " fill="#A84A11" transform="translate(1216,3438)"/>
<path d="M0,0 L5,2 L9,7 L8,9 L2,9 L-2,11 L-1,13 L-4,13 L-4,30 L-6,29 L-6,11 L-10,10 L-12,6 L-4,1 Z " fill="#020000" transform="translate(1425,3195)"/>
<path d="M0,0 L8,6 L17,12 L16,16 L14,21 L10,22 L5,16 L0,2 Z " fill="#642B14" transform="translate(708,3471)"/>
<path d="M0,0 L5,0 L4,12 L-6,12 L-12,13 L-17,10 L-16,8 L-11,6 Z " fill="#000000" transform="translate(1289,3188)"/>
<path d="M0,0 L9,1 L9,3 L-1,10 L-7,12 L-9,11 L-9,15 L-11,15 L-11,3 L-7,1 Z " fill="#812D2B" transform="translate(1308,3205)"/>
<path d="M0,0 L2,4 L3,15 L8,25 L8,33 L5,36 L10,37 L10,38 L2,39 L-3,43 L-5,43 L-6,45 L-6,39 L0,35 L3,26 L1,17 L0,12 L-1,2 Z " fill="#401F00" transform="translate(1472,3405)"/>
<path d="M0,0 L11,0 L15,2 L22,5 L24,9 L31,10 L40,16 L44,21 L40,20 L29,12 L19,11 L17,7 L12,5 L3,6 L-1,2 Z M21,6 Z " fill="#000000" transform="translate(1411,3176)"/>
<path d="M0,0 L5,5 L11,11 L11,16 L13,21 L12,24 L8,22 L4,18 L1,17 L0,13 Z " fill="#810100" transform="translate(1109,3286)"/>
<path d="M0,0 L3,1 L3,3 L7,4 L7,8 L2,14 L-2,12 L-8,11 L-8,8 L-10,8 L-8,3 L-5,1 Z " fill="#7C443A" transform="translate(903,3179)"/>
<path d="M0,0 L2,1 L-2,3 L-3,7 L-14,12 L-16,12 L-16,14 L-24,18 L-26,19 L-26,16 L-24,16 L-22,11 L-14,4 Z " fill="#010000" transform="translate(919,3509)"/>
<path d="M0,0 L2,4 L3,13 L1,15 L-1,20 L-6,29 L-7,34 L-8,34 L-8,25 L-5,8 Z " fill="#7B3013" transform="translate(1284,3215)"/>
<path d="M0,0 L1,0 L1,5 L-3,8 L-5,8 L-4,15 L-9,18 L-12,21 L-18,24 L-26,26 L-26,28 L-31,28 L-31,26 L-20,20 L-16,17 L-14,17 L-12,13 L-7,9 L-6,6 L-4,6 L-3,3 Z " fill="#341100" transform="translate(1450,3497)"/>
<path d="M0,0 L7,0 L9,5 L8,9 L4,8 L-5,8 L-10,13 L-15,12 L-15,9 L-10,7 L-10,5 Z " fill="#000000" transform="translate(1354,3201)"/>
<path d="M0,0 L3,1 L1,7 L-3,11 L-4,13 L-9,12 L-11,10 L-18,8 L-20,4 L-5,2 Z " fill="#431B00" transform="translate(1409,3527)"/>
<path d="M0,0 L16,4 L22,8 L20,9 L11,8 L-1,5 L-17,6 L-15,2 L-13,1 Z " fill="#6F2100" transform="translate(1315,3201)"/>
<path d="M0,0 L1,0 L1,12 L-3,28 L-9,42 L-18,55 L-27,65 L-34,70 L-35,67 L-25,59 L-15,47 L-7,32 L-2,13 Z " fill="#4E1E0A" transform="translate(1460,3416)"/>
<path d="M0,0 L1,3 L4,4 L6,10 L6,19 L4,26 L2,26 L1,31 L0,31 L-1,18 L-1,6 Z " fill="#240000" transform="translate(1458,3311)"/>
<path d="M0,0 L1,0 L1,23 L2,28 L2,40 L0,46 L-1,46 L-2,35 L-3,34 L-3,12 L-2,3 Z " fill="#551002" transform="translate(1261,3233)"/>
<path d="M0,0 L2,0 L5,13 L5,21 L1,23 L-2,20 L-2,18 L-6,18 L-3,9 L0,3 Z " fill="#5E3E20" transform="translate(983,3245)"/>
<path d="M0,0 L7,1 L18,6 L18,8 L22,10 L26,15 L27,17 L27,33 L24,34 L24,19 L20,13 L13,8 L1,4 Z " fill="#441A09" transform="translate(1400,3234)"/>
<path d="M0,0 L3,1 L1,12 L-4,28 L-7,34 L20,35 L20,36 L-9,37 L-12,36 L-10,24 L-9,24 L-9,30 L-7,30 L-6,25 L-3,16 L-1,4 Z " fill="#38180B" transform="translate(839,3236)"/>
<path d="M0,0 L4,2 L8,9 L10,18 L10,24 L7,21 L7,19 L5,19 L1,12 L-1,11 L-3,6 L-3,3 L0,2 Z " fill="#260000" transform="translate(1052,3215)"/>
<path d="M0,0 L4,0 L5,2 L6,0 L11,1 L12,9 L10,24 L7,27 L7,15 L5,11 L3,9 L3,3 L-1,1 Z " fill="#2F0500" transform="translate(1283,3199)"/>
<path d="M0,0 L3,4 L7,17 L11,37 L10,40 L8,38 L3,22 L0,6 Z " fill="#7E4E21" transform="translate(1100,3196)"/>
<path d="M0,0 L2,0 L8,12 L9,23 L7,25 L1,13 L-1,10 L-5,9 L-5,7 L-1,3 Z " fill="#802300" transform="translate(1455,3198)"/>
<path d="M0,0 L2,0 L4,2 L9,4 L12,7 L10,8 L7,6 L-1,4 L1,9 L-5,12 L-6,15 L-14,15 L-12,9 L-7,6 L-5,2 L0,2 Z " fill="#564321" transform="translate(893,3187)"/>
<path d="M0,0 L4,1 L-5,4 L-41,11 L-50,11 L-49,9 L-43,9 L-43,7 L-10,2 Z " fill="#6B2C13" transform="translate(903,3484)"/>
<path d="M0,0 L1,3 L5,5 L7,10 L5,20 L4,21 L2,33 L-1,30 L-1,22 L1,15 Z " fill="#270000" transform="translate(1256,3215)"/>
<path d="M0,0 L1,0 L2,9 L4,4 L6,8 L6,16 L8,16 L8,22 L4,25 L1,24 L0,17 L-1,16 L-1,5 Z " fill="#391809" transform="translate(1259,3268)"/>
<path d="M0,0 L2,0 L0,10 L-4,27 L-6,29 L-6,3 Z " fill="#961E00" transform="translate(1234,3329)"/>
<path d="M0,0 L11,0 L12,4 L2,11 L0,11 L0,13 L-3,13 L-2,1 Z " fill="#842200" transform="translate(1260,3194)"/>
<path d="M0,0 L5,0 L7,4 L8,10 L13,13 L15,9 L22,8 L24,6 L28,7 L33,10 L32,12 L26,10 L23,11 L23,13 L19,12 L15,15 L9,14 L2,10 L1,7 L3,7 L3,1 Z " fill="#9C3E35" transform="translate(1327,3143)"/>
<path d="M0,0 L5,0 L3,5 L-4,19 L-7,23 L-9,23 L-10,17 L-8,13 L-6,13 L-3,4 Z M-9,18 Z " fill="#78391D" transform="translate(784,3304)"/>
<path d="M0,0 L1,0 L1,9 L-3,14 L-4,19 L-12,26 L-25,33 L-27,35 L-30,32 L-28,32 L-28,30 L-25,28 L-16,25 L-12,24 L-10,20 L-6,19 L-7,12 L-2,9 L-2,5 L-5,8 L-3,3 Z " fill="#431600" transform="translate(1452,3493)"/>
<path d="M0,0 L2,1 L8,9 L5,11 L-11,14 L-9,10 Z " fill="#471F12" transform="translate(864,3192)"/>
<path d="M0,0 L2,2 L6,3 L9,23 L6,23 L4,23 L3,19 L1,19 L0,12 Z " fill="#421210" transform="translate(1232,3430)"/>
<path d="M0,0 L2,4 L4,17 L4,26 L1,33 L-1,33 L-1,12 L-3,2 Z " fill="#3F1500" transform="translate(1468,3409)"/>
<path d="M0,0 L1,0 L1,11 L0,17 L-2,17 L-5,29 L-6,29 L-6,6 L-2,4 Z " fill="#941D00" transform="translate(1464,3277)"/>
<path d="M0,0 L1,0 L1,9 L-1,21 L0,23 L-7,50 L-10,65 L-11,65 L-11,55 L-8,41 L-6,41 L-5,27 L-2,13 Z " fill="#4A1401" transform="translate(1254,3324)"/>
<path d="M0,0 L1,4 L1,8 L5,9 L6,15 L1,17 L-3,17 L-8,8 L-1,2 Z " fill="#3F1000" transform="translate(1006,3264)"/>
<path d="M0,0 L6,1 L8,4 L3,7 L-5,9 L-11,11 L-14,8 L-8,3 Z " fill="#000000" transform="translate(1420,3528)"/>
<path d="M0,0 L2,3 L2,27 L0,28 L-3,20 L-4,14 L-2,4 Z " fill="#E70000" transform="translate(1511,3465)"/>
<path d="M0,0 L5,0 L3,11 L-1,13 L-6,9 L-7,5 L-10,5 L-7,2 Z " fill="#5F4121" transform="translate(822,3243)"/>
<path d="M0,0 L3,1 L2,19 L1,17 L-4,28 L-6,33 L-7,33 L-7,26 L-5,19 L-2,14 Z " fill="#64341C" transform="translate(984,3228)"/>
<path d="M0,0 L1,0 L5,17 L10,31 L20,47 L22,50 L20,52 L10,37 L3,21 L2,11 L-1,10 Z " fill="#51210E" transform="translate(1243,3416)"/>
<path d="M0,0 L3,0 L2,12 L-3,22 L-4,22 L-5,10 L-4,3 L-2,3 Z " fill="#5A1A00" transform="translate(1460,3229)"/>
<path d="M0,0 L2,0 L3,16 L3,4 L4,2 L7,2 L7,21 L4,21 L0,19 Z " fill="#2B0100" transform="translate(1417,3206)"/>
<path d="M0,0 L8,0 L8,2 L14,0 L20,5 L21,9 L18,15 L16,12 L14,5 L0,5 L-1,1 Z " fill="#3A0000" transform="translate(1030,3203)"/>
<path d="M0,0 L5,1 L10,4 L10,6 L15,8 L17,10 L17,19 L16,19 L16,12 L9,12 L3,8 L3,6 L1,6 L2,1 Z " fill="#240000" transform="translate(1271,3511)"/>
<path d="M0,0 L2,0 L4,11 L4,29 L2,26 L0,22 L-2,7 L-2,2 L0,2 Z " fill="#020000" transform="translate(1426,3210)"/>
<path d="M0,0 L4,5 L8,7 L11,6 L12,4 L13,9 L9,13 L1,14 L1,11 L-1,11 L-1,2 Z " fill="#010000" transform="translate(986,3267)"/>
<path d="M0,0 L8,0 L13,3 L17,5 L-4,7 L-11,8 L-12,5 L-3,3 Z " fill="#5F241F" transform="translate(1317,3210)"/>
<path d="M0,0 L2,3 L3,11 L4,12 L4,24 L16,17 L18,18 L16,21 L19,22 L9,26 L3,25 L2,27 L0,6 Z " fill="#461A09" transform="translate(1285,3271)"/>
<path d="M0,0 L1,0 L1,11 L-6,36 L-9,45 L-11,45 L-9,36 L-5,23 L-2,1 Z " fill="#3B1608" transform="translate(967,3247)"/>
<path d="M0,0 L7,1 L7,2 L-1,4 L-3,11 L-12,13 L-13,8 L-6,2 Z " fill="#9A6036" transform="translate(896,3178)"/>
<path d="M0,0 L3,1 L0,4 L-5,18 L-9,13 L-11,12 L-11,3 L-9,1 L-8,5 L-4,4 Z " fill="#450C00" transform="translate(1268,3206)"/>
<path d="M0,0 L2,1 L-8,8 L-11,8 L-11,11 L-15,13 L-21,15 L-30,14 L-28,12 L-18,10 L-15,9 L-15,7 Z " fill="#280000" transform="translate(962,3492)"/>
<path d="M0,0 L6,2 L8,11 L7,20 L5,22 L3,16 Z " fill="#250000" transform="translate(1072,3279)"/>
<path d="M0,0 L3,0 L2,6 L-5,12 L11,12 L11,13 L-6,15 L-8,16 L-15,16 L-17,12 L-10,11 L-7,9 L-3,9 Z " fill="#402000" transform="translate(1382,3534)"/>
<path d="M0,0 L1,3 L-5,23 L-7,28 L-10,26 L-7,14 L-3,3 Z " fill="#853211" transform="translate(968,3265)"/>
<path d="M0,0 L4,1 L-12,8 L-35,14 L-38,14 L-38,12 L-26,9 L-15,5 Z " fill="#5E1F06" transform="translate(945,3471)"/>
<path d="M0,0 L1,3 L0,7 L-8,14 L-15,19 L-21,22 L-22,24 L-25,23 L-12,12 L-7,7 L-3,3 L-1,3 Z " fill="#2D1301" transform="translate(1014,3451)"/>
<path d="M0,0 L12,0 L9,2 L1,4 L-33,4 L-31,1 Z " fill="#481E0D" transform="translate(843,3395)"/>
<path d="M0,0 L3,0 L5,9 L6,18 L8,28 L4,29 L3,28 L1,7 Z " fill="#5F302A" transform="translate(1470,3376)"/>
<path d="M0,0 L2,1 L-5,21 L-9,22 L-10,27 L-12,28 L-11,18 L-5,11 L-3,11 L-2,4 Z " fill="#883827" transform="translate(711,3423)"/>
<path d="M0,0 L2,2 L3,17 L-1,25 L-2,29 L-5,28 L-5,22 L-2,17 Z " fill="#640000" transform="translate(1240,3461)"/>
<path d="M0,0 L4,2 L15,7 L11,10 L6,14 L1,15 L1,12 L3,12 L2,3 Z " fill="#451E00" transform="translate(1285,3518)"/>
<path d="M0,0 L0,3 L-11,16 L-24,29 L-26,28 L-15,16 L-6,5 Z " fill="#662B14" transform="translate(1058,3378)"/>
<path d="M0,0 L1,0 L1,7 L-2,23 L-4,30 L-5,28 L-9,27 L-6,27 L-4,11 L-2,3 L0,3 Z " fill="#371506" transform="translate(1425,3265)"/>
<path d="M0,0 L0,3 L-3,11 L-5,11 L-5,13 L-11,18 L-16,18 L-14,14 L-9,9 L-7,9 L-5,5 Z " fill="#341100" transform="translate(1068,3399)"/>
<path d="M0,0 L9,1 L25,4 L56,5 L56,6 L16,6 L2,2 Z " fill="#1E0C04" transform="translate(787,3392)"/>
<path d="M0,0 L2,0 L1,5 L-6,15 L-8,18 L-10,18 L-10,20 L-12,20 L-11,14 L-7,8 Z " fill="#2C1207" transform="translate(823,3256)"/>
<path d="M0,0 L2,0 L1,24 L-2,24 L-3,9 L-5,8 L-3,8 L-3,5 L-1,5 Z " fill="#562B15" transform="translate(1237,3409)"/>
<path d="M0,0 L4,1 L6,7 L4,19 L2,19 L0,10 Z " fill="#030100" transform="translate(1285,3209)"/>
<path d="M0,0 L2,2 L4,7 L8,12 L8,16 L-2,13 L-3,10 Z " fill="#4D1300" transform="translate(975,3266)"/>
<path d="M0,0 L2,4 L9,25 L13,35 L14,37 L12,39 L8,32 L2,13 L-1,1 Z " fill="#6F2C12" transform="translate(1292,3339)"/>
<path d="M0,0 L8,2 L2,10 L-1,15 L-4,15 L-2,4 Z " fill="#852E28" transform="translate(997,3215)"/>
<path d="M0,0 L5,0 L10,3 L18,5 L18,7 L-3,6 L-2,2 Z " fill="#4C2612" transform="translate(890,3196)"/>
<path d="M0,0 L4,2 L-13,6 L-19,7 L-27,7 L-27,4 L-4,1 Z " fill="#321204" transform="translate(1395,3501)"/>
<path d="M0,0 L2,2 L-5,4 L-27,7 L-33,7 L-30,5 L-28,4 Z " fill="#321407" transform="translate(885,3390)"/>
<path d="M0,0 L4,3 L4,19 L1,20 L0,12 L-2,10 L-2,3 Z " fill="#5B1800" transform="translate(1414,3204)"/>
<path d="M0,0 L2,1 L-1,5 L-3,10 L-6,13 L-11,16 L-15,20 L-17,20 L-15,16 Z " fill="#5D2711" transform="translate(1030,3408)"/>
<path d="M0,0 L4,5 L7,12 L7,19 L5,25 L4,25 L1,8 Z " fill="#1B0A03" transform="translate(1032,3222)"/>
<path d="M0,0 L10,2 L15,4 L14,8 L6,9 Z " fill="#842C00" transform="translate(1360,3200)"/>
<path d="M0,0 L2,1 L1,5 L-6,13 L-9,16 L-12,15 L-3,1 Z " fill="#311408" transform="translate(803,3323)"/>
<path d="M0,0 L3,1 L4,4 L4,16 L2,22 L1,22 L0,11 Z " fill="#421A12" transform="translate(1259,3257)"/>
<path d="M0,0 L28,1 L31,4 L23,5 L15,3 L0,1 Z " fill="#4C0000" transform="translate(1334,3546)"/>
<path d="M0,0 L4,1 L8,3 L7,9 L5,10 L4,8 L-5,7 L-2,4 Z " fill="#561F1E" transform="translate(1375,3205)"/>
<path d="M0,0 L1,0 L0,12 L-1,15 L-6,15 L-7,12 L-4,6 Z " fill="#7D3518" transform="translate(824,3259)"/>
<path d="M0,0 L3,1 L7,4 L2,9 L-2,9 L-4,3 L-3,1 Z " fill="#812D28" transform="translate(999,3262)"/>
<path d="M0,0 L26,0 L40,2 L40,3 L25,3 L0,1 Z " fill="#220E06" transform="translate(879,3215)"/>
<path d="M0,0 L5,3 L12,9 L9,15 L8,13 L6,13 L0,2 Z " fill="#74200B" transform="translate(1454,3177)"/>
<path d="M0,0 L10,1 L20,7 L25,13 L21,12 L10,4 L0,3 Z " fill="#892618" transform="translate(1430,3184)"/>
<path d="M0,0 L6,3 L3,4 L-1,6 L-3,13 L-6,16 L-7,11 L-3,2 Z " fill="#792916" transform="translate(1392,3141)"/>
<path d="M0,0 L1,3 L-5,13 L-7,13 L-8,18 L-14,23 L-15,21 L-14,19 L-12,19 L-11,15 L-8,11 L-6,11 L-6,9 L-4,9 L-3,3 Z " fill="#802B2B" transform="translate(1447,3525)"/>
<path d="M0,0 L1,0 L3,6 L7,8 L10,7 L10,9 L4,13 L-1,9 L-4,2 Z " fill="#6F4623" transform="translate(815,3247)"/>
<path d="M0,0 L2,1 L-9,11 L-14,16 L-16,17 L-16,12 L-7,6 L-3,2 Z " fill="#542B00" transform="translate(1445,3519)"/>
<path d="M0,0 L15,0 L15,1 L5,3 L-23,3 L-23,2 L-3,1 Z " fill="#190903" transform="translate(825,3499)"/>
<path d="M0,0 L2,1 L0,6 L-4,9 L-6,9 L-6,11 L-14,16 L-16,15 L-8,7 L-1,2 Z " fill="#540000" transform="translate(1077,3405)"/>
<path d="M0,0 L2,0 L3,2 L3,10 L-1,12 L-5,7 L-1,3 Z " fill="#702600" transform="translate(985,3256)"/>
<path d="M0,0 L17,2 L27,3 L27,6 L20,6 L3,2 Z " fill="#4D1C09" transform="translate(758,3492)"/>
<path d="M0,0 L3,4 L7,10 L8,15 L5,16 L4,18 L2,11 L0,8 Z " fill="#A10A00" transform="translate(1475,3386)"/>
<path d="M0,0 L4,4 L6,9 L8,5 L8,12 L5,12 L6,19 L4,18 L1,7 Z " fill="#6D1F00" transform="translate(1465,3364)"/>
<path d="M0,0 L7,1 L18,6 L15,8 L5,5 L1,4 Z " fill="#501E0A" transform="translate(1400,3234)"/>
<path d="M0,0 L2,1 L0,12 L-8,10 L-7,6 L-3,4 Z " fill="#FA0000" transform="translate(1399,3208)"/>
<path d="M0,0 L16,1 L22,2 L22,3 L5,3 L2,2 L2,17 L1,17 Z " fill="#641200" transform="translate(1018,3166)"/>
<path d="M0,0 L9,1 L16,4 L15,6 L7,6 L1,3 Z " fill="#4A241B" transform="translate(732,3573)"/>
<path d="M0,0 L7,6 L8,8 L-4,8 L-9,5 L-7,4 L-2,6 L-1,2 Z " fill="#411700" transform="translate(1265,3503)"/>
<path d="M0,0 L2,1 L4,27 L1,26 L0,12 Z " fill="#762606" transform="translate(1449,3353)"/>
<path d="M0,0 L1,4 L1,10 L-2,11 L-4,14 L-8,8 L-1,2 Z " fill="#6A1800" transform="translate(1006,3264)"/>
<path d="M0,0 L4,2 L2,5 L-1,16 L-3,14 L-6,17 L-3,7 Z " fill="#672F18" transform="translate(842,3220)"/>
<path d="M0,0 L1,2 L0,14 L-2,26 L-4,25 L-4,13 L-1,13 L-2,6 L-3,4 Z " fill="#965724" transform="translate(1012,3205)"/>
<path d="M0,0 L6,0 L9,8 L8,11 L6,7 L2,5 L-3,1 Z " fill="#4E1C00" transform="translate(1038,3207)"/>
<path d="M0,0 L12,0 L12,3 L-4,5 L-2,1 Z " fill="#582900" transform="translate(1302,3202)"/>
<path d="M0,0 L4,2 L3,12 L-5,10 L-1,4 Z " fill="#000000" transform="translate(1225,3505)"/>
<path d="M0,0 L2,1 L2,12 L-1,15 L-3,19 L-3,9 Z " fill="#520000" transform="translate(1240,3231)"/>
<path d="M0,0 L2,2 L2,8 L3,5 L6,5 L3,14 L2,17 L0,17 L-2,13 L0,3 Z " fill="#762A13" transform="translate(989,3189)"/>
<path d="M0,0 L7,1 L9,4 L3,4 L-6,7 L-5,3 Z " fill="#250000" transform="translate(1417,3525)"/>
<path d="M0,0 L1,0 L1,10 L-6,15 L-12,16 L-7,11 L-2,6 Z " fill="#552B09" transform="translate(1459,3503)"/>
<path d="M0,0 L5,2 L11,10 L12,13 L12,26 L11,26 L9,13 L3,4 Z " fill="#2F1409" transform="translate(955,3231)"/>
<path d="M0,0 L2,0 L1,5 L2,18 L3,20 L0,20 L-3,10 L-3,3 Z " fill="#6D2500" transform="translate(1410,3203)"/>
<path d="M0,0 L3,3 L-3,6 L-4,9 L-9,9 L-8,4 L-4,1 Z " fill="#53371B" transform="translate(891,3193)"/>
<path d="M0,0 L2,0 L5,6 L12,8 L12,9 L4,11 L4,9 L2,8 L1,21 L0,21 Z " fill="#6A1B02" transform="translate(1456,3342)"/>
<path d="M0,0 L1,2 L3,3 L-3,21 L-6,25 L-5,18 Z " fill="#6C270B" transform="translate(1262,3332)"/>
<path d="M0,0 L2,0 L2,6 L0,11 L-3,10 L-4,3 L-3,1 Z " fill="#692100" transform="translate(1253,3308)"/>
<path d="M0,0 L2,3 L3,11 L4,12 L4,25 L2,27 L0,6 Z " fill="#391507" transform="translate(1285,3271)"/>
<path d="M0,0 L3,0 L3,2 L5,2 L9,8 L13,13 L10,13 L5,8 L3,6 L4,4 L0,3 L0,5 L-4,4 L-2,4 Z " fill="#6B3200" transform="translate(884,3160)"/>
<path d="M0,0 L2,3 L1,8 L-1,12 L-7,17 L-7,14 Z " fill="#4D1E0B" transform="translate(923,3357)"/>
<path d="M0,0 L5,0 L3,5 L0,11 L-1,8 L-4,6 Z " fill="#822C00" transform="translate(784,3304)"/>
<path d="M0,0 L2,1 L8,9 L5,11 L3,11 L1,8 L-2,7 Z " fill="#5C3A1A" transform="translate(864,3192)"/>
<path d="M0,0 L5,0 L4,2 L2,2 L0,9 L-6,10 L-5,6 L-4,7 L-3,2 Z " fill="#656131" transform="translate(893,3180)"/>
<path d="M0,0 L4,1 L9,4 L8,6 L2,4 L-6,5 L-11,8 L-10,4 L-3,2 Z " fill="#742703" transform="translate(1351,3149)"/>
<path d="M0,0 L5,2 L9,4 L17,4 L23,5 L23,6 L15,7 L7,6 L0,2 L-1,6 L-4,6 L-1,1 Z " fill="#752000" transform="translate(1303,3138)"/>
<path d="M0,0 L5,1 L18,5 L15,7 L8,6 L0,2 Z " fill="#381406" transform="translate(1297,3495)"/>
<path d="M0,0 L9,0 L9,1 L3,2 L11,3 L11,4 L-3,6 L-12,6 L-12,5 L-2,3 Z " fill="#4B1D0A" transform="translate(851,3492)"/>
<path d="M0,0 L3,1 L3,4 L0,6 L-8,7 L-6,3 Z " fill="#2E1106" transform="translate(1309,3285)"/>
<path d="M0,0 L1,0 L1,8 L0,12 L-4,11 L-4,4 Z " fill="#5B361A" transform="translate(1007,3247)"/>
<path d="M0,0 L5,1 L10,7 L10,9 L3,8 L0,1 Z " fill="#5E1800" transform="translate(1301,3182)"/>
<path d="M0,0 L1,0 L1,11 L-1,19 L-4,19 L-2,1 Z " fill="#532411" transform="translate(967,3247)"/>
<path d="M0,0 L3,1 L4,9 L2,16 L1,16 L0,11 Z " fill="#943D1B" transform="translate(1216,3438)"/>
<path d="M0,0 L1,3 L-3,14 L-7,9 L-7,7 L-5,7 L-4,3 Z " fill="#391400" transform="translate(1266,3210)"/>
<path d="M0,0 L2,2 L3,17 L-1,18 L-1,6 Z " fill="#3F0000" transform="translate(1240,3461)"/>
<path d="M0,0 L3,1 L-11,8 L-17,10 L-19,8 Z " fill="#54210D" transform="translate(966,3462)"/>
<path d="M0,0 L4,4 L5,8 L7,8 L11,15 L10,19 L8,17 L2,6 Z " fill="#431707" transform="translate(1052,3226)"/>
<path d="M0,0 L8,0 L8,2 L11,3 L8,3 L8,5 L0,5 L-1,1 Z " fill="#290000" transform="translate(1030,3203)"/>
<path d="M0,0 L14,0 L11,2 L9,3 L0,3 L-7,2 L-7,1 Z " fill="#65270E" transform="translate(838,3494)"/>
<path d="M0,0 L1,0 L2,11 L2,24 L1,24 L0,17 L-1,16 L-1,5 Z " fill="#2F0500" transform="translate(1259,3268)"/>
<path d="M0,0 L2,0 L0,6 L-5,11 L-10,14 L-8,10 Z " fill="#280E03" transform="translate(1035,3264)"/>
<path d="M0,0 L1,0 L2,8 L0,11 L-6,10 L-7,7 L-6,4 L-2,6 L-2,8 L0,8 Z " fill="#7E271F" transform="translate(1394,3175)"/>
<path d="M0,0 L7,0 L3,2 L-4,6 L-8,8 L-10,7 L-9,4 L-8,5 L-3,1 Z " fill="#752A0F" transform="translate(1452,3560)"/>
<path d="M0,0 L11,0 L11,1 L-6,3 L-8,4 L-15,4 L-16,2 Z " fill="#230000" transform="translate(1382,3546)"/>
<path d="M0,0 L7,0 L10,3 L8,4 L-1,4 L-4,2 Z " fill="#000000" transform="translate(1442,3202)"/>
<path d="M0,0 L2,0 L1,12 L0,14 L-3,14 L-3,9 Z " fill="#6B2500" transform="translate(1461,3229)"/>
<path d="M0,0 L3,4 L6,12 L5,15 L1,12 Z " fill="#743918" transform="translate(1100,3196)"/>
<path d="M0,0 L4,0 L3,4 L-7,7 L-10,5 L-7,3 L-2,3 L-2,1 Z " fill="#600000" transform="translate(866,3528)"/>
<path d="M0,0 L0,3 L-5,7 L-7,16 L-8,16 L-9,9 L-10,6 Z " fill="#381900" transform="translate(1436,3522)"/>
<path d="M0,0 L3,4 L7,10 L6,12 L-5,3 L-2,2 L-1,3 Z " fill="#BF6803" transform="translate(1217,3462)"/>
<path d="M0,0 L1,0 L1,19 L-2,19 L-1,13 L-1,1 Z " fill="#4B2412" transform="translate(1237,3414)"/>
<path d="M0,0 L1,0 L2,8 L-2,14 L-6,16 L-9,18 L-7,14 L-1,7 Z " fill="#2C1004" transform="translate(1077,3341)"/>
<path d="M0,0 L2,1 L2,10 L-1,17 L-2,17 L-1,5 Z " fill="#65220B" transform="translate(1011,3238)"/>
<path d="M0,0 L4,2 L5,7 L3,13 L1,9 Z " fill="#6A4619" transform="translate(1102,3209)"/>
<path d="M0,0 L5,5 L6,6 L13,7 L12,9 L5,8 L-1,7 Z " fill="#44110F" transform="translate(1362,3209)"/>
<path d="M0,0 L3,2 L4,8 L2,13 L1,15 L-1,15 Z " fill="#0B0301" transform="translate(1294,3208)"/>
<path d="M0,0 L1,2 L-3,4 L-6,4 L-5,7 L-7,9 L-8,15 L-10,15 L-9,6 L-4,1 Z " fill="#942514" transform="translate(1281,3141)"/>
<path d="M0,0 L3,4 L-2,9 L-10,8 L-8,6 L-4,6 L-3,3 Z " fill="#400000" transform="translate(999,3274)"/>
<path d="M0,0 L6,1 L17,5 L16,8 L11,6 L0,1 Z " fill="#643318" transform="translate(953,3212)"/>
<path d="M0,0 L2,2 L3,12 L1,15 L-1,11 L-1,3 Z " fill="#070000" transform="translate(1218,3451)"/>
<path d="M0,0 L3,1 L-4,10 L-5,10 L-5,4 L-2,1 Z " fill="#7D3518" transform="translate(793,3326)"/>
<path d="M0,0 L4,2 L8,9 L9,13 L7,14 L4,8 L4,6 L2,6 L0,3 Z " fill="#380000" transform="translate(1052,3215)"/>
<path d="M0,0 L1,3 L-4,6 L-7,12 L-10,12 L-9,7 L-5,3 L-1,3 Z " fill="#6E4A24" transform="translate(886,3190)"/>
<path d="M0,0 L5,0 L5,4 L1,8 L-2,7 Z " fill="#8F5555" transform="translate(905,3183)"/>
<path d="M0,0 L2,0 L3,2 L3,12 L2,9 L-2,8 Z " fill="#30150A" transform="translate(771,3367)"/>
<path d="M0,0 L6,0 L2,10 L0,8 L-1,1 Z " fill="#290000" transform="translate(1114,3330)"/>
<path d="M0,0 L2,1 L0,2 Z M-1,2 L1,3 L1,5 L3,6 L-5,10 L-7,10 L-7,5 L-6,7 L-4,7 L-4,5 Z " fill="#6B290F" transform="translate(817,3269)"/>
<path d="M0,0 L5,3 L14,4 L15,7 L4,6 L2,2 L0,2 Z " fill="#571715" transform="translate(1364,3210)"/>
<path d="M0,0 L8,2 L7,5 L2,6 L-1,5 Z " fill="#803700" transform="translate(1315,3201)"/>
<path d="M0,0 L2,0 L4,2 L9,4 L12,7 L10,8 L7,6 L-3,4 L-3,2 L0,2 Z " fill="#502F2F" transform="translate(893,3187)"/>
<path d="M0,0 L5,1 L7,4 L-3,4 L-8,3 L-8,2 L-1,1 Z " fill="#5B2E00" transform="translate(1346,3543)"/>
<path d="M0,0 L5,0 L2,3 L-4,5 L-10,5 L-12,2 Z " fill="#2F1206" transform="translate(874,3492)"/>
<path d="M0,0 L2,3 L2,5 L-7,9 L-8,6 Z " fill="#451A00" transform="translate(1022,3447)"/>
<path d="M0,0 L2,1 L-2,6 L-9,11 L-10,13 L-12,13 L-10,9 Z " fill="#6E2F17" transform="translate(1025,3415)"/>
<path d="M0,0 L15,0 L12,4 L2,3 Z " fill="#3E1800" transform="translate(1046,3421)"/>
<path d="M0,0 L3,0 L5,9 L5,15 L2,11 Z " fill="#78412E" transform="translate(1470,3376)"/>
<path d="M0,0 L19,4 L21,6 L4,4 Z " fill="#3B1708" transform="translate(1385,3282)"/>
<path d="M0,0 L3,1 L1,5 L-3,11 L-7,10 L-1,3 Z " fill="#330100" transform="translate(1388,3561)"/>
<path d="M0,0 L1,3 L-3,15 L-6,19 L-5,12 Z " fill="#62250D" transform="translate(1451,3433)"/>
<path d="M0,0 L2,0 L2,6 L-3,8 L-3,1 Z " fill="#5E2000" transform="translate(1461,3275)"/>
<path d="M0,0 L5,0 L3,7 L2,3 L-5,4 L-4,1 Z " fill="#4A2A14" transform="translate(822,3243)"/>
<path d="M0,0 L3,1 L-2,3 L5,4 L2,6 L-3,7 L-5,5 L-5,1 Z " fill="#701800" transform="translate(1322,3180)"/>
<path d="M0,0 L8,1 L11,3 L6,4 L-1,3 Z " fill="#8B300F" transform="translate(1418,3573)"/>
<path d="M0,0 L4,1 L0,5 L-6,5 L-6,1 Z " fill="#441F00" transform="translate(899,3514)"/>
<path d="M0,0 L1,0 L1,7 L-1,16 L-4,15 L-2,6 Z " fill="#3B1708" transform="translate(1409,3350)"/>
<path d="M0,0 L1,0 L2,8 L2,18 L0,21 L-1,12 L0,10 Z " fill="#792222" transform="translate(993,3237)"/>
<path d="M0,0 L3,0 L3,2 L7,4 L-4,6 L-2,2 Z " fill="#351B0D" transform="translate(857,3200)"/>
<path d="M0,0 L5,0 L8,2 L8,4 L11,5 L11,7 L7,5 L1,4 Z " fill="#6C3636" transform="translate(894,3186)"/>
<path d="M0,0 L4,1 L3,4 L-1,5 L-5,10 L-5,4 L-4,2 L0,2 Z " fill="#8A3D35" transform="translate(884,3163)"/>
<path d="M0,0 L15,0 L16,2 L8,3 L0,1 Z " fill="#000000" transform="translate(1349,3548)"/>
<path d="M0,0 L4,1 L2,8 L-1,7 L-2,4 Z " fill="#8E2D2C" transform="translate(780,3311)"/>
<path d="M0,0 L6,3 L7,8 L6,5 L1,6 L0,8 Z " fill="#461000" transform="translate(1457,3270)"/>
<path d="M0,0 L4,5 L7,14 L5,13 L5,11 L3,11 L3,8 L1,8 Z " fill="#331104" transform="translate(1032,3222)"/>
<path d="M0,0 L11,2 L11,4 L0,3 L-6,2 L-6,1 Z " fill="#36180B" transform="translate(919,3217)"/>
<path d="M0,0 L2,0 L4,5 L-1,8 L-5,9 L-5,7 L-1,3 Z " fill="#951B00" transform="translate(1455,3198)"/>
<path d="M0,0 L5,3 L8,6 L8,9 L3,7 L0,2 Z " fill="#853518" transform="translate(1454,3177)"/>
<path d="M0,0 L6,3 L2,5 L-3,7 L-2,1 Z " fill="#98391D" transform="translate(869,3531)"/>
<path d="M0,0 L2,3 L4,12 L1,16 L0,10 Z " fill="#4B1F0D" transform="translate(1243,3431)"/>
<path d="M0,0 L3,4 L5,10 L3,13 L-1,2 Z " fill="#411A0A" transform="translate(1301,3361)"/>
<path d="M0,0 L5,0 L1,1 L1,12 L-1,10 L-3,11 L-2,6 Z " fill="#6B270C" transform="translate(806,3282)"/>
<path d="M0,0 L3,1 L1,12 L-2,12 L-1,4 Z " fill="#451F0F" transform="translate(839,3236)"/>
<path d="M0,0 L2,1 L-1,4 L-7,15 L-8,12 L-4,4 Z " fill="#6B2407" transform="translate(1277,3207)"/>
<path d="M0,0 L1,0 L1,7 L-2,14 L-5,14 Z " fill="#4A1300" transform="translate(1462,3464)"/>
<path d="M0,0 L3,0 L1,4 L-4,10 L-6,10 L-5,7 L-3,7 L-2,2 Z " fill="#6C1400" transform="translate(736,3379)"/>
<path d="M0,0 L1,4 L0,7 L-7,12 L-5,7 Z " fill="#6C2C12" transform="translate(1079,3348)"/>
<path d="M0,0 L1,4 L-3,16 L-6,15 L-4,10 L-2,10 L-1,2 Z " fill="#692207" transform="translate(1257,3330)"/>
<path d="M0,0 L2,0 L2,3 L10,5 L7,7 L-1,5 Z " fill="#621E07" transform="translate(1383,3213)"/>
<path d="M0,0 L11,1 L13,2 L13,4 L7,4 L0,1 Z " fill="#431500" transform="translate(1335,3534)"/>
<path d="M0,0 L1,0 L1,11 L-1,14 L-3,8 Z " fill="#4B1E0B" transform="translate(1460,3439)"/>
<path d="M0,0 L3,1 L3,8 L1,8 L1,13 L0,13 Z " fill="#361306" transform="translate(1431,3246)"/>
<path d="M0,0 L5,2 L2,3 L1,8 L-2,5 L-3,2 L0,2 Z " fill="#532814" transform="translate(979,3224)"/>
<path d="M0,0 L6,2 L4,5 L2,5 L2,9 L0,9 Z " fill="#6E2821" transform="translate(1297,3211)"/>
<path d="M0,0 L4,1 L8,3 L7,6 L7,4 L-2,4 Z " fill="#4C2219" transform="translate(1375,3205)"/>
<path d="M0,0 L7,1 L11,3 L11,6 L7,5 L0,1 Z " fill="#7C2114" transform="translate(1428,3164)"/>
<path d="M0,0 L4,2 L12,8 L12,10 L8,8 L0,1 Z " fill="#2E0000" transform="translate(721,3505)"/>
<path d="M0,0 L3,4 L6,10 L5,14 L0,4 Z " fill="#602711" transform="translate(1248,3438)"/>
<path d="M0,0 L9,0 L9,2 L-5,3 L-2,1 Z " fill="#230D05" transform="translate(857,3394)"/>
<path d="M0,0 L0,3 L-5,8 L-6,4 L-6,2 L-2,1 Z M-8,6 L-6,8 L-8,8 Z " fill="#550300" transform="translate(734,3388)"/>
<path d="M0,0 L1,0 L2,14 L3,16 L2,23 L1,23 L0,16 Z " fill="#000000" transform="translate(1018,3244)"/>
<path d="M0,0 L5,0 L7,4 L7,10 L5,10 L3,2 Z " fill="#911F00" transform="translate(1327,3143)"/>
<path d="M0,0 L7,3 L5,6 L0,5 Z " fill="#FF0000" transform="translate(1225,3500)"/>
<path d="M0,0 L0,3 L-7,10 L-8,7 Z " fill="#281005" transform="translate(916,3373)"/>
<path d="M0,0 L3,1 L4,7 L0,7 Z " fill="#754E27" transform="translate(1259,3257)"/>
<path d="M0,0 L2,0 L1,4 L0,8 L-2,8 L-4,2 Z " fill="#653F21" transform="translate(1007,3238)"/>
<path d="M0,0 L1,0 L1,12 L-2,15 L-1,6 Z " fill="#020000" transform="translate(1464,3224)"/>
<path d="M0,0 L2,0 L0,5 L-4,8 L-3,1 Z " fill="#934015" transform="translate(1009,3164)"/>
<path d="M0,0 L1,0 L1,11 L-2,12 L-1,2 Z " fill="#6A2B0B" transform="translate(699,3443)"/>
<path d="M0,0 L2,0 L1,6 L-4,11 L-6,10 L-2,6 Z " fill="#360F02" transform="translate(1085,3376)"/>
<path d="M0,0 L3,1 L-1,5 L-3,8 L-3,6 L-6,5 L-4,5 L-2,1 Z " fill="#733925" transform="translate(766,3340)"/>
<path d="M0,0 L3,0 L4,8 L2,8 L2,6 L0,6 Z " fill="#54381B" transform="translate(821,3246)"/>
<path d="M0,0 L5,1 L8,5 L7,9 L0,1 Z " fill="#461200" transform="translate(1442,3215)"/>
<path d="M0,0 L6,1 L4,5 L0,6 Z " fill="#1D0B02" transform="translate(1031,3208)"/>
<path d="M0,0 L5,1 L12,5 L10,6 L2,3 Z " fill="#511B1B" transform="translate(894,3195)"/>
<path d="M0,0 L6,4 L9,8 L5,7 L-1,2 Z " fill="#630000" transform="translate(1446,3189)"/>
<path d="M0,0 L1,2 L3,2 L4,0 L5,1 L5,8 L0,3 Z " fill="#471900" transform="translate(1235,3451)"/>
<path d="M0,0 L5,1 L1,5 L-1,5 L-2,7 L-2,1 Z " fill="#331800" transform="translate(1468,3443)"/>
<path d="M0,0 L17,1 L17,2 L4,3 Z " fill="#351407" transform="translate(1334,3393)"/>
<path d="M0,0 L4,1 L5,3 L-3,4 L-5,1 Z " fill="#481D0B" transform="translate(890,3388)"/>
<path d="M0,0 L1,2 L-5,9 L-8,8 Z " fill="#843313" transform="translate(917,3376)"/>
<path d="M0,0 L1,0 L2,14 L-1,13 Z " fill="#662105" transform="translate(1451,3366)"/>
<path d="M0,0 L2,4 L-3,9 L-4,5 Z " fill="#3A1506" transform="translate(1275,3311)"/>
<path d="M0,0 L1,0 L1,9 L-2,8 L-2,1 Z " fill="#551800" transform="translate(1263,3284)"/>
<path d="M0,0 L4,0 L3,3 L-4,5 L-3,1 Z " fill="#501700" transform="translate(1007,3273)"/>
<path d="M0,0 L3,0 L3,3 L-14,2 L-14,1 Z " fill="#421A0B" transform="translate(1367,3228)"/>
<path d="M0,0 L3,3 L0,4 L-1,7 L-4,7 L-3,2 Z " fill="#623118" transform="translate(888,3195)"/>
<path d="M0,0 L6,0 L4,4 L2,4 L1,7 Z " fill="#833200" transform="translate(1458,3553)"/>
<path d="M0,0 L3,4 L3,12 L1,10 L0,7 Z " fill="#602218" transform="translate(704,3473)"/>
<path d="M0,0 L3,0 L1,4 L-4,10 L-4,7 Z " fill="#6C2D14" transform="translate(800,3324)"/>
<path d="M0,0 L1,4 L-4,6 L-3,3 Z M-5,6 L-3,9 L-7,10 L-8,8 Z " fill="#7A2300" transform="translate(1006,3264)"/>
<path d="M0,0 L1,0 L3,8 L2,11 L0,11 L-1,13 Z " fill="#6F3219" transform="translate(830,3255)"/>
<path d="M0,0 L8,0 L9,2 L-2,3 Z " fill="#541B1B" transform="translate(1318,3213)"/>
<path d="M0,0 L5,5 L8,9 L5,9 L0,4 L-2,2 L0,2 Z " fill="#842507" transform="translate(889,3164)"/>
<path d="M0,0 L5,0 L6,2 L-3,3 L-4,1 Z " fill="#89502C" transform="translate(880,3531)"/>
<path d="M0,0 L3,1 L1,7 L-1,6 L-2,1 Z " fill="#380F00" transform="translate(1409,3527)"/>
<path d="M0,0 L4,1 L6,3 L-8,2 L-8,1 Z " fill="#52210D" transform="translate(868,3490)"/>
<path d="M0,0 L1,0 L1,9 L-2,6 L-2,1 Z " fill="#000000" transform="translate(1482,3401)"/>
<path d="M0,0 L2,1 L1,6 L-1,6 L-2,8 L-2,2 Z " fill="#FF0000" transform="translate(1481,3396)"/>
<path d="M0,0 L3,1 L-1,3 L-4,3 L-4,5 L0,6 L-6,7 L-5,2 Z " fill="#481D0C" transform="translate(819,3290)"/>
<path d="M0,0 L2,0 L3,5 L10,5 L7,7 L0,7 Z " fill="#3D1809" transform="translate(807,3275)"/>
<path d="M0,0 L2,1 L2,9 L-1,10 Z " fill="#391507" transform="translate(1425,3258)"/>
<path d="M0,0 L7,0 L9,1 L9,3 L0,3 Z " fill="#6D2600" transform="translate(1431,3204)"/>
<path d="M0,0 L2,1 L2,4 L-2,5 L-7,5 L-6,3 Z " fill="#864300" transform="translate(1326,3179)"/>
<path d="M0,0 L4,1 L4,3 L9,3 L9,4 L-1,4 Z " fill="#973B3B" transform="translate(1285,3146)"/>
<path d="M0,0 L6,3 L12,4 L12,5 L3,5 L0,2 Z " fill="#4B2500" transform="translate(1350,3542)"/>
<path d="M0,0 L7,0 L4,2 L6,4 L-2,3 L-2,1 Z " fill="#533525" transform="translate(873,3531)"/>
<path d="M0,0 L1,0 L1,7 L-2,8 L-2,2 Z " fill="#55431F" transform="translate(1232,3410)"/>
<path d="M0,0 L1,2 L5,3 L2,4 L0,6 L-4,5 Z " fill="#6A2C14" transform="translate(785,3321)"/>
<path d="M0,0 L2,0 L7,6 L6,8 L4,8 L0,2 Z " fill="#5C2100" transform="translate(979,3263)"/>
<path d="M0,0 L2,1 L1,8 L-1,9 L-1,2 Z " fill="#D80000" transform="translate(1240,3231)"/>
<path d="M0,0 L7,1 L7,4 L-1,3 Z " fill="#482010" transform="translate(930,3219)"/>
<path d="M0,0 L4,1 L4,8 L1,8 L2,1 Z " fill="#7F574A" transform="translate(1007,3210)"/>
<path d="M0,0 L9,1 L9,3 L5,4 Z " fill="#8D2E2E" transform="translate(1329,3209)"/>
<path d="M0,0 L4,2 L6,7 L4,7 L2,4 L-1,3 Z " fill="#5A2D16" transform="translate(863,3196)"/>
<path d="M0,0 L4,1 L3,3 L0,2 L-1,6 L-4,6 L-1,1 Z " fill="#5F2100" transform="translate(1303,3138)"/>
<path d="M0,0 L5,1 L1,6 L-1,3 Z " fill="#782823" transform="translate(692,3473)"/>
<path d="M0,0 L2,3 L3,11 L1,10 L0,8 Z " fill="#63240D" transform="translate(1240,3453)"/>
<path d="M0,0 L2,0 L1,4 L-3,8 L-3,5 Z " fill="#3F1809" transform="translate(919,3366)"/>
<path d="M0,0 L2,3 L1,14 L0,14 L-1,6 Z " fill="#331004" transform="translate(1263,3293)"/>
<path d="M0,0 L2,0 L1,9 L-1,9 Z " fill="#AA0B00" transform="translate(1010,3259)"/>
<path d="M0,0 L2,0 L3,2 L3,10 L2,10 Z M-1,3 Z M-2,4 Z M-3,5 Z " fill="#9F700F" transform="translate(985,3256)"/>
<path d="M0,0 L5,0 L10,4 L3,3 Z " fill="#422C16" transform="translate(890,3196)"/>
<path d="M0,0 L4,1 L6,5 L1,4 Z " fill="#792300" transform="translate(1305,3186)"/>
<path d="M0,0 L1,4 L-2,4 L-2,6 L-5,7 L-3,2 Z " fill="#8D413A" transform="translate(995,3165)"/>
<path d="M0,0 L5,1 L3,5 L0,4 Z " fill="#743904" transform="translate(761,3353)"/>
<path d="M0,0 L3,0 L1,6 L-1,7 Z " fill="#902800" transform="translate(1250,3309)"/>
<path d="M0,0 L2,0 L3,6 L0,7 Z " fill="#3C0F0F" transform="translate(1261,3278)"/>
<path d="M0,0 L3,1 L3,4 L-4,4 Z " fill="#240000" transform="translate(1000,3278)"/>
<path d="M0,0 L1,0 L1,10 L0,12 L-2,12 Z " fill="#4E2110" transform="translate(829,3260)"/>
<path d="M0,0 L4,0 L3,6 L1,6 Z " fill="#582A1D" transform="translate(1259,3264)"/>
<path d="M0,0 L2,1 L2,6 L-2,5 L-1,1 Z " fill="#7B4D2E" transform="translate(985,3259)"/>
<path d="M0,0 L4,2 L1,7 L-1,7 Z " fill="#72331B" transform="translate(842,3220)"/>
<path d="M0,0 L5,2 L7,4 L2,5 L0,3 Z " fill="#4F321A" transform="translate(969,3218)"/>
<path d="M0,0 L1,2 L0,10 L-2,6 L-3,4 Z " fill="#280000" transform="translate(1012,3205)"/>
<path d="M0,0 L1,0 L2,9 L1,11 L-1,11 Z " fill="#7A3D00" transform="translate(1259,3196)"/>
<path d="M0,0 L9,1 L5,2 L3,1 L4,4 L0,2 Z " fill="#320700" transform="translate(732,3573)"/>
<path d="M0,0 L2,0 L3,5 L-1,4 L-2,1 Z " fill="#613914" transform="translate(1211,3459)"/>
<path d="M0,0 L4,2 L4,5 L0,6 L-1,4 Z " fill="#704A26" transform="translate(1474,3399)"/>
<path d="M0,0 L4,5 L5,7 L3,9 L0,4 Z " fill="#311308" transform="translate(1305,3371)"/>
<path d="M0,0 L2,0 L0,6 L-1,8 L-3,7 Z " fill="#3A1404" transform="translate(1035,3264)"/>
<path d="M0,0 L4,2 L5,5 L0,4 Z " fill="#716D1D" transform="translate(1102,3209)"/>
<path d="M0,0 L3,2 L4,7 L-2,3 Z " fill="#8E2525" transform="translate(1005,3208)"/>
<path d="M0,0 L4,2 L4,4 L7,4 L6,6 L-2,2 Z " fill="#481600" transform="translate(1428,3206)"/>
<path d="M0,0 L5,2 L7,5 L2,5 L2,3 L-1,2 Z " fill="#873A3A" transform="translate(887,3167)"/>
<path d="M0,0 L2,1 L2,4 L-4,4 Z " fill="#8A390C" transform="translate(1048,3185)"/>
<path d="M0,0 L3,0 L4,3 L-2,3 L-3,1 Z " fill="#8D3E13" transform="translate(978,3201)"/>
<path d="M0,0 L3,0 L2,5 L-1,4 Z " fill="#510900" transform="translate(1013,3266)"/>
<path d="M0,0 L1,4 L-1,3 Z " fill="#632300" transform="translate(1012,3227)"/>
<path d="M0,0 L3,0 L2,3 Z " fill="#6A6A00" transform="translate(979,3205)"/>
<path d="M0,0 L3,1 L1,3 Z " fill="#000000" transform="translate(779,3305)"/>
<path d="M0,0 L1,4 Z " fill="#000000" transform="translate(1215,3373)"/>
<path d="M0,0 L2,0 L1,2 Z " fill="#000000" transform="translate(732,3577)"/>
<path d="M0,0 Z " fill="#000000" transform="translate(1237,3252)"/>
<path d="M0,0 L2,2 L0,2 Z " fill="#000000" transform="translate(1474,3212)"/>
<path d="M0,0 L2,1 Z " fill="#000000" transform="translate(1120,3313)"/>
<path d="M0,0 Z " fill="#000000" transform="translate(1201,3275)"/>
<path d="M0,0 Z " fill="#000000" transform="translate(927,3514)"/>
<path d="M0,0 Z " fill="#000000" transform="translate(924,3513)"/>
<path d="M0,0 Z " fill="#000000" transform="translate(922,3512)"/>
<path d="M0,0 Z " fill="#000000" transform="translate(1510,3498)"/>
<path d="M0,0 Z " fill="#000000" transform="translate(1511,3494)"/>
<path d="M0,0 Z " fill="#000000" transform="translate(1224,3474)"/>
<path d="M0,0 Z " fill="#000000" transform="translate(724,3398)"/>
<path d="M0,0 Z " fill="#FF0000" transform="translate(725,3397)"/>
<path d="M0,0 Z " fill="#FF0000" transform="translate(727,3392)"/>
<path d="M0,0 Z " fill="#000000" transform="translate(1216,3387)"/>
<path d="M0,0 Z " fill="#000000" transform="translate(1125,3332)"/>
<path d="M0,0 Z " fill="#000000" transform="translate(1238,3258)"/>
<path d="M0,0 Z " fill="#000000" transform="translate(1013,3204)"/>
<path d="M0,0 Z " fill="#FF0000" transform="translate(1453,3176)"/>
</svg>
