<?xml version="1.0" encoding="UTF-8"?>
<svg version="1.1" xmlns="http://www.w3.org/2000/svg" width="2500" height="3686">
<path d="M0,0 L4,4 L5,12 L19,13 L41,14 L87,16 L124,16 L157,15 L195,12 L218,9 L220,8 L216,5 L216,2 L222,3 L227,6 L228,20 L220,47 L216,60 L210,79 L206,93 L199,114 L195,127 L188,148 L183,162 L179,175 L167,212 L164,226 L160,242 L144,309 L138,330 L130,361 L128,372 L124,389 L121,397 L116,419 L112,446 L111,447 L110,456 L110,505 L113,531 L114,548 L116,586 L116,638 L115,649 L111,665 L106,677 L98,689 L82,705 L63,718 L48,727 L31,736 L8,745 L-15,752 L-48,759 L-86,765 L-113,767 L-150,767 L-167,765 L-179,761 L-188,755 L-194,747 L-197,738 L-197,716 L-193,697 L-183,667 L-171,642 L-164,628 L-152,606 L-147,598 L-140,585 L-135,577 L-131,569 L-123,556 L-117,546 L-111,537 L-104,524 L-102,524 L-99,515 L-97,511 L-95,511 L-94,506 L-89,497 L-85,489 L-80,476 L-75,462 L-72,454 L-68,442 L-67,437 L-63,422 L-60,413 L-52,377 L-49,362 L-47,356 L-33,278 L-31,271 L-15,181 L-13,167 L-12,155 L-9,131 L-8,108 L-6,82 L-6,64 L-5,53 L-5,35 L-4,19 L-3,15 L-7,14 L-7,12 L-3,11 L-2,1 Z " fill="#FEFEFE" transform="translate(927,2736)"/>
<path d="M0,0 L6,0 L15,7 L23,14 L34,19 L53,25 L77,30 L92,32 L131,33 L145,33 L167,30 L182,27 L194,22 L199,18 L204,19 L204,27 L201,43 L200,52 L193,94 L190,108 L183,156 L180,169 L173,213 L170,227 L155,321 L149,365 L149,374 L148,385 L147,414 L147,432 L148,470 L152,511 L157,550 L161,580 L164,607 L166,621 L167,629 L167,673 L163,699 L157,716 L149,728 L142,734 L132,739 L115,743 L90,745 L47,745 L22,741 L8,736 L-3,729 L-8,724 L-16,714 L-22,702 L-28,684 L-31,670 L-33,651 L-33,626 L-31,611 L-31,604 L-28,587 L-26,580 L-24,572 L-20,556 L-18,551 L-14,534 L-11,526 L-7,503 L-3,475 L0,444 L0,432 L1,410 L2,354 L5,305 L6,276 L6,219 L5,147 L2,80 L1,74 L-1,28 L-2,18 L-2,7 Z " fill="#FEFEFE" transform="translate(1285,2752)"/>
<path d="M0,0 L4,4 L5,12 L19,13 L41,14 L87,16 L124,16 L157,15 L195,12 L218,9 L220,8 L216,5 L216,2 L222,3 L227,6 L228,20 L220,47 L216,60 L210,79 L206,93 L199,114 L195,127 L188,148 L183,162 L179,175 L167,212 L164,226 L160,242 L144,309 L138,330 L130,361 L128,372 L124,389 L121,397 L116,419 L112,446 L111,447 L110,456 L110,505 L113,531 L114,548 L116,586 L116,638 L115,649 L111,665 L106,677 L98,689 L82,705 L63,718 L48,727 L31,736 L8,745 L-15,752 L-48,759 L-86,765 L-113,767 L-150,767 L-167,765 L-179,761 L-188,755 L-194,747 L-197,738 L-197,716 L-193,697 L-183,667 L-171,642 L-164,628 L-152,606 L-147,598 L-140,585 L-135,577 L-131,569 L-123,556 L-117,546 L-111,537 L-104,524 L-102,524 L-99,515 L-97,511 L-95,511 L-94,506 L-89,497 L-85,489 L-80,476 L-75,462 L-72,454 L-68,442 L-67,437 L-63,422 L-60,413 L-52,377 L-49,362 L-47,356 L-33,278 L-31,271 L-15,181 L-13,167 L-12,155 L-9,131 L-8,108 L-6,82 L-6,64 L-5,53 L-5,35 L-4,19 L-3,15 L-7,14 L-7,12 L-3,11 L-2,1 Z M220,13 L207,16 L178,19 L151,20 L140,21 L93,21 L45,19 L9,15 L3,15 L2,17 L0,15 L-1,100 L-3,138 L-9,178 L-11,197 L-32,316 L-35,327 L-44,377 L-44,382 L-46,382 L-50,401 L-51,414 L-53,414 L-59,439 L-59,442 L-61,442 L-71,474 L-75,483 L-80,495 L-84,504 L-86,510 L-88,510 L-93,520 L-103,537 L-112,552 L-121,567 L-130,582 L-140,599 L-153,622 L-158,632 L-161,639 L-163,645 L-165,645 L-174,665 L-177,673 L-181,681 L-188,704 L-191,721 L-191,737 L-189,737 L-188,742 L-185,748 L-178,754 L-168,758 L-163,759 L-102,759 L-57,754 L-20,746 L1,740 L7,737 L16,735 L32,727 L53,716 L72,703 L83,694 L93,684 L100,673 L105,662 L109,646 L109,570 L106,539 L104,511 L103,504 L103,461 L106,436 L112,407 L122,367 L122,362 L124,362 L125,351 L127,351 L132,331 L136,311 L153,242 L164,203 L170,186 L173,174 L181,152 L183,144 L188,131 L190,123 L196,107 L200,94 L203,86 L206,74 L211,59 L213,51 L215,46 L217,38 L219,32 L221,22 L223,13 Z " fill="#0A0A0A" transform="translate(927,2736)"/>
<path d="M0,0 L6,0 L15,7 L23,14 L34,19 L53,25 L77,30 L92,32 L131,33 L145,33 L167,30 L182,27 L194,22 L199,18 L204,19 L204,27 L201,43 L200,52 L193,94 L190,108 L183,156 L180,169 L173,213 L170,227 L155,321 L149,365 L149,374 L148,385 L147,414 L147,432 L148,470 L152,511 L157,550 L161,580 L164,607 L166,621 L167,629 L167,673 L163,699 L157,716 L149,728 L142,734 L132,739 L115,743 L90,745 L47,745 L22,741 L8,736 L-3,729 L-8,724 L-16,714 L-22,702 L-28,684 L-31,670 L-33,651 L-33,626 L-31,611 L-31,604 L-28,587 L-26,580 L-24,572 L-20,556 L-18,551 L-14,534 L-11,526 L-7,503 L-3,475 L0,444 L0,432 L1,410 L2,354 L5,305 L6,276 L6,219 L5,147 L2,80 L1,74 L-1,28 L-2,18 L-2,7 Z M5,7 L5,40 L7,62 L10,129 L12,168 L12,294 L9,340 L8,370 L7,441 L4,484 L0,509 L-3,519 L-9,544 L-13,557 L-16,569 L-19,581 L-22,599 L-24,608 L-25,619 L-25,662 L-20,687 L-14,700 L-11,707 L-5,716 L3,725 L13,731 L25,734 L28,734 L28,736 L50,739 L81,739 L101,738 L116,736 L127,733 L140,726 L147,718 L152,709 L157,692 L160,673 L160,624 L159,604 L155,581 L153,570 L151,552 L146,516 L143,485 L142,469 L142,378 L147,337 L150,311 L154,286 L156,279 L170,192 L170,185 L172,185 L179,140 L181,133 L190,75 L196,41 L198,31 L198,27 L192,29 L177,34 L156,38 L100,38 L81,37 L56,32 L37,26 L21,18 L6,7 Z " fill="#080808" transform="translate(1285,2752)"/>
<path d="M0,0 L2,0 L1,10 L-1,14 L0,3 L-4,2 Z " fill="#A5A5A5" transform="translate(1481,2779)"/>
<path d="M0,0 L4,1 L3,5 L-1,4 Z " fill="#000000" transform="translate(1631,3253)"/>
</svg>
