<?xml version="1.0" encoding="UTF-8" standalone="no"?>
<svg
   version="1.1"
   width="2500"
   height="3686"
   id="svg124"
   sodipodi:docname="idle_1_default_girl.svg"
   inkscape:version="1.4.2 (f4327f4, 2025-05-13)"
   xmlns:inkscape="http://www.inkscape.org/namespaces/inkscape"
   xmlns:sodipodi="http://sodipodi.sourceforge.net/DTD/sodipodi-0.dtd"
   xmlns="http://www.w3.org/2000/svg"
   xmlns:svg="http://www.w3.org/2000/svg">
  <defs
     id="defs124" />
  <sodipodi:namedview
     id="namedview124"
     pagecolor="#ffffff"
     bordercolor="#000000"
     borderopacity="0.25"
     inkscape:showpageshadow="2"
     inkscape:pageopacity="0.0"
     inkscape:pagecheckerboard="0"
     inkscape:deskcolor="#d1d1d1"
     inkscape:zoom="0.89548954"
     inkscape:cx="518.15234"
     inkscape:cy="702.96745"
     inkscape:window-width="2560"
     inkscape:window-height="1369"
     inkscape:window-x="1072"
     inkscape:window-y="94"
     inkscape:window-maximized="1"
     inkscape:current-layer="svg124" />
  <path
     d="M0,0 L10,2 L21,8 L30,12 L36,12 L39,11 L63,11 L70,20 L74,19 L84,19 L89,21 L92,27 L91,30 L93,30 L93,36 L114,48 L134,59 L140,63 L153,63 L157,69 L156,71 L155,80 L148,83 L142,82 L143,87 L141,91 L137,94 L130,94 L124,92 L134,106 L150,127 L164,146 L180,167 L194,186 L210,207 L222,223 L225,226 L242,219 L247,220 L256,249 L255,256 L248,279 L245,296 L238,314 L234,321 L225,349 L216,352 L174,363 L172,364 L176,368 L170,377 L165,382 L159,386 L149,389 L144,389 L143,394 L141,397 L135,400 L133,404 L129,405 L127,410 L123,414 L114,421 L110,422 L103,427 L93,431 L91,431 L100,521 L118,526 L205,548 L269,564 L276,566 L284,566 L302,572 L316,579 L325,586 L336,600 L344,618 L350,637 L355,660 L359,687 L363,729 L366,779 L366,859 L364,926 L363,979 L356,1152 L356,1173 L354,1194 L353,1237 L352,1263 L350,1278 L349,1279 L349,1295 L363,1338 L373,1374 L386,1426 L394,1467 L399,1482 L402,1497 L404,1518 L405,1553 L404,1554 L399,1606 L391,1665 L375,1765 L353,1901 L339,1983 L323,2066 L308,2144 L296,2212 L284,2284 L271,2365 L260,2430 L245,2512 L238,2560 L233,2605 L231,2633 L231,2691 L234,2733 L239,2776 L244,2806 L254,2854 L257,2865 L257,2875 L265,2903 L269,2927 L269,2934 L259,2949 L235,2958 L222,2960 L215,2964 L198,2966 L137,2966 L110,2964 L106,2960 L98,2959 L86,2948 L80,2941 L74,2931 L65,2916 L59,2902 L52,2880 L50,2857 L49,2857 L49,2840 L60,2809 L71,2768 L78,2734 L84,2694 L88,2656 L91,2608 L93,2555 L93,2413 L92,2358 L92,2266 L94,2205 L97,2173 L103,2142 L113,2092 L121,2043 L125,2007 L127,1977 L128,1933 L127,1882 L125,1839 L122,1784 L121,1757 L121,1667 L122,1633 L122,1594 L119,1582 L112,1576 L104,1574 L90,1574 L80,1577 L74,1582 L68,1592 L62,1613 L49,1686 L33,1774 L19,1847 L2,1932 L-10,1980 L-22,2023 L-29,2051 L-36,2085 L-42,2123 L-47,2167 L-52,2225 L-56,2251 L-63,2276 L-82,2326 L-93,2356 L-106,2393 L-115,2418 L-129,2461 L-144,2513 L-160,2577 L-172,2627 L-180,2665 L-183,2687 L-183,2697 L-177,2747 L-165,2828 L-164,2838 L-164,2860 L-167,2875 L-173,2886 L-182,2897 L-194,2907 L-211,2919 L-234,2932 L-260,2946 L-276,2953 L-299,2959 L-335,2965 L-354,2967 L-376,2968 L-396,2968 L-425,2967 L-442,2965 L-453,2961 L-459,2957 L-463,2952 L-465,2947 L-466,2939 L-464,2922 L-456,2898 L-445,2874 L-431,2847 L-418,2824 L-402,2795 L-387,2768 L-372,2739 L-362,2720 L-349,2693 L-341,2671 L-334,2643 L-314,2543 L-298,2456 L-288,2394 L-279,2327 L-271,2255 L-263,2165 L-253,2057 L-242,1952 L-229,1843 L-220,1775 L-212,1723 L-202,1665 L-189,1597 L-162,1466 L-153,1423 L-151,1412 L-151,1405 L-156,1386 L-159,1377 L-161,1377 L-172,1335 L-181,1301 L-195,1256 L-210,1207 L-220,1172 L-234,1127 L-246,1089 L-258,1053 L-272,1010 L-290,951 L-303,905 L-313,861 L-319,826 L-324,788 L-327,749 L-327,714 L-325,696 L-321,685 L-315,677 L-303,665 L-286,652 L-269,641 L-247,628 L-220,613 L-196,600 L-177,590 L-168,584 L-163,582 L-158,583 L-149,578 L-138,570 L-127,564 L-125,559 L-115,551 L-102,541 L-94,534 L-87,525 L-85,516 L-85,505 L-88,487 L-91,471 L-93,455 L-99,439 L-109,423 L-115,415 L-129,403 L-134,398 L-138,393 L-141,391 L-141,389 L-143,389 L-154,375 L-161,368 L-164,365 L-166,367 L-176,367 L-186,365 L-188,363 L-204,371 L-221,379 L-228,382 L-236,383 L-239,378 L-247,378 L-249,379 L-255,379 L-261,372 L-266,367 L-267,364 L-271,362 L-278,356 L-284,356 L-288,352 L-292,341 L-298,333 L-298,328 L-296,326 L-296,316 L-297,310 L-302,305 L-302,297 L-300,288 L-301,283 L-301,268 L-298,260 L-292,259 L-292,253 L-288,243 L-285,239 L-275,240 L-269,233 L-263,235 L-263,237 L-259,236 L-256,231 L-254,231 L-252,227 L-247,227 L-245,231 L-237,233 L-228,225 L-216,219 L-200,223 L-197,224 L-194,215 L-186,198 L-173,177 L-162,163 L-149,147 L-138,134 L-127,122 L-118,112 L-108,103 L-100,96 L-90,87 L-72,69 L-62,61 L-64,57 L-64,50 L-59,49 L-58,43 L-51,43 L-48,44 L-49,36 L-46,36 L-47,34 L-50,33 L-54,27 L-53,23 L-51,21 L-49,14 L-42,13 L-30,18 L-23,22 L-19,20 L-12,23 L-14,15 L-12,10 L-5,5 L-3,1 Z "
     fill="#E5B7A2"
     transform="translate(1186,531)"
     id="path1" />
  <path
     d="M0,0 L2,0 L3,12 L4,37 L4,75 L0,139 L-3,179 L-5,193 L-11,252 L-14,291 L-15,310 L-15,331 L-13,353 L-10,368 L-3,393 L11,434 L29,480 L43,515 L58,555 L63,567 L75,604 L85,640 L98,692 L106,733 L111,748 L114,763 L116,784 L117,819 L116,820 L111,872 L103,931 L87,1031 L65,1167 L51,1249 L35,1332 L20,1410 L8,1478 L-4,1550 L-17,1631 L-28,1696 L-43,1778 L-50,1826 L-55,1871 L-57,1899 L-57,1957 L-54,1999 L-49,2042 L-44,2072 L-34,2120 L-31,2131 L-31,2141 L-23,2169 L-19,2193 L-19,2200 L-29,2215 L-53,2224 L-66,2226 L-73,2230 L-90,2232 L-151,2232 L-178,2230 L-182,2226 L-190,2225 L-202,2214 L-208,2207 L-214,2197 L-223,2182 L-229,2168 L-236,2146 L-238,2123 L-239,2123 L-239,2106 L-228,2075 L-217,2034 L-210,2000 L-204,1960 L-200,1922 L-197,1874 L-195,1821 L-195,1679 L-196,1624 L-196,1532 L-194,1471 L-191,1439 L-185,1408 L-175,1358 L-167,1309 L-163,1273 L-161,1243 L-160,1199 L-161,1148 L-163,1105 L-166,1050 L-167,1023 L-167,933 L-166,899 L-166,860 L-169,848 L-176,842 L-184,840 L-198,840 L-208,843 L-214,848 L-220,858 L-226,879 L-239,952 L-255,1040 L-269,1113 L-286,1198 L-298,1246 L-310,1289 L-317,1317 L-324,1351 L-330,1389 L-335,1433 L-340,1491 L-344,1517 L-351,1542 L-370,1592 L-381,1622 L-394,1659 L-403,1684 L-417,1727 L-432,1779 L-448,1843 L-460,1893 L-468,1931 L-471,1953 L-471,1963 L-465,2013 L-453,2094 L-452,2104 L-452,2126 L-455,2141 L-461,2152 L-470,2163 L-482,2173 L-499,2185 L-522,2198 L-548,2212 L-564,2219 L-587,2225 L-623,2231 L-642,2233 L-664,2234 L-684,2234 L-713,2233 L-730,2231 L-741,2227 L-747,2223 L-751,2218 L-753,2213 L-754,2205 L-752,2188 L-744,2164 L-733,2140 L-719,2113 L-706,2090 L-690,2061 L-675,2034 L-660,2005 L-650,1986 L-637,1959 L-629,1937 L-622,1909 L-602,1809 L-586,1722 L-576,1660 L-567,1593 L-559,1521 L-551,1431 L-541,1323 L-530,1218 L-517,1109 L-508,1041 L-500,989 L-490,931 L-477,863 L-450,732 L-441,689 L-435,658 L-428,607 L-418,508 L-412,443 L-411,420 L-410,415 L-410,383 L-423,349 L-446,286 L-462,239 L-474,203 L-488,155 L-492,136 L-490,136 L-476,177 L-462,220 L-447,263 L-431,309 L-415,350 L-405,376 L-404,382 L-404,416 L-410,489 L-418,572 L-426,640 L-434,688 L-446,748 L-453,780 L-458,806 L-463,829 L-470,864 L-475,888 L-484,935 L-490,966 L-497,1005 L-505,1060 L-521,1198 L-532,1304 L-542,1412 L-550,1506 L-558,1581 L-565,1636 L-573,1690 L-584,1754 L-601,1844 L-616,1917 L-620,1934 L-627,1955 L-640,1984 L-654,2012 L-664,2031 L-678,2057 L-691,2080 L-706,2107 L-721,2135 L-733,2159 L-742,2182 L-745,2194 L-745,2210 L-742,2216 L-737,2220 L-724,2224 L-711,2225 L-649,2225 L-622,2222 L-586,2216 L-565,2210 L-540,2198 L-513,2183 L-494,2171 L-480,2160 L-470,2150 L-462,2134 L-460,2122 L-460,2111 L-464,2077 L-473,2017 L-476,1984 L-476,1941 L-474,1934 L-467,1893 L-455,1839 L-441,1781 L-435,1760 L-428,1734 L-422,1715 L-409,1675 L-392,1627 L-378,1588 L-360,1541 L-355,1526 L-350,1503 L-347,1477 L-342,1419 L-337,1379 L-331,1342 L-322,1301 L-316,1277 L-310,1257 L-303,1232 L-294,1195 L-281,1132 L-263,1039 L-243,929 L-234,879 L-230,862 L-225,850 L-219,842 L-212,836 L-200,832 L-189,832 L-173,835 L-167,839 L-162,845 L-159,853 L-158,862 L-158,887 L-159,921 L-159,1021 L-156,1084 L-154,1118 L-153,1143 L-153,1241 L-155,1271 L-160,1315 L-168,1364 L-182,1432 L-185,1454 L-187,1485 L-188,1514 L-188,1647 L-187,1695 L-187,1801 L-190,1881 L-193,1925 L-197,1963 L-203,2003 L-211,2041 L-221,2077 L-224,2090 L-226,2106 L-226,2125 L-222,2151 L-216,2171 L-209,2187 L-202,2198 L-195,2206 L-195,2208 L-191,2210 L-182,2216 L-171,2219 L-158,2221 L-111,2224 L-87,2223 L-70,2221 L-62,2214 L-55,2204 L-48,2190 L-44,2175 L-43,2166 L-43,2131 L-45,2110 L-49,2092 L-56,2056 L-61,2017 L-63,1999 L-66,1951 L-66,1905 L-64,1875 L-59,1828 L-52,1779 L-43,1729 L-32,1669 L-13,1554 L6,1440 L23,1350 L40,1263 L54,1183 L71,1078 L89,966 L98,907 L104,860 L107,824 L107,784 L105,764 L95,710 L87,674 L76,631 L65,594 L54,561 L38,519 L19,472 L6,439 L-6,405 L-14,380 L-18,363 L-20,351 L-21,340 L-21,296 L-17,243 L-8,155 L-4,105 L-1,47 Z "
     fill="#030202"
     transform="translate(1474,1265)"
     id="path3" />
  <path
     d="M0,0 L23,0 L41,4 L53,9 L63,15 L73,25 L80,36 L85,50 L87,65 L87,74 L82,89 L74,100 L65,109 L52,117 L31,124 L16,126 L-5,126 L-22,122 L-37,115 L-48,107 L-55,100 L-56,98 L-55,120 L-52,140 L-46,158 L-40,169 L-32,179 L-21,190 L-4,203 L16,216 L38,229 L59,241 L77,251 L97,259 L109,262 L122,262 L132,260 L151,253 L173,242 L196,229 L218,216 L239,202 L250,193 L256,188 L265,177 L273,164 L290,126 L308,81 L315,65 L290,67 L287,67 L284,88 L279,103 L272,114 L263,123 L250,131 L238,136 L222,140 L207,140 L192,137 L176,129 L164,120 L153,109 L145,95 L142,87 L140,90 L138,90 L134,76 L130,72 L121,69 L104,69 L96,73 L92,80 L90,86 L88,86 L88,74 L95,66 L101,63 L106,62 L122,62 L132,65 L139,71 L140,73 L141,59 L145,47 L152,36 L160,28 L170,22 L188,16 L208,13 L229,13 L246,16 L260,21 L271,29 L278,37 L282,44 L303,54 L306,57 L319,55 L325,40 L328,39 L332,39 L334,41 L351,34 L356,35 L365,64 L364,71 L357,94 L354,111 L347,129 L341,136 L333,146 L323,154 L309,162 L293,168 L277,170 L270,181 L261,192 L249,203 L233,214 L214,226 L193,238 L191,238 L190,252 L189,287 L187,294 L185,290 L185,260 L188,241 L159,256 L141,264 L132,267 L125,268 L105,268 L89,263 L73,256 L49,243 L22,227 L15,223 L20,239 L28,278 L32,303 L33,324 L31,336 L25,347 L15,358 L4,367 L-11,378 L-16,378 L-16,374 L-6,366 L7,356 L15,349 L24,338 L27,329 L27,308 L24,285 L16,241 L12,223 L12,220 L7,218 L-13,204 L-24,195 L-34,186 L-43,176 L-51,163 L-56,150 L-58,142 L-70,139 L-82,131 L-93,122 L-95,118 L-93,114 L-83,123 L-70,132 L-59,137 L-62,113 L-64,86 L-68,72 L-68,51 L-67,44 L-69,42 L-69,39 L-63,39 L-61,33 L-52,23 L-43,15 L-28,7 L-11,2 Z "
     fill="#050403"
     transform="translate(1077,716)"
     id="path4" />
  <path
     d="M0,0 L3,1 L-9,29 L-23,64 L-40,102 L-47,113 L-59,127 L-70,136 L-84,146 L-105,159 L-133,175 L-162,190 L-181,197 L-191,199 L-204,199 L-219,195 L-238,187 L-261,174 L-284,161 L-305,148 L-321,137 L-331,129 L-341,120 L-349,112 L-356,102 L-362,89 L-366,76 L-369,56 L-370,43 L-370,33 L-365,38 L-355,47 L-339,55 L-330,58 L-318,61 L-297,61 L-282,59 L-261,52 L-251,46 L-241,37 L-234,28 L-230,20 L-229,17 L-226,16 L-225,22 L-223,22 L-221,13 L-216,7 L-209,4 L-192,4 L-182,8 L-178,12 L-175,23 L-175,26 L-173,26 L-172,18 L-171,18 L-167,31 L-161,42 L-152,52 L-143,60 L-128,69 L-117,73 L-106,75 L-91,75 L-69,69 L-56,62 L-47,55 L-39,46 L-33,34 L-29,19 L-27,2 L-6,1 Z "
     fill="#DAA797"
     transform="translate(1390,780)"
     id="path5" />
  <path
     d="M0,0 L24,0 L36,2 L48,7 L58,13 L65,19 L73,30 L80,46 L81,50 L81,65 L78,75 L71,86 L63,95 L49,104 L31,110 L20,112 L-8,112 L-22,108 L-38,100 L-50,89 L-57,78 L-60,69 L-62,57 L-62,45 L-58,34 L-56,31 L-42,31 L-30,36 L-22,42 L-20,42 L-21,37 L-25,31 L-28,27 L-19,25 L-10,24 L-1,24 L-1,36 L3,46 L7,51 L17,56 L31,56 L40,52 L48,45 L51,36 L60,39 L64,42 L66,42 L58,32 L51,25 L37,17 L24,12 L8,9 L-13,9 L-31,13 L-42,18 L-44,17 L-34,10 L-20,4 L-9,1 Z "
     fill="#DCAA99"
     transform="translate(1077,723)"
     id="path6" />
  <path
     d="M0,0 L23,1 L33,5 L46,13 L54,21 L52,22 L35,16 L19,13 L0,13 L-14,15 L-29,20 L-41,27 L-48,33 L-48,36 L-41,31 L-35,29 L-31,29 L-30,38 L-25,47 L-15,54 L-13,55 L1,55 L12,51 L20,44 L23,36 L24,30 L31,31 L41,35 L35,44 L32,45 L31,48 L29,48 L29,50 L47,44 L55,41 L62,41 L63,42 L63,59 L59,76 L55,86 L49,94 L41,102 L30,109 L13,115 L1,117 L-11,117 L-26,113 L-39,106 L-51,97 L-58,90 L-66,78 L-71,62 L-71,45 L-67,32 L-61,22 L-54,15 L-44,9 L-29,4 L-14,1 Z "
     fill="#DDAB9A"
     transform="translate(1294,733)"
     id="path7" />
  <path
     d="M0,0 L4,1 L2,4 L1,7 L-9,12 L-12,11 L-23,16 L-25,16 L-25,18 L-22,19 L-26,22 L-54,37 L-77,50 L-103,65 L-118,75 L-130,84 L-143,95 L-151,104 L-156,116 L-157,123 L-157,176 L-153,216 L-147,257 L-142,284 L-128,340 L-113,390 L-95,448 L-79,497 L-67,533 L-48,595 L-35,640 L-13,711 L-1,755 L3,776 L5,794 L2,795 L-9,753 L-18,719 L-32,674 L-47,625 L-57,590 L-71,545 L-83,507 L-95,471 L-109,428 L-127,369 L-140,323 L-150,279 L-156,244 L-161,206 L-164,167 L-164,132 L-162,114 L-158,103 L-152,95 L-140,83 L-123,70 L-106,59 L-84,46 L-57,31 L-33,18 L-14,8 L-5,2 Z "
     fill="#040303"
     transform="translate(1023,1113)"
     id="path8" />
  <path
     d="M0,0 L17,5 L33,13 L42,20 L53,34 L61,52 L67,71 L72,94 L76,121 L80,163 L83,213 L83,293 L81,360 L80,413 L73,586 L73,607 L71,628 L70,671 L69,697 L67,712 L64,713 L62,702 L63,633 L68,513 L72,411 L73,377 L74,317 L75,288 L75,217 L73,175 L69,128 L65,98 L60,73 L52,49 L44,34 L36,25 L22,16 L7,10 L1,8 L0,3 L-3,1 Z "
     fill="#040302"
     transform="translate(1469,1097)"
     id="path9" />
  <path
     d="M0,0 L6,0 L9,3 L10,7 L10,27 L8,45 L3,62 L-5,77 L-14,87 L-22,94 L-36,102 L-56,110 L-64,111 L-62,105 L-47,71 L-29,26 L-22,9 L-3,1 Z "
     fill="#D19C8B"
     transform="translate(1420,771)"
     id="path10" />
  <path
     d="M0,0 L1,2 L-9,32 L-18,35 L-60,46 L-62,47 L-58,51 L-64,60 L-69,65 L-75,69 L-85,72 L-90,72 L-91,77 L-93,80 L-99,83 L-101,87 L-105,88 L-107,93 L-111,97 L-120,104 L-124,105 L-131,110 L-141,114 L-143,114 L-138,164 L-138,182 L-139,183 L-146,184 L-154,184 L-156,165 L-157,162 L-155,155 L-154,120 L-152,106 L-134,96 L-113,83 L-101,75 L-91,67 L-81,58 L-71,45 L-66,37 L-50,35 L-34,29 L-23,23 L-14,16 L-8,11 Z "
     fill="#D6A08D"
     transform="translate(1420,848)"
     id="path11" />
  <path
     d="M0,0 L20,0 L46,3 L58,6 L68,12 L69,19 L66,19 L50,15 L34,13 L20,12 L3,12 L-16,14 L-34,19 L-52,27 L-65,35 L-70,36 L-71,32 L-60,21 L-46,12 L-35,7 L-22,3 Z "
     fill="#020101"
     transform="translate(1087,679)"
     id="path14" />
  <path
     d="M0,0 L2,3 L11,34 L15,58 L15,65 L5,80 L-19,89 L-24,90 L-32,90 L-29,87 L-27,87 L-25,83 L-20,78 L-14,70 L-8,57 L-4,42 L-2,16 L-2,11 L-1,11 Z "
     fill="#FACFA6"
     transform="translate(1440,3400)"
     id="path15" />
  <path
     d="M0,0 L18,0 L47,4 L70,9 L90,15 L106,23 L116,30 L116,32 L102,29 L81,22 L52,16 L45,15 L21,14 L-12,14 L-14,12 L-15,6 L-10,2 Z "
     fill="#000000"
     transform="translate(1254,690)"
     id="path16" />
  <path
     d="M0,0 L2,1 L-2,6 L-13,15 L-18,20 L-16,20 L-15,23 L-17,23 L-12,73 L-12,91 L-13,92 L-20,93 L-28,93 L-30,74 L-31,71 L-29,64 L-28,29 L-26,15 L-8,5 Z "
     fill="#CC9887"
     transform="translate(1294,939)"
     id="path17" />
  <path
     d="M0,0 L9,0 L9,12 L13,22 L17,27 L27,32 L41,32 L50,28 L58,21 L61,12 L70,15 L75,19 L75,26 L70,30 L60,34 L59,35 L48,37 L29,37 L8,32 L5,31 L3,27 L-7,20 L-10,15 L-15,7 L-18,3 L-9,1 Z "
     fill="#D6DCE6"
     transform="translate(1067,747)"
     id="path18" />
  <path
     d="M0,0 L9,5 L14,26 L22,70 L25,93 L25,114 L21,124 L20,121 L21,116 L21,105 L18,87 L15,71 L13,55 L7,39 L-3,23 L-9,15 L-20,6 L-20,4 L-16,3 L-15,3 L-10,5 L-6,5 Z "
     fill="#CE9A89"
     transform="translate(1080,931)"
     id="path19" />
  <path
     d="M0,0 L4,0 L5,9 L10,18 L20,25 L22,26 L36,26 L47,22 L55,15 L58,7 L59,1 L66,2 L76,6 L70,15 L67,16 L66,19 L64,19 L65,22 L60,25 L50,30 L29,31 L13,28 L4,24 L4,22 L-2,22 L-10,19 L-11,17 L-14,16 L-14,8 L-6,2 Z "
     fill="#D6DCE6"
     transform="translate(1259,762)"
     id="path20" />
  <path
     d="M0,0 L2,0 L7,16 L15,55 L19,80 L20,101 L18,113 L12,124 L2,135 L-9,144 L-24,155 L-29,155 L-29,151 L-19,143 L-6,133 L2,126 L11,115 L14,106 L14,85 L11,62 L3,18 L0,4 Z "
     fill="#060504"
     transform="translate(1090,939)"
     id="path21" />
  <path
     d="M0,0 L1,2 L-9,32 L-18,35 L-60,46 L-72,47 L-66,37 L-50,35 L-34,29 L-23,23 L-14,16 L-8,11 Z "
     fill="#CD9787"
     transform="translate(1420,848)"
     id="path22" />
  <path
     d="M0,0 L5,1 L14,30 L13,37 L6,58 L5,54 L5,28 L3,21 L-2,18 L-12,19 L-28,27 L-25,18 L-20,7 L-15,6 Z "
     fill="#D7A491"
     transform="translate(1428,750)"
     id="path23" />
  <path
     d="M0,0 L1,0 L1,20 L4,42 L8,59 L14,76 L24,94 L35,106 L49,115 L50,118 L42,118 L30,107 L24,100 L18,90 L9,75 L3,61 L-4,39 L-5,32 L-5,12 Z "
     fill="#EDBDA5"
     transform="translate(1242,3372)"
     id="path25" />
  <path
     d="M0,0 L5,1 L9,5 L3,14 L-2,19 L-8,23 L-18,26 L-24,26 L-23,22 L-14,12 L-6,2 Z "
     fill="#DFAA99"
     transform="translate(1353,894)"
     id="path26" />
  <path
     d="M0,0 L15,0 L39,6 L59,12 L59,14 L46,14 L20,8 L12,7 L-3,7 L-15,9 L-13,5 L-4,1 Z "
     fill="#070605"
     transform="translate(1167,885)"
     id="path27" />
  <path
     d="M0,0 L2,0 L6,12 L5,19 L-2,40 L-3,36 L-3,10 L-4,4 Z "
     fill="#D19B8A"
     transform="translate(1436,768)"
     id="path30" />
  <path
     d="M0,0 L3,1 L8,15 L18,45 L22,61 L26,71 L27,79 L25,76 L8,26 L0,2 Z "
     fill="#CA9787"
     transform="translate(991,1423)"
     id="path31" />
  <path
     d="M0,0 L7,6 L14,12 L24,18 L25,21 L17,21 L5,10 L-1,3 Z "
     fill="#F1C4A0"
     transform="translate(1267,3469)"
     id="path35" />
  <path
     d="M0,0 L1,0 L1,20 L3,38 L2,42 L0,41 L-2,24 L-5,18 L-4,9 Z "
     fill="#E8B3A1"
     transform="translate(1242,3372)"
     id="path36" />
  <path
     d="M0,0 L1,3 L1,35 L3,34 L2,53 L1,65 L0,65 L-1,49 L-1,1 Z "
     fill="#DCAB98"
     transform="translate(1467,1344)"
     id="path37" />
  <path
     d="M0,0 L2,1 L4,7 L6,24 L8,40 L6,37 L1,21 L0,14 Z "
     fill="#FCFAF4"
     transform="translate(1237,3390)"
     id="path38" />
  <path
     d="M0,0 L1,4 L-4,26 L-4,31 L-8,40 L-10,39 L-10,31 Z "
     fill="#5C4A3E"
     transform="translate(1246,3344)"
     id="path39" />
  <path
     d="M0,0 L2,1 L1,3 L2,6 L-17,11 L-25,15 L-27,14 L-17,7 L-3,1 Z "
     fill="#CB9C8D"
     transform="translate(1060,726)"
     id="path40" />
  <path
     d="M0,0 L1,4 L-2,7 L-5,8 L-4,11 L-1,9 L1,11 L5,12 L4,14 L-2,15 L-5,15 L-8,14 L-9,17 L-12,14 L-10,7 Z "
     fill="#D2A394"
     transform="translate(963,753)"
     id="path41" />
  <path
     d="M0,0 L2,3 L14,44 L13,47 L11,44 L-1,2 Z "
     fill="#C39383"
     transform="translate(987,1424)"
     id="path42" />
  <path
     d="M0,0 L4,1 L2,8 L3,13 L-3,13 L-4,13 L-8,11 L-10,9 L-4,7 L-2,7 L-1,1 Z "
     fill="#D5A999"
     transform="translate(965,752)"
     id="path43" />
  <path
     d="M0,0 L2,1 L-4,7 L-2,13 L-9,16 L-14,15 L-14,12 Z "
     fill="#DBAA9A"
     transform="translate(1290,945)"
     id="path44" />
  <path
     d="M0,0 L2,3 L11,27 L9,28 L7,27 L3,17 L-1,4 Z "
     fill="#D5AA96"
     transform="translate(1037,1576)"
     id="path45" />
  <path
     d="M0,0 L2,1 L-25,28 L-27,27 L-18,18 L-11,10 Z "
     fill="#E6B09A"
     transform="translate(1078,634)"
     id="path49" />
  <path
     d="M0,0 L2,0 L2,2 L5,1 L9,8 L5,12 L3,12 L3,9 L1,9 Z "
     fill="#E8B49F"
     transform="translate(1349,897)"
     id="path51" />
  <path
     d="M0,0 L8,1 L7,9 L5,10 L5,8 L-1,7 Z "
     fill="#DBAE96"
     transform="translate(971,751)"
     id="path55" />
  <path
     d="M0,0 L1,0 L0,19 L-1,31 L-2,31 L-2,1 Z "
     fill="#C19282"
     transform="translate(1469,1378)"
     id="path56" />
  <path
     d="M0,0 L6,1 L9,4 L9,7 L-3,5 L-1,1 Z "
     fill="#040303"
     transform="translate(1173,837)"
     id="path57" />
  <path
     d="M0,0 L2,1 L0,3 L0,10 L-4,14 L-4,9 L-7,9 L-6,5 Z "
     fill="#CE877F"
     transform="translate(1330,914)"
     id="path59" />
  <path
     d="M0,0 L6,0 L11,2 L12,5 L10,5 L10,7 L7,8 L2,4 Z "
     fill="#DBAB9C"
     transform="translate(1052,928)"
     id="path61" />
  <path
     d="M0,0 L3,1 L3,3 L6,4 L6,7 L9,8 L5,11 L1,7 L-2,2 Z "
     fill="#DDA793"
     transform="translate(1021,888)"
     id="path62" />
  <path
     d="M0,0 L7,1 L10,3 L10,5 L-4,4 Z "
     fill="#100C0B"
     transform="translate(1199,839)"
     id="path64" />
  <path
     d="M0,0 L1,0 L1,5 L-1,7 L-9,7 L-9,4 Z "
     fill="#070606"
     transform="translate(1319,786)"
     id="path65" />
  <path
     d="M0,0 L5,2 L11,6 L11,9 L5,8 L0,2 Z "
     fill="#070606"
     transform="translate(1060,768)"
     id="path66" />
  <path
     d="M0,0 L1,0 L0,16 L-2,19 L-3,18 L-3,10 Z "
     fill="#3D2D29"
     transform="translate(1239,3365)"
     id="path67" />
  <path
     d="M0,0 L2,0 L8,10 L8,13 L4,11 L0,3 Z "
     fill="#E3B799"
     transform="translate(1259,3457)"
     id="path68" />
  <path
     d="M0,0 L1,0 L1,10 L0,14 L0,19 L-2,15 L-3,14 L-2,5 Z "
     fill="#B79290"
     transform="translate(1240,3376)"
     id="path69" />
  <path
     d="M0,0 L2,1 L3,6 L0,15 L-2,11 L-2,8 L-1,3 L-2,1 Z "
     fill="#CD998C"
     transform="translate(969,750)"
     id="path71" />
  <path
     d="M0,0 L2,1 L7,14 L6,16 L3,14 L0,4 Z "
     fill="#D2A491"
     transform="translate(1047,1605)"
     id="path72" />
  <path
     d="M0,0 L2,3 L5,12 L1,11 L-2,4 L-1,1 Z "
     fill="#CFA391"
     transform="translate(1043,1592)"
     id="path76" />
  <path
     d="M0,0 L1,4 L0,13 L-3,17 L-2,2 Z "
     fill="#785C52"
     transform="translate(1242,3362)"
     id="path79" />
  <path
     d="M0,0 L3,3 L16,6 L16,8 L5,6 L1,4 Z "
     fill="#E0C4BD"
     transform="translate(1247,778)"
     id="path80" />
  <path
     d="M0,0 L4,2 L5,5 L1,9 L-1,2 Z "
     fill="#D79780"
     transform="translate(1357,895)"
     id="path82" />
  <path
     d="M0,0 L4,0 L5,10 L2,7 L0,5 L0,2 Z "
     fill="#D2A796"
     transform="translate(1353,894)"
     id="path83" />
  <path
     d="M0,0 L1,2 L-2,9 L-7,11 L-5,7 Z M-8,11 Z M-9,12 Z "
     fill="#C18778"
     transform="translate(1420,848)"
     id="path84" />
  <path
     d="M0,0 L12,0 L8,2 L0,4 Z "
     fill="#C09485"
     transform="translate(1363,775)"
     id="path85" />
  <path
     d="M0,0 L7,6 L8,8 L4,7 L-1,1 Z "
     fill="#E1C3C1"
     transform="translate(1270,3474)"
     id="path88" />
  <path
     d="M0,0 L2,1 L-1,5 L-1,9 L-5,7 L-3,3 Z "
     fill="#D1A08F"
     transform="translate(1330,914)"
     id="path89" />
  <path
     d="M0,0 L2,3 L2,11 L0,8 L-2,1 Z "
     fill="#BE8D7E"
     transform="translate(1001,1447)"
     id="path92" />
  <path
     d="M0,0 L4,5 L2,7 L-3,3 L-3,1 Z "
     fill="#BC8B7E"
     transform="translate(1063,934)"
     id="path93" />
  <path
     d="M0,0 L3,1 L3,3 L5,4 L1,7 L-2,2 Z "
     fill="#DCAF9B"
     transform="translate(1021,888)"
     id="path94" />
  <path
     d="M0,0 L3,4 L4,7 L2,9 L-2,1 Z "
     fill="#F0CBAB"
     transform="translate(1256,3450)"
     id="path95" />
  <path
     d="M0,0 L4,4 L6,9 L0,5 Z "
     fill="#E4AA9C"
     transform="translate(1066,937)"
     id="path96" />
  <path
     d="M0,0 L2,3 L4,10 L0,6 L-1,2 Z "
     fill="#C99A89"
     transform="translate(1517,1797)"
     id="path99" />
  <path
     d="M0,0 L4,1 L2,7 L0,7 Z "
     fill="#E1B2A2"
     transform="translate(1344,901)"
     id="path100" />
  <path
     d="M0,0 L2,1 L2,5 L-3,5 L-1,1 Z "
     fill="#DDAC99"
     transform="translate(1304,942)"
     id="path101" />
  <path
     d="M0,0 L1,2 L0,6 L-6,6 L-3,3 L-1,3 Z "
     fill="#BD9D83"
     transform="translate(1414,3484)"
     id="path102" />
  <path
     d="M0,0 L2,4 L1,7 L-3,5 Z "
     fill="#E4AF88"
     transform="translate(1313,932)"
     id="path103" />
  <path
     d="M0,0 L2,1 L-1,4 L-7,6 L-2,1 Z "
     fill="#BD9384"
     transform="translate(1040,735)"
     id="path104" />
  <path
     d="M0,0 Z "
     fill="#000000"
     transform="translate(1420,723)"
     id="path114" />
  <path
     d="M0,0 Z "
     fill="#000000"
     transform="translate(1047,1099)"
     id="path115" />
  <path
     d="M0,0 Z "
     fill="#000000"
     transform="translate(1409,745)"
     id="path116" />
  <path
     d="M0,0 Z "
     fill="#000000"
     transform="translate(1410,741)"
     id="path117" />
  <path
     d="M0,0 Z "
     fill="#000000"
     transform="translate(1409,740)"
     id="path118" />
  <path
     d="M0,0 Z "
     fill="#000000"
     transform="translate(1413,738)"
     id="path119" />
  <path
     d="M0,0 Z "
     fill="#000000"
     transform="translate(1411,736)"
     id="path120" />
  <path
     d="M0,0 Z "
     fill="#000000"
     transform="translate(1417,729)"
     id="path121" />
  <path
     d="M0,0 Z "
     fill="#000000"
     transform="translate(1414,729)"
     id="path122" />
  <path
     d="M0,0 Z "
     fill="#000000"
     transform="translate(998,727)"
     id="path123" />
  <path
     d="M0,0 Z "
     fill="#000000"
     transform="translate(1424,712)"
     id="path124" />
  <path
     style="fill:#e5b7a2;fill-opacity:1;stroke-width:1.11671"
     d="m 1177.0098,976.06857 c -12.1703,-3.72804 -24.5288,-9.61728 -48.141,-22.94098 -38.7864,-21.88607 -58.6993,-35.13476 -76.3398,-50.79144 -17.0756,-15.15531 -25.546,-31.53719 -29.4664,-56.98848 -2.2004,-14.28484 -3.3662,-30.15669 -2.2129,-30.12681 0.5158,0.0134 3.4504,2.56831 6.5213,5.67766 11.0173,11.15504 36.6177,21.09039 54.3587,21.09621 18.8086,0.006 40.7513,-5.3148 53.5614,-12.98837 8.1863,-4.90379 19.2821,-16.83097 23.0815,-24.81084 3.6537,-7.67393 5.0557,-8.87714 5.7951,-4.97336 0.8179,4.3183 3.0246,4.38599 3.9272,0.12047 1.1264,-5.32279 4.7333,-10.74841 8.4089,-12.64918 4.7651,-2.46411 21.5619,-2.18593 27.307,0.45224 6.0988,2.80058 7.8979,5.19224 9.5502,12.69615 1.4832,6.73567 4.4087,8.99576 4.4087,3.40595 0,-3.87576 1.5397,-2.24197 3.3676,3.57347 5.7492,18.29018 25.1415,36.97414 46.6935,44.98783 5.5487,2.06321 10.4414,2.90807 19.177,3.31146 10.1992,0.47098 13.1639,0.15933 22.746,-2.39106 13.8793,-3.69412 24.3673,-9.17738 33.4197,-17.47223 11.0041,-10.08329 17.572,-25.12252 19.3363,-44.27665 l 0.7391,-8.0237 6.8258,-0.58941 c 18.6984,-1.61461 21.9014,-1.8136 21.9014,-1.36066 0,0.26972 -2.5218,6.37981 -5.6039,13.57796 -3.082,7.19816 -8.8153,21.18762 -12.7405,31.08769 -9.7519,24.59578 -24.1886,56.2995 -28.6187,62.84806 -6.8755,10.16328 -15.7524,19.35268 -26.5507,27.48559 -24.4037,18.37996 -78.233,48.8404 -101.251,57.29494 -9.5594,3.51119 -12.7747,4.15339 -22.3341,4.46081 -8.4684,0.27232 -12.7864,-0.13689 -17.8674,-1.69332 z m 49.4936,-77.89078 c -0.4093,-2.12529 -5.495,-3.84921 -29.0568,-9.84954 -19.9875,-5.09006 -30.0978,-5.30422 -38.9414,-0.82486 -3.4275,1.73607 -6.2268,3.95652 -6.44,5.10828 -0.341,1.84249 0.1396,1.9493 5.0252,1.11671 10.9552,-1.86695 29.1009,-0.66788 42.8119,2.82904 15.1575,3.86581 27.1745,4.59782 26.6011,1.62037 z m -44.4684,-56.04351 c 0,-2.68015 -2.1084,-4.41105 -6.4245,-5.27428 -2.7202,-0.54403 -3.6695,-0.21767 -4.6396,1.59502 -1.9182,3.58414 -1.4811,4.48529 2.4096,4.96812 7.9181,0.98262 8.6545,0.87295 8.6545,-1.28886 z m 27.9177,0.53087 c 0,-1.68825 -5.4997,-4.01772 -9.4856,-4.01772 -1.3486,0 -3.3144,0.95292 -4.3684,2.1176 -2.4396,2.69572 -1.1995,3.25925 7.4329,3.37777 4.806,0.066 6.4211,-0.30569 6.4211,-1.47765 z"
     id="path126" />
  <path
     style="fill:#e5b7a2;fill-opacity:1;stroke-width:1.11671"
     d="m 1274.7218,847.10043 c -13.1709,-4.02935 -26.7253,-12.64998 -36.3211,-23.10024 -18.9519,-20.63945 -19.9669,-51.44201 -2.3466,-71.21176 6.7516,-7.57514 22.6021,-14.19166 42.0178,-17.53956 13.6708,-2.35729 36.071,-1.6844 43.5516,1.30827 9.5802,3.83267 27.9829,17.22051 23.671,17.22051 -0.7072,0 -4.4468,-1.18976 -8.3101,-2.64392 -11.5252,-4.33805 -21.0534,-5.51961 -39.453,-4.89241 -18.9249,0.64511 -27.3186,2.87301 -40.6394,10.78674 -9.7065,5.76654 -11.2225,7.64261 -11.9615,14.80308 -0.5661,5.4851 -0.3445,6.29428 2.5814,9.42639 2.4952,2.6711 4.5285,3.60235 9.2254,4.22538 3.3136,0.43954 7.8362,1.70867 10.0503,2.82029 2.2141,1.11163 7.292,2.6227 11.2843,3.35794 9.3018,1.71312 39.1758,2.37499 41.039,0.90924 0.7677,-0.60398 1.4117,-2.16728 1.431,-3.474 0.019,-1.30672 1.299,-3.29641 2.8438,-4.42154 3.8209,-2.78277 24.6026,-9.67975 29.1666,-9.67975 h 3.6891 v 9.02678 c 0,9.36375 -2.7518,22.52177 -6.5759,31.44291 -2.6673,6.22254 -13.3577,17.83465 -20.7213,22.50778 -10.13,6.42876 -29.2088,11.9378 -40.7479,11.76604 -2.8046,-0.0417 -8.8681,-1.22893 -13.4745,-2.63817 z"
     id="path127" />
  <path
     style="fill:#e5b7a2;fill-opacity:1;stroke-width:1.11671"
     d="m 1060.8722,832.07748 c -15.5775,-4.74675 -28.8015,-14.18421 -37.2851,-26.60892 -6.7772,-9.92569 -9.8907,-30.64193 -6.2717,-41.72939 2.7793,-8.51469 3.198,-8.84482 11.2165,-8.84482 7.9039,0 14.5672,2.3908 22.4593,8.05844 4.146,2.97743 5.161,3.30701 6.0058,1.94995 0.7742,-1.24371 1.1929,-0.75825 1.756,2.03609 0.9543,4.73625 6.1369,10.28968 9.6025,10.28968 1.4733,0 3.1562,0.44699 3.7397,0.99331 1.9824,1.85617 26.1959,6.82364 33.2612,6.82364 9.8972,0 18.6689,-1.83352 26.7435,-5.59013 9.9562,-4.63205 10.8504,-5.56551 10.8504,-11.32756 0,-4.52766 -0.6145,-5.61931 -7.2642,-12.90522 -7.4137,-8.12295 -15.5752,-13.55282 -27.3424,-18.19104 -8.9945,-3.54528 -15.7714,-4.7083 -31.8375,-5.46375 -13.8269,-0.65016 -14.523,-0.79629 -14.6381,-3.07285 -0.1027,-2.03089 0.8067,-2.5765 6.049,-3.6293 7.6516,-1.53666 32.5163,-1.62036 40.3444,-0.1358 7.037,1.33454 22.4933,8.7151 28.3348,13.53019 10.7295,8.84413 19.9068,26.557 20.6603,39.87585 0.5612,9.91975 -1.1117,16.56948 -6.2333,24.77693 -8.2132,13.16179 -18.5179,20.97055 -35.6743,27.03356 -9.2579,3.27171 -10.874,3.4861 -28.7925,3.81955 -15.9054,0.29598 -20.0706,0.0222 -25.6843,-1.68841 z"
     id="path128" />
  <path
     style="fill:#e5b7a2;fill-opacity:1;stroke-width:1.11671"
     d="m 1357.993,878.56972 c 0.432,-1.38192 3.6696,-9.04533 7.1946,-17.02979 3.525,-7.98446 12.2779,-29.09023 19.4508,-46.90172 7.173,-17.81148 13.6427,-32.97478 14.3773,-33.6962 2.2583,-2.21777 20.5547,-9.29704 24.0282,-9.29704 1.8022,0 3.9083,0.76112 4.6803,1.69137 3.7366,4.50231 2.0172,34.68225 -2.9147,51.15952 -3.7547,12.54436 -9.476,22.41069 -18.128,31.26174 -8.7078,8.90808 -17.7036,14.48912 -33.4947,20.7803 -13.3891,5.33417 -16.3498,5.7301 -15.1938,2.03182 z"
     id="path130" />
  <path
     style="fill:#ce9a89;fill-opacity:1"
     d="m 1017.879,714.69288 c 40.6669,-21.38739 48.8339,-20.83728 60.8606,-22.89251 51.9802,-2.81404 55.6505,1.24641 75.9361,6.70025 14.3814,29.33918 4.8575,39.92215 1.1167,51.64773 -5.6813,-6.7983 -10.044,-17.60589 -25.8297,-24.87178 -48.0109,-19.31649 -68.507,-4.18478 -88.8575,1.48757 -12.9852,7.68153 -21.6737,17.51141 -27.2183,28.91324 0.7528,-13.5039 -4.0283,-25.49852 3.9921,-40.9845 z"
     id="path131"
     sodipodi:nodetypes="cccccccc" />
  <path
     style="fill:#ce9a89;fill-opacity:1"
     d="m 1142.5315,764.52596 8.6545,-7.81695 c -0.7753,-1.49574 -2.2549,-14.4608 -29.0344,-27.77811 -12.9301,-1.95455 -1.0128,-5.43817 -38.8056,-5.86271 -6.3964,0.6503 -12.1154,0.75869 -20.2403,2.79177 -0.8634,1.76398 -2.2556,3.68955 0.4187,4.74601 l 14.3777,1.53547 c 8.4106,-0.33877 15.9154,1.20272 23.5904,3.07094 7.8732,3.68549 5.4504,-0.58512 27.9177,14.37761 5.5227,4.40417 8.95,9.85606 13.1213,14.93597 z"
     id="path132"
     sodipodi:nodetypes="cccccccccc" />
  <path
     style="fill:#ce9a89;fill-opacity:1"
     d="m 1050.2099,662.10604 c 65.4226,-39.07846 70.9734,-38.96386 190.3013,-61.59126 63.8354,28.6118 89.8224,73.44436 133.8425,110.54842 -33.0329,-45.1406 -51.1924,-95.68974 -99.0988,-135.42181 -5.3616,-9.23519 -10.5951,-18.55577 -22.1097,-23.68895 -60.2465,-0.7112 -102.4163,12.81991 -127.9203,39.48158 z"
     id="path133"
     sodipodi:nodetypes="ccccccc" />
  <path
     style="fill:#ce9a89;fill-opacity:1"
     d="m 1241.2205,703.24663 c -20.4939,26.11757 -12.8899,37.18272 -14.238,53.04361 4.581,-9.77082 14.4201,-18.76839 44.11,-24.84674 40.6363,-7.15032 50.8495,0.9109 66.7232,6.14189 13.8049,8.30593 17.4272,15.20738 20.6591,22.05497 l 25.1259,13.12132 c 10.8158,-18.48946 -2.7348,-34.94839 -13.4004,-51.64773 -16.9367,-3.00012 -31.6401,-9.16662 -48.5768,-12.14419 -21.06,-6.95825 -43.2607,-4.22181 -63.6524,-5.16478 z"
     id="path134"
     sodipodi:nodetypes="cccccccccc" />
  <path
     style="fill:#ce9a89;fill-opacity:1"
     d="m 1229.7743,760.75707 15.6339,7.95654 0.6979,0.13959 -0.2792,-2.51259 19.1237,-13.40049 c 13.3588,-4.68802 26.6528,-8.27671 39.6431,-6.70025 8.8945,0.44574 12.9376,-1.53427 41.5973,8.79407 -5.3693,-9.16638 -16.7377,-16.19021 -32.5241,-21.63621 -14.7927,-0.38325 -29.5432,-0.89296 -45.785,3.07095 -27.7729,7.10791 -32.3831,15.73468 -38.1076,24.28839 z"
     id="path135"
     sodipodi:nodetypes="cccccccccc" />
  <path
     style="fill:#ce9a89;fill-opacity:1"
     d="m 1170.0304,841.71837 c 14.1005,3.68938 26.5073,2.57996 39.0848,1.95424 -1.3142,7.74988 -6.5261,13.76742 -17.309,17.30897 -9.2942,-4.71115 -18.8751,-9.18154 -21.7758,-19.26321 z"
     id="path136"
     sodipodi:nodetypes="cccc" />
  <path
     style="fill:#ce9a89;fill-opacity:1"
     d="m 1152.4672,894.06031 c 7.5878,-1.40451 17.453,-1.6703 27.6371,-1.77667 l 31.7827,6.90927 13.4731,0.0987 c -9.0792,2.06034 -17.4999,4.74613 -29.0683,4.44167 -15.2771,-1.48526 -29.8635,-4.76618 -43.8246,-9.67298 z"
     id="path137"
     sodipodi:nodetypes="cccccc" />
  <path
     style="fill:#ce9a89;fill-opacity:1"
     d="m 1393.3048,792.79006 c 9.6918,-10.50788 16.5588,-12.84379 23.2942,-7.5015 12.1554,25.56939 9.7614,46.14594 -0.987,59.22237 -11.7027,14.29435 -30.8118,20.72984 -59.2224,37.11268 z"
     id="path138"
     sodipodi:nodetypes="ccccc" />
  <path
     style="fill:#ce9a89;fill-opacity:1"
     d="m 1007.2703,757.12777 2.5126,2.79177 c -1.5683,10.78113 -1.3489,19.77457 -0.8376,28.47604 l 4.152,13.67265 c 4.2989,64.68111 3.4381,36.48659 4.9352,50.73383 -11.0917,-4.80901 -22.15427,-9.09315 -33.75679,-23.09672 -31.10009,-26.97086 -61.42865,-53.86578 6.71187,-71.06684 z"
     id="path139"
     sodipodi:nodetypes="cccccccc" />
  <path
     style="fill:#ce9a89;fill-opacity:1"
     d="m 1092.6984,939.43029 c 40.2546,24.38327 79.0519,46.89292 98.8286,44.94749 29.1043,0.22997 50.3859,-16.16343 73.9819,-27.63852 -4.8992,21.92079 -4.6013,37.34517 -3.6293,51.92694 -25.6738,14.4692 -47.168,34.5111 -83.1947,35.1763 l -68.3983,-5.3044 c 2.6306,8.037 -2.9987,-51.61102 -17.5882,-99.10781 z"
     id="path2"
     sodipodi:nodetypes="ccccccc" />
</svg>
