<?xml version="1.0" encoding="UTF-8" standalone="no"?>
<svg
   version="1.1"
   width="2214"
   height="3264"
   id="svg213"
   sodipodi:docname="hurt_default_girl.svg"
   inkscape:version="1.4.2 (f4327f4, 2025-05-13)"
   xmlns:inkscape="http://www.inkscape.org/namespaces/inkscape"
   xmlns:sodipodi="http://sodipodi.sourceforge.net/DTD/sodipodi-0.dtd"
   xmlns="http://www.w3.org/2000/svg"
   xmlns:svg="http://www.w3.org/2000/svg">
  <defs
     id="defs213" />
  <sodipodi:namedview
     id="namedview213"
     pagecolor="#ffffff"
     bordercolor="#000000"
     borderopacity="0.25"
     inkscape:showpageshadow="2"
     inkscape:pageopacity="0.0"
     inkscape:pagecheckerboard="0"
     inkscape:deskcolor="#d1d1d1"
     inkscape:zoom="0.26572396"
     inkscape:cx="1027.3819"
     inkscape:cy="1247.5352"
     inkscape:window-width="1080"
     inkscape:window-height="1849"
     inkscape:window-x="-8"
     inkscape:window-y="-8"
     inkscape:window-maximized="1"
     inkscape:current-layer="svg213" />
  <path
     d="M0,0 L9,2 L21,8 L26,11 L49,9 L56,9 L63,18 L66,17 L75,17 L80,20 L82,24 L81,27 L83,27 L83,32 L100,42 L118,52 L124,56 L136,56 L139,60 L138,71 L131,74 L126,73 L127,77 L125,81 L121,84 L113,83 L111,82 L115,88 L129,107 L135,115 L145,128 L154,140 L166,156 L178,172 L190,188 L198,199 L198,201 L211,195 L219,194 L228,222 L225,232 L221,244 L219,257 L213,275 L208,285 L200,310 L185,314 L164,320 L154,322 L156,327 L154,331 L152,331 L150,335 L149,337 L147,337 L147,339 L138,343 L132,345 L128,345 L127,349 L123,353 L116,359 L111,366 L100,373 L93,378 L83,382 L81,382 L83,392 L87,426 L89,436 L92,457 L129,461 L185,465 L212,469 L238,475 L253,480 L264,482 L281,489 L293,498 L301,507 L309,523 L313,534 L319,560 L321,577 L322,603 L323,636 L322,665 L320,733 L318,770 L316,812 L314,898 L313,917 L310,942 L306,972 L303,1006 L302,1024 L303,1027 L303,1035 L301,1038 L301,1064 L303,1064 L303,1066 L301,1066 L304,1112 L304,1125 L303,1134 L307,1150 L312,1161 L319,1185 L325,1204 L336,1247 L339,1264 L343,1285 L346,1303 L351,1320 L354,1356 L355,1374 L353,1374 L352,1412 L349,1441 L348,1454 L346,1472 L342,1507 L338,1530 L335,1551 L328,1596 L323,1626 L317,1662 L312,1694 L307,1720 L303,1746 L299,1766 L295,1789 L291,1807 L288,1825 L283,1848 L280,1866 L275,1891 L268,1928 L265,1948 L260,1975 L257,1996 L252,2023 L250,2040 L245,2067 L241,2094 L237,2116 L233,2142 L229,2162 L226,2181 L221,2205 L215,2241 L211,2274 L208,2298 L206,2331 L206,2395 L209,2431 L215,2477 L226,2531 L228,2537 L228,2546 L235,2570 L239,2593 L239,2598 L230,2612 L210,2619 L202,2621 L195,2622 L191,2625 L173,2627 L123,2627 L115,2626 L98,2625 L95,2622 L86,2620 L79,2613 L74,2608 L68,2600 L63,2591 L63,2589 L61,2589 L53,2572 L49,2559 L46,2550 L44,2530 L44,2513 L51,2496 L54,2488 L59,2469 L63,2455 L68,2433 L71,2421 L75,2397 L78,2370 L81,2337 L83,2319 L86,2235 L86,2172 L85,2104 L85,2033 L86,1944 L87,1928 L91,1908 L93,1895 L100,1861 L104,1832 L109,1801 L112,1757 L113,1728 L113,1692 L111,1638 L107,1547 L107,1409 L104,1399 L101,1396 L93,1394 L77,1394 L69,1397 L64,1402 L60,1410 L54,1433 L48,1471 L41,1514 L35,1545 L32,1563 L28,1582 L25,1601 L19,1632 L12,1666 L6,1697 L-4,1740 L-17,1785 L-23,1811 L-27,1831 L-30,1846 L-33,1868 L-35,1887 L-38,1920 L-42,1961 L-43,1977 L-48,2000 L-54,2020 L-62,2044 L-68,2065 L-74,2082 L-81,2101 L-87,2117 L-94,2136 L-104,2165 L-109,2182 L-119,2213 L-125,2236 L-130,2262 L-137,2292 L-142,2311 L-146,2335 L-149,2348 L-154,2374 L-154,2386 L-151,2405 L-148,2431 L-144,2457 L-141,2492 L-140,2498 L-139,2516 L-139,2527 L-142,2542 L-145,2551 L-153,2562 L-164,2573 L-182,2586 L-203,2598 L-223,2609 L-239,2616 L-261,2622 L-290,2626 L-315,2628 L-371,2628 L-388,2626 L-397,2622 L-403,2618 L-407,2613 L-408,2611 L-408,2589 L-399,2565 L-389,2546 L-377,2524 L-369,2510 L-359,2493 L-354,2484 L-342,2463 L-334,2448 L-324,2430 L-321,2423 L-316,2413 L-308,2397 L-301,2382 L-293,2359 L-285,2327 L-282,2310 L-277,2287 L-272,2261 L-265,2225 L-262,2214 L-258,2191 L-254,2169 L-250,2143 L-246,2116 L-243,2093 L-241,2073 L-239,2057 L-238,2040 L-234,2003 L-231,1975 L-229,1937 L-223,1875 L-221,1848 L-218,1821 L-216,1795 L-214,1772 L-213,1747 L-210,1710 L-205,1667 L-201,1623 L-198,1590 L-189,1529 L-180,1479 L-174,1442 L-169,1416 L-166,1395 L-164,1376 L-161,1358 L-159,1341 L-154,1317 L-152,1303 L-143,1263 L-139,1247 L-138,1245 L-138,1233 L-144,1205 L-148,1178 L-153,1155 L-155,1147 L-160,1123 L-165,1098 L-170,1076 L-176,1057 L-183,1030 L-188,1009 L-191,1000 L-194,986 L-201,961 L-205,952 L-209,939 L-215,926 L-229,882 L-233,872 L-238,853 L-240,846 L-249,822 L-255,804 L-261,786 L-265,770 L-270,753 L-275,736 L-279,721 L-284,702 L-287,683 L-289,673 L-291,657 L-292,641 L-292,613 L-288,597 L-282,587 L-276,580 L-268,573 L-256,562 L-241,552 L-230,545 L-218,540 L-209,535 L-196,531 L-188,527 L-175,523 L-163,518 L-159,516 L-147,510 L-141,510 L-141,512 L-129,507 L-119,501 L-111,497 L-112,493 L-110,493 L-109,490 L-99,484 L-86,474 L-79,467 L-76,462 L-76,440 L-81,416 L-84,397 L-92,382 L-102,367 L-117,355 L-117,353 L-119,353 L-124,347 L-124,345 L-127,344 L-134,335 L-139,330 L-143,325 L-143,323 L-148,325 L-161,325 L-165,323 L-165,321 L-181,329 L-199,338 L-203,339 L-210,339 L-212,334 L-220,336 L-225,336 L-233,328 L-238,322 L-245,316 L-251,316 L-254,314 L-257,305 L-257,302 L-260,301 L-264,295 L-263,290 L-262,289 L-262,274 L-265,274 L-267,271 L-267,263 L-265,255 L-266,253 L-266,237 L-264,230 L-259,229 L-257,221 L-253,213 L-252,212 L-245,213 L-243,214 L-241,209 L-239,209 L-239,207 L-234,207 L-233,210 L-229,209 L-225,203 L-222,201 L-218,201 L-215,204 L-215,206 L-212,206 L-212,208 L-203,201 L-200,198 L-191,194 L-180,197 L-176,198 L-169,185 L-166,178 L-160,167 L-148,150 L-139,140 L-131,129 L-119,115 L-107,102 L-100,95 L-92,88 L-82,79 L-66,63 L-55,55 L-57,45 L-53,43 L-51,38 L-42,39 L-43,32 L-41,31 L-47,26 L-48,21 L-45,19 L-43,13 L-42,12 L-35,12 L-21,19 L-16,18 L-11,20 L-12,13 L-10,8 L-5,6 L-3,1 Z M-54,53 Z M-147,320 Z M147,323 L151,324 Z M146,324 Z M-156,517 Z "
     fill="#E5B7A2"
     transform="translate(1050,470)"
     id="path1" />
  <path
     d="M0,0 L9,2 L21,8 L26,11 L49,9 L56,9 L63,18 L66,17 L75,17 L80,20 L82,24 L81,27 L83,27 L83,32 L100,42 L118,52 L124,56 L136,56 L139,60 L138,71 L131,74 L126,73 L127,77 L125,81 L121,84 L113,83 L111,82 L115,88 L129,107 L135,115 L145,128 L154,140 L166,156 L178,172 L190,188 L198,199 L198,201 L211,195 L219,194 L228,222 L225,232 L221,244 L219,257 L213,275 L209,282 L204,287 L197,295 L189,301 L177,308 L159,314 L149,315 L143,324 L136,333 L127,342 L112,353 L106,356 L95,363 L78,373 L73,375 L72,389 L71,419 L70,424 L68,420 L68,394 L70,378 L54,386 L38,394 L23,400 L18,401 L-7,401 L-22,395 L-32,391 L-48,382 L-65,372 L-79,364 L-82,363 L-78,376 L-75,392 L-71,410 L-68,432 L-68,458 L-72,467 L-79,476 L-89,485 L-104,495 L-110,497 L-112,493 L-110,493 L-109,490 L-99,484 L-86,474 L-79,467 L-76,462 L-76,440 L-81,416 L-84,397 L-92,382 L-102,367 L-117,355 L-117,353 L-119,353 L-124,347 L-124,345 L-127,344 L-134,335 L-139,330 L-143,325 L-143,323 L-148,325 L-161,325 L-165,323 L-165,321 L-181,329 L-199,338 L-203,339 L-210,339 L-212,334 L-220,336 L-225,336 L-233,328 L-238,322 L-245,316 L-251,316 L-254,314 L-257,305 L-257,302 L-260,301 L-264,295 L-263,290 L-262,289 L-262,274 L-265,274 L-267,271 L-267,263 L-265,255 L-266,253 L-266,237 L-264,230 L-259,229 L-257,221 L-253,213 L-252,212 L-245,213 L-243,214 L-241,209 L-239,209 L-239,207 L-234,207 L-233,210 L-229,209 L-225,203 L-222,201 L-218,201 L-215,204 L-215,206 L-212,206 L-212,208 L-203,201 L-200,198 L-191,194 L-180,197 L-176,198 L-169,185 L-166,178 L-160,167 L-148,150 L-139,140 L-131,129 L-119,115 L-107,102 L-100,95 L-92,88 L-82,79 L-66,63 L-55,55 L-57,45 L-53,43 L-51,38 L-42,39 L-43,32 L-41,31 L-47,26 L-48,21 L-45,19 L-43,13 L-42,12 L-35,12 L-21,19 L-16,18 L-11,20 L-12,13 L-10,8 L-5,6 L-3,1 Z M-54,53 Z M-147,320 Z "
     fill="#D5A190"
     transform="translate(1050,470)"
     id="path2" />
  <path
     d="M0,0 L1,0 L1,20 L0,29 L-1,54 L-2,56 L-4,114 L-6,147 L-8,173 L-10,197 L-16,251 L-19,275 L-20,278 L-20,322 L-17,338 L-11,361 L-6,379 L-3,386 L0,396 L5,407 L8,414 L12,422 L15,429 L20,440 L28,456 L32,465 L36,473 L39,481 L46,495 L49,502 L52,510 L56,520 L62,541 L68,560 L79,603 L82,620 L86,641 L89,659 L94,676 L97,712 L98,730 L96,730 L95,768 L92,797 L91,810 L89,828 L85,863 L81,886 L78,907 L71,952 L66,982 L60,1018 L55,1050 L50,1076 L46,1102 L42,1122 L38,1145 L34,1163 L31,1181 L26,1204 L23,1222 L18,1247 L11,1284 L8,1304 L3,1331 L0,1352 L-5,1379 L-7,1396 L-12,1423 L-16,1450 L-20,1472 L-24,1498 L-28,1518 L-31,1537 L-36,1561 L-42,1597 L-46,1630 L-49,1654 L-51,1687 L-51,1751 L-48,1787 L-42,1833 L-31,1887 L-29,1893 L-29,1902 L-22,1926 L-18,1949 L-18,1954 L-27,1968 L-47,1975 L-55,1977 L-62,1978 L-66,1981 L-84,1983 L-134,1983 L-142,1982 L-159,1981 L-162,1978 L-171,1976 L-178,1969 L-183,1964 L-189,1956 L-194,1947 L-194,1945 L-196,1945 L-204,1928 L-208,1915 L-211,1906 L-213,1886 L-213,1869 L-206,1852 L-203,1844 L-198,1825 L-194,1811 L-189,1789 L-186,1777 L-182,1753 L-179,1726 L-176,1693 L-174,1675 L-171,1591 L-171,1528 L-172,1460 L-172,1389 L-171,1300 L-170,1284 L-166,1264 L-164,1251 L-157,1217 L-153,1188 L-148,1157 L-145,1113 L-144,1084 L-144,1048 L-146,994 L-150,903 L-150,765 L-153,755 L-156,752 L-164,750 L-180,750 L-188,753 L-193,758 L-197,766 L-203,789 L-209,827 L-216,870 L-222,901 L-225,919 L-229,938 L-232,957 L-238,988 L-245,1022 L-251,1053 L-261,1096 L-274,1141 L-280,1167 L-284,1187 L-287,1202 L-290,1224 L-292,1243 L-295,1276 L-299,1317 L-300,1333 L-305,1356 L-311,1376 L-319,1400 L-325,1421 L-331,1438 L-338,1457 L-344,1473 L-351,1492 L-361,1521 L-366,1538 L-376,1569 L-382,1592 L-387,1618 L-394,1648 L-399,1667 L-403,1691 L-406,1704 L-411,1730 L-411,1742 L-408,1761 L-405,1787 L-401,1813 L-398,1848 L-397,1854 L-396,1872 L-396,1883 L-399,1898 L-402,1907 L-410,1918 L-421,1929 L-439,1942 L-460,1954 L-480,1965 L-496,1972 L-518,1978 L-547,1982 L-572,1984 L-628,1984 L-645,1982 L-654,1978 L-660,1974 L-664,1969 L-665,1967 L-665,1945 L-656,1921 L-646,1902 L-634,1880 L-626,1866 L-616,1849 L-611,1840 L-599,1819 L-591,1804 L-581,1786 L-578,1779 L-573,1769 L-565,1753 L-558,1738 L-550,1715 L-542,1683 L-539,1666 L-534,1643 L-529,1617 L-522,1581 L-519,1570 L-515,1547 L-511,1525 L-507,1499 L-503,1472 L-500,1449 L-498,1429 L-496,1413 L-495,1396 L-491,1359 L-488,1331 L-486,1293 L-480,1231 L-478,1204 L-475,1177 L-473,1151 L-471,1128 L-470,1103 L-467,1066 L-462,1023 L-458,979 L-455,946 L-446,885 L-437,835 L-431,798 L-426,772 L-423,751 L-421,732 L-418,714 L-416,697 L-411,673 L-409,659 L-400,619 L-396,603 L-389,580 L-386,565 L-383,555 L-380,537 L-378,529 L-375,514 L-366,433 L-364,394 L-363,386 L-363,336 L-365,329 L-370,313 L-373,304 L-381,282 L-389,261 L-394,250 L-400,232 L-404,222 L-408,212 L-418,185 L-420,180 L-424,164 L-433,134 L-436,122 L-437,112 L-435,112 L-429,133 L-422,156 L-416,174 L-414,182 L-409,196 L-405,205 L-402,214 L-397,225 L-393,237 L-390,243 L-385,257 L-381,267 L-375,283 L-368,301 L-362,319 L-359,326 L-358,333 L-358,386 L-359,406 L-360,415 L-361,436 L-365,472 L-367,498 L-369,507 L-371,524 L-373,524 L-374,538 L-378,559 L-380,559 L-381,570 L-383,580 L-385,586 L-389,602 L-392,617 L-395,626 L-398,643 L-404,669 L-406,683 L-409,701 L-413,729 L-415,748 L-418,762 L-422,790 L-427,814 L-429,829 L-435,857 L-438,876 L-445,916 L-447,936 L-450,957 L-453,996 L-455,1019 L-459,1083 L-463,1116 L-465,1143 L-468,1179 L-470,1197 L-472,1225 L-475,1260 L-477,1275 L-478,1297 L-481,1327 L-483,1363 L-486,1388 L-491,1440 L-494,1460 L-496,1476 L-497,1479 L-499,1497 L-503,1519 L-505,1535 L-511,1565 L-514,1583 L-516,1592 L-518,1598 L-520,1607 L-522,1620 L-526,1639 L-529,1657 L-533,1674 L-536,1691 L-541,1712 L-550,1737 L-553,1745 L-563,1767 L-573,1786 L-587,1813 L-600,1836 L-611,1856 L-623,1877 L-636,1900 L-644,1916 L-652,1932 L-658,1950 L-658,1962 L-654,1969 L-644,1974 L-640,1975 L-556,1975 L-538,1973 L-501,1965 L-483,1957 L-459,1944 L-444,1935 L-427,1923 L-416,1913 L-408,1901 L-406,1895 L-405,1886 L-405,1867 L-406,1846 L-409,1812 L-413,1788 L-415,1767 L-416,1756 L-416,1721 L-414,1710 L-411,1685 L-408,1673 L-404,1649 L-401,1637 L-398,1623 L-389,1587 L-383,1566 L-379,1552 L-373,1533 L-367,1515 L-363,1502 L-355,1478 L-346,1450 L-343,1441 L-339,1431 L-334,1414 L-329,1402 L-320,1375 L-315,1363 L-309,1337 L-307,1318 L-303,1272 L-301,1255 L-299,1233 L-295,1200 L-290,1175 L-288,1162 L-279,1127 L-275,1114 L-270,1095 L-267,1084 L-262,1063 L-259,1051 L-256,1034 L-251,1009 L-245,977 L-241,958 L-239,951 L-236,932 L-231,908 L-228,889 L-222,860 L-219,836 L-215,817 L-213,799 L-209,779 L-203,759 L-197,750 L-190,744 L-179,741 L-170,741 L-158,743 L-150,747 L-145,753 L-142,761 L-142,907 L-139,963 L-138,978 L-138,1017 L-136,1017 L-136,1104 L-139,1140 L-143,1176 L-146,1193 L-148,1208 L-151,1226 L-154,1239 L-157,1259 L-162,1283 L-164,1320 L-164,1396 L-163,1419 L-163,1545 L-164,1652 L-167,1700 L-170,1728 L-173,1744 L-179,1779 L-183,1798 L-190,1824 L-195,1839 L-196,1846 L-198,1852 L-200,1852 L-200,1862 L-201,1863 L-202,1872 L-202,1888 L-199,1906 L-194,1926 L-186,1944 L-178,1956 L-169,1965 L-161,1969 L-148,1972 L-111,1975 L-77,1975 L-64,1973 L-58,1968 L-50,1957 L-43,1943 L-40,1927 L-40,1893 L-42,1871 L-48,1846 L-54,1808 L-57,1782 L-60,1744 L-60,1684 L-58,1666 L-56,1640 L-49,1587 L-42,1549 L-37,1524 L-32,1494 L-28,1471 L-26,1458 L-21,1431 L-15,1393 L-12,1376 L-8,1349 L-4,1325 L1,1297 L7,1262 L12,1236 L17,1211 L22,1184 L26,1166 L29,1148 L35,1117 L43,1074 L45,1059 L51,1026 L54,1004 L59,977 L61,960 L66,932 L68,915 L74,882 L76,865 L80,838 L82,807 L84,794 L87,757 L87,692 L83,667 L79,642 L74,612 L71,600 L68,586 L62,563 L60,559 L57,545 L51,527 L47,513 L44,506 L39,493 L36,486 L24,460 L17,445 L6,421 L0,409 L0,406 L-2,406 L-6,394 L-9,387 L-14,371 L-21,347 L-24,336 L-26,320 L-26,283 L-24,264 L-21,247 L-16,199 L-14,175 L-12,149 L-10,108 L-7,65 L-4,42 L-2,13 Z "
     fill="#090706"
     transform="translate(1307,1114)"
     id="path3" />
  <path
     d="M0,0 L20,0 L41,5 L55,13 L64,21 L72,35 L76,50 L77,64 L73,77 L66,88 L57,97 L45,104 L30,109 L14,112 L-4,112 L-20,108 L-29,104 L-43,95 L-44,92 L-46,92 L-50,87 L-49,106 L-46,123 L-42,138 L-34,152 L-22,165 L-12,174 L12,190 L25,198 L51,213 L76,226 L92,231 L97,232 L108,232 L129,226 L145,218 L166,207 L190,193 L204,184 L215,176 L226,167 L235,156 L242,144 L255,115 L260,103 L265,91 L270,78 L279,57 L272,59 L253,59 L253,68 L249,87 L241,101 L234,108 L223,115 L213,120 L192,124 L180,124 L164,119 L152,112 L139,101 L133,93 L125,77 L124,80 L122,80 L118,67 L113,63 L107,61 L92,61 L86,64 L82,69 L79,76 L78,76 L78,65 L83,59 L93,55 L108,55 L119,59 L124,65 L125,51 L128,42 L134,32 L141,25 L149,20 L167,14 L176,12 L210,12 L223,16 L234,20 L239,25 L246,33 L248,36 L249,41 L268,50 L268,52 L282,49 L288,35 L292,36 L291,42 L287,53 L303,45 L309,45 L314,49 L316,54 L317,80 L315,93 L309,111 L305,118 L300,123 L293,131 L285,137 L273,144 L255,150 L245,151 L239,160 L232,169 L223,178 L208,189 L202,192 L191,199 L174,209 L169,211 L168,225 L167,255 L166,260 L164,256 L164,230 L166,214 L150,222 L134,230 L119,236 L114,237 L89,237 L74,231 L64,227 L48,218 L31,208 L17,200 L14,199 L18,212 L21,228 L25,246 L28,268 L28,294 L24,303 L17,312 L7,321 L-8,331 L-14,333 L-16,329 L-14,329 L-13,326 L-3,320 L10,310 L17,303 L21,299 L24,291 L24,271 L19,242 L16,222 L10,197 L5,192 L-6,185 L-19,175 L-29,166 L-36,159 L-44,147 L-50,133 L-51,125 L-60,124 L-69,119 L-82,109 L-84,107 L-84,101 L-81,102 L-76,107 L-64,116 L-59,119 L-53,121 L-57,77 L-61,64 L-61,46 L-60,39 L-61,35 L-58,34 L-56,35 L-55,31 L-49,23 L-42,16 L-37,12 L-17,3 Z "
     fill="#0A0807"
     transform="translate(954,634)"
     id="path4" />
  <path
     d="M0,0 L2,0 L-1,9 L-10,30 L-15,44 L-19,52 L-23,62 L-32,82 L-39,96 L-46,105 L-52,112 L-66,123 L-77,131 L-89,138 L-108,149 L-120,156 L-132,162 L-148,170 L-169,176 L-180,176 L-198,171 L-221,160 L-242,148 L-259,138 L-283,122 L-292,115 L-302,106 L-313,94 L-321,79 L-326,57 L-328,38 L-328,29 L-323,33 L-323,35 L-321,35 L-316,40 L-305,47 L-289,52 L-281,54 L-263,54 L-247,51 L-230,45 L-219,38 L-212,31 L-205,20 L-201,10 L-200,10 L-200,19 L-198,19 L-195,10 L-188,4 L-185,3 L-170,3 L-161,7 L-157,12 L-155,23 L-153,23 L-152,17 L-151,17 L-149,25 L-141,39 L-134,47 L-122,56 L-111,62 L-97,66 L-85,66 L-64,62 L-47,53 L-37,44 L-29,30 L-25,11 L-24,2 L-5,1 Z "
     fill="#DAA797"
     transform="translate(1231,691)"
     id="path5" />
  <path
     d="M0,0 L2,0 L8,21 L15,44 L21,62 L23,70 L28,84 L32,93 L35,102 L40,113 L44,125 L47,131 L52,145 L56,155 L62,171 L69,189 L75,207 L78,214 L79,221 L79,274 L78,294 L77,303 L76,324 L72,360 L70,386 L68,395 L66,412 L64,412 L63,426 L59,447 L57,447 L56,458 L54,468 L52,474 L48,490 L45,505 L42,514 L39,531 L33,557 L31,571 L28,589 L24,617 L22,636 L19,650 L15,678 L10,702 L8,717 L2,745 L-1,764 L-8,804 L-10,824 L-13,845 L-16,884 L-18,907 L-22,971 L-26,1004 L-28,1031 L-31,1067 L-33,1085 L-35,1113 L-38,1148 L-40,1163 L-41,1185 L-44,1215 L-46,1251 L-49,1276 L-54,1328 L-57,1348 L-59,1364 L-60,1367 L-62,1385 L-66,1407 L-68,1423 L-74,1453 L-77,1471 L-79,1480 L-81,1486 L-83,1495 L-85,1508 L-89,1527 L-92,1545 L-96,1562 L-99,1579 L-104,1600 L-113,1625 L-116,1633 L-126,1655 L-136,1674 L-150,1701 L-163,1724 L-174,1744 L-186,1765 L-199,1788 L-207,1804 L-215,1820 L-221,1838 L-221,1850 L-217,1857 L-207,1862 L-203,1863 L-119,1863 L-101,1861 L-64,1853 L-46,1845 L-22,1832 L-7,1823 L10,1811 L21,1801 L29,1789 L31,1783 L32,1774 L32,1755 L31,1734 L28,1700 L24,1676 L22,1655 L21,1644 L21,1609 L22,1604 L23,1604 L23,1609 L25,1609 L26,1599 L30,1583 L33,1562 L37,1544 L43,1519 L47,1500 L51,1485 L53,1485 L54,1482 L53,1490 L50,1506 L43,1536 L38,1555 L34,1579 L31,1592 L26,1618 L26,1630 L29,1649 L32,1675 L36,1701 L39,1736 L40,1742 L41,1760 L41,1771 L38,1786 L35,1795 L27,1806 L16,1817 L-2,1830 L-23,1842 L-43,1853 L-59,1860 L-81,1866 L-110,1870 L-135,1872 L-191,1872 L-208,1870 L-217,1866 L-223,1862 L-227,1857 L-228,1855 L-228,1833 L-219,1809 L-209,1790 L-197,1768 L-189,1754 L-179,1737 L-174,1728 L-162,1707 L-154,1692 L-144,1674 L-141,1667 L-136,1657 L-128,1641 L-121,1626 L-113,1603 L-105,1571 L-102,1554 L-97,1531 L-92,1505 L-85,1469 L-82,1458 L-78,1435 L-74,1413 L-70,1387 L-66,1360 L-63,1337 L-61,1317 L-59,1301 L-58,1284 L-54,1247 L-51,1219 L-49,1181 L-43,1119 L-41,1092 L-38,1065 L-36,1039 L-34,1016 L-33,991 L-30,954 L-25,911 L-21,867 L-18,834 L-9,773 L0,723 L6,686 L11,660 L14,639 L16,620 L19,602 L21,585 L26,561 L28,547 L37,507 L41,491 L48,468 L51,453 L54,443 L57,425 L59,417 L62,402 L71,321 L73,282 L74,274 L74,224 L72,217 L67,201 L64,192 L56,170 L48,149 L43,138 L37,120 L33,110 L29,100 L19,73 L17,68 L13,52 L4,22 L1,10 Z "
     fill="#090706"
     transform="translate(870,1226)"
     id="path6" />
  <path
     d="M0,0 L1,3 L4,4 L3,6 L-4,9 L-24,17 L-41,24 L-66,36 L-80,45 L-92,54 L-103,64 L-111,74 L-115,84 L-116,89 L-116,128 L-113,152 L-109,178 L-104,196 L-100,212 L-98,219 L-91,243 L-90,252 L-88,252 L-84,268 L-80,280 L-76,293 L-65,323 L-61,333 L-58,342 L-55,349 L-51,362 L-46,378 L-36,406 L-29,427 L-25,438 L-22,452 L-18,463 L-16,474 L-12,489 L-5,516 L1,541 L10,570 L14,587 L17,599 L19,608 L22,621 L24,630 L26,645 L29,664 L29,686 L25,685 L21,658 L16,635 L14,627 L9,603 L4,578 L-1,556 L-7,537 L-14,510 L-19,489 L-22,480 L-25,466 L-32,441 L-36,432 L-40,419 L-46,406 L-60,362 L-64,352 L-69,333 L-71,326 L-80,302 L-86,284 L-92,266 L-96,250 L-101,233 L-106,216 L-110,201 L-115,182 L-118,163 L-120,153 L-122,137 L-123,121 L-123,93 L-119,77 L-113,67 L-107,60 L-99,53 L-87,42 L-72,32 L-61,25 L-49,20 L-40,15 L-27,11 L-19,7 L-6,3 Z "
     fill="#0D0A09"
     transform="translate(881,990)"
     id="path7" />
  <path
     d="M0,0 L23,0 L32,2 L45,6 L58,16 L65,24 L73,41 L74,45 L74,58 L71,66 L65,76 L58,84 L48,91 L33,97 L24,99 L-9,99 L-20,95 L-20,92 L-5,79 L1,75 L8,85 L4,92 L4,94 L8,88 L11,89 L16,97 L15,94 L6,81 L2,75 L2,73 L10,67 L12,67 L13,64 L17,61 L26,62 L39,65 L39,63 L30,62 L20,60 L24,55 L39,49 L44,44 L45,38 L52,38 L60,41 L60,39 L56,37 L47,29 L40,25 L28,18 L9,14 L-13,14 L-30,16 L-35,18 L-35,20 L-40,22 L-40,19 L-35,14 L-26,8 L-13,3 L-5,3 L-5,1 Z "
     fill="#D7A595"
     transform="translate(952,640)"
     id="path8" />
  <path
     d="M0,0 L8,1 L25,8 L37,17 L45,26 L53,42 L57,53 L63,79 L65,96 L66,122 L67,155 L66,184 L64,252 L62,289 L60,331 L58,417 L57,436 L54,461 L50,491 L47,525 L46,543 L47,546 L47,554 L45,557 L45,583 L47,583 L47,585 L45,585 L48,631 L48,644 L47,647 L45,647 L42,637 L40,614 L38,599 L38,537 L41,499 L44,480 L49,441 L51,404 L52,347 L55,270 L56,256 L58,196 L59,182 L59,118 L58,96 L54,69 L50,53 L47,44 L40,30 L32,21 L22,14 L2,6 Z "
     fill="#090707"
     transform="translate(1306,951)"
     id="path9" />
  <path
     d="M0,0 L6,1 L6,3 L12,3 L6,11 L2,15 L17,10 L26,6 L33,6 L33,20 L29,36 L25,45 L19,53 L11,60 L1,66 L-16,71 L-37,71 L-53,65 L-65,57 L-65,53 L-56,46 L-51,42 L-48,40 L-42,35 L-34,35 L-25,41 L-23,43 L-23,54 L-21,54 L-21,44 L-13,49 L-12,48 L-26,39 L-30,36 L-28,24 L-21,18 L-12,14 L-7,11 L-4,7 L-2,2 Z "
     fill="#DDAC9B"
     transform="translate(1169,681)"
     id="path10" />
  <path
     d="M0,0 L32,0 L43,4 L50,9 L47,18 L37,16 L16,15 L-9,20 L-20,26 L-30,33 L-31,36 L-25,34 L-24,37 L-24,33 L-15,32 L-13,40 L-9,45 L0,50 L8,51 L4,56 L-5,63 L-15,71 L-16,71 L-22,46 L-21,54 L-17,70 L-17,73 L-21,76 L-23,76 L-23,78 L-31,84 L-35,83 L-44,73 L-50,58 L-51,54 L-51,39 L-46,24 L-37,13 L-27,7 L-20,4 Z "
     fill="#D8A695"
     transform="translate(1134,650)"
     id="path11" />
  <path
     d="M0,0 L6,0 L9,3 L9,34 L5,50 L0,62 L-9,74 L-16,81 L-27,88 L-42,95 L-53,98 L-56,98 L-53,89 L-40,60 L-32,40 L-21,12 L-19,8 L-7,2 Z "
     fill="#D09B8A"
     transform="translate(1257,683)"
     id="path12" />
  <path
     d="M0,0 L15,0 L16,11 L22,20 L27,24 L37,27 L32,33 L22,41 L17,40 L14,35 L12,33 L8,37 L4,39 L3,57 L-8,66 L-14,64 L-27,53 L-35,41 L-38,24 L-38,13 L-34,2 L-18,5 L-3,13 L1,14 L-3,6 L-6,2 Z "
     fill="#DCAA99"
     transform="translate(937,667)"
     id="path13" />
  <path
     d="M0,0 L1,3 L-7,28 L-22,32 L-43,38 L-53,40 L-51,45 L-53,49 L-55,49 L-57,53 L-58,55 L-60,55 L-60,57 L-69,61 L-75,63 L-79,63 L-80,67 L-84,71 L-91,77 L-96,84 L-107,91 L-114,96 L-124,100 L-126,100 L-124,110 L-120,144 L-118,155 L-121,159 L-135,160 L-136,153 L-136,145 L-139,144 L-139,138 L-137,137 L-136,107 L-134,93 L-115,82 L-101,73 L-89,66 L-76,55 L-69,48 L-65,42 L-58,32 L-44,30 L-26,23 L-15,16 L-6,8 Z M-60,41 L-56,42 Z M-61,42 Z "
     fill="#D7A490"
     transform="translate(1257,752)"
     id="path14" />
  <path
     d="M0,0 L9,0 L14,3 L16,7 L15,10 L17,10 L17,15 L34,25 L52,35 L58,39 L70,39 L73,43 L72,54 L65,57 L60,56 L61,60 L59,64 L55,67 L47,66 L42,63 L32,50 L22,37 L11,22 L1,9 L-3,2 Z "
     fill="#BD836E"
     transform="translate(1116,487)"
     id="path15" />
  <path
     d="M0,0 L9,2 L21,8 L25,10 L25,12 L1,21 L-15,29 L-39,45 L-51,53 L-55,54 L-57,45 L-53,43 L-51,38 L-42,39 L-43,32 L-41,31 L-47,26 L-48,21 L-45,19 L-43,13 L-42,12 L-35,12 L-21,19 L-16,18 L-11,20 L-12,13 L-10,8 L-5,6 L-3,1 Z "
     fill="#BB8370"
     transform="translate(1050,470)"
     id="path16" />
  <path
     d="M0,0 L26,0 L38,2 L48,4 L55,7 L67,10 L80,20 L80,26 L74,25 L74,23 L65,21 L59,18 L51,17 L44,15 L30,12 L20,11 L-4,11 L-15,12 L-37,19 L-40,21 L-45,21 L-44,17 L-40,13 L-26,5 L-19,2 Z "
     fill="#0E0A09"
     transform="translate(947,613)"
     id="path17" />
  <path
     d="M0,0 L1,0 L1,20 L0,37 L0,116 L1,149 L1,275 L0,355 L-2,410 L-5,442 L-7,442 L-7,451 L-10,476 L-12,476 L-13,479 L-12,465 L-6,404 L-5,395 L-2,311 L-2,248 L-3,180 L-3,109 L-2,20 L-1,4 Z "
     fill="#CEA38F"
     transform="translate(1138,2394)"
     id="path18" />
  <path
     d="M0,0 L2,0 L9,24 L13,47 L13,52 L4,66 L-16,73 L-24,75 L-30,75 L-25,71 L-17,63 L-8,47 L-4,31 L-2,6 L0,6 Z "
     fill="#FBD0A8"
     transform="translate(1276,3016)"
     id="path19" />
  <path
     d="M0,0 L50,0 L76,4 L94,11 L99,13 L99,16 L88,15 L75,12 L69,11 L52,10 L28,10 L7,12 L-1,12 L-1,14 L-15,15 L-17,13 L-17,7 L-12,3 L-5,3 L-5,1 Z "
     fill="#0A0706"
     transform="translate(1114,625)"
     id="path20" />
  <path
     d="M0,0 L2,1 L-1,6 L-7,11 L-9,14 L-12,17 L-9,18 L-12,19 L-10,29 L-6,63 L-4,74 L-7,78 L-21,79 L-22,72 L-22,64 L-25,63 L-25,57 L-23,56 L-22,26 L-20,12 L-1,1 Z "
     fill="#CC9786"
     transform="translate(1143,833)"
     id="path21" />
  <path
     d="M0,0 L7,4 L10,11 L16,37 L18,52 L23,81 L23,101 L19,110 L18,108 L18,86 L13,62 L10,43 L2,28 L-8,13 L-14,8 L-12,6 L-12,4 L-6,6 L-1,1 Z "
     fill="#CB9686"
     transform="translate(956,824)"
     id="path22" />
  <path
     d="M0,0 L1,3 L-7,28 L-22,32 L-43,38 L-56,41 L-63,41 L-59,33 L-58,32 L-44,30 L-26,23 L-15,16 L-6,8 Z "
     fill="#CC9786"
     transform="translate(1257,752)"
     id="path23" />
  <path
     d="M0,0 L2,0 L8,23 L10,33 L13,55 L13,81 L9,90 L2,99 L-8,108 L-23,118 L-29,120 L-31,116 L-29,116 L-28,113 L-18,107 L-5,97 L2,90 L6,86 L9,78 L9,58 L4,29 L1,9 Z "
     fill="#080605"
     transform="translate(969,847)"
     id="path24" />
  <path
     d="M0,0 L5,0 L7,8 L11,13 L20,18 L28,19 L24,24 L15,31 L5,39 L4,39 L-2,14 L-4,1 Z "
     fill="#DFB09F"
     transform="translate(1114,682)"
     id="path25" />
  <path
     d="M0,0 L1,0 L2,22 L5,40 L10,58 L18,75 L26,86 L35,94 L45,100 L52,102 L52,103 L39,103 L31,96 L26,91 L19,82 L14,73 L14,71 L12,71 L4,54 L0,41 L-3,32 L-4,26 L-4,10 Z "
     fill="#E5BDA4"
     transform="translate(1099,2988)"
     id="path26" />
  <path
     d="M0,0 L10,1 L9,5 L7,7 L25,11 L25,13 L16,12 L8,10 L3,10 L-4,16 L-10,21 L-12,21 L-5,32 L3,43 L4,46 L1,45 L-4,37 L-6,37 L-10,43 L-11,40 L-7,33 L-13,24 L-21,30 L-34,41 L-36,39 L-28,32 L-26,32 L-26,14 L-18,9 L-17,5 L-12,14 L-7,15 L7,3 L0,1 Z "
     fill="#281F1C"
     transform="translate(966,692)"
     id="path27" />
  <path
     d="M0,0 L1,0 L1,64 L0,98 L-3,130 L-5,130 L-5,139 L-8,164 L-10,164 L-11,167 L-10,153 L-4,92 L-3,83 Z "
     fill="#CA9986"
     transform="translate(1136,2706)"
     id="path28" />
  <path
     d="M0,0 L1,4 L-3,24 L-10,54 L-15,73 L-19,97 L-22,110 L-26,131 L-28,132 L-28,122 L-23,101 L-20,80 L-16,62 L-10,37 L-6,18 L-2,3 L0,3 Z "
     fill="#D4A18E"
     transform="translate(923,2708)"
     id="path29" />
  <path
     d="M0,0 L15,0 L16,11 L22,20 L28,25 L26,26 L13,22 L6,18 L4,13 L0,11 L-6,2 Z "
     fill="#D0D5DE"
     transform="translate(937,667)"
     id="path30" />
  <path
     d="M0,0 L3,3 L5,6 L9,20 L12,27 L18,46 L28,75 L31,84 L36,98 L39,111 L36,108 L32,97 L28,86 L23,75 L9,31 L5,21 L0,2 Z "
     fill="#B48A7A"
     transform="translate(812,1321)"
     id="path31" />
  <path
     d="M0,0 L3,0 L3,2 L8,4 L16,7 L34,11 L29,17 L19,25 L14,24 L11,19 L9,14 L7,14 L1,3 Z "
     fill="#D9A998"
     transform="translate(940,683)"
     id="path32" />
  <path
     d="M0,0 L2,4 L8,28 L21,17 L30,10 L20,8 L24,7 L32,8 L31,13 L29,25 L47,37 L48,39 L44,38 L38,34 L37,43 L35,43 L35,32 L23,32 L23,31 L32,30 L24,25 L16,25 L11,29 L21,30 L21,31 L7,32 L-4,41 L-9,45 L-9,43 L-11,42 L-4,38 L0,36 L0,34 L4,31 L6,31 L0,8 Z "
     fill="#251D1A"
     transform="translate(1111,692)"
     id="path33" />
  <path
     d="M0,0 L11,0 L13,4 L11,8 L9,8 L7,12 L6,14 L4,14 L4,16 L-5,20 L-10,21 L-9,18 L-11,18 L-12,14 L-5,7 L-1,1 Z M3,1 Z "
     fill="#D7A897"
     transform="translate(1193,793)"
     id="path34" />
  <path
     d="M0,0 L2,2 L4,11 L7,19 L12,43 L14,53 L18,73 L21,94 L22,97 L22,104 L20,104 L17,85 L12,62 L10,54 L5,30 L0,5 Z "
     fill="#A38071"
     transform="translate(885,1563)"
     id="path35" />
  <path
     d="M0,0 L2,0 L-1,11 L-9,36 L-18,62 L-26,84 L-32,100 L-33,96 L-28,79 L-25,72 L-21,59 L-16,45 L-11,28 L-6,16 L-1,1 Z "
     fill="#DDAB96"
     transform="translate(990,2501)"
     id="path36" />
  <path
     d="M0,0 L1,0 L0,25 L-2,49 L-4,65 L-6,89 L-7,98 L-9,98 L-8,71 L-5,34 L-1,1 Z "
     fill="#E3B199"
     transform="translate(845,2146)"
     id="path37" />
  <path
     d="M0,0 L6,1 L6,3 L12,3 L6,11 L3,13 L1,17 L-11,21 L-23,21 L-23,19 L-14,15 L-7,11 L-4,7 L-2,2 Z "
     fill="#D1D4DC"
     transform="translate(1169,681)"
     id="path38" />
  <path
     d="M0,0 L1,0 L1,20 L0,37 L0,138 L-1,138 L-2,180 L-3,180 L-3,109 L-2,20 L-1,4 Z "
     fill="#C28067"
     transform="translate(1138,2394)"
     id="path39" />
  <path
     d="M0,0 L3,0 L1,4 L-3,5 L-8,4 L-7,8 L-9,12 L-13,15 L-21,14 L-26,11 L-30,5 L-25,2 L-9,2 Z "
     fill="#BD7F62"
     transform="translate(1184,539)"
     id="path40" />
  <path
     d="M0,0 L7,0 L10,4 L9,15 L8,13 L-4,16 L-8,15 L-10,8 L-9,6 L-7,6 L-6,3 L-1,3 Z "
     fill="#BC7E7C"
     transform="translate(1179,526)"
     id="path41" />
  <path
     d="M0,0 L7,0 L21,7 L26,6 L29,8 L25,9 L24,12 L22,12 L21,14 L18,13 L19,20 L17,21 L17,19 L14,18 L17,11 L9,7 L6,5 L6,3 L3,3 L1,10 L-1,10 L0,17 L3,18 L1,19 L-5,14 L-6,9 L-3,7 L-1,1 Z "
     fill="#B08874"
     transform="translate(1008,482)"
     id="path42" />
  <path
     d="M0,0 L3,0 L13,30 L18,44 L22,60 L23,62 L23,69 L21,66 L17,54 L13,44 L10,37 L6,21 L0,4 Z "
     fill="#C79584"
     transform="translate(881,1257)"
     id="path43" />
  <path
     d="M0,0 L1,0 L1,6 L3,5 L5,2 L4,7 L3,12 L1,12 L1,22 L-1,18 L-3,20 L-4,20 L-6,34 L-11,46 L-12,46 L-12,29 L-5,12 Z "
     fill="#15110D"
     transform="translate(1106,2954)"
     id="path44" />
  <path
     d="M0,0 L10,0 L20,3 L31,9 L46,17 L43,18 L35,16 L19,8 L10,4 L1,4 L-8,8 L-14,10 L-11,5 L-7,2 Z "
     fill="#0F0B0A"
     transform="translate(1034,776)"
     id="path45" />
  <path
     d="M0,0 L7,0 L14,3 L13,8 L11,11 L0,15 L-12,16 L-8,12 L-1,6 Z "
     fill="#D2D7E0"
     transform="translate(997,678)"
     id="path46" />
  <path
     d="M0,0 L5,0 L1,3 L-18,11 L-32,18 L-42,22 L-59,32 L-64,36 L-69,39 L-71,38 L-62,31 L-44,19 L-36,15 L-29,12 L-21,8 L-8,4 Z "
     fill="#DEAE97"
     transform="translate(862,997)"
     id="path47" />
  <path
     d="M0,0 L3,0 L3,2 L7,4 L15,8 L13,13 L8,14 L4,14 L4,16 L-1,18 L-1,15 L-5,11 L-4,7 L-2,7 L-1,2 Z "
     fill="#D47F7F"
     transform="translate(1011,485)"
     id="path48" />
  <path
     d="M0,0 L1,0 L2,28 L1,30 L3,40 L4,47 L2,47 L-3,32 L-4,26 L-4,10 Z "
     fill="#FCF5F1"
     transform="translate(1099,2988)"
     id="path49" />
  <path
     d="M0,0 L1,0 L1,16 L-3,35 L-9,66 L-11,67 L-11,57 L-6,36 L-3,15 Z "
     fill="#E3AD93"
     transform="translate(906,2773)"
     id="path50" />
  <path
     d="M0,0 L1,0 L0,17 L-3,36 L-5,50 L-6,64 L-9,76 L-11,76 L-8,49 L-5,31 L-3,14 Z "
     fill="#BD8E75"
     transform="translate(894,1797)"
     id="path51" />
  <path
     d="M0,0 L1,3 L4,4 L3,6 L-4,9 L-24,17 L-28,18 L-27,13 L-16,8 L-14,8 L-14,6 L-2,1 Z "
     fill="#17110F"
     transform="translate(881,990)"
     id="path52" />
  <path
     d="M0,0 L1,0 L1,64 L0,83 L-2,81 L-2,58 Z "
     fill="#E8B198"
     transform="translate(1136,2706)"
     id="path53" />
  <path
     d="M0,0 L5,0 L7,8 L11,13 L15,16 L14,18 L5,14 L-1,13 L-4,1 Z "
     fill="#D5DBE3"
     transform="translate(1114,682)"
     id="path54" />
  <path
     d="M0,0 L8,0 L17,6 L17,7 L7,8 L-9,8 L-4,3 Z "
     fill="#C79A8B"
     transform="translate(1127,716)"
     id="path55" />
  <path
     d="M0,0 L2,0 L4,3 L3,11 L-5,18 L-6,18 L-6,4 Z "
     fill="#DCAB9A"
     transform="translate(948,703)"
     id="path56" />
  <path
     d="M0,0 L9,2 L13,4 L12,6 L9,6 L4,5 L4,7 L2,7 L1,11 L-1,11 L-2,14 L-5,12 L-5,6 L-3,1 Z "
     fill="#C07965"
     transform="translate(1050,470)"
     id="path57" />
  <path
     d="M0,0 L2,2 L2,36 L1,44 L-1,44 L-1,23 Z "
     fill="#17120F"
     transform="translate(1368,1167)"
     id="path58" />
  <path
     d="M0,0 L1,2 L4,2 L6,8 L2,8 L1,13 L-3,15 L-6,14 L-5,12 L-7,12 L-8,8 Z "
     fill="#E3B39C"
     transform="translate(1189,799)"
     id="path59" />
  <path
     d="M0,0 L12,3 L12,4 L-6,6 L-18,6 L-18,3 L-17,2 L-2,1 Z "
     fill="#DCAA99"
     transform="translate(943,647)"
     id="path60" />
  <path
     d="M0,0 L2,0 L8,21 L11,30 L11,33 L9,33 L8,36 L1,10 Z "
     fill="#302622"
     transform="translate(870,1226)"
     id="path61" />
  <path
     d="M0,0 L2,1 L1,3 L32,3 L32,4 L6,6 L-2,7 L-7,9 L-7,11 L-12,13 L-12,10 L-7,5 Z "
     fill="#9D7A6E"
     transform="translate(924,649)"
     id="path62" />
  <path
     d="M0,0 L12,1 L11,6 L9,16 L5,17 L2,15 L2,12 L0,11 L10,3 L0,1 Z "
     fill="#342B28"
     transform="translate(1131,699)"
     id="path63" />
  <path
     d="M0,0 L1,0 L1,22 L0,37 L-1,42 L-2,61 L-3,61 L-3,36 L-2,34 L-1,9 Z "
     fill="#8E6E62"
     transform="translate(1307,1134)"
     id="path64" />
  <path
     d="M0,0 L1,0 L2,22 L4,22 L4,24 L2,24 L3,49 L1,45 L0,42 Z "
     fill="#AF8474"
     transform="translate(1349,1512)"
     id="path65" />
  <path
     d="M0,0 L6,0 L6,2 L4,2 L4,5 L-3,9 L-9,8 L-14,9 L-12,6 Z "
     fill="#050404"
     transform="translate(903,980)"
     id="path66" />
  <path
     d="M0,0 L2,2 L4,11 L7,19 L9,28 L9,32 L6,32 L3,21 L0,5 Z "
     fill="#DBA88D"
     transform="translate(885,1563)"
     id="path67" />
  <path
     d="M0,0 L2,1 L2,5 L6,6 L-2,9 L-14,9 L-14,7 L-5,3 Z "
     fill="#C6C6CB"
     transform="translate(1160,693)"
     id="path68" />
  <path
     d="M0,0 L10,0 L12,4 L10,8 L8,8 L7,11 L5,7 L4,6 L-2,7 L-2,4 Z M2,1 Z "
     fill="#F4BC9E"
     transform="translate(1194,793)"
     id="path69" />
  <path
     d="M0,0 L1,0 L0,11 L-2,21 L-5,29 L-6,29 L-6,16 Z "
     fill="#5C4740"
     transform="translate(1101,2969)"
     id="path70" />
  <path
     d="M0,0 L3,3 L5,6 L10,25 L9,29 L7,27 L0,2 Z "
     fill="#DDAE98"
     transform="translate(812,1321)"
     id="path71" />
  <path
     d="M0,0 L1,0 L0,25 L-1,41 L-2,41 L-3,19 L-1,1 Z "
     fill="#D2A68C"
     transform="translate(845,2146)"
     id="path72" />
  <path
     d="M0,0 L1,4 L-3,24 L-5,27 L-8,30 L-7,23 L-2,3 L0,3 Z "
     fill="#C39783"
     transform="translate(923,2708)"
     id="path73" />
  <path
     d="M0,0 L1,4 L1,10 L-7,31 L-9,36 L-10,32 L-5,15 L-2,8 Z "
     fill="#BD8F7F"
     transform="translate(967,2565)"
     id="path74" />
  <path
     d="M0,0 L6,0 L6,1 L1,2 L6,3 L6,4 L-7,7 L-15,11 L-18,10 L-17,8 Z "
     fill="#1B1412"
     transform="translate(1257,679)"
     id="path75" />
  <path
     d="M0,0 L3,1 L6,16 L8,25 L4,27 L2,13 Z "
     fill="#E1B2A4"
     transform="translate(1099,3015)"
     id="path76" />
  <path
     d="M0,0 L7,1 L8,5 L6,5 L6,8 L3,8 L2,12 L0,9 L-2,10 Z "
     fill="#DAAD9A"
     transform="translate(860,665)"
     id="path77" />
  <path
     d="M0,0 L1,0 L1,22 L-1,22 L-2,18 L-4,10 Z "
     fill="#D8A89C"
     transform="translate(1099,2988)"
     id="path78" />
  <path
     d="M0,0 L1,0 L0,8 L-6,24 L-8,24 L-6,13 L-2,1 Z "
     fill="#D4A48A"
     transform="translate(975,2547)"
     id="path79" />
  <path
     d="M0,0 L5,1 L8,0 L11,2 L7,3 L6,6 L4,6 L3,8 L0,7 L1,14 L-1,15 L-1,13 L-4,12 L-1,6 Z "
     fill="#AF6F58"
     transform="translate(1026,488)"
     id="path80" />
  <path
     d="M0,0 L9,0 L12,2 L11,4 L8,4 L7,6 L7,4 L4,4 L3,7 L-1,6 L-3,2 Z "
     fill="#B87663"
     transform="translate(1116,487)"
     id="path81" />
  <path
     d="M0,0 L1,0 L1,20 L-1,25 L-2,31 L-3,31 L-2,13 Z "
     fill="#28201C"
     transform="translate(1307,1114)"
     id="path82" />
  <path
     d="M0,0 L2,2 L2,17 L1,29 L0,29 L0,14 L-2,14 L-1,2 Z "
     fill="#B9907E"
     transform="translate(1134,2787)"
     id="path83" />
  <path
     d="M0,0 L4,5 L2,8 L2,6 L-5,10 L-6,23 L-8,26 L-8,9 L0,4 Z "
     fill="#4A3933"
     transform="translate(948,697)"
     id="path84" />
  <path
     d="M0,0 L2,0 L2,2 L0,2 L1,10 L-1,10 L0,17 L3,18 L1,19 L-5,14 L-6,9 L-3,7 L-1,1 Z "
     fill="#A97A61"
     transform="translate(1008,482)"
     id="path85" />
  <path
     d="M0,0 L8,3 L6,6 L-3,9 L-6,8 L-4,4 Z "
     fill="#D3B096"
     transform="translate(1137,842)"
     id="path86" />
  <path
     d="M0,0 L1,4 L0,6 L2,6 L-1,16 L-3,21 L-6,21 L-4,11 L-1,2 Z "
     fill="#B28676"
     transform="translate(980,2527)"
     id="path87" />
  <path
     d="M0,0 L2,3 L8,21 L7,23 L4,22 L0,10 Z "
     fill="#BF9482"
     transform="translate(821,1342)"
     id="path88" />
  <path
     d="M0,0 L1,0 L1,17 L-2,23 L-3,21 L-2,1 Z "
     fill="#D4A28F"
     transform="translate(977,911)"
     id="path89" />
  <path
     d="M0,0 L5,2 L7,8 L7,10 L-2,7 L-1,1 Z "
     fill="#B98B7C"
     transform="translate(1186,662)"
     id="path90" />
  <path
     d="M0,0 L6,2 L6,6 L9,6 L9,13 L8,11 L4,12 L2,9 L3,6 L0,5 L0,2 Z "
     fill="#F9A19E"
     transform="translate(1179,528)"
     id="path91" />
  <path
     d="M0,0 L2,3 L6,14 L9,27 L6,24 L2,13 L0,6 Z "
     fill="#C99B7F"
     transform="translate(842,1405)"
     id="path92" />
  <path
     d="M0,0 L4,4 L9,3 L13,0 L15,1 L11,5 L3,11 L1,11 Z "
     fill="#110D0C"
     transform="translate(951,703)"
     id="path93" />
  <path
     d="M0,0 L2,1 L2,8 L1,13 L-1,13 L-3,6 L-4,9 L-6,5 L-8,4 Z "
     fill="#CD9990"
     transform="translate(858,664)"
     id="path94" />
  <path
     d="M0,0 L1,0 L0,30 L-1,30 L-1,22 L-3,22 L-1,1 Z "
     fill="#110D0C"
     transform="translate(1306,1138)"
     id="path95" />
  <path
     d="M0,0 L1,0 L2,7 L-1,22 L-3,23 L-3,13 Z "
     fill="#B38D73"
     transform="translate(898,2817)"
     id="path96" />
  <path
     d="M0,0 L1,0 L1,22 L-3,21 L-3,13 L-1,11 Z "
     fill="#362A25"
     transform="translate(909,1654)"
     id="path97" />
  <path
     d="M0,0 L2,1 L5,13 L6,20 L5,17 L2,17 L-1,5 Z "
     fill="#201815"
     transform="translate(966,830)"
     id="path98" />
  <path
     d="M0,0 L2,0 L2,15 L1,21 L0,17 L-2,17 Z "
     fill="#EBB8A0"
     transform="translate(1132,2801)"
     id="path99" />
  <path
     d="M0,0 L3,0 L2,16 L1,25 L-1,25 Z "
     fill="#DCAB93"
     transform="translate(837,2219)"
     id="path100" />
  <path
     d="M0,0 L1,0 L0,9 L-4,24 L-5,24 L-5,13 L-3,6 L-1,6 Z "
     fill="#E0B09A"
     transform="translate(912,2757)"
     id="path101" />
  <path
     d="M0,0 L2,2 L6,26 L5,30 L0,7 Z "
     fill="#EEB6A2"
     transform="translate(897,1618)"
     id="path102" />
  <path
     d="M0,0 L7,1 L11,3 L11,5 L6,7 L3,7 L2,6 L0,5 Z "
     fill="#BB7564"
     transform="translate(1064,477)"
     id="path103" />
  <path
     d="M0,0 L24,0 L24,2 L31,4 L28,5 L21,3 L0,1 Z "
     fill="#A0766A"
     transform="translate(1150,663)"
     id="path104" />
  <path
     d="M0,0 L5,1 L8,4 L8,6 L-3,5 L-1,1 Z "
     fill="#150F0E"
     transform="translate(1039,741)"
     id="path105" />
  <path
     d="M0,0 L1,0 L1,6 L3,5 L5,2 L4,7 L3,12 L1,8 L-4,13 L-2,4 Z "
     fill="#5F5047"
     transform="translate(1106,2954)"
     id="path106" />
  <path
     d="M0,0 L1,0 L1,11 L-2,23 L-4,23 L-1,6 Z "
     fill="#664E46"
     transform="translate(887,1850)"
     id="path107" />
  <path
     d="M0,0 L3,0 L3,2 L8,4 L9,7 L6,7 L8,10 L7,14 L1,3 Z "
     fill="#1A1514"
     transform="translate(940,683)"
     id="path108" />
  <path
     d="M0,0 L5,1 L9,3 L8,5 L5,5 L0,4 L0,6 L-5,6 L-2,1 Z "
     fill="#BF745D"
     transform="translate(1054,471)"
     id="path109" />
  <path
     d="M0,0 L3,4 L7,15 L6,17 L4,16 L1,9 L-1,2 Z "
     fill="#BD9785"
     transform="translate(925,1394)"
     id="path110" />
  <path
     d="M0,0 L3,2 L5,9 L5,15 L2,11 L-1,5 Z "
     fill="#DDAD96"
     transform="translate(837,1394)"
     id="path111" />
  <path
     d="M0,0 L4,5 L6,16 L4,18 L0,5 Z "
     fill="#DCA995"
     transform="translate(826,1362)"
     id="path112" />
  <path
     d="M0,0 L2,2 L4,13 L5,20 L2,16 L-2,4 L-2,2 L0,2 Z "
     fill="#BC8B7C"
     transform="translate(895,1294)"
     id="path113" />
  <path
     d="M0,0 L1,3 L6,5 L4,6 L4,8 L-3,11 L-2,4 L0,4 Z "
     fill="#D69695"
     transform="translate(1193,801)"
     id="path114" />
  <path
     d="M0,0 L6,2 L4,3 L5,8 L2,8 L2,6 L-3,4 L-3,2 L-6,1 L-1,1 Z "
     fill="#C78B72"
     transform="translate(1060,474)"
     id="path115" />
  <path
     d="M0,0 L1,0 L1,17 L-2,25 L-3,21 Z "
     fill="#B88F7F"
     transform="translate(934,1638)"
     id="path116" />
  <path
     d="M0,0 L3,1 L5,11 L3,11 L2,14 L0,7 Z "
     fill="#1C1614"
     transform="translate(876,1248)"
     id="path117" />
  <path
     d="M0,0 L4,1 L5,4 L2,7 L0,7 L-2,3 L-6,4 L-4,1 Z "
     fill="#D29B8A"
     transform="translate(1201,793)"
     id="path118" />
  <path
     d="M0,0 L1,4 L-7,20 L-9,20 L-7,15 L-3,5 Z "
     fill="#8F6759"
     transform="translate(739,2873)"
     id="path119" />
  <path
     d="M0,0 L1,0 L1,8 L-1,15 L-3,15 L-3,8 Z "
     fill="#E6AA94"
     transform="translate(917,2734)"
     id="path120" />
  <path
     d="M0,0 L2,3 L3,14 L0,11 L-3,3 Z "
     fill="#DBA98B"
     transform="translate(1350,1595)"
     id="path121" />
  <path
     d="M0,0 L7,1 L10,4 L-3,4 L-3,2 Z "
     fill="#1C1614"
     transform="translate(1061,743)"
     id="path122" />
  <path
     d="M0,0 L5,0 L4,4 L3,5 L-4,5 L-3,1 Z "
     fill="#2D2523"
     transform="translate(1163,699)"
     id="path123" />
  <path
     d="M0,0 L5,0 L8,4 L7,8 L4,8 L3,5 L0,4 Z "
     fill="#CE9E5F"
     transform="translate(1181,526)"
     id="path124" />
  <path
     d="M0,0 L2,0 L1,3 L-2,3 L-3,5 L-3,2 Z M-6,4 L-4,5 L-12,11 L-18,14 L-17,11 Z "
     fill="#DFAA94"
     transform="translate(1026,504)"
     id="path125" />
  <path
     d="M0,0 L1,0 L1,16 L-2,16 L-3,19 L-2,12 Z "
     fill="#AD8977"
     transform="translate(906,2773)"
     id="path126" />
  <path
     d="M0,0 L2,0 L1,10 L-1,18 L-2,18 L-2,9 Z "
     fill="#362823"
     transform="translate(1147,2346)"
     id="path127" />
  <path
     d="M0,0 L3,3 L5,6 L6,13 L4,17 Z "
     fill="#D6A07E"
     transform="translate(812,1321)"
     id="path128" />
  <path
     d="M0,0 L3,0 L5,6 L4,13 L2,10 L0,4 Z "
     fill="#BE8E7F"
     transform="translate(881,1257)"
     id="path129" />
  <path
     d="M0,0 L2,3 L0,8 L-2,8 L-3,12 L-6,10 L-5,6 L-2,5 Z "
     fill="#B76E57"
     transform="translate(999,508)"
     id="path130" />
  <path
     d="M0,0 L9,5 L11,8 L7,7 L1,3 L0,12 L-1,12 L-1,1 Z "
     fill="#372A26"
     transform="translate(1148,723)"
     id="path131" />
  <path
     d="M0,0 L6,2 L9,5 L5,6 L5,8 L3,8 L1,4 Z "
     fill="#C47761"
     transform="translate(1157,517)"
     id="path132" />
  <path
     d="M0,0 L3,1 L11,13 L8,14 L3,6 Z "
     fill="#E8C9B9"
     transform="translate(1113,3060)"
     id="path133" />
  <path
     d="M0,0 L1,0 L1,13 L-1,15 L-2,14 L-2,4 L0,4 Z "
     fill="#E9B6A0"
     transform="translate(1131,2823)"
     id="path134" />
  <path
     d="M0,0 L2,0 L-1,11 L-4,14 L-5,12 L-1,1 Z "
     fill="#B38C7A"
     transform="translate(990,2501)"
     id="path135" />
  <path
     d="M0,0 L2,3 L2,11 L-1,14 L-1,1 Z "
     fill="#EEBBB2"
     transform="translate(1351,1494)"
     id="path136" />
  <path
     d="M0,0 L4,0 L4,6 L-1,7 L-1,5 L-3,5 L-1,1 Z "
     fill="#CEAE99"
     transform="translate(1170,816)"
     id="path137" />
  <path
     d="M0,0 L8,0 L8,2 L-3,5 L-6,4 L-3,3 L-3,1 Z "
     fill="#E1AD97"
     transform="translate(1076,481)"
     id="path138" />
  <path
     d="M0,0 L1,4 L-2,18 L-3,18 L-4,11 L-2,3 L0,3 Z "
     fill="#CC9B89"
     transform="translate(923,2708)"
     id="path139" />
  <path
     d="M0,0 L3,1 L5,9 L7,10 L6,16 L4,13 Z "
     fill="#CB9D8C"
     transform="translate(1301,1494)"
     id="path140" />
  <path
     d="M0,0 L3,4 L1,9 L-1,10 L-2,5 L-4,4 Z "
     fill="#CE9085"
     transform="translate(1175,812)"
     id="path141" />
  <path
     d="M0,0 L3,1 L2,4 L-5,3 L-5,5 L-9,6 L-11,3 L-8,3 L-4,1 Z "
     fill="#D8AF9E"
     transform="translate(857,677)"
     id="path142" />
  <path
     d="M0,0 L5,0 L1,3 L-8,7 L-10,7 L-10,5 Z "
     fill="#C59882"
     transform="translate(862,997)"
     id="path143" />
  <path
     d="M0,0 L4,5 L-1,7 L-2,9 L-5,4 L0,3 Z "
     fill="#D69689"
     transform="translate(933,814)"
     id="path144" />
  <path
     d="M0,0 L4,2 L4,8 L0,6 L0,4 L-2,4 L-2,2 L0,2 Z "
     fill="#DEAF94"
     transform="translate(907,789)"
     id="path145" />
  <path
     d="M0,0 L2,1 L1,2 L4,4 L4,11 L2,7 L2,4 L-4,6 L-3,2 Z "
     fill="#2B2625"
     transform="translate(1107,680)"
     id="path146" />
  <path
     d="M0,0 L2,4 L3,11 L0,11 L-2,2 L0,2 Z "
     fill="#D2A491"
     transform="translate(1295,1464)"
     id="path147" />
  <path
     d="M0,0 L3,3 L2,20 L1,20 L0,9 Z "
     fill="#9E786C"
     transform="translate(903,720)"
     id="path148" />
  <path
     d="M0,0 L2,0 L4,6 L-3,9 L-4,5 L-1,6 Z "
     fill="#B08069"
     transform="translate(1044,486)"
     id="path149" />
  <path
     d="M0,0 L1,0 L0,24 L-1,24 L-2,7 Z "
     fill="#A08071"
     transform="translate(844,2163)"
     id="path150" />
  <path
     d="M0,0 L1,2 L4,3 L2,4 L0,10 L2,11 L-1,11 L-3,7 Z "
     fill="#221917"
     transform="translate(1184,659)"
     id="path151" />
  <path
     d="M0,0 L3,0 L4,7 L3,13 L1,9 Z "
     fill="#EAB29A"
     transform="translate(891,1595)"
     id="path152" />
  <path
     d="M0,0 L2,3 L4,12 L4,16 L1,16 L0,13 L1,10 Z "
     fill="#B18575"
     transform="translate(890,1579)"
     id="path153" />
  <path
     d="M0,0 L5,1 L4,3 L-3,5 L-6,3 Z "
     fill="#D4A48D"
     transform="translate(826,1012)"
     id="path154" />
  <path
     d="M0,0 L1,0 L1,7 L0,5 L-15,6 L-15,5 L-2,3 Z "
     fill="#DFAA96"
     transform="translate(1138,907)"
     id="path155" />
  <path
     d="M0,0 L3,1 L2,13 L1,13 L1,2 L-11,2 L-11,1 Z "
     fill="#050303"
     transform="translate(1145,722)"
     id="path156" />
  <path
     d="M0,0 L1,3 L0,9 L-4,8 L-3,3 Z "
     fill="#D1A292"
     transform="translate(1138,707)"
     id="path157" />
  <path
     d="M0,0 L1,3 L-2,4 L-2,6 L-7,8 L-7,5 L-3,1 Z "
     fill="#A78275"
     transform="translate(919,654)"
     id="path158" />
  <path
     d="M0,0 L1,3 L4,3 L7,11 L3,10 L0,4 Z "
     fill="#CDBD9B"
     transform="translate(1108,3049)"
     id="path159" />
  <path
     d="M0,0 L2,1 L3,5 L-3,8 L-3,4 Z "
     fill="#B97769"
     transform="translate(1035,492)"
     id="path160" />
  <path
     d="M0,0 L2,0 L2,7 L1,12 L0,10 L-2,9 Z "
     fill="#100D0A"
     transform="translate(1149,2336)"
     id="path161" />
  <path
     d="M0,0 L3,2 L3,5 L-4,6 L-5,4 L0,2 Z "
     fill="#DFADA2"
     transform="translate(938,820)"
     id="path162" />
  <path
     d="M0,0 L2,1 L-1,3 L2,5 L-10,5 L-6,3 Z "
     fill="#BE8E7F"
     transform="translate(936,644)"
     id="path163" />
  <path
     d="M0,0 L2,2 L1,12 L-1,10 L-1,1 Z "
     fill="#2B211D"
     transform="translate(846,2136)"
     id="path164" />
  <path
     d="M0,0 L4,4 L2,9 L-2,8 L-2,5 L0,4 Z "
     fill="#E1B187"
     transform="translate(928,809)"
     id="path165" />
  <path
     d="M0,0 L2,3 L4,8 L3,12 L2,10 L0,11 Z "
     fill="#B58575"
     transform="translate(831,1373)"
     id="path166" />
  <path
     d="M0,0 L2,0 L4,10 L2,14 Z "
     fill="#473932"
     transform="translate(870,1226)"
     id="path167" />
  <path
     d="M0,0 L2,0 L1,3 L-7,8 L-9,7 Z "
     fill="#D2A08B"
     transform="translate(800,1028)"
     id="path168" />
  <path
     d="M0,0 L3,1 L3,11 L1,10 Z "
     fill="#D89C97"
     transform="translate(1099,3015)"
     id="path169" />
  <path
     d="M0,0 L2,1 L-1,5 L-5,8 L-7,7 L-3,2 Z "
     fill="#281E1B"
     transform="translate(1027,778)"
     id="path170" />
  <path
     d="M0,0 L4,5 L8,12 L5,11 L0,3 Z "
     fill="#2F2420"
     transform="translate(962,726)"
     id="path171" />
  <path
     d="M0,0 L1,2 L4,3 L3,7 L1,7 L0,11 Z "
     fill="#C39182"
     transform="translate(899,680)"
     id="path172" />
  <path
     d="M0,0 L7,0 L8,2 L1,2 L0,5 L-3,5 L-3,2 Z "
     fill="#BE8673"
     transform="translate(1011,504)"
     id="path173" />
  <path
     d="M0,0 L1,4 L-4,12 L-5,10 Z "
     fill="#562A24"
     transform="translate(729,2893)"
     id="path174" />
  <path
     d="M0,0 L1,0 L0,8 L-3,11 L-2,4 Z "
     fill="#2A2314"
     transform="translate(956,2598)"
     id="path175" />
  <path
     d="M0,0 L2,0 L1,13 L-1,13 L-1,3 Z "
     fill="#B3916B"
     transform="translate(837,2231)"
     id="path176" />
  <path
     d="M0,0 L2,0 L2,2 L13,2 L13,3 L-2,3 L-2,1 Z "
     fill="#070504"
     transform="translate(1119,720)"
     id="path177" />
  <path
     d="M0,0 L0,3 L-1,4 L4,5 L4,6 L-6,6 L-1,1 Z "
     fill="#C49889"
     transform="translate(1127,716)"
     id="path178" />
  <path
     d="M0,0 L0,3 L-6,6 L-6,1 Z "
     fill="#AE7B5C"
     transform="translate(1013,501)"
     id="path179" />
  <path
     d="M0,0 L3,0 L4,3 L1,3 L-1,7 L-2,7 L-2,2 L0,2 Z "
     fill="#BA847C"
     transform="translate(1010,482)"
     id="path180" />
  <path
     d="M0,0 L1,0 L3,9 L1,9 L0,11 L-1,3 Z "
     fill="#E9BC9D"
     transform="translate(1102,3023)"
     id="path181" />
  <path
     d="M0,0 L2,0 L1,13 L0,13 L-1,3 Z "
     fill="#2C231E"
     transform="translate(1139,2390)"
     id="path182" />
  <path
     d="M0,0 L2,2 L4,9 L1,9 L-1,1 Z "
     fill="#C29A88"
     transform="translate(920,1380)"
     id="path183" />
  <path
     d="M0,0 L2,1 L3,9 L1,10 L0,8 Z "
     fill="#E7B3A2"
     transform="translate(819,1340)"
     id="path184" />
  <path
     d="M0,0 L2,1 L1,5 L-2,6 L-4,4 Z "
     fill="#D6A593"
     transform="translate(1185,803)"
     id="path185" />
  <path
     d="M0,0 L2,1 L2,4 L-6,6 L-6,4 L-1,2 Z "
     fill="#DDA890"
     transform="translate(1248,776)"
     id="path186" />
  <path
     d="M0,0 L2,1 L2,5 L5,8 L4,10 L1,9 L-1,2 Z "
     fill="#C98D78"
     transform="translate(1170,532)"
     id="path187" />
  <path
     d="M0,0 L5,1 L4,3 L1,3 L0,6 L-2,5 Z "
     fill="#A67564"
     transform="translate(1032,488)"
     id="path188" />
  <path
     d="M0,0 L1,0 L0,9 L-2,9 L-2,3 Z "
     fill="#040303"
     transform="translate(1107,2961)"
     id="path189" />
  <path
     d="M0,0 L3,4 L4,11 L1,8 Z "
     fill="#E8B59D"
     transform="translate(832,1381)"
     id="path190" />
  <path
     d="M0,0 L3,4 L4,9 L0,8 Z "
     fill="#B28B7B"
     transform="translate(1311,1531)"
     id="path191" />
  <path
     d="M0,0 L2,0 L3,7 L0,6 Z "
     fill="#090606"
     transform="translate(879,1259)"
     id="path192" />
  <path
     d="M0,0 L2,3 L2,6 L0,6 L-1,9 L-2,2 Z "
     fill="#322622"
     transform="translate(879,1253)"
     id="path193" />
  <path
     d="M0,0 L2,2 L4,1 L6,3 L1,5 L-2,4 Z "
     fill="#E0B5A3"
     transform="translate(1133,846)"
     id="path194" />
  <path
     d="M0,0 L3,0 L4,4 L-2,4 Z "
     fill="#060504"
     transform="translate(1130,711)"
     id="path195" />
  <path
     d="M0,0 L2,1 L1,5 L-3,5 L-2,1 Z "
     fill="#CB8B7B"
     transform="translate(858,664)"
     id="path196" />
  <path
     d="M0,0 L4,2 L2,2 L0,6 L-2,5 L-1,1 Z "
     fill="#C79172"
     transform="translate(1050,470)"
     id="path197" />
  <path
     d="M0,0 L1,0 L1,7 L-1,7 L-2,10 L-2,4 Z "
     fill="#75574A"
     transform="translate(1127,2863)"
     id="path198" />
  <path
     d="M0,0 L2,0 L0,7 L-2,8 L-1,1 Z "
     fill="#EBB49C"
     transform="translate(978,2538)"
     id="path199" />
  <path
     d="M0,0 L4,4 L3,8 L1,7 Z "
     fill="#D19983"
     transform="translate(844,1415)"
     id="path200" />
  <path
     d="M0,0 L5,1 L1,3 L-4,4 L-3,1 Z "
     fill="#DDAA86"
     transform="translate(1223,784)"
     id="path201" />
  <path
     d="M0,0 L8,3 L8,5 L2,4 Z "
     fill="#AF7D40"
     transform="translate(1170,524)"
     id="path202" />
  <path
     d="M0,0 L1,4 L2,8 L0,9 L0,7 L-3,6 Z "
     fill="#AF6B6A"
     transform="translate(1025,494)"
     id="path203" />
  <path
     d="M0,0 L1,2 L4,2 L2,7 L0,5 L2,5 L2,3 L0,3 Z "
     fill="#000000"
     transform="translate(1251,647)"
     id="path204" />
  <path
     d="M0,0 L2,0 L1,6 L-1,5 Z "
     fill="#000000"
     transform="translate(1259,631)"
     id="path205" />
  <path
     d="M0,0 L2,0 L0,5 L-1,2 Z "
     fill="#000000"
     transform="translate(1257,637)"
     id="path206" />
  <path
     d="M0,0 L2,4 L-1,1 Z "
     fill="#000000"
     transform="translate(1255,642)"
     id="path207" />
  <path
     d="M0,0 L2,2 L0,2 Z "
     fill="#000000"
     transform="translate(1253,644)"
     id="path208" />
  <path
     d="M0,0 L2,1 Z "
     fill="#000000"
     transform="translate(1253,647)"
     id="path209" />
  <path
     d="M0,0 Z "
     fill="#000000"
     transform="translate(1248,660)"
     id="path210" />
  <path
     d="M0,0 Z "
     fill="#000000"
     transform="translate(1249,656)"
     id="path211" />
  <path
     d="M0,0 Z "
     fill="#000000"
     transform="translate(1248,655)"
     id="path212" />
  <path
     d="M0,0 Z "
     fill="#000000"
     transform="translate(884,644)"
     id="path213" />
  <path
     style="fill:#e5b7a2;fill-opacity:1;stroke-width:0.665264"
     d="m 1041.4715,863.94587 c -13.3702,-3.84609 -28.4556,-11.3379 -58.87595,-29.23938 -13.64665,-8.03065 -36.06213,-23.11905 -43.02586,-28.96174 -12.95824,-10.87219 -20.02256,-18.88443 -25.31854,-28.7159 -3.53171,-6.55629 -4.21301,-8.49496 -6.54616,-18.62741 -2.78963,-12.11487 -2.97214,-15.20588 -1.7087,-28.939 0.39696,-4.31479 0.73979,-5.84509 1.0805,-4.82317 0.27449,0.82327 1.00213,1.49685 1.61699,1.49685 0.61486,0 2.30131,1.21472 3.74768,2.69937 4.75195,4.87775 12.23422,9.105 21.10166,11.92177 13.50803,4.29087 15.55587,4.67101 25.19894,4.67763 21.44134,0.0147 44.62244,-7.76287 56.35544,-18.90802 4.4951,-4.26987 10.3019,-13.11092 13.1467,-20.01605 l 2.1926,-5.32212 0.029,4.53681 c 0.027,4.2698 0.1138,4.52429 1.4724,4.32422 1.1207,-0.16503 1.7592,-1.16 2.8542,-4.44751 1.0878,-3.26551 2.0898,-4.8355 4.3776,-6.85861 4.4886,-3.96941 6.2861,-4.54018 14.2985,-4.54018 6.5828,0 7.3672,0.14653 11.8299,2.21002 5.8221,2.69209 7.9847,5.26807 9.0525,10.783 0.4229,2.18417 0.9125,4.6448 1.088,5.46806 0.1925,0.90291 0.8112,1.49685 1.5594,1.49685 1.2801,0 2.0352,-1.69352 2.0516,-4.60141 0.014,-2.39788 0.6447,-1.31956 1.7793,3.03997 1.3337,5.12446 7.5841,16.09285 12.2883,21.56401 7.6443,8.89053 21.9158,17.86608 33.7277,21.21187 9.5805,2.71372 15.5186,2.7105 29.7556,-0.0161 10.2968,-1.97201 10.9938,-2.21062 19.2927,-6.60501 11.6745,-6.18186 17.2854,-11.32839 22.6176,-20.74585 3.6034,-6.36409 4.0035,-7.5182 6.0613,-17.48228 1.2117,-5.86759 2.2063,-11.76961 2.2103,-13.11558 0.011,-3.80091 1.2327,-4.53718 7.5388,-4.54351 2.9925,-0.003 8.1023,-0.31036 11.3551,-0.68301 3.2528,-0.37265 6.0525,-0.53927 6.2215,-0.37027 0.5087,0.50873 -1.7841,6.80761 -6.3182,17.35772 -2.3588,5.48843 -5.5912,13.6249 -7.183,18.08105 -1.5918,4.45615 -3.9053,10.14416 -5.1411,12.64003 -1.2358,2.49586 -2.6484,5.58572 -3.1391,6.86636 -1.7161,4.47848 -12.7622,28.87448 -15.6375,34.53613 -3.4456,6.78472 -12.8573,18.76641 -18.2974,23.29367 -2.1344,1.77632 -7.9283,6.2685 -12.8752,9.98262 -10.9552,8.2251 -45.8884,28.75406 -66.4157,39.03009 -11.8496,5.93194 -15.8308,7.57122 -24.2861,10.00005 -13.5424,3.89009 -18.6112,3.9461 -31.1332,0.34399 z m 38.1568,-70.54473 c 0.6393,-0.40511 -1.0075,-1.59369 -5.6547,-4.08115 -3.6063,-1.93027 -9.4442,-5.092 -12.9733,-7.02608 -11.8421,-6.48999 -21.0033,-8.22795 -30.3965,-5.76643 -3.6809,0.96458 -4.9698,1.70611 -7.5934,4.36856 -5.8229,5.90907 -3.8415,6.58383 6.2259,2.12019 5.2106,-2.31027 7.5491,-2.99369 10.2439,-2.99369 4.0043,0 4.9653,0.36181 18.9555,7.13669 13.0477,6.31845 18.5256,7.93186 21.1926,6.24191 z m -32.5021,-47.52376 c 0,-2.37153 -2.5701,-4.35132 -5.9417,-4.57701 -2.6898,-0.18005 -3.0298,-0.0193 -4.226,1.99764 -0.7155,1.2064 -1.0908,2.40388 -0.834,2.66106 0.3924,0.39301 3.2658,0.79144 9.8375,1.36407 0.8041,0.0701 1.1642,-0.3771 1.1642,-1.44576 z m 23.9495,0.9979 c 0,-1.45714 -3.2696,-3.34003 -6.5606,-3.77807 -4.2887,-0.57084 -6.7447,0.44024 -6.7447,2.77663 0,1.52076 0.1286,1.55074 6.6527,1.55074 3.6589,0 6.6526,-0.24718 6.6526,-0.5493 z"
     id="path214" />
  <path
     style="fill:#e5b7a2;fill-opacity:1;stroke-width:0.665264"
     d="m 1203.1015,776.11683 c 0.8551,-2.51403 4.5858,-11.32931 8.2904,-19.58949 3.7047,-8.26019 11.07,-26.03644 16.3674,-39.5028 9.5709,-24.32995 10.841,-26.8127 13.7168,-26.8127 0.7017,0 3.0147,-0.87778 5.1399,-1.95062 2.1253,-1.07283 6.6305,-2.60007 10.0116,-3.39385 l 6.1474,-1.44324 1.6116,1.51403 1.6116,1.51402 -0.015,14.68617 c -0.015,14.43561 -0.053,14.83372 -2.2276,23.33461 -3.1984,12.50407 -6.2043,19.21886 -12.014,26.8383 -6.0832,7.97805 -9.9497,11.7118 -16.3452,15.78386 -7.0853,4.51134 -19.3214,10.18212 -25.9406,12.02209 -8.4018,2.33551 -8.201,2.43034 -6.3539,-3.00038 z"
     id="path215" />
  <path
     style="fill:#e5b7a2;fill-opacity:1;stroke-width:0.470413"
     d="m 938.69348,829.28107 c -1.80249,-1.43305 -3.33928,-2.77466 -3.41508,-2.98135 -0.0758,-0.20669 1.24724,-0.52412 2.94009,-0.70541 l 3.07789,-0.32961 v -1.57491 c 0,-1.21663 -0.34779,-1.84837 -1.52884,-2.77698 l -1.52884,-1.20207 -0.13985,1.07476 c -0.16767,1.28847 -3.46908,2.70636 -5.42908,2.33168 -2.22073,-0.42452 -1.22966,-1.82351 2.227,-3.14362 1.19124,-0.45494 2.16154,-0.96842 2.15622,-1.14106 -0.005,-0.17265 -0.94977,-1.37233 -2.09878,-2.66597 l -2.08911,-2.35207 -0.0181,1.52885 c -0.01,0.84086 -0.21244,1.52884 -0.45001,1.52884 -0.23757,0 -0.77366,0.13113 -1.19132,0.2914 -0.66311,0.25446 -0.64232,-0.006 0.16395,-2.05109 l 0.92332,-2.3425 -1.98427,-1.94742 c -1.09135,-1.07107 -2.13503,-1.94741 -2.31928,-1.94741 -0.18425,0 -0.335,0.95258 -0.335,2.11686 0,1.16427 -0.19657,2.11686 -0.43681,2.11686 -0.24025,0 -0.7606,0.32378 -1.15634,0.71952 -1.28294,1.28294 -2.75351,0.31147 -5.93346,-3.9197 -1.68173,-2.23767 -4.64627,-5.76709 -6.58788,-7.84316 -1.94161,-2.07607 -3.95262,-4.28686 -4.46892,-4.91287 -1.02322,-1.24064 -1.05905,-1.23649 1.53094,-0.17759 0.43693,0.17864 0.58801,-0.5962 0.58801,-3.01568 v -3.2561 l -1.6624,-0.79274 c -2.14575,-1.02324 -2.57131,-0.99873 -2.57131,0.14808 0,0.70188 -0.31361,0.94083 -1.23484,0.94083 -1.10375,0 -1.20665,0.14087 -0.96942,1.32707 0.23376,1.16878 0.0825,1.39323 -1.26823,1.88165 -0.89696,0.32435 -4.21278,0.55458 -7.98717,0.55458 -5.54683,0 -6.71525,-0.13353 -8.31643,-0.95039 -1.22288,-0.62386 -1.86291,-1.27034 -1.86291,-1.88165 0,-0.5122 -0.20574,-0.93126 -0.45719,-0.93126 -0.25145,0 -8.41379,3.96855 -18.13853,8.81901 l -17.68136,8.81902 -4.49217,10e-4 -4.49217,10e-4 -0.92772,-2.35064 c -0.51024,-1.29285 -0.97171,-2.39463 -1.02547,-2.4484 -0.0538,-0.0538 -1.67733,0.31242 -3.60793,0.81374 -1.93058,0.50132 -4.90626,0.91512 -6.61261,0.91955 l -3.10246,0.008 -4.67581,-4.82174 c -2.5717,-2.65195 -5.29954,-5.64684 -6.06187,-6.65531 -0.76233,-1.00848 -3.06186,-3.2841 -5.11007,-5.05694 l -3.72402,-3.22336 h -2.9947 c -4.66215,0 -5.77188,-0.95894 -7.61421,-6.57963 -0.81546,-2.48785 -1.48266,-5.18406 -1.48266,-5.99158 0,-1.23705 -0.24071,-1.54941 -1.52884,-1.98395 -1.09548,-0.36955 -2.06892,-1.34662 -3.43418,-3.44698 -1.87708,-2.88776 -1.89802,-2.9676 -1.41124,-5.38308 0.27175,-1.34851 0.75871,-2.71389 1.08212,-3.03416 0.42103,-0.41695 0.58801,-2.69301 0.58801,-8.01485 v -7.43252 h -1.60808 c -1.31837,0 -1.78448,-0.28544 -2.58727,-1.58437 -1.34647,-2.17864 -1.33549,-7.84855 0.0257,-13.27579 0.80357,-3.20392 0.89781,-4.24162 0.47041,-5.17965 -0.33043,-0.72522 -0.53447,-4.15335 -0.53447,-8.97961 0,-6.57531 0.15669,-8.33393 0.99345,-11.15018 0.5464,-1.83898 1.21648,-3.48359 1.48906,-3.65467 0.27259,-0.17109 1.39191,-0.44548 2.48738,-0.60975 l 1.99175,-0.29869 1.01864,-4.09437 c 0.57495,-2.31101 1.97859,-5.93845 3.22256,-8.3281 l 2.20393,-4.23372 3.01502,0.1426 c 1.65826,0.0784 3.74805,0.44889 4.64397,0.82323 0.89593,0.37434 1.68436,0.68062 1.75208,0.68062 0.0677,0 0.59567,-1.16427 1.17322,-2.58727 0.7504,-1.84888 1.30301,-2.58728 1.93629,-2.58728 0.57258,0 0.88619,-0.33294 0.88619,-0.94082 0,-0.81668 0.31361,-0.94083 2.37653,-0.94083 2.21766,0 2.40943,0.0943 2.8685,1.41124 0.52013,1.49206 0.8013,1.58969 3.19771,1.11041 1.18488,-0.23697 1.93621,-0.94487 3.53959,-3.33494 3.66511,-5.46341 7.51353,-6.83747 10.50521,-3.75084 0.82693,0.85318 1.50352,2.01745 1.50352,2.58727 0,0.83754 0.27038,1.03604 1.41124,1.03604 1.09763,0 1.41124,0.20907 1.41124,0.94082 0,0.51746 0.10515,0.94083 0.23367,0.94083 0.38305,0 10.27644,-7.81421 11.23305,-8.87233 1.16813,-1.29209 2.30823,-0.68505 3.66139,1.94947 l 1.01879,1.98352 0.54521,-1.31828 c 0.53832,-1.30162 0.55519,-1.28238 1.33481,1.52174 0.43428,1.56201 0.7896,3.03135 0.7896,3.26518 0,0.23384 -0.78214,0.57189 -1.73807,0.75123 -0.95594,0.17934 -2.74823,0.83795 -3.98288,1.46359 -1.23464,0.62564 -2.88884,1.13753 -3.676,1.13753 h -1.4312 l 1.06275,1.62477 c 0.87716,1.34102 1.26813,1.57545 2.23879,1.34236 2.36956,-0.56903 3.29289,-1.07924 3.29289,-1.81959 0,-0.65738 0.45949,-0.71434 3.47958,-0.43134 l 3.47958,0.32607 0.33401,-1.52073 c 0.19077,-0.86857 0.13642,-1.64682 -0.12673,-1.81477 -0.49531,-0.31611 -0.21262,-3.35173 0.31213,-3.35173 0.17358,0 0.72362,0.68798 1.22231,1.52885 l 0.9067,1.52884 0.5279,-1.88165 c 0.458,-1.6325 0.72511,-1.90117 2.0172,-2.02906 1.35462,-0.13408 1.4893,-0.2936 1.4893,-1.76405 0,-1.33144 0.17521,-1.61664 0.99317,-1.61664 0.88029,0 0.95808,-0.18715 0.68431,-1.64645 -0.35998,-1.91885 -0.31822,-1.92946 3.5988,-0.91446 1.55365,0.40259 2.87128,0.6672 2.92808,0.58801 0.67524,-0.94141 7.39443,-13.96333 8.20569,-15.9028 4.15353,-9.92968 15.36032,-27.14715 23.72974,-36.457 2.32592,-2.58727 6.34874,-7.56189 8.9396,-11.05471 9.1165,-12.29024 28.40372,-33.65902 38.06807,-42.17655 10.99032,-9.68614 19.43309,-17.51655 25.51645,-23.66571 3.74354,-3.78404 8.16113,-7.65969 11.39002,-9.99274 2.90107,-2.09618 5.17445,-3.97338 5.05195,-4.17157 -0.12249,-0.1982 0.79124,-0.65758 2.0305,-1.02086 1.23927,-0.36328 4.20513,-1.97297 6.59083,-3.57708 2.3856,-1.60411 4.3375,-2.69638 4.3375,-2.42725 0,0.82853 5.6595,-2.29228 10.0275,-5.52951 2.5987,-1.92595 3.9413,-3.20101 3.5955,-3.41472 -0.4186,-0.2587 -0.4134,-0.42662 0.021,-0.69534 0.3202,-0.1979 0.7494,-0.0691 0.9725,0.29172 0.3286,0.53179 0.5064,0.50603 1.0058,-0.14568 0.3336,-0.43541 1.2349,-0.85775 2.0028,-0.93853 1.1281,-0.11866 1.4822,-0.4481 1.8434,-1.71488 0.3441,-1.2069 1.2191,-2.08896 3.7993,-3.83011 5.3469,-3.60804 19.4803,-10.40911 29.2106,-14.05633 8.768,-3.28651 10.397,-3.77371 9.8935,-2.95896 -0.1366,0.2209 0.3214,0.6612 1.0177,0.97845 1.087,0.49528 2.0825,0.35743 7.0415,-0.97509 5.2453,-1.40948 5.7754,-1.6504 5.7754,-2.6249 0,-0.91618 -0.2578,-1.08127 -1.764,-1.12976 -2.6195,-0.0843 16.0286,-1.76589 19.9351,-1.79763 l 3.3531,-0.0272 3.4568,4.46892 c 1.9013,2.45791 3.6008,4.46892 3.7767,4.46892 0.1759,0 0.2242,0.37045 0.1073,0.82323 -0.2991,1.15837 2.9655,6.40161 8.2742,13.28916 2.4928,3.23409 6.9369,9.16129 9.8759,13.17157 10.9889,14.9945 26.6486,35.00679 28.0316,35.82292 0.7849,0.46317 2.5843,2.58223 3.9985,4.70903 2.7098,4.07496 12.4068,17.07019 48.9101,65.54617 28.7349,38.15965 35.7485,47.72915 35.7485,48.77614 0,0.46884 0.099,0.85243 0.2189,0.85243 0.1204,0 3.1594,-1.35122 6.7532,-3.00272 5.6264,-2.58554 7.0502,-3.04811 10.2477,-3.32942 l 3.7135,-0.3267 4.3985,13.77576 4.3985,13.77576 -1.4896,5.06857 c -0.8193,2.78771 -2.3062,7.45396 -3.3042,10.36944 l -1.8145,5.30086 -0.056,-3.29289 c -0.031,-1.81109 -0.2384,-7.37048 -0.4611,-12.35421 -0.5091,-11.38628 -0.977,-12.94099 -4.8712,-16.18453 -2.6177,-2.18036 -2.8485,-2.27322 -5.6449,-2.27117 -2.6498,0.002 -3.5976,0.32449 -10.3939,3.53731 -4.113,1.94436 -7.5546,3.45873 -7.6481,3.36526 -0.093,-0.0935 0.5712,-2.16154 1.477,-4.59574 1.515,-4.07126 2.5946,-8.37177 2.5946,-10.33516 0,-0.54288 -0.6288,-0.95681 -1.9709,-1.29747 -1.0839,-0.27514 -2.1023,-0.41899 -2.2631,-0.31964 -0.1607,0.0993 -1.5292,3.10354 -3.0411,6.67601 -1.512,3.57246 -2.8877,6.65626 -3.0573,6.85287 -0.2522,0.29248 -12.1878,3.13661 -13.2731,3.16287 -0.1761,0.004 -0.3878,-0.45013 -0.4704,-1.00976 -0.1209,-0.81778 -1.9048,-1.83979 -9.0882,-5.20673 -4.9158,-2.30407 -9.1799,-4.50181 -9.4756,-4.88387 -0.2958,-0.38206 -0.6714,-1.58477 -0.8346,-2.67269 -0.3713,-2.47446 -3.1869,-6.30585 -9.6183,-13.08832 l -4.7363,-4.99491 -6.0137,-2.13935 c -3.3076,-1.17665 -8.7896,-3.00389 -12.1823,-4.06054 l -6.1687,-1.92119 h -16.792 c -19.6145,0 -20.2975,0.10145 -35.8023,5.31735 -7.3234,2.46361 -9.6775,3.48501 -12.9364,5.61283 -8.1285,5.30727 -15.1588,14.52083 -18.2394,23.9036 -1.1477,3.49565 -1.5285,5.65205 -1.782,10.09066 -0.4478,7.84131 -0.4943,7.91506 -3.0072,4.76594 -1.9775,-2.47824 -2.2949,-2.67028 -7.4376,-4.50054 l -5.372,-1.91184 -8.0639,-0.002 -8.0639,-0.002 -4.8327,1.93989 c -4.5568,1.8291 -4.9799,2.11715 -7.409,5.04369 l -2.5763,3.1038 v 5.38587 c 0,2.96223 -0.1042,5.28171 -0.2315,5.15441 -0.1273,-0.1273 -0.2469,-3.28495 -0.2657,-7.017 -0.061,-12.02348 -0.7432,-18.20909 -2.9019,-26.30242 -1.7998,-6.74774 -2.2486,-7.82746 -5.9658,-14.35284 -3.7399,-6.56526 -4.3242,-7.32981 -8.3985,-10.98896 -3.0931,-2.778 -6.4114,-5.11249 -11.301,-7.95055 l -6.92224,-4.0178 -10.34908,-2.50551 -10.34909,-2.50552 -10.94198,-0.0106 c -10.17428,-0.01 -11.51098,0.0909 -19.05173,1.43685 -8.09854,1.44548 -8.12428,1.45404 -18.63617,6.19513 l -10.52642,4.74766 -5.56227,5.36269 c -6.37195,6.14331 -11.47743,12.66357 -11.96701,15.28314 -0.29081,1.55606 -0.43065,1.69855 -1.2412,1.26476 -0.6435,-0.3444 -1.40591,-0.32636 -2.57973,0.061 -1.61235,0.53212 -1.65443,0.60536 -1.30042,2.26334 0.20121,0.94239 0.32762,2.24264 0.2809,2.88946 -0.0467,0.64682 -0.21294,6.48042 -0.36938,12.96357 l -0.28444,11.78754 1.96817,6.32336 c 1.95665,6.28636 1.97883,6.44036 3.78902,26.31591 1.00148,10.99591 1.93011,20.87879 2.06365,21.96197 l 0.24279,1.96941 -2.69179,-0.92608 c -1.48048,-0.50935 -3.89318,-1.64175 -5.36156,-2.51645 -4.05362,-2.41469 -13.91137,-9.92189 -17.08856,-13.01386 -1.81975,-1.77093 -3.37439,-2.85792 -4.3732,-3.05768 l -1.54974,-0.30995 0.13949,3.46408 0.13949,3.46407 7.64392,5.9094 c 9.983,7.71771 15.56604,10.643 21.13529,11.07407 l 3.84733,0.29778 0.25619,1.71806 c 0.14091,0.94493 0.39907,2.77649 0.5737,4.07012 0.17462,1.29364 1.64653,5.45679 3.27092,9.25145 5.39894,12.61225 11.61902,20.6054 25.60237,32.90053 4.57499,4.02265 16.3318,12.89006 20.1592,15.2048 l 2.98912,1.80776 -2.81941,2.81941 -2.8194,2.81941 -2.83904,-0.95876 c -3.0504,-1.03013 -3.38056,-0.9708 -3.38056,0.60748 0,0.56359 -0.37749,1.36634 -0.83886,1.78388 -0.78286,0.70847 -1.05765,0.58521 -4.11611,-1.8464 z M 1213.1951,639.57678 c 0,-1.02689 -0.2583,-1.9339 -0.588,-2.06485 -0.3234,-0.12845 -5.4742,-2.14292 -11.4462,-4.47661 l -10.8581,-4.24307 -12.5173,-1.9243 -12.5173,-1.9243 -26.4883,0.003 c -27.6092,0.003 -30.0165,0.1552 -30.0165,1.90113 0,0.82867 -0.3416,0.91872 -3.485,0.91872 -3.4379,0 -3.5204,0.0289 -6.1153,2.1427 l -2.6304,2.1427 v 2.94985 c 0,2.52087 0.1673,3.10702 1.1506,4.03076 1.124,1.05602 1.3002,1.07344 7.6442,0.75642 7.5809,-0.37883 8.14,-0.49595 8.14,-1.70505 0,-0.83237 0.3637,-0.90912 4.3082,-0.90912 2.3695,0 8.8788,-0.44609 14.4652,-0.99131 9.0505,-0.88331 12.0788,-0.96197 27.7975,-0.72198 20.4051,0.31153 23.6015,0.58939 33.7079,2.93019 4.0993,0.94946 9.9935,1.98864 13.0982,2.3093 3.1047,0.32065 5.8037,0.61102 5.9978,0.64526 0.194,0.0342 0.3528,-0.76184 0.3528,-1.76907 z m -185.9092,-3.68532 -0.1391,-3.16458 -6.5674,-5.0489 -6.5674,-5.04891 -6.0421,-1.46129 c -3.3232,-0.8037 -7.4593,-2.09757 -9.19145,-2.87525 -3.33427,-1.49698 -7.58762,-2.4877 -18.89788,-4.40184 -6.21785,-1.0523 -8.30564,-1.17879 -19.59645,-1.18726 -16.85773,-0.0126 -30.17709,1.25755 -35.45219,3.38085 -5.45553,2.19593 -17.82998,9.45464 -20.06871,11.77207 -1.64109,1.69878 -2.96618,4.43122 -2.9789,6.14275 -10e-4,0.19405 1.18189,0.35281 2.62963,0.35281 1.94228,0 3.00587,-0.26603 4.05758,-1.01492 0.78393,-0.55821 6.32044,-2.58151 12.30336,-4.49623 9.80868,-3.13909 11.52543,-3.54662 17.46381,-4.14565 8.53267,-0.86072 25.56871,-0.86187 33.39932,-0.002 5.9557,0.65379 14.2268,2.30152 23.28914,4.63956 2.45587,0.63361 5.84114,1.30691 7.52294,1.49623 1.9567,0.22028 4.1586,0.89344 6.1153,1.86951 1.6818,0.83891 4.7512,1.88638 6.821,2.32771 5.3163,1.13354 5.4098,1.17107 5.4098,2.17127 0,0.55297 0.4082,0.98727 1.0584,1.12601 0.5821,0.12422 1.4818,0.31539 1.9993,0.42481 0.5174,0.10943 1.5326,0.22351 2.2559,0.25352 l 1.3151,0.0546 z"
     id="path216" />
  <path
     style="fill:#e5b7a2;fill-opacity:1;stroke-width:0.470413"
     d="m 925.64492,731.58183 c -1.95442,-0.74176 -4.43973,-2.48022 -8.8707,-6.20501 -5.69542,-4.78771 -6.47035,-5.64261 -10.36613,-11.43585 l -4.21054,-6.2613 -1.43182,-8.08629 c -1.62576,-9.1816 -1.52569,-12.19274 0.41438,-12.46855 0.75114,-0.10679 1.18017,-0.63574 1.52622,-1.88165 0.6589,-2.37236 0.68804,-2.29929 -1.16005,-2.90921 -1.03587,-0.34187 -1.74191,-0.92296 -1.90346,-1.5666 -0.219,-0.87258 2.40118,-9.14906 3.4514,-10.90208 0.24936,-0.41623 2.2994,-0.18426 8.09573,0.91609 l 7.76182,1.47345 7.2914,3.93198 c 6.98585,3.7672 11.76032,5.66008 11.76032,4.66248 0,-0.25232 -0.21913,-0.86821 -0.48696,-1.36866 -0.59241,-1.10693 -0.45377,-1.11896 1.60128,-0.13897 0.88916,0.42401 1.84893,1.28071 2.13282,1.90379 0.68749,1.50886 0.67219,1.559 -0.47566,1.559 -0.84482,0 -0.94508,0.19172 -0.67647,1.29363 0.54513,2.23622 6.60957,13.06154 7.24193,12.9272 0.4252,-0.0903 0.55502,0.4463 0.45163,1.86681 -0.14172,1.9471 -0.2352,2.04878 -4.00884,4.36049 l -3.86374,2.3669 -0.0172,9.05545 c -0.0168,8.8407 -0.0403,9.05545 -0.99169,9.05545 -1.25377,0 -8.90415,6.49499 -8.90415,7.55941 0,0.62226 -1.05518,1.53145 -1.56731,1.35047 -0.0435,-0.0154 -1.30093,-0.49167 -2.79424,-1.05843 z"
     id="path217" />
  <path
     style="fill:#e5b7a2;fill-opacity:1;stroke-width:0.470413"
     d="m 942.42974,717.31076 c 0.1717,-2.03184 0.43826,-5.12931 0.59237,-6.88326 l 0.28019,-3.189 3.11316,-1.82944 c 2.77831,-1.63268 3.12895,-1.7352 3.26006,-0.95313 0.0958,0.57138 0.39944,0.77942 0.87262,0.59784 0.62886,-0.24132 0.70342,0.30347 0.5587,4.0827 l -0.16699,4.36118 -3.5281,3.25081 c -5.41388,4.98838 -5.35546,4.98179 -4.98201,0.5623 z"
     id="path218" />
  <path
     style="fill:#e5b7a2;fill-opacity:1;stroke-width:0.470413"
     d="m 953.37471,704.88308 c -0.91519,-1.06919 -1.55137,-2.23744 -1.41374,-2.5961 0.13763,-0.35866 -0.2858,-1.28916 -0.94095,-2.06777 -0.65516,-0.7786 -1.32593,-1.84016 -1.4906,-2.35901 -0.16468,-0.51885 -0.70852,-0.94336 -1.20854,-0.94336 -1.04629,0 -1.07307,-0.1402 -0.44508,-2.32986 0.35744,-1.24634 0.30341,-1.86318 -0.23521,-2.68522 -0.9369,-1.42989 -0.89415,-1.5707 0.47678,-1.5707 1.3393,0 1.33515,0.009 0.71726,-1.61583 -0.25232,-0.66366 -0.38336,-1.20665 -0.29121,-1.20665 0.0922,0 1.62164,0.55477 3.39885,1.23282 1.77721,0.67805 7.21962,2.14378 12.09423,3.25718 4.87462,1.1134 8.94333,2.10475 9.04158,2.203 0.29608,0.29608 -4.13647,5.4354 -6.01513,6.97424 -0.96392,0.78957 -2.19051,1.51992 -2.72576,1.623 -0.53524,0.10307 -1.75759,0.80606 -2.71633,1.56219 -0.95874,0.75613 -2.48406,1.52318 -3.38961,1.70455 -0.90554,0.18138 -1.99432,0.42692 -2.4195,0.54564 -0.48844,0.13639 -1.38571,-0.49987 -2.43704,-1.72812 z"
     id="path219" />
  <path
     style="fill:#e5b7a2;fill-opacity:1;stroke-width:0.470413"
     d="m 937.65068,736.7845 c -4.02301,-1.48472 -5.29214,-2.15347 -5.29214,-2.7886 0,-0.489 2.46573,-2.93716 5.94572,-5.90332 6.00596,-5.11917 13.98731,-11.4184 14.46753,-11.4184 0.14336,0 1.51619,1.86726 3.05074,4.14946 l 2.79008,4.14945 -1.88532,3.39929 c -1.56097,2.81446 -1.83291,3.67874 -1.58061,5.0236 0.1676,0.89337 0.49893,1.62431 0.73629,1.62431 0.23737,0 1.29409,-1.27012 2.34828,-2.82248 1.20457,-1.77381 2.24621,-2.82248 2.80355,-2.82248 0.60568,0 1.65003,1.24449 3.29404,3.92532 1.97832,3.22598 2.69718,4.01431 4.03496,4.42489 1.29601,0.39776 1.62778,0.37098 1.62778,-0.13139 0,-1.37402 -1.0667,-3.23823 -4.69796,-8.21036 -3.59908,-4.92807 -10.35526,-15.20225 -10.35526,-15.74734 0,-0.14033 0.26461,-0.25727 0.58802,-0.25987 0.32341,-0.003 2.21643,-1.37854 4.20672,-3.05768 1.9903,-1.67914 3.68856,-3.05298 3.77392,-3.05298 0.0854,0 1.40622,-1.16427 2.93524,-2.58727 2.49323,-2.32034 2.99293,-2.58727 4.84348,-2.58727 1.13489,0 4.11281,0.51073 6.61761,1.13496 2.50479,0.62422 6.14181,1.27447 8.08227,1.44498 1.94045,0.17052 3.89855,0.41495 4.35132,0.54319 0.64731,0.18334 0.82322,-0.0561 0.82322,-1.12044 v -1.35359 l -8.34983,-1.80926 c -4.59241,-0.99509 -8.49392,-1.88546 -8.67002,-1.97859 -0.17611,-0.0931 0.20825,-0.97648 0.85413,-1.96298 1.02318,-1.56277 1.82662,-2.04616 6.24243,-3.75569 2.78746,-1.07915 5.24485,-1.96208 5.46084,-1.96208 0.216,0 -0.10366,0.52838 -0.71035,1.17418 -0.60669,0.6458 -0.97116,1.30609 -0.80994,1.46733 0.16124,0.16123 2.97484,0.0543 6.25247,-0.23763 5.03164,-0.44815 6.80164,-0.83825 11.37031,-2.50604 4.7121,-1.72014 5.5511,-2.19047 6.4954,-3.64143 0.5965,-0.91638 1.2294,-2.67166 1.4066,-3.90062 0.2071,-1.43635 0.5551,-2.23446 0.9743,-2.23446 0.4034,0 0.6522,-0.51124 0.6522,-1.3398 0,-1.12174 -0.3248,-1.4854 -1.9962,-2.23446 -1.0979,-0.49206 -4.0086,-2.69399 -6.4683,-4.89317 -3.4844,-3.11531 -6.58654,-5.22897 -14.04442,-9.56913 l -9.57223,-5.57062 -9.83489,-2.07359 c -5.66662,-1.19476 -11.27917,-2.10347 -13.24261,-2.14408 -1.87425,-0.0388 -2.82559,-0.15867 -2.11409,-0.26645 2.26478,-0.34309 1.57238,-1.53533 -0.94082,-1.62 -1.76699,-0.0595 -1.90868,-0.11542 -0.67728,-0.26713 1.10741,-0.13643 1.51504,-0.40578 1.41124,-0.93252 -0.10267,-0.52104 -1.80111,-1.16152 -5.7275,-2.15984 -4.75307,-1.20851 -5.80541,-1.33821 -7.0896,-0.87384 -3.4771,1.25733 -7.91458,0.11403 -5.19874,-1.33945 1.28699,-0.68877 1.46184,-1.17239 0.61344,-1.69673 -1.02831,-0.63553 1.13574,-1.05555 5.61373,-1.08958 4.23214,-0.0322 4.35132,-0.063 4.35132,-1.12778 0,-0.97358 0.33135,-1.15578 2.99432,-1.64645 1.69901,-0.31305 7.40901,-0.55172 13.19957,-0.55172 9.17688,0 10.72911,0.11825 15.40383,1.17351 5.13789,1.1598 16.80356,4.58706 17.99361,5.28634 3.13082,1.83965 13.41552,10.5079 16.19422,13.64892 3.0686,3.46882 3.9187,4.89315 7.5881,12.7146 2.2728,4.8445 4.3692,9.80158 4.6588,11.01574 0.2896,1.21416 0.5265,4.74174 0.5265,7.83906 0,5.30699 -0.095,5.88162 -1.6563,9.97176 -2.147,5.62618 -6.8274,13.30476 -11.1162,18.23713 -6.7379,7.74901 -19.27205,14.64371 -32.26565,17.74846 -4.65111,1.11136 -5.39194,1.15041 -21.40379,1.12821 l -16.58593,-0.023 z"
     id="path220" />
  <path
     style="fill:#e5b7a2;fill-opacity:1;stroke-width:0.470413"
     d="m 969.99158,737.34899 c 0,-1.32154 -1.12174,-3.41689 -3.76498,-7.03283 -2.69876,-3.69188 -9.51107,-13.89439 -10.35026,-15.50114 -0.43989,-0.84224 -0.45763,-1.20183 -0.0657,-1.33246 0.47981,-0.15994 7.34709,-5.66932 11.91396,-9.55816 2.13803,-1.82061 3.22526,-1.84511 11.48859,-0.25891 3.33677,0.64051 7.38989,1.31005 9.00694,1.48786 l 2.94008,0.3233 v -1.42573 c 0,-1.6646 0.54839,-1.44365 -8.40732,-3.38745 -9.41785,-2.0441 -8.9684,-1.80055 -7.14823,-3.87361 1.07429,-1.22355 2.59265,-2.13081 5.35236,-3.19818 2.11894,-0.81954 4.14185,-1.60302 4.49535,-1.74106 0.51442,-0.20087 0.5379,-0.0551 0.11761,0.73025 -0.78677,1.47009 -0.72861,1.51349 2.02809,1.51349 6.21499,0 15.99763,-2.31387 19.93633,-4.7155 1.5881,-0.96836 3.3536,-4.07182 3.3728,-5.9288 0.01,-0.55045 0.3278,-1.26435 0.7159,-1.58644 0.3881,-0.32208 0.7056,-1.17463 0.7056,-1.89455 0,-1.05524 -0.413,-1.55101 -2.1311,-2.55785 -1.1721,-0.6869 -3.6594,-2.53131 -5.5273,-4.0987 -4.90805,-4.11838 -8.07726,-6.25388 -16.80298,-11.32238 l -7.76181,-4.50859 -8.23223,-1.65657 c -4.52773,-0.91111 -9.29066,-1.78934 -10.58429,-1.95162 -3.96762,-0.4977 -4.9592,-0.76263 -4.66091,-1.24528 0.15765,-0.25509 -0.15803,-0.58008 -0.70151,-0.72221 -0.54349,-0.14212 -0.98816,-0.63141 -0.98816,-1.0873 0,-1.74666 -8.76127,-3.94863 -13.86925,-3.48575 -1.91106,0.17317 -3.84255,0.17369 -4.2922,10e-4 -0.73535,-0.28218 -0.71072,-0.38855 0.24499,-1.05795 0.68034,-0.47653 0.97922,-1.06287 0.8309,-1.63004 -0.20007,-0.76508 0.0415,-0.8858 1.77217,-0.8858 1.1021,0 3.26602,-0.13193 4.80871,-0.29317 2.24386,-0.23453 2.89278,-0.49246 3.24429,-1.28953 0.64496,-1.46248 2.73834,-1.69496 15.72782,-1.74668 l 11.52512,-0.0459 6.35058,1.62648 c 13.98485,3.58175 15.2263,4.09589 20.95066,8.67663 2.8364,2.26977 6.9972,5.94574 9.2462,8.16883 3.9871,3.94106 4.1944,4.25817 8.3015,12.70115 5.5616,11.43306 5.7793,12.17381 5.8237,19.81838 0.033,5.6021 -0.086,6.56305 -1.1504,9.32042 -2.7788,7.19896 -8.2476,15.83506 -13.083,20.66052 -9.0142,8.9955 -26.83409,16.95326 -37.96808,16.95525 -3.12463,5.6e-4 -3.41049,-0.0802 -3.41049,-0.96358 z"
     id="path221" />
  <path
     style="fill:#e5b7a2;fill-opacity:1;stroke-width:0.470413"
     d="m 1097.9887,731.35129 c -7.2049,-7.61438 -7.7309,-8.40832 -11.1278,-16.79397 l -3.2394,-7.99702 -0.167,-8.82714 -0.1669,-8.82715 2.4318,-7.29625 2.4318,-7.29625 4.5435,-5.55652 c 4.397,-5.37724 4.7257,-5.66322 10.1885,-8.86317 7.8387,-4.59164 10.4194,-5.52846 21.1354,-7.6723 l 9.375,-1.87557 h 16.341 16.341 l 5.2457,1.87913 c 5.9363,2.12651 12.4733,6.21776 11.9953,7.50735 -0.1483,0.40007 -0.8354,2.11854 -1.527,3.81881 l -1.2573,3.09141 -3.1907,-0.93078 c -2.7681,-0.80748 -3.1908,-1.07682 -3.1908,-2.03299 v -1.10219 h -12.2652 c -11.4271,0 -12.2546,0.0563 -12.1091,0.82322 0.118,0.62195 0.7878,0.89074 2.7394,1.09936 l 2.5832,0.27613 -3.0577,0.0754 c -1.6817,0.0414 -8.4557,1.15432 -15.0532,2.47305 -11.8299,2.36457 -12.0637,2.43415 -16.9349,5.03991 -2.7166,1.45324 -6.6123,3.76184 -8.657,5.13024 -2.0448,1.3684 -4.0558,2.48905 -4.4689,2.49034 -1.3173,0.004 -3.2607,2.05295 -3.7654,3.96972 -0.2687,1.02036 -0.3858,1.95787 -0.2603,2.08336 0.1255,0.12549 1.3556,-0.12721 2.7335,-0.56156 3.1846,-1.00385 3.1282,-1.01115 3.1282,0.40504 0,0.65713 0.4488,2.0744 0.9972,3.1495 0.8264,1.61987 0.9876,2.72469 0.9408,6.44944 -0.052,4.11708 0.1944,5.44325 2.9304,15.78462 2.8861,10.90875 2.954,11.29546 2.0114,11.45406 -1.7501,0.2945 -4.9981,2.96443 -4.9981,4.10858 0,0.86114 -0.9146,1.53958 -4.9654,3.68356 -2.7309,1.4454 -5.1981,2.62801 -5.4826,2.62801 -0.2845,0 -1.2783,-0.8043 -2.2084,-1.78735 z"
     id="path222" />
  <path
     style="fill:#e5b7a2;fill-opacity:1;stroke-width:0.470413"
     d="m 1118.6853,717.73761 c -0.2564,-0.97297 -1.5443,-6.10861 -2.8619,-11.41251 -1.3177,-5.30391 -2.4995,-9.99064 -2.6263,-10.41495 -0.2102,-0.70353 0.05,-0.71739 2.96,-0.15737 1.7548,0.33776 5.0639,1.47875 7.3536,2.53553 2.2896,1.05678 4.3588,1.92142 4.5982,1.92142 0.2395,0 0.5598,-0.62196 0.7118,-1.38214 0.2435,-1.21737 0.3823,-1.31604 1.1643,-0.82767 0.4883,0.30496 0.8878,0.92289 0.8878,1.37318 0,0.46265 0.4603,0.92551 1.0584,1.0643 1.8057,0.41898 7.927,1.65398 8.1981,1.65398 0.1414,0 -1.9728,1.74641 -4.6983,3.88091 -2.7254,2.1345 -7.5033,6.05294 -10.6175,8.70764 l -5.6621,4.82674 z"
     id="path223" />
  <path
     style="fill:#e5b7a2;fill-opacity:1;stroke-width:0.470413"
     d="m 1124.2258,748.7581 c -7.1066,-2.70225 -9.1462,-3.72052 -14.2533,-7.11582 -4.95,-3.29079 -5.9361,-4.1383 -5.819,-5.00086 0.093,-0.68433 2.5217,-2.98313 7.1207,-6.7396 l 6.9796,-5.70103 h 13.8361 13.8361 v 5.40975 c 0,5.40053 0,5.40975 1.1319,5.40975 1.0139,0 1.1631,-0.25748 1.4309,-2.46967 0.1644,-1.35832 0.4138,-3.25923 0.5543,-4.22425 l 0.2553,-1.75458 2.6651,1.79554 c 2.4069,1.62151 6.5483,3.16184 7.0777,2.63242 0.4131,-0.41308 -0.8721,-2.54865 -1.889,-3.13888 -0.9192,-0.53358 -16.4358,-10.66237 -16.7672,-10.94519 -0.072,-0.0616 0.3296,-2.88188 0.8928,-6.26727 0.9464,-5.68859 1.1347,-6.2552 2.4833,-7.47374 l 1.4593,-1.3185 6.9834,0.14228 6.9834,0.14227 -0.289,1.15136 c -0.2882,1.14844 -0.2795,1.15137 3.4104,1.15137 4.2924,0 5.0217,-0.48324 5.5304,-3.66438 0.2452,-1.53363 0.5622,-2.05446 1.3746,-2.25835 0.5807,-0.14576 1.2667,-0.72502 1.5245,-1.28726 0.3645,-0.79507 2.0241,-1.53039 7.468,-3.30889 3.8497,-1.25766 9.3592,-3.3216 12.2433,-4.58653 4.5401,-1.99119 5.6608,-2.29987 8.3498,-2.29987 h 3.106 v 6.60475 c 0,6.25451 -0.111,7.04683 -2.0935,14.94115 -1.2465,4.96359 -2.895,10.14206 -4.0745,12.79939 -3.8566,8.6886 -11.2724,16.62651 -20.9888,22.46674 -4.2172,2.5348 -5.9117,3.21471 -13.7044,5.4987 l -8.8922,2.60626 -9.8162,-0.0218 -9.8163,-0.0218 z"
     id="path224" />
  <path
     style="fill:#e5b7a2;fill-opacity:1;stroke-width:0.470413"
     d="m 1125.5807,723.37864 c 5.1527,-0.11108 6.7034,-0.28761 6.7034,-0.76313 0,-0.67342 -2.3482,-1.98453 -4.2478,-2.37178 -1.0764,-0.21942 -1.1728,-0.42404 -1.009,-2.14128 l 0.181,-1.89868 3.8315,9.9e-4 3.8315,9.9e-4 4.1633,2.77218 4.1632,2.77217 -1.8111,0.26504 c -0.9962,0.14577 -3.1343,0.40043 -4.7513,0.56591 -1.6171,0.16549 -2.9401,0.49178 -2.9401,0.7251 0,0.23846 -3.2445,0.37885 -7.409,0.32061 l -7.409,-0.10361 z"
     id="path225" />
  <path
     style="fill:#cc9786;fill-opacity:1;stroke-width:0.470413"
     d="m 1188.2632,670.23696 c -1.9405,-0.66181 -3.6026,-1.26644 -3.6936,-1.34362 -0.2362,-0.20022 1.3792,-5.03075 1.9049,-5.69628 0.3322,-0.4205 0.9098,-0.35571 2.3744,0.2663 1.7791,0.75558 2.0235,1.08332 3.0269,4.05779 0.6003,1.7797 1.0915,3.40627 1.0915,3.6146 0,0.57681 -0.8586,0.41275 -4.7041,-0.89879 z"
     id="path226" />
  <path
     style="fill:#cc9786;fill-opacity:1"
     d="m 902.43119,633.997 4.49054,0.33263 c 9.23661,-6.36118 17.1726,-6.86956 25.61268,-9.64634 14.37173,-0.96157 28.76795,-1.75177 43.57482,0.33264 37.18427,3.33027 38.27007,10.02002 50.72637,14.13687 8.524,20.85962 4.3848,29.54314 1.8295,39.74955 -4.1958,-20.21586 -17.5478,-33.10682 -37.25479,-40.91377 -15.54826,-4.99433 -26.10997,-4.09546 -36.92218,-3.49264 -16.40624,0.44713 -27.68889,6.01784 -38.41902,12.14108 -9.28541,5.94609 -14.88071,13.73723 -17.96214,22.78531 l -1.99579,-1.33053 -3.16001,1.16421 -18.12845,-2.99369 z"
     id="path227"
     sodipodi:nodetypes="cccccccccccccc" />
  <path
     style="fill:#cc9786;fill-opacity:1"
     d="m 947.17022,640.98227 c 10.12074,-1.73766 19.92508,-1.57689 29.60427,-0.66526 23.28401,2.93829 24.19121,9.40976 31.93271,14.80213 8.6426,7.66221 12.4049,16.65541 16.299,25.61268 l -13.139,-0.83158 c -7.2477,-5.85697 -13.18201,-12.08918 -23.28427,-17.13056 -7.69981,-5.02909 -17.30686,-7.60602 -28.10742,-8.64843 -2.52251,-0.30487 -6.18084,0.20154 -5.82106,-2.16211 2.07749,-2.07749 -10.21317,-5.58686 -12.64002,-4.65685 -1.39773,0.53564 -5.32212,1.33052 -5.32212,1.33052 l -2.16211,-2.16211 3.16001,-1.16421 -1.49685,-1.66316 10.97686,-0.83158 z"
     id="path228"
     sodipodi:nodetypes="ccccccccscccccc" />
  <path
     style="fill:#cc9786;fill-opacity:1"
     d="m 946.17233,690.37816 8.64844,16.29897 -5.48844,-17.13055 z"
     id="path229" />
  <path
     style="fill:#cc9786;fill-opacity:1"
     d="m 962.47131,725.63717 6.98527,-23.7832 -14.30318,11.64213 z"
     id="path230" />
  <path
     style="fill:#cc9786;fill-opacity:1"
     d="m 949.49865,704.01608 -6.48633,16.79792 7.98317,-6.32001 z"
     id="path231" />
  <path
     style="fill:#cc9786;fill-opacity:1"
     d="m 960.47551,729.46244 -4.49053,4.65685 7.98317,-1.49684 z"
     id="path232" />
  <path
     style="fill:#cc9786;fill-opacity:1"
     d="m 990.74504,703.01818 28.44006,8.31581 -28.10742,-6.48633 z"
     id="path233" />
  <path
     style="fill:#cc9786;fill-opacity:1"
     d="m 1097.7087,639.29125 c -17.6433,22.50086 -11.0694,23.57888 -14.1124,33.16411 7.4678,-9.32874 11.6891,-19.21401 40.2203,-24.93189 32.2887,-4.62655 34.3098,0.20551 48.6878,1.17604 14.0599,4.32635 23.7289,11.35476 29.636,20.69817 l -0.2352,5.64495 21.1686,10.11388 12.9363,-2.35206 6.1154,-14.81801 c -5.3329,-12.27662 -13.9732,-22.12788 -28.6952,-27.51916 -15.7609,-2.28079 -32.1793,-6.86308 -46.8061,-5.17454 -18.2158,-2.22707 -32.1699,0.65987 -47.5117,1.88165 -5.9846,0.70562 -13.5603,1.41124 -21.4038,2.11686 z"
     id="path234"
     sodipodi:nodetypes="ccccccccccccc" />
  <path
     style="fill:#cc9786;fill-opacity:1"
     d="m 1181.4422,665.86958 2.5873,-6.35057 c -8.2386,-9.0141 -22.0394,-11.2741 -39.0443,-9.64347 -14.2023,1.48215 -28.2474,0.92096 -43.0428,10.11388 -6.6788,3.12147 -10.7716,8.82892 -14.3476,15.05321 l 15.7589,10.34909 21.1685,-15.28842 25.4023,-5.17454 0.4705,-2.58728 23.2854,0.23521 0.7056,2.35207 z"
     id="path235"
     sodipodi:nodetypes="cccccccccccc" />
  <path
     style="fill:#cc9786;fill-opacity:1"
     d="m 1207.0797,693.38874 19.7574,10.58429 5.6449,-12.23073 z"
     id="path236" />
  <path
     style="fill:#cc9786;fill-opacity:1"
     d="m 1118.8773,719.73187 4.2337,-12.23074 18.1109,-5.64496 z"
     id="path237" />
  <path
     style="fill:#cc9786;fill-opacity:1"
     d="m 1149.2189,730.31616 3.2929,-1.64645 -3.2929,-3.05768 z"
     id="path238" />
  <path
     style="fill:#cc9786;fill-opacity:1"
     d="m 1036.3198,745.36938 c 12.5545,3.92097 23.1357,2.58004 33.8697,1.64644 -4.9973,3.92609 -8.5153,11.34764 -15.7588,12.46595 -7.5323,1.32741 -12.2622,-9.26675 -18.1109,-14.11239 z"
     id="path239"
     sodipodi:nodetypes="cccc" />
  <path
     style="fill:#cc9786;fill-opacity:1"
     d="m 1021.5018,786.0601 c 6.5731,-3.12334 12.3404,-5.44096 16.6997,-6.35058 4.5294,0.11425 8.3449,1.6563 11.9955,3.5281 l 19.5221,8.93785 6.5858,1.88165 c -7.4237,2.19352 -14.0979,5.19011 -24.4615,4.23372 -10.6402,-1.97176 -20.2978,-7.87348 -30.3416,-12.23074 z"
     id="path240"
     sodipodi:nodetypes="ccccccc" />
  <path
     style="fill:#cc9786;fill-opacity:1"
     d="m 1083.6326,790.16782 v 3.16001 l -3.16,2.5779 3.4926,-0.74843 z"
     id="path241" />
  <path
     style="fill:#cc9786;fill-opacity:1;stroke-width:1.08506"
     d="m 1033.5011,626.01383 1.2154,12.86178 -3.8892,6.43089 6.32,-2.14363 z"
     id="path242" />
  <path
     style="fill:#cc9786;fill-opacity:1;stroke-width:1.35038"
     d="m 1085.3789,626.01383 -1.9958,15.16411 5.9874,5.45908 -3.659,-7.88534 z"
     id="path243" />
  <path
     style="fill:#cc9786;fill-opacity:1"
     d="m 893.45012,669.92128 c -4.37053,-5.65755 -12.10425,-3.46767 -18.96003,-3.32633 l -4.32422,68.18961 c 11.05809,11.72986 21.76081,19.19527 31.93269,20.29056 -2.66897,-7.48822 -3.73179,-25.41643 -4.65685,-44.24008 -1.01984,-2.19446 -2.75855,-7.26438 -4.65685,-12.97266 0.13043,-9.9307 -0.71169,-18.85844 0.66526,-27.9411 z"
     id="path244"
     sodipodi:nodetypes="ccccccc" />
  <path
     style="fill:#cc9786;fill-opacity:1"
     d="m 1232.4023,704.84766 33.5959,-16.96425 -2.9937,-5.32211 -23.6169,8.64844 z"
     id="path245" />
  <path
     style="fill:#cc9786;fill-opacity:1"
     d="m 1232.735,704.18239 c 8.8657,-3.71104 17.9228,-9.91088 25.9453,-2.66105 2.1912,16.38356 -0.8801,27.50458 -6.6527,35.92427 -12.9157,29.26635 -33.625,28.91703 -50.5601,42.90956 z"
     id="path246"
     sodipodi:nodetypes="ccccc" />
  <path
     style="fill:#cc9786;fill-opacity:1"
     d="m 968.95763,833.24369 c 31.86767,18.52477 58.46317,32.41788 74.17697,38.25271 10.3567,-0.71726 18.9068,-0.8323 26.6106,-0.66527 18.5233,-5.68384 34.282,-14.59295 50.2275,-23.28425 l -1.6632,41.24639 c -10.362,21.5413 -31.4839,36.41056 -51.558,36.58954 l -84.15595,0.9979 c 0.14674,-12.92319 -0.17318,-25.76861 -2.66105,-38.2527 -2.21824,-19.01513 -7.18244,-36.65728 -10.97687,-54.88432 z"
     id="path247"
     sodipodi:nodetypes="ccccccccc" />
  <path
     d="m 1050.2367,468.38915 9,2 12,6 5,3 23,-2 h 7 l 7,9 3,-1 h 9 l 5,3 2,4 -1,3 h 2 v 5 l 17,10 18,10 6,4 h 12 l 3,4 -1,11 -7,3 -5,-1 1,4 -2,4 -4,3 -8,-1 -2,-1 4,6 14,19 6,8 10,13 9,12 12,16 12,16 12,16 8,11 v 2 l 13,-6 8,-1 9,28 -3,10 -4,12 -2,13 -6,18 -5,10 -8,25 -15,4 -21,6 -10,2 2,5 -2,4 h -2 l -2,4 -1,2 h -2 v 2 l -9,4 -6,2 h -4 l -1,4 -4,4 -7,6 -5,7 -11,7 -7,5 -10,4 h -2 l 2,10 4,34 2,10 3,21 37,4 56,4 27,4 26,6 15,5 11,2 17,7 12,9 8,9 8,16 4,10.99995 6,26 2,17 1,26 1,33 -1,29 -2,68 -2,37 -2,42 -2,86 -1,19 -3,25 -4,30 -3,34 -1,18 1,3 v 8 l -2,3 v 26 h 2 v 2 h -2 l 3,46 v 13 l -1,9 4,16 5,11 7,24 6,19 11,43 3,17 4,21 3,18 5,17 3,36 1,18 h -2 l -1,38 -3,29 -1,13 -2,18 -4,35 -4,23 -3,21 -7,45 -5,30 -6,36 -5,32 -5,26 -4,26 -4,20 -4,23 -4,18 -3,18 -5,23 -3,18 -5,25 -7,37 -3,20 -5,27 -3,21 -5,27 -2,17 -5,27 -4,27 -4,22 -4,26 -4,20 -3,19 -5,24 -6,36 -4,33 -3,24 -2,33 v 64 l 3,36 6,46 11,54 2,6 v 9 l 7,24 4,23 v 5 l -9,14 -20,7 -8,2 -7,1 -4,3 -18,2 h -50 l -8,-1 -17,-1 -3,-3 -9,-2 -7,-7 -5,-5 -6,-8 -5,-9 v -2 h -2 l -8,-17 -4,-13 -3,-9 -2,-20 v -17 l 7,-17 3,-8 5,-19 4,-14 5,-22 3,-12 4,-24 3,-27 3,-33 2,-18 3,-84 v -63 l -1,-68 v -71 l 1,-89 1,-16 4,-20 2,-13 7,-34 4,-29 5,-31 3,-44 1,-29 v -36 l -2,-54 -4,-91 v -138 l -3,-10 -3,-3 -8,-2 h -16 l -8,3 -5,5 -4,8 -6,23 -6,38 -7,43 -6,31 -3,18 -4,19 -3,19 -6,31 -7,34 -6,31 -10,43 -13,45 -6,26 -4,20 -3,15 -3,22 -2,19 -3,33 -4,41 -1,16 -5,23 -6,20 -8,24 -6,21 -6,17 -7,19 -6,16 -7,19 -10,29 -5,17 -10,31 -6,23 -5,26 -7,30 -5,19 -4,24 -3,13 -5,26 v 12 l 3,19 3,26 4,26 3,35 1,6 1,18 v 11 l -3,15 -3,9 -8,11 -11,11 -18,13 -21,12 -20,11 -16,7 -22,6 -29,4 -25,2 h -56 l -17,-2 -9,-4 -6,-4 -4,-5 -1,-2 v -22 l 9,-24 10,-19 12,-22 8,-14 10,-17 5,-9 12,-21 8,-15 10,-18 3,-7 5,-10 8,-16 7,-15 8,-23 8,-32 3,-17 5,-23 5,-26 7,-36 3,-11 4,-23 4,-22 4,-26 4,-27 3,-23 2,-20 2,-16 1,-17 4,-37 3,-28 2,-38 6,-62 2,-27 3,-27 2,-26 2,-23 1,-25 3,-37 5,-43 4,-44 3,-33 9,-61 9,-50 6,-37 5,-26 3,-21 2,-19 3,-18 2,-17 5,-24 2,-14 9,-40 4,-16 1,-2 v -12 l -6,-28 -4,-27 -5,-23 -2,-8 -5,-24 -5,-25 -5,-22 -6,-19 -7,-27 -5,-21 -3,-9 -3,-14 -7,-25 -4,-9 -4,-13 -6,-13 -14,-44 -4,-10 -5,-19 -2,-7 -9,-24 -6,-18 -6,-18 -4,-16 -5,-17 -5,-17 -4,-15 -5,-19 -3,-19 -2,-10 -2,-16 -1,-16 v -28 l 4,-16 6,-10 6,-7 8,-7 12,-11 15,-10 11,-7 12,-5 9,-5 13,-3.99995 8,-4 13,-4 12,-5 4,-2 12,-6 h 6 v 2 l 12,-5 10,-6 8,-4 -1,-4 h 2 l 1,-3 10,-6 13,-10 7,-7 3,-5 v -22 l -5,-24 -3,-19 -8,-15 -10,-15 -15,-12 v -2 h -2 l -5,-6 v -2 l -3,-1 -7,-9 -5,-5 -4,-5 v -2 l -5,2 h -13 l -4,-2 v -2 l -16,8 -18,9 -4,1 h -7 l -2,-5 -8,2 h -5 l -8,-8 -5,-6 -7,-6 h -6 l -3,-2 -3,-9 v -3 l -3,-1 -4,-6 1,-5 1,-1 v -15 h -3 l -2,-3 v -8 l 2,-8 -1,-2 v -16 l 2,-7 5,-1 2,-8 4,-8 1,-1 7,1 2,1 2,-5 h 2 v -2 h 5 l 1,3 4,-1 4,-6 3,-2 h 4 l 3,3 v 2 h 3 v 2 l 9,-7 3,-3 9,-4 11,3 4,1 7,-13 3,-7 6,-11 12,-17 9,-10 8,-11 12,-14 12,-13 7,-7 8,-7 10,-9 16,-16 11,-8 -2,-10 4,-2 2,-5 9,1 -1,-7 2,-1 -6,-5 -1,-5 3,-2 2,-6 1,-1 h 7 l 14,7 5,-1 5,2 -1,-7 2,-5 5,-2 2,-5 z m -54,53 z m -93,267 z m 294,3 4,1 z m -1,1 z m -302,193 z"
     fill="#e5b7a2"
     id="path1-9"
     style="fill:#ff0000;opacity:0.141" />
</svg>
