<?xml version="1.0" encoding="UTF-8" standalone="no"?>
<svg
   version="1.1"
   width="2500"
   height="3686"
   id="svg1"
   sodipodi:docname="hurt_default_girl_hair.svg"
   inkscape:version="1.4.2 (f4327f4, 2025-05-13)"
   xmlns:inkscape="http://www.inkscape.org/namespaces/inkscape"
   xmlns:sodipodi="http://sodipodi.sourceforge.net/DTD/sodipodi-0.dtd"
   xmlns="http://www.w3.org/2000/svg"
   xmlns:svg="http://www.w3.org/2000/svg">
  <defs
     id="defs1" />
  <sodipodi:namedview
     id="namedview1"
     pagecolor="#ffffff"
     bordercolor="#000000"
     borderopacity="0.25"
     inkscape:showpageshadow="2"
     inkscape:pageopacity="0.0"
     inkscape:pagecheckerboard="0"
     inkscape:deskcolor="#d1d1d1"
     inkscape:zoom="0.3328"
     inkscape:cx="1240.9856"
     inkscape:cy="1882.512"
     inkscape:window-width="1080"
     inkscape:window-height="1849"
     inkscape:window-x="-8"
     inkscape:window-y="-8"
     inkscape:window-maximized="1"
     inkscape:current-layer="svg1" />
  <path
     d="M0,0 L22,0 L44,3 L58,8 L68,14 L72,16 L72,18 L69,18 L80,26 L84,32 L93,24 L103,20 L111,19 L112,18 L123,18 L143,21 L167,29 L186,39 L198,48 L208,57 L222,72 L231,83 L242,98 L251,114 L261,135 L270,160 L277,186 L281,208 L284,238 L285,260 L290,281 L301,300 L313,317 L324,331 L336,345 L348,359 L360,373 L367,381 L380,398 L390,413 L396,422 L403,433 L414,453 L420,466 L423,473 L427,483 L427,487 L429,487 L432,500 L434,506 L437,524 L438,540 L437,556 L433,571 L425,585 L416,595 L405,603 L400,605 L391,609 L380,613 L370,615 L361,616 L336,616 L327,624 L321,623 L315,621 L317,617 L330,605 L335,600 L341,591 L345,583 L349,571 L351,558 L351,544 L346,522 L341,508 L341,505 L339,505 L338,499 L336,499 L331,489 L329,487 L329,484 L327,484 L322,476 L324,490 L327,506 L328,527 L328,548 L326,565 L320,589 L313,607 L311,607 L309,613 L304,623 L302,623 L300,629 L297,633 L295,633 L293,638 L289,640 L287,644 L282,649 L274,657 L271,658 L266,663 L250,671 L237,675 L216,675 L216,673 L207,672 L187,664 L187,662 L181,660 L169,651 L167,648 L162,649 L151,654 L148,654 L148,656 L131,660 L114,661 L98,659 L89,657 L80,654 L72,651 L47,651 L34,648 L18,640 L12,636 L0,625 L-5,618 L-5,615 L-7,615 L-10,595 L-11,594 L-11,579 L-8,579 L-5,586 L3,597 L12,604 L22,609 L29,610 L39,610 L50,609 L50,607 L60,603 L69,597 L76,592 L81,587 L87,582 L90,577 L92,573 L82,579 L72,582 L65,583 L48,583 L39,581 L29,577 L20,569 L20,567 L16,565 L9,552 L7,546 L11,547 L17,550 L22,553 L33,557 L49,559 L65,556 L74,550 L78,542 L80,534 L82,506 L82,494 L84,485 L100,477 L113,470 L127,461 L144,448 L155,438 L167,421 L180,418 L197,413 L214,405 L224,397 L226,397 L228,393 L241,375 L245,358 L247,335 L248,316 L246,310 L239,308 L227,313 L213,318 L213,315 L217,307 L205,302 L189,294 L173,285 L159,274 L147,262 L136,248 L122,231 L110,213 L98,192 L90,173 L83,149 L76,116 L70,100 L67,91 L52,90 L40,92 L39,112 L35,138 L30,157 L22,177 L12,194 L3,206 L-8,219 L-19,228 L-33,239 L-47,248 L-63,256 L-81,264 L-111,274 L-120,276 L-137,278 L-151,292 L-162,307 L-163,309 L-165,309 L-167,315 L-175,331 L-185,359 L-188,369 L-187,374 L-177,380 L-164,387 L-155,390 L-151,402 L-140,423 L-133,430 L-125,440 L-120,446 L-108,454 L-94,464 L-90,467 L-88,474 L-85,491 L-77,530 L-74,539 L-69,563 L-68,564 L-68,575 L-71,585 L-79,592 L-83,599 L-88,604 L-96,611 L-100,614 L-102,614 L-99,623 L-97,623 L-91,632 L-84,641 L-76,648 L-69,655 L-52,667 L-48,670 L-48,672 L-43,674 L-39,677 L-39,679 L-44,678 L-59,671 L-63,667 L-68,666 L-76,668 L-82,667 L-92,665 L-104,661 L-118,654 L-133,645 L-139,641 L-146,636 L-148,637 L-145,642 L-140,647 L-133,654 L-123,661 L-108,668 L-99,671 L-99,673 L-92,675 L-92,677 L-101,678 L-109,677 L-109,675 L-115,674 L-124,670 L-136,667 L-151,661 L-158,656 L-163,653 L-168,648 L-172,647 L-180,652 L-192,656 L-197,658 L-213,660 L-225,660 L-236,658 L-241,656 L-249,650 L-255,645 L-258,642 L-263,641 L-268,639 L-281,637 L-290,633 L-292,631 L-298,631 L-317,623 L-330,612 L-338,605 L-347,593 L-356,577 L-360,568 L-363,552 L-363,525 L-359,508 L-351,490 L-341,473 L-340,470 L-352,484 L-361,494 L-373,510 L-381,526 L-386,541 L-388,550 L-388,576 L-384,592 L-379,602 L-365,617 L-354,624 L-346,628 L-341,630 L-341,633 L-347,635 L-355,634 L-367,628 L-377,620 L-394,611 L-406,600 L-408,599 L-408,597 L-410,597 L-415,592 L-426,578 L-433,563 L-433,560 L-435,560 L-439,546 L-441,534 L-441,514 L-437,494 L-435,485 L-424,462 L-416,450 L-408,440 L-401,432 L-399,432 L-399,430 L-391,423 L-386,419 L-379,411 L-369,400 L-360,389 L-348,374 L-334,355 L-327,346 L-325,342 L-316,330 L-306,317 L-296,305 L-283,287 L-269,268 L-262,257 L-254,245 L-243,229 L-230,211 L-214,188 L-202,169 L-190,153 L-176,134 L-164,118 L-151,102 L-140,90 L-133,82 L-126,75 L-118,68 L-104,56 L-87,44 L-65,32 L-39,22 L-14,15 L6,11 L26,9 L44,10 L47,10 L33,8 L7,8 L-17,11 L-40,17 L-64,27 L-87,39 L-102,49 L-116,60 L-140,84 L-147,92 L-159,106 L-167,117 L-180,132 L-189,143 L-202,159 L-214,175 L-229,195 L-243,214 L-257,232 L-265,242 L-276,255 L-286,268 L-295,277 L-302,285 L-310,293 L-318,300 L-330,311 L-344,322 L-358,332 L-376,346 L-388,355 L-404,368 L-415,377 L-422,384 L-430,391 L-438,399 L-445,407 L-458,423 L-470,441 L-482,464 L-488,482 L-488,530 L-483,546 L-477,558 L-469,572 L-462,583 L-460,588 L-464,587 L-471,580 L-476,575 L-481,569 L-481,567 L-483,567 L-487,560 L-490,560 L-492,551 L-498,527 L-499,520 L-500,499 L-497,481 L-491,450 L-484,427 L-476,409 L-467,393 L-459,383 L-450,373 L-443,365 L-430,352 L-422,345 L-409,334 L-389,319 L-372,307 L-353,295 L-330,281 L-318,273 L-307,264 L-305,264 L-305,262 L-291,251 L-279,240 L-272,231 L-271,229 L-267,229 L-255,214 L-241,195 L-227,176 L-218,164 L-208,151 L-195,135 L-186,124 L-175,111 L-166,100 L-154,86 L-144,75 L-135,64 L-127,56 L-119,49 L-106,39 L-88,28 L-72,20 L-54,12 L-36,6 L-18,2 Z M54,12 Z M58,13 Z M61,14 Z M63,15 Z M65,16 Z M137,26 Z M139,27 L143,30 L158,39 L175,51 L185,59 L190,63 L191,65 L193,65 L195,69 L205,79 L218,96 L232,117 L246,144 L256,169 L272,216 L273,216 L272,202 L266,175 L258,149 L248,124 L240,108 L231,94 L220,80 L208,67 L195,54 L181,44 L160,33 L143,27 Z M33,95 L22,101 L16,111 L10,125 L1,146 L-11,167 L-24,185 L-35,198 L-58,221 L-63,226 L-72,234 L-91,248 L-106,257 L-123,266 L-120,267 L-87,256 L-64,246 L-45,236 L-32,226 L-23,219 L-13,211 L-6,203 L7,186 L17,168 L25,147 L30,126 L34,99 Z M75,100 Z M76,102 L79,111 L83,124 L90,154 L97,175 L105,193 L115,210 L121,219 L122,217 L115,193 L107,164 L102,151 L97,142 L95,139 L92,129 L80,106 Z M10,108 Z M9,109 L-4,119 L-16,131 L-30,156 L-45,180 L-49,185 L-49,187 L-51,187 L-59,198 L-72,214 L-79,222 L-92,234 L-105,244 L-103,245 L-88,235 L-75,225 L-61,213 L-55,206 L-47,199 L-38,190 L-29,179 L-15,160 L-3,139 L7,118 L10,109 Z M-66,193 Z M-67,194 Z M-68,195 Z M-69,196 Z M123,196 Z M-70,197 Z M-71,198 L-78,206 L-92,217 L-105,227 L-139,250 L-147,256 L-145,257 L-124,246 L-109,236 L-95,225 L-83,214 L-72,203 L-70,198 Z M124,198 L126,207 L134,228 L142,242 L149,251 L153,257 L162,266 L179,279 L196,289 L213,297 L220,299 L221,297 L203,289 L192,282 L178,271 L164,257 L158,250 L154,243 L144,230 L129,205 L125,198 Z M273,216 L274,219 Z M-107,245 L-108,247 L-105,246 Z M-110,247 Z M-111,248 Z M-113,249 Z M-114,250 Z M-116,251 Z M-149,257 Z M-150,258 Z M-125,267 Z M295,301 L297,311 L306,342 L318,379 L324,394 L326,394 L327,399 L335,417 L345,436 L356,457 L361,466 L364,473 L370,486 L373,493 L374,498 L376,498 L377,505 L380,521 L381,522 L382,541 L379,558 L375,571 L370,581 L367,586 L367,588 L365,588 L360,596 L351,606 L345,611 L347,612 L365,607 L375,605 L388,601 L396,597 L406,591 L413,586 L420,578 L427,566 L428,561 L430,555 L431,544 L430,520 L427,505 L423,492 L419,480 L417,480 L415,471 L414,468 L412,468 L409,459 L401,444 L394,431 L392,431 L390,426 L382,413 L380,413 L378,408 L368,394 L358,381 L347,369 L338,358 L327,345 L314,328 L302,311 L296,301 Z M-334,461 Z M-335,462 Z M-336,464 Z M-337,465 L-337,468 Z M93,571 Z M343,611 Z M-293,620 Z M-285,620 L-291,621 L-286,626 L-281,629 L-281,626 L-284,620 Z M254,622 Z M251,623 L236,629 L232,630 L232,632 L222,634 L196,639 L198,641 L218,640 L230,637 L240,633 L240,631 L245,629 L254,624 Z M-280,629 Z M-279,630 Z M-275,633 Z "
     fill="#000000"
     transform="translate(1181,463)"
     id="path1" />
  <path
     d="m 1181,463.731 h 22 l 22,3 14,5 10,6 4,2 v 2 h -3 l 11,8 4,6 9,-8 10,-4 8,-1 1,-1 h 11 l 20,3 24,8 19,10 12,9 10,9 14,15 9,11 11,15 9,16 10,21 9,25 7,26 4,22 3,30 1,22.00001 5,21 11,19 12,17 11,14 12,14 12,14 12,14 7,8 13,17 10,15 6,9 7,11 11,20 6,13 3,7 4,10 v 4 h 2 l 3,13 2,6 3,18 1,15.99999 -1,16 -4,15 -8,14 -9,10 -11,8 -5,2 -9,4 -11,4 -10,2 -9,1 h -25 l -9,8 -6,-1 -6,-2 2,-4 13,-12 5,-5 6,-9 4,-8 4,-12 2,-13 v -14 l -5,-21.99999 -5,-14 v -3 h -2 l -1,-6 h -2 l -5,-10 -2,-2 v -3 h -2 l -5,-8 2,14 3,16 1,21 v 20.99999 l -2,17 -6,24 -7,18 h -2 l -2,6 -5,10 h -2 l -2,6 -3,4 h -2 l -2,5 -4,2 -2,4 -5,5 -8,8 -3,1 -5,5 -16,8 -13,4 h -21 v -2 l -9,-1 -20,-8 v -2 l -6,-2 -12,-9 -2,-3 -5,1 -11,5 h -3 v 2 l -17,4 -17,1 -16,-2 -9,-2 -9,-3 -8,-3 h -25 l -13,-3 -16,-8 -6,-4 -12,-11 -5,-7 v -3 h -2 l -3,-20 -1,-1 v -15 h 3 l 3,7 8,11 9,7 10,5 7,1 h 10 l 11,-1 v -2 l 10,-4 9,-6 7,-5 5,-5 6,-5 3,-5 2,-4 -10,6 -10,3 -7,1 h -17 l -9,-2 -10,-4 -9,-8 v -2 l -4,-2 -7,-13 -2,-6 4,1 6,3 5,3 11,4 16,2 16,-3 9,-6 4,-8 2,-7.99997 2,-28.00002 v -12 l 2,-9 16,-8 13,-7 14,-9 17,-13 11,-10 12,-17 13,-3 17,-5 17,-8 10,-8 h 2 l 2,-4 13,-18 4,-17 2,-23 1,-19 -2,-6 -7,-2 -12,5 -14,5 v -3 l 4,-8 -12,-5 -16,-8 -16,-9 -14,-11 -12,-12 -11,-14 -14,-17.00001 -12,-18 -12,-21 -8,-19 -7,-24 -7,-33 -6,-16 -3,-9 -15,-1 -12,2 -1,20 -4,26 -5,19 -8,20 -10,17 -9,12 -11,13 -11,9 -14,11 -14,9.00001 -16,8 -18,8 -30,10 -9,2 -17,2 -14,14 -11,15 -1,2 h -2 l -2,6 -8,16 -10,28 -3,10 1,5 10,6 13,7 9,3 4,12 11,21 7,7 8,10 5,6 12,8 14,10 4,3 2,7 3,17 8,39.00002 3,8.99997 5,24 1,1 v 11 l -3,10 -8,7 -4,7 -5,5 -8,7 -4,3 h -2 l 3,9 h 2 l 6,9 7,9 8,7 7,7 17,12 4,3 v 2 l 5,2 4,3 v 2 l -5,-1 -15,-7 -4,-4 -5,-1 -8,2 -6,-1 -10,-2 -12,-4 -14,-7 -15,-9 -6,-4 -7,-5 -2,1 3,5 5,5 7,7 10,7 15,7 9,3 v 2 l 7,2 v 2 l -9,1 -8,-1 v -2 l -6,-1 -9,-4 -12,-3 -15,-6 -7,-5 -5,-3 -5,-5 -4,-1 -8,5 -12,4 -5,2 -16,2 h -12 l -11,-2 -5,-2 -8,-6 -6,-5 -3,-3 -5,-1 -5,-2 -13,-2 -9,-4 -2,-2 h -6 l -19,-8 -13,-11 -8,-7 -9,-12 -9,-16 -4,-9 -3,-16 v -26.99999 l 4,-17 8,-18 10,-17 1,-3 -12,14 -9,10 -12,16 -8,16 -5,14.99999 -2,9 v 26 l 4,16 5,10 14,15 11,7 8,4 5,2 v 3 l -6,2 -8,-1 -12,-6 -10,-8 -17,-9 -12,-11 -2,-1 v -2 h -2 l -5,-5 -11,-14 -7,-15 v -3 h -2 l -4,-14 -2,-11.99997 v -20.00002 l 4,-20 2,-9 11,-23 8,-12 8,-10 7,-8 h 2 v -2 l 8,-7 5,-4 7,-8 10,-11 9,-11 12,-15 14,-19 7,-9 2,-4 9,-12 10,-13 10,-12 13,-18 14,-19 7,-11 8,-12.00001 11,-16 13,-18 16,-23 12,-19 12,-16 14,-19 12,-16 13,-16 11,-12 7,-8 7,-7 8,-7 14,-12 17,-12 22,-12 26,-10 25,-7 20,-4 20,-2 18,1 h 3 l -14,-2 h -26 l -24,3 -23,6 -24,10 -23,12 -15,10 -14,11 -24,24 -7,8 -12,14 -8,11 -13,15 -9,11 -13,16 -12,16 -15,20 -14,19 -14,18 -8,10 -11,13.00001 -10,13 -9,9 -7,8 -8,8 -8,7 -12,11 -14,11 -14,10 -18,14 -12,9 -16,13 -11,9 -7,7 -8,7 -8,8 -7,8 -13,16 -12,18 -12,23 -6,18 v 48.00002 l 5,15.99997 6,12 8,14 7,11 2,5 -4,-1 -7,-7 -5,-5 -5,-6 v -2 h -2 l -4,-7 h -3 l -2,-9 -6,-23.99999 -1,-7 -1,-21 3,-18 6,-31 7,-23 8,-18 9,-16 8,-10 9,-10 7,-8 13,-13 8,-7 13,-11 20,-15 17,-12 19,-12 23,-14 12,-8 11,-9 h 2 v -2 l 14,-11 12,-11.00001 7,-9 1,-2 h 4 l 12,-15 14,-19 14,-19 9,-12 10,-13 13,-16 9,-11 11,-13 9,-11 12,-14 10,-11 9,-11 8,-8 8,-7 13,-10 18,-11 16,-8 18,-8 18,-6 18,-4 z m 54,12 z m 4,1 z m 3,1 z m 2,1 z m 2,1 z m 72,10 z m 2,1 4,3 15,9 17,12 10,8 5,4 1,2 h 2 l 2,4 10,10 13,17 14,21 14,27 10,25 16,47 h 1 l -1,-14 -6,-27 -8,-26 -10,-25 -8,-16 -9,-14 -11,-14 -12,-13 -13,-13 -14,-10 -21,-11 -17,-6 z m -106,68 -11,6 -6,10 -6,14 -9,21 -12,21 -13,18 -11,13 -23,23 -5,5 -9,8 -19,14.00001 -15,9 -17,9 3,1 33,-11 23,-10 19,-10.00001 13,-10 9,-7 10,-8 7,-8 13,-17 10,-18 8,-21 5,-21 4,-27 z m 42,5 z m 1,2 3,9 4,13 7,30 7,21 8,18 10,17 6,9 1,-2 -7,-24 -8,-29 -5,-13 -5,-9 -2,-3 -3,-10 -12,-23 z m -66,6 z m -1,1 -13,10 -12,12 -14,25 -15,24 -4,5 v 2 h -2 l -8,11 -13,16 -7,8 -13,12 -13,10 2,1 15,-10 13,-10 14,-12 6,-7 8,-7 9,-9 9,-11 14,-19 12,-21 10,-21 3,-9 z m -75,84 z m -1,1 z m -1,1 z m -1,1 z m 192,0 z m -193,1 z m -1,1 -7,8 -14,11 -13,10 -34,23.00001 -8,6 2,1 21,-11 15,-10.00001 14,-11 12,-11 11,-11 2,-5 z m 195,0 2,9 8,21 8,14 7,9.00001 4,6 9,9 17,13 17,10 17,8 7,2 1,-2 -18,-8 -11,-7 -14,-11 -14,-14 -6,-7 -4,-7.00001 -10,-13 -15,-25 -4,-7 z m 149,18 1,3 z m -380,29 -1,2.00001 3,-1 z m -3,2.00001 z m -1,1 z m -2,1 z m -1,1 z m -2,1 z m -33,6 z m -1,1 z m 25,9 z m 420,34 2,10 9,31 12,37 6,15 h 2 l 1,5 8,18 10,19 11,21 5,9 3,7 6,13 3,7 1,5 h 2 l 1,7 3,16 1,1 1,18.99999 -3,17 -4,13 -5,10 -3,5 v 2 h -2 l -5,8 -9,10 -6,5 2,1 18,-5 10,-2 13,-4 8,-4 10,-6 7,-5 7,-8 7,-12 1,-5 2,-6 1,-11 -1,-23.99999 -3,-15 -4,-13 -4,-12 h -2 l -2,-9 -1,-3 h -2 l -3,-9 -8,-15 -7,-13 h -2 l -2,-5 -8,-13 h -2 l -2,-5 -10,-14 -10,-13 -11,-12 -9,-11 -11,-13 -13,-17 -12,-17 -6,-10 z m -629,160 z m -1,1 z m -1,2 z m -1,1 v 3 z m 430,105.99999 z m 250,40 z m -636,9 z m 8,0 -6,1 5,5 5,3 v -3 l -3,-6 z m 539,2 z m -3,1 -15,6 -4,1 v 2 l -10,2 -26,5 2,2 20,-1 12,-3 10,-4 v -2 l 5,-2 9,-5 z m -531,6 z m 1,1 z m 4,3 z"
     fill="#000000"
     id="path1-8"
     style="fill:#ff0000;opacity:0.255" />
</svg>
