<?xml version="1.0" encoding="UTF-8"?>
<svg version="1.1" xmlns="http://www.w3.org/2000/svg" width="2500" height="3686">
<path d="M0,0 L18,0 L22,1 L22,4 L10,6 L14,14 L17,22 L26,39 L35,58 L36,62 L38,62 L44,73 L48,83 L51,84 L51,88 L59,93 L68,103 L79,121 L88,140 L99,173 L107,205 L114,241 L119,278 L122,322 L122,355 L120,396 L116,442 L108,501 L97,570 L84,646 L81,668 L75,701 L72,722 L70,734 L68,750 L62,785 L61,794 L59,804 L57,819 L55,835 L52,854 L47,894 L45,904 L43,919 L41,934 L37,958 L34,977 L30,1001 L25,1031 L22,1045 L19,1064 L15,1089 L10,1117 L6,1137 L3,1153 L-1,1178 L-4,1195 L-6,1203 L-10,1227 L-15,1255 L-19,1269 L-23,1285 L-28,1298 L-34,1314 L-43,1331 L-50,1340 L-59,1348 L-63,1350 L-66,1350 L-65,1360 L-66,1381 L-70,1401 L-71,1409 L-75,1411 L-84,1410 L-92,1408 L-113,1404 L-139,1401 L-150,1401 L-211,1398 L-211,1400 L-215,1399 L-215,1379 L-212,1363 L-210,1354 L-208,1347 L-210,1342 L-216,1337 L-225,1326 L-231,1318 L-235,1310 L-243,1294 L-248,1272 L-249,1262 L-249,1230 L-248,1216 L-247,1214 L-245,1185 L-245,1123 L-244,1104 L-242,1087 L-241,1075 L-239,1051 L-236,1037 L-234,1022 L-232,1000 L-229,965 L-228,953 L-227,907 L-228,860 L-228,847 L-229,808 L-230,759 L-230,606 L-229,516 L-228,479 L-225,431 L-221,389 L-230,416 L-244,457 L-255,493 L-268,544 L-285,607 L-296,651 L-300,670 L-305,697 L-313,739 L-316,762 L-318,774 L-320,793 L-324,828 L-326,855 L-328,877 L-330,909 L-331,917 L-332,941 L-333,965 L-336,1004 L-337,1018 L-339,1045 L-342,1070 L-343,1086 L-346,1108 L-348,1127 L-351,1149 L-354,1167 L-358,1182 L-362,1199 L-368,1219 L-371,1225 L-375,1233 L-381,1249 L-391,1267 L-400,1284 L-403,1289 L-405,1289 L-407,1295 L-416,1310 L-420,1315 L-428,1326 L-440,1339 L-451,1347 L-462,1352 L-468,1353 L-467,1373 L-470,1392 L-478,1419 L-481,1424 L-500,1423 L-530,1421 L-549,1419 L-570,1416 L-600,1411 L-614,1408 L-623,1406 L-637,1401 L-642,1398 L-645,1383 L-643,1362 L-637,1335 L-634,1326 L-635,1321 L-638,1298 L-640,1276 L-641,1238 L-640,1218 L-637,1195 L-635,1176 L-630,1144 L-627,1122 L-620,1076 L-619,1062 L-609,981 L-600,900 L-595,862 L-591,771 L-588,722 L-579,632 L-572,576 L-559,489 L-543,388 L-534,337 L-526,299 L-516,259 L-503,217 L-492,186 L-482,162 L-477,155 L-475,155 L-474,151 L-466,144 L-462,139 L-456,116 L-453,101 L-452,97 L-456,92 L-458,89 L-457,82 L-448,79 L-435,77 L-409,73 L-398,71 L-397,70 L-383,69 L-310,55 L-227,39 L-153,26 L-73,13 L-23,4 Z " fill="#131415" transform="translate(1503,1763)"/>
<path d="M0,0 L5,1 L10,7 L9,10 L14,11 L18,14 L31,15 L31,17 L35,18 L37,23 L49,26 L54,34 L58,36 L58,38 L62,40 L63,45 L65,45 L65,48 L68,48 L69,51 L70,49 L72,49 L75,52 L78,57 L79,60 L82,59 L85,61 L86,66 L92,68 L95,70 L95,72 L98,72 L99,74 L102,75 L103,77 L106,78 L106,80 L111,82 L118,85 L123,94 L128,96 L131,101 L140,106 L140,109 L142,109 L146,114 L149,117 L149,119 L153,121 L157,126 L159,129 L163,131 L165,135 L170,139 L174,147 L179,149 L184,154 L184,157 L189,158 L192,162 L192,165 L197,166 L199,172 L201,172 L201,176 L205,176 L209,181 L219,184 L222,189 L224,192 L229,194 L231,197 L235,198 L238,204 L244,206 L249,212 L248,219 L226,299 L224,306 L221,322 L218,334 L216,343 L207,384 L201,414 L198,437 L196,455 L193,473 L191,500 L188,521 L185,567 L183,590 L182,602 L180,646 L178,681 L176,699 L173,744 L172,752 L170,752 L169,766 L160,771 L154,774 L149,777 L144,779 L138,783 L131,786 L123,790 L116,793 L113,793 L113,797 L108,800 L99,804 L94,807 L88,809 L80,814 L77,814 L77,816 L69,820 L63,821 L63,823 L58,825 L55,828 L50,831 L43,832 L41,836 L37,836 L36,839 L33,840 L32,842 L27,844 L15,851 L7,855 L2,857 L2,859 L-7,864 L-16,866 L-17,870 L-22,872 L-32,878 L-33,880 L-42,884 L-53,889 L-56,889 L-58,893 L-62,893 L-63,896 L-73,902 L-81,905 L-91,911 L-96,914 L-99,917 L-109,921 L-109,905 L-108,884 L-104,855 L-98,813 L-94,787 L-93,774 L-91,768 L-87,735 L-83,697 L-78,650 L-76,622 L-75,618 L-74,595 L-72,582 L-70,533 L-63,455 L-57,388 L-48,301 L-44,271 L-38,228 L-36,218 L-32,188 L-21,119 L-15,81 L-10,51 L-5,22 Z " fill="#9CA5A9" transform="translate(982,2075)"/>
<path d="M0,0 L1,0 L1,20 L-2,59 L-6,95 L-12,137 L-14,157 L-16,170 L-18,170 L-18,178 L-20,189 L-22,209 L-35,296 L-38,315 L-40,334 L-43,351 L-45,367 L-49,385 L-51,399 L-53,408 L-56,432 L-60,452 L-66,494 L-70,529 L-73,543 L-76,567 L-79,586 L-82,605 L-84,614 L-86,629 L-87,631 L-89,648 L-93,672 L-98,696 L-101,715 L-104,734 L-109,758 L-113,782 L-116,794 L-121,824 L-126,857 L-129,873 L-136,872 L-136,874 L-143,874 L-146,869 L-146,865 L-149,864 L-152,859 L-153,858 L-165,856 L-166,855 L-166,850 L-176,847 L-184,843 L-185,840 L-189,840 L-189,836 L-196,835 L-196,832 L-202,830 L-205,825 L-205,823 L-209,823 L-210,821 L-215,820 L-219,816 L-224,812 L-226,809 L-231,808 L-231,806 L-234,806 L-234,802 L-238,802 L-238,799 L-241,798 L-242,796 L-245,795 L-246,793 L-251,791 L-255,789 L-258,784 L-269,778 L-279,772 L-281,769 L-288,767 L-291,763 L-296,761 L-301,756 L-304,755 L-309,748 L-314,745 L-318,741 L-323,737 L-323,735 L-329,733 L-334,727 L-336,726 L-336,722 L-342,722 L-344,719 L-344,705 L-338,666 L-335,630 L-333,607 L-332,571 L-332,496 L-334,412 L-334,197 L-331,196 L-330,192 L-325,189 L-322,189 L-322,187 L-313,184 L-309,180 L-302,179 L-301,176 L-297,175 L-297,173 L-293,173 L-292,170 L-287,167 L-283,167 L-281,163 L-274,162 L-274,159 L-265,156 L-264,153 L-255,151 L-253,147 L-249,145 L-244,145 L-243,141 L-236,139 L-233,136 L-226,135 L-225,131 L-220,128 L-216,128 L-216,126 L-207,123 L-202,118 L-196,117 L-195,113 L-188,111 L-187,109 L-185,109 L-185,107 L-178,106 L-178,103 L-169,100 L-167,100 L-166,97 L-159,95 L-157,92 L-150,89 L-149,86 L-144,84 L-140,84 L-139,80 L-131,76 L-128,74 L-125,74 L-125,72 L-121,72 L-120,69 L-117,67 L-111,67 L-111,64 L-106,61 L-102,61 L-101,58 L-96,57 L-96,55 L-92,55 L-91,52 L-83,48 L-80,46 L-77,46 L-77,44 L-73,44 L-72,41 L-69,39 L-62,37 L-56,34 L-53,34 L-53,30 L-44,28 L-43,24 L-36,22 L-34,22 L-34,19 L-24,16 L-23,13 L-15,11 L-15,8 L-10,5 L-6,5 L-6,2 Z " fill="#9CA5A9" transform="translate(1615,2119)"/>
<path d="M0,0 L1,0 L0,17 L-2,26 L-8,75 L-13,107 L-21,137 L-26,152 L-27,157 L-29,157 L-31,166 L-37,180 L-44,195 L-58,221 L-72,244 L-84,260 L-95,272 L-108,281 L-122,287 L-130,286 L-138,284 L-148,283 L-149,282 L-172,278 L-187,274 L-201,272 L-209,269 L-222,266 L-239,262 L-260,259 L-273,257 L-279,255 L-280,250 L-281,220 L-281,164 L-280,147 L-279,140 L-278,140 L-278,168 L-269,164 L-267,164 L-265,160 L-258,156 L-250,151 L-241,148 L-233,143 L-232,141 L-227,139 L-226,137 L-213,132 L-209,129 L-203,128 L-201,124 L-192,119 L-187,117 L-186,114 L-176,110 L-171,107 L-168,107 L-168,105 L-158,99 L-148,94 L-142,90 L-138,90 L-137,87 L-134,86 L-133,84 L-128,82 L-127,80 L-118,77 L-113,75 L-112,72 L-107,71 L-107,69 L-97,65 L-93,64 L-93,62 L-83,57 L-81,55 L-72,52 L-70,50 L-62,47 L-60,45 L-57,45 L-57,41 L-47,37 L-37,32 L-31,29 L-25,25 L-17,22 L-12,19 L-6,16 L-2,14 Z " fill="#1E2021" transform="translate(1152,2827)"/>
<path d="M0,0 L3,4 L9,5 L9,9 L13,11 L16,14 L16,16 L22,18 L27,23 L31,26 L31,28 L36,30 L41,36 L41,38 L46,39 L50,44 L55,46 L58,50 L65,52 L70,57 L76,60 L88,67 L90,72 L94,73 L100,76 L100,78 L104,79 L107,82 L107,85 L111,85 L111,89 L114,89 L114,91 L119,91 L124,97 L130,101 L130,103 L135,103 L136,106 L140,106 L144,113 L149,115 L149,118 L156,119 L156,123 L160,123 L162,126 L176,131 L179,133 L180,138 L192,140 L196,144 L197,147 L199,148 L202,156 L209,157 L209,155 L215,156 L214,165 L206,203 L196,233 L190,246 L184,257 L177,267 L169,273 L163,271 L157,270 L114,270 L100,271 L69,271 L30,268 L30,265 L25,266 L16,256 L5,238 L-2,222 L-6,209 L-8,197 L-8,158 L-5,130 L-4,116 L-3,51 Z " fill="#1E1F20" transform="translate(1270,2836)"/>
<path d="M0,0 L11,1 L19,4 L29,6 L34,8 L41,9 L46,11 L56,13 L62,15 L75,17 L81,19 L95,21 L105,24 L134,28 L152,30 L150,49 L142,95 L124,91 L98,88 L79,87 L65,85 L42,82 L8,76 L-8,73 L-12,72 L-11,57 L-4,4 L-1,4 L3,8 L3,10 L7,11 L3,5 L0,2 Z " fill="#212121" transform="translate(878,3087)"/>
<path d="M0,0 L13,1 L32,4 L40,5 L68,5 L85,4 L127,4 L135,5 L135,12 L134,17 L132,43 L130,60 L128,63 L116,59 L76,54 L48,53 L-8,53 L-6,42 L-2,15 L-1,4 L2,3 Z " fill="#1C1C1C" transform="translate(1300,3105)"/>
<path d="M0,0 L11,1 L18,3 L17,13 L15,22 L13,38 L7,66 L3,75 L-8,73 L-12,72 L-11,57 L-4,4 L-1,4 L3,8 L3,10 L7,11 L3,5 L0,2 Z " fill="#292929" transform="translate(878,3087)"/>
<path d="M0,0 L26,3 L54,9 L67,12 L75,15 L92,18 L104,21 L127,25 L128,26 L141,28 L149,30 L157,30 L154,33 L136,33 L119,31 L99,27 L91,25 L79,23 L71,21 L60,19 L55,17 L44,15 L43,14 L32,12 L28,10 L21,9 L13,6 L-1,3 Z " fill="#030404" transform="translate(876,3083)"/>
<path d="M0,0 L3,1 L1,3 L-5,5 L-18,13 L-30,18 L-41,25 L-46,28 L-48,28 L-48,30 L-55,32 L-57,35 L-67,39 L-70,42 L-76,44 L-80,45 L-80,47 L-96,55 L-100,61 L-107,64 L-111,67 L-117,68 L-117,70 L-120,71 L-123,74 L-135,80 L-137,80 L-137,82 L-144,83 L-146,87 L-159,94 L-161,96 L-168,99 L-171,102 L-183,106 L-190,111 L-196,113 L-197,116 L-209,121 L-213,124 L-215,124 L-214,98 L-213,91 L-212,91 L-212,119 L-203,115 L-201,115 L-199,111 L-192,107 L-184,102 L-175,99 L-167,94 L-166,92 L-161,90 L-160,88 L-147,83 L-143,80 L-137,79 L-135,75 L-126,70 L-121,68 L-120,65 L-110,61 L-105,58 L-102,58 L-102,56 L-92,50 L-82,45 L-76,41 L-72,41 L-71,38 L-68,37 L-67,35 L-62,33 L-61,31 L-52,28 L-47,26 L-46,23 L-41,22 L-41,20 L-31,16 L-27,15 L-27,13 L-17,8 L-15,6 L-6,3 L-4,1 Z " fill="#35383A" transform="translate(1086,2876)"/>
<path d="M0,0 L5,2 L10,5 L12,10 L16,11 L22,14 L22,16 L26,17 L29,20 L29,23 L33,23 L33,27 L36,27 L36,29 L41,29 L46,35 L52,39 L52,41 L57,41 L58,44 L62,44 L66,51 L71,53 L71,56 L78,57 L78,61 L82,61 L84,64 L98,69 L101,71 L102,76 L114,78 L118,82 L119,85 L121,86 L124,94 L131,95 L131,93 L137,94 L137,96 L128,98 L121,97 L118,93 L118,89 L114,87 L114,85 L110,83 L99,77 L98,73 L93,72 L84,68 L73,59 L70,57 L70,54 L65,53 L61,51 L61,49 L59,49 L59,47 L54,47 L54,45 L50,44 L50,42 L46,41 L38,34 L38,32 L34,31 L33,28 L24,25 L17,20 L12,17 L6,10 L6,8 L1,6 Z " fill="#595E61" transform="translate(1348,2898)"/>
<path d="M0,0 L3,1 L3,4 L6,5 L10,9 L13,10 L18,16 L21,17 L21,19 L25,20 L29,23 L29,25 L33,25 L34,31 L37,31 L37,33 L41,33 L43,40 L50,41 L50,44 L56,47 L58,51 L64,49 L64,52 L67,52 L68,55 L77,60 L76,66 L79,65 L89,70 L88,77 L91,78 L91,76 L96,78 L98,79 L98,81 L96,82 L100,88 L103,90 L105,93 L110,95 L114,97 L114,99 L111,100 L112,103 L109,104 L103,95 L96,89 L93,85 L93,83 L91,83 L90,80 L81,75 L79,70 L74,69 L69,62 L69,59 L60,56 L57,54 L57,52 L53,51 L53,49 L49,48 L49,46 L46,46 L43,43 L37,40 L35,35 L30,34 L26,29 L26,26 L23,25 L23,23 L21,23 L20,26 L19,22 L16,22 L16,19 L14,19 L11,13 L9,12 L9,10 L4,8 L0,2 Z M63,52 Z " fill="#373B3C" transform="translate(1031,2101)"/>
<path d="M0,0 L2,0 L2,3 L17,3 L41,5 L72,5 L86,4 L129,4 L136,6 L139,8 L87,9 L70,10 L42,10 L19,7 L1,4 Z " fill="#030303" transform="translate(1298,3101)"/>
<path d="M0,0 L1,3 L-6,6 L-9,6 L-9,8 L-12,8 L-13,13 L-17,14 L-21,16 L-20,170 L-20,280 L-21,280 L-22,230 L-22,15 L-19,14 L-18,10 L-13,7 L-10,7 L-10,5 L-1,2 Z " fill="#6C7274" transform="translate(1303,2301)"/>
<path d="M0,0 L2,1 L0,4 L-7,6 L-10,9 L-19,11 L-19,14 L-26,15 L-26,17 L-28,17 L-29,20 L-36,21 L-37,25 L-46,29 L-48,32 L-57,34 L-57,36 L-65,39 L-67,43 L-76,45 L-77,48 L-84,49 L-85,53 L-94,55 L-96,60 L-105,61 L-106,65 L-111,67 L-115,67 L-115,70 L-123,73 L-124,75 L-126,75 L-124,71 L-120,69 L-116,69 L-115,65 L-110,63 L-106,63 L-105,59 L-98,57 L-95,54 L-88,51 L-85,48 L-79,45 L-76,42 L-69,41 L-69,39 L-62,35 L-59,35 L-58,32 L-52,29 L-49,29 L-48,26 L-40,24 L-38,20 L-33,18 L-30,18 L-29,15 L-24,13 L-21,13 L-20,10 L-17,8 L-14,8 L-13,5 L-8,3 L-7,2 L0,2 Z " fill="#3A3D3F" transform="translate(1456,2211)"/>
<path d="M0,0 L5,0 L10,2 L12,6 L17,8 L17,11 L24,12 L24,16 L28,16 L30,19 L44,24 L47,26 L48,31 L60,33 L64,37 L65,40 L67,41 L70,49 L77,50 L77,48 L83,49 L83,51 L74,53 L67,52 L64,48 L64,44 L60,42 L60,40 L56,38 L45,32 L44,28 L39,27 L30,23 L19,14 L16,12 L16,9 L11,8 L7,6 L7,4 L5,4 L5,2 L0,2 Z " fill="#44484A" transform="translate(1402,2943)"/>
<path d="M0,0 L2,0 L2,3 L5,3 L6,6 L15,11 L14,17 L17,16 L27,21 L26,28 L29,29 L29,27 L34,29 L36,30 L36,32 L34,33 L38,39 L41,41 L43,44 L48,46 L52,48 L52,50 L49,51 L50,54 L47,55 L41,46 L34,40 L31,36 L31,34 L29,34 L28,31 L19,26 L17,21 L12,20 L7,13 L6,9 L4,8 L4,5 L0,5 L0,3 L-3,2 Z M1,3 Z " fill="#3A3D3F" transform="translate(1093,2150)"/>
<path d="M0,0 L4,2 L17,3 L17,5 L21,6 L23,11 L35,14 L40,22 L44,24 L44,26 L48,28 L47,31 L46,28 L38,28 L36,21 L31,20 L29,18 L24,18 L26,14 L19,13 L15,11 L12,8 L12,10 L14,11 L9,12 L7,10 L8,5 L5,7 L0,7 L-1,3 Z " fill="#6E7477" transform="translate(996,2087)"/>
<path d="M0,0 L3,1 L1,3 L-5,5 L-18,13 L-30,18 L-41,25 L-46,28 L-48,28 L-48,30 L-55,32 L-57,35 L-67,39 L-70,42 L-76,44 L-80,45 L-80,47 L-96,55 L-98,57 L-102,56 L-92,50 L-82,45 L-76,41 L-72,41 L-71,38 L-68,37 L-67,35 L-62,33 L-61,31 L-52,28 L-47,26 L-46,23 L-41,22 L-41,20 L-31,16 L-27,15 L-27,13 L-17,8 L-15,6 L-6,3 L-4,1 Z " fill="#686E70" transform="translate(1086,2876)"/>
<path d="M0,0 L3,4 L9,5 L9,9 L13,11 L16,14 L16,16 L22,18 L27,23 L31,26 L31,28 L36,30 L41,36 L41,38 L46,39 L49,44 L44,42 L39,39 L32,33 L29,31 L29,29 L24,28 L19,24 L14,19 L6,12 L6,7 L2,6 L0,3 Z " fill="#373A3C" transform="translate(1270,2836)"/>
<path d="M0,0 L4,2 L10,7 L21,14 L22,18 L26,20 L26,22 L21,20 L26,25 L32,29 L32,32 L36,33 L39,38 L41,39 L42,44 L44,47 L40,47 L40,43 L38,43 L35,37 L31,36 L27,29 L23,28 L20,23 L17,20 L12,18 L8,10 L3,7 L2,3 Z " fill="#383B3D" transform="translate(1143,2204)"/>
<path d="M0,0 L1,0 L1,8 L0,15 L-6,19 L-12,22 L-19,25 L-22,28 L-30,31 L-31,34 L-41,38 L-50,43 L-51,45 L-59,49 L-63,48 L-60,45 L-57,45 L-57,41 L-47,37 L-37,32 L-31,29 L-25,25 L-17,22 L-12,19 L-6,16 L-2,14 Z " fill="#53585A" transform="translate(1152,2827)"/>
<path d="M0,0 L5,0 L2,3 L-2,3 L-2,6 L-11,9 L-11,12 L-19,15 L-22,18 L-27,20 L-30,20 L-30,23 L-39,26 L-40,29 L-43,31 L-49,31 L-49,35 L-59,39 L-58,36 L-53,33 L-51,33 L-50,29 L-43,26 L-40,23 L-36,22 L-35,20 L-31,19 L-26,15 L-22,13 L-13,8 L-11,6 L-6,4 L-3,3 L-3,1 Z " fill="#46494B" transform="translate(1611,2118)"/>
<path d="M0,0 L2,0 L2,2 L8,4 L8,7 L16,7 L21,9 L21,11 L27,12 L27,14 L29,14 L32,18 L39,22 L44,27 L44,30 L37,28 L37,23 L27,20 L19,16 L18,13 L14,13 L14,9 L7,8 L7,5 L1,3 Z " fill="#646A6D" transform="translate(1412,2946)"/>
<path d="M0,0 L6,4 L15,7 L19,14 L24,16 L26,19 L30,20 L33,26 L39,28 L44,34 L43,38 L43,35 L38,34 L37,30 L30,28 L30,25 L28,25 L28,23 L25,22 L25,20 L20,20 L20,16 L16,14 L16,12 L11,13 L11,10 L7,11 L5,7 L1,5 Z " fill="#7B8386" transform="translate(1187,2253)"/>
<path d="M0,0 L4,3 L8,1 L11,1 L11,4 L14,4 L17,9 L18,12 L23,12 L23,16 L27,18 L32,21 L33,24 L36,25 L36,27 L40,28 L44,31 L45,37 L42,35 L42,33 L39,32 L39,30 L33,29 L30,24 L30,22 L25,21 L24,18 L18,16 L14,9 L4,6 L0,2 Z " fill="#414546" transform="translate(1187,2251)"/>
<path d="M0,0 L8,3 L13,12 L18,14 L21,19 L30,24 L30,27 L32,27 L36,32 L39,35 L39,37 L41,38 L36,38 L36,35 L33,34 L31,31 L31,28 L28,27 L28,25 L26,25 L25,28 L24,24 L22,24 L22,21 L18,19 L15,16 L9,16 L8,11 L5,8 L5,6 L2,6 L0,3 Z " fill="#878F92" transform="translate(1092,2157)"/>
<path d="M0,0 L1,3 L-6,6 L-9,6 L-9,8 L-12,8 L-13,13 L-17,14 L-21,16 L-21,109 L-22,109 L-22,15 L-19,14 L-18,10 L-13,7 L-10,7 L-10,5 L-1,2 Z " fill="#838B8E" transform="translate(1303,2301)"/>
<path d="M0,0 L1,0 L1,28 L10,24 L12,24 L14,20 L21,16 L29,11 L32,12 L25,17 L23,20 L17,22 L16,25 L4,30 L0,33 L-2,33 L-1,7 Z " fill="#6E7477" transform="translate(873,2967)"/>
<path d="M0,0 L5,2 L10,5 L12,10 L16,11 L22,14 L22,16 L26,17 L29,20 L29,23 L33,23 L32,27 L26,24 L24,21 L14,16 L7,9 L5,4 L1,3 Z " fill="#5A5F61" transform="translate(1348,2898)"/>
<path d="M0,0 L5,0 L10,2 L12,6 L17,8 L17,11 L24,12 L24,16 L28,16 L30,19 L40,23 L43,28 L34,25 L27,21 L19,14 L16,12 L16,9 L11,8 L7,6 L7,4 L5,4 L5,2 L0,2 Z " fill="#393C3E" transform="translate(1402,2943)"/>
<path d="M0,0 L1,0 L1,20 L7,22 L10,24 L12,28 L18,32 L23,36 L28,44 L23,42 L20,39 L20,37 L14,35 L9,29 L7,28 L7,24 L1,24 L-1,21 L-1,7 Z " fill="#777E81" transform="translate(1272,2817)"/>
<path d="M0,0 L4,2 L17,3 L17,5 L21,6 L20,9 L20,7 L18,7 L18,12 L15,11 L12,8 L12,10 L14,11 L9,12 L7,10 L8,5 L5,7 L0,7 L-1,3 Z " fill="#787F82" transform="translate(996,2087)"/>
<path d="M0,0 L3,1 L3,4 L6,5 L10,9 L13,10 L18,16 L21,17 L21,19 L25,20 L29,23 L29,25 L33,25 L34,31 L29,30 L27,25 L24,24 L24,22 L21,22 L21,20 L15,18 L13,17 L11,13 L9,12 L9,10 L4,8 L0,2 Z " fill="#3B3F40" transform="translate(1031,2101)"/>
<path d="M0,0 L3,4 L9,5 L9,9 L13,11 L16,14 L16,16 L22,18 L27,23 L31,26 L31,28 L24,26 L22,22 L17,20 L8,12 L6,11 L6,7 L2,6 L0,3 Z " fill="#585D5F" transform="translate(1270,2836)"/>
<path d="M0,0 L2,0 L2,3 L5,3 L6,6 L15,11 L14,17 L17,18 L21,22 L23,24 L21,24 L22,27 L19,26 L17,21 L12,20 L7,13 L6,9 L4,8 L4,5 L0,5 L0,3 L-3,2 Z M1,3 Z " fill="#444849" transform="translate(1093,2150)"/>
<path d="M0,0 L2,1 L0,4 L-9,6 L-9,8 L-17,12 L-18,15 L-20,16 L-21,63 L-22,63 L-22,15 L-21,11 L-13,7 L-9,4 L0,2 Z " fill="#3F4345" transform="translate(1302,2300)"/>
<path d="M0,0 L4,1 L10,9 L16,14 L24,18 L25,21 L30,22 L35,27 L38,28 L39,31 L37,31 L37,29 L33,28 L32,25 L23,22 L16,17 L11,14 L5,7 L5,5 L0,3 Z " fill="#3C3F41" transform="translate(1349,2901)"/>
<path d="M0,0 L1,0 L1,8 L0,15 L-6,19 L-12,22 L-19,25 L-22,28 L-30,31 L-35,34 L-39,33 L-31,29 L-25,25 L-17,22 L-12,19 L-6,16 L-2,14 Z " fill="#64696C" transform="translate(1152,2827)"/>
<path d="M0,0 L4,0 L9,2 L12,4 L12,6 L14,6 L16,2 L19,3 L18,5 L22,5 L23,10 L21,10 L21,8 L8,8 L3,4 L-1,3 Z M17,5 Z " fill="#353839" transform="translate(992,2082)"/>
<path d="M0,0 L2,1 L-3,6 L-9,9 L-12,12 L-18,14 L-22,15 L-22,17 L-38,25 L-40,27 L-44,26 L-34,20 L-24,15 L-18,11 L-14,11 L-13,8 L-10,7 L-9,5 L-4,3 L-3,1 Z " fill="#63696B" transform="translate(1028,2906)"/>
<path d="M0,0 L4,1 L4,3 L10,4 L10,6 L12,6 L15,10 L22,14 L27,19 L27,22 L20,20 L20,15 L14,13 L14,11 L10,10 L8,7 L3,4 Z " fill="#7D8487" transform="translate(1429,2954)"/>
<path d="M0,0 L4,2 L9,4 L13,8 L19,10 L20,12 L23,13 L28,18 L32,21 L31,23 L26,20 L19,15 L18,13 L11,11 L8,7 L3,5 Z " fill="#72797C" transform="translate(1316,2875)"/>
<path d="M0,0 L4,1 L1,3 L-2,3 L-4,8 L-8,11 L-10,11 L-10,9 L-12,9 L-14,13 L-17,15 L-21,14 L-21,16 L-23,16 L-22,13 L-14,9 L-11,7 L-8,7 L-8,5 L-4,5 L-3,2 Z " fill="#767D80" transform="translate(1546,2158)"/>
<path d="M0,0 L8,6 L11,8 L11,10 L7,9 L8,16 L3,11 L-2,9 Z " fill="#2A2C2D" transform="translate(984,2066)"/>
<path d="M0,0 L2,1 L-1,4 L-7,6 L-10,11 L-15,13 L-18,12 L-20,16 L-26,20 L-28,19 L-27,15 L-20,13 L-17,10 L-10,9 L-9,5 L-4,2 L0,2 Z " fill="#787F82" transform="translate(1399,2245)"/>
<path d="M0,0 L4,1 L1,1 L-1,5 L-5,10 L-17,14 L-21,17 L-23,16 L-14,9 L-6,5 L-1,2 Z " fill="#404345" transform="translate(920,2968)"/>
<path d="M0,0 L4,2 L10,7 L14,11 L12,12 L12,14 L16,15 L18,16 L17,19 L12,18 L8,10 L3,7 L2,3 Z " fill="#414446" transform="translate(1143,2204)"/>
<path d="M0,0 L5,2 L10,5 L12,10 L16,11 L22,14 L22,16 L26,17 L27,20 L21,18 L18,16 L18,14 L13,13 L9,9 L8,6 L1,3 Z " fill="#6E7578" transform="translate(1348,2898)"/>
<path d="M0,0 L5,1 L8,5 L15,7 L20,12 L26,15 L29,18 L29,20 L27,20 L24,16 L19,15 L19,13 L14,11 L14,9 L5,6 L3,2 L0,1 Z " fill="#494E50" transform="translate(1320,2881)"/>
<path d="M0,0 L1,2 L0,7 L-7,6 L-7,8 L-14,8 L-16,3 L-14,4 L-14,6 L-8,5 L-8,3 L-5,3 L-5,1 Z " fill="#71787B" transform="translate(1486,2985)"/>
<path d="M0,0 L3,1 L-8,9 L-12,10 L-15,13 L-23,15 L-20,11 L-7,5 L-5,5 L-5,3 Z " fill="#3B3F40" transform="translate(1011,2918)"/>
<path d="M0,0 L3,1 L-6,7 L-11,10 L-15,11 L-23,12 L-20,10 L-16,10 L-16,7 L-7,4 L-5,4 L-4,1 Z " fill="#8E9699" transform="translate(1453,2215)"/>
<path d="M0,0 L5,2 L9,5 L9,8 L13,10 L13,12 L8,10 L4,10 L5,6 L-1,4 Z " fill="#35383A" transform="translate(1156,2214)"/>
<path d="M0,0 L7,3 L7,5 L10,5 L15,11 L15,13 L20,14 L19,17 L16,17 L12,12 L12,9 L9,8 L9,6 L7,6 L6,9 L5,5 L2,5 L2,2 L0,2 Z " fill="#6E7477" transform="translate(1045,2118)"/>
<path d="M0,0 L2,1 L-5,7 L-9,7 L-10,9 L-12,8 L-14,12 L-20,12 L-17,9 L-13,9 L-11,5 L-4,4 L-4,1 Z " fill="#72797C" transform="translate(1345,2277)"/>
<path d="M0,0 L4,1 L10,6 L15,14 L10,12 L7,9 L7,7 L1,5 Z " fill="#7B8285" transform="translate(1285,2847)"/>
<path d="M0,0 L3,1 L-4,4 L-5,7 L-14,9 L-15,13 L-18,15 L-22,14 L-19,13 L-19,11 L-16,11 L-15,7 L-10,5 L-6,5 L-5,2 Z " fill="#343739" transform="translate(1480,2196)"/>
<path d="M0,0 L2,0 L2,2 L4,2 L5,4 L12,7 L14,9 L13,13 L11,11 L6,11 L8,7 L1,6 Z " fill="#7D8588" transform="translate(1014,2094)"/>
<path d="M0,0 L1,3 L-6,6 L-9,6 L-9,8 L-12,8 L-13,13 L-17,14 L-22,17 L-21,14 L-19,14 L-18,10 L-13,7 L-10,7 L-10,5 L-1,2 Z " fill="#72787B" transform="translate(1303,2301)"/>
<path d="M0,0 L2,0 L2,3 L5,3 L6,6 L15,11 L12,14 L8,12 L4,8 L4,5 L0,5 L0,3 L-3,2 Z M1,3 Z " fill="#2F3132" transform="translate(1093,2150)"/>
<path d="M0,0 L3,0 L3,2 L7,2 L9,9 L11,10 L11,12 L5,10 L2,7 L0,3 Z " fill="#383C3D" transform="translate(1065,2132)"/>
<path d="M0,0 L2,1 L-3,4 L-4,6 L-8,6 L-8,8 L-12,10 L-13,12 L-22,14 L-17,9 L-9,5 L-5,5 L-4,2 Z " fill="#383C3D" transform="translate(1326,2286)"/>
<path d="M0,0 L11,5 L9,12 L5,10 L4,6 L0,2 Z " fill="#2A2C2D" transform="translate(1109,2166)"/>
<path d="M0,0 L3,1 L-4,6 L-6,9 L-15,12 L-17,11 L-7,4 L-1,1 Z " fill="#7E8588" transform="translate(902,2978)"/>
<path d="M0,0 L2,1 L-3,5 L-8,6 L-10,11 L-14,14 L-19,14 L-19,11 L-14,9 L-10,9 L-9,5 L-1,1 Z " fill="#747A7D" transform="translate(1485,2194)"/>
<path d="M0,0 L2,1 L-4,5 L-9,8 L-12,8 L-12,10 L-18,13 L-20,12 L-16,8 L-7,3 Z " fill="#343738" transform="translate(909,2979)"/>
<path d="M0,0 L2,0 L2,2 L-11,9 L-13,11 L-20,13 L-17,8 L-3,2 Z " fill="#3E4244" transform="translate(938,2961)"/>
<path d="M0,0 L12,2 L13,5 L17,5 L18,8 L6,6 L5,3 L1,2 Z " fill="#505456" transform="translate(1393,2937)"/>
<path d="M0,0 L2,1 L0,4 L-9,6 L-9,8 L-17,12 L-18,14 L-21,14 L-21,11 L-13,7 L-9,4 L0,2 Z " fill="#313436" transform="translate(1302,2300)"/>
<path d="M0,0 L5,4 L8,1 L10,1 L10,4 L14,4 L14,8 L2,6 L0,3 Z " fill="#3C3F41" transform="translate(1017,2093)"/>
<path d="M0,0 L4,1 L0,5 L-5,7 L-9,10 L-15,11 L-13,8 L-5,4 L-3,1 Z " fill="#3C3F41" transform="translate(984,2933)"/>
<path d="M0,0 L2,1 L0,5 L-7,6 L-8,10 L-19,13 L-20,15 L-20,12 L-11,8 L-8,5 L-2,2 Z " fill="#373B3C" transform="translate(1379,2254)"/>
<path d="M0,0 L5,0 L2,3 L-2,3 L-2,6 L-9,9 L-12,9 L-12,11 L-16,10 L-11,6 L-6,4 L-3,3 L-3,1 Z " fill="#343638" transform="translate(1611,2118)"/>
<path d="M0,0 L2,1 L-10,8 L-15,11 L-22,13 L-20,9 L-7,4 L-3,1 Z " fill="#666C6E" transform="translate(946,2955)"/>
<path d="M0,0 L4,1 L0,5 L-4,5 L-4,7 L-10,10 L-14,11 L-14,8 L-4,3 Z " fill="#2F3133" transform="translate(1542,2158)"/>
<path d="M0,0 L4,2 L14,10 L19,15 L21,18 L17,16 L10,11 L5,6 Z " fill="#35393A" transform="translate(1276,2847)"/>
<path d="M0,0 L2,1 L-3,6 L-5,6 L-5,8 L-10,11 L-19,12 L-17,10 L-10,9 L-9,6 L-5,5 L-5,3 L-1,3 Z " fill="#787F82" transform="translate(1323,2289)"/>
<path d="M0,0 L3,2 L3,5 L8,6 L10,12 L12,12 L12,16 L16,17 L11,17 L9,15 L7,8 L1,7 Z " fill="#798083" transform="translate(1171,2235)"/>
<path d="M0,0 L4,1 L4,4 L6,4 L10,9 L13,12 L13,14 L15,15 L10,15 L10,12 L7,11 L5,8 L5,5 L2,4 Z " fill="#696F72" transform="translate(1118,2180)"/>
<path d="M0,0 L4,1 L1,3 L-5,3 L-5,7 L-15,11 L-14,8 L-9,5 L-7,5 L-6,1 Z " fill="#585C5F" transform="translate(1567,2146)"/>
<path d="M0,0 L4,2 L9,4 L13,8 L13,10 L16,11 L12,12 L8,7 L3,5 Z " fill="#6D7376" transform="translate(1316,2875)"/>
<path d="M0,0 L4,1 L0,3 L-1,5 L-5,5 L-5,7 L-10,9 L-11,11 L-15,11 L-14,8 L-12,8 L-11,6 L-3,2 Z " fill="#2F3233" transform="translate(1524,2169)"/>
<path d="M0,0 L6,1 L9,2 L9,4 L13,4 L13,7 L16,8 L14,9 L4,4 L4,2 L0,1 Z " fill="#4F5355" transform="translate(1084,2151)"/>
<path d="M0,0 L4,1 L-1,4 L-3,4 L-3,6 L-10,8 L-12,11 L-16,10 L-6,3 Z " fill="#5C6164" transform="translate(1041,2900)"/>
<path d="M0,0 L2,0 L2,2 L-1,2 L-2,6 L-12,9 L-13,11 L-17,10 L-14,10 L-13,7 L-5,5 L-3,1 Z " fill="#3A3E3F" transform="translate(1421,2230)"/>
<path d="M0,0 L4,1 L-1,3 L-2,6 L-6,8 L-13,9 L-10,6 L-6,6 L-5,3 L0,2 Z " fill="#71787B" transform="translate(1519,2174)"/>
<path d="M0,0 L5,1 L8,6 L13,9 L14,12 L12,15 L11,11 L9,11 L9,8 L5,6 L0,2 Z " fill="#767D80" transform="translate(1105,2170)"/>
<path d="M0,0 L4,3 L4,5 L12,4 L13,2 L19,3 L19,5 L10,7 L3,6 L0,2 Z " fill="#383C3D" transform="translate(1466,2989)"/>
<path d="M0,0 L0,3 L-4,6 L-17,11 L-19,10 L-11,6 Z " fill="#373B3C" transform="translate(1151,2842)"/>
<path d="M0,0 L2,1 L4,4 L8,6 L10,10 L13,13 L7,13 L6,7 L2,6 L0,5 Z " fill="#7E8588" transform="translate(1137,2200)"/>
<path d="M0,0 L3,1 L-11,9 L-15,8 L-7,3 Z " fill="#393C3E" transform="translate(1065,2889)"/>
<path d="M0,0 L3,1 L1,3 L-5,5 L-15,11 L-17,10 L-12,6 L-4,1 Z " fill="#53585A" transform="translate(1086,2876)"/>
<path d="M0,0 L9,3 L9,5 L12,5 L14,9 L9,9 L5,5 Z " fill="#82898C" transform="translate(1391,2930)"/>
<path d="M0,0 L6,4 L11,7 L11,10 L7,11 L5,7 L1,5 Z " fill="#848C8F" transform="translate(1187,2253)"/>
<path d="M0,0 L2,1 L0,5 L-4,5 L-5,9 L-10,11 L-14,10 L-9,9 L-9,6 L-4,3 L0,3 Z " fill="#81888B" transform="translate(1609,2121)"/>
<path d="M0,0 L5,1 L5,3 L9,3 L10,9 L5,8 L3,3 L0,2 Z " fill="#3D4142" transform="translate(1055,2123)"/>
<path d="M0,0 L5,5 L6,7 L5,9 L9,10 L8,15 L5,13 L2,5 L-1,4 Z " fill="#7D8487" transform="translate(986,2076)"/>
<path d="M0,0 L3,0 L2,4 L-4,6 L-8,9 L-11,9 L-11,6 L-1,3 Z " fill="#899195" transform="translate(1592,2132)"/>
<path d="M0,0 L4,1 L4,3 L10,4 L10,6 L12,6 L13,11 L10,10 L8,7 L3,4 Z " fill="#7E8689" transform="translate(1429,2954)"/>
<path d="M0,0 L2,1 L-3,6 L-10,10 L-14,9 L-10,7 L-9,5 L-4,3 L-3,1 Z " fill="#70777A" transform="translate(1028,2906)"/>
<path d="M0,0 L2,1 L0,4 L-7,6 L-8,8 L-11,7 L-10,4 L-7,2 L0,2 Z " fill="#4E5254" transform="translate(1456,2211)"/>
<path d="M0,0 L6,0 L10,4 L11,7 L13,8 L12,11 L4,3 L4,1 Z " fill="#72787B" transform="translate(1456,2976)"/>
<path d="M0,0 L5,3 L9,8 L9,10 L5,9 L0,3 Z " fill="#0E0E0E" transform="translate(876,3088)"/>
<path d="M0,0 L2,1 L-13,9 L-16,8 L-8,3 Z " fill="#3E4243" transform="translate(887,2992)"/>
<path d="M0,0 L2,1 L-4,5 L-11,9 L-13,8 L-12,5 L-2,1 Z " fill="#676D70" transform="translate(978,2936)"/>
<path d="M0,0 L0,3 L-3,3 L-3,5 L-9,7 L-13,6 L-10,5 L-9,2 Z " fill="#838A8D" transform="translate(1360,2270)"/>
<path d="M0,0 L4,3 L8,1 L11,1 L11,4 L14,5 L4,6 L0,2 Z " fill="#383B3D" transform="translate(1187,2251)"/>
<path d="M0,0 L4,1 L-7,8 L-12,10 L-10,6 L-1,1 Z " fill="#5E6466" transform="translate(961,2945)"/>
<path d="M0,0 L2,0 L2,2 L7,2 L12,9 L6,7 L5,4 L1,3 Z " fill="#6A7073" transform="translate(1382,2925)"/>
<path d="M0,0 L3,1 L-2,5 L-4,6 L-5,9 L-11,9 L-10,6 L-6,5 L-5,3 L-1,2 Z " fill="#313334" transform="translate(1557,2149)"/>
<path d="M0,0 L7,0 L7,2 L11,3 L10,6 L10,4 L8,4 L8,9 L6,9 L6,2 L0,1 Z " fill="#5D6264" transform="translate(1006,2090)"/>
<path d="M0,0 L4,0 L4,2 L-4,6 L-5,8 L-13,9 L-9,6 L-7,6 L-5,3 L-1,2 Z " fill="#2D2F31" transform="translate(1576,2138)"/>
<path d="M0,0 L3,1 L2,3 L6,3 L6,5 L-7,5 L-6,3 L-4,2 L-4,4 L-2,4 Z M1,3 Z " fill="#2A2C2E" transform="translate(1008,2084)"/>
<path d="M0,0 L2,1 L-2,4 L-5,4 L-6,7 L-13,11 L-15,10 L-6,3 Z " fill="#64696C" transform="translate(912,2974)"/>
<path d="M0,0 L11,2 L14,7 L5,4 L0,1 Z " fill="#313436" transform="translate(1431,2964)"/>
<path d="M0,0 L5,1 L8,3 L8,5 L12,6 L12,7 L6,7 L6,4 L0,2 Z " fill="#858D90" transform="translate(1414,2946)"/>
<path d="M0,0 L5,2 L10,5 L12,10 L15,11 L10,10 L8,6 L1,3 Z " fill="#7E8588" transform="translate(1348,2898)"/>
<path d="M0,0 L2,1 L-3,6 L-7,8 L-9,8 L-8,4 L-1,2 Z " fill="#80878A" transform="translate(1428,2228)"/>
<path d="M0,0 L2,0 L2,2 L-6,6 L-10,5 L-7,2 Z " fill="#404446" transform="translate(1099,2870)"/>
<path d="M0,0 L2,3 L3,1 L5,1 L8,4 L9,8 L7,8 L5,6 L2,7 L1,4 L-1,3 Z " fill="#8B9296" transform="translate(1049,2123)"/>
<path d="M0,0 L6,3 L6,5 L10,6 L13,9 L6,8 L6,6 L2,4 Z " fill="#303334" transform="translate(1046,2115)"/>
<path d="M0,0 L3,1 L-10,9 L-14,8 L-6,4 Z " fill="#6A7073" transform="translate(1127,2852)"/>
<path d="M0,0 L8,3 L8,5 L6,5 L5,7 L2,6 L0,3 Z " fill="#7B8285" transform="translate(1092,2157)"/>
<path d="M0,0 L1,3 L-4,5 L-9,5 L-9,7 L-11,7 L-9,3 L-7,2 L0,2 Z " fill="#3F4344" transform="translate(1599,2127)"/>
<path d="M0,0 L5,1 L5,3 L9,4 L10,9 L7,7 L7,5 L1,3 Z " fill="#53575A" transform="translate(1204,2264)"/>
<path d="M0,0 L8,4 L7,7 L2,6 Z " fill="#585D5F" transform="translate(1153,2216)"/>
<path d="M0,0 L4,3 L4,6 L9,7 L8,9 L3,7 L3,4 L-1,4 Z " fill="#7D8588" transform="translate(1162,2226)"/>
<path d="M0,0 L4,1 L-2,4 L-4,6 L-12,7 L-9,5 L-5,5 L-5,2 Z " fill="#6F7578" transform="translate(1442,2220)"/>
<path d="M0,0 L7,6 L6,10 L1,4 L-3,2 Z " fill="#44484A" transform="translate(985,2072)"/>
<path d="M0,0 L5,1 L6,6 L9,7 L7,8 L4,7 Z " fill="#7A8184" transform="translate(1307,2867)"/>
<path d="M0,0 L3,4 L8,6 L8,11 L6,11 L6,7 L2,6 L0,3 Z " fill="#4B5052" transform="translate(1270,2836)"/>
<path d="M0,0 L3,1 L5,4 L10,6 L7,8 L3,6 Z " fill="#2F3133" transform="translate(1131,2190)"/>
<path d="M0,0 L2,1 L0,6 L-8,6 L-5,5 L-5,3 L-1,3 Z " fill="#72797C" transform="translate(1495,2188)"/>
<path d="M0,0 L5,2 L9,5 L9,7 L3,5 L0,2 Z " fill="#61676A" transform="translate(1067,2137)"/>
<path d="M0,0 L4,1 L4,4 L10,4 L11,8 L9,7 L9,5 L1,5 Z " fill="#81898C" transform="translate(1033,2110)"/>
<path d="M0,0 L3,0 L5,3 L12,6 L12,7 L7,7 L0,1 Z " fill="#45494B" transform="translate(1427,2959)"/>
<path d="M0,0 L2,1 L-1,5 L-9,7 L-8,4 L-3,3 L-3,1 Z " fill="#787F82" transform="translate(1048,2895)"/>
<path d="M0,0 L6,3 L7,6 L10,7 L10,9 L6,8 L4,4 L1,4 Z " fill="#35383A" transform="translate(1213,2269)"/>
<path d="M0,0 L3,1 L-1,5 L-7,6 L-6,3 Z " fill="#838B8E" transform="translate(950,2950)"/>
<path d="M0,0 L5,1 L9,7 L5,6 L3,2 L0,1 Z " fill="#393C3E" transform="translate(1320,2881)"/>
<path d="M0,0 L2,0 L2,4 L6,6 L9,10 L4,8 L1,6 Z " fill="#646A6C" transform="translate(1277,2841)"/>
<path d="M0,0 L2,1 L-1,4 L-5,5 L-9,6 L-9,4 L-6,4 L-6,2 Z " fill="#8A9295" transform="translate(1300,2305)"/>
<path d="M0,0 L3,0 L2,3 L-6,6 L-4,2 Z " fill="#5B6063" transform="translate(887,2989)"/>
<path d="M0,0 L4,4 L5,6 L11,7 L11,8 L3,8 L0,2 Z " fill="#575C5E" transform="translate(1467,2986)"/>
<path d="M0,0 L4,1 L8,8 L5,7 L5,5 L0,3 Z " fill="#44484A" transform="translate(1349,2901)"/>
<path d="M0,0 L5,2 L10,9 L6,7 L0,2 Z " fill="#595E60" transform="translate(1301,2864)"/>
<path d="M0,0 L6,2 L6,5 L4,4 L4,7 L2,7 Z " fill="#686F71" transform="translate(1196,2258)"/>
<path d="M0,0 L2,1 L-1,5 L-8,6 L-7,3 L-1,3 Z " fill="#525759" transform="translate(1409,2238)"/>
<path d="M0,0 L4,1 L0,4 L-7,5 L-4,2 Z " fill="#35383A" transform="translate(1025,2911)"/>
<path d="M0,0 L2,1 L-4,5 L-9,5 L-7,2 Z " fill="#36393A" transform="translate(1130,2854)"/>
<path d="M0,0 L5,2 L7,3 L7,5 L2,5 L0,3 Z " fill="#2C2F30" transform="translate(1122,2177)"/>
<path d="M0,0 L2,1 L-3,2 L-3,5 L-8,5 L-6,1 Z " fill="#7A8184" transform="translate(1579,2141)"/>
<path d="M0,0 L2,1 L-2,3 L-2,5 L-6,5 L-6,2 Z " fill="#777E81" transform="translate(1101,2866)"/>
<path d="M0,0 L2,1 L0,4 L-7,5 L-7,3 L0,2 Z " fill="#4F5456" transform="translate(1360,2267)"/>
<path d="M0,0 L0,3 L-4,5 L-8,6 L-7,2 Z " fill="#8D9598" transform="translate(1408,2242)"/>
<path d="M0,0 L6,2 L7,5 L10,6 L5,5 L1,3 Z " fill="#7F878A" transform="translate(1070,2142)"/>
<path d="M0,0 L4,2 L5,6 L1,5 L-1,1 Z " fill="#878F92" transform="translate(1063,2134)"/>
<path d="M0,0 L2,0 L2,3 L6,3 L5,7 L0,4 Z " fill="#6E7477" transform="translate(1375,2918)"/>
<path d="M0,0 L2,1 L-2,5 L-5,4 L-4,1 Z M-6,4 Z " fill="#91999C" transform="translate(1329,2288)"/>
<path d="M0,0 L5,5 L6,10 L5,7 L2,6 L2,4 L0,4 Z " fill="#6E7476" transform="translate(1225,2281)"/>
<path d="M0,0 L5,0 L4,3 L-4,3 Z " fill="#777D80" transform="translate(1366,2264)"/>
<path d="M0,0 L4,2 L7,7 L3,5 L3,3 L-2,4 L0,3 Z " fill="#81898C" transform="translate(1200,2262)"/>
<path d="M0,0 L2,1 L1,3 L-1,3 L-1,5 L-8,6 L-6,4 L-3,4 L-2,1 Z " fill="#35393A" transform="translate(1400,2242)"/>
<path d="M0,0 L3,1 L3,4 L6,6 L0,6 L-1,2 Z " fill="#858D90" transform="translate(1144,2207)"/>
<path d="M0,0 L4,1 L1,1 L-1,5 L-6,6 L-3,3 Z " fill="#6C7275" transform="translate(920,2968)"/>
<path d="M0,0 L2,1 L2,3 L6,4 L7,7 L1,5 Z " fill="#838B8E" transform="translate(1368,2911)"/>
<path d="M0,0 L6,1 L7,3 L10,4 L9,6 L0,1 Z " fill="#848C8F" transform="translate(1329,2884)"/>
<path d="M0,0 L5,2 L7,6 L2,4 Z " fill="#4D5153" transform="translate(1312,2874)"/>
<path d="M0,0 L4,1 L9,6 L5,5 L0,2 Z " fill="#888F93" transform="translate(1285,2847)"/>
<path d="M0,0 L3,0 L7,7 L3,7 L3,3 L1,3 Z " fill="#494D4F" transform="translate(1180,2244)"/>
<path d="M0,0 L0,3 L-3,5 L-7,4 L-4,3 L-4,1 Z " fill="#565B5D" transform="translate(1465,2206)"/>
<path d="M0,0 L2,0 L3,2 L6,3 L6,5 L8,6 L2,6 Z " fill="#787F82" transform="translate(1082,2150)"/>
<path d="M0,0 L6,4 L6,6 L8,7 L3,7 L3,4 L0,3 Z " fill="#63696C" transform="translate(1034,2107)"/>
<path d="M0,0 L2,0 L4,5 L6,7 L1,6 Z " fill="#858C90" transform="translate(1014,2094)"/>
<path d="M0,0 L1,2 L-1,6 L-2,3 L-5,3 L-5,1 Z " fill="#838A8E" transform="translate(1486,2985)"/>
<path d="M0,0 L4,1 L4,3 L10,4 L9,6 L2,3 Z " fill="#8B9397" transform="translate(1429,2954)"/>
<path d="M0,0 L3,2 L9,4 L9,6 L2,4 Z " fill="#4F5456" transform="translate(1292,2858)"/>
<path d="M0,0 L2,1 L0,4 L-4,5 L-4,1 Z " fill="#8F989B" transform="translate(1308,2300)"/>
<path d="M0,0 L3,1 L-3,5 L-5,4 L-4,1 Z " fill="#8C9497" transform="translate(1376,2260)"/>
<path d="M0,0 L4,1 L3,3 L-1,4 L-5,5 Z " fill="#8C9497" transform="translate(1487,2194)"/>
<path d="M0,0 L7,3 L7,5 L2,5 Z " fill="#303234" transform="translate(1109,2166)"/>
<path d="M0,0 L2,0 L2,3 L6,3 L5,7 L4,5 L0,4 L-1,1 Z " fill="#2D2F31" transform="translate(1025,2094)"/>
</svg>
