<?xml version="1.0" encoding="UTF-8"?>
<svg version="1.1" xmlns="http://www.w3.org/2000/svg" width="2214" height="3264">
<path d="M0,0 L28,3 L47,6 L87,15 L115,22 L135,29 L151,37 L165,46 L178,58 L189,70 L201,89 L209,108 L214,131 L217,149 L221,192 L223,206 L225,241 L226,266 L226,327 L225,359 L222,390 L220,403 L207,406 L177,406 L157,402 L154,401 L154,419 L153,442 L153,487 L157,529 L165,570 L173,598 L181,622 L189,641 L199,663 L209,682 L215,694 L225,713 L228,723 L231,736 L231,748 L226,750 L213,760 L197,770 L181,777 L153,787 L125,795 L106,800 L90,804 L63,811 L27,819 L-7,826 L-59,833 L-91,835 L-140,838 L-213,841 L-227,841 L-250,839 L-265,835 L-272,831 L-277,826 L-275,816 L-267,787 L-259,752 L-256,738 L-252,715 L-244,673 L-239,640 L-235,612 L-232,564 L-231,557 L-231,521 L-233,495 L-240,479 L-248,462 L-248,459 L-269,467 L-281,472 L-294,477 L-309,483 L-336,494 L-343,496 L-345,491 L-355,470 L-362,455 L-373,427 L-379,410 L-388,382 L-396,353 L-403,319 L-407,286 L-410,246 L-410,218 L-408,195 L-403,170 L-397,155 L-390,143 L-380,132 L-374,125 L-363,116 L-351,107 L-341,100 L-330,93 L-317,85 L-299,74 L-279,62 L-263,53 L-240,40 L-214,26 L-211,24 L-209,25 L-206,30 L-194,42 L-183,50 L-164,59 L-152,64 L-134,69 L-117,72 L-100,72 L-86,70 L-67,64 L-49,54 L-39,46 L-26,34 L-18,24 L-7,8 Z " fill="#E7E9EA" transform="translate(1162,915)"/>
<path d="M0,0 L28,3 L47,6 L87,15 L115,22 L135,29 L151,37 L165,46 L178,58 L189,70 L201,89 L209,108 L214,131 L217,149 L221,192 L223,206 L225,241 L226,266 L226,327 L225,359 L222,390 L220,403 L207,406 L177,406 L157,402 L154,401 L154,419 L153,442 L153,487 L157,529 L165,570 L173,598 L181,622 L189,641 L199,663 L209,682 L215,694 L225,713 L228,723 L231,736 L231,748 L226,750 L213,760 L197,770 L181,777 L153,787 L125,795 L106,800 L90,804 L63,811 L27,819 L-7,826 L-59,833 L-91,835 L-140,838 L-213,841 L-227,841 L-250,839 L-265,835 L-272,831 L-277,826 L-275,816 L-267,787 L-259,752 L-256,738 L-252,715 L-244,673 L-239,640 L-235,612 L-232,564 L-231,557 L-231,521 L-233,495 L-240,479 L-248,462 L-248,459 L-269,467 L-281,472 L-294,477 L-309,483 L-336,494 L-343,496 L-345,491 L-355,470 L-362,455 L-373,427 L-379,410 L-388,382 L-396,353 L-403,319 L-407,286 L-410,246 L-410,218 L-408,195 L-403,170 L-397,155 L-390,143 L-380,132 L-374,125 L-363,116 L-351,107 L-341,100 L-330,93 L-317,85 L-299,74 L-279,62 L-263,53 L-240,40 L-214,26 L-211,24 L-209,25 L-206,30 L-194,42 L-183,50 L-164,59 L-152,64 L-134,69 L-117,72 L-100,72 L-86,70 L-67,64 L-49,54 L-39,46 L-26,34 L-18,24 L-7,8 Z M1,3 L-7,19 L-17,33 L-28,45 L-39,55 L-51,63 L-62,69 L-86,77 L-94,78 L-121,78 L-140,74 L-158,68 L-170,63 L-181,57 L-191,50 L-197,45 L-204,37 L-210,29 L-216,30 L-216,32 L-222,34 L-229,39 L-236,43 L-255,55 L-277,68 L-295,79 L-314,91 L-330,101 L-345,111 L-358,121 L-371,132 L-378,139 L-384,147 L-392,161 L-397,175 L-400,191 L-402,210 L-403,228 L-403,268 L-400,292 L-398,311 L-393,334 L-391,345 L-385,366 L-383,376 L-377,394 L-372,411 L-368,421 L-365,429 L-363,436 L-356,452 L-351,465 L-348,474 L-342,490 L-341,492 L-336,490 L-322,482 L-314,479 L-314,477 L-309,476 L-289,468 L-281,465 L-271,461 L-249,456 L-250,449 L-257,430 L-267,402 L-273,385 L-277,372 L-280,364 L-282,355 L-287,340 L-288,334 L-290,334 L-290,327 L-295,310 L-296,303 L-298,303 L-298,296 L-305,271 L-308,257 L-308,254 L-304,269 L-296,295 L-292,311 L-287,327 L-284,339 L-280,350 L-278,358 L-272,373 L-269,383 L-265,393 L-261,406 L-258,413 L-255,423 L-252,430 L-249,439 L-244,455 L-240,462 L-237,469 L-232,481 L-227,492 L-217,511 L-214,518 L-212,518 L-209,528 L-205,541 L-203,547 L-206,544 L-210,534 L-217,519 L-219,516 L-221,516 L-221,512 L-223,512 L-226,503 L-229,500 L-228,517 L-225,532 L-225,583 L-229,631 L-231,642 L-235,674 L-240,696 L-242,711 L-245,720 L-250,744 L-252,756 L-256,772 L-266,802 L-270,812 L-274,821 L-273,826 L-264,829 L-240,832 L-198,832 L-183,831 L-128,829 L-71,825 L-24,820 L1,815 L19,812 L40,807 L51,805 L71,800 L80,798 L106,791 L125,787 L137,783 L149,780 L160,776 L176,772 L194,765 L202,761 L208,759 L208,757 L214,755 L226,746 L227,745 L227,735 L224,725 L210,699 L208,699 L206,693 L198,677 L191,664 L187,654 L179,638 L176,628 L166,604 L164,593 L159,580 L157,566 L153,553 L149,525 L146,497 L145,485 L145,402 L147,402 L148,390 L148,365 L149,347 L149,265 L146,203 L144,190 L142,182 L139,164 L141,164 L143,175 L148,198 L153,228 L155,276 L155,341 L153,375 L153,395 L167,398 L195,401 L214,401 L217,400 L220,345 L220,253 L218,215 L214,177 L210,138 L206,111 L202,101 L194,87 L180,68 L172,59 L161,50 L145,40 L128,32 L106,25 L91,22 L66,16 L59,15 L54,13 L37,10 L21,6 L6,3 Z " fill="#3B3E3F" transform="translate(1162,915)"/>
<path d="M0,0 L28,3 L47,6 L87,15 L115,22 L135,29 L151,37 L165,46 L178,58 L189,70 L201,89 L209,108 L214,131 L217,149 L221,192 L223,206 L225,241 L226,266 L226,327 L225,359 L222,390 L221,397 L219,397 L218,399 L219,345 L219,253 L217,215 L213,177 L209,138 L205,111 L201,101 L193,87 L179,68 L172,60 L161,51 L145,41 L128,33 L106,26 L91,23 L66,17 L59,16 L54,14 L37,11 L21,7 L1,3 L0,8 L-7,21 L-16,33 L-27,45 L-39,56 L-51,64 L-62,70 L-86,78 L-94,79 L-121,79 L-140,75 L-158,69 L-170,64 L-181,58 L-191,51 L-198,45 L-205,37 L-210,31 L-210,29 L-216,30 L-216,32 L-222,35 L-229,40 L-236,44 L-255,56 L-277,69 L-295,80 L-314,92 L-330,102 L-345,112 L-358,122 L-371,133 L-382,145 L-391,161 L-396,175 L-399,191 L-401,210 L-402,228 L-402,268 L-399,292 L-397,311 L-392,334 L-390,345 L-384,366 L-382,376 L-376,394 L-371,411 L-367,421 L-364,429 L-362,436 L-355,452 L-350,465 L-347,474 L-346,485 L-348,485 L-358,464 L-365,448 L-371,432 L-380,408 L-388,382 L-396,353 L-403,319 L-407,286 L-410,246 L-410,218 L-408,195 L-403,170 L-397,155 L-390,143 L-380,132 L-374,125 L-363,116 L-351,107 L-341,100 L-330,93 L-317,85 L-299,74 L-279,62 L-263,53 L-240,40 L-214,26 L-211,24 L-209,25 L-206,30 L-194,42 L-183,50 L-164,59 L-152,64 L-134,69 L-117,72 L-100,72 L-86,70 L-67,64 L-49,54 L-39,46 L-26,34 L-18,24 L-7,8 Z " fill="#191A1A" transform="translate(1162,915)"/>
<path d="M0,0 L2,0 L9,28 L15,64 L17,112 L17,177 L14,231 L36,234 L56,236 L78,236 L78,221 L79,197 L80,197 L80,233 L81,233 L81,239 L68,242 L38,242 L18,238 L15,237 L15,255 L14,278 L14,323 L18,365 L26,406 L34,434 L42,458 L50,477 L60,499 L70,518 L76,530 L86,549 L89,559 L89,569 L88,566 L86,566 L78,550 L71,537 L71,535 L69,535 L65,528 L61,518 L51,500 L47,490 L39,474 L36,464 L26,440 L24,429 L19,416 L17,402 L13,389 L9,361 L6,333 L5,321 L5,263 L6,238 L8,238 L8,201 L9,183 L9,101 L6,39 L4,26 L2,18 L0,6 Z " fill="#383A3B" transform="translate(1301,1079)"/>
<path d="M0,0 L2,4 L3,8 L3,20 L-2,22 L-15,32 L-31,42 L-47,49 L-75,59 L-103,67 L-122,72 L-138,76 L-165,83 L-201,91 L-235,98 L-287,105 L-319,107 L-368,110 L-441,113 L-455,113 L-478,111 L-493,107 L-500,103 L-503,99 L-502,95 L-500,98 L-492,100 L-468,103 L-426,103 L-411,102 L-356,100 L-299,96 L-252,91 L-227,86 L-209,83 L-188,78 L-177,76 L-157,71 L-148,69 L-122,62 L-103,58 L-91,54 L-79,51 L-68,47 L-52,43 L-34,36 L-26,32 L-20,31 L-20,29 L-8,22 L-2,17 L-2,2 Z " fill="#404344" transform="translate(1390,1643)"/>
<path d="M0,0 L2,1 L6,16 L14,42 L18,58 L23,74 L26,86 L30,97 L32,105 L38,120 L41,130 L45,140 L49,153 L52,160 L55,170 L58,177 L61,186 L66,202 L70,209 L69,213 L63,213 L61,209 L61,206 L40,214 L28,219 L15,224 L0,230 L-27,241 L-34,243 L-36,238 L-38,232 L-38,224 L-36,226 L-32,237 L-32,239 L-17,230 L-7,226 L-5,226 L-5,224 L20,214 L28,211 L38,207 L55,203 L60,203 L56,190 L52,180 L45,160 L35,132 L31,119 L28,111 L26,102 L21,87 L21,81 L19,81 L16,67 L13,57 L13,50 L11,50 L8,35 L3,18 L0,4 Z " fill="#37393A" transform="translate(853,1168)"/>
<path d="M0,0 L2,1 L6,16 L14,42 L18,58 L23,74 L26,86 L30,97 L29,100 L25,90 L25,87 L23,87 L22,90 L21,81 L19,81 L16,67 L13,57 L13,50 L11,50 L8,35 L3,18 L0,4 Z " fill="#525353" transform="translate(853,1168)"/>
<path d="M0,0 L2,2 L8,13 L9,19 L11,19 L15,29 L19,42 L21,46 L20,49 L16,45 L12,35 L5,20 L2,17 L2,13 L0,13 L-3,5 L-1,4 Z " fill="#484A4C" transform="translate(939,1414)"/>
<path d="M0,0 L2,3 L8,25 L12,36 L11,39 L7,29 L7,26 L5,26 L4,29 L3,20 L1,20 L0,9 L1,7 Z " fill="#4C4E4F" transform="translate(871,1229)"/>
<path d="M0,0 L2,4 L7,13 L6,17 L0,17 L-2,13 L-1,7 Z " fill="#3C3D3E" transform="translate(916,1364)"/>
<path d="M0,0 L2,2 L6,15 L8,25 L8,30 L7,27 L5,27 L1,14 Z " fill="#363738" transform="translate(865,1211)"/>
<path d="M0,0 L2,0 L8,16 L8,23 L6,23 L0,6 Z " fill="#272829" transform="translate(876,1255)"/>
<path d="M0,0 L2,1 L2,8 L-2,12 L-12,15 L-10,9 L-1,8 L-1,2 Z " fill="#2A2C2D" transform="translate(914,1363)"/>
<path d="M0,0 L2,0 L6,17 L4,17 L4,24 L3,24 L0,6 Z " fill="#48494A" transform="translate(1301,1079)"/>
<path d="M0,0 L2,1 L6,16 L8,23 L8,28 L6,28 L3,18 L0,4 Z " fill="#323333" transform="translate(853,1168)"/>
<path d="M0,0 L2,1 L-17,20 L-19,19 L-5,4 Z " fill="#D2D3D3" transform="translate(798,1041)"/>
<path d="M0,0 L2,3 L3,14 L1,14 L0,16 L-1,12 L-1,2 Z " fill="#2A2C2D" transform="translate(932,1424)"/>
<path d="M0,0 L5,0 L4,2 L4,13 L0,11 Z " fill="#3A3C3E" transform="translate(930,1414)"/>
<path d="M0,0 L2,2 L5,11 L5,17 L2,14 L0,8 Z " fill="#303132" transform="translate(815,1392)"/>
<path d="M0,0 L3,3 L4,8 L2,8 L3,22 L2,22 L0,7 Z " fill="#B4B7B8" transform="translate(933,1415)"/>
<path d="M0,0 L2,3 L5,13 L4,16 L1,20 L0,9 L1,7 Z " fill="#565858" transform="translate(871,1229)"/>
<path d="M0,0 L2,1 L0,5 L-7,7 L-6,1 L-5,3 Z " fill="#3D403C" transform="translate(826,1404)"/>
<path d="M0,0 L2,2 L4,10 L2,9 L0,12 L-1,2 Z " fill="#313334" transform="translate(874,1243)"/>
<path d="M0,0 L3,1 L5,5 L4,8 L0,4 Z " fill="#525556" transform="translate(955,1455)"/>
<path d="M0,0 L1,0 L1,6 L-2,11 L-6,12 L-5,8 L-1,5 Z " fill="#5A5D5E" transform="translate(1389,1655)"/>
<path d="M0,0 L2,1 L2,8 L-4,9 L-2,6 L0,6 Z " fill="#353839" transform="translate(1391,1655)"/>
<path d="M0,0 L2,2 L3,5 L3,12 L1,10 L0,7 Z " fill="#232424" transform="translate(865,1211)"/>
<path d="M0,0 L4,2 L2,2 L2,4 L-2,5 L-3,3 Z " fill="#222323" transform="translate(944,943)"/>
<path d="M0,0 L1,2 L3,2 L3,9 L0,6 Z " fill="#333535" transform="translate(862,1201)"/>
<path d="M0,0 L1,0 L1,6 L-1,6 L-2,8 L-2,1 Z " fill="#232728" transform="translate(1382,1306)"/>
</svg>
