<?xml version="1.0" encoding="UTF-8"?>
<svg version="1.1" xmlns="http://www.w3.org/2000/svg" width="2500" height="3686">
<path d="M0,0 L6,1 L11,5 L11,19 L5,39 L-10,80 L-24,119 L-29,132 L-33,141 L-43,169 L-55,205 L-65,239 L-74,274 L-79,294 L-81,294 L-82,302 L-90,335 L-94,353 L-102,382 L-107,402 L-108,410 L-114,439 L-115,455 L-115,487 L-108,545 L-105,580 L-103,604 L-102,609 L-101,623 L-101,644 L-103,655 L-109,671 L-119,687 L-128,696 L-138,703 L-154,713 L-170,722 L-191,732 L-205,737 L-214,741 L-240,748 L-250,750 L-256,752 L-287,757 L-306,759 L-310,760 L-323,761 L-361,761 L-378,758 L-390,754 L-398,749 L-404,742 L-407,734 L-407,710 L-402,691 L-396,675 L-391,663 L-384,648 L-379,638 L-369,619 L-360,603 L-347,580 L-339,566 L-337,566 L-335,561 L-325,543 L-318,532 L-308,515 L-300,499 L-295,485 L-289,469 L-286,457 L-283,446 L-279,427 L-275,409 L-273,397 L-270,378 L-268,362 L-266,346 L-264,335 L-263,324 L-260,306 L-259,296 L-255,273 L-253,257 L-242,197 L-235,150 L-226,70 L-222,30 L-220,17 L-224,16 L-224,14 L-220,13 L-218,3 L-214,3 L-213,4 L-212,14 L-202,14 L-177,16 L-124,17 L-76,15 L-23,11 L-1,8 L4,6 L0,3 Z " fill="#FEFEFE" transform="translate(1133,2741)"/>
<path d="M0,0 L7,1 L19,12 L33,19 L62,28 L83,32 L103,34 L130,34 L152,32 L177,27 L192,21 L197,17 L201,18 L200,35 L192,80 L177,181 L159,294 L157,312 L151,356 L150,373 L149,392 L148,418 L150,474 L151,476 L154,507 L156,516 L161,552 L164,567 L169,602 L172,617 L174,632 L175,646 L175,669 L171,697 L166,713 L160,723 L152,730 L142,735 L126,739 L113,741 L99,742 L76,742 L49,740 L29,736 L18,732 L7,726 L-4,715 L-11,704 L-16,694 L-23,673 L-27,655 L-29,641 L-30,627 L-30,611 L-27,582 L-20,548 L-16,528 L-10,500 L-9,488 L-7,474 L-6,455 L-5,438 L-4,410 L-4,399 L-3,376 L-2,353 L1,307 L2,279 L3,222 L3,135 L1,81 L-1,55 L-3,8 L-1,1 Z " fill="#FEFEFE" transform="translate(1281,2755)"/>
<path d="M0,0 L6,1 L11,5 L11,19 L5,39 L-10,80 L-24,119 L-29,132 L-33,141 L-43,169 L-55,205 L-65,239 L-74,274 L-79,294 L-81,294 L-82,302 L-90,335 L-94,353 L-102,382 L-107,402 L-108,410 L-114,439 L-115,455 L-115,487 L-108,545 L-105,580 L-103,604 L-102,609 L-101,623 L-101,644 L-103,655 L-109,671 L-119,687 L-128,696 L-138,703 L-154,713 L-170,722 L-191,732 L-205,737 L-214,741 L-240,748 L-250,750 L-256,752 L-287,757 L-306,759 L-310,760 L-323,761 L-361,761 L-378,758 L-390,754 L-398,749 L-404,742 L-407,734 L-407,710 L-402,691 L-396,675 L-391,663 L-384,648 L-379,638 L-369,619 L-360,603 L-347,580 L-339,566 L-337,566 L-335,561 L-325,543 L-318,532 L-308,515 L-300,499 L-295,485 L-289,469 L-286,457 L-283,446 L-279,427 L-275,409 L-273,397 L-270,378 L-268,362 L-266,346 L-264,335 L-263,324 L-260,306 L-259,296 L-255,273 L-253,257 L-242,197 L-235,150 L-226,70 L-222,30 L-220,17 L-224,16 L-224,14 L-220,13 L-218,3 L-214,3 L-213,4 L-212,14 L-202,14 L-177,16 L-124,17 L-76,15 L-23,11 L-1,8 L4,6 L0,3 Z M4,12 L-12,15 L-41,18 L-79,21 L-97,22 L-155,22 L-185,20 L-209,17 L-214,17 L-214,20 L-217,20 L-219,42 L-222,86 L-228,146 L-236,201 L-248,267 L-251,283 L-253,301 L-255,312 L-257,328 L-259,339 L-261,362 L-263,372 L-265,387 L-268,407 L-270,414 L-274,438 L-279,454 L-281,464 L-288,484 L-291,494 L-305,523 L-317,544 L-328,561 L-338,578 L-347,593 L-360,617 L-362,620 L-362,623 L-364,623 L-367,628 L-367,632 L-369,632 L-377,648 L-386,667 L-390,677 L-394,687 L-397,697 L-400,707 L-401,712 L-401,731 L-396,741 L-391,746 L-382,750 L-379,750 L-379,752 L-366,754 L-317,754 L-295,751 L-273,748 L-249,744 L-229,739 L-229,737 L-218,735 L-193,726 L-177,718 L-170,715 L-160,709 L-148,702 L-136,693 L-126,684 L-119,676 L-111,660 L-108,647 L-108,620 L-109,614 L-112,565 L-118,511 L-120,501 L-121,490 L-121,449 L-117,425 L-115,411 L-110,391 L-107,376 L-90,313 L-72,241 L-63,210 L-49,167 L-44,155 L-27,109 L-12,67 L-10,62 L-10,59 L-8,59 L-4,46 L1,34 L6,19 L6,12 Z " fill="#090909" transform="translate(1133,2741)"/>
<path d="M0,0 L7,1 L19,12 L33,19 L62,28 L83,32 L103,34 L130,34 L152,32 L177,27 L192,21 L197,17 L201,18 L200,35 L192,80 L177,181 L159,294 L157,312 L151,356 L150,373 L149,392 L148,418 L150,474 L151,476 L154,507 L156,516 L161,552 L164,567 L169,602 L172,617 L174,632 L175,646 L175,669 L171,697 L166,713 L160,723 L152,730 L142,735 L126,739 L113,741 L99,742 L76,742 L49,740 L29,736 L18,732 L7,726 L-4,715 L-11,704 L-16,694 L-23,673 L-27,655 L-29,641 L-30,627 L-30,611 L-27,582 L-20,548 L-16,528 L-10,500 L-9,488 L-7,474 L-6,455 L-5,438 L-4,410 L-4,399 L-3,376 L-2,353 L1,307 L2,279 L3,222 L3,135 L1,81 L-1,55 L-3,8 L-1,1 Z M4,7 L4,19 L8,101 L9,144 L9,282 L8,286 L5,361 L4,371 L1,457 L-1,483 L-4,502 L-6,516 L-15,554 L-19,577 L-22,599 L-22,635 L-18,665 L-15,673 L-12,685 L-4,702 L4,712 L12,721 L28,729 L44,732 L50,732 L50,734 L60,735 L93,735 L121,733 L139,729 L149,724 L156,716 L160,710 L164,698 L166,690 L168,670 L168,631 L164,593 L162,583 L160,583 L159,573 L153,536 L149,514 L146,485 L145,483 L144,469 L143,464 L143,390 L144,367 L147,343 L149,322 L165,221 L177,145 L190,61 L192,45 L195,30 L194,26 L182,31 L168,35 L158,37 L134,39 L99,39 L75,36 L52,31 L34,25 L18,17 L5,7 Z " fill="#070707" transform="translate(1281,2755)"/>
<path d="M0,0 L4,1 L3,5 L0,4 Z " fill="#000000" transform="translate(1631,3253)"/>
</svg>
