<?xml version="1.0" encoding="UTF-8"?>
<svg version="1.1" xmlns="http://www.w3.org/2000/svg" width="2500" height="3686">
<path d="M0,0 L18,1 L35,5 L48,12 L55,18 L58,24 L64,17 L74,12 L77,11 L86,11 L86,9 L98,9 L117,12 L141,20 L157,28 L171,38 L181,47 L196,62 L205,73 L216,88 L225,104 L235,125 L244,150 L251,176 L255,198 L258,228 L259,244 L265,271 L276,290 L288,307 L299,321 L311,335 L323,349 L335,363 L348,380 L358,394 L369,412 L382,437 L391,460 L397,475 L402,498 L404,516 L404,533 L402,550 L397,568 L392,577 L381,591 L371,600 L355,609 L340,616 L327,620 L309,622 L297,624 L290,630 L288,633 L282,632 L276,631 L278,627 L293,612 L301,599 L304,590 L308,577 L309,572 L310,557 L310,545 L309,544 L306,520 L304,514 L299,495 L291,474 L290,472 L289,526 L288,536 L288,547 L286,562 L285,573 L280,596 L278,605 L273,618 L265,634 L258,646 L247,661 L240,668 L231,674 L221,680 L219,680 L219,682 L203,687 L181,688 L166,684 L154,679 L143,673 L134,666 L132,663 L126,664 L114,669 L99,672 L80,672 L64,669 L48,663 L38,658 L18,656 L0,651 L-17,642 L-29,631 L-36,623 L-40,615 L-41,604 L-40,603 L-42,593 L-41,577 L-39,577 L-35,587 L-28,598 L-20,605 L-8,611 L3,613 L14,612 L27,608 L41,600 L54,589 L62,579 L65,573 L51,581 L41,584 L22,584 L9,580 L-1,574 L-9,566 L-17,550 L-20,541 L-15,543 L-5,550 L7,555 L16,557 L29,557 L39,554 L47,548 L51,540 L55,518 L57,487 L59,478 L75,469 L91,460 L108,448 L121,438 L128,431 L130,431 L132,426 L144,410 L154,409 L171,404 L187,397 L200,387 L210,375 L217,365 L221,347 L223,325 L224,306 L222,299 L216,297 L207,300 L190,307 L188,307 L190,303 L193,296 L181,291 L164,283 L146,272 L135,263 L123,252 L113,240 L106,231 L95,217 L85,202 L75,185 L67,167 L60,146 L54,119 L50,102 L42,82 L42,80 L27,79 L15,82 L14,86 L12,110 L7,136 L0,157 L-8,173 L-18,189 L-27,200 L-39,213 L-52,224 L-67,234 L-87,245 L-111,255 L-138,264 L-147,266 L-164,268 L-174,277 L-183,287 L-193,302 L-205,325 L-214,350 L-218,364 L-208,372 L-196,379 L-185,382 L-180,397 L-171,414 L-160,426 L-153,434 L-149,439 L-119,459 L-116,466 L-108,504 L-102,535 L-99,561 L-99,571 L-104,585 L-111,592 L-122,601 L-133,611 L-141,618 L-135,632 L-127,644 L-118,654 L-110,662 L-95,672 L-80,682 L-82,683 L-98,677 L-106,672 L-113,673 L-119,675 L-132,674 L-147,670 L-163,663 L-174,656 L-185,647 L-193,638 L-190,647 L-183,658 L-176,666 L-162,675 L-152,679 L-137,684 L-136,686 L-149,688 L-161,684 L-165,682 L-176,680 L-191,674 L-202,667 L-211,658 L-215,660 L-226,665 L-238,668 L-259,668 L-272,664 L-281,658 L-286,653 L-293,644 L-301,641 L-306,638 L-313,637 L-321,633 L-326,629 L-334,627 L-350,619 L-363,608 L-372,598 L-379,588 L-388,571 L-393,554 L-394,546 L-394,527 L-391,509 L-385,492 L-376,475 L-363,454 L-363,453 L-372,464 L-383,477 L-392,487 L-404,503 L-412,519 L-417,534 L-420,552 L-420,571 L-416,587 L-409,601 L-400,611 L-391,618 L-380,624 L-375,627 L-375,629 L-385,630 L-399,623 L-409,615 L-425,605 L-437,594 L-439,593 L-439,591 L-441,591 L-450,580 L-458,567 L-463,556 L-468,540 L-470,527 L-470,507 L-466,487 L-460,471 L-449,450 L-441,439 L-432,429 L-425,421 L-414,411 L-407,403 L-397,392 L-388,381 L-376,366 L-362,347 L-346,326 L-334,310 L-320,292 L-310,278 L-296,259 L-282,239 L-269,220 L-256,202 L-240,179 L-228,160 L-216,144 L-202,125 L-188,106 L-176,92 L-162,77 L-147,62 L-139,55 L-124,43 L-107,32 L-88,22 L-64,13 L-40,6 L-20,2 Z M90,11 Z M96,12 Z M100,13 Z M104,14 Z M107,15 L109,17 L123,24 L145,39 L158,49 L170,60 L179,69 L192,86 L206,107 L220,134 L230,159 L248,212 L249,212 L248,198 L243,172 L236,147 L227,122 L217,101 L206,84 L195,70 L183,57 L170,44 L156,34 L135,23 L114,16 Z M50,18 Z M45,83 Z M7,84 L-4,90 L-10,100 L-16,114 L-25,135 L-34,151 L-44,166 L-55,180 L-67,194 L-87,214 L-98,223 L-111,233 L-126,243 L-144,253 L-153,258 L-154,260 L-143,257 L-113,247 L-90,237 L-71,227 L-54,215 L-43,205 L-38,201 L-31,193 L-18,176 L-8,158 L0,137 L5,116 L9,89 L9,84 Z M46,84 Z M47,86 Z M48,87 L51,96 L57,114 L64,144 L71,165 L79,183 L89,200 L97,212 L98,209 L91,186 L83,156 L77,140 L72,131 L70,126 L62,108 L53,92 Z M-13,95 Z M-14,96 L-25,104 L-35,113 L-42,120 L-56,145 L-71,169 L-84,187 L-96,201 L-108,214 L-119,224 L-132,234 L-147,244 L-145,245 L-127,235 L-110,223 L-100,215 L-87,204 L-63,180 L-54,169 L-40,150 L-28,129 L-18,108 L-13,98 Z M-72,158 Z M-75,162 Z M-77,165 Z M-78,166 Z M-79,168 Z M-80,169 Z M-81,170 Z M-82,172 Z M-83,173 Z M-84,174 Z M-85,175 L-84,177 Z M-86,177 Z M-87,178 Z M-88,179 L-105,196 L-119,207 L-132,217 L-166,240 L-180,250 L-177,251 L-155,240 L-136,228 L-120,215 L-110,206 L-97,193 L-88,182 Z M95,179 L96,181 Z M96,181 L98,191 L105,211 L113,227 L120,238 L134,253 L147,264 L162,274 L181,284 L193,289 L197,288 L197,286 L179,278 L168,271 L154,260 L139,245 L128,231 L116,214 L104,194 L97,181 Z M98,212 Z M-149,245 Z M-151,246 Z M-153,247 Z M-154,248 Z M-156,249 Z M-158,250 Z M-181,251 Z M-160,251 Z M-162,252 Z M-164,253 Z M-156,260 Z M268,285 L269,287 Z M269,287 L271,298 L284,342 L296,377 L311,413 L322,440 L330,460 L337,485 L341,507 L343,530 L341,548 L339,561 L335,573 L330,585 L322,598 L318,605 L312,612 L305,618 L308,619 L316,615 L329,611 L350,602 L364,594 L375,585 L383,575 L389,566 L392,557 L395,545 L396,538 L396,509 L393,490 L387,468 L380,449 L371,429 L361,410 L349,391 L337,375 L324,359 L313,346 L304,335 L292,320 L279,302 L270,287 Z M-359,445 Z M-360,447 Z M-361,448 L-360,450 Z M-39,605 Z M-329,617 L-323,624 L-313,632 L-308,637 L-306,636 L-313,628 L-318,618 L-323,619 Z M304,619 Z M-196,633 Z M217,638 Z M214,639 L215,641 L217,639 Z M212,641 L193,648 L178,652 L169,654 L160,655 L163,657 L178,657 L194,653 L211,645 L214,643 L214,641 Z " fill="#000000" transform="translate(1207,473)"/>
<path d="M0,0 L24,0 L45,3 L59,8 L72,15 L69,16 L53,10 L35,7 L8,7 L-16,10 L-39,16 L-63,26 L-86,38 L-101,48 L-115,59 L-139,83 L-146,91 L-158,105 L-169,118 L-178,129 L-190,143 L-201,157 L-215,175 L-229,194 L-243,213 L-257,231 L-265,241 L-276,254 L-283,262 L-292,272 L-306,287 L-322,302 L-337,315 L-351,326 L-364,336 L-385,352 L-399,363 L-410,372 L-422,383 L-432,392 L-439,399 L-446,407 L-459,423 L-471,441 L-483,464 L-489,482 L-490,491 L-490,532 L-485,548 L-477,565 L-466,585 L-463,590 L-467,588 L-476,579 L-485,567 L-489,559 L-491,561 L-493,552 L-499,528 L-500,520 L-500,500 L-497,482 L-491,451 L-484,428 L-476,410 L-467,394 L-454,377 L-440,362 L-430,352 L-422,345 L-409,334 L-389,319 L-372,307 L-353,295 L-330,281 L-318,273 L-302,260 L-288,249 L-278,240 L-272,233 L-269,233 L-257,218 L-243,199 L-229,180 L-217,164 L-207,151 L-194,135 L-185,124 L-174,111 L-165,100 L-152,85 L-141,73 L-134,65 L-122,53 L-111,44 L-95,33 L-77,23 L-58,14 L-38,7 L-23,3 Z M-272,235 Z M-273,236 Z " fill="#000000" transform="translate(1180,464)"/>
<path d="M0,0 L1,3 L-1,4 Z " fill="#000000" transform="translate(910,693)"/>
<path d="M0,0 Z " fill="#000000" transform="translate(1252,480)"/>
</svg>
