<?xml version="1.0" encoding="UTF-8"?>
<svg version="1.1" xmlns="http://www.w3.org/2000/svg" width="2500" height="3686">
<path d="M0,0 L19,1 L36,5 L49,12 L56,18 L59,22 L67,15 L77,11 L86,11 L86,9 L99,9 L118,12 L142,20 L158,28 L168,34 L178,42 L197,61 L206,72 L217,87 L226,103 L232,114 L235,123 L243,145 L249,161 L255,188 L258,202 L260,223 L261,225 L262,240 L270,266 L273,271 L273,273 L275,273 L282,284 L286,288 L290,294 L290,296 L294,298 L299,305 L306,311 L313,319 L318,325 L324,330 L328,334 L333,339 L339,344 L345,351 L351,356 L358,364 L367,373 L371,379 L376,384 L380,390 L384,394 L386,399 L389,400 L394,408 L398,414 L398,416 L400,416 L405,425 L409,432 L409,435 L411,435 L422,458 L427,469 L431,483 L433,490 L434,500 L435,502 L436,517 L435,533 L431,551 L427,559 L416,573 L407,581 L392,590 L376,597 L363,602 L357,602 L357,604 L340,609 L324,614 L321,615 L321,617 L313,622 L312,624 L304,623 L298,622 L299,618 L314,605 L321,599 L330,587 L331,585 L333,585 L334,580 L338,570 L342,558 L343,536 L342,528 L340,522 L339,509 L337,509 L337,503 L335,503 L331,490 L327,481 L327,478 L325,478 L321,469 L317,461 L319,497 L319,503 L320,504 L320,538 L319,546 L319,555 L317,565 L315,570 L314,575 L312,575 L311,583 L303,599 L297,609 L295,609 L294,613 L283,632 L281,635 L279,635 L278,639 L271,648 L261,656 L254,660 L248,664 L236,668 L224,669 L207,669 L196,667 L185,663 L174,659 L165,653 L158,648 L153,649 L139,655 L120,659 L93,659 L76,656 L60,651 L54,648 L39,648 L26,647 L8,643 L-5,638 L-16,631 L-26,622 L-26,620 L-30,618 L-34,613 L-36,605 L-36,596 L-38,588 L-37,571 L-32,572 L-31,576 L-29,581 L-27,581 L-20,592 L-15,595 L-5,601 L6,604 L19,604 L30,603 L46,596 L58,588 L66,582 L69,577 L73,570 L60,575 L53,577 L29,577 L16,573 L6,568 L-2,561 L-9,551 L-15,538 L-15,536 L-7,537 L1,543 L19,549 L29,551 L39,551 L47,546 L50,539 L53,517 L54,502 L57,486 L60,482 L62,476 L75,468 L80,465 L83,465 L83,463 L95,456 L105,447 L116,438 L125,430 L129,424 L134,419 L141,403 L145,396 L171,388 L192,378 L207,365 L213,357 L220,348 L223,327 L224,322 L224,300 L225,297 L222,289 L221,288 L213,288 L194,294 L186,295 L188,291 L190,288 L190,285 L176,281 L173,279 L162,276 L150,270 L143,266 L134,260 L125,254 L115,243 L108,234 L103,230 L93,217 L85,205 L81,197 L77,190 L77,188 L75,188 L66,168 L59,147 L53,120 L47,95 L42,83 L42,81 L28,80 L16,83 L15,87 L13,111 L8,137 L1,158 L-7,174 L-17,190 L-26,201 L-38,214 L-51,225 L-66,235 L-86,246 L-110,256 L-137,265 L-146,267 L-163,269 L-173,278 L-182,288 L-192,303 L-206,330 L-211,343 L-215,357 L-214,362 L-200,372 L-195,376 L-185,380 L-182,387 L-177,400 L-170,413 L-147,436 L-123,452 L-116,457 L-110,481 L-105,511 L-102,530 L-101,532 L-99,556 L-99,565 L-104,580 L-115,590 L-123,597 L-135,607 L-143,614 L-142,619 L-135,631 L-135,633 L-132,634 L-123,647 L-117,651 L-107,659 L-98,665 L-87,671 L-75,677 L-75,680 L-86,679 L-99,674 L-104,671 L-112,672 L-119,674 L-132,674 L-143,671 L-153,669 L-168,663 L-180,657 L-191,648 L-195,647 L-191,654 L-186,659 L-182,664 L-172,671 L-156,677 L-143,680 L-135,683 L-135,686 L-146,688 L-156,688 L-169,683 L-177,683 L-201,675 L-212,668 L-219,661 L-226,666 L-237,670 L-254,673 L-269,673 L-279,670 L-291,664 L-296,660 L-304,649 L-314,644 L-315,643 L-325,641 L-333,637 L-337,634 L-337,632 L-343,632 L-359,624 L-369,616 L-375,608 L-379,602 L-387,587 L-391,573 L-393,557 L-393,546 L-392,532 L-386,507 L-382,496 L-380,496 L-378,490 L-369,474 L-365,467 L-372,475 L-374,475 L-375,479 L-380,483 L-387,491 L-400,508 L-402,508 L-404,513 L-411,529 L-415,544 L-418,558 L-419,575 L-417,591 L-412,605 L-411,609 L-407,611 L-400,619 L-387,627 L-387,629 L-383,630 L-383,633 L-393,634 L-405,628 L-414,619 L-420,615 L-430,607 L-430,605 L-434,603 L-438,598 L-441,595 L-447,588 L-451,581 L-459,567 L-464,554 L-467,547 L-468,536 L-470,536 L-470,528 L-472,528 L-475,505 L-475,491 L-473,475 L-469,464 L-467,458 L-464,451 L-458,440 L-452,433 L-447,428 L-441,423 L-438,419 L-433,416 L-423,410 L-412,400 L-408,397 L-406,397 L-405,394 L-400,390 L-397,386 L-394,385 L-388,377 L-383,372 L-378,366 L-376,366 L-375,363 L-370,358 L-356,339 L-346,326 L-344,326 L-342,322 L-336,314 L-332,307 L-323,296 L-310,278 L-296,259 L-282,239 L-269,220 L-256,202 L-240,179 L-228,160 L-216,144 L-202,125 L-188,106 L-175,91 L-163,78 L-147,62 L-136,53 L-124,43 L-107,32 L-88,22 L-64,13 L-40,6 L-20,2 Z M110,16 Z M113,17 Z M115,18 L120,22 L136,32 L146,38 L159,48 L171,59 L180,68 L193,85 L203,99 L213,118 L221,133 L226,146 L229,156 L230,159 L232,159 L234,168 L244,196 L246,198 L244,183 L239,163 L238,156 L234,146 L227,127 L221,113 L217,103 L205,85 L194,71 L187,62 L170,45 L155,34 L139,26 L122,19 Z M8,85 L-3,91 L-9,101 L-15,115 L-24,136 L-33,152 L-43,167 L-54,181 L-66,195 L-86,215 L-97,224 L-110,234 L-125,244 L-143,254 L-149,257 L-146,258 L-113,247 L-90,237 L-71,227 L-54,215 L-43,205 L-38,201 L-31,193 L-18,176 L-8,158 L0,137 L5,116 L9,89 Z M50,90 Z M51,92 Z M52,93 L53,95 Z M53,95 L54,97 Z M54,97 L56,106 L63,136 L70,159 L80,182 L89,198 L93,203 L91,193 L87,178 L85,167 L77,143 L71,132 L69,129 L66,119 L55,97 Z M-15,98 Z M-16,99 L-29,109 L-41,121 L-55,146 L-70,170 L-81,185 L-89,195 L-98,205 L-105,213 L-118,225 L-131,235 L-129,236 L-114,226 L-101,216 L-87,204 L-63,180 L-54,169 L-40,150 L-28,129 L-18,108 L-15,99 Z M-92,185 Z M-93,186 Z M-94,187 Z M-95,188 Z M98,188 Z M-96,189 Z M-97,190 Z M99,190 L102,200 L108,215 L116,229 L123,238 L125,238 L127,242 L135,250 L141,254 L150,259 L153,262 L162,266 L174,272 L177,271 L163,263 L158,260 L150,253 L141,246 L136,241 L128,232 L117,218 L102,193 Z M-98,191 L-110,202 L-123,212 L-141,225 L-165,241 L-173,247 L-171,248 L-150,237 L-135,227 L-121,216 L-109,205 L-97,193 Z M246,198 L247,200 Z M93,203 Z M-133,236 L-134,238 L-131,237 Z M-136,238 Z M-137,239 Z M-139,240 Z M-140,241 Z M-142,242 Z M-175,248 Z M-176,249 Z M-151,258 Z M177,272 L177,273 L183,273 L183,272 Z M183,273 Z M186,274 Z M188,275 Z M191,276 L192,278 L195,277 Z M276,287 Z M277,288 L279,298 L281,298 L283,307 L287,316 L289,320 L297,339 L301,348 L303,348 L305,357 L307,357 L308,362 L310,362 L310,365 L312,365 L313,370 L320,383 L325,391 L328,396 L336,410 L340,416 L341,419 L343,419 L345,426 L348,431 L356,448 L364,467 L367,475 L372,493 L373,503 L375,513 L375,525 L374,540 L371,552 L366,564 L361,574 L352,588 L338,603 L340,604 L350,598 L354,597 L354,595 L360,594 L360,592 L367,591 L372,588 L388,580 L398,575 L404,570 L408,568 L421,550 L424,544 L427,528 L427,511 L426,498 L424,487 L422,481 L420,475 L417,465 L410,450 L402,434 L397,425 L390,415 L385,407 L383,407 L381,401 L373,391 L371,391 L369,386 L362,379 L356,372 L351,367 L346,361 L338,354 L330,347 L325,342 L320,336 L315,331 L310,326 L305,321 L296,311 L290,304 L281,293 Z M-360,459 Z M315,459 Z M-361,460 Z M-362,462 Z M-363,463 L-363,466 Z M74,567 Z M336,604 Z M335,605 Z M243,622 Z M-337,623 Z M241,623 Z M-330,623 L-336,624 L-331,629 L-326,632 L-329,623 Z M239,624 Z M236,625 L228,629 L212,633 L206,636 L192,638 L192,639 L209,639 L219,636 L230,632 L239,626 Z M-326,632 Z M-325,633 Z M-197,643 L-196,645 Z " fill="#000000" transform="translate(1206,473)"/>
<path d="M0,0 L24,0 L45,3 L59,8 L73,16 L73,18 L64,15 L49,10 L35,8 L8,8 L-16,11 L-39,17 L-63,27 L-86,39 L-101,49 L-115,60 L-139,84 L-146,92 L-158,106 L-169,119 L-178,130 L-190,144 L-201,158 L-215,176 L-229,195 L-243,214 L-257,232 L-265,242 L-276,255 L-283,263 L-292,273 L-306,288 L-322,303 L-330,310 L-335,313 L-348,323 L-353,327 L-360,330 L-367,335 L-376,340 L-381,342 L-388,346 L-396,350 L-408,356 L-414,359 L-422,363 L-430,367 L-440,373 L-448,378 L-457,384 L-460,385 L-461,388 L-472,397 L-478,404 L-480,404 L-481,407 L-483,407 L-485,411 L-497,430 L-501,441 L-504,448 L-507,462 L-508,472 L-506,488 L-499,522 L-499,527 L-497,527 L-495,532 L-495,536 L-493,536 L-490,543 L-485,552 L-479,562 L-476,567 L-470,578 L-462,590 L-462,592 L-466,591 L-477,580 L-483,572 L-485,571 L-488,565 L-488,563 L-490,563 L-492,560 L-494,560 L-494,558 L-496,558 L-497,551 L-498,550 L-498,545 L-500,545 L-504,535 L-509,522 L-513,512 L-517,494 L-518,477 L-518,449 L-516,429 L-514,418 L-509,403 L-506,394 L-503,391 L-495,377 L-493,377 L-491,372 L-485,367 L-481,362 L-474,357 L-468,352 L-461,347 L-456,344 L-444,338 L-438,334 L-431,331 L-415,323 L-406,319 L-396,314 L-389,311 L-377,305 L-367,300 L-359,296 L-347,289 L-336,283 L-326,277 L-319,273 L-303,260 L-289,249 L-279,240 L-272,231 L-271,229 L-267,229 L-255,214 L-241,195 L-227,176 L-218,164 L-208,151 L-195,135 L-186,124 L-175,111 L-166,100 L-153,85 L-142,73 L-135,65 L-123,53 L-109,42 L-99,35 L-82,25 L-61,15 L-43,8 L-24,3 Z M-470,393 Z " fill="#000000" transform="translate(1180,464)"/>
</svg>
