<?xml version="1.0" encoding="UTF-8"?>
<svg version="1.1" xmlns="http://www.w3.org/2000/svg" width="2214" height="3264">
<path d="M0,0 L27,3 L79,13 L110,20 L129,26 L138,28 L154,36 L168,44 L179,51 L196,63 L204,69 L213,76 L228,89 L245,105 L262,122 L269,130 L277,138 L284,146 L293,157 L298,162 L307,173 L316,183 L321,190 L322,203 L328,223 L332,235 L341,255 L351,274 L357,283 L357,286 L359,286 L364,295 L377,312 L382,317 L394,327 L406,333 L409,334 L422,334 L428,331 L434,308 L436,301 L443,302 L447,307 L449,322 L449,331 L447,344 L442,360 L434,376 L425,386 L414,392 L401,395 L377,395 L361,391 L351,385 L340,379 L322,368 L309,360 L292,350 L275,340 L253,327 L234,315 L219,305 L207,296 L197,288 L182,274 L166,259 L163,256 L162,260 L163,267 L163,273 L163,276 L160,276 L158,279 L157,269 L158,267 L158,257 L155,258 L155,294 L157,296 L159,302 L159,312 L156,313 L155,311 L155,360 L154,374 L152,375 L149,428 L148,468 L149,493 L153,529 L158,553 L162,570 L170,595 L177,614 L188,638 L196,654 L204,669 L211,681 L225,705 L229,713 L234,736 L233,742 L228,745 L217,754 L203,763 L184,772 L166,779 L141,787 L114,795 L88,802 L61,809 L34,815 L9,820 L-19,825 L-63,830 L-89,832 L-168,834 L-224,834 L-245,832 L-261,827 L-268,822 L-271,818 L-269,807 L-262,784 L-255,754 L-249,720 L-246,705 L-244,690 L-239,663 L-233,610 L-231,578 L-231,522 L-232,509 L-233,505 L-233,495 L-241,479 L-244,472 L-246,477 L-249,477 L-248,464 L-249,461 L-250,463 L-252,475 L-255,485 L-256,493 L-263,516 L-266,537 L-270,550 L-275,571 L-279,577 L-282,587 L-290,594 L-290,596 L-297,600 L-311,605 L-325,606 L-337,601 L-346,597 L-355,593 L-363,588 L-363,586 L-370,589 L-375,588 L-381,579 L-381,571 L-380,569 L-381,566 L-381,557 L-380,553 L-376,554 L-367,562 L-364,563 L-362,559 L-359,554 L-355,544 L-357,543 L-350,529 L-349,523 L-347,523 L-346,515 L-344,511 L-343,502 L-340,477 L-339,477 L-339,456 L-343,430 L-349,402 L-349,399 L-352,399 L-357,384 L-361,374 L-365,361 L-374,344 L-382,329 L-392,311 L-395,304 L-400,293 L-401,290 L-403,289 L-401,267 L-398,241 L-393,204 L-391,188 L-383,156 L-376,137 L-367,120 L-363,112 L-361,112 L-360,106 L-358,106 L-356,102 L-351,100 L-347,94 L-326,81 L-313,73 L-302,67 L-280,55 L-269,49 L-257,42 L-238,33 L-228,27 L-214,20 L-211,20 L-203,31 L-194,41 L-183,49 L-172,56 L-155,64 L-130,72 L-111,74 L-94,73 L-82,71 L-64,64 L-48,54 L-37,45 L-25,33 L-13,17 L-9,11 L-2,1 Z M155,247 Z M155,249 Z M159,271 L160,273 Z M148,373 L149,375 Z M148,384 Z M147,397 L147,404 L148,404 L148,397 Z M-379,572 Z M-380,573 Z " fill="#E6E9E9" transform="translate(1158,932)"/>
<path d="M0,0 L27,3 L79,13 L110,20 L129,26 L138,28 L154,36 L168,44 L179,51 L196,63 L204,69 L213,76 L228,89 L245,105 L262,122 L269,130 L277,138 L284,146 L293,157 L298,162 L307,173 L316,183 L321,190 L322,203 L328,223 L332,235 L341,255 L351,274 L357,283 L357,286 L359,286 L364,295 L377,312 L382,317 L394,327 L406,333 L409,334 L422,334 L428,331 L434,308 L436,301 L443,302 L447,307 L449,322 L449,331 L447,344 L442,360 L434,376 L425,386 L414,392 L401,395 L377,395 L361,391 L351,385 L340,379 L322,368 L309,360 L292,350 L275,340 L253,327 L234,315 L219,305 L207,296 L197,288 L182,274 L166,259 L163,256 L162,260 L163,267 L163,273 L163,276 L160,276 L158,279 L157,269 L158,267 L158,257 L155,258 L155,294 L157,296 L159,302 L159,312 L156,313 L155,311 L155,360 L154,374 L152,375 L149,428 L148,468 L149,493 L153,529 L158,553 L162,570 L170,595 L177,614 L188,638 L196,654 L204,669 L211,681 L225,705 L229,713 L234,736 L233,742 L228,745 L217,754 L203,763 L184,772 L166,779 L141,787 L114,795 L88,802 L61,809 L34,815 L9,820 L-19,825 L-63,830 L-89,832 L-168,834 L-224,834 L-245,832 L-261,827 L-268,822 L-271,818 L-269,807 L-262,784 L-255,754 L-249,720 L-246,705 L-244,690 L-239,663 L-233,610 L-231,578 L-231,522 L-232,509 L-233,505 L-233,495 L-241,479 L-244,472 L-246,477 L-249,477 L-248,464 L-250,459 L-252,459 L-253,461 L-253,457 L-255,457 L-255,454 L-251,454 L-256,441 L-259,431 L-264,418 L-267,408 L-271,398 L-275,385 L-279,374 L-282,362 L-286,352 L-290,336 L-296,314 L-300,297 L-308,264 L-310,258 L-311,247 L-309,248 L-305,264 L-301,280 L-295,301 L-291,317 L-287,329 L-284,341 L-279,355 L-275,368 L-269,386 L-263,403 L-256,421 L-253,431 L-248,444 L-244,456 L-241,461 L-237,471 L-226,494 L-219,508 L-210,525 L-204,542 L-202,546 L-203,549 L-207,544 L-215,527 L-218,521 L-218,517 L-221,516 L-229,501 L-228,511 L-225,526 L-225,531 L-223,531 L-223,587 L-225,622 L-231,670 L-235,692 L-237,705 L-245,743 L-250,765 L-255,780 L-257,788 L-263,803 L-266,812 L-269,818 L-258,821 L-243,824 L-234,825 L-140,825 L-84,822 L-42,819 L-18,816 L7,811 L32,806 L46,803 L63,799 L77,796 L89,793 L102,789 L112,787 L131,781 L140,779 L161,772 L169,770 L189,763 L200,758 L210,753 L222,745 L229,740 L231,740 L227,724 L221,713 L211,696 L203,683 L193,666 L187,655 L177,634 L170,618 L163,601 L159,588 L154,572 L148,549 L141,506 L140,490 L140,423 L141,409 L143,409 L143,371 L145,331 L145,246 L144,235 L143,217 L139,187 L138,169 L140,172 L145,193 L150,228 L151,238 L161,246 L171,255 L183,266 L198,280 L209,289 L222,299 L239,310 L252,318 L265,326 L274,332 L285,338 L309,352 L332,366 L345,374 L359,382 L370,387 L378,388 L398,388 L411,386 L420,381 L428,372 L432,366 L436,356 L439,349 L442,333 L442,326 L438,332 L430,338 L423,341 L407,341 L391,333 L380,324 L371,315 L363,305 L355,294 L351,287 L343,273 L335,257 L332,252 L327,238 L322,222 L317,203 L316,192 L306,182 L297,171 L286,159 L279,151 L270,141 L270,139 L268,139 L261,131 L224,94 L216,87 L202,76 L192,68 L177,58 L166,51 L147,40 L140,36 L134,35 L127,32 L110,27 L99,24 L84,21 L67,17 L50,14 L29,9 L13,6 L0,3 L-1,11 L-13,29 L-22,40 L-28,47 L-39,56 L-47,62 L-60,70 L-79,78 L-97,81 L-118,81 L-137,78 L-155,71 L-163,68 L-179,59 L-191,50 L-202,39 L-212,25 L-212,23 L-221,28 L-232,35 L-247,44 L-264,54 L-275,60 L-296,72 L-313,82 L-328,91 L-339,98 L-341,98 L-341,100 L-345,104 L-353,104 L-351,100 L-347,94 L-326,81 L-313,73 L-302,67 L-280,55 L-269,49 L-257,42 L-238,33 L-228,27 L-214,20 L-211,20 L-203,31 L-194,41 L-183,49 L-172,56 L-155,64 L-130,72 L-111,74 L-94,73 L-82,71 L-64,64 L-48,54 L-37,45 L-25,33 L-13,17 L-9,11 L-2,1 Z M155,247 Z M155,249 Z M159,271 L160,273 Z M148,373 L149,375 Z M148,384 Z M147,397 L147,404 L148,404 L148,397 Z " fill="#3F4243" transform="translate(1158,932)"/>
<path d="M0,0 L27,3 L79,13 L110,20 L129,26 L138,28 L154,36 L168,44 L179,51 L196,63 L204,69 L213,76 L228,89 L245,105 L262,122 L269,130 L277,138 L284,146 L293,157 L298,162 L307,173 L316,183 L321,190 L322,203 L328,223 L332,235 L341,255 L351,274 L357,283 L357,286 L359,286 L364,295 L377,312 L382,317 L394,327 L406,333 L409,334 L422,334 L428,331 L434,308 L436,301 L443,302 L447,307 L449,322 L449,331 L447,344 L442,360 L434,376 L425,386 L414,392 L401,395 L377,395 L361,391 L351,385 L340,379 L322,368 L309,360 L292,350 L275,340 L253,327 L234,315 L219,305 L207,296 L197,288 L182,274 L166,259 L159,252 L156,250 L156,247 L153,247 L148,242 L146,241 L144,235 L143,217 L139,187 L138,169 L140,172 L145,193 L150,228 L151,238 L161,246 L171,255 L183,266 L198,280 L209,289 L222,299 L239,310 L252,318 L265,326 L274,332 L285,338 L309,352 L332,366 L345,374 L359,382 L370,387 L378,388 L398,388 L411,386 L420,381 L428,372 L432,366 L436,356 L439,349 L442,333 L442,326 L438,332 L430,338 L423,341 L407,341 L391,333 L380,324 L371,315 L363,305 L355,294 L351,287 L343,273 L335,257 L332,252 L327,238 L322,222 L317,203 L316,192 L306,182 L297,171 L286,159 L279,151 L270,141 L270,139 L268,139 L261,131 L224,94 L216,87 L202,76 L192,68 L177,58 L166,51 L147,40 L140,36 L134,35 L127,32 L110,27 L99,24 L84,21 L67,17 L50,14 L29,9 L13,6 L0,3 L-1,11 L-13,29 L-22,40 L-28,47 L-39,56 L-47,62 L-60,70 L-79,78 L-97,81 L-118,81 L-137,78 L-155,71 L-163,68 L-179,59 L-191,50 L-202,39 L-212,25 L-212,23 L-221,28 L-232,35 L-247,44 L-264,54 L-275,60 L-296,72 L-313,82 L-328,91 L-339,98 L-341,98 L-341,100 L-345,104 L-353,104 L-351,100 L-347,94 L-326,81 L-313,73 L-302,67 L-280,55 L-269,49 L-257,42 L-238,33 L-228,27 L-214,20 L-211,20 L-203,31 L-194,41 L-183,49 L-172,56 L-155,64 L-130,72 L-111,74 L-94,73 L-82,71 L-64,64 L-48,54 L-37,45 L-25,33 L-13,17 L-9,11 L-2,1 Z " fill="#131414" transform="translate(1158,932)"/>
<path d="M0,0 L3,0 L2,5 L-1,18 L-5,27 L-9,46 L-11,52 L-18,98 L-19,99 L-21,128 L-23,139 L-24,141 L-25,153 L-26,158 L-19,173 L-19,175 L-17,175 L-8,194 L-2,203 L12,230 L21,249 L26,264 L30,276 L34,297 L37,311 L38,325 L38,336 L40,336 L40,374 L38,392 L37,413 L34,429 L30,441 L22,451 L14,456 L18,459 L22,460 L22,462 L28,464 L38,468 L43,470 L55,470 L69,467 L79,459 L85,447 L89,437 L91,423 L98,401 L100,391 L106,369 L110,354 L115,336 L119,334 L118,351 L116,358 L114,369 L109,384 L105,409 L101,422 L96,443 L92,449 L89,459 L81,466 L81,468 L74,472 L60,477 L46,478 L34,473 L25,469 L16,465 L8,460 L8,458 L1,461 L-4,460 L-10,451 L-10,443 L-9,441 L-10,438 L-10,429 L-9,425 L-5,426 L4,434 L7,435 L9,431 L12,426 L16,416 L14,415 L21,401 L22,395 L24,395 L25,387 L27,383 L28,374 L31,349 L32,349 L32,328 L28,302 L22,274 L22,271 L19,271 L14,256 L10,246 L6,233 L-3,216 L-11,201 L-21,183 L-24,176 L-29,165 L-30,162 L-32,161 L-30,139 L-27,113 L-22,76 L-20,60 L-12,28 L-5,9 Z M-8,444 Z M-9,445 Z " fill="#3D4041" transform="translate(787,1060)"/>
<path d="M0,0 L2,3 L7,24 L12,59 L13,69 L23,77 L33,86 L45,97 L60,111 L71,120 L84,130 L101,141 L114,149 L127,157 L136,163 L147,169 L171,183 L194,197 L207,205 L221,213 L232,218 L240,219 L260,219 L273,217 L282,212 L290,203 L294,197 L298,187 L301,180 L304,164 L304,157 L300,163 L292,169 L285,172 L269,172 L253,164 L242,155 L233,146 L225,136 L217,125 L213,118 L205,104 L197,88 L194,83 L189,69 L184,53 L179,34 L179,28 L182,27 L184,34 L190,54 L194,66 L203,86 L213,105 L219,114 L219,117 L221,117 L226,126 L239,143 L244,148 L256,158 L268,164 L271,165 L284,165 L290,162 L296,139 L298,132 L305,133 L309,138 L311,153 L311,162 L309,175 L304,191 L296,207 L287,217 L276,223 L263,226 L239,226 L223,222 L213,216 L202,210 L184,199 L171,191 L154,181 L137,171 L115,158 L96,146 L81,136 L69,127 L59,119 L44,105 L28,90 L21,83 L18,81 L18,78 L15,78 L10,73 L8,72 L6,66 L5,48 L1,18 Z " fill="#191B1C" transform="translate(1296,1101)"/>
<path d="M0,0 L1,3 L6,5 L8,9 L11,10 L16,15 L17,16 L17,22 L18,29 L18,35 L18,38 L15,38 L13,41 L12,31 L13,29 L13,19 L10,20 L10,56 L12,58 L14,64 L14,74 L11,75 L10,73 L10,122 L9,136 L7,137 L4,190 L3,230 L4,255 L8,291 L13,315 L17,332 L25,357 L32,376 L43,400 L51,416 L59,431 L66,443 L80,467 L84,475 L89,498 L88,504 L85,504 L85,497 L82,486 L76,475 L66,458 L58,445 L48,428 L42,417 L32,396 L25,380 L18,363 L14,350 L9,334 L3,311 L-4,268 L-5,252 L-5,185 L-4,171 L-2,171 L-2,133 L0,93 Z M14,33 L15,35 Z M3,135 L4,137 Z M3,146 Z M2,159 L2,166 L3,166 L3,159 Z " fill="#3B3E40" transform="translate(1303,1170)"/>
<path d="M0,0 L3,0 L2,5 L-1,18 L-5,27 L-9,46 L-11,52 L-18,98 L-19,99 L-21,128 L-23,139 L-24,141 L-25,153 L-26,158 L-19,173 L-19,175 L-17,175 L-8,194 L-2,203 L12,230 L21,249 L26,264 L30,276 L34,297 L37,311 L38,325 L38,336 L40,336 L40,374 L38,392 L37,413 L34,429 L31,436 L26,435 L27,428 L29,421 L33,381 L33,350 L32,328 L28,302 L22,274 L22,271 L19,271 L14,256 L10,246 L6,233 L-3,216 L-11,201 L-21,183 L-24,176 L-29,165 L-30,162 L-32,161 L-30,139 L-27,113 L-22,76 L-20,60 L-12,28 L-5,9 Z " fill="#212324" transform="translate(787,1060)"/>
<path d="M0,0 L7,1 L23,9 L37,17 L48,24 L65,36 L73,42 L82,49 L97,62 L114,78 L131,95 L138,103 L146,111 L153,119 L162,130 L167,135 L176,146 L185,156 L190,163 L190,168 L186,170 L184,164 L175,155 L166,144 L155,132 L148,124 L139,114 L139,112 L137,112 L130,104 L93,67 L85,60 L71,49 L61,41 L46,31 L35,24 L16,13 L9,9 L3,8 L-3,5 L-1,4 Z " fill="#080808" transform="translate(1289,959)"/>
<path d="M0,0 L1,3 L6,5 L8,9 L11,10 L16,15 L17,16 L17,22 L18,29 L18,35 L18,38 L15,38 L13,41 L12,31 L13,29 L13,19 L10,20 L10,56 L12,58 L14,64 L14,74 L11,75 L10,73 L10,122 L9,136 L7,137 L6,146 L4,147 L4,155 L2,160 L-2,159 L-2,133 L0,93 Z M14,33 L15,35 Z M3,135 L4,137 Z " fill="#232425" transform="translate(1303,1170)"/>
<path d="M0,0 L3,0 L2,5 L-1,18 L-5,27 L-9,46 L-11,52 L-18,98 L-19,99 L-21,128 L-23,139 L-24,141 L-25,153 L-26,158 L-19,173 L-19,175 L-17,175 L-12,185 L-12,189 L-17,190 L-21,183 L-24,176 L-29,165 L-30,162 L-32,161 L-30,139 L-27,113 L-22,76 L-20,60 L-12,28 L-5,9 Z " fill="#131415" transform="translate(787,1060)"/>
<path d="M0,0 L3,1 L3,32 L-1,72 L-6,88 L-12,97 L-15,98 L-18,95 L-18,93 L-20,93 L-25,86 L-19,77 L-15,67 L-17,66 L-10,52 L-9,46 L-7,46 L-6,38 L-4,34 L-3,25 Z " fill="#CBCED0" transform="translate(818,1409)"/>
<path d="M0,0 L2,1 L6,17 L10,33 L16,54 L20,70 L24,82 L27,94 L32,108 L36,121 L42,139 L48,156 L55,174 L58,184 L63,197 L67,209 L70,214 L70,217 L67,218 L64,217 L61,212 L59,212 L58,214 L58,210 L56,210 L56,207 L60,207 L55,194 L52,184 L47,171 L44,161 L40,151 L36,138 L32,127 L29,115 L25,105 L21,89 L15,67 L11,50 L3,17 L1,11 Z M66,218 Z " fill="#383A3B" transform="translate(847,1179)"/>
<path d="M0,0 L2,1 L2,3 L5,4 L10,9 L11,10 L11,16 L12,23 L12,29 L12,32 L9,32 L7,35 L6,25 L7,23 L7,13 L4,14 L4,50 L6,52 L8,58 L8,68 L5,69 L4,67 L4,116 L3,130 L-1,131 L-1,118 L1,71 L1,55 Z M8,27 L9,29 Z " fill="#F1F5F5" transform="translate(1309,1176)"/>
<path d="M0,0 L7,0 L16,17 L23,31 L26,38 L38,61 L44,78 L46,82 L45,85 L41,80 L33,63 L30,57 L30,53 L27,52 L19,37 L16,39 L14,29 L7,15 L4,8 L2,13 L-1,13 Z M3,1 Z " fill="#363839" transform="translate(910,1396)"/>
<path d="M0,0 L5,2 L5,4 L9,5 L5,6 L6,10 L9,11 L6,12 L5,18 L1,20 L3,20 L4,23 L7,25 L6,30 L2,35 L0,35 L-3,32 L-3,30 L-5,30 L-10,23 L-4,14 L0,4 L-2,3 Z " fill="#B7BABC" transform="translate(803,1472)"/>
<path d="M0,0 L4,1 L13,9 L20,15 L20,17 L22,17 L22,19 L25,20 L24,27 L23,23 L19,21 L8,12 L5,8 L5,6 L2,6 L5,12 L7,19 L11,25 L9,26 L14,31 L8,29 L3,23 L-1,13 L-1,4 Z " fill="#373C3D" transform="translate(778,1485)"/>
<path d="M0,0 L3,1 L3,32 L2,43 L0,43 L-1,46 L-3,46 L-7,48 L-9,46 L-7,46 L-6,38 L-4,34 L-3,25 Z " fill="#AFB4B6" transform="translate(818,1409)"/>
<path d="M0,0 L3,0 L3,2 L10,2 L6,8 L1,13 L-2,14 L-4,19 L-7,25 L-14,37 L-15,34 L-12,26 L-15,25 L-8,13 L-7,10 L-5,10 L-4,4 L-2,4 Z " fill="#9B9C9C" transform="translate(802,1034)"/>
<path d="M0,0 L2,1 L6,17 L10,33 L16,54 L20,70 L24,82 L23,86 L22,83 L20,86 L15,67 L11,50 L3,17 L1,11 Z " fill="#3A3C3D" transform="translate(847,1179)"/>
<path d="M0,0 L3,4 L13,23 L19,40 L21,44 L20,47 L16,42 L8,25 L5,19 L5,15 L2,14 L-3,4 Z " fill="#434648" transform="translate(935,1434)"/>
<path d="M0,0 L3,0 L6,4 L6,6 L10,8 L19,16 L21,17 L21,21 L10,21 L3,12 L1,4 Z " fill="#6F7A7C" transform="translate(780,1491)"/>
<path d="M0,0 L1,0 L3,17 L3,45 L2,59 L-2,60 L-2,47 Z " fill="#D3D5D6" transform="translate(1310,1247)"/>
<path d="M0,0 L4,0 L3,3 L-2,6 L-3,9 L-9,13 L-11,13 L-11,15 L-15,19 L-23,19 L-21,15 L-17,10 L-13,9 Z " fill="#060606" transform="translate(828,1017)"/>
<path d="M0,0 L5,2 L5,4 L9,5 L5,6 L6,10 L9,11 L6,12 L5,18 L-2,19 L-4,15 L-1,6 L0,4 L-2,3 Z " fill="#C4C5C6" transform="translate(803,1472)"/>
<path d="M0,0 L5,5 L9,10 L17,14 L14,17 L7,18 L0,8 Z M1,2 Z " fill="#CBCCCC" transform="translate(777,1503)"/>
<path d="M0,0 L3,0 L4,5 L4,12 L0,21 L-2,25 L-5,24 L-2,14 Z " fill="#666F72" transform="translate(1596,1235)"/>
<path d="M0,0 L2,0 L7,9 L7,12 L4,13 L1,12 L-2,7 L-4,7 L-5,9 L-5,5 L-7,5 L-7,2 Z M3,13 Z " fill="#393C3D" transform="translate(910,1384)"/>
<path d="M0,0 L3,0 L3,2 L10,2 L6,7 L1,7 L-1,11 L-5,12 L-4,4 L-2,4 Z " fill="#333333" transform="translate(802,1034)"/>
<path d="M0,0 L2,3 L7,24 L6,28 L6,25 L4,25 L4,32 L3,32 L0,7 Z " fill="#252627" transform="translate(1296,1101)"/>
<path d="M0,0 L3,4 L8,14 L8,16 L5,17 L5,15 L2,14 L-3,4 Z " fill="#3C3F40" transform="translate(935,1434)"/>
<path d="M0,0 L2,3 L7,17 L7,23 L5,24 L0,9 Z " fill="#212323" transform="translate(868,1259)"/>
<path d="M0,0 L2,1 L6,17 L9,27 L8,33 L6,29 L1,11 Z " fill="#5C5E5E" transform="translate(847,1179)"/>
<path d="M0,0 L4,5 L6,9 L7,13 L6,17 L4,17 L4,22 L2,21 L0,8 Z M4,13 Z " fill="#E3E4E6" transform="translate(1316,1214)"/>
<path d="M0,0 L2,0 L4,8 L4,19 L3,21 L1,21 L0,14 Z " fill="#141516" transform="translate(1300,1126)"/>
<path d="M0,0 L1,0 L0,14 L-3,25 L-6,34 L-7,30 L-1,4 Z " fill="#E1E7E7" transform="translate(893,1451)"/>
<path d="M0,0 L1,0 L3,17 L3,27 L1,28 L0,36 L-1,36 Z " fill="#E0E1E1" transform="translate(1310,1247)"/>
<path d="M0,0 L2,4 L3,9 L3,20 L0,20 L-1,7 L-2,3 Z " fill="#353839" transform="translate(927,1434)"/>
<path d="M0,0 L1,2 L-1,12 L-5,19 L-6,16 L-3,8 L-6,7 L-2,1 Z " fill="#7B7C7C" transform="translate(793,1052)"/>
<path d="M0,0 L5,0 L-1,7 L-7,9 L-9,10 L-8,3 L-6,3 L-6,5 L-1,2 Z " fill="#A5A5A5" transform="translate(803,1041)"/>
<path d="M0,0 L3,0 L8,12 L7,15 L3,10 L0,4 Z " fill="#4C4F51" transform="translate(948,1466)"/>
<path d="M0,0 L4,0 L4,10 L0,11 L0,13 L-2,13 Z " fill="#D3D9C9" transform="translate(816,1427)"/>
<path d="M0,0 L2,1 L2,3 L5,4 L8,8 L6,8 L6,10 L2,11 L0,10 Z " fill="#EAECEC" transform="translate(1309,1176)"/>
<path d="M0,0 L1,0 L1,14 L0,11 L-3,11 L-4,9 L-6,8 L-4,4 L-1,3 Z " fill="#D0D3DD" transform="translate(819,1438)"/>
<path d="M0,0 L1,0 L2,8 L7,11 L8,17 L1,13 L-1,7 Z " fill="#0A0A0A" transform="translate(1303,1160)"/>
<path d="M0,0 L2,0 L3,3 L3,12 L0,14 L-1,10 Z " fill="#DCDFE1" transform="translate(910,1396)"/>
<path d="M0,0 L1,4 L0,6 L-2,18 L-3,18 L-2,5 L-5,6 L-3,2 L0,2 Z " fill="#8B9FA2" transform="translate(908,1389)"/>
<path d="M0,0 L2,2 L2,12 L-1,13 L-1,1 Z " fill="#EBEBEB" transform="translate(1315,1232)"/>
<path d="M0,0 L2,1 L2,9 L0,11 L-2,9 L-1,1 Z M-1,11 Z " fill="#F2F2F1" transform="translate(1311,1274)"/>
<path d="M0,0 L3,0 L1,4 L-4,10 L-5,7 L-4,4 L-2,4 Z " fill="#F2F3F3" transform="translate(802,1034)"/>
<path d="M0,0 L2,4 L2,8 L0,9 L-1,17 L-2,17 L-2,7 Z " fill="#C5CAD5" transform="translate(1311,1266)"/>
<path d="M0,0 L2,2 L4,9 L4,14 L1,12 Z " fill="#313333" transform="translate(855,1210)"/>
<path d="M0,0 L4,5 L5,9 L3,9 L1,12 L0,7 Z " fill="#C7CACB" transform="translate(928,1431)"/>
<path d="M0,0 L3,0 L5,6 L4,10 L2,11 Z " fill="#525354" transform="translate(857,1223)"/>
<path d="M0,0 L3,1 L3,10 L1,10 L0,8 Z " fill="#DBDDDF" transform="translate(818,1409)"/>
<path d="M0,0 L1,0 L1,6 L-1,6 L-2,8 L-2,4 L-4,4 L-4,1 Z " fill="#252727" transform="translate(907,1385)"/>
<path d="M0,0 L2,3 L1,8 L-1,10 L-3,5 L-2,2 L-1,3 Z " fill="#3B3D3E" transform="translate(875,1279)"/>
<path d="M0,0 L4,1 L3,8 L1,11 Z " fill="#F9F9F9" transform="translate(1314,1249)"/>
<path d="M0,0 L2,0 L2,9 L-1,10 L-1,1 Z " fill="#F8FFFF" transform="translate(1310,1297)"/>
<path d="M0,0 L4,5 L2,11 L0,8 Z " fill="#F5EBEB" transform="translate(1316,1214)"/>
<path d="M0,0 L2,0 L3,3 L6,5 L5,10 L3,8 L0,2 Z " fill="#BFC7C9" transform="translate(804,1492)"/>
<path d="M0,0 L1,2 L4,3 L2,8 L-1,7 Z " fill="#B9BDBE" transform="translate(816,1435)"/>
<path d="M0,0 L3,0 L2,7 L0,9 L-2,10 Z " fill="#D6DCD9" transform="translate(816,1430)"/>
<path d="M0,0 L5,0 L5,5 L2,5 L1,3 L-1,2 Z " fill="#CBCDCF" transform="translate(814,1444)"/>
<path d="M0,0 L3,2 L3,8 L0,8 Z " fill="#E3E6E6" transform="translate(817,1418)"/>
<path d="M0,0 L2,0 L2,6 L0,5 L-2,7 L-2,2 Z " fill="#171819" transform="translate(904,1394)"/>
<path d="M0,0 L1,2 L-1,5 L-2,10 L-5,7 Z " fill="#D8D8D9" transform="translate(798,1488)"/>
<path d="M0,0 L2,0 L3,7 L1,9 Z " fill="#4E5050" transform="translate(853,1203)"/>
<path d="M0,0 L3,1 L4,8 L2,9 Z " fill="#676969" transform="translate(850,1195)"/>
<path d="M0,0 L1,3 L-2,10 L-4,9 Z " fill="#BDC4C5" transform="translate(877,1510)"/>
<path d="M0,0 L4,3 L3,7 L1,7 Z M1,2 Z " fill="#929292" transform="translate(777,1503)"/>
<path d="M0,0 L5,4 L5,6 L2,7 L0,6 Z " fill="#A5A5A5" transform="translate(1309,1180)"/>
<path d="M0,0 L5,0 L-1,7 L-1,4 Z " fill="#B0B1B1" transform="translate(803,1041)"/>
<path d="M0,0 L1,4 L0,8 L-1,2 Z " fill="#FFFFFF" transform="translate(1320,1209)"/>
<path d="M0,0 Z " fill="#000000" transform="translate(1310,1336)"/>
<path d="M0,0 Z " fill="#000000" transform="translate(896,1466)"/>
<path d="M0,0 Z " fill="#000000" transform="translate(898,1458)"/>
<path d="M0,0 Z " fill="#000000" transform="translate(899,1455)"/>
<path d="M0,0 Z " fill="#7F7F7F" transform="translate(1313,1262)"/>
<path d="M0,0 Z " fill="#8080FF" transform="translate(1315,1211)"/>
<path d="M0,0 Z " fill="#FFFFFF" transform="translate(849,1542)"/>
<path d="M0,0 Z " fill="#000000" transform="translate(865,1529)"/>
<path d="M0,0 Z " fill="#000000" transform="translate(776,1500)"/>
<path d="M0,0 Z " fill="#000000" transform="translate(890,1482)"/>
<path d="M0,0 Z " fill="#000000" transform="translate(894,1472)"/>
<path d="M0,0 Z " fill="#000000" transform="translate(896,1464)"/>
<path d="M0,0 Z " fill="#000000" transform="translate(897,1463)"/>
<path d="M0,0 Z " fill="#000000" transform="translate(898,1462)"/>
<path d="M0,0 Z " fill="#000000" transform="translate(896,1462)"/>
<path d="M0,0 Z " fill="#000000" transform="translate(897,1460)"/>
<path d="M0,0 Z " fill="#000000" transform="translate(895,1459)"/>
<path d="M0,0 Z " fill="#000000" transform="translate(897,1457)"/>
<path d="M0,0 Z " fill="#000000" transform="translate(901,1440)"/>
<path d="M0,0 Z " fill="#FFFFFF" transform="translate(1318,1210)"/>
</svg>
