<?xml version="1.0" encoding="UTF-8"?>
<svg version="1.1" xmlns="http://www.w3.org/2000/svg" width="2500" height="3686">
<path d="M0,0 L2,0 L2,2 L4,2 L10,11 L14,16 L19,21 L24,25 L22,29 L20,31 L21,35 L29,30 L36,30 L41,34 L45,40 L53,37 L58,38 L65,46 L70,53 L81,55 L87,55 L95,64 L99,72 L102,61 L106,53 L110,49 L116,50 L120,46 L116,72 L115,72 L114,53 L113,79 L115,79 L112,110 L112,114 L116,115 L116,120 L121,117 L123,114 L124,114 L123,91 L123,75 L125,52 L128,51 L133,51 L137,50 L136,47 L132,47 L130,49 L130,44 L126,47 L121,45 L126,40 L132,37 L142,37 L150,36 L155,41 L162,51 L177,76 L179,81 L178,87 L176,90 L184,101 L186,105 L186,112 L183,116 L189,125 L191,129 L191,135 L190,138 L191,147 L186,153 L190,158 L194,168 L194,173 L201,184 L203,192 L200,199 L199,202 L204,211 L205,218 L202,223 L195,228 L190,230 L183,231 L180,233 L181,238 L184,247 L184,249 L186,251 L181,256 L177,261 L175,261 L174,264 L168,269 L166,269 L165,275 L161,277 L159,281 L156,282 L154,287 L152,287 L150,291 L142,291 L133,294 L129,297 L129,305 L120,314 L95,331 L72,347 L59,355 L53,355 L41,350 L39,349 L32,352 L29,353 L28,357 L18,362 L16,362 L16,364 L11,366 L5,371 L-6,375 L-13,376 L-18,378 L-17,372 L-24,375 L-29,374 L-31,372 L-32,374 L-37,372 L-44,368 L-47,367 L-69,365 L-77,362 L-84,360 L-106,357 L-124,357 L-130,359 L-137,359 L-147,354 L-156,346 L-160,340 L-160,338 L-166,336 L-174,329 L-182,321 L-188,312 L-186,306 L-183,299 L-180,284 L-175,276 L-171,272 L-168,262 L-164,258 L-153,237 L-150,231 L-148,225 L-137,206 L-133,198 L-127,188 L-122,183 L-115,179 L-109,176 L-108,178 L-108,180 L-105,179 L-108,164 L-107,159 L-106,157 L-104,157 L-101,148 L-98,144 L-92,143 L-90,138 L-82,118 L-80,110 L-74,97 L-72,83 L-65,75 L-54,66 L-59,56 L-59,51 L-50,43 L-35,34 L-27,30 L-20,31 L-18,29 L-15,22 L-10,18 L-8,15 L-7,6 L-2,4 Z M98,80 L94,84 L96,88 L96,95 L94,97 L93,111 L98,117 L103,115 L102,109 L100,98 L99,80 Z M-107,161 L-106,163 Z M-102,173 L-104,178 L-101,175 Z M-105,179 L-109,185 L-107,187 L-103,179 Z M-111,181 Z M-109,188 Z M-114,192 L-119,193 L-117,195 L-122,199 L-127,204 L-141,219 L-148,227 L-145,227 L-141,223 L-136,219 L-127,208 L-126,205 L-121,203 L-112,193 Z M-17,371 Z " fill="#1D0B04" transform="translate(874,3163)"/>
<path d="M0,0 L3,1 L5,9 L7,12 L19,14 L27,10 L32,9 L37,12 L40,16 L40,18 L49,16 L56,16 L60,17 L63,11 L65,12 L70,23 L72,32 L72,50 L68,57 L67,61 L69,61 L75,69 L78,75 L80,85 L78,89 L73,93 L71,93 L71,123 L76,131 L78,139 L78,144 L73,149 L75,155 L75,161 L73,163 L80,161 L83,156 L85,136 L87,90 L90,83 L91,72 L92,72 L94,78 L98,84 L97,89 L95,89 L96,96 L95,112 L92,145 L91,159 L90,202 L92,239 L93,255 L92,257 L82,257 L78,260 L78,269 L74,277 L72,277 L76,287 L77,294 L72,300 L70,301 L70,348 L73,359 L75,365 L71,370 L69,370 L68,374 L60,377 L55,381 L50,380 L45,384 L35,390 L28,390 L25,389 L26,386 L32,383 L34,381 L35,371 L37,367 L37,357 L35,354 L35,346 L29,349 L24,349 L16,353 L12,351 L11,354 L5,356 L0,360 L-12,362 L-22,364 L-31,364 L-40,365 L-48,363 L-72,360 L-102,356 L-112,354 L-117,350 L-120,346 L-127,346 L-133,341 L-140,329 L-140,327 L-146,325 L-155,318 L-168,306 L-169,305 L-169,299 L-166,293 L-166,278 L-171,277 L-178,269 L-182,261 L-183,248 L-177,241 L-179,232 L-180,226 L-176,220 L-171,218 L-175,209 L-175,202 L-169,196 L-167,196 L-171,186 L-170,179 L-165,174 L-163,174 L-167,164 L-167,158 L-159,151 L-160,145 L-161,138 L-158,133 L-156,124 L-157,121 L-157,114 L-151,107 L-153,101 L-155,97 L-155,87 L-148,81 L-147,73 L-151,71 L-154,67 L-159,55 L-157,50 L-154,47 L-152,47 L-155,41 L-155,33 L-151,27 L-147,24 L-145,11 L-143,10 L-132,10 L-128,12 L-113,4 L-107,4 L-108,8 L-108,19 L-108,20 L-106,26 L-102,19 L-100,18 L-85,17 L-71,20 L-63,25 L-58,23 L-48,17 L-39,15 L-32,16 L-16,22 L-9,30 L-6,15 L-1,7 Z M-115,15 L-116,17 L-113,18 L-114,15 Z M27,20 L27,22 L29,22 L29,20 Z M-103,32 L-104,34 L-100,33 Z M-107,34 L-108,38 L-105,36 L-105,34 Z M-7,34 L-7,35 L2,36 L2,34 Z M5,35 L6,37 L12,38 L13,36 Z M93,88 Z M92,89 Z " fill="#240D03" transform="translate(1385,3188)"/>
<path d="M0,0 L1,2 L-3,26 L-4,26 L-5,7 L-6,33 L-4,33 L-7,64 L-7,68 L-3,69 L-2,76 L-7,81 L4,75 L13,68 L20,61 L23,55 L25,55 L25,35 L22,24 L18,14 L18,9 L20,8 L28,15 L36,30 L43,49 L49,72 L54,93 L60,129 L61,144 L50,158 L41,168 L32,179 L22,190 L13,201 L6,208 L-1,216 L-12,228 L-20,235 L-33,245 L-48,254 L-65,262 L-92,271 L-111,276 L-140,281 L-172,284 L-207,284 L-228,282 L-246,278 L-267,270 L-283,260 L-289,255 L-288,241 L-281,222 L-271,203 L-261,189 L-250,176 L-233,159 L-232,161 L-235,170 L-235,180 L-231,186 L-217,193 L-201,197 L-182,199 L-157,199 L-126,196 L-109,192 L-99,187 L-89,177 L-77,157 L-75,157 L-74,151 L-72,146 L-66,148 L-54,153 L-48,154 L-48,156 L-46,156 L-44,151 L-31,130 L-25,118 L-25,112 L-29,106 L-43,98 L-51,94 L-49,88 L-43,77 L-38,79 L-30,83 L-24,84 L-14,84 L-12,78 L-15,79 L-27,79 L-37,76 L-41,74 L-37,58 L-34,44 L-33,32 L-36,22 L-43,16 L-59,8 L-63,5 L-57,6 L-43,11 L-32,18 L-25,24 L-25,65 L-21,70 L-16,69 L-19,58 L-20,52 L-20,30 L-18,17 L-13,7 L-9,3 L-3,4 Z " fill="#852C08" transform="translate(993,3209)"/>
<path d="M0,0 L12,0 L11,2 L3,6 L-3,14 L-7,27 L-8,34 L-8,56 L-4,70 L-1,93 L-1,100 L-12,116 L-22,144 L-23,152 L-15,146 L-4,137 L9,129 L11,129 L17,150 L24,166 L33,179 L42,185 L51,188 L59,189 L96,189 L111,187 L119,183 L126,173 L132,159 L141,131 L143,131 L141,140 L130,177 L124,186 L116,191 L109,193 L98,194 L71,194 L49,192 L38,188 L28,179 L20,165 L15,153 L10,135 L10,132 L8,132 L13,156 L18,169 L24,180 L31,188 L39,193 L50,196 L56,197 L72,198 L99,198 L111,197 L122,193 L129,187 L135,175 L144,139 L146,133 L155,138 L164,146 L170,155 L175,167 L176,175 L178,175 L178,178 L180,178 L178,157 L175,117 L168,103 L162,96 L155,91 L157,82 L161,65 L165,59 L167,49 L167,30 L164,18 L159,8 L158,6 L163,7 L171,13 L177,23 L180,34 L182,52 L183,72 L181,116 L181,159 L185,187 L185,213 L181,231 L176,244 L169,255 L160,265 L150,273 L134,281 L114,287 L90,290 L63,290 L47,288 L26,282 L12,276 L1,269 L-10,260 L-18,251 L-27,236 L-32,222 L-35,209 L-35,187 L-30,163 L-17,116 L-13,92 L-13,26 L-9,10 L-3,2 Z " fill="#7F2C0A" transform="translate(1261,3210)"/>
<path d="M0,0 L24,0 L42,3 L62,9 L82,18 L96,26 L97,28 L87,50 L80,59 L72,66 L60,71 L37,75 L16,77 L-13,77 L-28,74 L-40,69 L-47,63 L-49,59 L-49,49 L-42,35 L-28,16 L-18,3 L-10,1 Z " fill="#8B3C1D" transform="translate(815,3323)"/>
<path d="M0,0 L13,0 L36,2 L55,6 L69,11 L83,18 L89,23 L91,27 L91,39 L86,63 L77,90 L72,89 L47,79 L21,71 L5,68 L-19,65 L-44,64 L-42,58 L-38,48 L-32,25 L-27,15 L-21,10 L-14,8 L0,8 L26,10 L50,14 L62,18 L71,23 L79,30 L83,38 L83,51 L78,70 L73,86 L75,86 L77,77 L83,56 L84,51 L84,37 L78,27 L67,19 L54,14 L34,10 L17,8 L2,7 L-15,7 L-24,10 L-29,16 L-34,28 L-40,51 L-46,64 L-47,61 L-41,35 L-30,8 L-27,5 L-9,1 Z " fill="#883D1F" transform="translate(864,3211)"/>
<path d="M0,0 L30,0 L44,2 L59,6 L72,11 L79,14 L76,25 L67,51 L61,62 L56,67 L52,70 L44,72 L30,73 L2,73 L-13,71 L-23,66 L-29,61 L-36,50 L-43,35 L-49,15 L-49,12 L-34,6 L-17,2 Z " fill="#853515" transform="translate(1322,3325)"/>
<path d="M0,0 L44,0 L71,4 L90,9 L99,14 L104,20 L105,23 L105,31 L99,59 L98,62 L93,61 L72,55 L55,52 L45,51 L12,51 L-13,55 L-29,61 L-37,66 L-40,66 L-42,41 L-41,19 L-39,14 L-30,8 L-18,3 L-9,1 Z " fill="#8F3815" transform="translate(1309,3233)"/>
<path d="M0,0 L34,0 L60,4 L86,11 L108,19 L137,33 L146,39 L147,46 L135,70 L131,79 L127,78 L102,66 L69,49 L48,42 L26,38 L-1,38 L-20,41 L-33,46 L-38,47 L-42,52 L-47,55 L-48,52 L-42,47 L-33,34 L-23,15 L-19,4 L-9,2 Z " fill="#833414" transform="translate(816,3281)"/>
<path d="M0,0 L35,0 L61,4 L80,10 L94,17 L104,26 L110,35 L114,48 L117,75 L116,78 L110,68 L105,62 L91,52 L88,50 L88,48 L85,49 L84,46 L81,47 L67,41 L54,37 L36,34 L-2,34 L-22,37 L-42,43 L-58,52 L-68,60 L-77,69 L-78,67 L-72,47 L-70,38 L-61,28 L-54,20 L-42,11 L-27,5 L-9,1 Z " fill="#7E2F0F" transform="translate(1320,3288)"/>
<path d="M0,0 L3,1 L5,9 L7,12 L17,14 L20,19 L23,21 L22,38 L13,37 L3,36 L2,35 L-7,34 L-6,36 L7,39 L14,42 L14,44 L24,46 L30,50 L34,54 L36,60 L36,73 L29,111 L24,109 L25,102 L29,86 L28,76 L28,68 L25,62 L20,58 L8,53 L-16,48 L-32,46 L-76,46 L-90,48 L-102,52 L-111,57 L-115,60 L-116,64 L-117,86 L-116,99 L-116,111 L-105,105 L-101,104 L-103,110 L-114,117 L-124,126 L-131,135 L-134,135 L-132,131 L-126,122 L-127,107 L-129,92 L-133,78 L-133,56 L-130,41 L-125,31 L-118,25 L-116,26 L-116,44 L-114,44 L-114,41 L-110,40 L-110,34 L-107,35 L-106,36 L-105,33 L-107,32 L-105,31 L-105,24 L-102,19 L-100,18 L-85,17 L-71,20 L-63,25 L-58,23 L-48,17 L-39,15 L-32,16 L-16,22 L-9,30 L-6,15 L-1,7 Z M-103,32 L-104,34 L-100,33 Z M-135,135 Z " fill="#260E05" transform="translate(1385,3188)"/>
<path d="M0,0 L1,0 L0,24 L-3,29 L-15,43 L-24,53 L-39,69 L-50,81 L-70,101 L-78,108 L-91,119 L-108,131 L-133,144 L-149,150 L-173,156 L-194,160 L-215,162 L-254,162 L-279,159 L-305,153 L-325,147 L-340,141 L-348,134 L-354,118 L-353,116 L-345,123 L-329,131 L-310,138 L-293,143 L-277,146 L-268,147 L-239,147 L-211,144 L-181,138 L-146,129 L-126,122 L-103,111 L-85,99 L-75,91 L-63,80 L-47,64 L-40,56 L-31,47 L-24,39 L-14,28 L-7,18 L-2,8 Z " fill="#55200C" transform="translate(1058,3357)"/>
<path d="M0,0 L1,0 L1,8 L-3,29 L-10,50 L-16,61 L-27,73 L-40,82 L-52,87 L-70,92 L-88,95 L-102,96 L-115,96 L-140,94 L-161,89 L-177,83 L-192,74 L-204,63 L-212,54 L-220,40 L-225,27 L-229,10 L-229,3 L-227,6 L-221,20 L-212,33 L-201,45 L-189,55 L-172,64 L-156,69 L-142,72 L-124,74 L-97,74 L-77,71 L-58,66 L-42,58 L-32,51 L-22,42 L-14,33 L-8,23 L-2,8 Z " fill="#62240C" transform="translate(1452,3436)"/>
<path d="M0,0 L4,4 L9,17 L10,23 L10,42 L7,54 L3,61 L-1,78 L-2,84 L7,91 L13,99 L18,110 L22,164 L22,171 L20,171 L20,168 L18,168 L13,152 L8,143 L2,136 L-11,127 L-12,127 L-19,157 L-24,173 L-30,182 L-38,188 L-47,191 L-59,192 L-86,192 L-102,191 L-116,188 L-124,184 L-133,176 L-141,162 L-146,149 L-150,128 L-150,125 L-148,125 L-140,152 L-131,169 L-123,178 L-113,183 L-101,185 L-87,186 L-60,186 L-45,184 L-35,179 L-29,170 L-21,143 L-15,124 L-17,124 L-19,133 L-28,160 L-34,171 L-40,178 L-51,182 L-62,183 L-99,183 L-111,181 L-121,176 L-127,171 L-136,157 L-142,143 L-147,126 L-147,122 L-159,129 L-172,139 L-180,146 L-182,145 L-181,137 L-170,107 L-166,105 L-168,109 L-174,132 L-176,139 L-164,127 L-149,117 L-138,112 L-121,107 L-101,104 L-63,104 L-45,107 L-24,114 L-17,117 L-15,117 L-13,119 L-11,119 L-7,123 L3,130 L8,134 L16,145 L17,146 L14,119 L10,106 L4,97 L-5,89 L-21,81 L-43,75 L-64,72 L-99,72 L-118,75 L-134,80 L-137,80 L-136,76 L-135,74 L-123,70 L-98,66 L-65,66 L-42,69 L-23,74 L-12,78 L-10,66 L-7,53 L-4,52 L-5,61 L-10,80 L-5,82 L-4,70 L1,44 L1,31 L0,25 Z M-97,108 L-119,111 L-134,115 L-146,120 L-144,130 L-138,148 L-129,165 L-123,172 L-113,178 L-106,180 L-95,181 L-67,181 L-53,180 L-43,177 L-38,172 L-32,163 L-26,148 L-18,124 L-18,122 L-35,115 L-49,111 L-58,109 L-67,108 Z " fill="#1F0C04" transform="translate(1419,3217)"/>
<path d="M0,0 L7,3 L9,4 L30,5 L32,15 L37,18 L38,15 L47,13 L51,10 L59,15 L64,20 L64,22 L69,24 L77,29 L80,27 L82,23 L84,23 L85,13 L89,5 L94,2 L105,8 L121,17 L129,21 L135,24 L142,29 L142,31 L138,30 L130,26 L122,24 L111,24 L101,28 L96,34 L95,45 L91,48 L89,47 L74,46 L63,43 L40,43 L26,46 L13,49 L11,44 L20,41 L23,37 L23,30 L18,25 L15,24 L-2,24 L-10,26 L-15,25 L-18,23 L-26,23 L-30,26 L-36,27 L-35,17 L-32,7 L-22,2 L-18,3 L-14,9 L-5,8 L-4,3 Z " fill="#804C28" transform="translate(1290,3141)"/>
<path d="M0,0 L5,0 L10,5 L17,15 L32,40 L34,45 L33,51 L31,54 L39,65 L41,69 L41,76 L38,80 L44,89 L46,93 L46,99 L45,102 L46,111 L41,117 L45,122 L49,132 L49,137 L56,148 L58,156 L55,163 L54,166 L59,175 L60,182 L57,187 L50,192 L45,194 L39,194 L44,187 L46,181 L46,170 L44,163 L43,152 L41,152 L35,112 L36,105 L38,99 L36,88 L30,85 L29,80 L28,72 L24,63 L22,57 L22,51 L23,48 L22,47 L22,41 L20,35 L19,28 L16,23 L13,23 L9,25 L10,20 L11,16 L6,10 L0,11 L0,9 L-8,9 L-13,11 L-15,13 L-15,8 L-19,11 L-24,9 L-19,4 L-13,1 L-3,1 Z " fill="#000000" transform="translate(1019,3199)"/>
<path d="M0,0 L1,2 L-3,26 L-4,26 L-5,7 L-6,33 L-4,33 L-7,64 L-7,68 L-3,69 L-2,76 L-7,81 L4,75 L13,68 L20,61 L23,55 L24,58 L18,68 L11,75 L-5,83 L-14,84 L-12,78 L-15,79 L-27,79 L-37,76 L-41,74 L-37,58 L-34,44 L-33,32 L-36,22 L-43,16 L-59,8 L-63,5 L-57,6 L-43,11 L-32,18 L-25,24 L-25,65 L-21,70 L-16,69 L-19,58 L-20,52 L-20,30 L-18,17 L-13,7 L-9,3 L-3,4 Z " fill="#200B03" transform="translate(993,3209)"/>
<path d="M0,0 L5,2 L21,8 L39,12 L57,14 L82,14 L106,12 L117,10 L124,10 L131,12 L130,14 L127,14 L126,20 L120,22 L115,26 L103,28 L93,30 L84,30 L75,31 L67,29 L43,26 L13,22 L3,20 L0,17 L0,12 L2,12 L1,3 Z " fill="#4A1A01" transform="translate(1270,3522)"/>
<path d="M0,0 L7,3 L9,4 L30,5 L32,15 L37,18 L38,15 L47,13 L51,10 L59,15 L64,20 L64,22 L68,23 L70,28 L73,30 L72,34 L68,32 L68,30 L61,28 L33,26 L21,27 L15,24 L-2,24 L-10,26 L-15,25 L-18,23 L-26,23 L-30,26 L-36,27 L-35,17 L-32,7 L-22,2 L-18,3 L-14,9 L-5,8 L-4,3 Z " fill="#814F27" transform="translate(1290,3141)"/>
<path d="M0,0 L30,0 L64,3 L89,7 L101,11 L109,18 L111,24 L111,37 L104,75 L99,73 L100,66 L105,45 L105,29 L101,23 L93,18 L82,14 L55,9 L35,7 L7,7 L-12,9 L-26,13 L-37,19 L-40,21 L-41,17 L-44,27 L-46,30 L-44,30 L-44,57 L-42,78 L-48,83 L-50,60 L-50,32 L-47,22 L-43,16 L-32,7 L-20,3 Z " fill="#863414" transform="translate(1310,3224)"/>
<path d="M0,0 L2,0 L3,18 L7,33 L9,39 L5,44 L3,44 L2,48 L-6,51 L-11,55 L-16,54 L-21,58 L-31,64 L-38,64 L-41,63 L-40,60 L-34,57 L-32,55 L-31,45 L-29,41 L-29,31 L-31,26 L-28,21 L-16,11 L-11,6 L-4,3 Z " fill="#7F512A" transform="translate(1451,3514)"/>
<path d="M0,0 L26,0 L46,4 L61,10 L68,15 L68,17 L59,16 L39,18 L11,18 L-19,16 L-42,13 L-43,11 L-30,7 L-12,2 Z " fill="#1F0C04" transform="translate(1334,3296)"/>
<path d="M0,0 L1,0 L1,5 L-2,6 L-2,34 L1,55 L6,73 L14,89 L24,102 L34,111 L42,116 L40,117 L31,114 L23,114 L12,107 L-4,92 L-4,86 L-1,80 L-1,65 L-6,64 L-13,56 L-17,48 L-18,35 L-12,28 L-12,11 L-3,5 Z " fill="#502800" transform="translate(1220,3401)"/>
<path d="M0,0 L1,4 L-4,17 L-11,28 L-21,39 L-28,47 L-40,60 L-56,77 L-68,89 L-79,98 L-94,109 L-116,121 L-139,130 L-168,138 L-199,145 L-227,149 L-240,150 L-263,150 L-285,147 L-305,142 L-307,140 L-295,142 L-278,144 L-227,144 L-200,141 L-171,136 L-145,129 L-123,121 L-107,113 L-95,106 L-83,97 L-73,88 L-70,87 L-68,83 L-57,72 L-50,64 L-41,54 L-32,43 L-20,29 L-7,11 Z " fill="#59230D" transform="translate(1056,3353)"/>
<path d="M0,0 L16,0 L40,4 L59,9 L78,16 L77,19 L69,21 L47,21 L19,17 L-8,10 L-19,9 L-24,10 L-23,6 L-8,1 Z " fill="#1E0C04" transform="translate(827,3290)"/>
<path d="M0,0 L2,0 L2,2 L4,2 L10,11 L14,16 L19,21 L24,25 L22,29 L19,32 L19,41 L21,44 L-13,43 L-19,35 L-19,30 L-15,22 L-10,18 L-8,15 L-7,6 L-2,4 Z " fill="#804E29" transform="translate(874,3163)"/>
<path d="M0,0 L3,2 L-2,7 L-6,12 L-8,12 L-9,15 L-15,20 L-17,20 L-18,26 L-22,28 L-24,32 L-27,33 L-29,38 L-31,38 L-33,42 L-41,42 L-50,45 L-54,48 L-54,56 L-63,65 L-88,82 L-111,98 L-124,106 L-130,106 L-142,101 L-142,98 L-126,98 L-125,94 L-123,94 L-123,92 L-118,91 L-100,78 L-81,68 L-74,65 L-66,61 L-60,49 L-50,42 L-44,38 L-39,33 L-30,24 L-19,16 L-10,10 L-8,10 L-8,8 L-3,4 L-2,2 L0,2 Z " fill="#000000" transform="translate(1057,3412)"/>
<path d="M0,0 L1,0 L3,6 L7,12 L6,17 L4,17 L5,24 L4,40 L1,73 L0,87 L-1,130 L-1,138 L-6,134 L-10,127 L-12,114 L-14,91 L-9,87 L-8,84 L-6,64 L-4,18 L-1,11 Z M2,16 Z M1,17 Z " fill="#010000" transform="translate(1476,3260)"/>
<path d="M0,0 L1,0 L1,12 L-3,28 L-9,42 L-18,55 L-28,65 L-43,76 L-58,83 L-72,87 L-96,91 L-123,91 L-147,88 L-168,82 L-184,74 L-195,66 L-208,53 L-218,39 L-224,27 L-228,14 L-229,3 L-228,3 L-224,20 L-215,39 L-205,52 L-194,62 L-181,70 L-166,77 L-149,82 L-130,85 L-96,85 L-73,82 L-53,76 L-37,68 L-27,60 L-19,52 L-12,42 L-6,29 L-2,14 Z " fill="#6A260B" transform="translate(1451,3418)"/>
<path d="M0,0 L2,1 L-6,8 L-10,17 L-19,21 L-30,23 L-35,25 L-34,19 L-41,22 L-46,21 L-48,19 L-49,21 L-54,19 L-61,15 L-72,12 L-85,11 L-91,9 L-91,8 L-85,7 L-48,7 L-27,5 Z M-34,18 Z " fill="#512800" transform="translate(891,3516)"/>
<path d="M0,0 L2,1 L7,12 L9,21 L9,39 L5,46 L0,54 L-1,54 L-5,33 L-10,24 L-12,20 L-16,18 L-23,15 L-33,11 L-35,8 L-31,6 L-17,6 L-14,5 L-7,5 L-3,6 Z " fill="#5F1D00" transform="translate(1448,3199)"/>
<path d="M0,0 L1,2 L-3,26 L-4,26 L-5,7 L-6,33 L-4,33 L-7,63 L-10,64 L-13,68 L-16,67 L-19,58 L-20,52 L-20,30 L-18,17 L-13,7 L-9,3 L-3,4 Z " fill="#804F27" transform="translate(993,3209)"/>
<path d="M0,0 L1,0 L1,39 L0,69 L-1,69 L-1,51 L-8,56 L-15,59 L-18,60 L-20,64 L-31,73 L-34,77 L-35,70 L-39,65 L-39,62 L-33,59 L-28,57 L-20,53 L-16,51 L-18,41 L-11,31 L-3,11 Z " fill="#4A1F01" transform="translate(1454,3463)"/>
<path d="M0,0 L1,2 L2,10 L3,13 L6,14 L6,16 L4,16 L2,20 L-2,22 L-2,24 L-13,31 L-26,41 L-34,49 L-42,56 L-48,60 L-55,64 L-59,64 L-62,67 L-64,66 L-53,55 L-45,48 L-34,37 L-30,32 L-25,27 L-13,15 L-4,4 Z " fill="#512100" transform="translate(1051,3398)"/>
<path d="M0,0 L2,0 L6,8 L6,16 L4,25 L2,34 L-3,57 L-6,73 L-7,82 L-11,87 L-18,91 L-18,106 L-19,106 L-22,96 L-21,91 L-16,86 L-13,85 L-17,76 L-17,69 L-11,63 L-9,63 L-13,53 L-12,46 L-7,41 L-5,41 L-9,31 L-9,25 L-1,18 L-2,12 L-3,5 Z " fill="#010000" transform="translate(1227,3321)"/>
<path d="M0,0 L11,0 L21,1 L30,1 L46,4 L59,8 L63,11 L63,15 L63,16 L50,16 L39,13 L16,13 L2,16 L-11,19 L-13,14 L-4,11 L-1,7 Z " fill="#802C00" transform="translate(1314,3171)"/>
<path d="M0,0 L0,3 L-16,20 L-32,37 L-48,53 L-62,64 L-77,74 L-96,84 L-117,92 L-142,99 L-172,106 L-195,110 L-216,112 L-245,112 L-265,109 L-280,105 L-280,103 L-269,105 L-252,108 L-242,109 L-219,109 L-190,106 L-164,101 L-128,92 L-107,85 L-87,76 L-70,66 L-53,53 L-38,39 L-27,28 L-20,20 L-12,12 L-8,7 Z " fill="#1B0A03" transform="translate(1035,3393)"/>
<path d="M0,0 L7,0 L12,4 L16,10 L24,7 L29,8 L36,16 L41,23 L52,25 L58,25 L66,34 L71,43 L70,50 L66,54 L68,58 L68,65 L65,67 L64,66 L64,40 L55,33 L47,28 L31,22 L27,19 L12,15 L8,11 L4,9 L-4,9 L-9,10 L-10,12 L-11,11 L-11,2 L-8,5 Z " fill="#010000" transform="translate(903,3193)"/>
<path d="M0,0 L5,2 L21,8 L43,13 L51,24 L51,26 L27,24 L3,20 L0,17 L0,12 L2,12 L1,3 Z " fill="#532700" transform="translate(1270,3522)"/>
<path d="M0,0 L4,1 L3,10 L-5,21 L-14,35 L-23,43 L-34,48 L-54,52 L-79,54 L-104,54 L-121,52 L-136,48 L-148,42 L-152,37 L-152,27 L-150,22 L-149,25 L-147,34 L-142,40 L-130,46 L-120,49 L-113,50 L-78,50 L-47,46 L-31,42 L-21,36 L-14,29 L-7,17 Z " fill="#853515" transform="translate(913,3351)"/>
<path d="M0,0 L5,2 L9,7 L8,9 L1,9 L-3,11 L-4,13 L-2,13 L-1,17 L1,17 L2,15 L3,17 L4,26 L4,45 L0,43 L-5,39 L-17,35 L-17,33 L-27,30 L-37,28 L-38,26 L-26,26 L-19,28 L-9,29 L-9,12 L-13,9 L-12,5 L-4,1 Z " fill="#190903" transform="translate(1416,3197)"/>
<path d="M0,0 L24,0 L44,4 L57,8 L57,9 L43,10 L15,10 L-31,8 L-31,6 L-7,1 Z " fill="#7C2E0E" transform="translate(1334,3300)"/>
<path d="M0,0 L7,0 L7,15 L10,41 L11,48 L4,57 L-1,60 L-3,56 L-4,38 L-3,24 L-2,19 Z " fill="#280000" transform="translate(1001,3216)"/>
<path d="M0,0 L1,3 L-2,15 L-2,27 L-5,27 L-3,31 L0,49 L3,58 L8,65 L2,64 L-12,50 L-18,41 L-16,35 L-13,28 L-10,13 L-5,5 Z " fill="#7F4C26" transform="translate(704,3434)"/>
<path d="M0,0 L15,3 L24,9 L26,13 L-2,16 L-10,17 L-15,16 L-17,17 L-16,19 L-19,19 L-19,16 L-21,15 L-19,14 L-19,7 L-16,2 L-14,1 Z " fill="#6B2323" transform="translate(1299,3205)"/>
<path d="M0,0 L7,1 L5,6 L2,7 L-6,8 L-16,17 L-19,16 L-21,20 L-23,24 L-23,32 L-21,33 L-28,50 L-31,53 L-41,56 L-45,59 L-45,53 L-38,45 L-27,36 L-32,26 L-32,21 L-23,13 L-8,4 Z " fill="#010000" transform="translate(847,3193)"/>
<path d="M0,0 L11,0 L9,11 L-1,23 L-5,32 L-1,28 L6,17 L9,14 L8,27 L5,30 L-8,36 L-8,32 L-18,49 L-20,48 L-14,33 L-12,25 L-6,12 L-5,4 Z " fill="#814F29" transform="translate(806,3248)"/>
<path d="M0,0 L2,2 L2,4 L5,4 L2,9 L1,14 L-2,17 L-6,19 L-12,24 L-17,29 L-29,42 L-38,52 L-38,49 L-27,30 L-23,22 L-17,12 L-12,7 L-5,3 Z M-1,5 Z " fill="#7E2D00" transform="translate(764,3339)"/>
<path d="M0,0 L8,1 L11,6 L14,8 L13,25 L4,24 L-6,23 L-15,20 L-14,16 L-10,14 L-6,9 L-4,9 L-2,3 Z " fill="#832A00" transform="translate(1394,3201)"/>
<path d="M0,0 L13,0 L34,3 L74,13 L74,14 L63,14 L38,12 L15,8 L-7,3 L-6,1 Z " fill="#793216" transform="translate(827,3294)"/>
<path d="M0,0 L1,0 L0,13 L-5,36 L-12,61 L-17,80 L-20,94 L-21,101 L-22,101 L-22,88 L-15,56 L-13,47 L-11,38 L-11,30 L-15,22 L-14,15 L-7,13 L-3,11 Z " fill="#611E03" transform="translate(1243,3299)"/>
<path d="M0,0 L6,1 L20,6 L31,13 L38,19 L38,56 L31,54 L27,53 L28,44 L30,27 L27,17 L20,11 L4,3 Z " fill="#582D17" transform="translate(930,3214)"/>
<path d="M0,0 L2,3 L3,6 L4,27 L6,28 L6,34 L3,41 L-3,45 L-7,45 L-9,40 L-9,33 L-3,26 L-5,20 L-7,16 L-7,6 Z " fill="#010000" transform="translate(1237,3269)"/>
<path d="M0,0 L1,3 L1,6 L-1,6 L-2,12 L-11,31 L-18,42 L-26,52 L-30,54 L-32,48 L-31,43 L-30,41 L-28,41 L-25,32 L-22,28 L-16,27 L-14,22 L-12,18 L-10,18 L-8,13 L-1,1 Z M-31,45 L-30,47 Z M1,4 Z " fill="#1B0A03" transform="translate(798,3279)"/>
<path d="M0,0 L6,0 L5,4 L5,15 L5,16 L7,22 L8,22 L9,28 L8,30 L3,30 L3,36 L-1,37 L-1,40 L-3,40 L-4,38 L-4,22 L-3,20 L0,19 L-3,18 L-3,14 L0,14 L-1,12 L-14,13 L-17,10 L-13,7 Z " fill="#2D0400" transform="translate(1272,3192)"/>
<path d="M0,0 L2,0 L3,15 L8,23 L10,31 L10,36 L5,41 L7,47 L7,53 L3,56 L-2,54 L-4,51 L-3,45 L0,39 L1,36 L1,27 L-1,21 L-3,20 L-3,9 Z " fill="#000000" transform="translate(1453,3296)"/>
<path d="M0,0 L5,1 L32,10 L50,15 L50,16 L33,17 L27,19 L20,19 L10,14 L1,6 Z " fill="#502400" transform="translate(717,3503)"/>
<path d="M0,0 L1,2 L2,10 L3,13 L6,14 L6,16 L4,16 L2,20 L-2,22 L-2,24 L-13,31 L-17,33 L-14,28 L-25,28 L-19,21 L-6,7 Z " fill="#501B00" transform="translate(1051,3398)"/>
<path d="M0,0 L1,0 L1,10 L0,16 L-2,16 L-4,25 L-5,36 L-2,37 L0,43 L0,52 L-2,59 L-4,59 L-6,67 L-7,64 L-9,64 L-7,3 Z " fill="#250000" transform="translate(1455,3280)"/>
<path d="M0,0 L11,0 L14,4 L14,6 L18,8 L13,11 L11,14 L9,14 L7,19 L3,30 L1,30 L-2,25 L-4,24 L-3,8 L-2,1 Z " fill="#401100" transform="translate(1242,3198)"/>
<path d="M0,0 L5,0 L4,2 L2,2 L1,6 L6,6 L11,11 L12,20 L14,23 L-14,22 L-12,16 L-8,13 L-7,13 L-6,6 L-4,5 L-3,2 Z " fill="#533030" transform="translate(881,3184)"/>
<path d="M0,0 L1,4 L0,14 L1,24 L-1,29 L0,34 L0,49 L-4,47 L-7,43 L-12,31 L-10,26 L-7,23 L-5,23 L-8,17 L-8,9 L-4,3 Z " fill="#000000" transform="translate(1238,3212)"/>
<path d="M0,0 L2,1 L2,6 L7,11 L8,15 L10,7 L8,7 L8,1 L12,5 L15,11 L15,13 L13,13 L16,23 L16,29 L13,25 L12,20 L11,21 L10,53 L9,53 L5,37 L4,26 L2,25 L-1,12 Z " fill="#692401" transform="translate(1448,3365)"/>
<path d="M0,0 L3,4 L8,10 L11,55 L10,57 L6,55 L3,53 L5,51 L4,43 L0,36 L2,32 L1,24 L-1,19 L2,17 L0,8 Z " fill="#502100" transform="translate(1467,3388)"/>
<path d="M0,0 L12,2 L29,4 L85,5 L102,5 L102,6 L80,9 L67,10 L44,10 L22,7 L2,2 Z " fill="#58200A" transform="translate(749,3493)"/>
<path d="M0,0 L7,1 L23,7 L24,12 L21,18 L10,18 L1,16 L2,12 L2,4 Z " fill="#581B18" transform="translate(1346,3203)"/>
<path d="M0,0 L4,1 L4,27 L0,32 L-4,42 L-6,42 L-8,38 L-6,31 L-5,19 L-6,12 L-2,2 Z " fill="#874829" transform="translate(977,3168)"/>
<path d="M0,0 L4,1 L-1,10 L-7,20 L-9,20 L-10,25 L-16,30 L-17,30 L-18,37 L-20,36 L-20,26 L-22,21 L-19,16 L-7,6 L-2,1 Z " fill="#5B2A2A" transform="translate(1442,3519)"/>
<path d="M0,0 L7,0 L14,2 L13,4 L10,4 L9,10 L3,12 L-1,15 L-18,17 L-13,12 L-10,8 L-9,3 L-11,2 Z " fill="#532800" transform="translate(1387,3532)"/>
<path d="M0,0 L4,4 L6,12 L9,38 L10,45 L3,53 L2,53 Z " fill="#7B2A00" transform="translate(1002,3219)"/>
<path d="M0,0 L1,0 L3,15 L3,27 L5,27 L9,35 L11,38 L6,39 L-2,30 L-6,22 L-7,9 Z " fill="#010000" transform="translate(1209,3427)"/>
<path d="M0,0 L1,0 L1,28 L4,52 L4,58 L1,61 L-2,59 L-3,38 L-4,35 L-5,9 L-6,5 L-1,2 Z " fill="#3C1A0B" transform="translate(1242,3237)"/>
<path d="M0,0 L3,0 L6,18 L9,27 L14,34 L8,33 L-6,19 L-8,13 L-6,12 Z " fill="#5B2A25" transform="translate(698,3465)"/>
<path d="M0,0 L7,1 L24,3 L24,6 L22,6 L20,10 L7,15 L1,18 L0,17 Z " fill="#7D4D29" transform="translate(1001,3171)"/>
<path d="M0,0 L9,1 L10,4 L9,7 L11,7 L12,9 L15,10 L15,12 L24,12 L25,13 L25,20 L24,25 L19,20 L12,20 L6,15 L-1,3 Z " fill="#000000" transform="translate(1246,3514)"/>
<path d="M0,0 L3,1 L5,9 L9,14 L5,22 L0,27 L-5,30 L-6,33 L-9,32 L-6,15 L-1,7 Z " fill="#000000" transform="translate(1385,3188)"/>
<path d="M0,0 L1,0 L0,13 L-3,16 L-16,22 L-16,18 L-26,35 L-28,34 L-22,19 L-20,11 L-17,5 L-8,7 L-13,18 L-9,14 L-2,3 Z " fill="#832A01" transform="translate(814,3262)"/>
<path d="M0,0 L7,0 L10,3 L3,6 L13,10 L15,17 L11,15 L11,13 L4,11 L-5,11 L-15,8 L-20,6 L-21,3 L-17,1 L-3,1 Z " fill="#541900" transform="translate(1434,3204)"/>
<path d="M0,0 L1,0 L1,5 L-2,6 L-2,35 L-3,37 L-8,36 L-11,26 L-12,11 L-3,5 Z " fill="#5B2B15" transform="translate(1220,3401)"/>
<path d="M0,0 L20,1 L32,3 L36,5 L37,7 L43,8 L44,11 L34,9 L22,7 L11,7 L-9,5 L-10,1 Z " fill="#802B2B" transform="translate(1322,3166)"/>
<path d="M0,0 L7,0 L12,4 L10,7 L10,15 L11,19 L22,20 L22,21 L10,21 L0,18 L-4,16 Z " fill="#591500" transform="translate(956,3267)"/>
<path d="M0,0 L4,1 L-11,7 L-40,15 L-71,22 L-94,23 L-107,23 L-107,22 L-72,18 L-43,13 L-17,6 Z " fill="#6C270C" transform="translate(928,3476)"/>
<path d="M0,0 L1,3 L3,12 L8,18 L20,24 L30,27 L37,28 L57,29 L56,31 L35,31 L17,27 L5,22 L-1,17 L-2,15 L-2,5 Z " fill="#883D1F" transform="translate(763,3373)"/>
<path d="M0,0 L1,2 L3,2 L9,10 L12,16 L14,26 L12,30 L7,34 L5,34 L4,27 L5,25 L5,14 L-1,10 L-2,4 Z " fill="#000000" transform="translate(1451,3247)"/>
<path d="M0,0 L1,0 L3,22 L3,33 L-4,31 L-8,30 L-7,21 L-4,11 L-1,6 L-1,1 Z " fill="#68341A" transform="translate(965,3237)"/>
<path d="M0,0 L1,0 L2,8 L-2,16 L-4,16 L0,26 L1,33 L-4,39 L-7,40 L-7,24 L-6,10 L-3,3 Z " fill="#000000" transform="translate(1461,3449)"/>
<path d="M0,0 L5,1 L-1,8 L-7,11 L-14,19 L-18,26 L-21,26 L-22,18 L-19,13 L-17,10 L-13,9 L-4,1 Z " fill="#1F0000" transform="translate(845,3199)"/>
<path d="M0,0 L2,0 L6,9 L6,14 L4,18 L9,28 L9,33 L7,35 L10,38 L1,40 L-2,42 L-1,37 L3,29 L1,17 L0,13 L-1,2 Z " fill="#411F00" transform="translate(1464,3406)"/>
<path d="M0,0 L2,1 L-12,15 L-23,24 L-38,35 L-60,47 L-68,50 L-70,48 L-52,40 L-36,30 L-22,19 L-16,13 L-14,13 L-12,9 L-8,6 L-6,6 L-1,1 Z " fill="#53200D" transform="translate(1000,3427)"/>
<path d="M0,0 L1,2 L-3,26 L-4,26 L-5,7 L-6,13 L-12,18 L-16,25 L-19,25 L-17,15 L-13,7 L-9,3 L-3,4 Z " fill="#8A302A" transform="translate(993,3209)"/>
<path d="M0,0 L3,1 L7,7 L7,10 L0,11 L-2,15 L-3,17 L-3,26 L-12,24 L-8,18 L-8,9 L-9,4 L-2,2 Z " fill="#844A23" transform="translate(1213,3495)"/>
<path d="M0,0 L6,5 L5,22 L-2,21 L-6,11 L-6,5 Z " fill="#5D1B00" transform="translate(1402,3204)"/>
<path d="M0,0 L1,3 L-5,13 L-16,19 L-24,22 L-39,30 L-41,29 L-26,18 L-18,14 L-9,8 L-4,3 Z " fill="#240000" transform="translate(996,3461)"/>
<path d="M0,0 L5,2 L9,7 L8,9 L1,9 L-3,11 L-5,15 L-5,32 L-7,30 L-7,11 L-12,10 L-13,6 L-4,1 Z " fill="#020000" transform="translate(1416,3197)"/>
<path d="M0,0 L6,1 L9,5 L10,8 L10,4 L13,4 L14,7 L15,9 L17,9 L16,5 L18,5 L19,14 L18,17 L15,17 L17,34 L14,36 L10,15 L5,6 L3,2 L0,1 Z " fill="#521700" transform="translate(1433,3217)"/>
<path d="M0,0 L1,2 L-1,6 L-3,6 L-6,19 L-10,23 L-12,23 L-14,27 L-25,28 L-19,21 L-6,7 Z " fill="#3C1300" transform="translate(1051,3398)"/>
<path d="M0,0 L8,1 L8,3 L14,1 L20,8 L18,17 L17,20 L13,14 L13,12 L9,10 L4,7 L0,6 L-1,1 Z M19,15 Z M18,16 Z " fill="#390200" transform="translate(1011,3207)"/>
<path d="M0,0 L6,0 L4,12 L-6,12 L-12,13 L-16,12 L-17,9 Z " fill="#010000" transform="translate(1272,3192)"/>
<path d="M0,0 L11,0 L13,2 L16,2 L23,5 L25,9 L32,10 L42,16 L46,21 L42,20 L32,13 L30,12 L20,11 L15,6 L9,5 L2,6 L-2,2 Z M22,6 Z " fill="#000000" transform="translate(1402,3178)"/>
<path d="M0,0 L9,1 L19,5 L24,5 L25,6 L50,4 L47,6 L30,8 L28,9 L19,9 L10,10 L2,8 L-9,7 L-9,6 L5,5 L3,1 Z " fill="#441700" transform="translate(1335,3543)"/>
<path d="M0,0 L1,0 L2,10 L1,19 L-6,44 L-10,63 L-11,70 L-12,70 L-12,57 L-5,25 L-3,16 L-1,7 Z " fill="#541901" transform="translate(1233,3330)"/>
<path d="M0,0 L3,1 L4,9 L5,23 L6,30 L9,34 L8,36 L-3,27 L-7,22 L-2,19 L0,19 Z " fill="#973116" transform="translate(1195,3443)"/>
<path d="M0,0 L7,0 L10,1 L10,3 L-3,11 L-9,12 L-8,15 L-11,15 L-11,12 L-13,11 L-11,10 L-11,3 L-7,1 Z " fill="#802C2A" transform="translate(1291,3209)"/>
<path d="M0,0 L5,5 L11,12 L11,17 L13,22 L12,25 L8,23 L4,19 L1,18 L0,12 Z " fill="#840000" transform="translate(1086,3291)"/>
<path d="M0,0 L8,6 L17,12 L15,20 L10,22 L5,16 L0,2 Z " fill="#662C15" transform="translate(704,3473)"/>
<path d="M0,0 L7,0 L9,3 L9,9 L4,8 L-5,8 L-13,14 L-16,13 L-17,10 L-3,1 Z " fill="#000000" transform="translate(1340,3204)"/>
<path d="M0,0 L2,0 L3,13 L-4,22 L-7,29 L-8,34 L-9,34 L-8,18 L-5,8 Z " fill="#813215" transform="translate(1266,3219)"/>
<path d="M0,0 L7,1 L12,3 L14,10 L15,12 L-7,11 L-5,6 L1,4 Z " fill="#4A2512" transform="translate(880,3195)"/>
<path d="M0,0 L1,0 L1,10 L0,16 L-2,16 L-5,28 L-7,30 L-7,3 Z " fill="#8E2100" transform="translate(1455,3280)"/>
<path d="M0,0 L1,0 L1,12 L-3,28 L-9,42 L-18,55 L-28,65 L-37,72 L-37,69 L-32,64 L-24,57 L-15,47 L-7,32 L-3,19 Z " fill="#56210C" transform="translate(1451,3418)"/>
<path d="M0,0 L3,1 L-1,3 L-2,7 L-12,12 L-14,12 L-14,14 L-19,16 L-22,18 L-21,13 L-14,5 L-8,2 Z " fill="#000000" transform="translate(904,3513)"/>
<path d="M0,0 L11,0 L12,1 L12,6 L3,12 L-1,13 L-3,15 L-2,1 Z " fill="#7E2400" transform="translate(1242,3198)"/>
<path d="M0,0 L2,1 L1,9 L-3,13 L-2,17 L-12,26 L-21,30 L-25,31 L-25,33 L-28,34 L-29,30 L-23,27 L-18,25 L-10,21 L-6,19 L-8,9 L-3,5 Z " fill="#401500" transform="translate(1444,3495)"/>
<path d="M0,0 L15,3 L19,5 L19,7 L10,7 L-1,5 L-18,6 L-16,2 L-14,1 Z " fill="#822800" transform="translate(1299,3205)"/>
<path d="M0,0 L2,2 L4,8 L5,17 L5,26 L2,33 L-1,34 L-1,1 Z " fill="#3D1400" transform="translate(1459,3411)"/>
<path d="M0,0 L4,2 L8,10 L8,16 L10,21 L8,24 L2,16 L-3,7 L-2,3 Z " fill="#250000" transform="translate(1032,3220)"/>
<path d="M0,0 L2,1 L7,12 L8,16 L8,26 L4,21 L-3,10 L-6,10 L-6,8 L-1,3 Z " fill="#842800" transform="translate(1448,3199)"/>
<path d="M0,0 L2,2 L2,4 L5,4 L2,9 L1,14 L-2,17 L-8,17 L-7,6 L-2,1 Z M-1,5 Z " fill="#845125" transform="translate(764,3339)"/>
<path d="M0,0 L2,0 L0,10 L-4,27 L-6,29 L-6,3 Z " fill="#971E00" transform="translate(1212,3334)"/>
<path d="M0,0 L7,0 L14,2 L13,4 L10,4 L9,10 L4,9 L1,7 L-6,5 L-8,2 Z " fill="#3F1D00" transform="translate(1387,3532)"/>
<path d="M0,0 L2,2 L7,1 L8,10 L8,20 L1,19 L0,12 Z " fill="#441211" transform="translate(1211,3435)"/>
<path d="M0,0 L3,4 L6,16 L9,31 L9,41 L7,38 L3,24 L0,6 Z " fill="#715024" transform="translate(1080,3201)"/>
<path d="M0,0 L5,3 L6,5 L0,8 L-5,8 L-13,12 L-17,9 L-17,7 L-12,6 L-12,4 L-3,1 Z " fill="#000000" transform="translate(1414,3529)"/>
<path d="M0,0 L2,1 L-11,11 L-17,14 L-19,13 L-18,17 L-22,17 L-22,19 L-31,20 L-37,19 L-35,17 L-24,15 L-20,11 L-3,2 Z " fill="#270000" transform="translate(953,3491)"/>
<path d="M0,0 L5,0 L2,7 L-7,24 L-9,24 L-10,17 L-8,13 L-6,13 L-3,4 Z M-9,17 L-8,19 Z " fill="#7E391C" transform="translate(776,3307)"/>
<path d="M0,0 L3,4 L7,11 L-10,15 L-13,14 L-2,3 Z " fill="#351C0C" transform="translate(854,3195)"/>
<path d="M0,0 L7,0 L12,4 L10,7 L9,14 L7,14 L6,16 L0,7 Z " fill="#5B1800" transform="translate(956,3267)"/>
<path d="M0,0 L1,0 L0,13 L-3,16 L-16,22 L-16,16 L-14,16 L-12,11 L-10,9 L-11,13 L-13,18 L-9,14 L-2,3 Z " fill="#792F13" transform="translate(814,3262)"/>
<path d="M0,0 L4,1 L9,5 L7,9 L4,12 L0,10 L-2,8 L-8,8 L-6,3 Z " fill="#82463D" transform="translate(889,3183)"/>
<path d="M0,0 L4,0 L3,7 L-5,14 L-19,15 L-15,13 L-10,10 L-6,10 L-3,1 Z " fill="#452200" transform="translate(1374,3535)"/>
<path d="M0,0 L2,3 L2,27 L0,28 L-3,20 L-4,14 L-2,4 Z " fill="#E70000" transform="translate(1506,3466)"/>
<path d="M0,0 L8,0 L18,4 L18,5 L-4,7 L-12,8 L-13,5 L-4,3 Z " fill="#5F241F" transform="translate(1301,3214)"/>
<path d="M0,0 L8,0 L14,4 L18,8 L2,7 L-5,5 L-5,2 Z " fill="#210000" transform="translate(899,3201)"/>
<path d="M0,0 L1,0 L0,24 L-3,24 L-3,35 L-4,35 L-5,9 L-6,5 L-1,2 Z " fill="#471200" transform="translate(1242,3237)"/>
<path d="M0,0 L6,2 L15,7 L16,9 L16,18 L15,18 L14,11 L5,10 L5,8 L1,7 L1,5 L-1,5 Z " fill="#230000" transform="translate(1256,3516)"/>
<path d="M0,0 L6,2 L8,8 L9,15 L6,22 L4,22 Z " fill="#250000" transform="translate(1049,3284)"/>
<path d="M0,0 L4,5 L8,7 L11,6 L12,4 L13,9 L9,13 L1,14 L-1,10 L-1,2 Z " fill="#010000" transform="translate(966,3272)"/>
<path d="M0,0 L2,2 L3,11 L3,29 L1,26 L1,23 L-1,23 L-2,15 L-2,2 L0,2 Z " fill="#000000" transform="translate(1417,3212)"/>
<path d="M0,0 L1,3 L-3,17 L-4,13 L-6,13 L-8,22 L-11,23 L-10,13 L-5,5 Z " fill="#813F1F" transform="translate(704,3434)"/>
<path d="M0,0 L4,0 L6,9 L8,22 L9,27 L5,29 L4,28 L2,10 Z " fill="#623030" transform="translate(1461,3378)"/>
<path d="M0,0 L2,2 L2,6 L6,7 L7,13 L2,15 L-2,14 L-6,6 L-1,1 Z " fill="#411100" transform="translate(984,3271)"/>
<path d="M0,0 L1,2 L4,3 L7,9 L6,17 L1,22 L-1,21 L1,15 Z " fill="#240000" transform="translate(1237,3220)"/>
<path d="M0,0 L7,0 L10,3 L3,6 L3,7 L-6,7 L-9,5 L-9,3 L-12,2 Z " fill="#5B1900" transform="translate(1434,3204)"/>
<path d="M0,0 L2,0 L4,17 L4,23 L2,20 L-2,20 L-2,2 Z " fill="#280400" transform="translate(1412,3210)"/>
<path d="M0,0 L5,2 L15,6 L11,9 L6,13 L0,14 L0,12 L2,12 L1,3 Z " fill="#471F00" transform="translate(1270,3522)"/>
<path d="M0,0 L11,0 L9,9 L5,11 L1,7 L0,3 L-2,2 Z " fill="#5C3A1F" transform="translate(806,3248)"/>
<path d="M0,0 L2,2 L2,9 L-4,32 L-8,44 L-10,44 L-6,28 L-1,9 Z " fill="#301207" transform="translate(947,3253)"/>
<path d="M0,0 L1,0 L1,39 L0,69 L-1,69 L-2,13 L-3,11 Z " fill="#590700" transform="translate(1454,3463)"/>
<path d="M0,0 L3,0 L3,2 L7,1 L5,5 L3,5 L2,9 L-6,12 L-11,16 L-15,15 L-14,12 L-14,14 L-12,14 L-11,11 L-7,7 L0,7 Z " fill="#7D3D26" transform="translate(1451,3553)"/>
<path d="M0,0 L4,1 L6,7 L-1,9 L-3,13 L-9,13 L-7,7 L-3,4 Z " fill="#59371B" transform="translate(876,3193)"/>
<path d="M0,0 L2,2 L5,9 L7,18 L7,34 L5,38 L5,21 L4,26 L3,26 L0,4 Z " fill="#240D03" transform="translate(1012,3226)"/>
<path d="M0,0 L2,1 L2,3 L0,3 L-2,7 L-6,9 L-6,11 L-17,18 L-21,20 L-18,14 L-16,10 L-14,10 L-14,12 L-3,3 Z " fill="#460A00" transform="translate(1055,3411)"/>
<path d="M0,0 L7,0 L12,1 L12,4 L7,5 L6,7 L4,6 L3,8 L-5,4 L-6,2 L0,1 Z " fill="#361200" transform="translate(1352,3536)"/>
<path d="M0,0 L2,4 L6,6 L1,9 L0,11 L-6,11 L-10,14 L-14,13 L-12,9 L-8,8 L-1,4 Z " fill="#561A00" transform="translate(1254,3200)"/>
<path d="M0,0 L3,1 L7,7 L7,10 L-2,12 L-3,8 L-4,5 Z " fill="#6F6501" transform="translate(1213,3495)"/>
<path d="M0,0 L2,2 L3,18 L0,24 L-4,27 L-4,21 L-1,15 L-1,6 Z " fill="#5B0000" transform="translate(1220,3466)"/>
<path d="M0,0 L1,3 L-5,13 L-7,13 L-8,18 L-14,23 L-15,23 L-16,30 L-18,29 L-17,19 L-12,19 L-11,15 L-8,11 L-6,11 L-4,5 Z " fill="#6F2821" transform="translate(1440,3526)"/>
<path d="M0,0 L2,0 L2,2 L4,2 L10,12 L8,13 L4,9 L4,7 L-2,7 L-4,9 L-5,13 L-7,13 L-7,6 L-2,4 Z " fill="#962724" transform="translate(874,3163)"/>
<path d="M0,0 L1,0 L3,7 L7,8 L9,7 L7,11 L4,14 L-1,9 L-1,7 L-5,9 L-5,2 Z " fill="#714724" transform="translate(806,3250)"/>
<path d="M0,0 L2,3 L-3,7 L-5,7 L-7,11 L-20,19 L-22,18 L-9,7 L-1,1 Z " fill="#2C1500" transform="translate(993,3460)"/>
<path d="M0,0 L6,0 L2,4 L-8,10 L-15,10 L-18,9 L-17,6 L-12,5 L-11,7 L-7,8 L-7,5 Z " fill="#842E03" transform="translate(1428,3568)"/>
<path d="M0,0 L2,0 L4,7 L2,19 L0,19 L-1,17 L-1,1 Z " fill="#010000" transform="translate(1269,3213)"/>
<path d="M0,0 L1,2 L-3,26 L-4,26 L-5,7 L-9,5 L-6,3 L-3,4 Z " fill="#612020" transform="translate(993,3209)"/>
<path d="M0,0 L7,1 L16,4 L15,8 L7,8 L2,4 Z " fill="#832D00" transform="translate(1346,3203)"/>
<path d="M0,0 L2,1 L-2,3 L-4,7 L-15,16 L-18,20 L-18,14 L-13,9 Z " fill="#4F2700" transform="translate(1438,3520)"/>
<path d="M0,0 L2,4 L5,15 L4,18 L2,16 L-5,5 L-4,1 L-1,2 Z " fill="#491908" transform="translate(1219,3452)"/>
<path d="M0,0 L1,0 L0,13 L-2,13 L-4,25 L-7,28 L-9,28 L-7,23 L-5,15 L-8,14 L-5,11 L-3,11 Z " fill="#511B01" transform="translate(1243,3299)"/>
<path d="M0,0 L1,3 L-8,23 L-12,29 L-14,28 L-12,23 L-4,7 L-1,1 Z " fill="#311207" transform="translate(912,3351)"/>
<path d="M0,0 L5,2 L13,9 L11,14 L9,16 L0,1 Z " fill="#7B2814" transform="translate(1446,3178)"/>
<path d="M0,0 L4,3 L12,4 L13,1 L18,2 L21,4 L20,8 L16,6 L6,7 L0,5 Z " fill="#5D2417" transform="translate(1349,3207)"/>
<path d="M0,0 L6,0 L3,2 L-19,7 L-26,7 L-25,5 Z " fill="#743015" transform="translate(885,3489)"/>
<path d="M0,0 L2,1 L-3,4 L-14,6 L-19,8 L-18,2 Z " fill="#7D3B1E" transform="translate(875,3533)"/>
<path d="M0,0 L8,3 L8,8 L3,11 L0,11 Z " fill="#420C00" transform="translate(1448,3272)"/>
<path d="M0,0 L11,1 L20,6 L27,12 L24,13 L15,6 L11,4 L1,3 Z " fill="#851B11" transform="translate(1421,3186)"/>
<path d="M0,0 L2,1 L-1,12 L-7,12 L-9,11 L-8,7 L-4,5 Z " fill="#FF0000" transform="translate(1388,3210)"/>
<path d="M0,0 L4,1 L4,22 L3,22 L2,6 L-1,6 L-3,11 L-5,12 L-3,3 Z " fill="#752012" transform="translate(977,3168)"/>
<path d="M0,0 L6,1 L20,6 L22,7 L21,11 L2,2 Z " fill="#6C391C" transform="translate(930,3214)"/>
<path d="M0,0 L2,1 L5,0 L6,4 L-1,8 L-5,8 L-8,11 L-10,10 Z " fill="#451803" transform="translate(997,3454)"/>
<path d="M0,0 L3,4 L8,10 L8,15 L4,17 L2,11 L0,8 Z " fill="#9B0800" transform="translate(1467,3388)"/>
<path d="M0,0 L3,1 L6,4 L1,10 L-2,9 L-4,3 L-3,1 Z " fill="#822D27" transform="translate(979,3267)"/>
<path d="M0,0 L2,2 L2,13 L-1,16 L-3,25 L-4,25 L-3,10 L-1,3 Z " fill="#860000" transform="translate(1220,3235)"/>
<path d="M0,0 L14,0 L15,7 L16,11 L13,9 L13,7 L9,5 L4,2 Z " fill="#501C00" transform="translate(1011,3212)"/>
<path d="M0,0 L1,3 L-8,14 L-15,22 L-18,23 L-16,19 L-4,5 Z " fill="#6D2F17" transform="translate(1035,3383)"/>
<path d="M0,0 L2,1 L0,6 L-8,10 L-13,8 L-8,4 Z " fill="#441A09" transform="translate(1282,3292)"/>
<path d="M0,0 L14,0 L12,3 L-4,5 L-2,1 Z " fill="#5C2600" transform="translate(1285,3206)"/>
<path d="M0,0 L4,1 L6,6 L3,5 L3,2 L-2,3 L-4,7 L-9,10 L-10,12 L-12,12 L-10,5 Z " fill="#992717" transform="translate(1268,3143)"/>
<path d="M0,0 L4,1 L4,12 L-5,10 L-1,4 Z " fill="#000000" transform="translate(1206,3509)"/>
<path d="M0,0 L4,4 L8,9 L8,11 L-1,8 L-3,7 L-1,1 Z " fill="#4A1300" transform="translate(955,3276)"/>
<path d="M0,0 L2,0 L2,10 L-2,16 L-3,19 L-7,18 L-5,16 L0,3 Z " fill="#5C3D1E" transform="translate(964,3249)"/>
<path d="M0,0 L3,4 L7,11 L2,12 L2,9 L-5,7 Z " fill="#593219" transform="translate(854,3195)"/>
<path d="M0,0 L7,1 L16,5 L13,7 L3,5 L0,3 Z " fill="#572219" transform="translate(729,3574)"/>
<path d="M0,0 L0,3 L-3,8 L-6,11 L-11,16 L-14,17 L-15,20 L-17,20 L-15,16 Z " fill="#6D2F17" transform="translate(1009,3414)"/>
<path d="M0,0 L3,4 L6,13 L4,15 L0,11 L-1,3 Z " fill="#000000" transform="translate(1052,3397)"/>
<path d="M0,0 L4,1 L13,7 L11,8 L2,5 L-6,5 L-11,2 L-9,1 L-7,2 L-1,2 Z " fill="#431600" transform="translate(1249,3510)"/>
<path d="M0,0 L1,0 L3,12 L4,16 L4,25 L1,27 Z " fill="#260000" transform="translate(1062,3355)"/>
<path d="M0,0 L1,0 L1,7 L0,11 L-1,36 L-3,36 L-2,2 L0,2 Z " fill="#401300" transform="translate(1449,3308)"/>
<path d="M0,0 L2,1 L-3,7 L-8,9 L-11,9 L-10,5 L-9,3 Z " fill="#2D1106" transform="translate(1293,3288)"/>
<path d="M0,0 L2,1 L-5,8 L-6,12 L-10,12 L-9,3 L-4,3 Z " fill="#4B1000" transform="translate(1248,3210)"/>
<path d="M0,0 L1,0 L1,8 L3,4 L6,5 L1,17 L-1,17 L-3,13 L-1,6 Z " fill="#772F15" transform="translate(972,3193)"/>
<path d="M0,0 L1,0 L1,10 L-6,15 L-12,16 L-7,11 L-2,6 Z " fill="#552B09" transform="translate(1452,3504)"/>
<path d="M0,0 L1,4 L1,24 L0,26 L-3,26 L-2,20 L-3,8 Z " fill="#4C2613" transform="translate(1217,3412)"/>
<path d="M0,0 L7,0 L11,2 L8,3 L1,6 L-4,6 L-4,4 L-2,4 Z " fill="#260000" transform="translate(1406,3527)"/>
<path d="M0,0 L3,2 L8,11 L12,17 L10,20 L8,20 L3,7 L0,2 Z " fill="#3F1300" transform="translate(1031,3231)"/>
<path d="M0,0 L1,4 L-4,18 L-8,25 L-9,23 L-1,2 Z " fill="#63250D" transform="translate(1442,3434)"/>
<path d="M0,0 L2,0 L2,3 L-6,10 L-19,23 L-20,20 L-12,13 L-1,2 Z " fill="#521F0C" transform="translate(1018,3433)"/>
<path d="M0,0 L5,1 L9,7 L8,9 L6,7 L-4,3 L-5,1 Z " fill="#672200" transform="translate(1441,3208)"/>
<path d="M0,0 L5,1 L5,2 L-3,3 L-6,5 L-7,9 L-11,13 L-12,10 L-11,8 L-13,7 L-5,1 Z " fill="#9C6135" transform="translate(884,3182)"/>
<path d="M0,0 L2,0 L3,4 L10,3 L10,1 L13,0 L13,2 L15,2 L14,4 L5,7 L1,6 L-1,4 L-2,1 Z " fill="#660000" transform="translate(844,3531)"/>
<path d="M0,0 L2,1 L2,3 L3,4 L3,9 L-4,9 L-5,6 Z " fill="#98513E" transform="translate(984,3212)"/>
<path d="M0,0 L7,1 L12,3 L12,8 L6,6 L0,3 Z " fill="#442020" transform="translate(880,3195)"/>
<path d="M0,0 L2,1 L3,4 L3,11 L-2,9 L-4,8 L-2,3 Z " fill="#7C5423" transform="translate(965,3259)"/>
<path d="M0,0 L0,3 L-2,7 L-1,17 L-4,16 L-6,11 L-6,5 Z " fill="#6C2400" transform="translate(1402,3204)"/>
<path d="M0,0 L2,1 L-6,8 L-7,6 L-10,7 L-10,4 L-15,4 L-15,3 Z " fill="#471D00" transform="translate(891,3516)"/>
<path d="M0,0 L4,1 L9,6 L8,9 L2,8 L0,5 Z " fill="#862500" transform="translate(1286,3186)"/>
<path d="M0,0 L7,1 L15,7 L15,9 L11,8 L3,4 L0,3 Z " fill="#8E2E1B" transform="translate(1417,3163)"/>
<path d="M0,0 L2,1 L1,8 L0,10 L-3,10 L-4,3 L-3,1 Z " fill="#732000" transform="translate(1232,3313)"/>
<path d="M0,0 L5,0 L4,2 L2,2 L0,7 L-1,9 L-6,10 L-5,6 L-3,2 Z " fill="#666432" transform="translate(881,3184)"/>
<path d="M0,0 L4,1 L-8,3 L-18,5 L-25,5 L-26,3 L-9,1 Z " fill="#270000" transform="translate(1381,3547)"/>
<path d="M0,0 L4,0 L6,9 L6,15 L2,10 Z " fill="#83412E" transform="translate(1461,3378)"/>
<path d="M0,0 L5,0 L2,7 L-1,11 L-1,8 L-4,6 Z " fill="#7C2900" transform="translate(776,3307)"/>
<path d="M0,0 L10,0 L11,7 L9,6 L7,2 L1,1 L0,4 L-12,3 L-12,2 Z " fill="#87221B" transform="translate(1310,3146)"/>
<path d="M0,0 L3,1 L4,9 L2,16 L1,16 L0,11 Z " fill="#933C1B" transform="translate(1195,3443)"/>
<path d="M0,0 L9,0 L7,2 L10,3 L23,4 L26,6 L9,5 L1,2 Z " fill="#2F0000" transform="translate(796,3523)"/>
<path d="M0,0 L6,1 L9,5 L11,10 L11,15 L8,11 L4,5 L3,2 L0,1 Z " fill="#471300" transform="translate(1433,3217)"/>
<path d="M0,0 L8,1 L8,3 L10,3 L10,5 L0,5 L-1,1 Z " fill="#270000" transform="translate(1011,3207)"/>
<path d="M0,0 L7,0 L10,3 L8,4 L-1,4 L-5,2 Z " fill="#000000" transform="translate(1434,3204)"/>
<path d="M0,0 L1,2 L3,2 L7,9 L10,13 L9,15 L3,10 L0,4 Z " fill="#B18C00" transform="translate(1194,3464)"/>
<path d="M0,0 L1,0 L3,26 L1,23 L1,12 L-1,12 L-2,9 L-1,1 Z " fill="#702F20" transform="translate(965,3237)"/>
<path d="M0,0 L2,0 L3,21 L-1,20 Z " fill="#300100" transform="translate(1407,3208)"/>
<path d="M0,0 L6,2 L8,6 L11,7 L8,10 L2,7 L4,3 L0,1 Z " fill="#7C2D28" transform="translate(1373,3179)"/>
<path d="M0,0 L2,0 L0,4 L-12,16 L-12,13 L-4,4 Z M-14,16 Z M-15,17 Z " fill="#530701" transform="translate(751,3366)"/>
<path d="M0,0 L2,2 L2,7 L-1,9 L-3,12 L-6,6 L-1,1 Z " fill="#712200" transform="translate(984,3271)"/>
<path d="M0,0 L2,4 L-1,9 L-4,10 L-5,3 Z M0,2 Z " fill="#5D3C1F" transform="translate(1214,3408)"/>
<path d="M0,0 L3,1 L-5,12 L-6,10 L-4,2 Z " fill="#7D3518" transform="translate(784,3329)"/>
<path d="M0,0 L2,0 L2,17 L-1,13 L-1,3 L1,3 Z " fill="#2A0300" transform="translate(1238,3275)"/>
<path d="M0,0 L8,3 L8,5 L-1,5 L-7,4 L-4,2 L0,2 Z " fill="#6F2800" transform="translate(1310,3207)"/>
<path d="M0,0 L2,1 L2,3 L0,3 L-2,7 L-6,9 L-6,11 L-11,13 L-9,10 L-7,10 L-6,6 Z " fill="#600000" transform="translate(1055,3411)"/>
<path d="M0,0 L4,2 L8,10 L8,14 L6,14 L1,4 Z " fill="#380000" transform="translate(1032,3220)"/>
<path d="M0,0 L7,1 L16,2 L16,3 L3,3 L3,1 L1,1 L1,17 L0,17 Z " fill="#A51302" transform="translate(1001,3171)"/>
<path d="M0,0 L1,0 L1,8 L-2,13 L-4,14 L-3,4 Z " fill="#4E1A00" transform="translate(1452,3475)"/>
<path d="M0,0 L2,2 L3,15 L0,13 L-1,10 L-1,3 Z " fill="#0D0000" transform="translate(1197,3456)"/>
<path d="M0,0 L1,0 L2,10 L2,16 L-1,17 L-3,19 L-1,7 Z " fill="#491200" transform="translate(1233,3330)"/>
<path d="M0,0 L1,0 L1,31 L0,31 L-1,5 L-2,1 Z " fill="#4E0000" transform="translate(1238,3241)"/>
<path d="M0,0 L1,0 L1,9 L0,12 L-3,11 L-3,4 Z " fill="#6A4521" transform="translate(986,3252)"/>
<path d="M0,0 L1,3 L3,3 L1,10 L-3,12 L-2,4 Z M-4,12 Z " fill="#2E1206" transform="translate(1261,3241)"/>
<path d="M0,0 L1,4 L-4,7 L-8,7 L-8,9 L-4,11 L-10,12 L-12,7 L-3,4 Z " fill="#830900" transform="translate(1313,3178)"/>
<path d="M0,0 L2,0 L2,2 L4,2 L10,12 L8,13 L4,9 L4,7 L2,7 L1,4 L-2,4 Z " fill="#663700" transform="translate(874,3163)"/>
<path d="M0,0 L1,3 L-5,13 L-8,13 L-8,11 L-6,11 L-4,5 Z M-9,13 Z M-10,14 Z M-11,15 Z M-12,16 Z " fill="#802B2B" transform="translate(1440,3526)"/>
<path d="M0,0 L6,0 L2,4 L-1,6 L-7,6 L-2,1 Z " fill="#872B1E" transform="translate(1428,3568)"/>
<path d="M0,0 L5,1 L7,4 L-8,4 L-4,2 Z " fill="#552B00" transform="translate(1334,3545)"/>
<path d="M0,0 L2,1 L4,14 L3,18 L1,17 Z " fill="#712405" transform="translate(1439,3364)"/>
<path d="M0,0 L1,4 L-2,9 L-8,14 L-6,9 Z M-9,14 Z " fill="#652A11" transform="translate(1056,3353)"/>
<path d="M0,0 L6,0 L2,10 L0,8 L-1,1 Z " fill="#270000" transform="translate(1091,3336)"/>
<path d="M0,0 L3,1 L4,3 L11,6 L7,7 L-2,5 Z " fill="#471211" transform="translate(1349,3214)"/>
<path d="M0,0 L5,1 L3,5 L0,8 L-3,7 Z " fill="#8E5555" transform="translate(893,3187)"/>
<path d="M0,0 L1,0 L0,11 L-6,10 L-2,3 Z " fill="#81381A" transform="translate(814,3262)"/>
<path d="M0,0 L16,0 L17,2 L8,3 L0,1 Z " fill="#000000" transform="translate(1337,3550)"/>
<path d="M0,0 L3,4 L4,7 L-3,13 L-2,8 Z " fill="#421E00" transform="translate(1051,3405)"/>
<path d="M0,0 L2,4 L-3,8 L-10,8 L-8,6 L-4,6 L-3,3 Z " fill="#3A0000" transform="translate(979,3279)"/>
<path d="M0,0 L3,1 L-2,10 L-6,11 L-7,9 L-2,5 Z " fill="#2D0100" transform="translate(1379,3563)"/>
<path d="M0,0 L12,2 L19,3 L19,6 L2,2 Z " fill="#4C1C09" transform="translate(749,3493)"/>
<path d="M0,0 L2,1 L3,4 L4,11 L0,12 Z " fill="#3E1010" transform="translate(1240,3278)"/>
<path d="M0,0 L3,1 L1,17 L0,17 Z " fill="#945230" transform="translate(989,3218)"/>
<path d="M0,0 L10,1 L12,3 L11,4 L4,4 Z " fill="#4E1900" transform="translate(1389,3532)"/>
<path d="M0,0 L10,1 L15,2 L12,4 L4,3 L0,1 Z " fill="#331307" transform="translate(1371,3286)"/>
<path d="M0,0 L3,0 L4,8 L0,9 Z " fill="#734926" transform="translate(1239,3261)"/>
<path d="M0,0 L2,0 L1,4 L-1,4 L-1,11 L-4,14 L-5,9 L-1,1 Z " fill="#812408" transform="translate(1380,3145)"/>
<path d="M0,0 L1,0 L1,6 L7,3 L7,9 L0,8 L-1,1 Z " fill="#340D0B" transform="translate(1212,3446)"/>
<path d="M0,0 L4,1 L2,8 L-1,7 L-2,4 Z " fill="#8A2B29" transform="translate(772,3314)"/>
<path d="M0,0 L2,0 L2,9 L-2,7 L-2,1 Z " fill="#551800" transform="translate(1242,3289)"/>
<path d="M0,0 L3,0 L3,5 L0,7 L-3,6 L-2,1 Z " fill="#5B1B00" transform="translate(1451,3276)"/>
<path d="M0,0 L1,0 L1,18 L-2,21 Z " fill="#000000" transform="translate(1456,3220)"/>
<path d="M0,0 L2,4 L2,14 L0,11 L-2,3 Z " fill="#874A22" transform="translate(1087,3228)"/>
<path d="M0,0 L5,3 L3,6 L-2,4 L-5,1 Z " fill="#882825" transform="translate(1318,3211)"/>
<path d="M0,0 L6,1 L8,2 L8,5 L3,6 L3,4 L1,4 Z " fill="#432110" transform="translate(848,3202)"/>
<path d="M0,0 L7,2 L4,4 L-6,4 L-4,3 L-4,1 Z " fill="#683800" transform="translate(1309,3184)"/>
<path d="M0,0 L5,5 L10,12 L7,12 L-1,2 Z " fill="#5C240D" transform="translate(1237,3460)"/>
<path d="M0,0 L1,2 L-1,8 L-7,15 L-7,12 Z " fill="#7D1400" transform="translate(733,3376)"/>
<path d="M0,0 L1,2 L-3,7 L-8,10 L-9,7 Z " fill="#863B1C" transform="translate(777,3326)"/>
<path d="M0,0 L1,0 L1,8 L-2,9 L-3,1 Z " fill="#4F2515" transform="translate(1242,3269)"/>
<path d="M0,0 L6,2 L2,7 L3,9 L0,9 L0,6 L-2,5 L0,4 Z " fill="#67251D" transform="translate(1280,3215)"/>
<path d="M0,0 L3,1 L-2,9 L-5,9 L-4,4 Z " fill="#6D4724" transform="translate(869,3197)"/>
<path d="M0,0 L5,0 L10,5 L10,7 L6,5 L1,3 Z " fill="#6C3636" transform="translate(882,3190)"/>
<path d="M0,0 L1,2 L3,3 L-3,13 L-5,12 Z " fill="#701D00" transform="translate(791,3284)"/>
<path d="M0,0 L2,0 L2,8 L-1,10 L-2,3 Z " fill="#2C1005" transform="translate(1422,3249)"/>
<path d="M0,0 L2,0 L1,8 L-2,8 L-4,2 L0,2 Z " fill="#644021" transform="translate(987,3242)"/>
<path d="M0,0 L2,4 L0,10 L-2,11 L-2,2 Z " fill="#792800" transform="translate(1451,3239)"/>
<path d="M0,0 L1,2 L-2,11 L-4,11 L-3,2 Z " fill="#361A00" transform="translate(1247,3217)"/>
<path d="M0,0 L0,3 L-3,9 L-5,10 L-6,14 L-8,14 L-6,7 Z " fill="#762707" transform="translate(1259,3211)"/>
<path d="M0,0 L2,1 L-2,9 L-10,10 L-10,8 L-5,6 L-2,6 L-1,1 Z " fill="#8B2215" transform="translate(1287,3143)"/>
<path d="M0,0 L5,0 L0,6 L-3,6 L-2,1 Z " fill="#501600" transform="translate(985,3278)"/>
<path d="M0,0 L5,2 L9,7 L5,8 L0,1 Z " fill="#9F2D16" transform="translate(1446,3178)"/>
<path d="M0,0 L2,1 L3,10 L1,10 L1,8 L-1,8 L-1,1 Z " fill="#61331E" transform="translate(1211,3422)"/>
<path d="M0,0 L0,3 L-4,9 L-5,9 L-5,2 Z " fill="#7D3B1F" transform="translate(806,3250)"/>
<path d="M0,0 L9,0 L11,2 L-2,3 Z " fill="#551B1B" transform="translate(1301,3217)"/>
<path d="M0,0 L7,3 L5,6 L0,5 Z " fill="#FF0000" transform="translate(1206,3504)"/>
<path d="M0,0 L3,1 L3,9 L0,9 Z " fill="#5D1B02" transform="translate(1239,3252)"/>
<path d="M0,0 L2,0 L0,5 L-4,8 L-3,1 Z " fill="#913F14" transform="translate(992,3169)"/>
<path d="M0,0 L5,2 L11,7 L11,9 L7,7 L0,1 Z " fill="#300000" transform="translate(718,3508)"/>
<path d="M0,0 L1,0 L1,11 L-2,12 L-1,2 Z " fill="#702B0B" transform="translate(695,3445)"/>
<path d="M0,0 L2,1 L1,6 L-4,12 L-6,11 L-1,4 Z " fill="#421201" transform="translate(1062,3381)"/>
<path d="M0,0 L1,0 L1,11 L-1,17 L-2,13 Z " fill="#673012" transform="translate(991,3242)"/>
<path d="M0,0 L9,0 L11,1 L11,3 L-1,2 Z " fill="#661A1A" transform="translate(1357,3215)"/>
<path d="M0,0 L5,1 L3,2 L1,1 L0,5 L-1,8 L-5,7 L-3,7 L-2,3 Z " fill="#8F4736" transform="translate(1289,3143)"/>
<path d="M0,0 L2,3 L4,12 L1,10 L0,8 Z " fill="#61210D" transform="translate(1220,3458)"/>
<path d="M0,0 L1,0 L1,7 L0,10 L-2,10 L-2,2 L0,2 Z " fill="#4F1500" transform="translate(1449,3308)"/>
<path d="M0,0 L2,0 L3,4 L2,7 L-2,5 L-2,2 L0,2 Z " fill="#740500" transform="translate(1096,3309)"/>
<path d="M0,0 L9,1 L12,4 L6,4 L0,1 Z " fill="#2E0100" transform="translate(921,3210)"/>
<path d="M0,0 L7,1 L9,5 L3,4 L3,2 L0,1 Z " fill="#914228" transform="translate(1343,3157)"/>
<path d="M0,0 L6,0 L4,4 L2,4 L1,7 Z " fill="#833200" transform="translate(1452,3554)"/>
<path d="M0,0 L4,1 L4,3 L2,3 L1,8 L-1,9 Z " fill="#894034" transform="translate(696,3444)"/>
<path d="M0,0 L2,1 L2,6 L-2,8 L-2,3 Z " fill="#FF0000" transform="translate(1473,3397)"/>
<path d="M0,0 L6,2 L11,5 L9,6 L1,3 Z " fill="#511B1B" transform="translate(882,3199)"/>
<path d="M0,0 L1,3 L-2,9 L-5,9 L-3,3 Z " fill="#604020" transform="translate(872,3197)"/>
<path d="M0,0 L6,1 L8,4 L7,8 L4,4 L4,2 Z " fill="#480B03" transform="translate(710,3499)"/>
<path d="M0,0 L5,3 L4,6 L1,7 L0,6 Z " fill="#714626" transform="translate(1465,3400)"/>
<path d="M0,0 Z M-1,1 Z M-3,2 L-1,2 L-3,6 L-5,11 L-6,11 L-7,5 Z " fill="#442109" transform="translate(775,3331)"/>
<path d="M0,0 L3,0 L3,7 L0,10 Z " fill="#522914" transform="translate(960,3240)"/>
<path d="M0,0 L2,2 L1,9 L-1,10 L-1,3 Z " fill="#DA0000" transform="translate(1220,3235)"/>
<path d="M0,0 L3,2 L4,8 L0,9 Z " fill="#060400" transform="translate(1277,3212)"/>
<path d="M0,0 L3,4 L4,8 L2,8 L1,12 Z " fill="#832D12" transform="translate(1080,3201)"/>
<path d="M0,0 L1,0 L2,10 L-1,9 L-2,6 L0,6 L0,2 L-3,1 Z " fill="#943A3A" transform="translate(1317,3147)"/>
<path d="M0,0 L2,1 L-3,4 L-7,4 L-6,1 Z " fill="#884422" transform="translate(875,3533)"/>
<path d="M0,0 L5,0 L5,3 L3,6 L0,2 Z " fill="#822F1E" transform="translate(687,3475)"/>
<path d="M0,0 L1,0 L1,5 L-2,6 L-3,9 L-5,9 L-3,5 Z M-6,9 Z " fill="#54280D" transform="translate(1220,3401)"/>
<path d="M0,0 L3,1 L-4,10 L-4,7 Z " fill="#7D3417" transform="translate(791,3327)"/>
<path d="M0,0 L4,4 L2,8 L0,8 Z " fill="#4F2716" transform="translate(1039,3243)"/>
<path d="M0,0 L4,2 L5,5 L0,5 L-1,1 Z " fill="#291400" transform="translate(1371,3215)"/>
<path d="M0,0 L1,2 L3,2 L2,4 L-2,5 L-7,4 L-7,3 L-2,3 L-2,1 Z " fill="#480000" transform="translate(856,3531)"/>
<path d="M0,0 L2,1 L1,6 L-4,4 L-4,2 Z " fill="#762C1F" transform="translate(756,3344)"/>
<path d="M0,0 L2,0 L3,2 L3,8 L0,6 Z " fill="#260000" transform="translate(1235,3244)"/>
<path d="M0,0 L6,1 L10,2 L9,5 L0,1 Z " fill="#4F2217" transform="translate(930,3214)"/>
<path d="M0,0 L9,5 L8,7 L-1,2 Z " fill="#690400" transform="translate(1340,3151)"/>
<path d="M0,0 L9,0 L6,4 L1,2 Z " fill="#3A1700" transform="translate(796,3523)"/>
<path d="M0,0 L5,2 L8,5 L-3,2 Z " fill="#360F00" transform="translate(1254,3513)"/>
<path d="M0,0 L2,4 L2,10 L0,9 L-1,2 Z " fill="#722B1B" transform="translate(701,3475)"/>
<path d="M0,0 L1,0 L1,8 L-2,5 L-2,1 Z " fill="#000000" transform="translate(1474,3403)"/>
<path d="M0,0 L2,0 L1,6 L-3,5 L-3,3 L-1,3 Z " fill="#601D02" transform="translate(1232,3346)"/>
<path d="M0,0 L8,0 L5,3 L3,6 Z " fill="#661A00" transform="translate(978,3277)"/>
<path d="M0,0 L5,2 L7,4 L3,6 Z " fill="#6F2900" transform="translate(961,3267)"/>
<path d="M0,0 L2,1 L0,5 L-2,8 L-4,8 L-2,3 Z " fill="#6C4A24" transform="translate(965,3259)"/>
<path d="M0,0 L2,0 L1,3 L-7,4 L-7,2 Z " fill="#3D2708" transform="translate(816,3245)"/>
<path d="M0,0 L1,0 L1,6 L-2,7 L-4,3 L-1,2 Z " fill="#000000" transform="translate(1221,3242)"/>
<path d="M0,0 L5,1 L3,5 L0,4 Z " fill="#1C0A03" transform="translate(1012,3213)"/>
<path d="M0,0 L7,0 L10,2 L5,3 L0,1 Z " fill="#712800" transform="translate(1422,3206)"/>
<path d="M0,0 L2,2 L-1,6 L-4,5 L-2,1 Z " fill="#582C15" transform="translate(877,3200)"/>
<path d="M0,0 L5,2 L8,6 L4,5 L0,2 Z " fill="#590800" transform="translate(1440,3193)"/>
<path d="M0,0 L4,1 L4,4 L0,5 L-1,1 Z " fill="#484824" transform="translate(876,3193)"/>
<path d="M0,0 L3,2 L0,6 L-4,7 L-3,4 L-1,3 Z " fill="#8D271B" transform="translate(1371,3165)"/>
<path d="M0,0 L1,2 L3,2 L3,0 L8,0 L4,4 L0,3 Z " fill="#83170A" transform="translate(1436,3565)"/>
<path d="M0,0 L0,3 L-1,7 L-5,6 Z " fill="#A62B1F" transform="translate(701,3437)"/>
<path d="M0,0 L1,4 L-2,8 L-4,8 L-2,3 Z " fill="#793114" transform="translate(1056,3353)"/>
<path d="M0,0 L3,1 L2,3 L0,3 L-1,6 L-3,6 L-1,1 Z " fill="#8C3B00" transform="translate(750,3347)"/>
<path d="M0,0 L2,0 L4,5 L6,6 L4,8 L0,2 Z " fill="#5E1F00" transform="translate(960,3268)"/>
<path d="M0,0 L2,3 L3,10 L0,8 Z " fill="#732809" transform="translate(1420,3230)"/>
<path d="M0,0 L5,0 L5,2 L9,4 L3,3 Z " fill="#422C16" transform="translate(878,3200)"/>
<path d="M0,0 L4,5 L6,8 L4,9 L0,5 Z " fill="#872106" transform="translate(878,3167)"/>
<path d="M0,0 L2,1 L2,4 L-4,4 Z " fill="#813B0B" transform="translate(1029,3190)"/>
<path d="M0,0 L3,0 L3,3 L-2,3 L-3,1 Z " fill="#8E3E10" transform="translate(961,3205)"/>
<path d="M0,0 L1,0 L0,9 L-1,9 Z " fill="#8A1A00" transform="translate(990,3264)"/>
<path d="M0,0 L1,3 L0,6 L-2,6 Z " fill="#3C0800" transform="translate(994,3270)"/>
<path d="M0,0 L3,1 L1,3 Z " fill="#000000" transform="translate(771,3308)"/>
<path d="M0,0 L2,1 L2,3 L0,3 Z " fill="#660000" transform="translate(1467,3213)"/>
<path d="M0,0 L2,0 L1,3 Z " fill="#666600" transform="translate(962,3209)"/>
<path d="M0,0 L1,4 Z " fill="#000000" transform="translate(1193,3378)"/>
<path d="M0,0 L1,4 Z " fill="#8A2A00" transform="translate(992,3231)"/>
<path d="M0,0 L1,3 L-1,2 Z " fill="#3F0000" transform="translate(1371,3161)"/>
<path d="M0,0 L2,2 L0,2 Z " fill="#550000" transform="translate(729,3578)"/>
<path d="M0,0 Z " fill="#400000" transform="translate(721,3396)"/>
<path d="M0,0 Z " fill="#400000" transform="translate(723,3392)"/>
<path d="M0,0 L2,1 Z " fill="#000000" transform="translate(1097,3319)"/>
<path d="M0,0 Z " fill="#000000" transform="translate(1179,3280)"/>
<path d="M0,0 Z " fill="#000000" transform="translate(913,3518)"/>
<path d="M0,0 Z " fill="#000000" transform="translate(910,3517)"/>
<path d="M0,0 Z " fill="#000000" transform="translate(908,3516)"/>
<path d="M0,0 Z " fill="#000000" transform="translate(1505,3499)"/>
<path d="M0,0 Z " fill="#000000" transform="translate(1506,3495)"/>
<path d="M0,0 Z " fill="#000000" transform="translate(1204,3479)"/>
<path d="M0,0 Z " fill="#000000" transform="translate(708,3422)"/>
<path d="M0,0 Z " fill="#000000" transform="translate(719,3400)"/>
<path d="M0,0 Z " fill="#FF0000" transform="translate(720,3399)"/>
<path d="M0,0 Z " fill="#FF0000" transform="translate(722,3394)"/>
<path d="M0,0 Z " fill="#000000" transform="translate(1194,3392)"/>
<path d="M0,0 Z " fill="#FF0000" transform="translate(724,3391)"/>
<path d="M0,0 Z " fill="#000000" transform="translate(733,3384)"/>
<path d="M0,0 Z " fill="#FF0000" transform="translate(751,3363)"/>
<path d="M0,0 Z " fill="#996633" transform="translate(766,3347)"/>
<path d="M0,0 Z " fill="#000000" transform="translate(1102,3338)"/>
<path d="M0,0 Z " fill="#000000" transform="translate(767,3335)"/>
<path d="M0,0 Z " fill="#400000" transform="translate(992,3281)"/>
<path d="M0,0 Z " fill="#000000" transform="translate(1217,3263)"/>
<path d="M0,0 Z " fill="#000000" transform="translate(1466,3212)"/>
<path d="M0,0 Z " fill="#000000" transform="translate(994,3208)"/>
</svg>
