<?xml version="1.0" encoding="UTF-8"?>
<svg version="1.1" xmlns="http://www.w3.org/2000/svg" width="2214" height="3264">
<path d="M0,0 L27,3 L79,13 L110,20 L137,29 L153,37 L164,44 L175,53 L182,60 L190,70 L197,80 L205,95 L211,112 L214,131 L218,164 L221,198 L224,257 L224,329 L221,379 L217,407 L199,411 L166,411 L149,407 L149,428 L148,468 L149,493 L153,529 L158,553 L162,570 L170,595 L177,614 L188,638 L196,654 L204,669 L211,681 L225,705 L229,713 L234,736 L233,742 L228,745 L217,754 L203,763 L184,772 L166,779 L141,787 L114,795 L88,802 L61,809 L34,815 L9,820 L-19,825 L-63,830 L-89,832 L-168,834 L-224,834 L-245,832 L-261,827 L-268,822 L-271,818 L-269,807 L-262,784 L-255,754 L-249,720 L-246,705 L-244,690 L-239,663 L-233,610 L-231,578 L-231,522 L-232,509 L-233,505 L-233,495 L-241,479 L-250,458 L-260,461 L-274,465 L-303,475 L-321,481 L-328,484 L-337,487 L-342,486 L-346,478 L-354,461 L-361,445 L-369,425 L-375,408 L-385,378 L-392,353 L-397,331 L-402,306 L-406,274 L-408,251 L-408,192 L-405,171 L-399,150 L-391,134 L-384,125 L-376,116 L-365,107 L-350,96 L-331,84 L-313,73 L-302,67 L-280,55 L-269,49 L-257,42 L-238,33 L-228,27 L-214,20 L-211,20 L-203,31 L-194,41 L-183,49 L-172,56 L-155,64 L-130,72 L-111,74 L-94,73 L-82,71 L-64,64 L-48,54 L-37,45 L-25,33 L-13,17 L-9,11 L-2,1 Z " fill="#E7EAEA" transform="translate(1158,932)"/>
<path d="M0,0 L27,3 L79,13 L110,20 L137,29 L153,37 L164,44 L175,53 L182,60 L190,70 L197,80 L205,95 L211,112 L214,131 L218,164 L221,198 L224,257 L224,329 L221,379 L217,407 L199,411 L166,411 L149,407 L149,428 L148,468 L149,493 L153,529 L158,553 L162,570 L170,595 L177,614 L188,638 L196,654 L204,669 L211,681 L225,705 L229,713 L234,736 L233,742 L228,745 L217,754 L203,763 L184,772 L166,779 L141,787 L114,795 L88,802 L61,809 L34,815 L9,820 L-19,825 L-63,830 L-89,832 L-168,834 L-224,834 L-245,832 L-261,827 L-268,822 L-271,818 L-269,807 L-262,784 L-255,754 L-249,720 L-246,705 L-244,690 L-239,663 L-233,610 L-231,578 L-231,522 L-232,509 L-233,505 L-233,495 L-241,479 L-250,458 L-260,461 L-274,465 L-303,475 L-321,481 L-328,484 L-337,487 L-342,486 L-346,478 L-354,461 L-361,445 L-369,425 L-375,408 L-385,378 L-392,353 L-397,331 L-402,306 L-406,274 L-408,251 L-408,192 L-405,171 L-399,150 L-391,134 L-384,125 L-376,116 L-365,107 L-350,96 L-331,84 L-313,73 L-302,67 L-280,55 L-269,49 L-257,42 L-238,33 L-228,27 L-214,20 L-211,20 L-203,31 L-194,41 L-183,49 L-172,56 L-155,64 L-130,72 L-111,74 L-94,73 L-82,71 L-64,64 L-48,54 L-37,45 L-25,33 L-13,17 L-9,11 L-2,1 Z M0,3 L-3,12 L-13,28 L-24,41 L-28,46 L-39,55 L-47,61 L-60,69 L-79,77 L-97,80 L-118,80 L-137,77 L-155,70 L-163,67 L-179,58 L-191,49 L-201,39 L-212,23 L-216,24 L-225,30 L-232,34 L-247,43 L-264,53 L-275,59 L-296,71 L-313,81 L-328,90 L-342,99 L-358,110 L-371,121 L-380,130 L-389,144 L-395,158 L-400,180 L-402,198 L-403,216 L-403,258 L-397,299 L-395,315 L-389,339 L-386,353 L-381,369 L-378,381 L-373,395 L-370,405 L-360,432 L-354,448 L-350,457 L-347,466 L-340,484 L-336,483 L-320,475 L-304,469 L-294,465 L-281,461 L-268,457 L-251,454 L-252,448 L-260,426 L-268,403 L-278,374 L-283,357 L-286,349 L-290,333 L-294,319 L-297,305 L-301,291 L-304,276 L-310,255 L-310,251 L-303,274 L-299,291 L-292,317 L-288,329 L-285,341 L-280,355 L-276,368 L-270,386 L-264,403 L-257,421 L-254,431 L-247,450 L-244,457 L-235,477 L-231,486 L-226,495 L-223,502 L-211,525 L-205,542 L-203,548 L-208,540 L-217,521 L-218,517 L-221,514 L-229,499 L-230,499 L-230,506 L-225,532 L-224,549 L-224,587 L-226,622 L-231,660 L-233,671 L-235,688 L-239,710 L-246,743 L-251,765 L-256,780 L-258,788 L-264,803 L-267,812 L-269,818 L-266,820 L-250,824 L-234,826 L-139,826 L-84,823 L-42,820 L-18,817 L7,812 L32,807 L46,804 L63,800 L75,797 L86,795 L102,790 L112,788 L128,783 L144,779 L161,773 L169,771 L189,764 L200,759 L210,754 L222,746 L231,740 L230,730 L226,720 L217,704 L209,691 L196,669 L187,653 L179,637 L174,625 L170,615 L163,598 L159,585 L155,574 L152,560 L148,544 L143,511 L142,506 L141,490 L141,409 L143,409 L144,397 L144,371 L146,323 L146,246 L144,217 L140,187 L139,172 L145,197 L148,219 L150,235 L152,273 L152,322 L150,369 L149,380 L149,402 L170,405 L191,406 L203,406 L215,404 L216,368 L218,333 L218,249 L216,203 L211,147 L207,112 L203,102 L197,90 L189,78 L181,68 L170,56 L158,47 L145,39 L127,31 L110,26 L99,23 L84,20 L67,16 L50,13 L29,8 L13,5 L6,3 Z " fill="#3B3E3F" transform="translate(1158,932)"/>
<path d="M0,0 L27,3 L79,13 L110,20 L137,29 L153,37 L164,44 L175,53 L182,60 L190,70 L197,80 L205,95 L211,112 L214,131 L218,164 L221,198 L224,257 L224,329 L221,379 L218,399 L216,399 L215,393 L215,368 L217,333 L217,249 L215,203 L210,147 L206,112 L202,102 L196,90 L188,78 L180,68 L169,56 L158,48 L145,40 L127,32 L110,27 L99,24 L84,21 L67,17 L50,14 L29,9 L13,6 L0,3 L-1,11 L-13,29 L-22,40 L-28,47 L-39,56 L-47,62 L-60,70 L-79,78 L-97,81 L-118,81 L-137,78 L-155,71 L-163,68 L-179,59 L-191,50 L-202,39 L-212,25 L-212,23 L-221,28 L-232,35 L-247,44 L-264,54 L-275,60 L-296,72 L-313,82 L-328,91 L-342,100 L-358,111 L-371,122 L-379,130 L-388,144 L-394,158 L-399,180 L-401,198 L-402,216 L-402,258 L-396,299 L-394,315 L-388,339 L-385,353 L-380,369 L-377,381 L-372,395 L-369,405 L-359,432 L-353,448 L-349,457 L-346,466 L-344,471 L-345,476 L-348,473 L-354,461 L-361,445 L-369,425 L-375,408 L-385,378 L-392,353 L-397,331 L-402,306 L-406,274 L-408,251 L-408,192 L-405,171 L-399,150 L-391,134 L-384,125 L-376,116 L-365,107 L-350,96 L-331,84 L-313,73 L-302,67 L-280,55 L-269,49 L-257,42 L-238,33 L-228,27 L-214,20 L-211,20 L-203,31 L-194,41 L-183,49 L-172,56 L-155,64 L-130,72 L-111,74 L-94,73 L-82,71 L-64,64 L-48,54 L-37,45 L-25,33 L-13,17 L-9,11 L-2,1 Z " fill="#171819" transform="translate(1158,932)"/>
<path d="M0,0 L2,3 L8,28 L11,50 L13,66 L15,104 L15,153 L13,200 L11,233 L19,233 L32,235 L53,236 L65,236 L77,235 L77,224 L79,228 L78,230 L80,230 L79,238 L61,242 L28,242 L11,238 L11,259 L10,299 L11,324 L15,360 L20,384 L24,401 L32,426 L39,445 L50,469 L58,485 L66,500 L73,512 L87,536 L91,544 L93,554 L92,560 L90,557 L83,544 L75,530 L67,517 L56,498 L48,484 L40,468 L35,456 L31,446 L24,429 L20,416 L16,405 L13,391 L9,375 L4,342 L3,337 L2,321 L2,254 L3,240 L5,240 L5,202 L7,154 L7,77 L5,48 L1,18 Z " fill="#333637" transform="translate(1296,1101)"/>
<path d="M0,0 L2,0 L4,12 L3,15 L-2,18 L-13,27 L-27,36 L-46,45 L-64,52 L-89,60 L-116,68 L-142,75 L-169,82 L-196,88 L-221,93 L-249,98 L-293,103 L-319,105 L-398,107 L-454,107 L-475,105 L-491,100 L-498,95 L-501,91 L-499,80 L-495,78 L-494,81 L-499,91 L-488,94 L-473,97 L-464,98 L-369,98 L-314,95 L-272,92 L-248,89 L-223,84 L-198,79 L-184,76 L-167,72 L-155,69 L-144,67 L-128,62 L-118,60 L-102,55 L-86,51 L-69,45 L-61,43 L-41,36 L-30,31 L-20,26 L-8,18 L-1,13 L1,13 L-1,2 Z " fill="#3E4142" transform="translate(1388,1659)"/>
<path d="M0,0 L2,4 L9,27 L13,44 L20,70 L24,82 L27,94 L32,108 L36,121 L42,139 L48,156 L55,174 L58,184 L65,203 L68,210 L70,214 L70,217 L64,218 L61,211 L51,214 L37,218 L8,228 L-10,234 L-17,237 L-26,240 L-31,239 L-35,231 L-33,226 L-31,229 L-29,237 L-22,233 L-15,230 L-4,225 L12,219 L39,210 L56,207 L60,207 L52,184 L47,171 L42,156 L32,127 L27,110 L24,102 L20,86 L16,72 L13,58 L9,44 L6,29 L0,8 Z " fill="#323435" transform="translate(847,1179)"/>
<path d="M0,0 L6,0 L13,15 L16,22 L21,31 L24,38 L36,61 L42,78 L44,82 L43,85 L39,80 L31,63 L28,57 L28,53 L25,52 L17,37 L18,47 L18,60 L16,61 L15,58 L14,45 L13,41 L13,31 L5,15 L0,3 Z " fill="#323435" transform="translate(912,1396)"/>
<path d="M0,0 L2,4 L9,27 L13,44 L20,70 L24,82 L27,94 L32,108 L36,121 L38,132 L35,133 L32,127 L27,110 L24,102 L20,86 L16,72 L13,58 L9,44 L6,29 L0,8 Z " fill="#2B2D2D" transform="translate(847,1179)"/>
<path d="M0,0 L2,4 L9,27 L13,44 L15,50 L14,54 L12,55 L9,44 L6,29 L0,8 Z " fill="#363737" transform="translate(847,1179)"/>
<path d="M0,0 L4,1 L9,13 L13,24 L15,28 L14,31 L10,26 L2,9 L-1,3 Z " fill="#3F4244" transform="translate(941,1450)"/>
<path d="M0,0 L2,3 L7,24 L7,33 L4,37 L1,18 Z " fill="#1E1F20" transform="translate(1296,1101)"/>
<path d="M0,0 L3,0 L2,8 L-4,9 L-11,11 L-12,8 L-15,7 L-4,4 L0,4 Z " fill="#292A2B" transform="translate(907,1382)"/>
<path d="M0,0 L2,3 L5,12 L8,17 L8,20 L2,21 L0,16 Z " fill="#3E4243" transform="translate(909,1376)"/>
<path d="M0,0 L2,1 L8,18 L8,24 L6,25 L0,7 Z " fill="#1F2121" transform="translate(866,1255)"/>
<path d="M0,0 L2,4 L8,24 L7,27 L5,26 L0,8 Z " fill="#2F3031" transform="translate(847,1179)"/>
<path d="M0,0 L1,0 L2,5 L2,14 L-1,18 L-2,13 L-2,6 L0,6 Z " fill="#252627" transform="translate(1301,1120)"/>
<path d="M0,0 L2,3 L4,9 L4,13 L2,13 L-2,5 Z " fill="#2B2F30" transform="translate(814,1405)"/>
<path d="M0,0 L2,3 L3,9 L0,13 L-3,5 L-2,2 L-1,3 Z " fill="#333536" transform="translate(874,1276)"/>
<path d="M0,0 L2,1 L6,10 L5,13 L1,8 L-1,2 Z " fill="#4A4D4E" transform="translate(950,1468)"/>
<path d="M0,0 L1,2 L3,2 L5,12 L5,18 L3,15 L0,4 Z " fill="#1A1B1C" transform="translate(853,1204)"/>
<path d="M0,0 L2,4 L1,6 L3,6 L2,14 L-2,13 L0,12 Z " fill="#282C2D" transform="translate(1373,1325)"/>
<path d="M0,0 L4,5 L5,9 L3,9 L1,12 L0,7 Z " fill="#C9CBCC" transform="translate(928,1431)"/>
<path d="M0,0 L2,4 L4,12 L2,15 L0,8 Z " fill="#3F4040" transform="translate(847,1179)"/>
<path d="M0,0 L2,1 L-2,6 L-8,7 L-7,4 Z " fill="#424546" transform="translate(825,1412)"/>
<path d="M0,0 L5,0 L4,5 L1,4 L1,2 L-2,1 Z " fill="#1F2021" transform="translate(894,1388)"/>
<path d="M0,0 L4,1 L1,4 L0,2 L-8,2 L-8,1 Z " fill="#484E4C" transform="translate(1369,1336)"/>
<path d="M0,0 L1,0 L1,6 L-2,8 L-3,2 L-1,3 Z " fill="#3D3E3F" transform="translate(874,1276)"/>
</svg>
