<?xml version="1.0" encoding="UTF-8"?>
<svg version="1.1" xmlns="http://www.w3.org/2000/svg" width="2500" height="3686">
<path d="M0,0 L18,0 L22,1 L21,5 L11,7 L17,22 L25,37 L30,48 L35,58 L39,65 L39,67 L41,67 L46,78 L48,83 L51,86 L51,88 L59,93 L68,103 L79,121 L87,136 L97,164 L106,196 L113,230 L118,256 L122,292 L125,342 L124,393 L120,445 L117,474 L114,501 L109,541 L106,565 L104,583 L102,597 L99,618 L98,630 L96,644 L93,674 L90,696 L89,708 L87,727 L85,750 L83,761 L83,769 L81,783 L79,801 L77,829 L76,839 L74,865 L73,879 L72,889 L70,914 L69,923 L68,934 L66,953 L64,972 L60,1006 L59,1011 L58,1025 L55,1042 L53,1058 L49,1088 L48,1092 L46,1111 L43,1127 L40,1147 L38,1156 L36,1176 L31,1202 L29,1220 L25,1242 L20,1265 L15,1284 L9,1300 L4,1313 L0,1321 L-5,1331 L-12,1340 L-20,1347 L-27,1349 L-26,1366 L-28,1386 L-31,1400 L-32,1408 L-36,1410 L-50,1408 L-74,1403 L-99,1401 L-138,1399 L-152,1398 L-171,1398 L-175,1399 L-176,1398 L-176,1380 L-174,1366 L-171,1356 L-169,1345 L-169,1341 L-173,1339 L-182,1330 L-190,1320 L-202,1297 L-205,1290 L-209,1271 L-210,1261 L-210,1217 L-208,1202 L-207,1174 L-208,1132 L-208,1092 L-206,1070 L-205,1050 L-201,1021 L-201,1010 L-200,1000 L-200,974 L-199,956 L-200,918 L-201,915 L-201,907 L-203,885 L-205,860 L-206,851 L-208,826 L-211,796 L-214,750 L-216,729 L-216,719 L-218,700 L-218,686 L-221,641 L-222,634 L-224,585 L-226,544 L-227,481 L-226,457 L-226,445 L-224,416 L-223,396 L-230,417 L-242,456 L-250,484 L-257,514 L-265,552 L-271,578 L-274,593 L-278,612 L-281,627 L-285,648 L-288,665 L-291,692 L-294,713 L-297,736 L-298,756 L-300,774 L-301,793 L-302,802 L-302,813 L-303,835 L-303,855 L-304,867 L-304,991 L-305,1004 L-305,1034 L-308,1070 L-308,1084 L-311,1108 L-311,1119 L-317,1166 L-320,1177 L-323,1192 L-332,1222 L-336,1230 L-342,1246 L-350,1261 L-357,1275 L-366,1289 L-368,1289 L-370,1295 L-379,1310 L-383,1315 L-389,1323 L-400,1336 L-411,1345 L-421,1351 L-433,1354 L-432,1373 L-435,1392 L-442,1416 L-446,1424 L-447,1425 L-466,1424 L-498,1422 L-518,1420 L-531,1418 L-558,1415 L-577,1411 L-590,1409 L-601,1406 L-613,1401 L-615,1400 L-618,1385 L-616,1364 L-609,1334 L-607,1328 L-609,1312 L-611,1298 L-613,1277 L-614,1239 L-613,1222 L-613,1212 L-610,1188 L-608,1171 L-604,1145 L-602,1129 L-600,1111 L-595,1077 L-594,1056 L-590,1022 L-589,1008 L-586,980 L-585,964 L-583,942 L-582,928 L-580,908 L-579,894 L-577,876 L-576,863 L-576,838 L-575,787 L-574,738 L-573,713 L-570,672 L-568,643 L-566,617 L-564,597 L-561,570 L-559,550 L-556,530 L-555,517 L-552,496 L-550,478 L-547,458 L-545,439 L-542,420 L-540,401 L-536,376 L-534,359 L-528,327 L-525,308 L-516,270 L-513,256 L-501,217 L-496,202 L-492,189 L-482,165 L-476,155 L-474,155 L-472,151 L-467,146 L-461,139 L-454,108 L-452,97 L-457,90 L-456,82 L-447,79 L-435,77 L-414,74 L-398,71 L-397,70 L-378,68 L-321,57 L-266,46 L-201,34 L-131,22 L-68,12 L-24,4 Z M-222,389 L-221,392 Z " fill="#131415" transform="translate(1488,1761)"/>
<path d="M0,0 L4,1 L7,4 L8,11 L13,10 L17,14 L29,15 L34,20 L36,22 L46,24 L55,36 L61,40 L62,42 L68,45 L68,47 L72,47 L73,50 L81,57 L85,61 L85,63 L89,65 L93,69 L93,71 L97,73 L101,76 L101,78 L105,79 L112,81 L112,83 L116,84 L118,88 L118,91 L121,92 L122,94 L127,97 L129,100 L134,103 L139,108 L143,113 L145,116 L145,119 L150,120 L156,126 L156,128 L160,129 L163,136 L172,143 L177,148 L183,154 L183,157 L187,158 L191,163 L196,167 L199,171 L199,176 L205,178 L208,181 L218,184 L222,189 L227,192 L234,201 L239,204 L247,209 L248,210 L248,219 L244,234 L241,248 L237,266 L231,291 L229,303 L227,314 L226,315 L224,330 L221,346 L217,379 L213,409 L209,449 L208,467 L207,472 L205,506 L204,542 L203,687 L201,732 L200,766 L196,769 L190,771 L188,772 L187,775 L171,781 L167,784 L163,786 L155,788 L148,791 L137,798 L128,801 L120,807 L118,807 L116,811 L106,816 L98,819 L95,824 L87,827 L81,831 L74,835 L72,837 L65,839 L56,844 L49,849 L43,852 L35,856 L22,864 L18,866 L15,866 L13,870 L8,872 L5,872 L3,876 L-5,879 L-11,883 L-16,886 L-26,889 L-33,894 L-36,894 L-38,898 L-45,901 L-50,904 L-56,908 L-65,913 L-71,917 L-74,918 L-75,921 L-79,924 L-88,926 L-88,915 L-84,877 L-81,855 L-77,835 L-75,807 L-73,794 L-71,774 L-66,730 L-64,705 L-61,669 L-60,660 L-58,619 L-56,584 L-55,535 L-53,499 L-52,476 L-51,466 L-49,421 L-47,401 L-45,358 L-43,328 L-41,311 L-40,293 L-38,279 L-37,263 L-34,239 L-32,221 L-28,196 L-26,176 L-25,172 L-23,149 L-20,124 L-15,94 L-13,73 L-8,40 L-4,18 Z " fill="#9CA5A9" transform="translate(971,2074)"/>
<path d="M0,0 L2,0 L2,34 L1,44 L0,68 L-4,101 L-6,123 L-8,136 L-11,169 L-14,195 L-16,215 L-19,242 L-21,262 L-23,282 L-25,301 L-28,333 L-32,375 L-36,403 L-37,417 L-40,440 L-41,455 L-42,459 L-43,474 L-45,483 L-49,546 L-50,560 L-51,565 L-52,579 L-53,581 L-54,598 L-56,617 L-58,624 L-61,660 L-64,679 L-67,695 L-69,712 L-73,741 L-76,758 L-78,776 L-79,778 L-82,802 L-85,815 L-87,837 L-90,852 L-93,868 L-96,868 L-100,870 L-106,870 L-113,860 L-118,854 L-124,853 L-124,851 L-128,849 L-129,846 L-139,841 L-141,837 L-146,836 L-150,833 L-150,831 L-158,831 L-159,827 L-164,827 L-167,824 L-167,821 L-169,821 L-169,818 L-179,816 L-181,813 L-185,811 L-190,806 L-197,803 L-199,797 L-199,795 L-209,793 L-211,788 L-215,787 L-221,782 L-224,779 L-231,775 L-233,772 L-238,769 L-241,766 L-246,764 L-246,762 L-250,761 L-254,759 L-254,757 L-256,757 L-256,755 L-262,753 L-268,746 L-275,743 L-283,736 L-286,731 L-293,725 L-299,722 L-301,717 L-308,715 L-309,712 L-309,698 L-308,692 L-307,676 L-306,674 L-305,656 L-304,653 L-304,581 L-305,573 L-308,523 L-309,517 L-310,498 L-315,445 L-316,419 L-319,402 L-322,347 L-324,325 L-327,267 L-329,249 L-330,219 L-331,212 L-331,194 L-321,189 L-318,189 L-318,186 L-309,182 L-306,179 L-299,178 L-299,175 L-291,171 L-289,168 L-282,165 L-281,163 L-276,161 L-272,161 L-271,157 L-263,153 L-258,150 L-253,148 L-251,146 L-244,143 L-239,139 L-235,138 L-234,136 L-228,134 L-224,134 L-222,129 L-215,126 L-210,123 L-205,121 L-204,119 L-196,116 L-194,112 L-190,110 L-187,110 L-186,106 L-178,104 L-174,100 L-167,97 L-159,93 L-157,89 L-153,87 L-149,87 L-147,83 L-139,82 L-137,78 L-129,77 L-129,74 L-121,70 L-114,68 L-114,66 L-110,66 L-110,62 L-101,60 L-99,56 L-92,54 L-91,52 L-86,51 L-85,49 L-82,48 L-81,45 L-72,41 L-67,37 L-63,37 L-62,34 L-50,28 L-44,26 L-42,23 L-37,21 L-33,21 L-33,18 L-28,17 L-28,15 L-15,10 L-12,6 L-4,5 L-2,1 Z " fill="#9CA5A9" transform="translate(1601,2119)"/>
<path d="M0,0 L1,0 L1,7 L-1,22 L-5,62 L-8,86 L-16,120 L-27,154 L-35,170 L-42,185 L-48,196 L-57,212 L-66,226 L-78,243 L-89,255 L-98,262 L-112,269 L-121,272 L-136,269 L-155,266 L-164,264 L-177,262 L-194,258 L-211,255 L-228,251 L-250,247 L-264,244 L-284,242 L-286,160 L-276,156 L-273,155 L-272,151 L-264,147 L-260,144 L-254,141 L-248,137 L-243,134 L-235,130 L-234,128 L-226,124 L-221,121 L-213,118 L-203,112 L-194,108 L-193,106 L-184,102 L-183,100 L-173,95 L-163,89 L-155,85 L-143,78 L-137,74 L-132,71 L-125,69 L-120,65 L-112,61 L-107,58 L-103,57 L-100,52 L-92,49 L-81,43 L-78,40 L-70,34 L-60,30 L-50,24 L-41,20 L-34,18 L-28,15 L-17,10 L-11,9 L-10,5 L-7,3 L-1,1 Z " fill="#1E2021" transform="translate(1169,2840)"/>
<path d="M0,0 L1,0 L1,10 L0,16 L0,33 L7,34 L9,36 L9,40 L15,42 L24,50 L28,56 L36,62 L41,64 L47,71 L52,73 L52,75 L54,75 L55,77 L62,80 L63,82 L68,84 L72,88 L77,91 L77,93 L82,95 L87,98 L92,103 L97,106 L99,110 L107,112 L110,115 L111,120 L121,125 L124,129 L129,132 L129,134 L135,134 L139,136 L139,139 L141,139 L144,144 L149,145 L150,148 L158,149 L162,153 L167,155 L172,160 L179,163 L182,168 L184,169 L184,171 L190,171 L196,178 L200,183 L202,187 L208,187 L212,185 L214,186 L216,183 L215,188 L210,213 L205,236 L196,264 L191,275 L183,291 L175,301 L172,303 L165,303 L159,301 L121,301 L113,302 L94,303 L71,303 L51,301 L47,300 L32,299 L32,297 L28,298 L22,293 L12,279 L3,262 L-4,241 L-7,221 L-7,190 L-4,154 L-4,75 L-3,39 L-3,25 L-1,6 Z " fill="#1E1F20" transform="translate(1293,2801)"/>
<path d="M0,0 L12,1 L22,5 L42,9 L48,11 L59,13 L69,15 L85,19 L102,22 L112,24 L126,26 L159,29 L157,46 L148,94 L137,92 L128,90 L78,86 L61,84 L31,80 L-5,74 L-12,72 L-11,56 L-4,4 L-1,4 L4,9 L4,11 L7,11 L4,6 L0,2 Z " fill="#212121" transform="translate(891,3086)"/>
<path d="M0,0 L11,1 L40,5 L68,5 L104,3 L115,3 L130,4 L133,6 L132,22 L130,44 L128,61 L125,62 L120,60 L113,59 L110,58 L75,54 L47,53 L-8,53 L-7,44 L-3,23 L-1,3 Z " fill="#1C1C1C" transform="translate(1325,3102)"/>
<path d="M0,0 L12,1 L19,4 L18,13 L16,22 L13,43 L10,55 L8,65 L4,74 L-1,75 L-12,72 L-11,56 L-4,4 L-1,4 L4,9 L4,11 L7,11 L4,6 L0,2 Z " fill="#292929" transform="translate(891,3086)"/>
<path d="M0,0 L1,0 L1,10 L0,16 L0,33 L7,34 L9,36 L9,40 L15,42 L24,50 L28,56 L36,62 L41,64 L47,71 L52,73 L52,75 L54,75 L55,77 L62,80 L63,82 L68,84 L72,88 L77,91 L77,93 L82,95 L87,98 L92,103 L97,106 L99,110 L107,112 L110,115 L111,120 L121,125 L124,129 L129,132 L129,134 L135,134 L139,136 L139,139 L141,139 L144,144 L149,145 L150,148 L158,149 L162,153 L167,155 L172,160 L179,163 L182,168 L184,169 L184,171 L190,171 L196,178 L200,183 L202,187 L208,187 L212,185 L213,187 L209,189 L206,189 L206,191 L198,190 L193,181 L183,173 L178,171 L173,164 L163,159 L156,154 L156,150 L147,150 L144,147 L139,143 L136,141 L136,139 L130,139 L121,134 L114,127 L108,123 L107,119 L102,118 L92,112 L84,104 L82,99 L76,96 L74,93 L69,90 L67,86 L58,85 L55,83 L55,80 L52,79 L52,77 L46,75 L44,74 L44,72 L40,71 L32,62 L21,53 L14,50 L11,47 L6,44 L4,42 L4,38 L-1,37 L-2,36 L-2,13 Z " fill="#393C3E" transform="translate(1293,2801)"/>
<path d="M0,0 L8,0 L28,2 L35,4 L53,7 L74,12 L97,16 L108,19 L120,21 L136,24 L148,26 L163,29 L162,31 L143,31 L129,30 L105,26 L84,22 L72,19 L62,17 L47,14 L34,11 L23,8 L15,5 L2,2 Z " fill="#050505" transform="translate(888,3083)"/>
<path d="M0,0 L7,0 L3,1 L3,3 L-2,4 L-2,7 L-11,10 L-13,13 L-26,18 L-31,21 L-32,23 L-39,26 L-42,29 L-47,31 L-50,31 L-51,35 L-54,35 L-55,38 L-60,38 L-61,41 L-69,44 L-70,46 L-79,48 L-79,52 L-83,52 L-83,54 L-92,58 L-98,60 L-98,63 L-107,66 L-108,68 L-117,71 L-118,73 L-126,76 L-129,81 L-136,84 L-144,88 L-146,88 L-147,91 L-155,93 L-156,96 L-163,98 L-165,103 L-169,105 L-173,105 L-175,109 L-183,112 L-188,115 L-191,115 L-193,120 L-203,122 L-204,125 L-208,124 L-205,123 L-204,119 L-196,115 L-191,112 L-186,111 L-185,108 L-180,106 L-177,106 L-175,102 L-167,98 L-162,95 L-152,89 L-148,87 L-147,85 L-139,82 L-136,79 L-129,76 L-128,74 L-120,71 L-117,68 L-110,65 L-107,62 L-100,59 L-99,57 L-91,55 L-90,52 L-85,51 L-85,49 L-75,44 L-72,44 L-70,40 L-62,38 L-61,35 L-56,33 L-53,33 L-51,29 L-43,25 L-41,23 L-34,20 L-30,17 L-24,14 L-22,12 L-15,9 L-12,6 L-5,4 L-3,1 Z " fill="#474B4D" transform="translate(1570,2133)"/>
<path d="M0,0 L4,3 L4,6 L10,8 L12,13 L15,15 L18,14 L22,17 L23,14 L27,14 L27,17 L30,17 L33,22 L37,26 L39,24 L42,25 L41,28 L46,27 L48,32 L51,33 L54,38 L60,42 L64,46 L74,52 L76,53 L76,56 L79,56 L80,60 L87,64 L88,68 L91,70 L91,72 L95,72 L96,74 L99,75 L99,77 L103,78 L106,81 L110,80 L110,83 L114,83 L114,87 L119,88 L119,92 L122,94 L122,96 L129,97 L132,99 L131,103 L133,103 L134,107 L142,113 L142,115 L144,115 L149,120 L152,126 L156,129 L154,125 L159,127 L159,130 L160,135 L155,133 L148,125 L144,124 L139,115 L133,110 L131,107 L126,104 L124,101 L120,99 L117,96 L114,89 L111,88 L111,86 L104,85 L100,83 L100,81 L96,79 L88,72 L84,68 L84,66 L81,65 L76,60 L74,56 L71,55 L71,52 L67,52 L64,49 L60,47 L58,44 L53,41 L47,33 L45,30 L35,28 L30,23 L30,21 L16,20 L12,16 L7,16 L4,8 L-1,5 L-2,8 L-1,3 Z " fill="#3A3D3E" transform="translate(972,2069)"/>
<path d="M0,0 L18,0 L38,2 L61,2 L80,1 L88,0 L126,0 L132,2 L138,4 L133,8 L133,6 L110,5 L98,5 L67,7 L39,7 L4,2 Z " fill="#050505" transform="translate(1326,3101)"/>
<path d="M0,0 L1,0 L1,10 L0,16 L0,33 L7,34 L9,36 L9,40 L15,42 L24,50 L28,56 L36,62 L41,64 L47,71 L52,73 L52,75 L54,75 L55,77 L62,80 L63,82 L68,84 L72,88 L77,91 L77,93 L82,95 L87,98 L92,103 L97,106 L99,110 L107,112 L110,115 L110,117 L105,116 L104,113 L97,111 L96,107 L90,106 L88,104 L84,103 L82,99 L76,96 L74,93 L69,90 L67,86 L58,85 L55,83 L55,80 L52,79 L52,77 L46,75 L44,74 L44,72 L40,71 L32,62 L21,53 L14,50 L11,47 L6,44 L4,42 L4,38 L-1,37 L-2,36 L-2,13 Z " fill="#71777A" transform="translate(1293,2801)"/>
<path d="M0,0 L5,3 L5,5 L10,7 L19,13 L24,18 L23,21 L21,21 L31,29 L33,33 L35,33 L40,39 L41,44 L43,44 L45,46 L47,44 L49,46 L53,46 L53,50 L58,51 L61,56 L61,58 L66,58 L71,65 L74,66 L78,70 L78,72 L83,73 L88,77 L88,86 L87,86 L85,79 L77,74 L71,70 L64,61 L59,58 L57,55 L47,52 L43,48 L38,46 L36,40 L32,35 L27,30 L22,27 L19,22 L11,15 L6,10 L1,6 Z " fill="#3B3F40" transform="translate(1132,2204)"/>
<path d="M0,0 L3,0 L4,3 L12,4 L16,8 L21,10 L26,15 L33,18 L36,23 L38,24 L38,26 L44,26 L50,33 L54,38 L56,42 L62,42 L66,40 L67,42 L63,44 L60,44 L60,46 L52,45 L47,36 L37,28 L32,26 L27,19 L17,14 L10,9 L10,5 L3,5 L2,1 Z " fill="#383B3D" transform="translate(1439,2946)"/>
<path d="M0,0 L5,0 L0,5 L-8,9 L-10,11 L-18,14 L-24,18 L-27,19 L-28,22 L-33,24 L-37,24 L-38,27 L-42,29 L-45,29 L-47,33 L-53,36 L-55,36 L-55,39 L-63,42 L-68,46 L-74,47 L-74,50 L-83,53 L-81,49 L-76,48 L-75,45 L-67,41 L-64,38 L-57,36 L-56,33 L-51,31 L-48,31 L-47,28 L-42,26 L-39,26 L-37,22 L-33,20 L-29,20 L-29,17 L-21,13 L-16,10 L-11,9 L-10,6 L-1,1 Z " fill="#3B3F41" transform="translate(1357,2258)"/>
<path d="M0,0 L2,1 L-4,5 L-11,9 L-18,13 L-25,17 L-34,22 L-46,29 L-49,29 L-51,33 L-56,35 L-59,35 L-61,39 L-69,42 L-75,46 L-80,49 L-82,48 L-73,41 L-62,35 L-61,33 L-56,31 L-53,28 L-40,21 L-33,17 L-23,11 L-12,7 L-4,2 Z " fill="#7D8487" transform="translate(1035,2911)"/>
<path d="M0,0 L12,3 L21,15 L27,19 L28,21 L34,24 L34,26 L38,26 L39,29 L47,36 L51,40 L51,42 L55,44 L59,48 L59,50 L63,52 L61,53 L57,51 L57,49 L53,48 L52,45 L48,43 L47,41 L45,41 L45,39 L41,38 L41,35 L38,34 L38,32 L36,32 L36,28 L34,28 L34,30 L32,30 L33,26 L30,26 L30,24 L25,22 L24,19 L16,19 L16,14 L14,11 L11,12 L10,6 L3,4 L1,4 Z " fill="#81898C" transform="translate(1005,2095)"/>
<path d="M0,0 L5,1 L10,5 L16,7 L17,9 L24,12 L25,14 L30,16 L34,20 L39,23 L39,25 L44,27 L49,30 L54,35 L59,38 L61,42 L69,44 L72,47 L72,49 L67,48 L66,45 L59,43 L58,39 L52,38 L50,36 L46,35 L44,31 L38,28 L36,25 L31,22 L29,18 L20,17 L17,15 L17,12 L14,11 L14,9 L8,7 L6,6 L6,4 L2,3 Z " fill="#606568" transform="translate(1331,2869)"/>
<path d="M0,0 L2,1 L-2,3 L-3,5 L-17,12 L-27,16 L-29,16 L-31,20 L-37,21 L-37,23 L-44,27 L-51,28 L-49,24 L-40,18 L-35,15 L-29,13 L-19,7 L-10,3 L-3,1 Z " fill="#3B3E40" transform="translate(1138,2857)"/>
<path d="M0,0 L7,0 L3,1 L3,3 L-2,4 L-2,7 L-11,10 L-13,13 L-26,18 L-31,21 L-32,23 L-39,26 L-42,29 L-50,32 L-58,37 L-61,37 L-61,39 L-64,38 L-62,38 L-61,35 L-56,33 L-53,33 L-51,29 L-43,25 L-41,23 L-34,20 L-30,17 L-24,14 L-22,12 L-15,9 L-12,6 L-5,4 L-3,1 Z " fill="#343739" transform="translate(1570,2133)"/>
<path d="M0,0 L4,3 L14,6 L18,11 L23,14 L30,23 L35,26 L43,31 L44,32 L44,41 L42,45 L42,36 L38,33 L38,30 L33,29 L33,27 L29,25 L25,21 L25,19 L20,19 L19,16 L15,12 L7,11 L5,9 L5,5 L1,4 Z " fill="#7C8285" transform="translate(1175,2252)"/>
<path d="M0,0 L4,2 L1,6 L-6,7 L-8,11 L-16,14 L-21,17 L-24,17 L-26,22 L-36,24 L-37,27 L-41,26 L-38,25 L-37,21 L-29,17 L-24,14 L-19,13 L-18,10 L-13,8 L-10,8 L-8,4 Z " fill="#343738" transform="translate(1403,2231)"/>
<path d="M0,0 L1,0 L3,15 L6,66 L8,87 L8,113 L7,113 L5,91 L2,33 L0,15 Z " fill="#6F7578" transform="translate(1272,2353)"/>
<path d="M0,0 L0,3 L-3,3 L-4,6 L-9,6 L-10,9 L-18,12 L-19,14 L-28,16 L-28,20 L-32,20 L-32,22 L-41,26 L-47,28 L-47,31 L-53,32 L-53,29 L-49,27 L-48,25 L-40,23 L-39,20 L-34,19 L-34,17 L-24,12 L-21,12 L-19,8 L-10,7 L-10,5 Z " fill="#414547" transform="translate(1519,2165)"/>
<path d="M0,0 L3,1 L2,3 L0,3 L0,5 L-5,7 L-9,7 L-11,11 L-19,15 L-22,17 L-26,17 L-26,19 L-34,22 L-36,25 L-47,31 L-56,33 L-57,36 L-61,35 L-56,31 L-48,27 L-40,24 L-35,20 L-27,16 L-22,13 L-18,12 L-15,7 L-7,4 Z " fill="#383C3D" transform="translate(1084,2885)"/>
<path d="M0,0 L2,1 L-3,6 L-8,8 L-15,12 L-23,17 L-30,19 L-30,21 L-40,26 L-45,29 L-52,34 L-61,36 L-59,32 L-51,28 L-46,25 L-38,22 L-28,16 L-19,12 L-18,10 L-9,6 L-8,4 Z " fill="#343739" transform="translate(994,2936)"/>
<path d="M0,0 L2,3 L4,26 L5,29 L6,55 L7,58 L9,86 L9,113 L8,113 L5,63 L4,57 L3,38 L0,8 Z " fill="#585D5F" transform="translate(1288,2579)"/>
<path d="M0,0 L3,2 L7,2 L7,6 L12,7 L15,12 L15,14 L20,14 L25,21 L28,22 L32,26 L32,28 L37,29 L42,33 L42,42 L41,42 L39,35 L31,30 L25,26 L18,17 L13,14 L9,8 L2,7 L-1,1 Z " fill="#4C5153" transform="translate(1178,2248)"/>
<path d="M0,0 L7,1 L7,4 L16,7 L22,10 L22,12 L27,13 L32,18 L32,20 L37,21 L42,26 L42,28 L45,28 L45,30 L48,31 L43,31 L43,29 L39,27 L38,24 L28,19 L26,15 L21,14 L17,11 L17,9 L9,9 L8,5 L3,5 L0,2 Z " fill="#858C90" transform="translate(1434,2941)"/>
<path d="M0,0 L3,0 L4,3 L12,4 L16,8 L21,10 L26,15 L33,18 L36,23 L38,24 L38,26 L33,25 L25,18 L17,14 L10,9 L10,5 L3,5 L2,1 Z " fill="#565B5D" transform="translate(1439,2946)"/>
<path d="M0,0 L6,2 L8,7 L16,13 L24,17 L38,29 L40,32 L36,30 L28,24 L23,22 L18,19 L10,12 L4,6 L4,4 L0,2 Z " fill="#494E50" transform="translate(1291,2837)"/>
<path d="M0,0 L2,0 L3,3 L3,24 L2,24 L2,5 L-3,8 L-4,10 L-12,12 L-17,17 L-24,19 L-22,15 L-15,14 L-15,9 L-10,7 L-6,7 L-5,3 L-1,2 Z " fill="#36383A" transform="translate(1601,2114)"/>
<path d="M0,0 L4,1 L12,8 L16,14 L24,20 L29,22 L35,29 L40,31 L40,33 L34,31 L30,27 L25,25 L13,14 L7,10 L0,1 Z " fill="#696F72" transform="translate(1305,2843)"/>
<path d="M0,0 L1,0 L1,18 L-1,32 L-2,45 L9,42 L9,44 L5,47 L-4,49 L-4,38 Z " fill="#6C7275" transform="translate(887,2951)"/>
<path d="M0,0 L2,1 L-7,6 L-11,7 L-14,12 L-22,15 L-28,19 L-35,23 L-37,25 L-43,25 L-38,21 L-33,19 L-24,14 L-23,11 L-18,9 L-6,2 Z " fill="#7A8184" transform="translate(1080,2886)"/>
<path d="M0,0 L2,0 L2,2 L6,3 L13,5 L13,7 L17,8 L19,12 L19,15 L22,16 L23,18 L28,21 L27,23 L19,20 L20,16 L18,16 L17,12 L14,13 L11,12 L9,9 L9,5 L1,5 Z " fill="#7D8386" transform="translate(1070,2150)"/>
<path d="M0,0 L4,1 L-8,8 L-12,10 L-17,15 L-26,20 L-27,21 L-33,21 L-32,19 L-24,15 L-20,12 L-14,9 L-8,5 L-3,2 Z " fill="#353839" transform="translate(929,2972)"/>
<path d="M0,0 L4,1 L-1,5 L-10,10 L-15,12 L-21,14 L-25,13 L-20,10 L-16,10 L-14,6 L-6,5 L-4,1 Z " fill="#80888B" transform="translate(1468,2196)"/>
<path d="M0,0 L4,3 L16,4 L19,7 L18,12 L15,12 L14,9 L12,8 L12,12 L8,11 L9,7 L12,7 L12,5 L5,5 L5,8 L1,8 Z " fill="#72797C" transform="translate(984,2085)"/>
<path d="M0,0 L2,1 L-4,5 L-11,9 L-18,13 L-25,17 L-34,22 L-39,25 L-41,24 L-35,19 L-30,17 L-21,12 L-20,10 L-10,6 L-4,2 Z " fill="#696F72" transform="translate(1035,2911)"/>
<path d="M0,0 L1,0 L1,15 L-3,18 L-9,20 L-11,21 L-12,24 L-23,28 L-25,27 L-15,20 L-5,15 L-4,13 L0,13 Z " fill="#6E7477" transform="translate(1170,2825)"/>
<path d="M0,0 L7,0 L3,1 L3,3 L-2,4 L-2,7 L-11,10 L-13,13 L-21,15 L-20,13 L-17,12 L-12,6 L-5,4 L-3,1 Z " fill="#444749" transform="translate(1570,2133)"/>
<path d="M0,0 L4,2 L7,6 L10,7 L11,12 L13,12 L13,15 L19,13 L21,11 L25,11 L26,7 L25,15 L22,15 L18,17 L12,17 L5,7 Z " fill="#878F92" transform="translate(1483,2972)"/>
<path d="M0,0 L12,1 L15,3 L12,5 L10,10 L7,10 L0,2 Z " fill="#1F1F1F" transform="translate(891,3086)"/>
<path d="M0,0 L3,0 L3,2 L-1,6 L-10,9 L-11,11 L-19,14 L-20,17 L-31,20 L-31,18 L-22,14 L-21,12 L-13,9 L-10,6 L-3,3 Z " fill="#36393A" transform="translate(1463,2195)"/>
<path d="M0,0 L4,1 L1,1 L-1,5 L-8,8 L-13,11 L-19,15 L-25,18 L-27,17 L-20,13 L-15,8 L-10,7 L-10,5 L-4,2 L0,2 Z " fill="#767D80" transform="translate(934,2967)"/>
<path d="M0,0 L2,1 L-4,5 L-9,8 L-13,10 L-18,13 L-23,16 L-27,18 L-31,17 L-27,15 L-24,15 L-23,11 L-15,9 L-11,5 L-4,2 Z " fill="#7C8386" transform="translate(1438,2214)"/>
<path d="M0,0 L5,1 L10,5 L16,7 L20,12 L25,17 L20,17 L17,15 L17,12 L14,11 L14,9 L8,7 L6,6 L6,4 L2,3 Z " fill="#575C5E" transform="translate(1331,2869)"/>
<path d="M0,0 L6,3 L11,8 L16,14 L18,17 L18,20 L22,21 L17,21 L17,19 L14,18 L14,14 L11,14 L11,12 L9,12 L9,8 L7,8 L6,10 L5,6 L3,6 L3,3 L0,2 Z " fill="#757C7F" transform="translate(1098,2173)"/>
<path d="M0,0 L1,0 L2,11 L14,4 L18,2 L22,3 L19,6 L7,12 L0,13 Z " fill="#80878A" transform="translate(885,2983)"/>
<path d="M0,0 L3,1 L8,6 L13,9 L15,13 L23,15 L26,18 L26,20 L21,19 L20,16 L13,14 L12,10 L6,9 L2,6 Z " fill="#737A7D" transform="translate(1377,2898)"/>
<path d="M0,0 L6,0 L5,2 L2,2 L0,6 L-8,9 L-14,13 L-19,16 L-21,15 L-12,8 L-1,2 Z " fill="#5F6467" transform="translate(974,2944)"/>
<path d="M0,0 L2,3 L4,26 L5,29 L5,42 L3,38 L0,8 Z " fill="#6A7073" transform="translate(1288,2579)"/>
<path d="M0,0 L4,1 L-3,8 L-11,10 L-13,14 L-16,15 L-18,14 L-18,12 L-10,8 L-8,5 L-1,2 Z " fill="#878E92" transform="translate(1320,2282)"/>
<path d="M0,0 L4,3 L4,6 L10,8 L12,15 L7,16 L4,8 L-1,5 L-2,8 L-1,3 Z " fill="#525659" transform="translate(972,2069)"/>
<path d="M0,0 L0,3 L-5,6 L-8,6 L-10,11 L-19,15 L-24,17 L-28,16 L-19,12 L-14,8 L-10,8 L-9,5 Z M-15,13 Z " fill="#747B7D" transform="translate(1548,2148)"/>
<path d="M0,0 L9,3 L13,8 L18,11 L18,13 L24,13 L28,15 L28,18 L30,19 L26,18 L23,15 L17,14 L16,12 L11,10 L6,5 L6,3 L1,2 Z " fill="#616669" transform="translate(1404,2922)"/>
<path d="M0,0 L3,1 L-4,5 L-15,13 L-22,16 L-26,19 L-28,19 L-28,16 L-18,11 L-8,5 Z " fill="#848B8F" transform="translate(966,2948)"/>
<path d="M0,0 L7,3 L9,7 L14,10 L21,16 L20,18 L15,15 L7,9 L6,4 L1,3 Z " fill="#55595C" transform="translate(1291,2835)"/>
<path d="M0,0 L2,1 L-6,8 L-9,10 L-18,12 L-16,8 L-8,4 L-3,1 Z " fill="#3D4042" transform="translate(951,2960)"/>
<path d="M0,0 L1,3 L-7,6 L-12,10 L-18,11 L-18,14 L-27,17 L-25,13 L-20,12 L-19,9 L-10,6 L-7,3 L0,2 Z " fill="#4C5153" transform="translate(1301,2294)"/>
<path d="M0,0 L3,2 L7,2 L7,6 L12,7 L15,12 L15,14 L20,14 L21,16 L14,15 L9,8 L2,7 L-1,1 Z " fill="#373A3C" transform="translate(1178,2248)"/>
<path d="M0,0 L7,0 L7,4 L11,6 L18,10 L22,13 L14,12 L5,5 L5,3 L0,1 Z " fill="#373A3C" transform="translate(1442,2951)"/>
<path d="M0,0 L6,2 L8,7 L16,15 L24,19 L26,23 L22,21 L14,16 L4,6 L4,4 L0,2 Z " fill="#343839" transform="translate(1291,2837)"/>
<path d="M0,0 L12,3 L19,13 L16,14 L14,11 L11,12 L10,6 L3,4 L1,4 Z " fill="#676D70" transform="translate(1005,2095)"/>
<path d="M0,0 L6,2 L12,6 L13,8 L20,11 L21,15 L19,15 L19,12 L9,10 L7,7 L3,5 Z " fill="#838B8E" transform="translate(1413,2925)"/>
<path d="M0,0 L5,3 L5,5 L10,7 L12,8 L11,13 L2,7 Z " fill="#4E5254" transform="translate(1132,2204)"/>
<path d="M0,0 L3,0 L4,3 L12,4 L16,8 L21,10 L21,12 L14,12 L10,9 L10,5 L3,5 L2,1 Z " fill="#5C6164" transform="translate(1439,2946)"/>
<path d="M0,0 L2,0 L0,4 L-6,5 L-6,7 L-13,11 L-20,12 L-18,9 L-8,5 L-5,2 Z " fill="#3F4244" transform="translate(1107,2873)"/>
<path d="M0,0 L2,1 L-4,5 L-9,8 L-16,12 L-20,11 L-11,5 L-6,2 Z " fill="#7A8184" transform="translate(1109,2870)"/>
<path d="M0,0 L2,1 L0,4 L-8,8 L-13,10 L-17,9 L-8,3 L-2,1 Z " fill="#656B6D" transform="translate(1128,2860)"/>
<path d="M0,0 L4,1 L-6,7 L-13,11 L-15,13 L-21,13 L-16,9 L-11,7 L-1,1 Z " fill="#62686B" transform="translate(1058,2898)"/>
<path d="M0,0 L1,2 L0,4 L-1,27 L-2,27 L-3,20 L-3,2 Z " fill="#6C7376" transform="translate(1273,2311)"/>
<path d="M0,0 L4,0 L3,3 L-1,5 L-6,6 L-6,9 L-10,10 L-17,14 L-19,14 L-19,12 L-11,8 L-8,5 L-2,3 Z " fill="#8D9599" transform="translate(1559,2142)"/>
<path d="M0,0 L5,0 L8,2 L7,6 L9,6 L10,10 L13,13 L9,13 L5,8 L5,5 Z " fill="#303334" transform="translate(1096,2166)"/>
<path d="M0,0 L1,3 L-8,8 L-14,13 L-20,14 L-17,10 L-10,7 L-5,3 L-1,2 Z " fill="#7E8689" transform="translate(1367,2255)"/>
<path d="M0,0 L4,3 L11,5 L11,11 L6,10 L5,5 L1,4 Z " fill="#848B8E" transform="translate(1175,2252)"/>
<path d="M0,0 L7,6 L15,14 L14,16 L9,14 L8,10 L3,8 L3,6 L1,6 Z " fill="#798083" transform="translate(1139,2214)"/>
<path d="M0,0 L4,1 L10,5 L13,10 L8,8 L7,5 L-1,5 Z " fill="#72797C" transform="translate(1022,2109)"/>
<path d="M0,0 L3,1 L2,3 L0,3 L0,5 L-9,8 L-16,9 L-15,7 L-7,4 Z " fill="#4A4F51" transform="translate(1084,2885)"/>
<path d="M0,0 L1,0 L1,14 L-1,27 L-2,27 L-2,11 Z " fill="#676D6F" transform="translate(1585,2314)"/>
<path d="M0,0 L4,1 L7,5 L12,8 L13,10 L9,9 L4,6 L0,6 Z " fill="#72797B" transform="translate(1186,2258)"/>
<path d="M0,0 L7,6 L7,8 L11,9 L11,12 L5,11 L3,5 L-1,4 Z " fill="#798083" transform="translate(1120,2194)"/>
<path d="M0,0 L4,1 L12,8 L13,11 L7,10 L0,1 Z " fill="#838A8D" transform="translate(1305,2843)"/>
<path d="M0,0 L7,1 L7,4 L10,5 L11,7 L15,9 L9,9 L8,5 L3,5 L0,2 Z " fill="#777E80" transform="translate(1434,2941)"/>
<path d="M0,0 L4,1 L-3,4 L-12,10 L-14,13 L-19,13 L-18,11 L-14,11 L-13,7 L-5,3 Z " fill="#6D7476" transform="translate(1343,2269)"/>
<path d="M0,0 L5,0 L0,5 L-8,9 L-10,10 L-8,5 Z " fill="#4C5052" transform="translate(1357,2258)"/>
<path d="M0,0 L2,1 L1,3 L-3,4 L-4,7 L-13,10 L-14,12 L-13,7 L-5,3 Z " fill="#383B3D" transform="translate(1418,2222)"/>
<path d="M0,0 L4,2 L8,5 L6,1 L11,3 L11,6 L12,11 L7,9 L0,1 Z " fill="#3E4244" transform="translate(1120,2193)"/>
<path d="M0,0 L6,0 L1,4 L-5,7 L-9,6 L-6,5 L-5,2 Z " fill="#6F7678" transform="translate(1139,2853)"/>
<path d="M0,0 L1,0 L1,17 L-1,24 L-2,24 L-2,16 Z " fill="#6A7072" transform="translate(905,2804)"/>
<path d="M0,0 L1,0 L1,10 L0,14 L-1,29 L-2,29 L-2,9 Z " fill="#6C7275" transform="translate(1559,2564)"/>
<path d="M0,0 L7,2 L8,3 L8,8 L4,6 L-1,6 Z " fill="#858D90" transform="translate(1008,2098)"/>
<path d="M0,0 L3,1 L-2,6 L-10,9 L-13,12 L-18,12 L-15,10 L-10,6 L-3,4 L-2,1 Z " fill="#2F3233" transform="translate(1303,2290)"/>
<path d="M0,0 L2,1 L-1,5 L-8,6 L-10,10 L-14,9 L-10,8 L-9,4 L-4,2 L0,2 Z " fill="#6F7578" transform="translate(1405,2232)"/>
<path d="M0,0 L2,0 L2,2 L6,3 L13,5 L13,7 L17,8 L16,10 L14,9 L13,11 L11,7 L1,5 Z " fill="#666B6E" transform="translate(1070,2150)"/>
<path d="M0,0 L1,0 L1,9 L11,4 L13,4 L13,6 L9,9 L0,11 Z " fill="#46494B" transform="translate(883,2989)"/>
<path d="M0,0 L6,0 L12,7 L12,9 L10,9 L8,6 L1,2 Z " fill="#5A6062" transform="translate(1477,2972)"/>
<path d="M0,0 L4,1 L-1,4 L-5,6 L-8,6 L-10,11 L-19,13 L-18,11 L-11,10 L-10,6 L-2,2 Z " fill="#696F72" transform="translate(1387,2242)"/>
<path d="M0,0 L4,1 L-8,8 L-13,11 L-15,10 L-10,6 L-4,3 Z " fill="#4C5153" transform="translate(929,2972)"/>
<path d="M0,0 L5,2 L6,5 L10,7 L17,14 L14,14 L7,7 L1,3 Z " fill="#333537" transform="translate(1400,2921)"/>
<path d="M0,0 L2,1 L0,4 L-5,7 L-16,10 L-14,7 L-7,4 Z " fill="#3A3E3F" transform="translate(1021,2921)"/>
<path d="M0,0 L5,2 L8,4 L8,6 L6,6 L5,9 L3,8 L0,3 Z " fill="#2A2C2E" transform="translate(973,2067)"/>
<path d="M0,0 L4,3 L6,7 L12,7 L16,5 L17,7 L13,9 L5,9 L0,4 Z " fill="#565B5D" transform="translate(1489,2981)"/>
<path d="M0,0 L6,1 L8,4 L12,5 L13,9 L7,7 L0,1 Z " fill="#525759" transform="translate(1391,2913)"/>
<path d="M0,0 L1,3 L6,4 L10,8 L17,9 L18,12 L9,10 L5,6 L0,4 Z " fill="#54595B" transform="translate(1170,2246)"/>
<path d="M0,0 L5,0 L5,2 L-3,5 L-5,8 L-9,7 L-6,6 L-5,2 Z " fill="#404445" transform="translate(1371,2250)"/>
<path d="M0,0 L6,2 L7,4 L12,6 L16,11 L12,9 L7,7 L0,1 Z " fill="#707679" transform="translate(1349,2879)"/>
<path d="M0,0 L5,2 L11,7 L11,8 L6,8 L3,6 L3,3 L0,2 Z " fill="#424648" transform="translate(1345,2878)"/>
<path d="M0,0 L5,1 L11,8 L16,10 L16,12 L10,10 L4,5 Z " fill="#81888B" transform="translate(1329,2864)"/>
<path d="M0,0 L5,1 L10,6 L13,7 L15,11 L9,9 L3,2 Z " fill="#3D4042" transform="translate(1193,2263)"/>
<path d="M0,0 L3,0 L3,3 L7,3 L7,7 L12,8 L10,12 L9,9 L6,8 L6,4 L1,4 L1,2 L-1,1 Z " fill="#303233" transform="translate(1079,2149)"/>
<path d="M0,0 L1,4 L-7,7 L-8,9 L-13,9 L-12,7 L-9,7 L-8,4 L-4,3 L-3,1 Z " fill="#2A2D2E" transform="translate(1585,2124)"/>
<path d="M0,0 L3,0 L7,1 L10,4 L8,4 L8,6 L3,5 L0,2 Z " fill="#303234" transform="translate(984,2083)"/>
<path d="M0,0 L18,0 L14,1 L14,3 L4,2 Z " fill="#090A0A" transform="translate(1326,3101)"/>
<path d="M0,0 L4,1 L7,3 L9,7 L11,8 L11,10 L6,9 L5,8 L5,3 L1,2 Z " fill="#676D6F" transform="translate(1466,2962)"/>
<path d="M0,0 L4,0 L10,7 L15,9 L15,11 L10,10 L2,2 Z " fill="#474B4D" transform="translate(1406,2925)"/>
<path d="M0,0 L2,1 L-2,5 L-6,7 L-9,7 L-10,10 L-14,9 L-9,5 L-1,1 Z " fill="#464A4C" transform="translate(1037,2911)"/>
<path d="M0,0 L8,1 L8,3 L13,3 L13,7 L11,7 L11,5 L4,4 L0,2 Z " fill="#484C4E" transform="translate(1072,2150)"/>
<path d="M0,0 L5,2 L9,6 L9,10 L7,10 L5,6 L1,4 Z " fill="#6C7275" transform="translate(1370,2894)"/>
<path d="M0,0 L0,3 L-3,3 L-4,6 L-9,6 L-10,9 L-15,10 L-14,7 L-10,7 L-10,5 Z " fill="#606668" transform="translate(1519,2165)"/>
<path d="M0,0 L5,2 L5,4 L9,4 L10,8 L5,6 L5,8 L3,8 L4,4 L1,4 Z " fill="#656B6E" transform="translate(1034,2117)"/>
<path d="M0,0 L8,4 L11,9 L10,11 L7,7 L2,4 Z " fill="#3D4042" transform="translate(1023,2106)"/>
<path d="M0,0 L4,1 L12,8 L11,10 L6,7 L1,2 Z " fill="#5F6467" transform="translate(1300,2843)"/>
<path d="M0,0 L2,1 L-3,6 L-10,8 L-8,4 L-1,3 Z " fill="#696F71" transform="translate(1587,2125)"/>
<path d="M0,0 L2,0 L3,9 L2,6 L-1,6 L-1,4 L-3,4 L-3,1 Z " fill="#8B9396" transform="translate(982,2084)"/>
<path d="M0,0 L2,0 L2,2 L-9,6 L-11,5 L-6,1 Z " fill="#54595B" transform="translate(1156,2847)"/>
<path d="M0,0 L4,1 L1,4 L-7,7 L-11,6 L-2,4 Z " fill="#80878A" transform="translate(1502,2175)"/>
<path d="M0,0 L1,0 L0,8 L-3,8 L-7,9 L-5,5 L0,4 Z " fill="#767C7F" transform="translate(1508,2979)"/>
<path d="M0,0 L4,2 L10,4 L12,9 L8,7 L3,4 Z " fill="#54595B" transform="translate(1379,2904)"/>
<path d="M0,0 L4,2 L5,3 L5,12 L3,16 L3,7 Z " fill="#6F7679" transform="translate(1214,2281)"/>
<path d="M0,0 L6,2 L11,6 L10,9 L8,8 L8,5 L3,4 L3,2 L0,1 Z " fill="#838B8E" transform="translate(1205,2277)"/>
<path d="M0,0 L2,1 L-4,5 L-11,8 L-14,7 L-6,3 L-4,1 Z " fill="#2C2F30" transform="translate(1552,2144)"/>
<path d="M0,0 L4,1 L-1,4 L-2,6 L-10,7 L-7,6 L-7,4 L-3,4 L-2,1 Z " fill="#686E70" transform="translate(1599,2118)"/>
<path d="M0,0 L4,1 L-8,8 L-10,7 L-6,3 L-1,1 Z " fill="#303335" transform="translate(1045,2908)"/>
<path d="M0,0 L1,2 L-2,5 L-11,7 L-7,3 L-1,1 Z " fill="#3D4143" transform="translate(1169,2840)"/>
<path d="M0,0 L3,1 L3,4 L8,5 L12,11 L8,9 L2,5 Z " fill="#767D80" transform="translate(1297,2837)"/>
<path d="M0,0 L4,2 L10,6 L8,7 L1,4 Z " fill="#81898C" transform="translate(1403,2918)"/>
<path d="M0,0 L2,1 L-2,4 L-10,8 L-12,8 L-12,6 L-5,3 Z " fill="#899295" transform="translate(1391,2242)"/>
<path d="M0,0 L4,1 L4,4 L9,4 L9,6 L3,6 L0,1 Z " fill="#7E8689" transform="translate(1492,2983)"/>
<path d="M0,0 L6,2 L7,6 L2,5 Z " fill="#848C8F" transform="translate(1396,2912)"/>
<path d="M0,0 L2,1 L-3,6 L-5,6 L-9,7 L-4,2 Z " fill="#848C8F" transform="translate(1298,2297)"/>
<path d="M0,0 L2,0 L2,2 L6,2 L5,5 L-3,4 L-3,2 Z " fill="#3F4344" transform="translate(995,2085)"/>
<path d="M0,0 L2,1 L-3,5 L-7,7 L-11,6 L-6,3 L-1,1 Z " fill="#676D70" transform="translate(1100,2875)"/>
<path d="M0,0 L4,1 L-2,5 L-7,5 L-5,2 Z " fill="#383B3C" transform="translate(1147,2852)"/>
<path d="M0,0 L7,0 L7,2 L4,3 L2,6 L1,4 L-1,3 Z " fill="#8D9599" transform="translate(989,2090)"/>
<path d="M0,0 L4,0 L4,3 L7,3 L9,8 L6,7 L6,4 L2,4 L2,2 L-1,3 Z " fill="#2B2D2E" transform="translate(995,2083)"/>
<path d="M0,0 L4,2 L5,7 L1,8 Z " fill="#343738" transform="translate(979,2076)"/>
<path d="M0,0 L2,1 L-5,4 L-7,7 L-11,6 L-6,2 Z " fill="#575C5E" transform="translate(951,2960)"/>
<path d="M0,0 L11,4 L12,7 L7,5 L0,2 Z " fill="#8C9498" transform="translate(1444,2946)"/>
<path d="M0,0 L3,1 L-2,4 L-8,7 L-10,6 L-4,2 Z " fill="#8B9396" transform="translate(1344,2270)"/>
<path d="M0,0 L4,0 L3,3 L-1,5 L-8,6 L-5,4 L-2,3 Z " fill="#878E92" transform="translate(1559,2142)"/>
<path d="M0,0 L7,6 L7,9 L3,8 L0,3 Z " fill="#676E70" transform="translate(1045,2125)"/>
<path d="M0,0 L3,0 L4,3 L7,5 L-1,5 Z " fill="#878E92" transform="translate(1022,2109)"/>
<path d="M0,0 L2,1 L-3,5 L-9,5 L-4,1 Z " fill="#5D6265" transform="translate(1046,2906)"/>
<path d="M0,0 L4,1 L1,4 L-4,6 L-8,5 L-1,2 Z " fill="#6F7578" transform="translate(1320,2282)"/>
<path d="M0,0 L3,1 L-4,5 L-7,4 L-4,1 Z " fill="#878F93" transform="translate(1354,2264)"/>
<path d="M0,0 L3,2 L7,2 L6,6 L6,4 L1,6 L-1,1 Z " fill="#2D2F31" transform="translate(1178,2248)"/>
<path d="M0,0 L5,1 L6,4 L5,8 L3,8 L1,2 Z " fill="#63686B" transform="translate(997,2089)"/>
<path d="M0,0 L3,1 L-2,5 L-7,5 L-2,1 Z " fill="#889093" transform="translate(1147,2848)"/>
<path d="M0,0 L3,1 L-2,5 L-7,6 L-6,3 Z " fill="#868D91" transform="translate(1280,2308)"/>
<path d="M0,0 L5,1 L10,5 L9,7 L5,4 L0,1 Z " fill="#303334" transform="translate(1210,2276)"/>
<path d="M0,0 L5,1 L9,3 L8,7 L2,2 Z " fill="#4B4F51" transform="translate(1462,2962)"/>
<path d="M0,0 L5,2 L9,6 L8,8 L0,1 Z " fill="#868E91" transform="translate(1318,2854)"/>
<path d="M0,0 L3,1 L-2,5 L-5,5 L-5,2 Z " fill="#8D9599" transform="translate(1317,2286)"/>
<path d="M0,0 L7,6 L8,8 L3,8 L1,3 Z " fill="#777E81" transform="translate(1157,2232)"/>
<path d="M0,0 L3,1 L3,3 L6,4 L7,7 L3,7 Z " fill="#505456" transform="translate(1113,2186)"/>
<path d="M0,0 L2,0 L2,2 L6,4 L7,7 L3,7 L3,3 L0,2 Z " fill="#6B7274" transform="translate(1054,2135)"/>
<path d="M0,0 L2,1 L-6,6 L-8,5 L-3,1 Z " fill="#474B4D" transform="translate(912,2983)"/>
<path d="M0,0 L5,0 L1,4 L-4,4 Z " fill="#3F4344" transform="translate(1357,2258)"/>
<path d="M0,0 L5,2 L7,7 L3,7 L3,3 L0,2 Z " fill="#8B9396" transform="translate(1152,2229)"/>
<path d="M0,0 L4,1 L-1,4 L-5,3 Z " fill="#616769" transform="translate(1448,2206)"/>
<path d="M0,0 L5,2 L5,5 L4,7 L2,6 Z " fill="#2C2F30" transform="translate(1126,2194)"/>
<path d="M0,0 L5,1 L6,6 L2,4 Z " fill="#414446" transform="translate(1096,2169)"/>
<path d="M0,0 L2,0 L2,2 L6,3 L7,5 L1,5 Z " fill="#80878A" transform="translate(1070,2150)"/>
<path d="M0,0 L3,1 L-1,3 L-2,5 L-6,4 Z " fill="#8A9295" transform="translate(921,2974)"/>
<path d="M0,0 L7,2 L7,4 L2,4 Z " fill="#686E71" transform="translate(1453,2954)"/>
<path d="M0,0 L4,1 L7,2 L7,5 L9,6 L5,5 Z " fill="#6C7375" transform="translate(1425,2935)"/>
<path d="M0,0 L3,1 L-1,5 L-3,5 L-3,1 Z " fill="#2B2E30" transform="translate(1273,2308)"/>
<path d="M0,0 L6,3 L8,6 L4,5 L0,2 Z " fill="#62686A" transform="translate(1191,2262)"/>
<path d="M0,0 L3,0 L3,2 L-2,5 L-5,4 Z " fill="#323536" transform="translate(1463,2195)"/>
<path d="M0,0 L4,1 L7,6 L1,4 Z " fill="#323537" transform="translate(1071,2146)"/>
</svg>
