<?xml version="1.0" encoding="UTF-8"?>
<svg version="1.1" xmlns="http://www.w3.org/2000/svg" width="2214" height="3264">
<path d="M0,0 L36,5 L65,11 L78,15 L104,21 L131,30 L144,36 L156,43 L168,52 L172,55 L172,57 L176,59 L185,69 L196,84 L204,100 L210,115 L216,152 L218,183 L221,219 L222,268 L222,286 L221,310 L220,317 L219,335 L218,338 L217,358 L214,377 L211,393 L201,394 L185,394 L162,392 L147,388 L143,386 L140,431 L139,455 L139,474 L141,501 L145,528 L149,548 L155,571 L166,603 L176,627 L190,657 L200,675 L209,692 L213,705 L216,721 L216,729 L203,737 L187,747 L166,756 L154,759 L141,763 L118,769 L87,776 L63,782 L20,791 L-1,795 L-33,801 L-96,809 L-129,811 L-147,813 L-169,815 L-187,816 L-191,817 L-226,819 L-230,820 L-269,820 L-283,817 L-292,811 L-295,808 L-293,798 L-285,765 L-282,751 L-279,735 L-275,715 L-272,693 L-262,637 L-257,599 L-255,588 L-252,556 L-251,536 L-250,529 L-250,488 L-251,472 L-259,455 L-263,445 L-266,440 L-275,444 L-285,448 L-300,455 L-310,459 L-318,463 L-330,469 L-337,472 L-354,481 L-359,480 L-367,464 L-375,447 L-379,437 L-385,422 L-392,402 L-401,372 L-408,344 L-414,312 L-416,292 L-418,256 L-418,229 L-415,194 L-411,176 L-405,158 L-396,143 L-389,134 L-384,129 L-372,118 L-354,105 L-341,96 L-323,85 L-300,71 L-278,58 L-256,46 L-246,40 L-230,32 L-216,24 L-214,23 L-209,28 L-202,34 L-198,39 L-188,46 L-172,54 L-155,61 L-133,66 L-121,68 L-100,68 L-83,65 L-72,62 L-56,54 L-43,46 L-33,37 L-28,33 L-21,25 L-14,16 L-4,3 Z " fill="#E7E9EA" transform="translate(1163,901)"/>
<path d="M0,0 L36,5 L65,11 L78,15 L104,21 L131,30 L144,36 L156,43 L168,52 L172,55 L172,57 L176,59 L185,69 L196,84 L204,100 L210,115 L216,152 L218,183 L221,219 L222,268 L222,286 L221,310 L220,317 L219,335 L218,338 L217,358 L214,377 L211,393 L201,394 L185,394 L162,392 L147,388 L143,386 L140,431 L139,455 L139,474 L141,501 L145,528 L149,548 L155,571 L166,603 L176,627 L190,657 L200,675 L209,692 L213,705 L216,721 L216,729 L203,737 L187,747 L166,756 L154,759 L141,763 L118,769 L87,776 L63,782 L20,791 L-1,795 L-33,801 L-96,809 L-129,811 L-147,813 L-169,815 L-187,816 L-191,817 L-226,819 L-230,820 L-269,820 L-283,817 L-292,811 L-295,808 L-293,798 L-285,765 L-282,751 L-279,735 L-275,715 L-272,693 L-262,637 L-257,599 L-255,588 L-252,556 L-251,536 L-250,529 L-250,488 L-251,472 L-259,455 L-263,445 L-266,440 L-275,444 L-285,448 L-300,455 L-310,459 L-318,463 L-330,469 L-337,472 L-354,481 L-359,480 L-367,464 L-375,447 L-379,437 L-385,422 L-392,402 L-401,372 L-408,344 L-414,312 L-416,292 L-418,256 L-418,229 L-415,194 L-411,176 L-405,158 L-396,143 L-389,134 L-384,129 L-372,118 L-354,105 L-341,96 L-323,85 L-300,71 L-278,58 L-256,46 L-246,40 L-230,32 L-216,24 L-214,23 L-209,28 L-202,34 L-198,39 L-188,46 L-172,54 L-155,61 L-133,66 L-121,68 L-100,68 L-83,65 L-72,62 L-56,54 L-43,46 L-33,37 L-28,33 L-21,25 L-14,16 L-4,3 Z M0,4 L-3,12 L-3,14 L-5,14 L-12,24 L-24,38 L-31,45 L-42,53 L-55,61 L-65,66 L-76,70 L-87,73 L-101,75 L-122,75 L-145,70 L-157,67 L-169,62 L-185,54 L-191,50 L-200,43 L-207,35 L-213,28 L-218,29 L-240,42 L-256,52 L-278,65 L-300,78 L-311,85 L-324,93 L-339,103 L-351,111 L-363,120 L-376,131 L-385,140 L-394,153 L-400,164 L-406,186 L-409,209 L-410,224 L-411,225 L-411,273 L-409,294 L-407,310 L-404,328 L-402,336 L-401,345 L-396,362 L-393,377 L-387,393 L-381,413 L-377,422 L-371,440 L-366,452 L-363,461 L-356,477 L-352,475 L-336,465 L-331,463 L-325,460 L-315,454 L-303,449 L-294,445 L-290,444 L-290,442 L-279,440 L-266,436 L-267,427 L-271,417 L-284,377 L-294,347 L-300,325 L-302,315 L-304,309 L-308,289 L-311,279 L-313,269 L-317,253 L-319,245 L-317,245 L-316,252 L-312,267 L-308,282 L-304,297 L-300,312 L-297,324 L-293,337 L-291,344 L-282,370 L-275,391 L-271,402 L-266,418 L-262,428 L-259,437 L-252,452 L-248,463 L-243,472 L-238,483 L-236,483 L-234,488 L-230,496 L-226,509 L-224,516 L-221,523 L-223,523 L-225,518 L-233,502 L-236,493 L-241,485 L-245,477 L-247,477 L-246,493 L-243,508 L-243,545 L-245,563 L-248,600 L-250,615 L-252,625 L-258,663 L-260,672 L-263,692 L-268,716 L-269,718 L-271,730 L-274,747 L-278,759 L-280,769 L-284,780 L-288,793 L-291,803 L-290,808 L-284,810 L-278,811 L-238,811 L-187,807 L-152,805 L-142,804 L-140,803 L-103,800 L-84,799 L-56,795 L-38,793 L-15,788 L-14,787 L1,786 L16,782 L30,779 L47,776 L83,768 L97,765 L113,761 L138,756 L159,750 L167,748 L184,742 L194,738 L194,736 L199,735 L199,733 L205,731 L212,727 L212,716 L211,711 L209,711 L206,701 L199,689 L191,673 L188,669 L185,662 L178,649 L176,649 L174,641 L172,641 L170,632 L168,632 L167,627 L162,615 L155,596 L151,586 L147,571 L144,563 L139,541 L137,531 L136,518 L135,517 L132,492 L131,475 L131,438 L133,399 L134,395 L134,386 L136,386 L137,379 L138,349 L140,333 L141,319 L142,289 L142,207 L141,191 L136,162 L138,162 L140,172 L145,194 L148,216 L148,297 L144,344 L143,362 L142,366 L142,380 L151,383 L171,387 L185,389 L208,389 L209,375 L210,370 L213,322 L214,320 L215,299 L215,250 L214,215 L212,177 L209,147 L208,131 L204,110 L200,101 L198,101 L197,96 L190,85 L180,72 L169,60 L159,52 L145,43 L126,34 L118,31 L102,27 L72,19 L59,16 L20,7 L13,5 Z " fill="#3C3F40" transform="translate(1163,901)"/>
<path d="M0,0 L36,5 L65,11 L78,15 L104,21 L131,30 L144,36 L156,43 L168,52 L172,55 L172,57 L176,59 L185,69 L196,84 L204,100 L210,115 L216,152 L218,183 L221,219 L222,268 L222,286 L221,310 L220,317 L219,335 L218,338 L217,358 L214,377 L211,390 L209,389 L209,378 L210,375 L214,299 L214,250 L213,215 L211,177 L208,147 L207,131 L203,110 L200,101 L198,101 L192,89 L183,77 L172,64 L162,55 L147,45 L126,35 L118,32 L102,28 L72,20 L59,17 L20,8 L13,6 L0,4 L-3,14 L-5,14 L-7,19 L-16,30 L-27,42 L-36,50 L-52,60 L-56,63 L-63,66 L-76,71 L-87,74 L-101,76 L-122,76 L-145,71 L-157,68 L-169,63 L-185,55 L-191,51 L-201,43 L-208,35 L-213,29 L-218,30 L-240,43 L-256,53 L-278,66 L-300,79 L-311,86 L-324,94 L-339,104 L-351,112 L-363,121 L-376,132 L-384,140 L-393,153 L-399,164 L-405,186 L-408,209 L-409,224 L-410,225 L-410,273 L-408,294 L-406,310 L-403,328 L-401,336 L-400,345 L-395,362 L-392,377 L-386,393 L-380,413 L-376,422 L-370,440 L-365,452 L-362,461 L-358,471 L-358,478 L-360,478 L-368,462 L-375,447 L-379,437 L-385,422 L-392,402 L-401,372 L-408,344 L-414,312 L-416,292 L-418,256 L-418,229 L-415,194 L-411,176 L-405,158 L-396,143 L-389,134 L-384,129 L-372,118 L-354,105 L-341,96 L-323,85 L-300,71 L-278,58 L-256,46 L-246,40 L-230,32 L-216,24 L-214,23 L-209,28 L-202,34 L-198,39 L-188,46 L-172,54 L-155,61 L-133,66 L-121,68 L-100,68 L-83,65 L-72,62 L-56,54 L-43,46 L-33,37 L-28,33 L-21,25 L-14,16 L-4,3 Z " fill="#1D1E1E" transform="translate(1163,901)"/>
<path d="M0,0 L9,1 L9,3 L0,3 L-2,12 L-3,14 L-5,14 L-7,19 L-16,30 L-27,42 L-36,50 L-52,60 L-56,63 L-63,66 L-76,71 L-87,74 L-101,76 L-122,76 L-145,71 L-157,68 L-169,63 L-185,55 L-191,51 L-201,43 L-203,40 L-203,36 L-199,38 L-188,46 L-172,54 L-155,61 L-133,66 L-121,68 L-100,68 L-83,65 L-72,62 L-56,54 L-43,46 L-33,37 L-28,33 L-21,25 L-14,16 L-4,3 Z " fill="#171818" transform="translate(1163,901)"/>
<path d="M0,0 L1,0 L1,8 L-2,11 L-11,15 L-21,19 L-36,26 L-46,30 L-54,34 L-66,40 L-73,43 L-90,52 L-95,51 L-94,44 L-92,48 L-77,38 L-72,35 L-67,33 L-61,30 L-51,24 L-39,19 L-30,15 L-26,15 L-26,13 L-5,7 L-1,7 Z " fill="#363839" transform="translate(899,1330)"/>
<path d="M0,0 L2,0 L8,22 L12,37 L16,52 L20,67 L23,79 L24,84 L22,83 L20,79 L19,83 L15,67 L10,44 L7,34 L5,24 L1,8 Z " fill="#444546" transform="translate(844,1146)"/>
<path d="M0,0 L3,4 L4,9 L6,9 L13,22 L17,35 L19,42 L21,46 L21,49 L19,49 L11,34 L7,26 L5,19 L0,11 L-3,5 L-1,5 Z " fill="#4A4D4E" transform="translate(921,1375)"/>
<path d="M0,0 L1,0 L1,16 L-1,53 L-2,56 L-2,67 L-1,71 L-8,71 L-8,69 L-22,68 L-22,67 L-4,67 L-4,53 L-3,48 Z " fill="#5C5E5F" transform="translate(1375,1223)"/>
<path d="M0,0 L2,3 L6,15 L12,27 L12,29 L10,29 L8,25 L3,26 L0,21 L1,17 L1,7 Z " fill="#4B4E4F" transform="translate(898,1321)"/>
<path d="M0,0 L2,0 L8,22 L8,27 L6,26 L4,29 L0,6 Z " fill="#3E3F40" transform="translate(1299,1063)"/>
<path d="M0,0 L2,3 L3,13 L3,22 L2,29 L1,29 L-1,14 L-1,2 Z " fill="#232425" transform="translate(1305,1087)"/>
<path d="M0,0 L2,1 L-2,5 L-3,8 L-8,11 L-13,10 L-12,3 L-10,7 Z " fill="#3F4243" transform="translate(817,1371)"/>
<path d="M0,0 L2,3 L6,14 L6,21 L3,20 L0,5 Z " fill="#1F2021" transform="translate(863,1220)"/>
<path d="M0,0 L2,1 L-5,9 L-14,18 L-14,15 L-7,7 Z " fill="#CACBCB" transform="translate(791,1028)"/>
<path d="M0,0 L3,2 L3,13 L0,12 L-1,2 Z " fill="#252728" transform="translate(914,1388)"/>
<path d="M0,0 L2,3 L4,10 L6,14 L6,17 L4,17 L-2,5 L0,4 Z " fill="#515456" transform="translate(936,1407)"/>
<path d="M0,0 L20,0 L21,4 L14,4 L14,2 L0,1 Z " fill="#515458" transform="translate(1353,1290)"/>
<path d="M0,0 L2,0 L6,8 L6,10 L4,10 L3,8 L2,16 L1,16 Z " fill="#AAADAE" transform="translate(916,1378)"/>
<path d="M0,0 L2,3 L5,15 L6,21 L4,19 L3,16 L1,17 L0,4 Z " fill="#4F5151" transform="translate(855,1183)"/>
<path d="M0,0 L9,1 L9,3 L0,3 L-1,6 L-2,4 L-6,7 L-4,3 Z " fill="#0F1010" transform="translate(1163,901)"/>
<path d="M0,0 L2,3 L2,16 L0,13 L-1,2 Z " fill="#131415" transform="translate(1305,1087)"/>
<path d="M0,0 L2,2 L4,15 L2,15 L0,8 Z " fill="#303232" transform="translate(852,1175)"/>
<path d="M0,0 L1,0 L3,14 L4,15 L4,23 L3,23 L1,16 Z " fill="#96999B" transform="translate(1295,1404)"/>
<path d="M0,0 L2,3 L3,14 L0,18 L-1,10 L0,10 Z " fill="#555758" transform="translate(868,1230)"/>
<path d="M0,0 L8,0 L8,1 L-3,4 L-11,4 L-11,3 L-1,1 Z " fill="#828586" transform="translate(1149,1687)"/>
<path d="M0,0 L2,4 L2,11 L-1,10 L-2,4 L0,4 Z " fill="#303233" transform="translate(867,1230)"/>
<path d="M0,0 L2,0 L4,6 L3,10 L1,11 Z " fill="#565758" transform="translate(1299,1063)"/>
<path d="M0,0 L3,1 L1,5 L-5,7 L-3,3 Z " fill="#2B2D2E" transform="translate(819,1371)"/>
<path d="M0,0 L1,0 L1,8 L-2,11 L-3,7 L-1,7 Z " fill="#262829" transform="translate(899,1330)"/>
<path d="M0,0 L3,4 L4,8 L-4,8 L-3,6 L0,6 Z " fill="#4C5354" transform="translate(1375,1622)"/>
<path d="M0,0 L2,1 L-2,5 L-3,8 L-5,8 L-5,6 L-7,5 Z M-5,5 Z " fill="#535657" transform="translate(817,1371)"/>
<path d="M0,0 L2,0 L3,8 L0,8 Z " fill="#2E2F31" transform="translate(913,1381)"/>
<path d="M0,0 L5,1 L1,4 L-3,3 Z " fill="#363738" transform="translate(1373,1629)"/>
<path d="M0,0 L2,1 L3,12 L1,8 L1,3 L-1,3 Z " fill="#454748" transform="translate(914,1378)"/>
</svg>
