<?xml version="1.0" encoding="UTF-8"?>
<svg version="1.1" xmlns="http://www.w3.org/2000/svg" width="2500" height="3686">
<path d="M0,0 L7,1 L12,5 L13,20 L5,45 L0,61 L-9,86 L-12,98 L-24,130 L-41,178 L-54,221 L-63,255 L-69,282 L-75,302 L-82,330 L-90,366 L-99,402 L-105,433 L-108,454 L-108,487 L-106,511 L-104,528 L-102,555 L-100,603 L-99,609 L-99,642 L-101,652 L-108,671 L-118,686 L-123,692 L-137,703 L-156,715 L-172,724 L-188,732 L-205,739 L-220,745 L-244,752 L-270,758 L-299,763 L-319,765 L-323,766 L-342,767 L-374,767 L-397,763 L-409,757 L-417,750 L-421,742 L-422,730 L-421,715 L-418,708 L-414,692 L-410,686 L-405,672 L-401,667 L-396,655 L-391,647 L-386,638 L-384,638 L-382,632 L-375,620 L-368,609 L-361,598 L-354,587 L-347,576 L-339,565 L-332,554 L-325,543 L-314,528 L-309,519 L-305,513 L-301,505 L-298,500 L-294,490 L-289,478 L-285,469 L-281,454 L-274,430 L-273,422 L-270,406 L-267,390 L-265,379 L-264,377 L-261,356 L-260,345 L-257,317 L-253,289 L-250,272 L-248,256 L-247,246 L-238,196 L-237,184 L-231,142 L-230,125 L-226,88 L-225,70 L-222,35 L-221,18 L-224,16 L-224,14 L-219,14 L-218,3 L-214,2 L-212,6 L-211,14 L-201,14 L-176,16 L-123,17 L-74,15 L-21,11 L0,8 L3,6 L0,4 Z " fill="#FEFEFE" transform="translate(1151,2740)"/>
<path d="M0,0 L7,1 L19,12 L29,18 L62,29 L83,33 L102,35 L129,35 L151,33 L176,28 L188,23 L195,18 L199,19 L198,37 L195,59 L193,72 L191,89 L188,116 L186,130 L184,151 L181,174 L178,196 L175,215 L172,240 L169,258 L166,282 L162,312 L160,333 L157,354 L154,381 L153,390 L149,454 L149,485 L151,513 L157,556 L159,564 L160,577 L162,584 L163,597 L166,607 L168,625 L169,630 L169,664 L168,678 L163,700 L158,712 L152,720 L144,727 L134,732 L127,734 L106,737 L93,738 L72,738 L47,736 L27,732 L15,727 L6,721 L-1,714 L-8,703 L-14,689 L-21,664 L-24,636 L-24,608 L-22,594 L-22,586 L-19,572 L-13,546 L-10,537 L-8,525 L-3,507 L1,487 L3,479 L5,460 L7,453 L8,436 L11,399 L13,381 L13,367 L14,354 L15,324 L15,299 L14,280 L11,243 L10,224 L8,201 L7,137 L4,92 L1,59 L0,54 L-1,30 L-3,9 L-1,1 Z " fill="#FDFDFD" transform="translate(1299,2755)"/>
<path d="M0,0 L7,1 L12,5 L13,20 L5,45 L0,61 L-9,86 L-12,98 L-24,130 L-41,178 L-54,221 L-63,255 L-69,282 L-75,302 L-82,330 L-90,366 L-99,402 L-105,433 L-108,454 L-108,487 L-106,511 L-104,528 L-102,555 L-100,603 L-99,609 L-99,642 L-101,652 L-108,671 L-118,686 L-123,692 L-137,703 L-156,715 L-172,724 L-188,732 L-205,739 L-220,745 L-244,752 L-270,758 L-299,763 L-319,765 L-323,766 L-342,767 L-374,767 L-397,763 L-409,757 L-417,750 L-421,742 L-422,730 L-421,715 L-418,708 L-414,692 L-410,686 L-405,672 L-401,667 L-396,655 L-391,647 L-386,638 L-384,638 L-382,632 L-375,620 L-368,609 L-361,598 L-354,587 L-347,576 L-339,565 L-332,554 L-325,543 L-314,528 L-309,519 L-305,513 L-301,505 L-298,500 L-294,490 L-289,478 L-285,469 L-281,454 L-274,430 L-273,422 L-270,406 L-267,390 L-265,379 L-264,377 L-261,356 L-260,345 L-257,317 L-253,289 L-250,272 L-248,256 L-247,246 L-238,196 L-237,184 L-231,142 L-230,125 L-226,88 L-225,70 L-222,35 L-221,18 L-224,16 L-224,14 L-219,14 L-218,3 L-214,2 L-212,6 L-211,14 L-201,14 L-176,16 L-123,17 L-74,15 L-21,11 L0,8 L3,6 L0,4 Z M4,13 L-9,16 L-18,17 L-53,19 L-79,21 L-101,22 L-154,22 L-184,20 L-208,17 L-214,17 L-214,20 L-216,20 L-218,42 L-219,76 L-221,98 L-223,128 L-227,161 L-229,182 L-235,218 L-237,234 L-245,277 L-247,300 L-249,311 L-252,340 L-256,361 L-258,383 L-260,392 L-262,406 L-265,418 L-268,434 L-270,439 L-275,460 L-280,474 L-285,489 L-290,499 L-302,521 L-310,534 L-321,550 L-335,571 L-353,598 L-361,611 L-368,622 L-378,638 L-388,655 L-388,659 L-390,659 L-398,675 L-398,678 L-400,678 L-405,689 L-410,702 L-412,707 L-414,719 L-415,721 L-415,736 L-410,746 L-403,753 L-393,756 L-388,756 L-388,758 L-381,759 L-329,759 L-316,757 L-281,753 L-264,750 L-257,748 L-240,744 L-229,740 L-216,736 L-206,732 L-198,729 L-186,724 L-182,722 L-182,720 L-176,718 L-167,713 L-163,712 L-163,710 L-158,708 L-142,698 L-131,689 L-123,681 L-116,671 L-109,657 L-106,641 L-106,606 L-107,593 L-109,544 L-113,514 L-114,512 L-115,492 L-115,458 L-110,420 L-103,390 L-99,371 L-84,316 L-81,301 L-79,296 L-76,281 L-64,234 L-61,223 L-59,213 L-49,182 L-39,153 L-26,118 L-21,101 L-11,74 L-5,58 L-2,49 L3,32 L7,20 L7,13 Z " fill="#090909" transform="translate(1151,2740)"/>
<path d="M0,0 L7,1 L19,12 L29,18 L62,29 L83,33 L102,35 L129,35 L151,33 L176,28 L188,23 L195,18 L199,19 L198,37 L195,59 L193,72 L191,89 L188,116 L186,130 L184,151 L181,174 L178,196 L175,215 L172,240 L169,258 L166,282 L162,312 L160,333 L157,354 L154,381 L153,390 L149,454 L149,485 L151,513 L157,556 L159,564 L160,577 L162,584 L163,597 L166,607 L168,625 L169,630 L169,664 L168,678 L163,700 L158,712 L152,720 L144,727 L134,732 L127,734 L106,737 L93,738 L72,738 L47,736 L27,732 L15,727 L6,721 L-1,714 L-8,703 L-14,689 L-21,664 L-24,636 L-24,608 L-22,594 L-22,586 L-19,572 L-13,546 L-10,537 L-8,525 L-3,507 L1,487 L3,479 L5,460 L7,453 L8,436 L11,399 L13,381 L13,367 L14,354 L15,324 L15,299 L14,280 L11,243 L10,224 L8,201 L7,137 L4,92 L1,59 L0,54 L-1,30 L-3,9 L-1,1 Z M5,9 L5,36 L8,65 L10,78 L11,100 L12,104 L13,141 L14,151 L17,219 L21,269 L22,295 L22,355 L19,400 L17,417 L16,440 L13,465 L12,472 L11,473 L6,503 L2,522 L-3,538 L-10,568 L-11,579 L-13,579 L-15,611 L-15,646 L-14,658 L-9,678 L-4,692 L1,701 L11,714 L20,721 L33,726 L48,729 L66,731 L90,731 L116,729 L116,727 L123,727 L135,723 L145,717 L150,710 L150,708 L152,708 L157,695 L157,691 L159,691 L162,668 L162,620 L160,607 L157,584 L152,558 L149,548 L146,525 L144,501 L143,492 L143,439 L144,424 L145,420 L147,389 L148,387 L150,357 L154,328 L156,309 L161,278 L164,247 L171,204 L174,180 L178,155 L180,135 L182,121 L184,101 L187,75 L190,53 L192,37 L193,28 L188,30 L170,36 L157,39 L133,41 L99,41 L75,38 L69,38 L69,36 L46,30 L30,24 L17,17 L6,9 Z " fill="#0B0B0B" transform="translate(1299,2755)"/>
<path d="M0,0 L1,0 L1,39 L2,55 L3,61 L3,70 L2,70 L0,63 L-1,43 L-1,9 Z " fill="#666666" transform="translate(1036,3189)"/>
<path d="M0,0 L15,0 L15,1 L1,3 L-9,3 L-6,1 Z " fill="#606060" transform="translate(1132,2755)"/>
<path d="M0,0 L1,0 L4,15 L4,23 L2,20 L0,12 Z " fill="#B5B5B5" transform="translate(1285,3401)"/>
<path d="M0,0 L4,1 L4,6 L0,7 L-1,6 L-1,1 Z " fill="#000000" transform="translate(1642,3252)"/>
<path d="M0,0 L2,3 L3,9 L3,18 L2,18 L0,11 Z " fill="#999999" transform="translate(1036,3241)"/>
<path d="M0,0 L1,0 L1,8 L-1,15 L-3,15 L-2,7 Z " fill="#585858" transform="translate(1052,3108)"/>
<path d="M0,0 L1,2 L-2,11 L-4,13 L-3,5 Z " fill="#A0A0A0" transform="translate(743,3438)"/>
<path d="M0,0 L2,0 L1,9 L0,9 L0,3 L-6,4 L-3,2 Z " fill="#AFAFAF" transform="translate(1490,2783)"/>
<path d="M0,0 L1,0 L1,8 L-1,13 L-2,13 L-2,6 L0,6 Z " fill="#9E9E9E" transform="translate(1288,3328)"/>
</svg>
